<svg width="38" height="38" fill="none" xmlns="http://www.w3.org/2000/svg"><path d="M6.55 22.174a.998.998 0 0 0-.954-.697H1.002C.45 21.477 0 21.927 0 22.48v11.823c0 .56.456 1.017 1.017 1.017h13.026c.56 0 1.016-.457 1.016-1.017V24.26c0-.561-.456-1.017-1.016-1.017H6.892l-.342-1.07Zm-5.437.417h4.402l.208.653h-4.61v-.653Zm12.833 11.615H1.113v-9.849h12.833v9.85ZM29.81 21.536a.556.556 0 0 0 .578-.535 11.402 11.402 0 0 0-2.444-7.513.556.556 0 1 0-.873.69 10.29 10.29 0 0 1 2.204 6.78.557.557 0 0 0 .535.578ZM21.81 30.45a10.302 10.302 0 0 1-5.622 0 .557.557 0 1 0-.303 1.072c2.037.578 4.19.578 6.228 0a.556.556 0 1 0-.303-1.071Z" fill="#555759"/><path d="M10.838 13.396a.557.557 0 0 0-.782.092 11.436 11.436 0 0 0-2.31 8.865.557.557 0 0 0 1.1-.175 10.32 10.32 0 0 1 2.083-8 .557.557 0 0 0-.091-.782ZM31.604 26.867h3.615a.556.556 0 1 0 0-1.113h-3.616a.556.556 0 1 0 0 1.113ZM31.604 28.614h3.615a.557.557 0 0 0 0-1.114h-3.616a.557.557 0 1 0 0 1.114ZM8.663 26.867h3.616a.557.557 0 1 0 0-1.113H8.663a.556.556 0 1 0 0 1.113ZM8.663 28.614h3.616a.557.557 0 0 0 0-1.114H8.663a.557.557 0 1 0 0 1.114ZM23.747 7.016h-3.615a.556.556 0 1 0 0 1.113h3.615a.557.557 0 1 0 0-1.113ZM23.747 8.766h-3.615a.557.557 0 0 0 0 1.113h3.615a.557.557 0 1 0 0-1.113Z" fill="#555759"/><path d="M36.983 23.244h-7.15l-.342-1.07a.993.993 0 0 0-.1-.219l-.014-.02-.03-.045a.998.998 0 0 0-.81-.413h-4.594c-.553 0-1.003.45-1.003 1.003v11.823c0 .56.456 1.017 1.017 1.017h5.214a.557.557 0 0 0 0-1.114h-5.117v-9.849h12.833v9.85h-7.493a.557.557 0 1 0 0 1.113h7.59c.56 0 1.016-.457 1.016-1.017V24.26c0-.561-.456-1.017-1.017-1.017Zm-12.93-.653h4.402l.209.653h-4.61v-.653ZM25.973 12.599a.556.556 0 0 0 .556-.557V5.53c0-.56-.456-1.016-1.017-1.016h-7.15l-.342-1.07a.999.999 0 0 0-.954-.697h-4.594c-.553 0-1.002.45-1.002 1.002v11.824c0 .56.456 1.017 1.016 1.017h13.026c.561 0 1.017-.457 1.017-1.017v-3.307a.557.557 0 1 0-1.113 0v3.21H12.583v-9.85h12.833v6.417c0 .308.249.557.556.557Zm-13.39-8.74h4.401l.209.654h-4.61v-.654Z" fill="#555759"/></svg>