<svg width="38" height="38" fill="none" xmlns="http://www.w3.org/2000/svg"><g clip-path="url(#a)"><path d="M33.507 13.428C32.887 5.415 25.889-.576 17.878.043A14.55 14.55 0 0 0 4.495 13.427a5.77 5.77 0 0 0-2.827 1.543 5.7 5.7 0 0 0 3.113 9.65.633.633 0 0 0 .287.08.764.764 0 0 0 .12-.013.376.376 0 0 0 .049-.015c.154.012.306.028.465.028h1.266c.35 0 .633-.284.633-.633V13.934a.633.633 0 0 0-.633-.633H5.777C6.461 5.997 12.937.63 20.241 1.316A13.282 13.282 0 0 1 32.226 13.3h-1.193a.633.633 0 0 0-.634.633v10.133c0 .35.284.633.634.633h1.266v1.266c0 4.886-3.819 8.598-8.963 8.843a2.528 2.528 0 1 0 .015 1.266c5.859-.255 10.215-4.508 10.215-10.109v-1.411a5.792 5.792 0 0 0 2.767-1.524A5.689 5.689 0 0 0 38 19.001a5.7 5.7 0 0 0-4.492-5.574Zm-27.172 1.14v8.865h-.633a4.433 4.433 0 1 1 0-8.866h.633ZM20.9 36.731a1.267 1.267 0 1 1 0-2.533 1.267 1.267 0 0 1 0 2.533ZM32.856 23.4a4.634 4.634 0 0 1-.557.033h-.633v-8.866h.633a4.433 4.433 0 0 1 .557 8.833Z" fill="#555759"/></g><defs><clipPath id="a"><path fill="#fff" d="M0 0h38v38H0z"/></clipPath></defs></svg>