<svg width="48" height="48" viewBox="0 0 48 48" fill="none" xmlns="http://www.w3.org/2000/svg">
<path fill-rule="evenodd" clip-rule="evenodd" d="M36.828 12.828L31.172 7.172C30.422 6.422 29.404 6 28.344 6H14C11.79 6 10 7.79 10 10V38C10 40.21 11.79 42 14 42H34C36.21 42 38 40.21 38 38V15.656C38 14.596 37.578 13.578 36.828 12.828V12.828Z" stroke="#323232" stroke-width="2" stroke-linecap="round" stroke-linejoin="round"/>
<path d="M38 16H30C28.896 16 28 15.104 28 14V6" stroke="#323232" stroke-width="2" stroke-linecap="round" stroke-linejoin="round"/>
<path d="M17.0002 33.9336C17.0002 33.9276 16.9962 33.9236 16.9902 33.9236C16.9842 33.9236 16.9802 33.9276 16.9802 33.9336C16.9802 33.9396 16.9842 33.9436 16.9902 33.9436C16.9962 33.9436 17.0002 33.9396 17.0002 33.9336" stroke="#323232" stroke-width="2" stroke-linecap="round" stroke-linejoin="round"/>
<path d="M16 21.9883H32" stroke="#323232" stroke-width="2" stroke-linecap="round" stroke-linejoin="round"/>
<path d="M16 27.9883H32" stroke="#323232" stroke-width="2" stroke-linecap="round" stroke-linejoin="round"/>
<path d="M31.0002 34C31.0002 33.994 30.9962 33.99 30.9902 33.99C30.9842 33.99 30.9802 33.994 30.9802 34C30.9802 34.006 30.9842 34.01 30.9902 34.01C30.9962 34.01 31.0002 34.006 31.0002 34" stroke="#323232" stroke-width="2" stroke-linecap="round" stroke-linejoin="round"/>
<path d="M24.01 33.9805C24.01 33.9745 24.006 33.9705 24 33.9705C23.994 33.9705 23.99 33.9745 23.99 33.9805C23.99 33.9865 23.994 33.9905 24 33.9905C24.006 33.9905 24.01 33.9865 24.01 33.9805" stroke="#323232" stroke-width="2" stroke-linecap="round" stroke-linejoin="round"/>
</svg>
