<svg width="38" height="38" fill="none" xmlns="http://www.w3.org/2000/svg"><path d="M29.665 23.492H8.334A6.962 6.962 0 0 1 6.526 9.805v-.09A8.689 8.689 0 0 1 22.805 5.48a4.96 4.96 0 0 1 1.143-.14 5.48 5.48 0 0 1 5.297 4.23h.42a6.961 6.961 0 1 1 0 13.923ZM15.22 2.051a7.675 7.675 0 0 0-7.667 7.667c0 .11.008.217.015.325l.01.136a.514.514 0 0 1-.412.533 5.935 5.935 0 0 0 1.169 11.753h21.331a5.934 5.934 0 1 0 0-11.87h-.845a.514.514 0 0 1-.508-.438 4.446 4.446 0 0 0-4.365-3.789 4.355 4.355 0 0 0-1.26.206.514.514 0 0 1-.606-.26 7.626 7.626 0 0 0-6.862-4.263Z" fill="#555759"/><path d="M31.252 32.073h-3.6a3.044 3.044 0 0 1-3.04-3.04v-6.05a.514.514 0 1 1 1.027 0v6.05a2.016 2.016 0 0 0 2.014 2.013h3.599a.513.513 0 1 1 0 1.027Z" fill="#555759"/><path d="M33.397 34.213a2.658 2.658 0 1 1 .002-5.316 2.658 2.658 0 0 1-.002 5.316Zm0-4.288a1.63 1.63 0 1 0 .001 3.261 1.63 1.63 0 0 0 0-3.26ZM19 36.971a2.658 2.658 0 1 1 0-5.315 2.658 2.658 0 0 1 0 5.315Zm0-4.288a1.63 1.63 0 1 0 0 3.262 1.63 1.63 0 0 0 0-3.262ZM10.347 32.073h-3.6a.513.513 0 1 1 0-1.027h3.6a2.015 2.015 0 0 0 2.013-2.014v-6.05a.514.514 0 1 1 1.027 0v6.05a3.044 3.044 0 0 1-3.04 3.041Z" fill="#555759"/><path d="M4.603 34.213a2.658 2.658 0 1 1 .002-5.316 2.658 2.658 0 0 1-.002 5.316Zm0-4.288a1.63 1.63 0 1 0 .001 3.262 1.63 1.63 0 0 0 0-3.261ZM19 32.687a.513.513 0 0 1-.513-.514v-9.192a.513.513 0 1 1 1.027 0v9.192a.513.513 0 0 1-.513.514Z" fill="#555759"/></svg>