<svg width="38" height="38" fill="none" xmlns="http://www.w3.org/2000/svg"><g clip-path="url(#a)" fill="#555759"><path d="M29.471 13.692h-2V8.49c0-4.68-3.808-8.489-8.49-8.489-4.68 0-8.489 3.808-8.489 8.49v5.202h-2a3.331 3.331 0 0 0-3.327 3.328v17.653A3.331 3.331 0 0 0 8.492 38h20.979a3.331 3.331 0 0 0 3.327-3.327V17.019a3.331 3.331 0 0 0-3.327-3.327ZM12.012 8.49a6.978 6.978 0 0 1 6.97-6.97 6.977 6.977 0 0 1 6.97 6.97v5.203h-13.94V8.49Zm19.266 26.184a1.81 1.81 0 0 1-1.807 1.807H8.492a1.81 1.81 0 0 1-1.807-1.807V17.019a1.81 1.81 0 0 1 1.807-1.807h20.979c.997 0 1.807.811 1.807 1.808v17.653Z"/><path d="M18.981 22.078a2.663 2.663 0 0 0-2.66 2.66c0 1.2.806 2.207 1.9 2.536v1.806a.76.76 0 1 0 1.52 0v-1.806a2.655 2.655 0 0 0 1.9-2.536 2.663 2.663 0 0 0-2.66-2.66Zm0 3.8a1.141 1.141 0 0 1 0-2.28 1.141 1.141 0 0 1 0 2.28Z"/></g><defs><clipPath id="a"><path fill="#fff" d="M0 0h38v38H0z"/></clipPath></defs></svg>