<svg width="38" height="38" fill="none" xmlns="http://www.w3.org/2000/svg"><path d="M7.395 35.066a.514.514 0 0 1-.514-.513v-6.568H3.178a2.153 2.153 0 0 1-2.15-2.154V5.081a2.153 2.153 0 0 1 2.15-2.151h31.645a2.153 2.153 0 0 1 2.15 2.152v20.75a2.153 2.153 0 0 1-2.15 2.152H15.229L7.746 34.93a.51.51 0 0 1-.351.137ZM3.178 3.956a1.125 1.125 0 0 0-1.124 1.126v20.75a1.125 1.125 0 0 0 1.124 1.125h4.217a.514.514 0 0 1 .513.514v5.905l6.77-6.284a.514.514 0 0 1 .35-.137h19.795a1.125 1.125 0 0 0 1.123-1.124V5.081a1.125 1.125 0 0 0-1.123-1.123L3.178 3.957Z" fill="#555759"/><path d="M29.642 10.268H8.357a.514.514 0 0 1 0-1.027h21.285a.513.513 0 1 1 0 1.027ZM29.642 15.972H8.357a.514.514 0 0 1 0-1.027h21.285a.513.513 0 1 1 0 1.027ZM29.642 21.67H8.357a.514.514 0 0 1 0-1.026h21.285a.513.513 0 1 1 0 1.027Z" fill="#555759"/></svg>