<svg width="38" height="38" fill="none" xmlns="http://www.w3.org/2000/svg"><path d="m0 9.916.81.939c10.48-8.939 25.9-8.939 36.38 0l.81-.939C27.054.58 10.946.58 0 9.916Z" fill="#555759"/><path d="m4.54 17.53.875.877c7.507-7.49 19.66-7.49 27.167 0l.876-.876c-7.99-7.974-20.928-7.974-28.919 0ZM10.674 23.666l.876.876c4.117-4.107 10.781-4.107 14.898 0l.876-.876c-4.6-4.59-12.05-4.59-16.65 0ZM21.19 29.797a3.098 3.098 0 1 0-4.382 4.381 3.098 3.098 0 0 0 4.383-4.381Zm-.875 3.506a1.86 1.86 0 1 1-2.629-2.63 1.86 1.86 0 0 1 2.629 2.63Z" fill="#555759"/></svg>