<svg width="25" height="25" fill="none" xmlns="http://www.w3.org/2000/svg"><path clip-rule="evenodd" d="M19.792 17.71h-1.041a1.042 1.042 0 0 1-1.042-1.042V11.46c0-.575.467-1.042 1.042-1.042h1.041c1.151 0 2.084.932 2.084 2.083v3.125a2.083 2.083 0 0 1-2.084 2.084ZM6.25 17.71H5.208a2.083 2.083 0 0 1-2.083-2.084v-3.125c0-1.15.932-2.083 2.083-2.083H6.25c.575 0 1.042.467 1.042 1.042v5.208c0 .575-.467 1.042-1.042 1.042Z" stroke="#fff" stroke-width="1.5" stroke-linecap="round" stroke-linejoin="round"/><path d="M19.27 10.417v-.521a6.77 6.77 0 0 0-6.77-6.771v0a6.77 6.77 0 0 0-6.771 6.77v.522" stroke="#fff" stroke-width="1.5" stroke-linecap="round" stroke-linejoin="round"/><path clip-rule="evenodd" d="M13.151 22.135h-1.302a1.303 1.303 0 0 1-1.302-1.302v0c0-.718.583-1.302 1.302-1.302h1.302c.719 0 1.302.584 1.302 1.302v0c0 .72-.583 1.302-1.302 1.302Z" stroke="#fff" stroke-width="1.5" stroke-linecap="round" stroke-linejoin="round"/><path d="M14.453 20.832h2.214a2.083 2.083 0 0 0 2.083-2.083v-1.042" stroke="#fff" stroke-width="1.5" stroke-linecap="round" stroke-linejoin="round"/></svg>