<svg width="25" height="25" fill="none" xmlns="http://www.w3.org/2000/svg"><path clip-rule="evenodd" d="M19.792 21.874v0a2.083 2.083 0 0 1-2.083-2.084v0c0-1.15.932-2.083 2.083-2.083v0c1.151 0 2.084.932 2.084 2.083v0a2.083 2.083 0 0 1-2.084 2.084Z" stroke="#fff" stroke-width="1.5" stroke-linecap="round" stroke-linejoin="round"/><path d="M12.5 11.457v6.25" stroke="#fff" stroke-width="1.5" stroke-linecap="round" stroke-linejoin="round"/><path clip-rule="evenodd" d="M12.5 21.874v0a2.083 2.083 0 0 1-2.084-2.084v0c0-1.15.932-2.083 2.083-2.083v0c1.151 0 2.084.932 2.084 2.083v0a2.083 2.083 0 0 1-2.084 2.084ZM5.208 21.874v0a2.083 2.083 0 0 1-2.083-2.084v0c0-1.15.932-2.083 2.083-2.083v0c1.151 0 2.084.932 2.084 2.083v0a2.083 2.083 0 0 1-2.084 2.084Z" stroke="#fff" stroke-width="1.5" stroke-linecap="round" stroke-linejoin="round"/><path d="M5.209 17.707v-2.083c0-.575.467-1.042 1.042-1.042h12.5c.575 0 1.041.467 1.041 1.042v2.083" stroke="#fff" stroke-width="1.5" stroke-linecap="round" stroke-linejoin="round"/><path clip-rule="evenodd" d="M17.708 3.125H7.292a4.167 4.167 0 0 0-4.167 4.167v0a4.167 4.167 0 0 0 4.167 4.166h10.416a4.167 4.167 0 0 0 4.167-4.166v0a4.167 4.167 0 0 0-4.167-4.167Z" stroke="#fff" stroke-width="1.5" stroke-linecap="round" stroke-linejoin="round"/><path d="M11.459 7.29h6.25M7.327 7.253c.021.021.021.054 0 .074a.052.052 0 0 1-.074 0 .052.052 0 0 1 0-.074c.021-.02.055-.02.074 0" stroke="#fff" stroke-width="1.5" stroke-linecap="round" stroke-linejoin="round"/></svg>