<svg width="25" height="25" fill="none" xmlns="http://www.w3.org/2000/svg"><path d="M16.664 3.125h3.423c.985 0 1.785.8 1.785 1.785v3.423M8.333 21.876H4.91c-.985 0-1.785-.8-1.785-1.785v-3.423" stroke="#fff" stroke-width="1.5" stroke-linecap="round" stroke-linejoin="round"/><path clip-rule="evenodd" d="M21.374 15.244h-3.257a.772.772 0 0 1-.639-.338l-.698-1.026a.77.77 0 0 0-.637-.337h-2.1c-.852 0-1.543.69-1.543 1.543v6.288c0 .853.69 1.544 1.543 1.544h7.33c.853 0 1.544-.69 1.544-1.543v-4.587c0-.852-.691-1.544-1.543-1.544v0ZM10.958 3.783H7.7a.772.772 0 0 1-.639-.337L6.364 2.42a.77.77 0 0 0-.637-.338h-2.1c-.852 0-1.543.69-1.543 1.543v6.288c0 .853.69 1.544 1.543 1.544h7.33c.853 0 1.544-.69 1.544-1.543V5.327c0-.852-.691-1.544-1.543-1.544Z" stroke="#fff" stroke-width="1.5" stroke-linecap="round" stroke-linejoin="round"/></svg>