<svg width="25" height="25" fill="none" xmlns="http://www.w3.org/2000/svg"><rect x="9.375" y="9.375" width="6.251" height="6.251" rx="1.499" stroke="#fff" stroke-width="1.5" stroke-linecap="round" stroke-linejoin="round"/><path d="M21.878 15.627h-3.126M6.247 9.373H3.121M6.247 15.627H3.121M9.375 3.121v3.126M9.375 18.754v3.126M15.627 18.754v3.126M12.502 18.754v3.126M11.459 6.246H9.374a3.126 3.126 0 0 0-3.126 3.126v6.253c0 1.727 1.4 3.126 3.126 3.126h6.253c1.727 0 3.126-1.4 3.126-3.126v-2.084M14.584 6.246v0a4.168 4.168 0 0 1 4.168 4.168v0M14.584 3.121v0a7.295 7.295 0 0 1 7.295 7.295v0M6.247 12.502H3.121" stroke="#fff" stroke-width="1.5" stroke-linecap="round" stroke-linejoin="round"/></svg>