<svg width="25" height="25" fill="none" xmlns="http://www.w3.org/2000/svg"><path d="M9.115 19.27h2.604M15.626 13.516v6.274a2.083 2.083 0 0 1-2.084 2.084h-6.25A2.083 2.083 0 0 1 5.21 19.79V7.29c0-1.15.932-2.083 2.083-2.083h3.75M13.56 7.813a.13.13 0 1 0 .131.13.132.132 0 0 0-.13-.13M16.166 7.813a.13.13 0 1 0 .131.13.132.132 0 0 0-.13-.13M18.769 7.813a.13.13 0 1 0 0 .26.13.13 0 0 0 0-.26" stroke="#fff" stroke-width="1.5" stroke-linecap="round" stroke-linejoin="round"/><path clip-rule="evenodd" d="M11.075 10.477A5.729 5.729 0 1 1 21.874 7.81a5.729 5.729 0 0 1-8.375 5.08l-3.063.65.64-3.064Z" stroke="#fff" stroke-width="1.5" stroke-linecap="round" stroke-linejoin="round"/></svg>