<svg width="25" height="25" fill="none" xmlns="http://www.w3.org/2000/svg"><path d="M15.301 16.474h-5.6" stroke="#fff" stroke-width="1.5" stroke-linecap="round" stroke-linejoin="round"/><path clip-rule="evenodd" d="M9.446 16.217a5.296 5.296 0 1 1 6.105.002.91.91 0 0 0-.404.737v2.442a2.206 2.206 0 0 1-2.207 2.207h-.882a2.207 2.207 0 0 1-2.207-2.207V16.96a.916.916 0 0 0-.405-.742Z" stroke="#fff" stroke-width="1.5" stroke-linecap="round" stroke-linejoin="round"/><path d="m19.132 5.592-.663.663M6.53 18.193l-.663.664M21.879 12.224h-.938M4.058 12.224H3.12M19.132 18.857l-.663-.664M6.53 6.255l-.663-.663M12.5 3.783v-.938" stroke="#fff" stroke-width="1.5" stroke-linecap="round" stroke-linejoin="round"/></svg>