<svg width="25" height="25" fill="none" xmlns="http://www.w3.org/2000/svg"><path clip-rule="evenodd" d="M9.375 21.876H5.208a2.083 2.083 0 0 1-2.083-2.083v-4.167c0-1.15.932-2.083 2.083-2.083h4.167c1.151 0 2.083.932 2.083 2.083v4.167a2.083 2.083 0 0 1-2.083 2.083Z" stroke="#fff" stroke-width="1.5" stroke-linecap="round" stroke-linejoin="round"/><path d="M11.458 17.707h3.125a2.083 2.083 0 0 0 2.083-2.083v-5.209a2.083 2.083 0 0 0-2.083-2.083H9.374a2.083 2.083 0 0 0-2.083 2.083v3.125" stroke="#fff" stroke-width="1.5" stroke-linecap="round" stroke-linejoin="round"/><path d="M16.666 14.583h3.125a2.083 2.083 0 0 0 2.083-2.083V5.208a2.083 2.083 0 0 0-2.083-2.083h-7.292a2.083 2.083 0 0 0-2.083 2.083v3.125" stroke="#fff" stroke-width="1.5" stroke-linecap="round" stroke-linejoin="round"/></svg>