<svg width="25" height="25" fill="none" xmlns="http://www.w3.org/2000/svg"><path d="M6.247 19.794H5.205a2.084 2.084 0 0 1-2.084-2.084V7.483c0-1.152.933-2.085 2.084-2.085h1.042M12.773 19.794h7.021a2.084 2.084 0 0 0 2.084-2.084V7.483a2.084 2.084 0 0 0-2.084-2.085h-7.02" stroke="#fff" stroke-width="1.5" stroke-linecap="round" stroke-linejoin="round"/><path clip-rule="evenodd" d="M10.69 21.879H8.332a2.084 2.084 0 0 1-2.084-2.084V5.205c0-1.151.933-2.084 2.084-2.084h2.358c1.152 0 2.085.933 2.085 2.084v14.59a2.084 2.084 0 0 1-2.085 2.084Z" stroke="#fff" stroke-width="1.5" stroke-linecap="round" stroke-linejoin="round"/><path d="M15.627 9.373h3.126M15.68 12.918c.028 0 .051.023.051.052 0 .03-.023.052-.052.052a.052.052 0 0 1-.052-.052c0-.028.023-.052.052-.052M15.68 15.524c.028 0 .051.023.051.052 0 .029-.023.052-.052.052a.052.052 0 0 1-.052-.052c0-.028.023-.052.052-.052M18.7 12.918c.03 0 .053.023.053.052 0 .03-.023.052-.052.052a.052.052 0 0 1-.052-.052.051.051 0 0 1 .052-.052M18.7 15.524c.03 0 .053.023.053.052 0 .029-.023.052-.052.052a.052.052 0 0 1-.052-.052.051.051 0 0 1 .052-.052" stroke="#fff" stroke-width="1.5" stroke-linecap="round" stroke-linejoin="round"/></svg>