<svg width="25" height="25" fill="none" xmlns="http://www.w3.org/2000/svg"><path d="M14.322 20.833h6.51M4.166 20.833h6.51M12.5 19.012a1.823 1.823 0 1 1 0 3.646 1.823 1.823 0 0 1 0-3.646" stroke="#fff" stroke-width="1.5" stroke-linecap="round" stroke-linejoin="round"/><path clip-rule="evenodd" d="M12.502 3.125a5.312 5.312 0 0 0-5.314 5.314 3.541 3.541 0 1 0 0 7.083h9.739a4.427 4.427 0 0 0 4.427-4.427c0-2.24-1.67-4.072-3.83-4.367a5.308 5.308 0 0 0-5.022-3.603Z" stroke="#fff" stroke-width="1.5" stroke-linecap="round" stroke-linejoin="round"/><path d="M12.5 15.523v3.489" stroke="#fff" stroke-width="1.5" stroke-linecap="round" stroke-linejoin="round"/></svg>