<svg width="206" height="226" fill="none" xmlns="http://www.w3.org/2000/svg"><circle cx="103" cy="113.504" transform="rotate(90 103 113.504)" fill="#D7F0FE" r="103"/><path d="M45.99.505h5.106a8.753 8.753 0 0 0-8.84 9.317l8.13 155.12a9.963 9.963 0 0 0 9.802 9.298H55.08a9.92 9.92 0 0 1-9.803-9.298L37.163 9.822A8.747 8.747 0 0 1 45.99.505Z" fill="#263238"/><path opacity=".3" d="M45.99.505h5.106a8.753 8.753 0 0 0-8.84 9.317l8.13 155.12a9.963 9.963 0 0 0 9.802 9.298H55.08a9.92 9.92 0 0 1-9.803-9.298L37.163 9.822A8.747 8.747 0 0 1 45.99.505Z" fill="#fff"/><path d="M57.944 174.253h62.571a8.74 8.74 0 0 0 6.438-2.726 8.738 8.738 0 0 0 2.388-6.571L121.213 9.822A9.965 9.965 0 0 0 111.41.525H48.839a8.753 8.753 0 0 0-8.826 9.297l8.129 155.121a9.963 9.963 0 0 0 9.802 9.31Z" fill="#263238"/><path d="m126.132 165.095-8.129-155.12a6.917 6.917 0 0 0-6.82-6.482h-12.75l.165 3.214a2.774 2.774 0 0 1-2.815 2.975h-30.21a3.32 3.32 0 0 1-3.32-3.128l-.16-3.061H48.618a5.771 5.771 0 0 0-5.844 6.15l8.115 155.14a6.92 6.92 0 0 0 6.82 6.481h62.579a5.76 5.76 0 0 0 5.844-6.169Z" fill="#FAFAFA"/><path opacity=".1" d="m126.132 165.095-8.129-155.12a6.917 6.917 0 0 0-6.82-6.482h-12.75l.165 3.214a2.774 2.774 0 0 1-2.815 2.975h-30.21a3.32 3.32 0 0 1-3.32-3.128l-.16-3.061H48.618a5.771 5.771 0 0 0-5.844 6.15l8.115 155.14a6.92 6.92 0 0 0 6.82 6.481h62.579a5.76 5.76 0 0 0 5.844-6.169Z" fill="#000"/><g opacity=".8" fill="#fff"><path opacity=".8" d="M108.516 119.047H64.128c-2.185 0-2.657-3.394-.472-3.394h44.389c2.185 0 2.656 3.394.471 3.394ZM102.307 127.567H64.573c-2.185 0-2.656-3.393-.471-3.393h37.734c2.185 0 2.656 3.393.471 3.393ZM107.592 136.088H65.023c-2.184 0-2.656-3.394-.478-3.394h42.569c2.192 0 2.656 3.394.478 3.394ZM95.216 144.608H65.504c-2.185 0-2.657-3.393-.478-3.393h29.698c2.185 0 2.657 3.393.478 3.393h.014Z"/></g><path opacity=".2" d="M55.398 170.84c.744.279 1.53.423 2.325.425h30.88l30.888-132.88-1.488-28.41a6.917 6.917 0 0 0-6.82-6.482h-12.75l.165 3.214a2.776 2.776 0 0 1-2.816 2.976H92.86L55.398 170.84ZM96.512 171.265l24.433-105.114-.831-15.919-28.137 121.033h4.535Z" fill="#fff"/><path d="m182.493 106.097.99 2.942c.139.411-.624 3.387-.332 4.104l1.773 3.719c.239.418.629.729 1.089.87.738.105 1.49-.03 2.145-.385l.95-.498a1.33 1.33 0 0 0 .73-1.289c-.086-1.288 0-3.739-.292-4.649a1.332 1.332 0 0 0-.365-.604l-1.395-1.328a1.885 1.885 0 0 1-.418-.777l-.89-3.321a1.905 1.905 0 0 0-1.043-1.23 1.897 1.897 0 0 0-1.613.015l-.346.173a1.896 1.896 0 0 0-.983 2.258ZM123.64 94.21l-4.649.956a.613.613 0 0 1-.558.126l-5.977-1.667a.59.59 0 0 0-.398 0l-4.981 2.145a.588.588 0 0 0-.326.738.6.6 0 0 0 .724.378l2.517-.71a.592.592 0 0 1 .664.232l2.218 3.208a.623.623 0 0 0 .425.252l2.531.272c.078.02.16.02.239 0l4.582-1.454a.608.608 0 0 0 .186-.093l4.37-.505a.59.59 0 0 0 .225-.41.596.596 0 0 0-.139-.447l-.817-2.995a.596.596 0 0 0-.413-.187.584.584 0 0 0-.423.16Z" fill="#FFBE9D"/><path d="M143.342 93.631c-.352 4.045-21.863 5.738-21.863 5.738l-1.002-5.22 15.998-4.86c-3.54-22.394 4.27-23.317 4.27-23.317s3.739 14.331 2.597 27.66Z" fill="#007BC3"/><path opacity=".6" d="M143.342 93.631c-.352 4.045-21.863 5.738-21.863 5.738l-1.002-5.22 15.998-4.86c-3.54-22.394 4.27-23.317 4.27-23.317s3.739 14.331 2.597 27.66Z" fill="#fff"/><path d="m147.184 208.74.511 12.266 5.067-.212.697-12.319-6.275.265Z" fill="#FFBE9D"/><path opacity=".2" d="m147.441 215.016 5.665-.239.352-6.302-6.282.265.265 6.276Z" fill="#263238"/><path d="m142.027 107.757 4.49 106.163 7.305-.312s3.905-23.994 3.028-40.171c-.093-1.674-.664-5.871-.538-7.305a42.622 42.622 0 0 1 1.196-6.256c1.773-7.445 3.426-20.315 2.423-29.958 0 0 9.544-10.2 7-23.243l-24.904 1.082Z" fill="#007BC3"/><path opacity=".2" d="m160.749 128.942-2.424-5.313-1.846.857s-.199 8.161 3.022 23.522c.762-5.995.9-12.053.411-18.077 0 0 .326-.345.837-.989Z" fill="#000"/><path d="M144.705 219.179c-.757 0-1.554-.106-1.813-.425a.552.552 0 0 1 0-.63.725.725 0 0 1 .445-.352c1.016-.306 3.188.863 3.281.916a.136.136 0 0 1 .061.06.129.129 0 0 1 .012.086.15.15 0 0 1-.036.081.142.142 0 0 1-.077.045c-.617.126-1.244.2-1.873.219Zm-1.003-1.168a.927.927 0 0 0-.272.039.394.394 0 0 0-.285.213c-.1.179-.06.266 0 .312.292.392 1.839.365 2.975.199a6.652 6.652 0 0 0-2.418-.763Z" fill="#007BC3"/><path d="M146.552 218.955h-.033c-.738-.313-2.245-1.601-2.126-2.298 0-.166.127-.372.525-.419a1.1 1.1 0 0 1 .817.226c.797.624.996 2.278 1.009 2.351a.13.13 0 0 1-.013.077.13.13 0 0 1-.053.056.126.126 0 0 1-.126.007Zm-1.554-2.444h-.087c-.259.033-.272.132-.285.172 0 .419.963 1.435 1.733 1.866a3.362 3.362 0 0 0-.857-1.859.73.73 0 0 0-.504-.173v-.006Z" fill="#007BC3"/><path d="m147.184 218.084 6.687-.159a.546.546 0 0 1 .538.412l1.328 5.412a.901.901 0 0 1-.664 1.089h-.186c-2.411 0-4.562-.066-7.564 0-3.54.087-2.656.492-6.794.664-2.51.093-3.035-2.749-1.992-2.915 4.855-.731 5.313-2.212 7.166-3.985a2.15 2.15 0 0 1 1.481-.518Z" fill="#263238"/><path d="m183.895 208.163 3.533 11.761 4.861-1.461-2.371-12.113-6.023 1.813Z" fill="#FFBE9D"/><path opacity=".2" d="m185.389 213.123 5.618-1.188-1.089-5.585-6.023 1.813 1.494 4.96Z" fill="#263238"/><path d="M152.024 112.154c6.567 24.817 32.301 100.172 32.301 100.172l7.08-1.627s-3.58-26.192-8.72-41.008c-.823-2.357-1.992-4.29-2.57-6.056-.711-2.245-.438-3.932-1.169-9.298-.843-6.189-2.079-14.305-3.5-20.66a49.39 49.39 0 0 1-.81-4.589c-.212-1.667-.272-2.902-.425-6.774-.219-5.313-2.251-12.578-4.376-17.207l-19.073.804s.85 4.675 1.262 6.243ZM183.515 217.831a2.644 2.644 0 0 1-1.859 0 .545.545 0 0 1-.146-.617.753.753 0 0 1 .358-.438c.923-.525 3.321.132 3.4.166a.142.142 0 0 1 .074.045.142.142 0 0 1 .033.081.17.17 0 0 1-.023.085.17.17 0 0 1-.064.061c-.572.256-1.165.462-1.773.617Zm-1.235-.923a1.358 1.358 0 0 0-.266.107.4.4 0 0 0-.225.265c-.06.2 0 .279.053.312.372.319 1.872-.046 2.942-.464a6.637 6.637 0 0 0-2.504-.22Z" fill="#007BC3"/><path d="M185.267 217.207a.088.088 0 0 1-.06 0c-.79-.133-2.543-1.062-2.59-1.766 0-.166.047-.392.425-.525a1.084 1.084 0 0 1 .844.04c.916.431 1.481 1.992 1.507 2.065.008.025.01.052.004.078a.146.146 0 0 1-.037.068.163.163 0 0 1-.093.04Zm-2.059-2.045h-.086c-.246.086-.239.192-.239.232.066.412 1.255 1.182 2.105 1.435a3.434 3.434 0 0 0-1.248-1.621.75.75 0 0 0-.532-.06v.014Z" fill="#007BC3"/><path d="m185.7 216.218 6.489-1.64a.533.533 0 0 1 .61.279l2.504 4.98a.902.902 0 0 1-.111.991.893.893 0 0 1-.274.218.962.962 0 0 1-.179.066c-2.351.552-4.463.95-7.372 1.687-3.433.87-2.457 1.056-6.481 2.139-2.431.664-3.573-1.993-2.577-2.404 4.575-1.787 4.708-3.321 6.103-5.492a2.125 2.125 0 0 1 1.288-.824Z" fill="#263238"/><g opacity=".2" fill="#000"><path opacity=".2" d="m163.886 112.512-.605-2.457a82.863 82.863 0 0 1-6.488 1.056l.266 2.523a84.722 84.722 0 0 0 6.827-1.122ZM148.02 111.576a42.18 42.18 0 0 1-5.313-.412l.226 2.597c1.762.224 3.536.346 5.313.365l-.226-2.55ZM169.643 108.527c-1.674.443-3.279.842-4.815 1.196l.724 2.43c1.521-.345 3.101-.737 4.748-1.195l-.657-2.431ZM154.82 111.316a63.18 63.18 0 0 1-5.472.273l.272 2.543c.664 0 1.328 0 1.992-.046a65.069 65.069 0 0 0 3.487-.246l-.279-2.524Z"/></g><path d="m171.663 64.63-9.809.412c-2.165 2.39-11.701 2.278-11.256.478l-9.902.418a2.213 2.213 0 0 0-2.066 1.508c-3.054 10.386 3.002 38.69 3.002 38.69-3.626 5.559 8.78 4.257 21.916 2.544 13.135-1.714 7.046-5.452 7.046-5.452-.857-13.488 1.627-31.711 2.337-37.19a1.227 1.227 0 0 0-1.268-1.408Z" fill="#007BC3"/><path opacity=".7" d="m171.663 64.63-9.809.412c-2.165 2.39-11.701 2.278-11.256.478l-9.902.418a2.213 2.213 0 0 0-2.066 1.508c-3.054 10.386 3.002 38.69 3.002 38.69-3.626 5.559 8.78 4.257 21.916 2.544 13.135-1.714 7.046-5.452 7.046-5.452-.857-13.488 1.627-31.711 2.337-37.19a1.227 1.227 0 0 0-1.268-1.408Z" fill="#fff"/><path d="M152.535 40.265s-5.917.511-5.419 3.22c.498 2.71 5.459.26 5.459.26l-.04-3.48Z" fill="#263238"/><path d="M160.657 53.759c-1.003 3.32-1.919 8.633-.544 11.9.332.784-.273 2.199-.963 2.697-2.418 1.899-5.214 3.666-8.288 3.466-3.945-.259-4.244-3.214-3.321-4.781.253-.419.903-1.328 1.382-1.455 3.831-.816 4.177-3.406 3.758-6.315l7.976-5.512Z" fill="#FFBE9D"/><path opacity=".2" d="m157.417 56.023-4.722 3.235c.089.713.118 1.433.087 2.151 1.66-.066 3.911-1.228 4.735-2.962.524-1.056.292-2.25-.1-2.424Z" fill="#000"/><path d="M162.667 48.36c-1.202 5.107-1.653 8.148-4.708 10.347-4.602 3.32-10.559-.166-10.898-5.506-.305-4.848 1.713-12.352 7.113-13.534a7.143 7.143 0 0 1 8.493 8.693Z" fill="#FFBE9D"/><path d="M154.801 47.962c-.212.392-.597.61-.856.465-.259-.146-.299-.578-.08-.977.219-.398.598-.61.857-.464.259.146.298.584.079.976ZM150.031 46.58c-.22.398-.605.611-.864.472-.259-.14-.299-.585-.079-.983.219-.399.597-.611.856-.465.259.146.299.564.087.976ZM157.105 47.157a.266.266 0 0 1-.18-.212 2.1 2.1 0 0 0-1.075-1.587.266.266 0 0 1 .005-.491.258.258 0 0 1 .2.006 2.665 2.665 0 0 1 1.382 1.992.272.272 0 0 1-.046.198.27.27 0 0 1-.173.107l-.113-.013ZM149.028 43.884a.263.263 0 0 1-.18-.236.278.278 0 0 1 .014-.103c.02-.053.054-.1.1-.133a2.658 2.658 0 0 1 2.384-.438c.066.024.12.073.15.136a.267.267 0 0 1 .009.203.277.277 0 0 1-.345.152 2.11 2.11 0 0 0-1.886.345.277.277 0 0 1-.246.074Z" fill="#263238"/><path d="M150.922 47.437a13.927 13.927 0 0 1-3.074 2.238 2.24 2.24 0 0 0 1.54 1.089l1.534-3.328Z" fill="#EB996E"/><path d="M149.374 52.385s1.9-.26 7.113.093c-.744 1.374-1.993 2.444-4.649 2.251-2.656-.193-2.464-2.344-2.464-2.344Z" fill="#263238"/><path d="M153.158 53.7a5.36 5.36 0 0 0-2.982.484c.48.332 1.044.518 1.627.538a5.312 5.312 0 0 0 2.975-.491 2.97 2.97 0 0 0-1.62-.531Z" fill="#EB996E"/><path d="M149.621 52.365a.993.993 0 0 0 .744.757c1.548.1 3.102.085 4.649-.047a1.52 1.52 0 0 0 1.241-.617 48.08 48.08 0 0 0-6.634-.093Z" fill="#fff"/><path d="M161.129 51.867a11.75 11.75 0 0 1-.783-5.698s-1.953-2.411-1.714-4.477c0 0-10.446.664-10.526-3.931-.079-4.596 6.435-.047 6.435-.047s.047-6.428 4.649-.97c0 0 5.485.838 6.282 5.4 0 0 2.265-.339 1.827 3.706a20.907 20.907 0 0 1-4.164 6.64l-2.006-.623Z" fill="#263238"/><path d="M164.356 53.606a5.02 5.02 0 0 1-3.427 1.64c-1.746.073-2.231-1.58-1.414-3.021.73-1.328 2.517-2.902 4.11-2.298 1.594.604 1.807 2.464.731 3.68Z" fill="#FFBE9D"/><path d="M166.387 46.693s1.766-2.77 2.41-1.833c.645.937-2.41 1.833-2.41 1.833Z" fill="#263238"/><path d="M149.678 65.547c-.319 1.329-.783 4.397 1.129 6.03 0 0 6.794-3.56 9.191-6.8a.764.764 0 0 1 1.083-.173l.584.452s.531 3.413-4.383 9.111a.44.44 0 0 1-.429.158.443.443 0 0 1-.341-.304c-.379-1.195-1.641-3.094-5.751-1.614 0 0-2.776-.916-4.171.618a.442.442 0 0 1-.708-.057.44.44 0 0 1-.069-.262c.1-2.56.907-5.042 2.331-7.172l1.063-.398a.35.35 0 0 1 .465.221c.02.062.022.128.006.19Z" fill="#007BC3"/><path opacity=".1" d="M143.902 106.183s9.802 1.262 17.672-1.122l-17.672 1.122ZM169.097 73.09s-.909 5.314 1.72 12.825c.273-3.899.631-7.63.99-10.872l-2.71-1.952Z" fill="#000"/><path d="M172.796 65.148s-6.308 4.25-3.38 11.855c2.929 7.604 13.169 30.927 13.169 30.927l5.207-1.328-6.322-21.205-8.674-20.282" fill="#007BC3"/><path opacity=".7" d="M172.796 65.148s-6.308 4.25-3.38 11.855c2.929 7.604 13.169 30.927 13.169 30.927l5.207-1.328-6.322-21.205-8.674-20.282" fill="#fff"/></svg>