<svg width="440" height="147" viewBox="0 0 440 147" fill="none" xmlns="http://www.w3.org/2000/svg">
<path d="M-107.211 15.8214C-107.211 15.8214 -75.333 164.412 95.6437 127.413C210.827 102.479 233.767 32.1368 337.047 6.27876C475.757 -28.4403 568.427 128.518 568.427 128.518M-109.484 25.6819C-109.484 25.6819 -64.2598 163.144 97.3241 114.407C208.571 80.856 244.955 24.4636 344.907 11.1185C477.28 -6.55728 562.138 139.284 562.138 139.284M-111.768 35.5423C-111.768 35.5423 -53.2039 161.553 98.9937 101.4C206.264 59.0061 256.027 16.6169 352.809 16.0124C478.707 15.2492 555.869 150.137 555.869 150.137M-114.042 45.392C-114.042 45.392 -42.2295 159.617 100.685 88.3931C203.938 36.941 267.027 8.47906 360.626 20.8946C479.989 36.6778 549.546 160.989 549.546 160.989M-116.325 55.2309C-116.325 55.2309 -31.444 157.345 102.408 75.3654C201.508 14.6274 278.19 0.192816 368.54 25.7458C481.394 57.7531 543.192 171.83 543.192 171.83M-118.599 65.1128C-118.599 65.1128 -20.8931 154.953 104.045 62.3903C198.79 -7.81903 289.411 -8.4368 376.346 30.6384C482.974 78.551 536.881 182.66 536.881 182.66" stroke="white" stroke-opacity="0.5" stroke-width="1.34" stroke-miterlimit="10"/>
</svg>
