<svg width="60" height="60" viewBox="0 0 60 60" fill="none" xmlns="http://www.w3.org/2000/svg">
<path fill-rule="evenodd" clip-rule="evenodd" d="M30 0C13.4315 0 0 13.4315 0 30C0 46.5685 13.4315 60 30 60C46.5685 60 60 46.5685 60 30C60 13.4315 46.5685 0 30 0ZM23.4041 14.0967C25.1108 14.019 25.6561 14 30.0015 14H29.9965C34.3432 14 34.8866 14.019 36.5932 14.0967C38.2966 14.1747 39.4599 14.4443 40.4799 14.84C41.5333 15.2483 42.4233 15.795 43.3133 16.685C44.2033 17.5744 44.75 18.467 45.16 19.5194C45.5533 20.5367 45.8233 21.6994 45.9033 23.4028C45.98 25.1094 46 25.6548 46 30.0002C46 34.3455 45.98 34.8896 45.9033 36.5962C45.8233 38.2989 45.5533 39.4619 45.16 40.4796C44.75 41.5316 44.2033 42.4243 43.3133 43.3136C42.4243 44.2037 41.533 44.7517 40.4809 45.1603C39.4629 45.556 38.2989 45.8257 36.5956 45.9037C34.8889 45.9813 34.3452 46.0003 29.9995 46.0003C25.6545 46.0003 25.1094 45.9813 23.4028 45.9037C21.6997 45.8257 20.5367 45.556 19.5187 45.1603C18.467 44.7517 17.5744 44.2037 16.6854 43.3136C15.7957 42.4243 15.249 41.5316 14.84 40.4793C14.4447 39.4619 14.175 38.2993 14.0967 36.5959C14.0193 34.8892 14 34.3455 14 30.0002C14 25.6548 14.02 25.1091 14.0963 23.4024C14.173 21.6997 14.443 20.5367 14.8397 19.5191C15.2497 18.467 15.7964 17.5744 16.6864 16.685C17.5757 15.7954 18.4684 15.2487 19.5207 14.84C20.5381 14.4443 21.7007 14.1747 23.4041 14.0967Z" fill="white"/>
<path fill-rule="evenodd" clip-rule="evenodd" d="M28.5662 16.8829C28.8449 16.8825 29.1447 16.8826 29.4683 16.8827L30.0016 16.8829C34.2736 16.8829 34.78 16.8982 36.467 16.9749C38.027 17.0462 38.8737 17.3069 39.4377 17.5259C40.1843 17.8159 40.7167 18.1626 41.2764 18.7226C41.8364 19.2826 42.183 19.8159 42.4737 20.5626C42.6927 21.126 42.9537 21.9726 43.0247 23.5326C43.1014 25.2193 43.118 25.726 43.118 29.996C43.118 34.2661 43.1014 34.7728 43.0247 36.4594C42.9534 38.0195 42.6927 38.8661 42.4737 39.4295C42.1837 40.1761 41.8364 40.7078 41.2764 41.2675C40.7163 41.8275 40.1847 42.1742 39.4377 42.4642C38.8743 42.6842 38.027 42.9442 36.467 43.0155C34.7803 43.0922 34.2736 43.1088 30.0016 43.1088C25.7292 43.1088 25.2229 43.0922 23.5362 43.0155C21.9762 42.9435 21.1295 42.6828 20.5651 42.4638C19.8185 42.1738 19.2851 41.8272 18.7251 41.2672C18.1651 40.7072 17.8184 40.1751 17.5278 39.4281C17.3088 38.8648 17.0478 38.0181 16.9768 36.4581C16.9001 34.7714 16.8848 34.2648 16.8848 29.992C16.8848 25.7193 16.9001 25.2153 16.9768 23.5286C17.0481 21.9686 17.3088 21.122 17.5278 20.5579C17.8178 19.8113 18.1651 19.2779 18.7251 18.7179C19.2851 18.1579 19.8185 17.8112 20.5651 17.5206C21.1291 17.3006 21.9762 17.0406 23.5362 16.9689C25.0122 16.9022 25.5842 16.8822 28.5662 16.8789V16.8829ZM38.5431 19.5397C37.4831 19.5397 36.623 20.3987 36.623 21.4591C36.623 22.5191 37.4831 23.3791 38.5431 23.3791C39.6031 23.3791 40.4631 22.5191 40.4631 21.4591C40.4631 20.3991 39.6031 19.5391 38.5431 19.5391V19.5397ZM21.7852 29.998C21.7852 25.4603 25.4642 21.7812 30.0019 21.7812H30.0016C34.5393 21.7812 38.2173 25.4603 38.2173 29.998C38.2173 34.5357 34.5396 38.2131 30.0019 38.2131C25.4642 38.2131 21.7852 34.5357 21.7852 29.998Z" fill="white"/>
<path fill-rule="evenodd" clip-rule="evenodd" d="M30.0014 24.668C32.9467 24.668 35.3347 27.0557 35.3347 30.0014C35.3347 32.9467 32.9467 35.3347 30.0014 35.3347C27.0557 35.3347 24.668 32.9467 24.668 30.0014C24.668 27.0557 27.0557 24.668 30.0014 24.668V24.668Z" fill="white"/>
</svg>
