<svg width="60" height="60" viewBox="0 0 60 60" fill="none" xmlns="http://www.w3.org/2000/svg">
<path fill-rule="evenodd" clip-rule="evenodd" d="M0 30C0 13.4315 13.4315 0 30 0C46.5685 0 60 13.4315 60 30C60 46.5685 46.5685 60 30 60C13.4315 60 0 46.5685 0 30ZM29.9796 30.4816C34.4035 30.4816 37.9995 27.0099 37.9995 22.742C37.9995 18.4726 34.4035 15 29.9796 15C25.5568 15 21.9597 18.4726 21.9597 22.742C21.9597 27.0099 25.5568 30.4816 29.9796 30.4816ZM37.902 34.9399C36.4519 35.819 34.8774 36.4425 33.245 36.8015L37.7283 41.1296C38.6467 42.0144 38.6467 43.4512 37.7283 44.3369C36.8108 45.2225 35.3237 45.2225 34.4072 44.3369L29.9992 40.0837L25.595 44.3369C25.1358 44.7792 24.534 45.0006 23.9323 45.0006C23.3315 45.0006 22.7307 44.7792 22.2715 44.3369C21.354 43.4512 21.354 42.0153 22.2705 41.1296L26.7544 36.8015C25.1219 36.4425 23.5475 35.8181 22.0973 34.9399C20.9999 34.2719 20.6702 32.8726 21.3617 31.8123C22.0513 30.7506 23.5014 30.431 24.6007 31.099C27.884 33.0926 32.1134 33.0931 35.3986 31.099C36.4979 30.431 37.9476 30.7506 38.6386 31.8123C39.3301 32.8717 38.9994 34.2719 37.902 34.9399Z" fill="white"/>
<path fill-rule="evenodd" clip-rule="evenodd" d="M29.9788 19.5352C31.81 19.5352 33.2995 20.9725 33.2995 22.7401C33.2995 24.5063 31.81 25.9445 29.9788 25.9445C28.1491 25.9445 26.6582 24.5063 26.6582 22.7401C26.6582 20.9725 28.1491 19.5352 29.9788 19.5352Z" fill="white"/>
</svg>
