<svg width="60" height="60" viewBox="0 0 60 60" fill="none" xmlns="http://www.w3.org/2000/svg">
<path fill-rule="evenodd" clip-rule="evenodd" d="M0 30C0 13.4315 13.4315 0 30 0C46.5685 0 60 13.4315 60 30C60 46.5685 46.5685 60 30 60C13.4315 60 0 46.5685 0 30Z" fill="white"/>
<path d="M46 17.0272L40.9387 43.7928C40.9387 43.7928 40.231 45.649 38.2845 44.758L26.6052 35.366L22.3584 33.213L15.2094 30.6885C15.2094 30.6885 14.1122 30.2803 14.006 29.3894C13.8997 28.4984 15.2448 28.0159 15.2448 28.0159L43.6638 16.3223C43.6638 16.3223 45.9998 15.2458 45.9998 17.0277" fill="#007BC3"/>
<path d="M25.7068 43.4896C25.7068 43.4896 25.3659 43.4562 24.9409 42.0453C24.5165 40.6347 22.3574 33.2103 22.3574 33.2103L39.5223 21.7767C39.5223 21.7767 40.5134 21.1456 40.478 21.7767C40.478 21.7767 40.6548 21.8882 40.1238 22.4079C39.5931 22.9278 26.6399 35.1408 26.6399 35.1408" fill="white"/>
<path d="M31.0826 38.9387L26.4632 43.3565C26.4632 43.3565 26.102 43.644 25.707 43.4638L26.5916 35.2578" fill="#007BC3"/>
</svg>
