<svg width="80" height="80" viewBox="0 0 80 80" xmlns="http://www.w3.org/2000/svg">
<g clip-path="url(#clip0_1308_66153)">
<path d="M70.5404 28.2683C69.235 11.4021 54.5039 -1.21254 37.6376 0.0928325C22.5855 1.25772 10.627 13.2164 9.46211 28.2683C7.21049 28.7638 5.14618 29.8897 3.51067 31.5147C-1.17106 36.2049 -1.16406 43.8021 3.526 48.4838C5.30183 50.2563 7.58862 51.4277 10.0647 51.833C10.2504 51.936 10.4578 51.9931 10.67 51.9996C10.7545 51.9975 10.8388 51.9884 10.922 51.973C10.957 51.9646 10.9911 51.954 11.0246 51.941C11.3486 51.9663 11.6699 51.9996 12.0032 51.9996H14.6696C15.4059 51.9996 16.0028 51.4027 16.0028 50.6664V29.3351C16.0028 28.5988 15.4059 28.0019 14.6696 28.0019H12.1619C13.6029 12.6258 27.2356 1.32938 42.6117 2.77025C55.9929 4.0243 66.5892 14.6206 67.8433 28.0019H65.3315C64.5953 28.0019 63.9983 28.5988 63.9983 29.3351V50.6664C63.9983 51.4027 64.5953 51.9996 65.3315 51.9996H67.9979V54.666C67.9979 64.9504 59.9587 72.767 49.1277 73.2816C48.3573 70.445 45.4332 68.77 42.5967 69.5406C39.7601 70.3111 38.0851 73.2351 38.8557 76.0717C39.6261 78.9082 42.5502 80.5833 45.3867 79.8127C47.2532 79.3057 48.6978 77.826 49.1597 75.948C61.4946 75.4107 70.6644 66.4569 70.6644 54.666V51.6943C72.8661 51.1857 74.8833 50.0751 76.4905 48.4866C78.7403 46.2362 80.0018 43.1828 79.9968 40.0007C79.9995 34.3514 76.0614 29.4654 70.5404 28.2683ZM13.3364 30.6681V49.333H12.0032C11.6124 49.333 11.2219 49.3099 10.834 49.2637C5.71763 48.6411 2.07463 43.9887 2.69724 38.8722C3.21703 34.6011 6.58938 31.2389 10.862 30.7321C11.2408 30.688 11.6219 30.6665 12.0032 30.6681H13.3364ZM44.0002 77.3304C42.5275 77.3304 41.3338 76.1367 41.3338 74.664C41.3338 73.1913 42.5275 71.9976 44.0002 71.9976C45.4729 71.9976 46.6666 73.1913 46.6666 74.664C46.6666 76.1367 45.4727 77.3304 44.0002 77.3304ZM69.1712 49.2624C68.7819 49.3095 68.3901 49.333 67.9979 49.333H66.6647V30.6681H67.9979C73.1521 30.6531 77.3426 34.8191 77.3577 39.9732C77.3714 44.6948 73.8569 48.6828 69.1712 49.2624Z"/>
</g>
<defs>
<clipPath id="clip0_1308_66153">
<rect width="80" height="80" fill="white"/>
</clipPath>
</defs>
</svg>
