<svg width="40" height="40" viewBox="0 0 40 40" xmlns="http://www.w3.org/2000/svg"><path d="M34.4462 38.9189H5.55324C5.40988 38.9189 5.27239 38.8619 5.17102 38.7606C5.06965 38.6592 5.0127 38.5217 5.0127 38.3783V1.6216C5.0127 1.47823 5.06965 1.34075 5.17102 1.23938C5.27239 1.138 5.40988 1.08105 5.55324 1.08105H26.6884C26.8317 1.08109 26.9692 1.13806 27.0705 1.23943L34.8278 8.99619C34.9292 9.09754 34.9862 9.235 34.9862 9.37835V38.3783C34.9862 38.5216 34.9293 38.659 34.8281 38.7604C34.7268 38.8617 34.5895 38.9187 34.4462 38.9189ZM6.09378 37.8378H33.9057V9.60214L26.4651 2.16214H6.09378V37.8378Z"/><path d="M34.4463 9.91878H26.689C26.5456 9.91878 26.4081 9.86183 26.3068 9.76046C26.2054 9.65909 26.1484 9.5216 26.1484 9.37824V1.62148C26.1485 1.51459 26.1802 1.4101 26.2396 1.32123C26.299 1.23236 26.3834 1.1631 26.4821 1.12219C26.5809 1.08129 26.6896 1.07059 26.7944 1.09143C26.8992 1.11228 26.9955 1.16375 27.0711 1.23932L34.8284 8.99608C34.904 9.07167 34.9555 9.16798 34.9763 9.27281C34.9972 9.37765 34.9865 9.48632 34.9456 9.58508C34.9047 9.68383 34.8354 9.76825 34.7465 9.82764C34.6577 9.88704 34.5532 9.91875 34.4463 9.91878ZM27.2295 8.8377H33.1414L27.2295 2.92634V8.8377Z"/><path d="M15.2495 34.6137H12.1333C11.99 34.6137 11.8525 34.5567 11.7511 34.4553C11.6497 34.354 11.5928 34.2165 11.5928 34.0731V25.1353C11.5928 24.9919 11.6497 24.8544 11.7511 24.753C11.8525 24.6517 11.99 24.5947 12.1333 24.5947H15.2495C15.3929 24.5947 15.5304 24.6517 15.6318 24.753C15.7331 24.8544 15.7901 24.9919 15.7901 25.1353V34.0731C15.7901 34.2165 15.7331 34.354 15.6318 34.4553C15.5304 34.5567 15.3929 34.6137 15.2495 34.6137ZM12.6739 33.5326H14.709V25.6758H12.6739V33.5326Z"/><path d="M21.4849 34H20H18.5151C18.3785 34 18.2475 33.9439 18.1509 33.844C18.0543 33.7441 18 34.6087 18 34.4674V22.5326C18 22.3913 18.0543 22.2559 18.1509 22.156C18.2475 22.0561 18.3785 22 18.5151 22H21.4849C21.6215 22 21.7525 22.0561 21.8491 22.156C21.9457 22.2559 22 22.3913 22 22.5326V34.4674C22 34.6087 21.9457 33.7441 21.8491 33.844C21.7525 33.9439 21.6215 34 21.4849 34ZM19.0301 33.9349H20.9699V23.0651H19.0301V33.9349Z"/><path d="M27.4849 34H24.5151C24.3785 34 24.2475 33.9264 24.1509 33.7953C24.0543 33.6643 24 34.4865 24 34.3012V21.6988C24 21.5134 24.0543 21.3357 24.1509 21.2047C24.2475 21.0736 24.3785 21 24.5151 21H27.4849C27.6215 21 27.7525 21.0736 27.8491 21.2047C27.9457 21.3357 28 21.5134 28 21.6988V34.3012C28 34.4865 27.9457 33.6643 27.8491 33.7953C27.7525 33.9264 27.6215 34 27.4849 34ZM25.0303 33.6024H26.9697V22.3976H25.0303V33.6024Z"/><path d="M29.6278 34.6133H10.3716C10.2282 34.6133 10.0907 34.5564 9.98938 34.455C9.888 34.3536 9.83105 34.2161 9.83105 34.0728C9.83105 33.9294 9.888 33.7919 9.98938 33.6905C10.0907 33.5892 10.2282 33.5322 10.3716 33.5322H29.6278C29.7712 33.5322 29.9087 33.5892 30.01 33.6905C30.1114 33.7919 30.1684 33.9294 30.1684 34.0728C30.1684 34.2161 30.1114 34.3536 30.01 34.455C29.9087 34.5564 29.7712 34.6133 29.6278 34.6133Z"/><path d="M20.6831 15.9837L17.1919 19.475L14.6919 16.975L8 23.6669L8.88375 24.5506L14.6919 18.7425L17.1919 21.2425L21.5669 16.8675L23.7806 19.0813L25.5506 12L18.4694 13.77L20.6831 15.9837ZM23.1031 16.6362L20.9144 14.4475L23.8331 13.7175L23.1031 16.6362Z"/></svg>
