<svg viewBox="0 0 40 40" xmlns="http://www.w3.org/2000/svg">
<path d="M21.7221 16.7378C21.1953 16.4541 20.5468 16.292 19.8173 16.292C19.2905 16.292 18.8042 16.373 18.3584 16.5352C17.9126 16.6973 17.5478 16.9404 17.2641 17.2646C16.9805 17.5889 16.7373 17.9941 16.5752 18.4399C16.4131 18.9262 16.332 19.4126 16.332 19.9799C16.332 20.5068 16.4131 21.0336 16.5752 21.4794C16.7373 21.9252 16.9399 22.3305 17.2641 22.6547C17.5478 22.9789 17.9126 23.2221 18.3584 23.4247C18.8042 23.5868 19.2905 23.7084 19.8579 23.7084C20.4252 23.7084 20.9116 23.6274 21.3574 23.4652C21.8032 23.3031 22.1679 23.0194 22.4516 22.6952C22.7353 22.371 22.9784 21.9658 23.1405 21.52C23.3026 21.0742 23.3837 20.5878 23.3837 20.0205C23.3837 19.291 23.2621 18.6425 22.9784 18.0752C22.6542 17.4673 22.2489 17.0215 21.7221 16.7378ZM21.6005 21.3984C21.3979 21.8036 21.1547 22.0873 20.871 22.2494C20.5468 22.4521 20.2226 22.5331 19.8579 22.5331C19.5742 22.5331 19.2905 22.4926 19.0473 22.371C18.8042 22.2494 18.6015 22.0873 18.3989 21.8847C18.1963 21.6821 18.0747 21.3984 17.9531 21.0742C17.8721 20.7499 17.791 20.3852 17.791 19.9799C17.791 19.5747 17.8315 19.2099 17.9531 18.8857C18.0747 18.5615 18.1963 18.2778 18.3584 18.0752C18.5205 17.8725 18.7636 17.7104 19.0068 17.5889C19.25 17.4673 19.5337 17.4267 19.8173 17.4267C20.2226 17.4267 20.5873 17.5078 20.9116 17.7104C21.2358 17.9131 21.4789 18.1968 21.641 18.5615C21.8032 18.9262 21.8842 19.4126 21.8842 19.9394C21.8842 20.5068 21.7626 20.9931 21.6005 21.3984Z"/>
<path d="M35.0148 7.98379L34.9742 7.94326V7.90274L27.2741 0.202634L27.2336 0.162107C27.2336 0.162107 27.1931 0.162107 27.1931 0.121581C27.1931 0.121581 27.1526 0.121581 27.1526 0.0810537C27.031 0 26.9094 0 26.7473 0H7.65915C6.88914 0 6.20018 0.324215 5.71386 0.810537C5.22754 1.29686 4.90332 2.02634 4.90332 2.75583V37.2442C4.90332 37.9737 5.18701 38.6626 5.67333 39.1489L5.71386 39.1895C6.20018 39.6758 6.92966 40 7.65915 40H32.34C33.11 40 33.799 39.6758 34.2853 39.1895C34.7716 38.7031 35.0958 37.9737 35.0958 37.2442V8.38906C35.0958 8.22695 35.0553 8.10537 35.0148 7.98379ZM27.5173 2.91793L32.0968 7.49747H28.7331C28.4089 7.49747 28.0847 7.37589 27.882 7.13273C27.6794 6.93009 27.5173 6.60588 27.5173 6.28166V2.91793ZM33.3532 37.2442C33.3532 37.5279 33.2316 37.771 33.029 37.9737C32.8263 38.1763 32.5832 38.2979 32.2995 38.2979H7.65915C7.37546 38.2979 7.1323 38.1763 6.92966 37.9737L6.88914 37.9331C6.72703 37.7305 6.60545 37.4873 6.60545 37.2442V2.7153C6.60545 2.43161 6.72703 2.18845 6.92966 1.98582C7.1323 1.78318 7.37546 1.6616 7.65915 1.6616H25.8152V6.24113C25.8152 7.05167 26.1394 7.78116 26.7068 8.34853C27.2336 8.87538 28.0036 9.1996 28.8142 9.1996H33.3532V37.2442Z"/>
<path d="M26.3423 16.5352C25.937 16.6973 25.5723 16.9404 25.248 17.2646C24.9238 17.5889 24.6807 17.9941 24.5186 18.4399C24.3564 18.8857 24.2754 19.4126 24.2754 19.9799C24.2754 20.3447 24.3159 20.6689 24.3564 20.9931C24.4375 21.3173 24.5186 21.601 24.6401 21.8847C24.7617 22.1684 24.9238 22.4115 25.1265 22.6547C25.3291 22.8979 25.5723 23.1005 25.8154 23.2626C26.0586 23.4247 26.3423 23.5058 26.6665 23.5868C26.9907 23.6679 27.3149 23.7084 27.6797 23.7084C28.166 23.7084 28.6118 23.6274 28.9765 23.4652C29.3413 23.3031 29.6655 23.1005 29.9086 22.8573C30.1518 22.6142 30.3139 22.3305 30.4355 22.0873C30.5571 21.8036 30.5976 21.5605 30.5976 21.3578C30.5976 21.1957 30.5165 21.0336 30.395 20.9121C30.2734 20.7905 30.1113 20.7499 29.9492 20.7499C29.7465 20.7499 29.5844 20.7905 29.5034 20.9121C29.4223 21.0336 29.3413 21.1957 29.2602 21.3578C29.0981 21.7631 28.8955 22.0468 28.6118 22.2494C28.3281 22.4521 27.9633 22.5737 27.5581 22.5737C27.1933 22.5737 26.8286 22.4926 26.5449 22.29C26.2612 22.0873 26.018 21.8442 25.8965 21.4794C25.7344 21.1147 25.6533 20.6689 25.6533 20.1015C25.6533 19.291 25.8154 18.6425 26.1802 18.1968C26.5449 17.751 26.9907 17.5078 27.5986 17.5078C27.9633 17.5078 28.2876 17.5889 28.5307 17.751C28.7739 17.9131 29.017 18.1968 29.1791 18.5615C29.3007 18.7641 29.3818 18.9262 29.5034 19.0073C29.5844 19.0883 29.7465 19.1289 29.9086 19.1289C30.0707 19.1289 30.2328 19.0478 30.3139 18.9262C30.4355 18.8047 30.476 18.6425 30.476 18.4804C30.476 18.1968 30.3544 17.8725 30.1113 17.5078C29.8681 17.1836 29.5439 16.8999 29.0576 16.6567C28.6118 16.4136 28.0849 16.292 27.5175 16.292C27.2339 16.292 26.7881 16.373 26.3423 16.5352Z"/>
<path d="M14.3051 17.0615C14.0214 16.8184 13.6972 16.6562 13.3325 16.5347C12.9677 16.4536 12.5625 16.4131 12.0761 16.4131H10.2119C9.88769 16.4131 9.68505 16.4941 9.52295 16.6157C9.40137 16.7373 9.32031 16.9805 9.32031 17.3047V22.5326C9.32031 22.7758 9.32031 22.9379 9.40137 23.1C9.44189 23.2621 9.52295 23.3432 9.64453 23.4242C9.76611 23.5053 9.96874 23.5458 10.2524 23.5458H12.1167C12.4409 23.5458 12.7246 23.5053 13.0083 23.4648C13.2514 23.4242 13.4946 23.3432 13.7377 23.2621C13.9809 23.1405 14.1835 23.019 14.3456 22.8569C14.5888 22.6137 14.7914 22.3705 14.9535 22.0868C15.1157 21.8032 15.2372 21.4789 15.3183 21.1142C15.3993 20.7495 15.4399 20.3847 15.4399 19.9389C15.3993 18.6826 15.0346 17.7099 14.3051 17.0615ZM13.2109 22.0463C13.0893 22.1274 12.9677 22.2084 12.8461 22.249C12.684 22.2895 12.5625 22.33 12.4409 22.33C12.3193 22.33 12.1167 22.33 11.8735 22.33H10.7793V17.5478H11.7519C12.1977 17.5478 12.5625 17.5884 12.8867 17.7099C13.2109 17.791 13.4541 18.0342 13.6567 18.3989C13.8593 18.7636 13.9809 19.2905 13.9809 19.9794C13.9404 20.9521 13.6972 21.641 13.2109 22.0463Z"/>
</svg>
