<svg width="14" height="14" viewBox="0 0 14 14" fill="none" xmlns="http://www.w3.org/2000/svg">
<path d="M13.0664 0.532958L0.529771 4.71162C0.464882 4.73313 0.408175 4.77407 0.367334 4.82889C0.326495 4.88371 0.303497 4.94976 0.301459 5.01809C0.299422 5.08643 0.318443 5.15373 0.355944 5.21089C0.393444 5.26804 0.447612 5.31229 0.511104 5.33762L6.3331 7.66629L9.2831 13.5663C9.31312 13.6264 9.36059 13.676 9.41929 13.7086C9.47798 13.7413 9.54517 13.7554 9.61204 13.7492C9.67892 13.743 9.74236 13.7168 9.79406 13.6739C9.84576 13.631 9.8833 13.5735 9.90177 13.509L13.4931 0.940292C13.5097 0.881901 13.5101 0.820077 13.4942 0.76149C13.4782 0.702904 13.4466 0.649782 13.4027 0.607857C13.3588 0.565932 13.3043 0.536798 13.245 0.523598C13.1857 0.510398 13.124 0.513635 13.0664 0.532958Z" fill="#555759"/>
</svg>
