<svg width="40" height="40" viewBox="0 0 40 40" xmlns="http://www.w3.org/2000/svg"><g clip-path="url(#clip0_1308_66032)"><path d="M27.4311 22.5531L22.0004 19.2162C21.9343 19.1755 21.8582 19.1479 21.7814 19.1359L20.0811 18.8359C19.7666 18.7802 19.4577 18.9967 19.4022 19.3112C19.3468 19.6257 19.5629 19.9346 19.8775 19.9901L21.4819 20.2732L26.8176 23.5517C27.0781 23.7118 27.4354 23.6341 27.6083 23.3825C27.7937 23.1125 27.71 22.7246 27.4311 22.5531Z"/><path d="M39.8054 22.7408C39.5843 22.5043 39.2135 22.4918 38.977 22.7128L36.6013 24.9331L25.7155 14.1923L39.7779 1.01353C40.014 0.792205 40.026 0.421346 39.8048 0.185252C39.5835 -0.0508422 39.2126 -0.0628734 38.9765 0.158377L24.4694 13.7539C24.2302 13.978 24.2252 14.3683 24.4586 14.5986L25.4215 15.5485L25.1141 15.82L18.6781 15.2657C18.5788 15.2573 18.4756 15.2744 18.385 15.3163L13.2855 17.6388C13.2707 17.635 13.2558 17.6312 13.2405 17.6285L10.3072 17.1108L10.5444 16.5045C10.6616 16.2046 10.5151 15.8664 10.2162 15.7469L0.839986 11.9964C0.539361 11.876 0.198424 12.0224 0.0782675 12.3229C-0.0419669 12.6234 0.104205 12.9645 0.404752 13.0846L9.24092 16.6192L4.03374 29.9261L0.817955 28.7871C0.512799 28.6792 0.177955 28.8388 0.0699081 29.1439C-0.0381388 29.449 0.121627 29.7839 0.426705 29.892L4.17717 31.2203C4.47155 31.3246 4.80483 31.172 4.9185 30.8814L5.78874 28.6575L8.06897 29.9353L7.81749 30.3429C7.10491 31.4979 7.46467 33.0172 8.61967 33.7299C9.23046 34.1068 9.98866 34.1961 10.6712 33.9752C10.7806 34.6864 11.1986 35.3211 11.8115 35.6993C12.4223 36.0761 13.1804 36.1655 13.863 35.9446C13.9725 36.6558 14.3903 37.2904 15.0032 37.6686C15.6158 38.0467 16.3701 38.1357 17.0548 37.9147C17.1645 38.6256 17.5823 39.26 18.195 39.638C19.0855 40.1875 20.2643 40.1054 21.067 39.4325C21.2694 39.2629 21.4435 39.0605 21.5821 38.8358L21.9819 38.188L22.311 38.3902C23.2027 38.9381 24.3812 38.8537 25.1826 38.1794C25.3847 38.0094 25.5584 37.8067 25.6966 37.5818C25.9713 37.1347 26.085 36.6336 26.055 36.1457C26.2411 36.1905 26.4315 36.2146 26.6237 36.2146C27.4748 36.2146 28.2799 35.7657 28.7253 35.0409C28.9936 34.6042 29.1162 34.1063 29.0851 33.6051C29.2707 33.6496 29.4608 33.6736 29.6523 33.6736C30.5034 33.6736 31.3086 33.2247 31.7539 32.4999C32.0224 32.0629 32.1449 31.5646 32.1136 31.0631C32.3012 31.1078 32.4918 31.1311 32.6815 31.1311C33.5091 31.1311 34.3184 30.7144 34.7826 29.959C35.493 28.8027 35.1304 27.284 33.974 26.5735L33.5725 26.3268L34.9193 24.9196L36.1791 26.1626C36.4 26.3805 36.7641 26.3853 36.9908 26.1736L39.7776 23.5692C40.0139 23.3482 40.0264 22.9773 39.8054 22.7408ZM11.0093 32.3122C10.6359 32.9171 9.84006 33.1056 9.23506 32.7325C8.63006 32.3592 8.44163 31.5633 8.81483 30.9583L12.0972 25.6387C12.4635 25.045 13.2496 24.8508 13.8498 25.2054C14.4709 25.5726 14.6423 26.4241 14.2694 27.0285L11.0093 32.3122ZM14.2009 34.2816C13.8277 34.8865 13.0318 35.075 12.4269 34.7018C11.8292 34.333 11.6373 33.5263 12.0066 32.9277L14.6324 28.672C14.9987 28.0783 15.7848 27.8841 16.3851 28.2387C17.0062 28.6059 17.1776 29.4574 16.8046 30.0618L14.2009 34.2816ZM17.393 36.251C17.212 36.544 16.9278 36.7492 16.5928 36.8286C16.2576 36.908 15.9117 36.852 15.6187 36.6712C15.0211 36.3024 14.8291 35.4956 15.1985 34.8971L17.1679 31.7053C17.5342 31.1115 18.3204 30.9174 18.9205 31.272C19.5416 31.6392 19.713 32.4907 19.3401 33.0951L17.393 36.251ZM21.8755 36.1286L20.5847 38.2204C20.2158 38.8181 19.4091 39.0099 18.8105 38.6406C18.2129 38.2718 18.021 37.465 18.3903 36.8664L19.7032 34.7386C20.0695 34.145 20.8557 33.9506 21.4558 34.3054C22.0769 34.6725 22.2483 35.5241 21.8755 36.1286ZM32.5508 25.699L29.6459 23.9141C29.3765 23.7485 29.0054 23.8372 28.8399 24.1066C28.6744 24.376 28.763 24.7471 29.0324 24.9126L33.3603 27.5719C33.9659 27.9441 34.1559 28.7396 33.7838 29.3453C33.4116 29.9509 32.6161 30.1409 32.0104 29.7688L27.3687 26.9166C27.093 26.7471 26.7321 26.8334 26.5627 27.1091C26.3933 27.3848 26.4795 27.7457 26.7552 27.9151L30.3318 30.1128C30.9301 30.4804 31.1235 31.2869 30.7553 31.8861C30.3876 32.4845 29.5812 32.6778 28.9819 32.3096L25.7407 30.318C25.4649 30.1486 25.104 30.2348 24.9347 30.5105C24.7653 30.7862 24.8515 31.1471 25.1272 31.3165L27.3033 32.6536C27.9015 33.0214 28.095 33.8277 27.7268 34.427C27.3591 35.0253 26.5526 35.2187 25.9534 34.8505C25.9534 34.8505 24.0397 33.6757 24.0218 33.6671C23.7542 33.5379 23.427 33.6299 23.2683 33.8883C23.0989 34.164 23.1851 34.525 23.4608 34.6943L24.2748 35.1945C24.8804 35.5667 25.0703 36.3621 24.6982 36.9679C24.3305 37.5662 23.524 37.7595 22.9248 37.3914L22.5976 37.1903L22.8732 36.7436C23.2255 36.1727 23.3348 35.4696 23.173 34.8146C23.0135 34.1682 22.6155 33.6289 22.0526 33.2962C21.6134 33.0367 21.1221 32.9315 20.6437 32.9638C20.7335 32.5779 20.734 32.1711 20.6377 31.7812C20.4782 31.1348 20.0802 30.5956 19.5173 30.2628C19.0781 30.0032 18.5868 29.8981 18.1083 29.9303C18.35 28.8922 17.9051 27.7753 16.982 27.2295C16.5428 26.97 16.0515 26.8648 15.573 26.897C15.8147 25.8589 15.3698 24.7419 14.4467 24.1961C13.3007 23.5187 11.7995 23.8897 11.1003 25.0228L8.68546 28.9366L6.21999 27.5555L9.87139 18.2241L11.8595 18.575C11.294 19.2773 11.1351 20.2661 11.5335 21.1412C11.9458 22.0465 12.8416 22.5822 13.7771 22.5821C14.1178 22.5821 14.4638 22.511 14.7936 22.3609L18.2255 20.7978C18.5161 20.6654 18.6483 20.3122 18.5158 20.0216C18.3835 19.731 18.0303 19.5987 17.7397 19.7312L14.3077 21.2942C13.6609 21.5889 12.8948 21.3023 12.6001 20.6553C12.3055 20.0084 12.592 19.2424 13.239 18.9477L18.7307 16.4465L25.2633 17.0091C25.2801 17.0106 25.2969 17.0113 25.3137 17.0113C25.4558 17.0113 25.5939 16.9595 25.7015 16.8646L26.2576 16.3736L34.0846 24.0962L32.5508 25.699Z"/></g><defs><clipPath id="clip0_1308_66032"><rect width="40" height="40" fill="white"/></clipPath></defs></svg>
