<svg width="86" height="86" viewBox="0 0 86 86" xmlns="http://www.w3.org/2000/svg">
<g clip-path="url(#clip0_1308_65960)">
<path d="M11.0576 29.2398H40.5435C41.9006 29.2398 43.0006 28.4696 43.0006 27.5198C43.0006 26.57 41.9006 25.7998 40.5435 25.7998H11.0576C9.70055 25.7998 8.60059 26.5698 8.60059 27.5198C8.60059 28.4698 9.70055 29.2398 11.0576 29.2398Z"/>
<path d="M10.0378 37.2669H47.3045C48.0961 37.2669 48.7378 36.6251 48.7378 35.8337C48.7378 35.042 48.0961 34.4004 47.3045 34.4004H10.0378C9.24613 34.4004 8.60449 35.0422 8.60449 35.8337C8.60449 36.6251 9.24613 37.2669 10.0378 37.2669Z"/>
<path d="M10.0378 45.8666H27.2378C28.0294 45.8666 28.671 45.2249 28.671 44.4333C28.671 43.6416 28.0294 43 27.2378 43H10.0378C9.24613 43 8.60449 43.6416 8.60449 44.4333C8.60449 45.2249 9.24613 45.8666 10.0378 45.8666Z"/>
<path d="M8.60059 53.0358C8.60059 53.8291 9.59081 54.472 10.8119 54.472H52.8292C54.0506 54.472 55.0406 53.8291 55.0406 53.0358C55.0406 52.2426 54.0506 51.5996 52.8292 51.5996H10.8122C9.59081 51.5994 8.60059 52.2426 8.60059 53.0358Z"/>
<path d="M10.7114 63.0726H52.9298C54.0956 63.0726 55.0406 62.4295 55.0406 61.6364C55.0406 60.8433 54.0954 60.2002 52.9298 60.2002H10.7114C9.54555 60.2002 8.60059 60.8431 8.60059 61.6364C8.60059 62.4296 9.54555 63.0726 10.7114 63.0726Z"/>
<path d="M53.0215 68.7998H10.6196C9.50447 68.7998 8.60059 69.4428 8.60059 70.236C8.60059 71.0293 9.50447 71.6722 10.6196 71.6722H53.0215C54.1367 71.6722 55.0406 71.0293 55.0406 70.236C55.0406 69.4428 54.1367 68.7998 53.0215 68.7998Z"/>
<path d="M65.9393 2.65106e-05C64.2766 0.00657729 62.6211 0.220905 61.0115 0.637804C60.3403 0.218386 59.5641 -0.00266099 58.7726 2.65106e-05H19.829C18.683 -0.00400474 17.5831 0.451862 16.776 1.26567L1.27153 16.77C0.458054 17.5773 0.00218635 18.677 0.00588167 19.823V81.7C0.00588167 84.0748 1.93114 86 4.30588 86H58.7726C61.1473 86 63.0726 84.0748 63.0726 81.7V39.904C70.5047 40.9787 77.9147 37.8111 82.2734 31.6961C86.6322 25.581 87.2097 17.5434 83.7697 10.8681C80.3297 4.19303 73.4489 -0.00114927 65.9393 2.65106e-05ZM17.206 4.89346V15.7667C17.206 16.5584 16.5642 17.2 15.7728 17.2H4.89931L17.206 4.89346ZM60.206 81.7C60.206 82.4917 59.5644 83.1333 58.7728 83.1333H4.30605C3.51441 83.1333 2.87277 82.4915 2.87277 81.7V20.0667H15.7728C18.1475 20.0667 20.0728 18.1415 20.0728 15.7667V2.86675H55.6566C48.8199 6.93781 45.0405 14.6687 46.0268 22.5643C47.0131 30.4598 52.5781 37.0235 60.206 39.2878V81.7ZM65.9393 37.2668C56.44 37.2668 48.7393 29.5661 48.7393 20.0667C48.7393 10.5674 56.44 2.86675 65.9393 2.86675C75.4386 2.86675 83.1393 10.5674 83.1393 20.0667C83.1291 29.5617 75.4343 37.2565 65.9393 37.2668Z"/>
<path d="M65.9372 11.4671C66.7288 11.4671 67.3705 10.8254 67.3705 10.0339C67.3705 9.24229 66.7288 8.60059 65.9372 8.60059C65.1456 8.60059 64.5039 9.24229 64.5039 10.0339C64.5039 10.8254 65.1456 11.4671 65.9372 11.4671Z"/>
<path d="M70.2375 28.6673H67.3708V15.7673C67.3708 14.9756 66.729 14.334 65.9375 14.334H63.0708C62.2792 14.334 61.6375 14.9758 61.6375 15.7673C61.6375 16.5589 62.2792 17.2005 63.0708 17.2005H64.5041V28.6673H61.6374C60.8457 28.6673 60.2041 29.3091 60.2041 30.1005C60.2041 30.8922 60.8459 31.5338 61.6374 31.5338H70.2374C71.029 31.5338 71.6707 30.892 71.6707 30.1005C71.6708 29.3089 71.0292 28.6673 70.2375 28.6673Z"/>
</g>
<defs>
<clipPath id="clip0_1308_65960">
<rect width="86" height="86" fill="white"/>
</clipPath>
</defs>
</svg>
