<svg width="40" height="40" viewBox="0 0 40 40" xmlns="http://www.w3.org/2000/svg"><path d="M20.0623 4.05273C24.4041 4.05273 24.9458 4.06871 26.6493 4.14862C28.3512 4.22852 29.5098 4.49539 30.5293 4.8917C31.584 5.29759 32.4725 5.84731 33.361 6.73422C34.1736 7.53306 34.8024 8.49938 35.2035 9.56591C35.5982 10.5839 35.8667 11.744 35.9466 13.4459C36.0217 15.1494 36.0425 15.6911 36.0425 20.033C36.0425 24.3748 36.0265 24.9165 35.9466 26.62C35.8667 28.3219 35.5982 29.4805 35.2035 30.5C34.8035 31.5671 34.1746 32.5337 33.361 33.3317C32.5619 34.144 31.5957 34.7727 30.5293 35.1742C29.5114 35.569 28.3512 35.8374 26.6493 35.9173C24.9458 35.9924 24.4041 36.0132 20.0623 36.0132C15.7204 36.0132 15.1787 35.9972 13.4752 35.9173C11.7733 35.8374 10.6148 35.569 9.59521 35.1742C8.52825 34.7739 7.56177 34.145 6.76351 33.3317C5.95077 32.533 5.32199 31.5667 4.92099 30.5C4.52468 29.4821 4.25781 28.3219 4.17791 26.62C4.10281 24.9165 4.08203 24.3748 4.08203 20.033C4.08203 15.6911 4.09801 15.1494 4.17791 13.4459C4.25781 11.7424 4.52468 10.5855 4.92099 9.56591C5.32088 8.49872 5.94981 7.53214 6.76351 6.73422C7.562 5.92119 8.52842 5.29237 9.59521 4.8917C10.6148 4.49539 11.7717 4.22852 13.4752 4.14862C15.1787 4.07351 15.7204 4.05273 20.0623 4.05273ZM20.0623 12.0429C17.9432 12.0429 15.9108 12.8847 14.4124 14.3831C12.914 15.8815 12.0721 17.9139 12.0721 20.033C12.0721 22.1521 12.914 24.1844 14.4124 25.6828C15.9108 27.1813 17.9432 28.0231 20.0623 28.0231C22.1814 28.0231 24.2137 27.1813 25.7121 25.6828C27.2106 24.1844 28.0524 22.1521 28.0524 20.033C28.0524 17.9139 27.2106 15.8815 25.7121 14.3831C24.2137 12.8847 22.1814 12.0429 20.0623 12.0429ZM30.4494 11.6433C30.4494 11.1136 30.239 10.6055 29.8644 10.2309C29.4897 9.85627 28.9817 9.64582 28.4519 9.64582C27.9221 9.64582 27.414 9.85627 27.0394 10.2309C26.6648 10.6055 26.4544 11.1136 26.4544 11.6433C26.4544 12.1731 26.6648 12.6812 27.0394 13.0558C27.414 13.4304 27.9221 13.6409 28.4519 13.6409C28.9817 13.6409 29.4897 13.4304 29.8644 13.0558C30.239 12.6812 30.4494 12.1731 30.4494 11.6433ZM20.0623 15.2389C21.3337 15.2389 22.5531 15.744 23.4522 16.643C24.3512 17.5421 24.8563 18.7615 24.8563 20.033C24.8563 21.3044 24.3512 22.5238 23.4522 23.4229C22.5531 24.322 21.3337 24.827 20.0623 24.827C18.7908 24.827 17.5714 24.322 16.6723 23.4229C15.7733 22.5238 15.2682 21.3044 15.2682 20.033C15.2682 18.7615 15.7733 17.5421 16.6723 16.643C17.5714 15.744 18.7908 15.2389 20.0623 15.2389Z"/></svg>
