<svg width="80" height="80" viewBox="0 0 80 80" xmlns="http://www.w3.org/2000/svg">
<path d="M10.8108 67.0267H7.56751C6.13391 67.0267 4.75903 66.4572 3.74532 65.4435C2.73161 64.4298 2.16211 63.0549 2.16211 61.6213V18.3781C2.16211 16.9445 2.73161 15.5696 3.74532 14.5559C4.75903 13.5422 6.13391 12.9727 7.56751 12.9727H10.8108C11.0975 12.9727 11.3725 13.0866 11.5752 13.2893C11.7779 13.492 11.8918 13.767 11.8918 14.0537C11.8918 14.3405 11.7779 14.6154 11.5752 14.8182C11.3725 15.0209 11.0975 15.1348 10.8108 15.1348H7.56751C6.70735 15.1348 5.88242 15.4765 5.2742 16.0847C4.66597 16.693 4.32427 17.5179 4.32427 18.3781V61.6213C4.32427 62.4815 4.66597 63.3064 5.2742 63.9146C5.88242 64.5228 6.70735 64.8645 7.56751 64.8645H10.8108C11.0975 64.8645 11.3725 64.9784 11.5752 65.1812C11.7779 65.3839 11.8918 65.6589 11.8918 65.9456C11.8918 66.2323 11.7779 66.5073 11.5752 66.7101C11.3725 66.9128 11.0975 67.0267 10.8108 67.0267Z"/>
<path d="M72.4327 67.0267H29.1895C28.9028 67.0267 28.6278 66.9128 28.425 66.7101C28.2223 66.5073 28.1084 66.2323 28.1084 65.9456V14.0537C28.1084 13.767 28.2223 13.492 28.425 13.2893C28.6278 13.0866 28.9028 12.9727 29.1895 12.9727H72.4327C73.8663 12.9727 75.2412 13.5422 76.2549 14.5559C77.2686 15.5696 77.8381 16.9445 77.8381 18.3781V61.6213C77.8381 63.0549 77.2686 64.4298 76.2549 65.4435C75.2412 66.4572 73.8663 67.0267 72.4327 67.0267ZM30.2706 64.8645H72.4327C73.2929 64.8645 74.1178 64.5228 74.726 63.9146C75.3343 63.3064 75.676 62.4815 75.676 61.6213V18.3781C75.676 17.5179 75.3343 16.693 74.726 16.0847C74.1178 15.4765 73.2929 15.1348 72.4327 15.1348H30.2706V64.8645Z"/>
<path d="M27.0268 71.3511H12.9727C12.1126 71.3511 11.2876 71.0094 10.6794 70.4012C10.0712 69.793 9.72949 68.9681 9.72949 68.1079V11.8917C9.72949 11.0315 10.0712 10.2066 10.6794 9.59836C11.2876 8.99013 12.1126 8.64844 12.9727 8.64844H27.0268C27.8869 8.64844 28.7119 8.99013 29.3201 9.59836C29.9283 10.2066 30.27 11.0315 30.27 11.8917V68.1079C30.27 68.9681 29.9283 69.793 29.3201 70.4012C28.7119 71.0094 27.8869 71.3511 27.0268 71.3511ZM12.9727 10.8106C12.686 10.8106 12.411 10.9245 12.2083 11.1272C12.0056 11.33 11.8917 11.605 11.8917 11.8917V68.1079C11.8917 68.3946 12.0056 68.6696 12.2083 68.8723C12.411 69.0751 12.686 69.189 12.9727 69.189H27.0268C27.3135 69.189 27.5885 69.0751 27.7912 68.8723C27.994 68.6696 28.1079 68.3946 28.1079 68.1079V11.8917C28.1079 11.605 27.994 11.33 27.7912 11.1272C27.5885 10.9245 27.3135 10.8106 27.0268 10.8106H12.9727Z"/>
<path d="M67.0271 30.2708H38.919C38.6323 30.2708 38.3573 30.1569 38.1545 29.9542C37.9518 29.7514 37.8379 29.4765 37.8379 29.1897V20.2276C37.8379 19.9408 37.9518 19.6659 38.1545 19.4631C38.3573 19.2604 38.6323 19.1465 38.919 19.1465H67.0271C67.3138 19.1465 67.5888 19.2604 67.7915 19.4631C67.9943 19.6659 68.1082 19.9408 68.1082 20.2276V29.1897C68.1082 29.4765 67.9943 29.7514 67.7915 29.9542C67.5888 30.1569 67.3138 30.2708 67.0271 30.2708ZM40.0001 28.1087H65.946V21.3086H40.0001V28.1087Z"/>
<path d="M68.9837 41.3294H63.0918C62.8051 41.3294 62.5301 41.2155 62.3274 41.0128C62.1246 40.81 62.0107 40.5351 62.0107 40.2483V34.9727C62.0107 34.686 62.1246 34.411 62.3274 34.2082C62.5301 34.0055 62.8051 33.8916 63.0918 33.8916H68.9837C69.2704 33.8916 69.5454 34.0055 69.7481 34.2082C69.9509 34.411 70.0648 34.686 70.0648 34.9727V40.2483C70.0648 40.5351 69.9509 40.81 69.7481 41.0128C69.5454 41.2155 69.2704 41.3294 68.9837 41.3294ZM64.1729 39.1673H67.9026V36.0538H64.1729V39.1673Z"/>
<path d="M55.9133 41.3294H50.0323C49.7455 41.3294 49.4706 41.2155 49.2678 41.0128C49.0651 40.81 48.9512 40.5351 48.9512 40.2483V34.9727C48.9512 34.686 49.0651 34.411 49.2678 34.2082C49.4706 34.0055 49.7455 33.8916 50.0323 33.8916H55.9133C56.2001 33.8916 56.475 34.0055 56.6778 34.2082C56.8805 34.411 56.9944 34.686 56.9944 34.9727V40.2483C56.9944 40.5351 56.8805 40.81 56.6778 41.0128C56.475 41.2155 56.2001 41.3294 55.9133 41.3294ZM51.1133 39.1673H54.8323V36.0538H51.1133V39.1673Z"/>
<path d="M42.8538 41.3294H36.9619C36.6752 41.3294 36.4002 41.2155 36.1975 41.0128C35.9948 40.81 35.8809 40.5351 35.8809 40.2483V34.9727C35.8809 34.686 35.9948 34.411 36.1975 34.2082C36.4002 34.0055 36.6752 33.8916 36.9619 33.8916H42.8538C43.1405 33.8916 43.4155 34.0055 43.6183 34.2082C43.821 34.411 43.9349 34.686 43.9349 34.9727V40.2483C43.9349 40.5351 43.821 40.81 43.6183 41.0128C43.4155 41.2155 43.1405 41.3294 42.8538 41.3294ZM38.043 39.1673H41.7727V36.0538H38.043V39.1673Z"/>
<path d="M68.9837 51.0921H63.0918C62.8051 51.0921 62.5301 50.9782 62.3274 50.7754C62.1246 50.5727 62.0107 50.2977 62.0107 50.011V44.7461C62.0107 44.4594 62.1246 44.1844 62.3274 43.9817C62.5301 43.7789 62.8051 43.665 63.0918 43.665H68.9837C69.2704 43.665 69.5454 43.7789 69.7481 43.9817C69.9509 44.1844 70.0648 44.4594 70.0648 44.7461V50.011C70.0648 50.2977 69.9509 50.5727 69.7481 50.7754C69.5454 50.9782 69.2704 51.0921 68.9837 51.0921ZM64.1729 48.9299H67.9026V45.8272H64.1729V48.9299Z"/>
<path d="M55.9133 51.0921H50.0323C49.7455 51.0921 49.4706 50.9782 49.2678 50.7754C49.0651 50.5727 48.9512 50.2977 48.9512 50.011V44.7461C48.9512 44.4594 49.0651 44.1844 49.2678 43.9817C49.4706 43.7789 49.7455 43.665 50.0323 43.665H55.9133C56.2001 43.665 56.475 43.7789 56.6778 43.9817C56.8805 44.1844 56.9944 44.4594 56.9944 44.7461V50.011C56.9944 50.2977 56.8805 50.5727 56.6778 50.7754C56.475 50.9782 56.2001 51.0921 55.9133 51.0921ZM51.1133 48.9299H54.8323V45.8272H51.1133V48.9299Z"/>
<path d="M42.8538 51.0921H36.9619C36.6752 51.0921 36.4002 50.9782 36.1975 50.7754C35.9948 50.5727 35.8809 50.2977 35.8809 50.011V44.7461C35.8809 44.4594 35.9948 44.1844 36.1975 43.9817C36.4002 43.7789 36.6752 43.665 36.9619 43.665H42.8538C43.1405 43.665 43.4155 43.7789 43.6183 43.9817C43.821 44.1844 43.9349 44.4594 43.9349 44.7461V50.011C43.9349 50.2977 43.821 50.5727 43.6183 50.7754C43.4155 50.9782 43.1405 51.0921 42.8538 51.0921ZM38.043 48.9299H41.7727V45.8272H38.043V48.9299Z"/>
<path d="M68.9837 60.8538H63.0918C62.8051 60.8538 62.5301 60.7399 62.3274 60.5371C62.1246 60.3344 62.0107 60.0594 62.0107 59.7727V54.5078C62.0107 54.2211 62.1246 53.9461 62.3274 53.7434C62.5301 53.5407 62.8051 53.4268 63.0918 53.4268H68.9837C69.2704 53.4268 69.5454 53.5407 69.7481 53.7434C69.9509 53.9461 70.0648 54.2211 70.0648 54.5078V59.7727C70.0648 60.0594 69.9509 60.3344 69.7481 60.5371C69.5454 60.7399 69.2704 60.8538 68.9837 60.8538ZM64.1729 58.6916H67.9026V55.5889H64.1729V58.6916Z"/>
<path d="M55.9133 60.8538H50.0323C49.7455 60.8538 49.4706 60.7399 49.2678 60.5371C49.0651 60.3344 48.9512 60.0594 48.9512 59.7727V54.5078C48.9512 54.2211 49.0651 53.9461 49.2678 53.7434C49.4706 53.5407 49.7455 53.4268 50.0323 53.4268H55.9133C56.2001 53.4268 56.475 53.5407 56.6778 53.7434C56.8805 53.9461 56.9944 54.2211 56.9944 54.5078V59.7727C56.9944 60.0594 56.8805 60.3344 56.6778 60.5371C56.475 60.7399 56.2001 60.8538 55.9133 60.8538ZM51.1133 58.6916H54.8323V55.5889H51.1133V58.6916Z"/>
<path d="M42.8538 60.8538H36.9619C36.6752 60.8538 36.4002 60.7399 36.1975 60.5371C35.9948 60.3344 35.8809 60.0594 35.8809 59.7727V54.5078C35.8809 54.2211 35.9948 53.9461 36.1975 53.7434C36.4002 53.5407 36.6752 53.4268 36.9619 53.4268H42.8538C43.1405 53.4268 43.4155 53.5407 43.6183 53.7434C43.821 53.9461 43.9349 54.2211 43.9349 54.5078V59.7727C43.9349 60.0594 43.821 60.3344 43.6183 60.5371C43.4155 60.7399 43.1405 60.8538 42.8538 60.8538ZM38.043 58.6916H41.7727V55.5889H38.043V58.6916Z"/>
</svg>
