<svg width="80" height="81" viewBox="0 0 80 81" xmlns="http://www.w3.org/2000/svg">
<path d="M71.8021 65.325H8.19779C6.59745 65.323 5.06325 64.6863 3.93175 63.5546C2.80024 62.4229 2.16383 60.8886 2.16211 59.2882V54.9639C2.16211 54.6772 2.27601 54.4022 2.47875 54.1995C2.68149 53.9967 2.95647 53.8828 3.24319 53.8828H76.7567C77.0434 53.8828 77.3184 53.9967 77.5211 54.1995C77.7239 54.4022 77.8378 54.6772 77.8378 54.9639V59.2882C77.8361 60.8886 77.1997 62.4229 76.0682 63.5546C74.9366 64.6863 73.4025 65.323 71.8021 65.325ZM4.32427 56.045V59.2882C4.32513 60.3154 4.73347 61.3002 5.45968 62.0266C6.18589 62.7531 7.17063 63.1617 8.19779 63.1628H71.8021C72.8293 63.1617 73.814 62.7531 74.5402 62.0266C75.2664 61.3002 75.6748 60.3154 75.6756 59.2882V56.045H4.32427Z"/>
<path d="M45.7546 60.3693H34.2454C33.5378 60.3687 32.8594 60.0875 32.359 59.5873C31.8586 59.087 31.577 58.4087 31.5762 57.7012V54.9639C31.5762 54.6772 31.6901 54.4022 31.8928 54.1995C32.0956 53.9967 32.3705 53.8828 32.6573 53.8828H47.3427C47.6294 53.8828 47.9044 53.9967 48.1071 54.1995C48.3098 54.4022 48.4237 54.6772 48.4237 54.9639V57.7012C48.4229 58.4087 48.1414 59.087 47.6409 59.5873C47.1405 60.0875 46.4621 60.3687 45.7546 60.3693ZM33.7383 56.045V57.7012C33.7386 57.8355 33.7922 57.9642 33.8872 58.059C33.9823 58.1539 34.1111 58.2071 34.2454 58.2071H45.7546C45.8888 58.2071 46.0176 58.1539 46.1127 58.059C46.2077 57.9642 46.2613 57.8355 46.2616 57.7012V56.045H33.7383Z"/>
<path d="M70.7723 56.0449H9.22854C8.94182 56.0449 8.66684 55.931 8.4641 55.7283C8.26136 55.5256 8.14746 55.2506 8.14746 54.9639V19.4039C8.14889 18.2267 8.61714 17.0982 9.44949 16.2659C10.2818 15.4335 11.4103 14.9653 12.5875 14.9639H67.4134C68.5905 14.9653 69.719 15.4335 70.5514 16.2659C71.3837 17.0982 71.852 18.2267 71.8534 19.4039V54.9639C71.8534 55.2506 71.7395 55.5256 71.5368 55.7283C71.334 55.931 71.059 56.0449 70.7723 56.0449ZM10.3096 53.8828H69.6912V19.4039C69.6904 18.8 69.4501 18.2211 69.0231 17.7941C68.5961 17.3671 68.0173 17.1269 67.4134 17.126H12.5875C11.9836 17.1269 11.4047 17.3671 10.9777 17.7941C10.5507 18.2211 10.3105 18.8 10.3096 19.4039V53.8828Z"/>
</svg>
