<svg width="58" height="58" viewBox="0 0 58 58" fill="none" xmlns="http://www.w3.org/2000/svg">
<path d="M21.2405 56.4324H21.2295C21.0757 56.4303 20.9258 56.3829 20.7987 56.2962C20.6716 56.2095 20.5728 56.0873 20.5147 55.9449L17.9901 49.7608L11.9221 52.53C11.7775 52.596 11.6162 52.6165 11.4597 52.5887C11.3031 52.561 11.1587 52.4863 11.0456 52.3746C10.9325 52.2628 10.8561 52.1193 10.8265 51.9632C10.7968 51.807 10.8154 51.6455 10.8796 51.5001L17.4862 36.5525C17.5702 36.3623 17.7264 36.2133 17.9204 36.1383C18.1143 36.0632 18.3302 36.0683 18.5204 36.1524C18.7106 36.2365 18.8596 36.3927 18.9346 36.5866C19.0096 36.7806 19.0046 36.9964 18.9205 37.1866L13.1487 50.2476L18.0865 47.9958C18.1826 47.9519 18.2866 47.928 18.3921 47.9253C18.4977 47.9226 18.6027 47.9413 18.7009 47.9803C18.7991 48.0192 18.8884 48.0776 18.9634 48.1519C19.0384 48.2262 19.0977 48.315 19.1376 48.4127L21.2734 53.6429L27.4653 39.6014C27.5492 39.4112 27.7052 39.2621 27.899 39.187C28.0928 39.1118 28.3085 39.1167 28.4987 39.2005C28.6889 39.2844 28.838 39.4404 28.9132 39.6342C28.9884 39.828 28.9835 40.0438 28.8996 40.234L21.96 55.9621C21.8989 56.1021 21.7983 56.2212 21.6705 56.3047C21.5426 56.3883 21.3932 56.4326 21.2405 56.4324Z" fill="#007BC3"/>
<path d="M24.3756 41.8821C24.1225 41.8833 23.8702 41.8509 23.6256 41.7857C22.4554 41.4722 21.6732 40.4533 20.9826 39.552C20.6048 38.9755 20.1271 38.4712 19.5718 38.0628C18.9278 37.7765 18.2375 37.6082 17.534 37.5658C16.3662 37.4091 15.1583 37.2476 14.3205 36.4082C13.4826 35.5688 13.318 34.3594 13.1621 33.1908C13.1185 32.4887 12.9503 31.7999 12.6651 31.1568C12.2561 30.6022 11.7519 30.1245 11.1759 29.746C10.2746 29.0555 9.25411 28.2733 8.94138 27.1039C8.64119 25.9807 9.09813 24.8662 9.54332 23.7893C9.8651 23.144 10.0679 22.446 10.1421 21.7287C10.0678 21.0117 9.86499 20.314 9.54332 19.6689C9.0997 18.592 8.64119 17.4743 8.94138 16.3543C9.25489 15.1849 10.2738 14.4027 11.1759 13.7122C11.7525 13.3325 12.2567 12.8532 12.6651 12.2967C12.9504 11.654 13.1185 10.9654 13.1613 10.2635C13.318 9.0949 13.4748 7.88709 14.3197 7.05001C15.1646 6.21293 16.3677 6.04833 17.5332 5.89158C18.2368 5.84926 18.927 5.68095 19.5711 5.39466C20.126 4.98593 20.6037 4.48166 20.9819 3.90547C21.6716 3.00412 22.4546 1.98363 23.624 1.6709C24.7472 1.36758 25.8617 1.82766 26.9386 2.27285C27.5847 2.59169 28.283 2.79161 29 2.86304C29.7172 2.78906 30.4152 2.58648 31.0605 2.26501C32.1375 1.82139 33.2551 1.36209 34.3744 1.66228C35.5446 1.97579 36.3268 2.99471 37.0173 3.89685C37.3953 4.47312 37.8731 4.97741 38.4281 5.38604C39.0709 5.67196 39.7598 5.84001 40.462 5.88217C41.6299 6.03893 42.8377 6.20039 43.6755 7.0406C44.5134 7.88082 44.678 9.08942 44.834 10.2541C44.8769 10.9576 45.0452 11.6477 45.3309 12.292C45.7395 12.847 46.2438 13.3247 46.8201 13.7028C47.7214 14.3933 48.7419 15.1763 49.0546 16.3449C49.3548 17.4688 48.8979 18.5826 48.4527 19.6603C48.131 20.3054 47.9282 21.0031 47.8539 21.7201C47.928 22.4371 48.1308 23.1349 48.4527 23.7799C48.8963 24.8576 49.3548 25.9745 49.0546 27.0953C48.7411 28.2639 47.7222 29.0469 46.8201 29.7374C46.2438 30.1155 45.7395 30.5932 45.3309 31.1482C45.0458 31.791 44.8778 32.4795 44.8348 33.1814C44.678 34.35 44.5173 35.5586 43.6763 36.3988C42.8353 37.239 41.6283 37.4005 40.4628 37.5564C39.7605 37.5994 39.0717 37.768 38.4289 38.0541C37.874 38.4629 37.3962 38.9671 37.0181 39.5433C36.3283 40.4439 35.5453 41.4652 34.3759 41.7779C33.2512 42.0797 32.1382 41.6211 31.0613 41.176C30.4153 40.8568 29.717 40.6568 29 40.5858C28.2827 40.6594 27.5846 40.862 26.9394 41.1838C26.1376 41.5791 25.2672 41.8162 24.3756 41.8821ZM24.3756 3.13501C24.2591 3.13401 24.1429 3.14824 24.03 3.17733C23.3755 3.35212 22.8175 4.08025 22.2273 4.85071C21.7304 5.59567 21.0941 6.23738 20.3533 6.74042C19.5358 7.13834 18.6489 7.3739 17.7417 7.43406C16.9167 7.44157 16.1119 7.68943 15.4256 8.14731C14.9672 8.83331 14.7193 9.63834 14.7124 10.4634C14.6522 11.3702 14.4169 12.2568 14.0195 13.0742C13.5152 13.8152 12.8722 14.4516 12.1259 14.9482C11.3554 15.5392 10.6281 16.0972 10.4525 16.7509C10.4056 17.5574 10.592 18.3604 10.9894 19.0638C11.3985 19.8946 11.6421 20.7971 11.7066 21.7209C11.6423 22.6447 11.3987 23.5472 10.9894 24.3779C10.5917 25.0815 10.4053 25.8848 10.4525 26.6916C10.6281 27.3461 11.3554 27.9034 12.1259 28.4943C12.8722 28.9909 13.5152 29.6273 14.0195 30.3684C14.4173 31.1856 14.6526 32.0722 14.7124 32.9791C14.7202 33.8044 14.9684 34.6095 15.4264 35.296C16.1127 35.7537 16.9176 36.0013 17.7425 36.0085C18.6494 36.0686 19.5361 36.3042 20.3533 36.7021C21.0946 37.2058 21.7309 37.849 22.2265 38.5957C22.8175 39.3654 23.3755 40.0936 24.0292 40.2683C24.8354 40.3142 25.6379 40.1279 26.3414 39.7314C27.173 39.3236 28.0759 39.0814 29 39.0182C29.924 39.0824 30.8267 39.3258 31.6578 39.7346C32.3608 40.1329 33.1641 40.3193 33.9707 40.2715C34.6252 40.0967 35.1832 39.3686 35.7734 38.5981C36.2695 37.8519 36.9057 37.2091 37.6467 36.7053C38.4641 36.3071 39.351 36.0712 40.2582 36.0108C41.0832 36.0041 41.8882 35.7565 42.5743 35.2984C43.0324 34.6122 43.2803 33.8073 43.2876 32.9823C43.3476 32.0754 43.5829 31.1888 43.9804 30.3715C44.4845 29.63 45.1276 28.9933 45.8741 28.4967C46.6445 27.9057 47.3719 27.3484 47.5474 26.694C47.5943 25.8874 47.4079 25.0845 47.0105 24.381C46.6013 23.5503 46.3577 22.6478 46.2934 21.724C46.3579 20.8002 46.6015 19.8978 47.0105 19.067C47.4083 18.3637 47.5947 17.5606 47.5474 16.754C47.3719 16.0996 46.6445 15.5423 45.8741 14.9513C45.1278 14.4548 44.4847 13.8184 43.9804 13.0773C43.5828 12.2601 43.3475 11.3734 43.2876 10.4665C43.2798 9.64124 43.0317 8.83611 42.5735 8.14966C41.8874 7.69152 41.0824 7.44388 40.2575 7.4372C39.3504 7.37568 38.4638 7.13906 37.6467 6.74042C36.9057 6.2363 36.2695 5.59321 35.7734 4.84679C35.1825 4.07633 34.6244 3.34898 33.9707 3.17341C33.1644 3.12704 32.3617 3.31369 31.6586 3.71109C30.8273 4.12074 29.9244 4.3651 29 4.4306C28.076 4.36598 27.1734 4.12269 26.3422 3.71423C25.7258 3.40702 25.0601 3.21094 24.3756 3.13501Z" fill="#007BC3"/>
<path d="M29 35.1009C26.3543 35.101 23.7679 34.3166 21.568 32.8468C19.3681 31.3771 17.6534 29.2879 16.6408 26.8437C15.6283 24.3994 15.3632 21.7097 15.8793 19.1148C16.3954 16.5199 17.6693 14.1363 19.5401 12.2654C21.4108 10.3946 23.7944 9.12048 26.3892 8.60426C28.9841 8.08805 31.6738 8.35291 34.1181 9.36535C36.5625 10.3778 38.6517 12.0923 40.1216 14.2922C41.5915 16.492 42.376 19.0783 42.376 21.724C42.3721 25.2704 40.9616 28.6705 38.454 31.1782C35.9464 33.686 32.5464 35.0967 29 35.1009ZM29 9.91553C26.6643 9.91537 24.381 10.6079 22.4388 11.9054C20.4967 13.203 18.9829 15.0473 18.089 17.2052C17.1951 19.3631 16.9612 21.7376 17.4168 24.0285C17.8725 26.3193 18.9972 28.4236 20.6488 30.0752C22.3004 31.7268 24.4047 32.8516 26.6955 33.3072C28.9864 33.7628 31.3609 33.5289 33.5188 32.635C35.6767 31.7411 37.521 30.2273 38.8186 28.2852C40.1161 26.3431 40.8086 24.0597 40.8085 21.724C40.8049 18.5933 39.5597 15.5918 37.3459 13.378C35.1322 11.1643 32.1307 9.91905 29 9.91553Z" fill="#007BC3"/>
<path d="M36.7595 56.4324C36.6071 56.4322 36.4582 56.3876 36.3308 56.3041C36.2035 56.2205 36.1032 56.1017 36.0423 55.9621L29.1011 40.234C29.0172 40.0438 29.0123 39.828 29.0875 39.6342C29.1627 39.4404 29.3118 39.2844 29.502 39.2005C29.6922 39.1167 29.9079 39.1118 30.1017 39.187C30.2955 39.2621 30.4515 39.4112 30.5354 39.6014L36.7273 53.6429L38.8631 48.4127C38.903 48.315 38.9623 48.2262 39.0373 48.1519C39.1124 48.0776 39.2016 48.0192 39.2998 47.9803C39.398 47.9413 39.503 47.9226 39.6086 47.9253C39.7141 47.928 39.8181 47.9519 39.9142 47.9958L44.852 50.2476L39.0795 37.1866C39.0378 37.0924 39.0151 36.991 39.0127 36.888C39.0103 36.7851 39.0282 36.6827 39.0653 36.5866C39.1025 36.4906 39.1582 36.4028 39.2293 36.3283C39.3003 36.2538 39.3854 36.194 39.4796 36.1524C39.5738 36.1108 39.6752 36.0881 39.7782 36.0857C39.8811 36.0832 39.9835 36.1011 40.0795 36.1383C40.1756 36.1754 40.2634 36.2311 40.3379 36.3022C40.4124 36.3733 40.4721 36.4583 40.5138 36.5525L47.1179 51.5001C47.1822 51.6455 47.2008 51.807 47.1711 51.9632C47.1415 52.1193 47.065 52.2628 46.9519 52.3746C46.8389 52.4863 46.6945 52.561 46.5379 52.5887C46.3814 52.6165 46.2201 52.596 46.0755 52.53L40.0075 49.7608L37.4829 55.9449C37.4247 56.0873 37.326 56.2095 37.1988 56.2962C37.0717 56.3829 36.9219 56.4303 36.7681 56.4324H36.7595Z" fill="#007BC3"/>
<path d="M33.2873 28.7062C33.1603 28.7063 33.0352 28.6753 32.9229 28.616L29 26.5539L25.0811 28.616C24.9517 28.6839 24.8059 28.7142 24.6602 28.7035C24.5144 28.6929 24.3746 28.6417 24.2564 28.5558C24.1382 28.4699 24.0464 28.3527 23.9913 28.2173C23.9362 28.082 23.92 27.934 23.9446 27.7899L24.6939 23.4227L21.5204 20.3291C21.4156 20.227 21.3415 20.0976 21.3064 19.9555C21.2713 19.8134 21.2768 19.6644 21.322 19.5252C21.3673 19.3861 21.4506 19.2624 21.5625 19.1681C21.6745 19.0739 21.8106 19.0129 21.9554 18.992L26.3407 18.3555L28.3001 14.3817C28.3723 14.2597 28.475 14.1586 28.5982 14.0884C28.7213 14.0181 28.8606 13.9812 29.0024 13.9812C29.1442 13.9812 29.2835 14.0181 29.4066 14.0884C29.5298 14.1586 29.6325 14.2597 29.7047 14.3817L31.6641 18.3555L36.0494 18.992C36.1942 19.0129 36.3303 19.0739 36.4423 19.1681C36.5542 19.2624 36.6375 19.3861 36.6828 19.5252C36.728 19.6644 36.7335 19.8134 36.6984 19.9555C36.6633 20.0976 36.5892 20.227 36.4844 20.3291L33.3109 23.4227L34.0602 27.7899C34.0794 27.9024 34.0739 28.0177 34.044 28.1278C34.0141 28.2379 33.9605 28.3402 33.887 28.4274C33.8135 28.5147 33.7218 28.5848 33.6184 28.633C33.5149 28.6811 33.4022 28.7061 33.2881 28.7062H33.2873ZM29 24.8852C29.127 24.8851 29.252 24.9157 29.3645 24.9746L32.2465 26.492L31.6978 23.284C31.6764 23.1587 31.6858 23.0301 31.7251 22.9093C31.7644 22.7884 31.8325 22.679 31.9236 22.5903L34.2537 20.3173L31.0332 19.8471C30.9073 19.8287 30.7879 19.78 30.685 19.7052C30.5822 19.6304 30.4991 19.5317 30.443 19.4176L29 16.4995L27.5595 19.4183C27.5033 19.5324 27.4202 19.6312 27.3174 19.706C27.2146 19.7808 27.0951 19.8295 26.9693 19.8478L23.7487 20.3181L26.0789 22.5911C26.1699 22.6798 26.238 22.7892 26.2774 22.9101C26.3167 23.0309 26.326 23.1595 26.3046 23.2847L25.756 26.4928L28.6379 24.9777C28.7494 24.9181 28.8737 24.8864 29 24.8852Z" fill="#007BC3"/>
</svg>
