<svg width="40" height="40" viewBox="0 0 40 40" xmlns="http://www.w3.org/2000/svg">
<path d="M38 33.2C34.0211 31.09 30.9691 29.9069 28.2522 29.4533L28.5334 29.0667C28.6667 28.9334 28.7334 28.7334 28.6667 28.5334L28.042 26.0344C28.2684 25.7143 28.482 25.3834 28.682 25.0431C31.1664 24.1976 32.4227 22.7683 32.6338 20.6639C33.7251 20.607 34.6666 19.633 34.6666 18.5334V13.5334C34.6666 12.4387 33.7958 11.4686 32.6549 11.4037C32.5081 7.55242 30.81 0 20 0C9.18977 0 7.4918 7.55273 7.345 11.4039C6.26273 11.4678 5.33336 12.3765 5.33336 13.5333V18.5333C5.33336 19.6666 6.33336 20.6666 7.53336 20.6666H8.53336C8.90086 20.6666 9.25406 20.561 9.56172 20.3802C9.93977 22.3869 10.7741 24.3605 11.9581 26.0343L11.3334 28.5333C11.3334 28.6666 11.3334 28.8666 11.4667 29.0666L11.7479 29.4532C9.03102 29.9069 5.97898 31.0899 2.00008 33.1999C0.733359 33.8 0 35.0666 0 36.4666V39.3333C0 39.7334 0.266641 40 0.666641 40H16.6666H16.9333H23.0666H23.3333H39.3333C39.7333 40 39.9999 39.7334 39.9999 39.3334V36.4667C40 35.1334 39.2 33.8666 38 33.2ZM20.0037 31.6751L21.6 35.3334H18.3777L20.0037 31.6751ZM17.8934 36.6666H22.1041L22.4943 38.6666H17.4933L17.8934 36.6666ZM27 27.3334L27.2666 28.5334L26.5856 29.4684C26.5422 29.504 26.502 29.547 26.4666 29.6L23.6936 33.4396L22.8137 34.6477L21.0165 30.6039C23.2085 30.3366 25.1605 29.2194 26.7256 27.6186C26.8181 27.5253 26.9097 27.4305 27 27.3334ZM29.6032 23.1862C29.9792 22.2713 30.2627 21.3203 30.4419 20.3617C30.6957 20.5155 30.9847 20.6182 31.2963 20.653C31.1807 21.5954 30.762 22.4851 29.6032 23.1862ZM33.2666 13.4666V18.4666C33.2666 18.8666 32.9333 19.2666 32.4666 19.2666H31.4666C31.0666 19.2666 30.6666 18.9333 30.6666 18.4666V18V13.4666C30.6666 13.0666 31 12.6666 31.4666 12.6666H32.4666C32.8666 12.6666 33.2666 13 33.2666 13.4666ZM20 1.33336C24.1091 1.33336 31.0248 2.67477 31.3222 11.4109C31.0428 11.4395 30.7752 11.5245 30.5332 11.6549C29.722 6.57828 25.2959 2.66664 20 2.66664C14.7048 2.66664 10.2792 6.57719 9.46711 11.6527C9.22867 11.524 8.96242 11.4389 8.67773 11.4106C8.97523 2.67477 15.8909 1.33336 20 1.33336ZM9.26664 18.4666C9.26664 18.8666 8.93328 19.2666 8.46664 19.2666H7.46664C7.06664 19.2666 6.66664 18.9333 6.66664 18.4666V13.4666C6.66664 13.0666 7 12.6666 7.46664 12.6666H8.46664C8.86664 12.6666 9.26664 13 9.26664 13.4666V18.4666ZM10.6666 13.3334C10.6666 8.2 14.8666 4 20 4C25.1334 4 29.3334 8.2 29.3334 13.3334V18C29.3334 20.2056 28.7591 22.2249 27.8282 23.9287C26.237 24.3902 23.9478 24.6666 20.6667 24.6666C20.2667 24.6666 20.0001 24.9333 20.0001 25.3333C20.0001 25.7333 20.2667 25.9999 20.6667 25.9999C23.0687 25.9999 25.0775 25.8524 26.7226 25.5441C26.6817 25.5849 26.6409 25.6258 26.6 25.6666C26.2646 26.1138 25.9106 26.5216 25.5408 26.8892C23.971 28.3516 22.0987 29.2375 20.2945 29.3252C20.2037 29.2863 20.102 29.2666 20 29.2666C19.8975 29.2666 19.8052 29.2867 19.7223 29.3261C18.618 29.2755 17.4877 28.9254 16.4164 28.3266C15.331 27.703 14.31 26.8041 13.4 25.6666C13.3334 25.6 13.2666 25.5333 13.2 25.4666L13.1611 25.4537C11.6639 23.4901 10.6666 20.9069 10.6666 18V13.3334ZM18.9834 30.6039L17.1862 34.6477L16.3063 33.4396L13.5333 29.6C13.512 29.5788 13.4886 29.5577 13.4642 29.537L12.7333 28.5334L12.9999 27.3334C13.0902 27.4305 13.1817 27.5252 13.2741 27.6184C14.8392 29.2192 16.7914 30.3365 18.9834 30.6039ZM1.33336 36.4666C1.33336 35.6 1.8 34.8 2.6 34.4C6.84945 32.1425 9.90844 31.0095 12.6334 30.671L16.6117 36.1412L16.1066 38.6666H1.33336V36.4666ZM38.6666 38.6666H23.8934L23.3883 36.1412L27.4097 30.6117C30.1251 31.0215 33.239 32.1537 37.4001 34.3333C38.2001 34.7999 38.6667 35.5999 38.6667 36.4666V38.6666H38.6666Z"/>
</svg>
