<svg width="40" height="40" viewBox="0 0 40 40" xmlns="http://www.w3.org/2000/svg"><path d="M34.2906 38.9189H5.70949C5.56613 38.9189 5.42864 38.8619 5.32727 38.7606C5.2259 38.6592 5.16895 38.5217 5.16895 38.3783V1.6216C5.16895 1.47823 5.2259 1.34075 5.32727 1.23938C5.42864 1.138 5.56613 1.08105 5.70949 1.08105H34.2906C34.4339 1.08105 34.5714 1.138 34.6728 1.23938C34.7742 1.34075 34.8311 1.47823 34.8311 1.6216V38.3783C34.8311 38.5217 34.7742 38.6592 34.6728 38.7606C34.5714 38.8619 34.4339 38.9189 34.2906 38.9189ZM6.25003 37.8378H33.75V2.16214H6.25003V37.8378Z"/><path d="M19.7092 23.5685C19.1983 23.5671 18.7069 23.3727 18.3332 23.0245C17.9594 22.6762 17.731 22.1996 17.6935 21.6902L17.0065 11.8993C16.9808 11.5283 17.0317 11.156 17.156 10.8054C17.2803 10.4549 17.4754 10.1337 17.7291 9.86176C17.9829 9.58983 18.2898 9.373 18.6309 9.22475C18.972 9.0765 19.34 9 19.7119 9C20.0838 9 20.4518 9.0765 20.7929 9.22475C21.134 9.373 21.4409 9.58983 21.6947 9.86176C21.9484 10.1337 22.1435 10.4549 22.2678 10.8054C22.3921 11.156 22.443 11.5283 22.4173 11.8993L21.7249 21.6896C21.6874 22.1992 21.459 22.6758 21.0853 23.0241C20.7116 23.3725 20.2201 23.5669 19.7092 23.5685ZM19.7092 10.0777C19.4853 10.0777 19.2639 10.1237 19.0586 10.213C18.8533 10.3022 18.6685 10.4328 18.5159 10.5965C18.3632 10.7602 18.2459 10.9536 18.1712 11.1647C18.0965 11.3757 18.066 11.5998 18.0816 11.8231L18.7714 21.6139C18.7875 21.8517 18.8933 22.0744 19.0674 22.2371C19.2415 22.3997 19.4709 22.4902 19.7092 22.4902C19.9475 22.4902 20.1769 22.3997 20.351 22.2371C20.5251 22.0744 20.6309 21.8517 20.647 21.6139L21.3368 11.8237C21.3525 11.6003 21.3221 11.3761 21.2474 11.165C21.1727 10.9539 21.0554 10.7605 20.9027 10.5967C20.7501 10.4329 20.5653 10.3023 20.36 10.213C20.1546 10.1238 19.9331 10.0777 19.7092 10.0777Z"/><path d="M19.7091 30.1369C19.2544 30.1369 18.8099 30.0021 18.4319 29.7495C18.0538 29.4969 17.7592 29.1378 17.5852 28.7177C17.4112 28.2977 17.3656 27.8354 17.4543 27.3895C17.543 26.9435 17.762 26.5339 18.0835 26.2124C18.405 25.8909 18.8146 25.6719 19.2606 25.5832C19.7065 25.4945 20.1688 25.5401 20.5888 25.7141C21.0089 25.8881 21.368 26.1827 21.6206 26.5608C21.8732 26.9388 22.008 27.3833 22.008 27.838C22.0074 28.4475 21.765 29.0319 21.334 29.4629C20.903 29.8939 20.3186 30.1363 19.7091 30.1369ZM19.7091 26.6185C19.4682 26.6185 19.2327 26.69 19.0324 26.8238C18.8321 26.9576 18.6761 27.1479 18.5839 27.3704C18.4917 27.593 18.4676 27.8379 18.5147 28.0741C18.5617 28.3104 18.6778 28.5274 18.8481 28.6977C19.0185 28.868 19.2356 28.9839 19.4718 29.0309C19.7081 29.0778 19.953 29.0536 20.1755 28.9613C20.398 28.8691 20.5882 28.7129 20.7219 28.5126C20.8557 28.3122 20.927 28.0767 20.9269 27.8358C20.9265 27.513 20.798 27.2036 20.5697 26.9753C20.3414 26.7471 20.0319 26.6188 19.7091 26.6185Z"/></svg>
