<svg width="86" height="86" viewBox="0 0 86 86" xmlns="http://www.w3.org/2000/svg">
    <path d="M79.1949 24.9028H67.6784V6.80537C67.6784 5.89721 66.9414 5.16016 66.0332 5.16016H6.80537C5.89721 5.16016 5.16016 5.89721 5.16016 6.80537V72.6141C5.16016 77.1499 8.85038 80.8401 13.3862 80.8401H72.6141C77.1499 80.8401 80.8401 77.1499 80.8401 72.6141V26.548C80.8401 25.6398 80.1031 24.9028 79.1949 24.9028ZM13.3862 77.5497C10.6651 77.5497 8.45059 75.3352 8.45059 72.6141V8.45059H64.388V72.6141C64.388 74.4649 65.0033 76.1743 66.0365 77.5497H13.3862ZM77.5497 72.6141C77.5497 75.3352 75.3352 77.5497 72.6141 77.5497C69.8929 77.5497 67.6784 75.3352 67.6784 72.6141V28.1932H77.5497V72.6141Z"/>
    <path d="M52.8699 18.3223H19.9655C19.0574 18.3223 18.3203 19.0593 18.3203 19.9675V33.1292C18.3203 34.0374 19.0574 34.7744 19.9655 34.7744H52.8699C53.778 34.7744 54.5151 34.0374 54.5151 33.1292V19.9675C54.5151 19.0593 53.778 18.3223 52.8699 18.3223ZM51.2247 31.484H21.6107V21.6127H51.2247V31.484Z"/>
    <path d="M52.8699 44.6455H19.9655C19.0574 44.6455 18.3203 45.3826 18.3203 46.2907C18.3203 47.1989 19.0574 47.9359 19.9655 47.9359H52.8699C53.778 47.9359 54.5151 47.1989 54.5151 46.2907C54.5151 45.3826 53.778 44.6455 52.8699 44.6455Z"/>
    <path d="M52.8699 54.5166H19.9655C19.0574 54.5166 18.3203 55.2537 18.3203 56.1618C18.3203 57.07 19.0574 57.807 19.9655 57.807H52.8699C53.778 57.807 54.5151 57.07 54.5151 56.1618C54.5151 55.2537 53.778 54.5166 52.8699 54.5166Z"/>
    <path d="M52.8699 64.3877H19.9655C19.0574 64.3877 18.3203 65.1248 18.3203 66.0329C18.3203 66.9411 19.0574 67.6781 19.9655 67.6781H52.8699C53.778 67.6781 54.5151 66.9411 54.5151 66.0329C54.5151 65.1248 53.778 64.3877 52.8699 64.3877Z"/>
</svg>
