<svg width="31" height="40" viewBox="0 0 31 40" fill="none" xmlns="http://www.w3.org/2000/svg">
<path d="M30.1115 7.98379L30.0709 7.94326V7.90274L22.3708 0.202634L22.3303 0.162107C22.3303 0.162107 22.2898 0.162107 22.2898 0.121581C22.2898 0.121581 22.2492 0.121581 22.2492 0.0810537C22.1277 0 22.0061 0 21.844 0H2.75583C1.98582 0 1.29686 0.324215 0.810537 0.810537C0.324215 1.29686 0 2.02634 0 2.75583V37.2442C0 37.9737 0.283688 38.6626 0.77001 39.1489L0.810537 39.1895C1.29686 39.6758 2.02634 40 2.75583 40H27.4367C28.2067 40 28.8956 39.6758 29.382 39.1895C29.8683 38.7031 30.1925 37.9737 30.1925 37.2442V8.38906C30.1925 8.22695 30.152 8.10537 30.1115 7.98379ZM22.614 2.91793L27.1935 7.49747H23.8298C23.5056 7.49747 23.1814 7.37589 22.9787 7.13273C22.7761 6.93009 22.614 6.60588 22.614 6.28166V2.91793ZM28.4499 37.2442C28.4499 37.5279 28.3283 37.771 28.1256 37.9737C27.923 38.1763 27.6798 38.2979 27.3962 38.2979H2.75583C2.47214 38.2979 2.22898 38.1763 2.02634 37.9737L1.98582 37.9331C1.82371 37.7305 1.70213 37.4873 1.70213 37.2442V2.7153C1.70213 2.43161 1.82371 2.18845 2.02634 1.98582C2.22898 1.78318 2.47214 1.6616 2.75583 1.6616H20.9119V6.24113C20.9119 7.05167 21.2361 7.78116 21.8034 8.34853C22.3303 8.87538 23.1003 9.1996 23.9108 9.1996H28.4499V37.2442Z" fill="#A6A6A6"/>
<path d="M6.13171 23.4415V20.7825H8.29106L9.81951 23.4938C10.0146 23.8371 10.1837 23.9593 10.4699 23.9593C10.7756 23.9593 11.0228 23.7673 11.0228 23.5113C11.0228 23.3833 10.9772 23.2262 10.9187 23.1156L9.41626 20.5615C10.4309 20.2356 11.0618 19.4036 11.0618 18.3738C11.0618 16.9193 9.9626 16 8.21301 16H6.06667C5.29919 16 5 16.2502 5 16.8902V23.4415C5 23.7847 5.20813 24 5.56585 24C5.91707 24 6.13171 23.7847 6.13171 23.4415ZM6.13171 19.8982V16.9018H8.06992C9.22114 16.9018 9.89756 17.4604 9.89756 18.4262C9.89756 19.3862 9.24065 19.8982 8.02439 19.8982H6.13171Z" fill="#A5A5A5"/>
<path d="M15.2179 24C15.5691 24 15.7902 23.7847 15.7902 23.4415V16.9076H17.9756C18.3268 16.9076 18.5545 16.7389 18.5545 16.4596C18.5545 16.1804 18.3268 16 17.9756 16H12.4732C12.1154 16 11.8878 16.1804 11.8878 16.4596C11.8878 16.7389 12.1154 16.9076 12.4732 16.9076H14.652V23.4415C14.652 23.7847 14.8667 24 15.2179 24Z" fill="#A5A5A5"/>
<path d="M20.252 24C20.6033 24 20.8244 23.7847 20.8244 23.4415V20.5149H24.0829C24.4407 20.5149 24.6683 20.3404 24.6683 20.0611C24.6683 19.7818 24.4407 19.6073 24.0829 19.6073H20.8244V16.9076H24.4211C24.7724 16.9076 25 16.7389 25 16.4596C25 16.1804 24.7724 16 24.4211 16H20.7333C19.9854 16 19.6862 16.2444 19.6862 16.8611V23.4415C19.6862 23.7847 19.9008 24 20.252 24Z" fill="#A5A5A5"/>
</svg>
