<svg xmlns="http://www.w3.org/2000/svg" width="450" height="1143" fill="none">
  <path stroke="#fff" stroke-miterlimit="10" stroke-opacity=".4" stroke-width="1.3" d="M255 22S27 111 130 375c70 177 187 195 255 354 91 212-135 400-135 400"/>
  <path stroke="#fff" stroke-miterlimit="10" stroke-opacity=".4" stroke-width="1.3" d="M239 21S32 129 151 374c82 169 182 212 229 368 62 207-148 380-148 380"/>
  <path stroke="#fff" stroke-miterlimit="10" stroke-opacity=".4" stroke-width="1.3" d="M223 20S38 146 173 373c95 160 175 229 201 383 33 201-161 359-161 359"/>
  <path stroke="#fff" stroke-miterlimit="10" stroke-opacity=".4" stroke-width="1.3" d="M207 19S44 163 194 373c108 151 170 244 174 397 6 195-174 338-174 338"/>
  <path stroke="#fff" stroke-miterlimit="10" stroke-opacity=".4" stroke-width="1.3" d="M190 18S50 179 215 372c122 142 165 261 147 412a529 529 0 0 1-187 316"/>
  <path stroke="#fff" stroke-miterlimit="10" stroke-opacity=".4" stroke-width="1.3" d="M174 17S56 196 236 371a409 409 0 0 1 121 427c-49 182-201 295-201 295"/>
</svg>
