<svg width="18" height="18" viewBox="0 0 18 18" fill="none" xmlns="http://www.w3.org/2000/svg">
<path d="M5.625 10.6875C5.625 10.2399 5.80279 9.81072 6.11926 9.49426C6.43572 9.17779 6.86495 9 7.3125 9H10.6875C11.1351 9 11.5643 9.17779 11.8807 9.49426C12.1972 9.81072 12.375 10.2399 12.375 10.6875V12.9375C12.375 13.3851 12.1972 13.8143 11.8807 14.1307C11.5643 14.4472 11.1351 14.625 10.6875 14.625H7.3125C6.86495 14.625 6.43572 14.4472 6.11926 14.1307C5.80279 13.8143 5.625 13.3851 5.625 12.9375V10.6875ZM7.3125 10.125C7.16332 10.125 7.02024 10.1843 6.91475 10.2898C6.80926 10.3952 6.75 10.5383 6.75 10.6875V12.9375C6.75 13.0867 6.80926 13.2298 6.91475 13.3352C7.02024 13.4407 7.16332 13.5 7.3125 13.5H9V10.125H7.3125ZM10.125 10.125V13.5H10.6875C10.8367 13.5 10.9798 13.4407 11.0852 13.3352C11.1907 13.2298 11.25 13.0867 11.25 12.9375V10.6875C11.25 10.5383 11.1907 10.3952 11.0852 10.2898C10.9798 10.1843 10.8367 10.125 10.6875 10.125H10.125ZM3.375 3.9375C3.375 3.19158 3.67132 2.47621 4.19876 1.94876C4.72621 1.42132 5.44158 1.125 6.1875 1.125H9.756C10.5016 1.12516 11.2166 1.42136 11.7439 1.9485L13.8015 4.00613C14.3286 4.5334 14.6248 5.24842 14.625 5.994V14.0625C14.625 14.8084 14.3287 15.5238 13.8012 16.0512C13.2738 16.5787 12.5584 16.875 11.8125 16.875H6.1875C5.44158 16.875 4.72621 16.5787 4.19876 16.0512C3.67132 15.5238 3.375 14.8084 3.375 14.0625V3.9375ZM6.1875 2.25C5.73995 2.25 5.31072 2.42779 4.99426 2.74426C4.67779 3.06072 4.5 3.48995 4.5 3.9375V14.0625C4.5 14.5101 4.67779 14.9393 4.99426 15.2557C5.31072 15.5722 5.73995 15.75 6.1875 15.75H11.8125C12.2601 15.75 12.6893 15.5722 13.0057 15.2557C13.3222 14.9393 13.5 14.5101 13.5 14.0625V5.994C13.4996 5.5466 13.3216 5.11766 13.005 4.8015L10.9496 2.74387C10.7928 2.5872 10.6067 2.46294 10.4019 2.3782C10.1971 2.29346 9.97764 2.2499 9.756 2.25H6.1875Z" fill="#DBDBDB"/>
</svg>
