<svg width="12" height="16" viewBox="0 0 12 16" xmlns="http://www.w3.org/2000/svg"><path d="M11.9023 3.431L8.56772 0.0976562C8.50522 0.0351562 8.42059 0 8.33203 0H1.33334C0.597969 0 0 0.597969 0 1.33334V14.6667C0 15.402 0.597969 16 1.33334 16H10.6667C11.402 16 12 15.402 12 14.6667V3.66666C12 3.57812 11.9648 3.4935 11.9023 3.431ZM11.3333 14.6667C11.3333 15.0342 11.0342 15.3333 10.6667 15.3333H1.33334C0.965844 15.3333 0.666687 15.0342 0.666687 14.6667V1.33334C0.666687 0.965844 0.965844 0.666687 1.33334 0.666687H8.19403L11.3333 3.80469V14.6667Z"/><path d="M2 7V13C2 13.5514 2.44856 14 3 14H9C9.55144 14 10 13.5514 10 13V7C10 6.44856 9.55144 6 9 6H3C2.44856 6 2 6.44856 2 7ZM4.33334 13.3333H3C2.81609 13.3333 2.66666 13.1839 2.66666 13V11.6667H4.33331V13.3333H4.33334ZM7 13.3333H5V11.6667H7V13.3333ZM9.33334 13C9.33334 13.1839 9.18394 13.3333 9 13.3333H7.66666V11.3333C7.66666 11.1491 7.51756 11 7.33331 11H2.66666V9H9.33331V13H9.33334ZM7.66666 6.66666H9C9.18391 6.66666 9.33334 6.81606 9.33334 7V8.33334H7.66669V6.66666H7.66666ZM5 6.66666H7V8.33331H5V6.66666ZM4.33334 8.33334H2.66669V7C2.66669 6.81609 2.81609 6.66666 3.00003 6.66666H4.33337V8.33334H4.33334Z"/></svg>
