<svg width="16" height="26" viewBox="0 0 16 26" fill="none" xmlns="http://www.w3.org/2000/svg">
<path d="M13.5263 16.8684C12.2031 17.7087 10.3824 18.0418 9.17988 18.1675L10.1892 19.1623L13.874 22.8471C15.2214 24.2284 13.0288 26.3871 11.667 25.0542C10.7446 24.1172 9.39227 22.765 7.9822 21.3548L4.2974 25.0493C2.93551 26.3774 0.742987 24.1993 2.10487 22.8422C3.04176 21.9053 4.37951 20.5531 5.78968 19.1575L6.78453 18.1626C5.59654 18.037 3.7469 17.7231 2.4091 16.8636C0.834718 15.8494 0.144151 15.2554 0.752612 14.0142C1.10997 13.3091 2.0903 12.7151 3.38944 13.739C3.38944 13.739 5.1425 15.1346 7.97252 15.1346C10.8024 15.1346 12.5556 13.739 12.5556 13.739C13.8546 12.7199 14.8301 13.3091 15.1924 14.0142C15.7913 15.2554 15.1007 15.8494 13.5263 16.8684ZM1.70402 7.00195C1.70402 3.53932 4.51952 0.738281 7.96774 0.738281C11.4159 0.738281 14.2314 3.53932 14.2314 7.00195C14.2314 10.4502 11.416 13.2512 7.96774 13.2512C4.51958 13.2512 1.70402 10.4502 1.70402 7.00195ZM4.89145 7.00195C4.89145 8.69705 6.27264 10.0782 7.96774 10.0782C9.66273 10.0782 11.044 8.69705 11.044 7.00195C11.044 5.29233 9.66273 3.9112 7.96774 3.9112C6.27264 3.9112 4.89145 5.29233 4.89145 7.00195Z" fill="white"/>
</svg>
