<svg xmlns="http://www.w3.org/2000/svg" width="23" height="22" fill="none"><path fill="#fff" d="M16.26 12.99c-.26-.14-1.57-.78-1.82-.87-.24-.09-.42-.13-.6.14-.17.27-.68.86-.84 1.04-.15.18-.31.2-.57.07-1.56-.78-2.59-1.4-3.62-3.16-.27-.47.27-.44.78-1.45.09-.18.05-.33-.02-.47-.07-.13-.6-1.44-.82-1.97-.22-.52-.44-.45-.6-.46h-.5a.98.98 0 0 0-.72.32C6.7 6.45 6 7.1 6 8.4c0 1.3.96 2.57 1.09 2.75.13.18 1.87 2.86 4.54 4.01 1.68.73 2.35.8 3.19.67.51-.08 1.57-.64 1.79-1.27.22-.62.22-1.15.15-1.26-.06-.12-.24-.19-.5-.31Z"/><path fill="#fff" d="M21.36 6.68A10.8 10.8 0 0 0 11.4.07h-.05a10.77 10.77 0 0 0-9.6 15.67v3.66c0 .61.5 1.1 1.12 1.1h3.66c1.49.76 3.15 1.16 4.82 1.17h.05a10.8 10.8 0 0 0 9.94-6.55 10.77 10.77 0 0 0 .02-8.44Zm-3.64 10.56a8.92 8.92 0 0 1-6.32 2.6h-.04a9 9 0 0 1-4.17-1.05l-.2-.11h-3.4v-3.4l-.1-.2A9 9 0 0 1 5.02 4.55a8.9 8.9 0 0 1 6.33-2.65h.04a8.92 8.92 0 0 1 8.28 5.5 8.93 8.93 0 0 1-1.96 9.84Z"/></svg>
