<svg width="80" height="81" viewBox="0 0 80 81" xmlns="http://www.w3.org/2000/svg"><g clip-path="url(#clip0_1308_66088)"><path d="M67.1602 0.144531H12.8403C10.2312 0.144531 8.1084 2.26733 8.1084 4.87647V75.4126C8.1084 78.0217 10.231 80.1445 12.8403 80.1445H67.1602C69.7693 80.1445 71.8921 78.0217 71.8921 75.4126V4.87647C71.8921 2.26733 69.7693 0.144531 67.1602 0.144531ZM69.1893 75.4126C69.1893 76.5314 68.279 77.4417 67.1602 77.4417H12.8403C11.7215 77.4417 10.8112 76.5314 10.8112 75.4126V4.87647C10.8112 3.75767 11.7215 2.84736 12.8403 2.84736H67.1602C68.279 2.84736 69.1893 3.75767 69.1893 4.87647V75.4126Z"/><path d="M66.487 8.77637H13.5142C13.0167 8.77637 12.6133 9.17981 12.6133 9.67731V70.6105C12.6133 71.108 13.0167 71.5114 13.5142 71.5114H66.487C66.9845 71.5114 67.3879 71.108 67.3879 70.6105V9.67731C67.3879 9.17963 66.9845 8.77637 66.487 8.77637ZM65.586 69.7095H14.4152V10.5783H65.586V69.7095Z"/><path d="M41.0606 75.604L41.0601 75.6045C40.7825 75.8841 40.3943 76.0443 40.0004 76.0443C39.6045 76.0443 39.2182 75.8842 38.9383 75.6043C38.6606 75.3266 38.5004 74.9382 38.5004 74.5443C38.5004 74.1504 38.6606 73.7621 38.9383 73.4844C39.2182 73.2045 39.6045 73.0443 40.0004 73.0443C40.394 73.0443 40.7804 73.2044 41.0603 73.4844L41.0606 73.4846C41.3402 73.7622 41.5004 74.1505 41.5004 74.5443C41.5004 74.9382 41.3402 75.3265 41.0606 75.604Z" stroke="#A6A6A6" stroke-width="0.2"/><path d="M39.1587 6.46092H42.3185C42.7371 6.46092 43.0768 6.12045 43.0768 5.70263C43.0768 5.28329 42.7363 4.94434 42.3185 4.94434H39.1587C38.7409 4.94434 38.4004 5.28329 38.4004 5.70263C38.4004 6.12045 38.7409 6.46092 39.1587 6.46092Z"/></g><defs><clipPath id="clip0_1308_66088"><rect width="80" height="80" fill="white" transform="translate(0 0.144531)"/></clipPath></defs></svg>
