<svg width="16" height="16" xmlns="http://www.w3.org/2000/svg"><g clip-path="url(#a)"><path d="M12.265 7.736a.916.916 0 0 0-.306-.683.929.929 0 0 0 0-1.37.929.929 0 0 0 0-1.37c.573-.514.272-1.5-.496-1.598V.94a.941.941 0 0 0-.94-.94H7.552c-.303 0-.303.469 0 .469h2.971c.26 0 .471.211.471.471v.124h-5.79V.94c0-.26.212-.471.471-.471h.596c.303 0 .303-.469 0-.469h-.596a.941.941 0 0 0-.94.94v3.433c-.638-.407-1.5.074-1.5.83V10.7l-.44.441a1.289 1.289 0 0 0-1.437.256 1.281 1.281 0 0 0 0 1.804l1.451 1.458c.214.215.546-.116.332-.33L1.69 12.87a.811.811 0 0 1 0-1.142.812.812 0 0 1 1.136 0l2.421 2.432a.811.811 0 0 1 0 1.142c-.358.36-.915.278-1.228-.092-.214-.215-.546.116-.332.33 1.117 1.182 2.89-.135 2.048-1.522l.422-.425a3.192 3.192 0 0 0 3.07-1.743h1.296c.519 0 .94-.421.94-.94v-2.26a.92.92 0 0 0 .802-.915Zm-.469.004a.45.45 0 0 1-.449.449h-.41c-.595-.025-.595-.877 0-.902h.41a.45.45 0 0 1 .45.453Zm0-1.37a.45.45 0 0 1-.449.448h-.41c-.595-.024-.595-.876 0-.9h.41a.45.45 0 0 1 .45.451Zm0-1.37a.45.45 0 0 1-.449.448h-.41c-.595-.025-.595-.876 0-.9h.41a.45.45 0 0 1 .45.451Zm0-1.374a.462.462 0 0 1-.449.452h-.41c-.595-.025-.595-.876 0-.901h.41a.45.45 0 0 1 .45.449Zm-.802-2.093v1.175c-.873-.043-1.31 1.026-.668 1.605a.924.924 0 0 0 0 1.37.924.924 0 0 0 0 1.37c-.642.578-.204 1.647.668 1.605v1.174H6.548c-.149-.8-.61-1.55-1.344-1.934V1.533h5.79Zm-4.59 11.603-.329-.015a.236.236 0 0 0-.177.069l-.478.48-2.24-2.25.455-.457a.235.235 0 0 0 .068-.165V5.202c0-.66 1.019-.66 1.019 0V8.04c0 .094.055.178.14.216.56.241.973.742 1.165 1.41.216.752.1 1.583-.301 2.168-.167.243.207.526.386.266.054-.08.104-.162.15-.248h2.43a2.672 2.672 0 0 1-2.289 1.285Zm4.12-1.754H6.457c.108-.341.156-.71.142-1.08h4.394v.61c0 .259-.211.47-.47.47Z"/><path d="M5.873 3.31c.111.09.222.09.332-.004l.686-.704c.212-.217-.124-.545-.336-.327l-.686.704a.235.235 0 0 0 .004.332ZM5.873 4.818c.111.09.222.09.332-.004L8.36 2.602c.211-.217-.125-.545-.336-.327L5.869 4.487a.235.235 0 0 0 .004.331Z"/></g><defs><clipPath id="a"><path d="M0 0h16v16H0z"/></clipPath></defs></svg>
