<svg width="16" height="16" viewBox="0 0 16 16" xmlns="http://www.w3.org/2000/svg"><path d="M15.181 6.32041L14.058 6.1299C13.941 5.75221 13.7906 5.38789 13.6068 5.04029L14.2686 4.11445C14.5493 3.72005 14.5059 3.18193 14.1616 2.84101L13.1656 1.84499C12.9784 1.65781 12.7311 1.5542 12.467 1.5542C12.2598 1.5542 12.0626 1.6177 11.8955 1.73803L10.9663 2.39982C10.6053 2.2093 10.2276 2.05221 9.83658 1.93523L9.64941 0.825564C9.56919 0.347606 9.15808 0 8.67344 0H7.2663C6.78166 0 6.37055 0.347606 6.29033 0.825564L6.09647 1.96197C5.72213 2.07895 5.35781 2.2327 5.0102 2.41987L4.09105 1.75808C3.92394 1.63776 3.72339 1.57425 3.51617 1.57425C3.25212 1.57425 3.00144 1.67787 2.81761 1.86504L1.81825 2.86106C1.47733 3.20198 1.43053 3.74011 1.71129 4.1345L2.37976 5.07371C2.19593 5.42466 2.04887 5.78898 1.93523 6.16666L0.825564 6.35383C0.347606 6.43405 0 6.84516 0 7.3298V8.73694C0 9.22158 0.347606 9.63269 0.825564 9.71291L1.96197 9.90677C2.07895 10.2811 2.2327 10.6454 2.41987 10.993L1.76143 11.9088C1.48067 12.3032 1.52412 12.8414 1.86838 13.1823L2.86441 14.1783C3.05158 14.3655 3.29891 14.4691 3.56296 14.4691C3.77019 14.4691 3.96739 14.4056 4.13451 14.2853L5.07371 13.6168C5.41129 13.7939 5.76558 13.9377 6.1299 14.0513L6.31707 15.1743C6.39729 15.6523 6.8084 15.9999 7.29304 15.9999H8.70352C9.18816 15.9999 9.59927 15.6523 9.67949 15.1743L9.87 14.0513C10.2477 13.9343 10.612 13.7839 10.9596 13.6001L11.8854 14.2619C12.0526 14.3822 12.2531 14.4457 12.4603 14.4457C12.7244 14.4457 12.9717 14.3421 13.1589 14.1549L14.1549 13.1589C14.4958 12.818 14.5426 12.2798 14.2619 11.8854L13.6001 10.9563C13.7839 10.6053 13.9377 10.241 14.0513 9.86666L15.1743 9.67949C15.6523 9.59927 15.9999 9.18816 15.9999 8.70352V7.29638C16.0066 6.81174 15.659 6.40063 15.181 6.32041ZM15.1041 8.70352C15.1041 8.74697 15.0741 8.78373 15.0306 8.79042L13.6268 9.02438C13.4497 9.05446 13.3093 9.18482 13.2658 9.35528C13.1388 9.84661 12.945 10.3179 12.6843 10.7557C12.594 10.9095 12.6007 11.1 12.7043 11.2471L13.5299 12.4102C13.5533 12.4436 13.5499 12.4938 13.5199 12.5238L12.5238 13.5199C12.5004 13.5433 12.477 13.5466 12.4603 13.5466C12.4403 13.5466 12.4236 13.5399 12.4102 13.5299L11.2504 12.7043C11.1067 12.6007 10.9128 12.594 10.7591 12.6843C10.3212 12.945 9.84995 13.1388 9.35862 13.2658C9.18482 13.3093 9.05447 13.453 9.02773 13.6268L8.79042 15.0306C8.78373 15.0741 8.74697 15.1041 8.70352 15.1041H7.29638C7.25293 15.1041 7.21617 15.0741 7.20948 15.0306L6.97551 13.6268C6.94543 13.4497 6.81508 13.3093 6.64462 13.2658C6.16666 13.1422 5.70542 12.9517 5.27425 12.7043C5.20406 12.6642 5.12385 12.6442 5.04697 12.6442C4.95673 12.6442 4.86314 12.6709 4.78627 12.7277L3.61644 13.56C3.59973 13.57 3.58301 13.5767 3.5663 13.5767C3.55293 13.5767 3.52619 13.5733 3.5028 13.5499L2.50677 12.5539C2.47669 12.5238 2.47335 12.477 2.49675 12.4403L3.31897 11.2872C3.42258 11.1401 3.42927 10.9462 3.33902 10.7925C3.07832 10.358 2.87778 9.88671 2.75077 9.39539C2.70397 9.22493 2.56359 9.09457 2.38979 9.06449L0.975971 8.82384C0.93252 8.81716 0.902438 8.78039 0.902438 8.73694V7.3298C0.902438 7.28635 0.93252 7.24959 0.975971 7.2429L2.36974 7.00894C2.54688 6.97886 2.6906 6.8485 2.73405 6.6747C2.85772 6.18337 3.04824 5.70876 3.3056 5.27091C3.39584 5.11716 3.38582 4.92664 3.2822 4.78292L2.44995 3.6131C2.42656 3.57967 2.4299 3.52954 2.45998 3.49946L3.45601 2.50343C3.4794 2.48003 3.5028 2.47669 3.51951 2.47669C3.53956 2.47669 3.55628 2.48338 3.56965 2.4934L4.72276 3.31563C4.86983 3.41924 5.06368 3.42592 5.21743 3.33568C5.65194 3.07498 6.12321 2.87443 6.61454 2.74742C6.785 2.70063 6.91535 2.56025 6.94543 2.38645L7.18608 0.972628C7.19277 0.929177 7.22954 0.899096 7.27299 0.899096H8.68012C8.72357 0.899096 8.76034 0.929177 8.76702 0.972628L9.00099 2.36639C9.03107 2.54354 9.16142 2.68726 9.33522 2.73071C9.83992 2.85772 10.3212 3.05492 10.7691 3.31897C10.9228 3.40921 11.1134 3.40253 11.2604 3.29891L12.4135 2.47001C12.4303 2.45998 12.447 2.4533 12.4637 2.4533C12.477 2.4533 12.5038 2.45664 12.5272 2.48003L13.5232 3.47606C13.5533 3.50614 13.5566 3.55293 13.5332 3.5897L12.7077 4.7495C12.6041 4.89322 12.5974 5.08708 12.6876 5.24083C12.9483 5.67868 13.1422 6.14995 13.2692 6.64128C13.3126 6.81508 13.4564 6.94543 13.6302 6.97217L15.034 7.20948C15.0774 7.21616 15.1075 7.25293 15.1075 7.29638V8.70352H15.1041Z"/><path d="M8.00149 4.54688C6.09634 4.54688 4.54883 6.09439 4.54883 7.99954C4.54883 9.90469 6.09634 11.4522 8.00149 11.4522C9.90664 11.4522 11.4542 9.90469 11.4542 7.99954C11.4542 6.09439 9.90664 4.54688 8.00149 4.54688ZM8.00149 10.5498C6.59435 10.5498 5.45127 9.40667 5.45127 7.99954C5.45127 6.5924 6.59435 5.44931 8.00149 5.44931C9.40863 5.44931 10.5517 6.5924 10.5517 7.99954C10.5517 9.40667 9.40863 10.5498 8.00149 10.5498Z"/></svg>
