<svg width="18" height="18" viewBox="0 0 18 18" xmlns="http://www.w3.org/2000/svg"><path d="M1.875 16.5C1.875 14.9087 2.50714 13.3826 3.63236 12.2574C4.75758 11.1321 6.2837 10.5 7.875 10.5C9.4663 10.5 10.9924 11.1321 12.1176 12.2574C13.2429 13.3826 13.875 14.9087 13.875 16.5H12.375C12.375 15.3065 11.9009 14.1619 11.057 13.318C10.2131 12.4741 9.06847 12 7.875 12C6.68153 12 5.53693 12.4741 4.69302 13.318C3.84911 14.1619 3.375 15.3065 3.375 16.5H1.875ZM7.875 9.75C5.38875 9.75 3.375 7.73625 3.375 5.25C3.375 2.76375 5.38875 0.75 7.875 0.75C10.3612 0.75 12.375 2.76375 12.375 5.25C12.375 7.73625 10.3612 9.75 7.875 9.75ZM7.875 8.25C9.5325 8.25 10.875 6.9075 10.875 5.25C10.875 3.5925 9.5325 2.25 7.875 2.25C6.2175 2.25 4.875 3.5925 4.875 5.25C4.875 6.9075 6.2175 8.25 7.875 8.25Z"/><path d="M16.444 7.93268C16.5354 7.97076 16.6184 8.02655 16.6881 8.09685C16.76 8.16893 16.8164 8.25488 16.854 8.34947C16.8915 8.44406 16.9095 8.5453 16.9067 8.64704C16.9039 8.74878 16.8804 8.84889 16.8376 8.94126C16.7949 9.03363 16.7338 9.11634 16.6581 9.18435L14.6556 11.1868C14.5151 11.3265 14.325 11.4049 14.1268 11.4049C13.9287 11.4049 13.7386 11.3265 13.5981 11.1868L12.5931 10.1818C12.4534 10.0413 12.375 9.85124 12.375 9.6531C12.375 9.45496 12.4534 9.26487 12.5931 9.12435C12.6628 9.05405 12.7458 8.99826 12.8372 8.96018C12.9286 8.9221 13.0266 8.9025 13.1256 8.9025C13.2246 8.9025 13.3226 8.9221 13.414 8.96018C13.5054 8.99826 13.5884 9.05405 13.6581 9.12435L14.1231 9.59685L15.6231 8.09685C15.6928 8.02655 15.7758 7.97076 15.8672 7.93268C15.9586 7.8946 16.0566 7.875 16.1556 7.875C16.2546 7.875 16.3526 7.8946 16.444 7.93268Z"/></svg>
