<svg xmlns="http://www.w3.org/2000/svg" width="16" height="16" fill="none"><path stroke="#DBDBDB" stroke-linecap="round" stroke-linejoin="round" stroke-width="2" d="M14.75 11.53v2.04a1.35 1.35 0 0 1-1.48 1.35c-2.09-.23-4.1-.94-5.86-2.08a13.22 13.22 0 0 1-4.07-4.06A13.39 13.39 0 0 1 1.26 2.9 1.35 1.35 0 0 1 2.6 1.43h2.03A1.36 1.36 0 0 1 6 2.59c.09.65.25 1.29.48 1.9a1.35 1.35 0 0 1-.31 1.43l-.86.86c.96 1.7 2.37 3.1 4.07 4.07l.86-.86a1.36 1.36 0 0 1 1.43-.3c.62.22 1.26.38 1.91.47a1.36 1.36 0 0 1 1.17 1.37Z"/></svg>
