<svg width="87" height="86" viewBox="0 0 87 86" xmlns="http://www.w3.org/2000/svg">
<path d="M31.7554 41.6562H55.2454C55.4343 41.6563 55.6212 41.6174 55.7941 41.542C55.967 41.4667 56.1221 41.3565 56.2495 41.2186C56.3769 41.0807 56.4738 40.918 56.5341 40.741C56.5943 40.564 56.6166 40.3765 56.5994 40.1905L56.061 34.3444C55.8737 32.2143 55.1325 30.1682 53.9095 28.4048C52.6864 26.6413 51.023 25.2203 49.0806 24.2797C51.3489 23.0543 53.1398 21.1172 54.1709 18.7741C55.2019 16.431 55.4144 13.8152 54.7747 11.3395C54.135 8.86379 52.6795 6.66911 50.6381 5.10175C48.5966 3.5344 46.0853 2.68359 43.5004 2.68359C40.9155 2.68359 38.4041 3.5344 36.3627 5.10175C34.3212 6.66911 32.8658 8.86379 32.2261 11.3395C31.5864 13.8152 31.7988 16.431 32.8298 18.7741C33.8609 21.1172 35.6518 23.0543 37.9201 24.2797C35.9777 25.2203 34.3143 26.6413 33.0912 28.4048C31.8682 30.1682 31.127 32.2143 30.9397 34.3444L30.4021 40.1905C30.3849 40.3764 30.4072 40.5638 30.4674 40.7408C30.5276 40.9178 30.6245 41.0804 30.7518 41.2183C30.8791 41.3562 31.0341 41.4664 31.2069 41.5418C31.3797 41.6172 31.5665 41.6562 31.7554 41.6562ZM34.5829 14.19C34.5829 12.4465 35.1059 10.7423 36.0857 9.29263C37.0656 7.84301 38.4583 6.71317 40.0878 6.04599C41.7172 5.3788 43.5103 5.20423 45.2401 5.54436C46.9699 5.88449 48.5589 6.72404 49.806 7.95684C51.0531 9.18964 51.9024 10.7603 52.2465 12.4703C52.5906 14.1802 52.414 15.9526 51.7391 17.5633C51.0641 19.1741 49.9211 20.5508 48.4547 21.5194C46.9882 22.488 45.2641 23.005 43.5004 23.005C41.136 23.0026 38.8692 22.0731 37.1974 20.4205C35.5256 18.7679 34.5853 16.5271 34.5829 14.19ZM33.6476 34.5881C33.8708 32.1575 35.0054 29.8972 36.8285 28.2512C38.6515 26.6053 41.0313 25.6927 43.5004 25.6927C45.9694 25.6927 48.3492 26.6053 50.1723 28.2512C51.9953 29.8972 53.1299 32.1575 53.3531 34.5881L53.7567 38.9687H33.2437L33.6476 34.5881Z"/>
<path d="M21.4043 65.9356C23.6724 64.7101 25.4632 62.773 26.4942 60.4299C27.5251 58.0868 27.7374 55.471 27.0976 52.9954C26.4579 50.5198 25.0025 48.3252 22.961 46.7579C20.9195 45.1906 18.4083 44.3398 15.8234 44.3398C13.2386 44.3398 10.7273 45.1906 8.68587 46.7579C6.64442 48.3252 5.18899 50.5198 4.54923 52.9954C3.90946 55.471 4.12179 58.0868 5.15271 60.4299C6.18362 62.773 7.97443 64.7101 10.2426 65.9356C8.30019 66.8762 6.63674 68.2972 5.41367 70.0607C4.19059 71.8242 3.44941 73.8702 3.26206 76.0003L2.72443 81.8464C2.70717 82.0324 2.72936 82.22 2.78956 82.3971C2.84977 82.5742 2.94668 82.737 3.07411 82.875C3.20153 83.013 3.35666 83.1232 3.52961 83.1986C3.70255 83.274 3.88949 83.3129 4.0785 83.3128H27.5685C27.7575 83.3129 27.9443 83.274 28.1172 83.1986C28.2901 83.1233 28.4452 83.0131 28.5726 82.8752C28.7 82.7373 28.797 82.5746 28.8572 82.3976C28.9175 82.2206 28.9397 82.0331 28.9226 81.8471L28.3849 76.0009C28.1977 73.8707 27.4566 71.8245 26.2335 70.0609C25.0104 68.2974 23.3468 66.8763 21.4043 65.9356ZM6.906 55.8466C6.906 54.1031 7.429 52.3988 8.40887 50.9492C9.38874 49.4996 10.7815 48.3698 12.4109 47.7026C14.0404 47.0354 15.8334 46.8608 17.5632 47.201C19.293 47.5411 20.882 48.3806 22.1291 49.6134C23.3763 50.8462 24.2256 52.4169 24.5697 54.1269C24.9137 55.8368 24.7371 57.6092 24.0622 59.2199C23.3873 60.8307 22.2443 62.2074 20.7778 63.176C19.3113 64.1446 17.5872 64.6616 15.8235 64.6616C13.4592 64.6592 11.1924 63.7297 9.52054 62.0771C7.84871 60.4245 6.90841 58.1837 6.906 55.8466ZM5.56661 80.6253L5.97021 76.2447C6.1936 73.814 7.32833 71.5537 9.15152 69.9077C10.9747 68.2618 13.3546 67.3492 15.8237 67.3492C18.2928 67.3492 20.6727 68.2618 22.4959 69.9077C24.3191 71.5537 25.4538 73.814 25.6772 76.2447L26.0807 80.6253H5.56661Z"/>
<path d="M83.7388 76.0013C83.5515 73.8712 82.8103 71.8251 81.5872 70.0617C80.3641 68.2982 78.7007 66.8772 76.7583 65.9366C79.0264 64.7111 80.8172 62.774 81.8482 60.4309C82.8791 58.0878 83.0914 55.472 82.4516 52.9964C81.8119 50.5208 80.3564 48.3262 78.315 46.7589C76.2735 45.1916 73.7623 44.3408 71.1774 44.3408C68.5926 44.3408 66.0813 45.1916 64.0399 46.7589C61.9984 48.3262 60.543 50.5208 59.9032 52.9964C59.2635 55.472 59.4758 58.0878 60.5067 60.4309C61.5376 62.774 63.3284 64.7111 65.5966 65.9366C63.6541 66.8771 61.9905 68.2981 60.7673 70.0616C59.5441 71.825 58.8029 73.8711 58.6155 76.0013L58.0779 81.8474C58.0607 82.0334 58.083 82.2209 58.1433 82.398C58.2036 82.575 58.3005 82.7377 58.428 82.8757C58.5554 83.0136 58.7106 83.1237 58.8835 83.1991C59.0565 83.2744 59.2434 83.3132 59.4324 83.3131H82.9224C83.1113 83.3132 83.2982 83.2743 83.4711 83.1989C83.644 83.1236 83.7991 83.0134 83.9265 82.8755C84.0539 82.7376 84.1508 82.5749 84.2111 82.3979C84.2713 82.2209 84.2936 82.0334 84.2764 81.8474L83.7388 76.0013ZM62.2599 55.8469C62.2599 54.1034 62.7829 52.3991 63.7627 50.9495C64.7426 49.4999 66.1353 48.3701 67.7648 47.7029C69.3942 47.0357 71.1873 46.8611 72.9171 47.2013C74.6469 47.5414 76.2359 48.3809 77.483 49.6137C78.7301 50.8465 79.5794 52.4172 79.9235 54.1272C80.2676 55.8371 80.091 57.6095 79.4161 59.2202C78.7411 60.831 77.5981 62.2077 76.1317 63.1763C74.6652 64.1449 72.9411 64.6619 71.1774 64.6619C68.8131 64.6592 66.5465 63.7296 64.8748 62.077C63.203 60.4245 62.2626 58.1839 62.2599 55.8469ZM60.9202 80.6256L61.3237 76.245C61.5471 73.8143 62.6818 71.554 64.505 69.9081C66.3282 68.2621 68.7081 67.3495 71.1772 67.3495C73.6463 67.3495 76.0261 68.2621 77.8493 69.9081C79.6725 71.554 80.8073 73.8143 81.0307 76.245L81.4343 80.6256H60.9202Z"/>
<path d="M44.8594 58.4679V47.0312C44.8594 46.6749 44.7162 46.3331 44.4613 46.0811C44.2063 45.8291 43.8606 45.6875 43.5 45.6875C43.1395 45.6875 42.7937 45.8291 42.5388 46.0811C42.2839 46.3331 42.1407 46.6749 42.1407 47.0312V58.4679L30.4306 67.471C30.1461 67.69 29.9612 68.0116 29.9167 68.3653C29.8721 68.719 29.9715 69.0756 30.193 69.3568C30.4144 69.6381 30.7399 69.8208 31.0976 69.8649C31.4554 69.9089 31.8162 69.8107 32.1007 69.5917L43.5 60.827L54.8993 69.5916C55.1838 69.8105 55.5447 69.9088 55.9024 69.8647C56.2602 69.8207 56.5856 69.6379 56.8071 69.3567C57.0286 69.0755 57.128 68.7188 57.0834 68.3652C57.0388 68.0115 56.854 67.6898 56.5695 67.4709L44.8594 58.4679Z"/>
</svg>
