<svg width="31" height="40" viewBox="0 0 31 40" fill="none" xmlns="http://www.w3.org/2000/svg">
<path d="M30.1115 7.98379L30.0709 7.94326V7.90274L22.3708 0.202634L22.3303 0.162107C22.3303 0.162107 22.2898 0.162107 22.2898 0.121581C22.2898 0.121581 22.2492 0.121581 22.2492 0.0810537C22.1277 0 22.0061 0 21.844 0H2.75583C1.98582 0 1.29686 0.324215 0.810537 0.810537C0.324215 1.29686 0 2.02634 0 2.75583V37.2442C0 37.9737 0.283688 38.6626 0.77001 39.1489L0.810537 39.1895C1.29686 39.6758 2.02634 40 2.75583 40H27.4367C28.2067 40 28.8956 39.6758 29.382 39.1895C29.8683 38.7031 30.1925 37.9737 30.1925 37.2442V8.38906C30.1925 8.22695 30.152 8.10537 30.1115 7.98379ZM22.614 2.91793L27.1935 7.49747H23.8298C23.5056 7.49747 23.1814 7.37589 22.9787 7.13273C22.7761 6.93009 22.614 6.60588 22.614 6.28166V2.91793ZM28.4499 37.2442C28.4499 37.5279 28.3283 37.771 28.1256 37.9737C27.923 38.1763 27.6798 38.2979 27.3962 38.2979H2.75583C2.47214 38.2979 2.22898 38.1763 2.02634 37.9737L1.98582 37.9331C1.82371 37.7305 1.70213 37.4873 1.70213 37.2442V2.7153C1.70213 2.43161 1.82371 2.18845 2.02634 1.98582C2.22898 1.78318 2.47214 1.6616 2.75583 1.6616H20.9119V6.24113C20.9119 7.05167 21.2361 7.78115 21.8034 8.34853C22.3303 8.87538 23.1003 9.1996 23.9108 9.1996H28.4499V37.2442Z" fill="#A6A6A6"/>
<path d="M14.5833 0.857422V3.78599H17.5V6.71456H14.5833V9.64314H17.5V12.5717H14.5833V15.5003H16.3835C16.7177 15.5003 17.0139 15.5994 17.2721 15.7977C17.5304 15.996 17.7051 16.2553 17.7962 16.5756L20.2344 24.5605C20.3559 24.9724 20.4167 25.369 20.4167 25.7503C20.4167 27.0163 19.866 28.0649 18.7646 28.8962C17.6633 29.7275 16.2695 30.1431 14.5833 30.1431C12.8971 30.1431 11.5034 29.7275 10.402 28.8962C9.30067 28.0649 8.75 27.0163 8.75 25.7503C8.75 25.369 8.81076 24.9724 8.93229 24.5605C9.2513 23.5996 10.1628 20.5795 11.6667 15.5003V12.5717H14.5833V9.64314H11.6667V6.71456H14.5833V3.78599H11.6667V0.857422H14.5833Z" fill="#A5A5A5"/>
<ellipse cx="14.5" cy="26" rx="3.5" ry="2" fill="#EDEDED"/>
</svg>
