<svg width="172" height="49" viewBox="0 0 172 49" fill="none" xmlns="http://www.w3.org/2000/svg"><path d="M172 44.0896C172 46.8023 169.786 49 167.047 49H4.95951C2.22228 49 0 46.8023 0 44.0896V4.91668C0 2.20604 2.22228 0 4.95951 0H167.046C169.786 0 172 2.20604 172 4.91772V44.0896Z" fill="#2B2B2B"/><path d="M37.6958 24.0665C37.6578 19.962 41.0978 17.9645 41.255 17.8717C39.3071 15.0651 36.287 14.6815 35.2266 14.6502C32.6909 14.3875 30.2301 16.1515 28.9375 16.1515C27.6216 16.1515 25.6315 14.6762 23.4883 14.72C20.7237 14.7617 18.1384 16.336 16.7244 18.786C13.8015 23.7798 15.9752 31.1194 18.7821 35.1645C20.175 37.1453 21.8106 39.3451 23.9526 39.2722C26.042 39.1887 26.8228 37.9481 29.3553 37.9481C31.8562 37.9481 32.5948 39.2617 34.7791 39.22C37.0268 39.1783 38.4407 37.2288 39.7914 35.227C41.4059 32.9543 42.0601 30.7232 42.0812 30.6085C42.0285 30.5877 37.7126 28.9613 37.6704 24.0405L37.6958 24.0665ZM33.5699 11.9938C34.6968 10.6019 35.4671 8.70762 35.254 6.78516C33.6184 6.85813 31.5818 7.90069 30.4 9.26226C29.3553 10.4612 28.4268 12.4285 28.6695 14.2769C30.495 14.4125 32.3838 13.3647 33.5551 11.9938H33.5699ZM68.0142 38.9959H65.086L63.482 34.0166H57.9105L56.3826 38.9959H53.5335L59.0554 22.044H62.4669L68.0174 38.9959H68.0142ZM62.9998 31.9274L61.5489 27.5007C61.3959 27.0493 61.1078 25.9838 60.6836 24.3073H60.6309C60.462 25.0288 60.1919 26.0932 59.8183 27.5007L58.3938 31.9274H62.9998ZM82.2184 32.7333C82.2184 34.8121 81.6486 36.4552 80.5122 37.6625C79.4886 38.7363 78.2223 39.2722 76.7134 39.2722C75.0778 39.2722 73.9065 38.6883 73.1995 37.5311H73.1468V43.9636H70.4032V30.7972C70.4032 29.4899 70.361 28.1492 70.2977 26.773H72.7141L72.8618 28.71H72.9146C73.8326 27.2505 75.215 26.5207 77.0827 26.5207C78.5389 26.5207 79.763 27.091 80.7337 28.2305C81.7045 29.3721 82.1899 30.8723 82.1899 32.7343L82.2184 32.7333ZM79.4179 32.8333C79.4179 31.6448 79.1467 30.6628 78.6033 29.8902C78.0092 29.0854 77.2104 28.6829 76.21 28.6829C75.5326 28.6829 74.9163 28.9071 74.3655 29.3502C73.8136 29.7953 73.4528 30.3771 73.2839 31.0985C73.189 31.4322 73.1468 31.7032 73.1468 31.9222V33.9551C73.1468 34.8413 73.4211 35.5919 73.9698 36.207C74.5185 36.8222 75.2361 37.1245 76.1225 37.1245C77.1566 37.1245 77.9585 36.7283 78.5389 35.936C79.1087 35.1436 79.4042 34.1011 79.4042 32.8188L79.4179 32.8333ZM96.447 32.7333C96.447 34.8121 95.8792 36.4552 94.7407 37.6625C93.7234 38.7363 92.4582 39.2722 90.9493 39.2722C89.319 39.2722 88.1487 38.6883 87.4375 37.5311H87.3848V43.9636H84.6391V30.7972C84.6391 29.4899 84.6043 28.1492 84.5367 26.773H86.9553L87.1094 28.71H87.1621C88.0802 27.2505 89.473 26.5207 91.3408 26.5207C92.797 26.5207 94.021 27.091 94.9918 28.2305C95.9732 29.3721 96.4586 30.8723 96.4586 32.7343L96.447 32.7333ZM93.6475 32.8333C93.6475 31.6448 93.3752 30.6628 92.8307 29.8902C92.2366 29.0854 91.441 28.6829 90.4396 28.6829C89.7601 28.6829 89.1449 28.9071 88.593 29.3502C88.0422 29.7953 87.6823 30.3771 87.5135 31.0985C87.4291 31.4322 87.3869 31.7032 87.3869 31.9222V33.9551C87.3869 34.8413 87.6612 35.5919 88.21 36.207C88.7629 36.8117 89.4794 37.1245 90.3626 37.1245C91.3988 37.1245 92.205 36.7283 92.7811 35.936C93.3583 35.1436 93.6464 34.1011 93.6464 32.8188L93.6475 32.8333ZM112.356 34.2408C112.356 35.6837 111.85 36.8576 110.833 37.7625C109.714 38.753 108.159 39.2534 106.158 39.2534C104.314 39.2534 102.834 38.9093 101.712 38.2004L102.35 35.9381C103.557 36.6679 104.88 37.0223 106.323 37.0223C107.357 37.0223 108.159 36.793 108.739 36.3342C109.309 35.8755 109.604 35.2604 109.604 34.4889C109.604 33.8008 109.362 33.2274 108.887 32.7583C108.412 32.2891 107.621 31.8513 106.513 31.4551C103.505 30.35 102.007 28.734 102.007 26.5968C102.007 25.2102 102.534 24.0634 103.579 23.1772C104.624 22.291 106.027 21.8428 107.779 21.8428C109.341 21.8428 110.639 22.1138 111.673 22.6455L110.987 24.8662C110.016 24.3449 108.919 24.0842 107.694 24.0842C106.724 24.0842 105.964 24.324 105.426 24.7932C104.961 25.2102 104.74 25.721 104.74 26.3257C104.74 26.993 104.993 27.5559 105.521 27.9834C105.974 28.39 106.808 28.8279 108.011 29.297C109.488 29.8808 110.565 30.5689 111.261 31.3613C111.958 32.1432 112.306 33.1232 112.306 34.3013L112.356 34.2408ZM121.445 28.8091H118.417V34.7454C118.417 36.254 118.948 37.0077 120.02 37.0077C120.51 37.0077 120.917 36.966 121.24 36.8826L121.316 38.9448C120.774 39.145 120.061 39.245 119.178 39.245C118.092 39.245 117.244 38.9177 116.632 38.265C116.02 37.6082 115.714 36.5115 115.714 34.9706V28.8091H113.91V26.7699H115.714V24.5315L118.415 23.7266V26.7709H121.444V28.8101L121.445 28.8091ZM135.114 32.7833C135.114 34.662 134.571 36.205 133.485 37.4122C132.345 38.6529 130.836 39.2722 128.952 39.2722C127.137 39.2722 125.691 38.6675 124.615 37.479C123.536 36.2905 122.997 34.7892 122.997 32.9751C122.997 31.0777 123.556 29.5243 124.664 28.3149C125.783 27.1056 127.281 26.5009 129.16 26.5009C130.975 26.5009 132.441 27.0951 133.539 28.2836C134.594 29.4409 135.122 30.9317 135.122 32.7562L135.114 32.7833ZM132.263 32.8709C132.263 31.7345 132.02 30.7753 131.524 29.9622C130.949 28.9822 130.125 28.5026 129.057 28.5026C127.952 28.5026 127.114 28.9926 126.537 29.9622C126.044 30.7649 125.799 31.7449 125.799 32.9126C125.799 34.0385 126.044 35.0081 126.537 35.8109C127.132 36.7805 127.962 37.2705 129.033 37.2705C130.088 37.2705 130.911 36.77 131.502 35.7796C132.009 34.956 132.273 33.976 132.273 32.85L132.263 32.8709ZM144.048 29.1594C143.778 29.1073 143.488 29.076 143.182 29.076C142.216 29.076 141.468 29.4305 140.942 30.1602C140.484 30.7962 140.256 31.599 140.256 32.5685V38.9907H137.507L137.533 30.6085C137.533 29.2011 137.498 27.9188 137.43 26.7615H139.815L139.91 29.0968H139.984C140.269 28.2941 140.733 27.6477 141.356 27.1577C141.968 26.7198 142.633 26.5009 143.34 26.5009C143.593 26.5009 143.814 26.5113 144.026 26.5426V29.1281L144.048 29.1594ZM156.341 32.2975C156.341 32.777 156.309 33.1941 156.242 33.5277H147.995C148.037 34.737 148.428 35.6545 149.198 36.2904C149.895 36.8534 150.792 37.1453 151.9 37.1453C153.124 37.1453 154.242 36.9473 155.245 36.5615L155.677 38.4485C154.516 38.949 153.134 39.1992 151.53 39.1992C149.62 39.1992 148.111 38.6362 147.014 37.5207C145.927 36.4051 145.378 34.9039 145.378 33.0273C145.378 31.1819 145.885 29.6494 146.908 28.4296C147.974 27.116 149.42 26.4696 151.235 26.4696C153.018 26.4696 154.369 27.116 155.287 28.4296C156.015 29.4617 156.384 30.7441 156.384 32.2766L156.341 32.2975ZM153.721 31.5885C153.739 30.7858 153.559 30.0873 153.187 29.5034C152.712 28.7424 151.984 28.367 151.003 28.367C150.106 28.367 149.378 28.7319 148.818 29.4722C148.365 30.056 148.09 30.7649 148.006 31.5781H153.736L153.721 31.5885ZM54.8367 8.13214C55.13 7.95803 55.4592 7.81207 55.8307 7.69218C56.2 7.57333 56.6326 7.51286 57.1286 7.51286C57.9306 7.51286 58.5742 7.7026 59.0385 8.08105C59.5028 8.4595 59.735 8.97765 59.735 9.6136C59.735 10.1245 59.5767 10.5519 59.2601 10.9064C58.9436 11.2608 58.5426 11.4902 58.0572 11.6049V11.6466C58.321 11.6883 58.5742 11.7613 58.8064 11.8655C59.0491 11.9698 59.2496 12.1053 59.429 12.2825C59.6083 12.4598 59.7455 12.6579 59.851 12.8872C59.9566 13.1166 60.0093 13.3772 60.0093 13.6587C60.0093 14.1279 59.9144 14.5136 59.7244 14.8264C59.5345 15.1391 59.2918 15.3998 58.9858 15.5979C58.6798 15.7959 58.3421 15.9419 57.9622 16.0253C57.5823 16.1087 57.213 16.1608 56.8331 16.1608C56.4322 16.1608 56.0312 16.1191 55.6407 16.0357C55.2503 15.9523 54.881 15.8168 54.5539 15.6291L54.8915 14.6074C55.1026 14.7117 55.3875 14.8159 55.7252 14.9202C56.0628 15.0245 56.411 15.0766 56.7593 15.0766C57.3396 15.0766 57.7828 14.9473 58.0952 14.6908C58.4086 14.4302 58.5658 14.0862 58.5658 13.6587C58.5658 13.373 58.5025 13.1374 58.3759 12.9498C58.2492 12.7621 58.0836 12.6162 57.8905 12.5119C57.69 12.4024 57.4684 12.3295 57.2151 12.2878C56.9724 12.246 56.7297 12.2252 56.487 12.2252H55.9267V11.2066H56.486C56.7392 11.2066 56.9819 11.1753 57.2035 11.1086C57.4251 11.0461 57.615 10.9522 57.7765 10.8344C57.9348 10.7198 58.0614 10.5738 58.1564 10.407C58.244 10.2454 58.2935 10.0598 58.2935 9.85443C58.2935 9.48433 58.1564 9.1945 57.8926 8.9839C57.6288 8.77539 57.27 8.66592 56.8162 8.66592C56.5102 8.66592 56.1958 8.70971 55.8877 8.81188C55.5816 8.90571 55.3031 9.02039 55.0604 9.13507L54.7649 8.18635L54.8367 8.13214ZM65.5788 15.9773L65.4785 15.2851H65.4416C65.0343 15.8376 64.4423 16.1191 63.6656 16.1191C63.3913 16.1191 63.1412 16.0774 62.9164 15.9836C62.6896 15.8898 62.4944 15.7751 62.3276 15.6187C62.1588 15.4623 62.0322 15.2851 61.9393 15.0662C61.8486 14.8576 61.8021 14.6179 61.8021 14.3676C61.8021 13.617 62.1113 13.054 62.7286 12.6891C63.3459 12.3242 64.2207 12.1262 65.3561 12.1262V12.0115C65.3561 11.2191 64.934 10.8334 64.0941 10.8334C63.4947 10.8334 62.965 10.9898 62.5091 11.2817L62.2348 10.4059C62.794 10.0619 63.4884 9.89509 64.3199 9.89509C65.909 9.89509 66.7047 10.7291 66.7047 12.3764V14.596C66.7047 15.2111 66.7342 15.6906 66.7923 16.0284H65.5788V15.9773ZM65.3909 12.9873C64.6312 12.9873 64.0719 13.0811 63.7026 13.2719C63.3333 13.4617 63.1433 13.7723 63.1433 14.1998C63.1433 14.5126 63.2277 14.7471 63.3966 14.9035C63.5654 15.0599 63.787 15.1381 64.0508 15.1381C64.2196 15.1381 64.3885 15.1068 64.5468 15.0443C64.705 14.9838 64.8422 14.8983 64.9583 14.7909C65.0744 14.6846 65.1693 14.5543 65.2537 14.402C65.3276 14.2488 65.3593 14.0872 65.3593 13.9141V12.9863L65.3909 12.9873ZM73.2206 9.97224V11.0721H70.6881V15.9773H69.3374V9.97224H73.2101H73.2206ZM80.9448 12.9018C80.9448 13.3783 80.8709 13.8151 80.7443 14.2102C80.6071 14.6064 80.4277 14.9442 80.185 15.2236C79.9423 15.503 79.6574 15.724 79.3303 15.8783C78.9926 16.0347 78.6339 16.1139 78.2329 16.1139C77.4309 16.1139 76.8506 15.8293 76.5023 15.2611H76.4707V18.4242H75.1316V11.95C75.1316 11.6289 75.1284 11.3036 75.1211 10.9804C75.1105 10.6541 75.1 10.3173 75.0831 9.9712H76.2702L76.3441 10.923H76.3652C76.8084 10.2068 77.4942 9.84922 78.4123 9.84922C78.771 9.84922 79.0982 9.9222 79.4042 10.0682C79.7102 10.2183 79.974 10.4258 80.1956 10.6937C80.4172 10.9606 80.5966 11.2817 80.7232 11.658C80.8498 12.0334 80.9131 12.4473 80.9131 12.9008L80.9448 12.9018ZM79.573 12.9508C79.573 12.6537 79.5308 12.3805 79.4569 12.1293C79.3831 11.8791 79.2775 11.6643 79.1404 11.4871C79.0032 11.3098 78.8344 11.1701 78.6339 11.0669C78.4334 10.9627 78.2118 10.9126 77.9691 10.9126C77.7791 10.9126 77.5892 10.9543 77.3993 11.0377C77.2093 11.118 77.051 11.2296 76.9139 11.3713C76.7767 11.51 76.6712 11.6799 76.5868 11.877C76.5023 12.0751 76.4601 12.2836 76.4601 12.5077V13.5086C76.4601 13.7306 76.4918 13.936 76.5656 14.1268C76.6395 14.3166 76.7345 14.4813 76.8611 14.621C76.9877 14.7607 77.146 14.8712 77.3254 14.9483C77.5048 15.0265 77.6947 15.0651 77.9163 15.0651C78.4228 15.0651 78.8238 14.8743 79.1087 14.4917C79.3936 14.106 79.5308 13.593 79.5308 12.9508H79.573ZM88.1941 9.97224L86.6641 14.1372C86.2947 15.1245 85.936 15.9336 85.5877 16.5643C85.2395 17.195 84.9124 17.6538 84.5958 17.9426C84.1315 18.3544 83.625 18.6067 83.108 18.6953L82.7809 17.5725C83.1291 17.4818 83.4668 17.3045 83.7833 17.0408C84.0999 16.777 84.3531 16.4486 84.5431 16.0524C84.6064 15.921 84.638 15.8303 84.638 15.7813C84.638 15.7313 84.6169 15.6375 84.5642 15.4967L82.3693 9.97433H83.8572L85.0074 13.323C85.0707 13.4794 85.1234 13.6566 85.1868 13.8443L85.3767 14.5011H85.3978C85.44 14.3656 85.4822 14.1988 85.535 14.0007C85.5772 13.7922 85.6511 13.5628 85.7355 13.3022L86.759 9.96599H88.2047L88.1941 9.97224ZM90.5367 12.4692H91.1593C91.613 12.4692 91.9718 12.3858 92.225 12.221C92.4677 12.0542 92.5944 11.854 92.5944 11.6143C92.5944 11.3672 92.4888 11.1701 92.2673 11.0221C92.0562 10.874 91.7607 10.799 91.3809 10.799C91.1382 10.799 90.8955 10.8386 90.6422 10.9168C90.389 11.0002 90.1674 11.094 89.9563 11.2087L89.6081 10.3434C89.9563 10.1557 90.3045 10.0306 90.6528 9.95764C91.001 9.89509 91.3387 9.85339 91.6974 9.85339C91.9718 9.85339 92.2461 9.88467 92.5311 9.93679C92.8054 9.98892 93.0481 10.0828 93.2697 10.2079C93.4807 10.333 93.6601 10.4998 93.7973 10.7083C93.9345 10.9168 94.0083 11.167 94.0083 11.4798C94.0083 11.6779 93.9661 11.8447 93.8923 11.9802C93.8184 12.1262 93.7129 12.2513 93.5863 12.3659C93.4596 12.4806 93.3225 12.5745 93.1642 12.637C93.0059 12.71 92.8476 12.7621 92.6999 12.7934V12.8351C92.8898 12.8664 93.0903 12.9185 93.2803 12.9915C93.4596 13.0645 93.6285 13.1687 93.7868 13.2834C93.9345 13.4085 94.0506 13.544 94.1455 13.7213C94.2299 13.8881 94.2722 14.0862 94.2722 14.2947C94.2722 14.6491 94.1877 14.9515 94.0115 15.1913C93.8427 15.431 93.6169 15.6187 93.3467 15.7647C93.0829 15.9106 92.7811 16.0045 92.4604 16.067C92.1332 16.1296 91.8167 16.1608 91.5107 16.1608C91.1308 16.1608 90.7615 16.1191 90.3942 16.0462C90.0249 15.9732 89.6978 15.8481 89.4023 15.6813L89.7611 14.8055C89.9722 14.9202 90.2254 15.014 90.4998 15.0974C90.7741 15.1808 91.0611 15.2121 91.3545 15.2121C91.8103 15.2121 92.167 15.1287 92.4097 14.9515C92.6524 14.7742 92.779 14.5553 92.779 14.2947C92.779 14.1174 92.7368 13.9715 92.6524 13.8568C92.568 13.7317 92.4519 13.6379 92.3042 13.5649C92.1564 13.4919 91.9771 13.4398 91.7766 13.4085C91.5761 13.3876 91.3577 13.3668 91.1255 13.3668H90.4924V12.5109L90.5367 12.4692ZM97.7438 9.97224V12.097C97.7438 12.5838 97.7333 13.0207 97.7122 13.4064C97.691 13.7922 97.67 14.1988 97.6488 14.6262L97.6699 14.647L98.1342 13.7192L98.5985 12.7913L100.107 9.95556H101.859V15.9607H100.582V13.8339C100.582 13.3856 100.593 12.9477 100.614 12.4994L100.677 11.1545H100.614C100.466 11.5194 100.329 11.8426 100.181 12.1136C100.034 12.3847 99.8965 12.6662 99.7593 12.9477C99.4955 13.4377 99.2422 13.9381 98.989 14.4281C98.7357 14.9181 98.4614 15.429 98.1765 15.9502H96.447V9.96703H97.7428L97.7438 9.97224ZM108.992 9.97224V11.0721H107.135V15.9773H105.806V11.0721H103.97V9.97224H108.982H108.992ZM115.883 12.6912C115.883 12.8059 115.872 12.9154 115.862 13.0186C115.851 13.1228 115.841 13.2146 115.83 13.2959H111.778C111.789 13.8641 111.968 14.303 112.316 14.6116C112.665 14.9202 113.118 15.0755 113.688 15.0755C114.279 15.0755 114.828 14.9817 115.324 14.7909L115.535 15.7188C114.954 15.9659 114.279 16.0889 113.488 16.0889C113.013 16.0889 112.591 16.0159 112.211 15.8731C111.831 15.7292 111.514 15.5249 111.261 15.2611C111.008 14.9973 110.807 14.6804 110.67 14.3103C110.533 13.9392 110.47 13.5242 110.47 13.0624C110.47 12.5932 110.533 12.1658 110.67 11.78C110.807 11.3839 110.997 11.0502 111.251 10.7583C111.504 10.4664 111.799 10.237 112.158 10.0807C112.506 9.91386 112.907 9.83045 113.34 9.83045C113.72 9.83045 114.068 9.89301 114.385 10.0285C114.691 10.1641 114.954 10.3517 115.176 10.6019C115.398 10.8522 115.566 11.1545 115.682 11.4985C115.799 11.8426 115.851 12.2388 115.851 12.6662L115.883 12.6912ZM114.596 12.3472C114.596 11.8759 114.48 11.4944 114.247 11.2035C114.015 10.9116 113.688 10.7635 113.255 10.7635C112.854 10.7635 112.527 10.9116 112.253 11.2077C111.979 11.5038 111.82 11.8832 111.778 12.3461H114.585L114.596 12.3472ZM121.317 10.0223C121.56 9.98058 121.866 9.9493 122.246 9.92324C122.615 9.89718 123.006 9.88571 123.396 9.88571C123.639 9.88571 123.924 9.90135 124.24 9.9295C124.546 9.95765 124.852 10.0233 125.127 10.1276C125.412 10.2298 125.644 10.384 125.834 10.5905C126.024 10.7969 126.119 11.0753 126.119 11.4297C126.119 11.6122 126.076 11.7738 126.013 11.9176C125.939 12.0636 125.855 12.1887 125.739 12.3034C125.623 12.4076 125.496 12.5015 125.348 12.5745C125.201 12.6474 125.053 12.6996 124.884 12.7308L124.894 12.7725C125.338 12.8455 125.696 13.0019 125.971 13.2417C126.245 13.4815 126.382 13.8151 126.382 14.2321C126.382 14.6596 126.266 14.9932 126.034 15.233C125.802 15.4832 125.517 15.6708 125.169 15.7959C124.831 15.921 124.472 16.0045 124.089 16.0357C123.709 16.067 123.372 16.0879 123.071 16.0879C122.733 16.0879 122.406 16.0774 122.082 16.067C121.759 16.0566 121.491 16.0357 121.275 16.0149V10.0296L121.317 10.0223ZM122.615 12.4202H123.301C123.502 12.4202 123.702 12.4056 123.892 12.3764C124.082 12.3555 124.24 12.3034 124.388 12.2408C124.525 12.1783 124.641 12.1053 124.715 12.001C124.789 11.8968 124.831 11.7717 124.831 11.6257C124.831 11.3547 124.715 11.1566 124.483 11.0315C124.251 10.9064 123.892 10.8438 123.396 10.8438C123.248 10.8438 123.132 10.8542 123.027 10.8542L122.594 10.8959V12.4389L122.615 12.4202ZM122.615 15.0755C122.784 15.0922 122.921 15.1037 123.037 15.112C123.153 15.1225 123.28 15.1245 123.428 15.1245C123.607 15.1245 123.797 15.1141 123.987 15.088C124.177 15.0641 124.356 15.0172 124.515 14.9463C124.673 14.8775 124.8 14.7836 124.894 14.6648C124.989 14.5459 125.042 14.3875 125.042 14.1915C125.042 13.8474 124.884 13.6108 124.578 13.4794C124.272 13.3439 123.85 13.2813 123.322 13.2813H122.605V15.0745L122.615 15.0755Z" fill="white"/></svg>
