<svg width="126" height="28" viewBox="0 0 126 28" fill="none" xmlns="http://www.w3.org/2000/svg">
    <g clip-path="url(#clip0)">
        <path d="M124.686 0.235411C123.607 0.235411 122.532 0.235411 121.453 0.203391C121.234 0.203391 121.132 0.239413 121.046 0.403514C120.122 2.0045 119.072 3.70555 118.151 5.31854C118.143 5.33163 118.132 5.34252 118.118 5.35021C118.105 5.3579 118.09 5.36215 118.074 5.36257C118.059 5.36181 118.043 5.35741 118.03 5.34976C118.017 5.3421 118.005 5.3314 117.997 5.31854C117.073 3.71755 116.026 2.0125 115.102 0.403514C115.008 0.239413 114.906 0.199388 114.695 0.203391C113.616 0.203391 112.541 0.243415 111.466 0.235411C111.234 0.235411 111.148 0.31546 111.148 0.551605C111.148 4.5007 111.148 8.4538 111.148 12.4109C111.148 12.6631 111.234 12.7351 111.478 12.7311C112.333 12.7311 113.184 12.7311 114.039 12.7311C114.357 12.7311 114.446 12.635 114.446 12.3309C114.446 9.92938 114.446 7.5279 114.446 5.12642C114.446 5.00635 114.446 4.78621 114.495 4.7662C114.544 4.74619 114.589 4.81423 114.609 4.85025C115.362 6.18707 116.12 7.51989 116.865 8.85271C116.934 8.97279 116.979 9.04483 117.125 9.04483H119.092C119.234 9.04483 119.283 8.97279 119.353 8.85271C120.098 7.51189 120.855 6.17907 121.608 4.85025C121.629 4.81023 121.661 4.74218 121.722 4.7662C121.783 4.79021 121.771 5.00635 121.771 5.12642C121.771 7.5279 121.771 9.92938 121.771 12.3309C121.771 12.627 121.84 12.7311 122.158 12.7311C123.009 12.7111 123.864 12.7311 124.719 12.7311C124.963 12.7311 125.049 12.6591 125.049 12.4109C125.049 8.46181 125.049 4.50871 125.049 0.551605C125.049 0.31546 124.963 0.235411 124.735 0.235411" fill="#F04E37"/>
        <path d="M33.4826 0.600244C33.4826 0.316069 33.3889 0.25203 33.1161 0.256032C31.3857 0.256032 29.6594 0.256032 27.9249 0.256032C26.1905 0.256032 24.4641 0.256032 22.7337 0.256032C22.461 0.256032 22.3632 0.320072 22.3673 0.600244C22.3877 1.31668 22.3673 2.03713 22.3673 2.75357C22.3673 3.04175 22.4691 3.10979 22.7378 3.10178C23.7598 3.10178 24.7736 3.10178 25.8078 3.10178C26.1294 3.10178 26.2149 3.19784 26.2149 3.50203C26.2149 6.45185 26.2149 9.39766 26.2149 12.3475C26.2149 12.6717 26.3045 12.7477 26.6221 12.7477C27.0618 12.7477 27.5056 12.7477 27.9453 12.7477C28.385 12.7477 28.8288 12.7477 29.2686 12.7477C29.5902 12.7477 29.6757 12.6677 29.6757 12.3475C29.6757 9.39766 29.6757 6.45185 29.6757 3.50203C29.6757 3.20185 29.749 3.10178 30.0829 3.10178C31.1048 3.1218 32.1186 3.10178 33.1528 3.10178C33.4215 3.10178 33.5314 3.04175 33.5233 2.75357C33.5233 2.03713 33.5029 1.31668 33.5233 0.600244" fill="#0081C8"/>
        <path d="M45.3421 0.600244C45.3421 0.316069 45.2485 0.25203 44.9798 0.256032C43.2453 0.256032 41.519 0.256032 39.7886 0.256032C38.0582 0.256032 36.3278 0.256032 34.5974 0.256032C34.3246 0.256032 34.2228 0.320072 34.2309 0.600244C34.2513 1.31668 34.2309 2.03713 34.2309 2.75357C34.2309 3.04175 34.3327 3.10979 34.6014 3.10178C35.6234 3.10178 36.6372 3.10178 37.6673 3.10178C37.993 3.10178 38.0744 3.19784 38.0744 3.50203C38.0744 6.45185 38.0744 9.39766 38.0744 12.3475C38.0744 12.6717 38.164 12.7477 38.4816 12.7477C38.9254 12.7477 39.3651 12.7477 39.8048 12.7477C40.2446 12.7477 40.6884 12.7477 41.1281 12.7477C41.4497 12.7477 41.5352 12.6677 41.5352 12.3475C41.5352 9.39766 41.5352 6.45185 41.5352 3.50203C41.5352 3.20185 41.6085 3.10178 41.9424 3.10178C42.9644 3.1218 43.9782 3.10178 45.0123 3.10178C45.2811 3.10178 45.391 3.04175 45.3828 2.75357C45.3638 2.03846 45.3638 1.32069 45.3828 0.600244" fill="#0081C8"/>
        <path d="M11.1112 0.600331C11.1112 0.316156 11.0176 0.252117 10.7448 0.256119C9.01436 0.256119 7.28804 0.256119 5.55357 0.256119C3.81909 0.256119 2.09684 0.264124 0.366438 0.252117C0.0936451 0.248114 0 0.316156 0 0.600331C0.0217148 1.31811 0.0217148 2.03588 0 2.75366C0 3.04183 0.101788 3.10988 0.370509 3.10187C1.39246 3.10187 2.40627 3.10187 3.43637 3.10187C3.75802 3.10187 3.84352 3.19793 3.84352 3.50212C3.84352 6.45193 3.84352 9.39775 3.84352 12.3476C3.84352 12.6718 3.9331 12.7478 4.25068 12.7478C4.69447 12.7478 5.1342 12.7478 5.57392 12.7478C6.01365 12.7478 6.45744 12.7478 6.90124 12.7478C7.22289 12.7478 7.30839 12.6678 7.30839 12.3476C7.30839 9.39775 7.30839 6.45193 7.30839 3.50212C7.30839 3.20193 7.37761 3.10187 7.71555 3.10187C8.7375 3.12188 9.75131 3.10187 10.7814 3.10187C11.0542 3.10187 11.1601 3.04183 11.1519 2.75366C11.1329 2.03855 11.1329 1.32077 11.1519 0.600331" fill="#0081C8"/>
        <path d="M83.2401 6.508C83.2401 4.55079 83.2401 2.60159 83.2401 0.644387C83.2401 0.328192 83.3419 0.244141 83.6473 0.244141C84.5104 0.244141 85.3776 0.244141 86.2408 0.244141C86.5625 0.244141 86.648 0.3402 86.648 0.644387C86.648 1.94919 86.648 3.24999 86.648 4.55079C86.648 4.85498 86.7294 4.95104 87.0551 4.95104C87.7371 4.96432 88.4188 4.91339 89.0909 4.79894C89.4503 4.71388 89.7805 4.5369 90.0479 4.28597C90.3153 4.03503 90.5105 3.71906 90.6136 3.37006C90.8799 2.6011 91.0641 1.80702 91.1633 1.00061C91.2651 0.264153 91.2569 0.264153 91.9776 0.264153C92.6982 0.264153 93.5492 0.264153 94.335 0.264153C94.6037 0.264153 94.6607 0.3402 94.6037 0.592355C94.4246 1.36083 94.3187 2.14531 94.107 2.90978C93.7284 4.27062 93.2927 5.60344 92.1527 6.57604C91.9817 6.72413 92.0509 6.8482 92.1201 6.97628C93.0701 8.67866 94.0201 10.3784 94.9702 12.0754C95.3366 12.7318 95.3447 12.7278 94.563 12.7278H91.7333C91.6503 12.7466 91.5632 12.7351 91.4882 12.6953C91.4133 12.6555 91.3557 12.5902 91.3261 12.5117C90.5851 11.0388 89.8197 9.57388 89.0705 8.10898C89.0389 8.01182 88.9733 7.92879 88.8854 7.87458C88.7974 7.82038 88.6928 7.79849 88.5901 7.8128C88.0323 7.84482 87.4663 7.84482 86.9085 7.83281C86.652 7.83281 86.5828 7.91686 86.5828 8.16101C86.5828 9.56187 86.5828 10.9627 86.5828 12.3636C86.5828 12.6518 86.5055 12.7638 86.2082 12.7398C85.3315 12.7212 84.4561 12.7212 83.5821 12.7398C83.293 12.7398 83.1953 12.6718 83.1953 12.3756C83.1953 10.4184 83.1953 8.4692 83.1953 6.516" fill="#F04E37"/>
        <path d="M71.6602 6.51181C71.6602 4.5586 71.6602 2.6054 71.6602 0.652199C71.6602 0.34401 71.7497 0.251953 72.0673 0.251953C74.874 0.251953 77.6792 0.251953 80.4832 0.251953C80.7763 0.251953 80.8903 0.307988 80.8903 0.632187C80.8618 1.27258 80.8577 1.91298 80.8903 2.54937C80.8903 2.88557 80.7682 2.9256 80.4832 2.9256C78.8098 2.9256 77.1364 2.9256 75.467 2.9256C75.1169 2.9256 75.0232 3.02166 75.0599 3.34986C75.0884 3.83416 75.0599 4.32246 75.0599 4.80676C75.0599 5.05491 75.1372 5.13096 75.3856 5.12695C76.8758 5.12695 78.37 5.12695 79.8643 5.12695C80.2714 5.12695 80.2918 5.12695 80.2918 5.55522C80.2918 6.15158 80.2918 6.75596 80.2918 7.34432C80.2918 7.6325 80.2144 7.74456 79.9132 7.72455C78.4352 7.72455 76.9491 7.72455 75.4711 7.72455C75.1169 7.72455 75.0314 7.83262 75.064 8.15682C75.0884 8.68514 75.064 9.21747 75.064 9.7578C75.064 10.026 75.1535 10.094 75.4141 10.09C77.173 10.09 78.936 10.09 80.7071 10.09C81.0084 10.09 81.0939 10.1741 81.0817 10.4622C81.0613 11.1226 81.0817 11.7871 81.0817 12.4635C81.0817 12.6996 81.0369 12.7917 80.7682 12.7917C77.8611 12.7917 74.954 12.7917 72.047 12.7917C71.7497 12.7917 71.6968 12.6836 71.6968 12.4274C71.6968 10.4742 71.6968 8.52104 71.6968 6.56784" fill="#0081C8"/>
        <path d="M47.1301 6.4876C47.1301 4.5464 47.1301 2.60521 47.1301 0.660012C47.1301 0.367832 47.1912 0.259766 47.5373 0.259766C50.3548 0.273107 53.1723 0.273107 55.9898 0.259766C56.2788 0.259766 56.3969 0.33181 56.3684 0.627992C56.344 1.27639 56.3481 1.92879 56.3684 2.58119C56.3684 2.86537 56.2829 2.93341 56.006 2.93341C54.3123 2.93341 52.6185 2.93341 50.9207 2.93341C50.6153 2.93341 50.5135 3.00946 50.5135 3.33366C50.5403 3.80825 50.5403 4.28394 50.5135 4.75853C50.5135 5.09074 50.6194 5.15878 50.9207 5.15878C52.3783 5.15878 53.8359 5.15878 55.2976 5.15878C55.7292 5.15878 55.7373 5.15878 55.7414 5.55903C55.7414 6.17541 55.7414 6.79579 55.7414 7.41217C55.7414 7.66432 55.6559 7.73237 55.4075 7.73237C53.8929 7.73237 52.3783 7.73237 50.8596 7.73237C50.5828 7.73237 50.485 7.80441 50.4932 8.08458C50.4932 8.61291 50.5176 9.14524 50.4932 9.68557C50.4932 9.99776 50.5624 10.0858 50.9003 10.0858C52.6307 10.0858 54.3571 10.0858 56.0875 10.0858C56.4417 10.0858 56.5231 10.1859 56.4946 10.5141C56.4661 11.1745 56.4946 11.8389 56.4946 12.5153C56.4946 12.7114 56.4458 12.7875 56.23 12.7875C53.2876 12.7875 50.3466 12.7875 47.407 12.7875C47.1179 12.7875 47.1138 12.6394 47.1179 12.4353C47.1179 10.4714 47.1179 8.50751 47.1179 6.54363" fill="#0081C8"/>
        <path d="M105.122 7.63618C104.674 9.40527 103.436 10.3699 101.511 10.0377C101.028 9.95771 100.578 9.74496 100.214 9.42406C99.8491 9.10316 99.5844 8.68725 99.4504 8.22454C99.2694 7.722 99.1771 7.19271 99.1776 6.65958C99.1776 5.27473 99.4911 4.17005 100.521 3.39357C101.926 2.33692 104.401 2.72116 105 4.81845C105.291 5.72566 105.331 6.69298 105.114 7.62017L105.122 7.63618ZM108.51 4.69437C108.282 3.55822 107.715 2.51454 106.881 1.69653C105.602 0.467771 104.031 0.00348488 102.276 -0.012525C101.21 -0.0452552 100.153 0.181615 99.198 0.647881C98.312 1.07098 97.5421 1.69661 96.9528 2.47237C96.3634 3.24814 95.9717 4.15144 95.8105 5.10663C95.6309 6.04027 95.6309 6.99872 95.8105 7.93236C95.9859 9.05491 96.4766 10.107 97.2274 10.9702C97.7643 11.5626 98.4153 12.0444 99.1428 12.3879C99.8703 12.7314 100.66 12.9297 101.466 12.9715C103.209 13.1815 104.966 12.7037 106.352 11.6426C107.587 10.6702 108.399 9.27206 108.624 7.73224C108.791 6.72946 108.757 5.70404 108.522 4.71438" fill="#F04E37"/>
        <path d="M17.7828 7.28411C16.9685 7.28411 16.1909 7.28411 15.3929 7.28411C15.1771 7.28411 15.1282 7.25609 15.2096 7.02795C15.6982 5.70314 16.1624 4.36631 16.6713 2.93343L17.5426 5.46699C17.7096 5.95129 17.8683 6.43959 18.0434 6.91989C18.1534 7.22808 18.1249 7.28011 17.7828 7.28011V7.28411ZM23.4301 12.4833C23.0229 11.4427 22.6157 10.398 22.233 9.35739C21.6671 7.90049 21.0889 6.4476 20.5189 4.9907C19.9489 3.5338 19.3463 2.00086 18.7763 0.475921C18.7597 0.407483 18.7172 0.347839 18.6575 0.309161C18.5977 0.270483 18.5251 0.255687 18.4546 0.267793H15.0916C14.9246 0.267793 14.7903 0.267793 14.717 0.471918C14.3098 1.45652 13.9027 2.43713 13.5281 3.42173C12.8319 5.17881 12.1438 6.9399 11.4435 8.69698C10.9386 9.96576 10.4093 11.2265 9.88815 12.4913C9.82301 12.6594 9.86372 12.7355 10.0592 12.7315H12.954C13.0137 12.7413 13.0749 12.7286 13.1255 12.6959C13.1761 12.6633 13.2123 12.6131 13.2268 12.5554C13.4955 11.7549 13.7805 10.9864 14.0411 10.2019C14.0609 10.0989 14.1211 10.0076 14.2087 9.94774C14.2962 9.88786 14.4042 9.86415 14.5093 9.88171C15.9018 9.88171 17.2902 9.88171 18.6867 9.88171C18.7918 9.86663 18.8987 9.8925 18.9847 9.95382C19.0706 10.0151 19.1288 10.107 19.1468 10.2099C19.3992 10.9904 19.6802 11.7629 19.9408 12.5433C19.9855 12.6714 20.0385 12.7275 20.1728 12.7275H23.2713C23.4504 12.7275 23.4748 12.6634 23.4138 12.5033" fill="#0081C8"/>
        <path d="M60.6657 2.91352C60.6657 7.78852 60.0183 10.0899 58.3816 10.0659C58.337 10.0615 58.292 10.0662 58.2494 10.0798C58.2068 10.0935 58.1676 10.1157 58.1343 10.1451C58.1009 10.1745 58.0742 10.2104 58.0558 10.2505C58.0374 10.2906 58.0277 10.3341 58.0273 10.3781V12.4954C58.0279 12.5434 58.0381 12.5908 58.0575 12.6349C58.077 12.6789 58.1051 12.7187 58.1404 12.7519C58.1757 12.7851 58.2173 12.811 58.263 12.8281C58.3086 12.8452 58.3572 12.8532 58.406 12.8516C61.4719 12.7316 63.6623 11.0305 63.813 3.47787C63.8151 3.38442 63.8541 3.29543 63.9217 3.2297C63.9893 3.16398 64.0803 3.12667 64.1753 3.12565H65.9587C66.0548 3.12565 66.1469 3.16318 66.2149 3.22999C66.2829 3.29679 66.321 3.3874 66.321 3.48187V12.3353C66.321 12.4302 66.3591 12.5212 66.4269 12.5886C66.4948 12.6561 66.5869 12.6945 66.6834 12.6955H69.2159C69.3124 12.6945 69.4045 12.6561 69.4724 12.5886C69.5402 12.5212 69.5783 12.4302 69.5783 12.3353V0.696159C69.5788 0.649044 69.5698 0.602292 69.5519 0.558611C69.5339 0.514929 69.5073 0.475186 69.4736 0.441683C69.4399 0.40818 69.3997 0.381582 69.3555 0.363431C69.3113 0.345279 69.2638 0.335935 69.2159 0.335938H61.423C61.3232 0.335936 61.2244 0.355324 61.1322 0.392986C61.0401 0.430649 60.9564 0.485844 60.8861 0.555397C60.8157 0.624951 60.76 0.707493 60.7222 0.798277C60.6843 0.889061 60.6652 0.986298 60.6657 1.0844V2.91352Z" fill="#0081C8"/>
    </g>
    <path d="M98.9378 24.127V19.4795H101.96V20.4545H100.075V21.176H100.868C101.319 21.176 101.683 21.3146 101.96 21.592C102.242 21.8693 102.383 22.2246 102.383 22.658C102.383 23.0913 102.242 23.4445 101.96 23.7175C101.683 23.9905 101.319 24.127 100.868 24.127H98.9378ZM100.075 23.152H100.654C100.836 23.152 100.977 23.1086 101.076 23.022C101.176 22.931 101.226 22.8096 101.226 22.658C101.226 22.5063 101.174 22.385 101.07 22.294C100.97 22.1986 100.825 22.151 100.634 22.151H100.075V23.152ZM103.279 24.127V19.4795H104.416V21.6505L104.364 22.4435H104.377C104.516 22.1185 104.646 21.8541 104.767 21.6505L106.054 19.4795H107.205V24.127H106.067V21.9625L106.119 21.1695H106.106C105.967 21.4945 105.837 21.7588 105.716 21.9625L104.423 24.127H103.279ZM108.016 23.4965L108.608 22.749C108.924 23.0566 109.254 23.2105 109.596 23.2105C110.003 23.2105 110.207 23.0371 110.207 22.6905C110.207 22.3871 110.025 22.2355 109.661 22.2355H109.102V21.332H109.557C109.722 21.332 109.852 21.2865 109.947 21.1955C110.047 21.1045 110.096 20.994 110.096 20.864C110.096 20.7166 110.047 20.5996 109.947 20.513C109.852 20.422 109.719 20.3765 109.55 20.3765C109.23 20.3765 108.909 20.5043 108.588 20.76L108.153 19.9475C108.591 19.5835 109.128 19.4015 109.765 19.4015C110.008 19.4015 110.237 19.447 110.454 19.538C110.675 19.6246 110.863 19.772 111.019 19.98C111.175 20.1836 111.253 20.4285 111.253 20.7145C111.253 21.1521 111.052 21.4901 110.649 21.7285V21.7415C110.874 21.8195 111.052 21.9495 111.182 22.1315C111.312 22.3091 111.377 22.5236 111.377 22.775C111.377 23.2126 111.217 23.5615 110.896 23.8215C110.575 24.0771 110.183 24.205 109.719 24.205C109.043 24.205 108.476 23.9688 108.016 23.4965ZM112.335 24.127V19.4795H113.472V21.3385H115.162V19.4795H116.3V24.127H115.162V22.307H113.472V24.127H112.335ZM117.501 24.127V19.4795H120.413V20.4545H118.638V21.2995H120.055V22.2745H118.638V23.152H120.504V24.127H117.501ZM121.15 21.7935C121.15 21.1088 121.378 20.539 121.833 20.084C122.292 19.629 122.877 19.4015 123.588 19.4015C123.913 19.4015 124.229 19.4578 124.537 19.5705C124.844 19.6788 125.109 19.8413 125.33 20.058L124.803 20.916C124.647 20.7773 124.463 20.6646 124.251 20.578C124.043 20.487 123.839 20.4415 123.64 20.4415C123.206 20.4415 122.879 20.5715 122.658 20.8315C122.437 21.0871 122.327 21.3991 122.327 21.7675C122.327 22.1445 122.439 22.4716 122.665 22.749C122.894 23.0263 123.219 23.165 123.64 23.165C124.082 23.165 124.493 22.9743 124.875 22.593L125.46 23.425C124.957 23.945 124.333 24.205 123.588 24.205C122.851 24.205 122.259 23.9796 121.813 23.529C121.371 23.074 121.15 22.4955 121.15 21.7935Z" fill="#0081C8"/>
    <defs>
        <clipPath id="clip0">
            <rect width="125" height="13" fill="white"/>
        </clipPath>
    </defs>
</svg>
