<svg id="Layer_1" data-name="Layer 1" xmlns="http://www.w3.org/2000/svg" viewBox="0 0 536 39.89"><defs><style>.cls-1{fill:#fff;fill-rule:evenodd;}</style></defs><path class="cls-1" d="M-78.2-159.22c-3.29,0-6.51,0-9.8-.08-.65,0-1,.08-1.21.65-2.81,4.9-6,10.12-8.76,15h0c-.08.08-.08.16-.24.16s-.16-.08-.24-.16h0c-2.73-4.91-6-10.13-8.68-15-.32-.57-.64-.65-1.29-.65-3.21.08-6.51.08-9.72.08-.72,0-1,.25-1,1v36.33c0,.8.24,1,1,1,2.65-.08,5.14-.08,7.71,0,1,0,1.21-.32,1.21-1.21v-22.1c0-.4-.08-1,.16-1.12s.24.16.32.24c2.25,4.1,4.58,8.2,6.83,12.3.16.4.33.56.73.56h5.94c.41,0,.57-.16.81-.56l6.75-12.3c.08-.08.16-.32.4-.24s.16.72.16,1.12c0,7.32,0,14.71-.08,22.1,0,.89.24,1.21,1.21,1.21q3.85-.12,7.71,0c.73,0,1-.24,1-1v-36.33c0-.72-.24-1-.89-1Z" transform="translate(454 159.95)"/><path class="cls-1" d="M-353.06-158.09c0-.88-.32-1-1.12-1h-31.27c-.88,0-1.12.17-1.12,1,.08,2.17.08,4.42,0,6.59,0,.88.32,1.13,1.12,1,3.06,0,6.19.09,9.25,0,1,0,1.2.33,1.2,1.21-.08,9.08,0,18.08-.08,27.16,0,1,.24,1.21,1.29,1.21,1.28,0,2.65-.08,3.94-.08s2.65.08,4,.08c1,0,1.29-.24,1.21-1.21v-27.16c0-.88.24-1.21,1.21-1.21,3.05.09,6.1,0,9.24,0,.8.09,1.12-.16,1.12-1-.08-2.17-.08-4.42,0-6.59Z" transform="translate(454 159.95)"/><path class="cls-1" d="M-317.37-158.09c0-.88-.24-1-1.05-1h-31.34c-.81,0-1.13.17-1.05,1v6.59c-.08.88.24,1.13,1.05,1,3.13,0,6.19.09,9.24,0,1,0,1.21.33,1.21,1.21v27.16c0,1,.24,1.21,1.2,1.21,1.37,0,2.65-.08,4-.08s2.65.08,4,.08c1,0,1.2-.24,1.2-1.21,0-9.08,0-18.08-.08-27.16.08-.88.24-1.21,1.21-1.21,3.13.09,6.19,0,9.24,0,.8.09,1.13-.16,1.13-1-.08-2.17-.08-4.42,0-6.59Z" transform="translate(454 159.95)"/><path class="cls-1" d="M-420.49-158.09c0-.88-.32-1-1.12-1h-31.26c-.81,0-1.13.17-1.13,1,.08,2.17.08,4.42,0,6.59,0,.88.32,1.13,1.13,1,3.05,0,6.18.09,9.24,0,1,0,1.2.33,1.2,1.21-.08,9.08,0,18.08-.08,27.16,0,1,.32,1.21,1.29,1.21,1.28,0,2.65-.08,3.94-.08s2.73.08,4,.08c1,0,1.28-.24,1.28-1.21-.08-9.08-.08-18.08-.08-27.16,0-.88.24-1.21,1.21-1.21,3.05.09,6.1,0,9.24,0,.8.09,1.12-.16,1.12-1-.08-2.17-.08-4.42,0-6.59Z" transform="translate(454 159.95)"/><path class="cls-1" d="M-203.17-140c0-5.94.08-12,0-17.92,0-1,.32-1.21,1.21-1.21,2.65.09,5.22.09,7.79,0,1,0,1.21.33,1.21,1.21v12c0,1,.24,1.28,1.2,1.2a31.38,31.38,0,0,0,6.11-.4,6.23,6.23,0,0,0,4.58-4.42,31.18,31.18,0,0,0,1.69-7.23c.32-2.25.24-2.25,2.49-2.25,2.41,0,4.74,0,7.15-.09.81,0,1,.25.81,1-.57,2.33-.89,4.74-1.53,7.07-1.13,4.18-2.49,8.28-5.87,11.25-.56.49-.32.81-.08,1.21,2.82,5.22,5.71,10.45,8.6,15.67,1.13,2,1.13,2-1.2,2h-8.52a1,1,0,0,1-1.13-.72c-2.25-4.5-4.58-9-6.83-13.5a1.26,1.26,0,0,0-1.45-.89c-1.68.08-3.37.08-5.06.08-.8,0-1,.24-1,1V-122c0,.88-.24,1.12-1.13,1.12-2.65-.08-5.3-.08-7.87,0-.89,0-1.21-.24-1.21-1.12.08-6,0-12,0-18Z" transform="translate(454 159.95)"/><path class="cls-1" d="M-238-139.93v-18c-.08-1,.24-1.21,1.21-1.21h25.31c.89,0,1.29.17,1.21,1.21-.08,1.93-.08,3.86,0,5.87.08,1-.32,1.12-1.21,1.12h-15.11c-1,0-1.36.24-1.28,1.29a42.21,42.21,0,0,1,0,4.5c0,.72.24,1,1,1,4.5-.08,9,0,13.5,0,1.29,0,1.29,0,1.29,1.29.08,1.85,0,3.62.08,5.46,0,.89-.24,1.21-1.13,1.21-4.5-.08-9,0-13.42-.08-1,0-1.36.32-1.28,1.37.08,1.6.08,3.21,0,4.82,0,.8.32,1,1,1,5.31,0,10.61,0,15.91-.08,1,0,1.21.32,1.21,1.21-.08,2-.08,4-.08,6,.08.72-.08,1-.88,1H-237c-.88,0-1-.32-1-1.12v-17.93Z" transform="translate(454 159.95)"/><path class="cls-1" d="M-312-140c0-5.94.08-12,0-17.92,0-.88.16-1.21,1.21-1.21,8.44.09,16.95,0,25.47,0,.81,0,1.13.25,1.13,1.13q-.12,3,0,6c0,.8-.32,1-1.13,1h-15.35c-.88,0-1.2.24-1.12,1.21a39.27,39.27,0,0,1,0,4.34c-.08,1,.32,1.2,1.2,1.2,4.42-.08,8.84,0,13.18,0,1.37,0,1.37,0,1.37,1.29v5.63c0,.8-.24,1-1,1-4.59-.08-9.17,0-13.75-.08-.8,0-1.12.24-1,1.12v4.83c-.08,1,.16,1.28,1.2,1.28,5.23-.08,10.37,0,15.59-.08,1.13,0,1.37.32,1.29,1.37-.08,2,0,4,0,6,0,.64-.16.88-.8.88h-26.61c-.88,0-.88-.48-.88-1.12v-18Z" transform="translate(454 159.95)"/><path class="cls-1" d="M-137.19-136.55c-1.36,5.46-5.06,8.44-10.85,7.39-3.13-.48-5.14-2.49-6.27-5.54a15.91,15.91,0,0,1-.8-4.74c-.08-4.26,1-7.64,4-10.05,4.26-3.22,11.73-2.09,13.58,4.34a16.46,16.46,0,0,1,.32,8.6Zm10.21-8.92a17.29,17.29,0,0,0-4.9-9.24c-3.78-3.7-8.6-5.15-13.83-5.23a19.68,19.68,0,0,0-9.32,2,19,19,0,0,0-10.21,13.66,24.34,24.34,0,0,0,0,8.68,18.2,18.2,0,0,0,4.26,9.33c3.38,3.85,7.8,5.62,12.78,6.1a20.14,20.14,0,0,0,14.71-4.1,18.57,18.57,0,0,0,6.83-12,22.47,22.47,0,0,0-.32-9.24Z" transform="translate(454 159.95)"/><path class="cls-1" d="M-400.39-137.6h-7.24c-.64,0-.8-.08-.56-.8,1.53-4,2.89-8.12,4.42-12.54,1,2.82,1.77,5.31,2.65,7.8.48,1.44,1,3,1.53,4.42.32,1,.24,1.12-.8,1.12Zm17,16c-1.2-3.22-2.41-6.35-3.61-9.57-1.77-4.5-3.46-8.92-5.15-13.42s-3.53-9.24-5.3-13.9c-.16-.56-.48-.65-1-.65h-10.12a1,1,0,0,0-1.13.65c-1.2,3.05-2.41,6-3.61,9.08-2.09,5.38-4.1,10.77-6.27,16.15-1.53,3.86-3.14,7.72-4.66,11.66-.16.48-.08.72.48.72h8.76a.7.7,0,0,0,.8-.56c.81-2.41,1.69-4.82,2.49-7.24a1.36,1.36,0,0,1,1.45-1c4.18.08,8.36,0,12.54,0a1.26,1.26,0,0,1,1.44,1c.73,2.34,1.61,4.75,2.34,7.16.16.4.32.56.72.56h9.32c.56,0,.64-.24.48-.72Z" transform="translate(454 159.95)"/><path class="cls-1" d="M-271.16-151c0,15-1.93,22-6.91,21.94a1,1,0,0,0-1.05,1v6.51a1,1,0,0,0,1.13,1c9.24-.32,15.83-5.54,16.31-28.69a1.1,1.1,0,0,1,1.13-1.12h5.38a1.1,1.1,0,0,1,1.13,1.12v27.16a1.06,1.06,0,0,0,1,1h7.64a1.06,1.06,0,0,0,1-1v-35.68a1.08,1.08,0,0,0-1-1.12h-23.55a2.29,2.29,0,0,0-2.25,2.25Z" transform="translate(454 159.95)"/><path class="cls-1" d="M-38.57-125c2.8,0,4.44-1.63,4.44-4.2s-1.75-4.2-4.56-4.2h-4.78v8.4Zm-10-23.81h17.39v4.44H-43.47v6.53h5.72c5.13,0,8.75,3.27,8.75,8.64a8.21,8.21,0,0,1-8.63,8.64h-11Z" transform="translate(454 159.95)"/><path class="cls-1" d="M-25-140.83h4.9V-130c0,.94-.11,2.11-.11,2.46h0c.23-.47,1-1.64,1.51-2.46l7.59-10.85h4.9v20.31h-4.9v-10.86c0-.7.12-1.86.12-2.45h0c-.24.59-1.05,1.64-1.52,2.45l-7.59,10.86H-25Z" transform="translate(454 159.95)"/><path class="cls-1" d="M-.52-126.24a7.55,7.55,0,0,0,5,2.33c2.22,0,3.5-1,3.5-2.8,0-1.51-.93-2.45-3.27-2.45H2.17v-3.5h2.1c1.75,0,3.15-.7,3.15-2.33s-.94-2.46-3-2.46a9,9,0,0,0-4.9,1.64l-1.63-3.27a12.87,12.87,0,0,1,7.47-2.22c4,0,7.12,2,7.12,5.61a4.7,4.7,0,0,1-2.8,4.55v.11a4.74,4.74,0,0,1,3.5,4.67c0,4.2-3.62,6.31-8.06,6.31a11.81,11.81,0,0,1-7.82-3Z" transform="translate(454 159.95)"/><polygon class="cls-1" points="471.34 19.11 476.36 19.11 476.36 26.93 485 26.93 485 19.11 490.13 19.11 490.13 39.42 485 39.42 485 31.25 476.36 31.25 476.36 39.42 471.34 39.42 471.34 19.11"/><path class="cls-1" d="M54.57-133.13a4,4,0,0,0-4.08-4.32,4.83,4.83,0,0,0-4.91,4.32Zm-4-8.17c5.84,0,9,4.32,9,9.69,0,.58-.12,1.28-.12,1.87h-14a5.71,5.71,0,0,0,6.07,5.37,9.77,9.77,0,0,0,5.83-2.22l2,3.62A12.72,12.72,0,0,1,51.19-120a10.53,10.53,0,0,1-11-10.63c.11-6.18,4.31-10.62,10.38-10.62Z" transform="translate(454 159.95)"/><path class="cls-1" d="M73.6-141.3a10.85,10.85,0,0,1,7.82,3l-2.34,3.5A7.3,7.3,0,0,0,73.83-137c-3.74,0-6.07,2.8-6.07,6.3a6.06,6.06,0,0,0,6.3,6.31,8.94,8.94,0,0,0,6-2.57l2,3.62A12.14,12.14,0,0,1,73.6-120c-6.77,0-11-4.67-11-10.63,0-5.71,4.2-10.62,11-10.62Z" transform="translate(454 159.95)"/></svg>