<svg width="161" height="489" fill="none" xmlns="http://www.w3.org/2000/svg"><path d="M50.588 2.129S35.64 26.82 51.422 128.63C62.05 197.221 73.15 205.206 69.62 264.764 63.738 363.936 1 483.358 1 483.358" stroke="#F5F5F5" stroke-width="1.22" stroke-miterlimit="10"/><path d="M56.067 2.97s-15.576 29.294-.754 122.832a496.05 496.05 0 0 0 12.005 55.451c6.467 23.813 10.678 41.69 10.69 75.607.032 93.896-46.74 202.332-48.054 213.453" stroke="#F5F5F5" stroke-width="1.22" stroke-miterlimit="10"/><path d="M61.551 3.815s-16.21 33.882-2.348 119.161a369.778 369.778 0 0 0 12.688 53.536c7.32 23.243 12.376 41.945 14.502 72.44 6.19 88.686-24.864 186.064-27.492 208.305" stroke="#F5F5F5" stroke-width="1.22" stroke-miterlimit="10"/><path d="M67.03 4.651S50.185 43.16 63.102 120.118a293.968 293.968 0 0 0 13.37 51.62c8.142 22.685 14.207 42.206 18.322 69.274 12.687 83.512-2.982 169.789-6.944 203.163" stroke="#F5F5F5" stroke-width="1.22" stroke-miterlimit="10"/><path d="M72.496 5.494s-17.46 43.143-5.51 111.778a243.965 243.965 0 0 0 14.022 49.711c8.899 22.136 16.192 42.445 22.135 66.113 19.658 78.259 18.88 153.539 13.636 198.016" stroke="#F5F5F5" stroke-width="1.22" stroke-miterlimit="10"/><path d="M77.994 6.338s-28.451 74.983 7.632 155.899c44.037 98.824 68.532 184.656 60.126 255.813" stroke="#F5F5F5" stroke-width="1.22" stroke-miterlimit="10"/></svg>