<svg width="2041" height="789" viewBox="0 0 2041 789" fill="none" xmlns="http://www.w3.org/2000/svg"><path d="M40.0166 330.125C40.0166 330.125 195.713 740.326 667.895 560.385C985.989 439.138 1020.89 228.41 1304.59 109.702C1685.62 -49.7025 2018.57 357.944 2018.57 357.944M37.815 359.254C37.815 359.254 226.785 731.892 667.034 522.534C970.136 378.408 1049.5 201.647 1329.14 120.096C1699.49 12.0875 2005.29 391.405 2005.29 391.405M35.5826 388.388C35.5826 388.388 257.666 722.543 666.142 484.688C954.04 317.053 1077.71 174.438 1353.84 130.626C1713.05 73.7006 1992.11 425.104 1992.11 425.104M33.3767 417.487C33.3767 417.487 288.165 712.246 665.312 446.833C937.796 255.093 1105.58 146.43 1378.29 141.161C1726.04 134.298 1978.78 458.824 1978.78 458.824M31.1357 446.559C31.1357 446.559 317.978 701.074 664.565 408.903C921.147 192.468 1133.86 117.928 1403 151.564C1739.22 193.835 1965.35 492.526 1965.35 492.526M28.9426 475.75C28.9426 475.75 347.069 689.657 663.594 371.162C903.617 129.59 1162.15 88.4197 1427.42 162.133C1752.78 252.503 1952.04 526.18 1952.04 526.18" stroke="white" stroke-opacity="0.5" stroke-width="1.34" stroke-miterlimit="10"/></svg>
