<svg width="194" height="649" fill="none" xmlns="http://www.w3.org/2000/svg"><path d="M20.635 631.993S159.65 606.097 129.642 445.93C109.419 338.008 44.587 314.88 23.198 218.031-5.522 87.97 142.84 5.674 142.84 5.674" stroke="#F5F5F5" stroke-width="1.34" stroke-miterlimit="10"/><path d="M29.747 634.362s129.008-38.609 87.841-190.329c-28.34-104.455-79.85-139.777-89.687-233.198C14.87 87.11 152.692 11.805 152.692 11.805" stroke="#F5F5F5" stroke-width="1.34" stroke-miterlimit="10"/><path d="M38.858 636.741s118.693-51.335 66.677-194.604c-36.666-100.968-74.809-148.391-72.87-238.536 2.53-117.224 129.978-185.64 129.978-185.64" stroke="#F5F5F5" stroke-width="1.34" stroke-miterlimit="10"/><path d="M47.96 639.109s108.082-63.962 45.531-198.868c-45.204-97.469-70-156.945-56.093-243.795C55.15 85.69 172.554 24.086 172.554 24.086" stroke="#F5F5F5" stroke-width="1.34" stroke-miterlimit="10"/><path d="M57.072 641.487s97.155-76.441 24.357-203.184C27.501 344.507 16.01 272.726 42.131 189.25 74.777 84.919 182.473 30.28 182.473 30.28" stroke="#F5F5F5" stroke-width="1.34" stroke-miterlimit="10"/><path d="M66.184 643.856s86.07-88.698 3.2-207.409C6.528 346.424 8.316 262.018 46.845 182.054 94.17 83.979 192.384 36.434 192.384 36.434" stroke="#fff" stroke-width="1.34" stroke-miterlimit="10"/></svg>