<svg width="145" height="484" fill="none" xmlns="http://www.w3.org/2000/svg"><path d="M111.066 483.637s14.1-25.186-5.135-126.4c-12.955-68.19-24.32-75.792-22.818-135.436C85.62 122.486 144.261 1 144.261 1" stroke="#F5F5F5" stroke-width="1.22" stroke-miterlimit="10"/><path d="M105.561 482.98s14.572-29.805-3.423-122.786a495.968 495.968 0 0 0-13.884-55.01c-7.273-23.58-12.09-41.303-13.254-75.2-3.226-93.841 39.832-203.805 40.768-214.964" stroke="#F5F5F5" stroke-width="1.22" stroke-miterlimit="10"/><path d="M100.051 482.324s15.049-34.413-1.705-119.172a369.812 369.812 0 0 0-14.501-53.074c-8.106-22.98-13.795-41.5-16.957-71.905C57.687 149.75 85.41 51.371 87.28 29.053" stroke="#F5F5F5" stroke-width="1.22" stroke-miterlimit="10"/><path d="M94.547 481.676s15.526-39.06 0-115.534a294.005 294.005 0 0 0-15.118-51.136c-8.908-22.394-15.634-41.698-20.667-68.61-15.519-83.032-2.793-169.793.032-203.282" stroke="#F5F5F5" stroke-width="1.22" stroke-miterlimit="10"/><path d="M89.056 481.018s15.984-43.712 1.706-111.902a243.975 243.975 0 0 0-15.704-49.205c-9.647-21.82-17.626-41.869-24.37-65.322-22.309-77.545-24.09-152.808-20.362-197.438" stroke="#F5F5F5" stroke-width="1.22" stroke-miterlimit="10"/><path d="M83.533 480.361s25.885-75.907-12.93-155.549c-47.372-97.269-74.77-182.219-68.79-253.62" stroke="#F5F5F5" stroke-width="1.22" stroke-miterlimit="10"/></svg>