<svg width="578" height="512" fill="none" xmlns="http://www.w3.org/2000/svg"><path d="m288.208 398.777 19.909 89.319-8.413-.019-19.966-88.463 8.47-.837ZM251.876 398.777l-19.984 89.319h-7.999l19.335-89.319h8.648ZM280.649 331.68l-11.336 61.504h-12.887l12.107-61.504h12.116ZM478.153 398.777l16.243 89.319h-8.272l-16.967-89.319h8.996ZM443.993 398.777l-18.574 88.84h-8.169l17.935-88.84h8.808ZM491.595 331.68l-11.346 61.504h-12.887l12.116-61.504h12.117Z" fill="#E0E0E0"/><path d="m517.106 326.096-2.321 11.176H256.04l3.018-11.176h258.048ZM512.162 347.811l-2.735 11.176H252.431l2.34-11.176h257.391ZM507.058 370.285l-2.548 11.186H248.313l2.416-11.186h256.329ZM211.202 393.184h276.266v11.186H211.202v-11.186Z" fill="#EBEBEB"/><path d="M285.096 111.738c-.677-3.412 4.005-6.514 7.633-7.021 1.73-.235 3.544-.076 5.161-.752 3.487-1.448 4.643-6.13 8.037-7.802 2.538-1.25 5.593-.442 8.187.677 2.594 1.118 5.17 2.575 7.999 2.594 2.463 0 5.067-1.053 7.276 0 1.654.799 2.594 2.594 4.127 3.591a9.323 9.323 0 0 0 5.188 1.09 14.34 14.34 0 0 1 5.311.555c1.674.648 3.121 2.293 2.886 4.07l-61.805 2.998ZM447.21 222.075c-.479-3.44 4.381-6.27 8.028-6.58 1.739-.141 3.544.122 5.189-.451 3.572-1.241 5-5.856 8.46-7.323 2.613-1.099 5.64-.122 8.131 1.147 2.491 1.269 5.019 2.877 7.839 3.055 2.454.16 5.123-.752 7.266.442 1.598.94 2.435 2.735 3.911 3.826a9.407 9.407 0 0 0 5.113 1.391 14.378 14.378 0 0 1 5.274.855c1.635.752 2.98 2.473 2.641 4.23l-61.852-.592Z" fill="#F5F5F5"/><path d="M352.797 162.913c-.687-5.029 6.411-9.165 11.74-9.597 2.548-.207 5.189.178 7.596-.658 5.226-1.824 7.313-8.564 12.408-10.716 3.76-1.608 8.187-.17 11.881 1.682 3.694 1.852 7.342 4.202 11.468 4.465 3.582.226 7.52-1.1 10.622.649 2.341 1.306 3.563 4.004 5.725 5.64 2.162 1.635 4.86 1.88 7.473 2.03 2.613.151 5.33.169 7.708 1.26 2.378 1.09 4.361 3.609 3.863 6.185l-90.484-.94Z" fill="#EBEBEB"/><path d="M412.879 441.5a8.677 8.677 0 0 0-4.794 4.869 15.453 15.453 0 0 0-.94 6.89c.273 4.522 2.576 9.203 5.133 12.944 3.966-3.102 5.151-8.817 5.564-11.75.658-4.643-.94-13.442-4.925-12.953M407.446 473.347a7.467 7.467 0 0 0-2.021-7.201 9.873 9.873 0 0 0-7.163-2.66 4.15 4.15 0 0 0-3.271 1.26 3.2 3.2 0 0 0-.226 3.215 6.39 6.39 0 0 0 2.266 2.481c3.168 2.237 6.646 3.817 10.415 2.905Z" fill="#FF725E"/><path d="M411.554 487.391a5.588 5.588 0 0 0-.085-.94c-.084-.658-.197-1.504-.329-2.519a25.927 25.927 0 0 0-2.143-8.113 15.902 15.902 0 0 0-5.396-6.392 10.768 10.768 0 0 0-2.274-1.156 4.912 4.912 0 0 0-.668-.207c-.15 0-.235-.065-.235 0a14.822 14.822 0 0 1 8.282 7.943 28.13 28.13 0 0 1 2.209 8.009c.169 1.053.31 1.88.423 2.501.04.298.112.591.216.874Z" fill="#263238"/><path d="M413.519 448.268a2.191 2.191 0 0 0-.066.394c0 .301-.075.687-.132 1.157a236.568 236.568 0 0 0-.395 4.258 357.342 357.342 0 0 0-.94 14.1 424.627 424.627 0 0 0-.451 14.1v5.442c-.012.135-.012.27 0 .405.016-.135.016-.27 0-.405v-1.165c0-1.053.075-2.501.122-4.268.113-3.609.282-8.591.555-14.1.273-5.508.592-10.462.846-14.1.122-1.767.226-3.215.301-4.267 0-.47.047-.856.066-1.157.055-.124.087-.258.094-.394Z" fill="#263238"/><path d="M413.847 476.44a17.41 17.41 0 0 1 10.181-12.22c1.297-.535 2.97-.836 3.957.16.987.997.667 2.67.085 3.958a14.879 14.879 0 0 1-14.157 8.46" fill="#FF725E"/><path d="M423.182 468.439c-.282.08-.555.183-.818.311a9.277 9.277 0 0 0-.94.432c-.348.197-.771.385-1.194.667-.476.286-.934.6-1.372.94-.515.372-1.008.774-1.476 1.204a18.683 18.683 0 0 0-2.82 3.29 18.975 18.975 0 0 0-1.984 3.882c-.218.599-.4 1.211-.545 1.833a13.205 13.205 0 0 0-.31 1.626c-.074.448-.121.9-.141 1.354a7.756 7.756 0 0 0 0 1.034 4.906 4.906 0 0 0 0 .874c.075 0 0-1.25.338-3.224.087-.539.203-1.072.348-1.598.156-.605.345-1.201.564-1.786a19.937 19.937 0 0 1 1.965-3.817 20.584 20.584 0 0 1 2.82-3.243c.498-.442.94-.865 1.438-1.212.428-.337.874-.651 1.335-.94 1.654-1.1 2.82-1.561 2.792-1.627ZM79.988 70.643h136.601c10.855 0 19.655 8.8 19.655 19.655v377.833c0 10.855-8.8 19.655-19.655 19.655H79.988c-10.855 0-19.655-8.8-19.655-19.655V90.298c0-10.855 8.8-19.655 19.655-19.655Z" fill="#263238"/><path d="M95.761 70.813h133.518c11.706 0 21.197 9.49 21.197 21.197v374.749c0 11.707-9.491 21.197-21.197 21.197H95.761c-11.707 0-21.197-9.49-21.197-21.197V92.009c0-11.706 9.49-21.197 21.197-21.197Z" fill="#455A64"/><path d="M101.081 77.468h23.895c3.205 0 5.8 3.205 5.8 7.172v5.113c0 3.967 2.594 7.182 5.8 7.172l46.624-.065c3.205 0 5.799-3.225 5.799-7.191v-5.142c0-3.967 2.595-7.191 5.8-7.191h29.328c10.387 0 18.8 9.954 18.8 22.26l-.169 357.359c0 12.295-8.46 22.278-18.8 22.297l-123.018.178c-10.387 0-18.8-9.954-18.8-22.259l.17-357.36c-.029-12.342 8.384-22.325 18.771-22.344Z" fill="#FAFAFA"/><path d="m136.745 369.243-23.265 8.592v-3.967l23.265-8.47v3.845Z" fill="#F5F5F5"/><path d="m112.897 365.398 23.848 9.269v4.145l-23.848-9.945v-3.469Z" fill="#EBEBEB"/><path d="m113.048 369.243-23.265 8.592v-3.967l23.265-8.47v3.845Z" fill="#F5F5F5"/><path d="m89.2 365.398 23.848 9.269v4.145L89.2 368.867v-3.469Z" fill="#EBEBEB"/><path d="m162.623 369.243-23.265 8.592v-3.967l23.265-8.47v3.845Z" fill="#F5F5F5"/><path d="m138.785 365.398 23.838 9.269v4.145l-23.838-9.945v-3.469ZM147.198 323.907l-5.283 33.389h-50.29v-32.543H82.75v-3.591l80.502-4.014v4.23l-16.055 2.529Z" fill="#EBEBEB"/><path d="m219.493 382.064-47.667-18.217H86.577v-6.552h86.001l62.049 24.769h-15.134Z" fill="#E0E0E0"/><path d="M160.301 363.848h3.666v17.305h-3.666v-17.305ZM135.73 363.848h3.666v17.305h-3.666v-17.305ZM111.168 363.848h3.665v17.305h-3.665v-17.305ZM87.132 363.848h3.666v17.305h-3.666v-17.305Z" fill="#E0E0E0"/><path d="M126.903 326.455h14.335v17.108h-14.335v-17.108ZM109.889 326.67h14.335v17.108h-14.335V326.67Z" fill="#F5F5F5"/><path d="M114.834 290.781h2.228v28.661l-2.228.63v-29.291Z" fill="#E0E0E0"/><path d="M114.833 290.781s-6.044-.723-9.268 3.76c-4.277 5.951-12.718 3.817-12.718 3.817v10.96s8.037 2.745 14.1 0c3.863-1.739 4.474-6.091 7.896-4.784l-.01-13.753Z" fill="#EBEBEB"/><path d="M164.616 343.562h1.382v15.285h-1.382v-15.285ZM187.81 345.62l1.285.497-5.502 14.215-1.285-.498 5.502-14.214ZM205.313 352.354l1.285.498-5.834 15.071-1.285-.498 5.834-15.071ZM222.437 362.287l1.292.492-6.013 15.786-1.291-.492 6.012-15.786ZM150.3 343.562h1.382v15.285H150.3v-15.285ZM135.993 343.562h1.382v15.285h-1.382v-15.285ZM121.686 343.562h1.382v15.285h-1.382v-15.285ZM107.379 343.562h1.382v15.285h-1.382v-15.285Z" fill="#E0E0E0"/><path d="m240.568 369.686-63.553-24.891h-71.064v-2.068h71.064l64.559 25.304-1.006 1.655Z" fill="#E0E0E0"/><path d="M94.652 326.67h11.299v30.616h-11.3V326.67Z" fill="#F5F5F5"/><path d="M87.32 384.057c0 .132 20.745.244 46.332.244s46.333-.112 46.333-.244-20.746-.245-46.333-.245-46.332.104-46.332.245Z" fill="#E0E0E0"/><path d="M82.545 405.442c-.01.156-.01.313 0 .47-.005.192.027.383.094.564 0 .112.065.225.103.357l.188.376a3.967 3.967 0 0 0 1.598 1.551 7.236 7.236 0 0 0 2.923.808 9.062 9.062 0 0 0 3.76-.526 17.098 17.098 0 0 0 3.864-2.35 35.578 35.578 0 0 1 4.267-2.877 9.403 9.403 0 0 1 2.604-.94c.47-.094.95-.131 1.429-.112h.733l.733.131a14.55 14.55 0 0 1 5.64 2.754c1.796 1.288 3.563 2.82 5.64 4.052a13.206 13.206 0 0 0 3.384 1.476 8.232 8.232 0 0 0 3.826.047c2.585-.63 4.634-2.473 6.721-4.118a21.263 21.263 0 0 1 3.328-2.265c.302-.162.616-.3.94-.414.302-.134.617-.238.94-.31.169 0 .329-.094.498-.122l.498-.047c.339 0 .677-.085 1.025-.085 1.388.055 2.754.374 4.023.94a25.957 25.957 0 0 1 3.76 2.144c2.425 1.616 4.775 3.506 7.567 4.794 1.419.649 2.961.985 4.521.987l1.185-.123c.39-.067.776-.158 1.156-.272.367-.141.733-.282 1.1-.442.366-.16.714-.348 1.043-.564 2.717-1.617 4.813-3.957 7.454-5.32a7.254 7.254 0 0 1 4.202-.828 10.44 10.44 0 0 1 3.986 1.608c1.241.752 2.425 1.598 3.694 2.312a9.88 9.88 0 0 0 4.108 1.382 10.888 10.888 0 0 0 4.202-.63 26.91 26.91 0 0 0 3.76-1.711 42.209 42.209 0 0 1 7.021-3.393 10.499 10.499 0 0 1 3.638-.47 10.17 10.17 0 0 1 3.431.94 39.977 39.977 0 0 1 5.791 3.704 16.796 16.796 0 0 0 5.705 2.914l.752.159.771.057c.25.023.502.023.752 0 .249-.005.497-.024.743-.057a10.541 10.541 0 0 0 2.754-.761 27.924 27.924 0 0 0 4.493-2.604 30.472 30.472 0 0 1 3.826-2.331 12.641 12.641 0 0 1 3.581-1.072 6.828 6.828 0 0 1 4.973.94c.479.367.906.797 1.269 1.279 0 0-.075-.132-.254-.386a2.065 2.065 0 0 0-.366-.441 3.352 3.352 0 0 0-.593-.536 6.859 6.859 0 0 0-5.057-1.034c-1.262.158-2.492.51-3.647 1.043a30.448 30.448 0 0 0-3.882 2.322 28.189 28.189 0 0 1-4.465 2.538c-.855.364-1.757.607-2.679.724a5.945 5.945 0 0 1-.705.056 3.65 3.65 0 0 1-.724 0l-.733-.056-.724-.16a16.45 16.45 0 0 1-5.574-2.876 39.124 39.124 0 0 0-5.838-3.76 10.452 10.452 0 0 0-3.572-.94c-1.271-.059-2.542.1-3.76.47a43.127 43.127 0 0 0-7.106 3.412 27.084 27.084 0 0 1-3.675 1.673 10.4 10.4 0 0 1-4.014.592 9.404 9.404 0 0 1-3.92-1.278c-1.241-.696-2.416-1.542-3.675-2.313a10.994 10.994 0 0 0-4.174-1.673 7.823 7.823 0 0 0-4.484.865c-2.754 1.438-4.86 3.76-7.52 5.339-.319.207-.667.357-.996.545-.329.188-.696.282-1.053.414a8.515 8.515 0 0 1-1.081.263l-1.109.113a10.265 10.265 0 0 1-4.315-.94c-2.716-1.241-5.057-3.111-7.52-4.7a25.582 25.582 0 0 0-3.807-2.181 11.339 11.339 0 0 0-4.211-1.006c-.362.013-.723.044-1.081.094l-.536.047-.517.132c-.347.08-.687.19-1.015.329a7.451 7.451 0 0 0-.94.442 20.661 20.661 0 0 0-3.403 2.312c-2.087 1.664-4.098 3.459-6.58 4.061a7.885 7.885 0 0 1-3.628 0 12.548 12.548 0 0 1-3.271-1.419c-2.031-1.222-3.76-2.726-5.64-4.005a14.59 14.59 0 0 0-5.763-2.82l-.761-.131h-.771a6.517 6.517 0 0 0-1.494.131 9.426 9.426 0 0 0-2.68.987 34.536 34.536 0 0 0-4.286 2.933 17.221 17.221 0 0 1-3.76 2.35 9.026 9.026 0 0 1-3.675.555c-2.256-.123-3.901-1.157-4.437-2.219l-.207-.366-.103-.339a1.799 1.799 0 0 1-.122-.554 23.429 23.429 0 0 0-.094-.611Z" fill="#263238"/><path d="M118.988 203.99s-24.505 115.225-1.776 206.105a7.672 7.672 0 0 0 9.334.141l6.834-5.067a8.244 8.244 0 0 1 8.356-.282l3.065 1.664s-21.94-90.87-19.609-147.411l2.341-56.503-8.545 1.353Z" fill="#263238"/><path d="M188.548 218.955c-4.7-12.671-15.81-23.171-29.093-25.7-13.282-2.528-28.2 3.873-34.263 15.98l1.316.348a67.299 67.299 0 0 0 33.84 10.566c-.77-1.73-1.551-3.469-2.331-5.198a55.083 55.083 0 0 0 30.531 4.004ZM82.14 184.881c8.912-1.485 18.443 0 26.048 4.823 7.605 4.822 13.038 13.329 13.404 22.353l-2.557-2.98c-13.16 3.384-24.505 2.876-36.932-2.632l.038-21.564Z" fill="#455A64"/><path d="M82.206 240.397c2.548-2.209 3.178-6.053 2.82-9.4a25.16 25.16 0 0 1 2.275 8.15l31.02-21.62c2.933-2.04 4.014-2.933 6.853-3.816l-4.315-5.64c-10.058-5.386-21.958-2.237-32.166 2.82l-6.58 3.703.093 25.803Z" fill="#455A64"/><path d="M157.613 233.301c-2.397-4.926-6.514-8.78-10.669-12.343a46.26 46.26 0 0 0-10.66-7.369c-3.938-1.805-8.46-2.595-12.652-1.363l.846.357c-3.422 13.357 5.941 28.83 15.98 38.324a7.649 7.649 0 0 0 4.399-3.281l-3.694 5.772A121.803 121.803 0 0 0 155 266.088c2.087-5.245 4.004-10.622 4.766-16.225.761-5.602.329-11.486-2.153-16.562Z" fill="#455A64"/><path d="m132.28 210.862-6.354-.723c-12.098 2.387-22.006 12.426-25.503 24.252-3.496 11.825-1.024 24.985 5.387 35.522 4.615-5.217 9.249-10.462 12.925-16.375a14.272 14.272 0 0 0 2.35-5.64 6.202 6.202 0 0 0-1.157-4.577c1.429 1.25 3.206 2.237 4.776 1.353a5.027 5.027 0 0 0 1.598-1.748c3.12-4.813 6.063-9.842 7.52-15.388 1.457-5.546 1.316-11.703-1.542-16.676Z" fill="#455A64"/><path d="M131.988 177.192a47.448 47.448 0 0 0-18.546-28.03 2.334 2.334 0 0 0-3.507-.213 2.33 2.33 0 0 0-.619 1.153 50.273 50.273 0 0 0-4.193 32.101c2.19 10.772 10.162 25.558 18.509 32.712l4.7-2.82c5.659-10.04 6.138-23.707 3.656-34.903Z" fill="#455A64"/><path d="M125.033 212.018h-.169l-.499.056c-.216 0-.488.057-.808.113-.364.056-.725.132-1.081.226a17.146 17.146 0 0 0-6.317 3.073 20.742 20.742 0 0 0-3.497 3.384 25.362 25.362 0 0 0-3.026 4.7 46.721 46.721 0 0 0-3.836 12.22 85.69 85.69 0 0 0-1.269 23.35c.254 2.989.593 5.396.865 7.05.122.827.254 1.466.32 1.88 0 .197.056.367.084.489a.59.59 0 0 1 0 .178s0-.056-.047-.169l-.112-.489c-.085-.432-.235-1.071-.376-1.88a69.95 69.95 0 0 1-.94-7.05 83.28 83.28 0 0 1 1.184-23.387 46.008 46.008 0 0 1 3.892-12.304 25.296 25.296 0 0 1 3.073-4.747 21.025 21.025 0 0 1 3.572-3.394 16.727 16.727 0 0 1 6.421-3.017 11.181 11.181 0 0 1 2.566-.282Z" fill="#263238"/><path d="M126.508 209.565a4.4 4.4 0 0 1-.507.122c-.329.075-.828.141-1.448.301a27.31 27.31 0 0 0-5.151 1.749 29.29 29.29 0 0 0-3.318 1.757 32.04 32.04 0 0 0-3.488 2.538 34.646 34.646 0 0 0-6.523 7.379 47.73 47.73 0 0 0-4.634 8.733 37.862 37.862 0 0 0-1.354 4.098 30.428 30.428 0 0 0-.686 3.685 25.015 25.015 0 0 0-.085 5.443c0 .639.15 1.128.179 1.466.038.17.054.343.047.517a3.298 3.298 0 0 1-.113-.498c-.047-.339-.179-.827-.235-1.476a23.018 23.018 0 0 1 0-5.471 30.76 30.76 0 0 1 .658-3.76c.363-1.407.809-2.791 1.335-4.145a46.554 46.554 0 0 1 4.643-8.789 34.365 34.365 0 0 1 6.58-7.436 33.289 33.289 0 0 1 3.535-2.538 29.641 29.641 0 0 1 3.365-1.738 26.235 26.235 0 0 1 5.217-1.664c.63-.141 1.137-.188 1.466-.245.172-.022.345-.031.517-.028ZM132.91 214.961c.122.304.217.619.282.94.075.301.169.667.244 1.109.075.442.188.94.245 1.495.056.554.141 1.165.169 1.823.028.658 0 1.363 0 2.097a29.039 29.039 0 0 1-.536 4.794 29.331 29.331 0 0 1-1.372 4.615c-.292.686-.555 1.335-.865 1.88-.31.545-.583 1.128-.865 1.617-.282.489-.564.94-.808 1.278-.203.325-.423.638-.658.94a6.05 6.05 0 0 1-.621.752c.162-.275.348-.537.555-.78.219-.303.423-.617.611-.94.225-.376.507-.79.761-1.288s.564-1.024.827-1.617c.264-.592.546-1.231.828-1.88a30.352 30.352 0 0 0 1.334-4.577c.306-1.55.492-3.122.555-4.7v-2.087c0-.649-.075-1.26-.132-1.814-.056-.555-.131-1.044-.197-1.486a17.876 17.876 0 0 0-.188-1.109 6.248 6.248 0 0 1-.169-1.062ZM154.06 265.006v-.141l.094-.404c.084-.357.244-.874.376-1.561.444-1.913.758-3.853.94-5.809a43.012 43.012 0 0 0-.047-8.714 43.47 43.47 0 0 0-12.897-26.517 44.921 44.921 0 0 0-4.475-3.826c-.545-.423-1.005-.714-1.297-.94l-.338-.244-.104-.094.123.066.357.216c.301.207.771.479 1.335.94a40.808 40.808 0 0 1 4.549 3.76 42.382 42.382 0 0 1 13.038 26.649 42.333 42.333 0 0 1 0 8.761 39.018 39.018 0 0 1-1.034 5.818c-.16.686-.338 1.194-.432 1.551-.057.16-.094.292-.132.395a.555.555 0 0 1-.056.094ZM187.392 218.129l-.122-.132-.329-.404c-.291-.348-.696-.884-1.26-1.542a69.64 69.64 0 0 0-4.963-5.358c-1.1-1.081-2.378-2.199-3.76-3.355a53.83 53.83 0 0 0-4.7-3.384 41.991 41.991 0 0 0-12.07-5.33 35.673 35.673 0 0 0-6.768-.94 34.29 34.29 0 0 0-6.363.338 30.372 30.372 0 0 0-10.209 3.394 26.408 26.408 0 0 0-3.468 2.265c-.47.395-.94.743-1.326 1.081l-1.034.996c-.28.259-.544.535-.789.828l-.555.629c-.141.16-.263.282-.348.386l-.131.122a.708.708 0 0 1 .103-.141c.085-.103.188-.244.329-.404l.536-.658c.237-.299.495-.582.771-.846l1.024-1.053c.386-.357.837-.714 1.307-1.109a25.516 25.516 0 0 1 3.468-2.341 30.186 30.186 0 0 1 10.275-3.487 33.966 33.966 0 0 1 6.42-.357 34.94 34.94 0 0 1 6.834.94 41.615 41.615 0 0 1 12.154 5.414 51.25 51.25 0 0 1 4.7 3.431 61.649 61.649 0 0 1 3.76 3.393 62.015 62.015 0 0 1 4.907 5.443c.554.667.94 1.222 1.212 1.579l.31.423a.753.753 0 0 1 .085.179ZM110.998 147.854l.085.131c.084.132.15.235.244.404l.893 1.589a45.28 45.28 0 0 1 1.363 2.538c.498 1.006 1.119 2.124 1.711 3.412l.94 2.002c.329.696.63 1.439.94 2.2.686 1.523 1.325 3.177 2.012 4.916a137.827 137.827 0 0 1 3.816 11.543c1.166 4.155 2.021 8.188 2.679 11.873.301 1.88.611 3.59.808 5.245.104.827.217 1.617.301 2.387.085.771.151 1.504.216 2.209.16 1.401.217 2.679.301 3.76.085 1.081.122 2.087.141 2.877.019.789 0 1.382 0 1.823v.64-.64c0-.432-.066-1.043-.103-1.814a59.14 59.14 0 0 0-.198-2.82c-.103-1.071-.169-2.397-.338-3.76-.075-.705-.16-1.438-.244-2.199-.085-.762-.207-1.561-.32-2.379-.207-1.645-.517-3.393-.827-5.235a144.419 144.419 0 0 0-2.698-11.835c-1.137-4.155-2.472-8.037-3.76-11.524-.677-1.739-1.307-3.394-1.983-4.917-.329-.761-.63-1.504-.94-2.199a70.777 70.777 0 0 0-.94-2.012c-.574-1.288-1.166-2.425-1.655-3.431a54.61 54.61 0 0 0-1.316-2.557l-.846-1.616-.216-.423c-.047-.141-.075-.188-.066-.188Z" fill="#263238"/><path d="M102.501 187.109c.11.025.217.063.319.113l.94.367c.78.329 1.88.827 3.253 1.485a85.684 85.684 0 0 1 10.236 5.894 46.173 46.173 0 0 1 5.189 3.929 17.255 17.255 0 0 1 3.431 4.07 9.842 9.842 0 0 1 1.26 3.356c.06.31.094.624.103.94.012.112.012.226 0 .338a1.22 1.22 0 0 1-.066-.338 6.938 6.938 0 0 0-.16-.94 10.268 10.268 0 0 0-1.334-3.271 17.703 17.703 0 0 0-3.422-3.967 48.173 48.173 0 0 0-5.179-3.882 99.77 99.77 0 0 0-10.152-5.96c-1.345-.686-2.454-1.203-3.206-1.57l-.883-.423a1.23 1.23 0 0 1-.329-.141ZM145.75 220.139a3.522 3.522 0 0 1-.667-.498c-.414-.329-1.006-.808-1.758-1.391a70.339 70.339 0 0 0-6.063-4.249 72.583 72.583 0 0 0-6.486-3.572l-2.04-.94a3.6 3.6 0 0 1-.733-.376c.271.062.535.15.789.263.499.188 1.204.489 2.078.875a56.517 56.517 0 0 1 12.596 7.849 36.987 36.987 0 0 1 1.701 1.485c.211.167.406.352.583.554Z" fill="#263238"/><path d="M82.714 191.31c.162.022.326.022.489 0h3.61c.864 0 1.88 0 2.932.113 1.053.113 2.265.15 3.534.329 1.27.178 2.614.385 4.023.62a64.811 64.811 0 0 1 8.996 2.463 63.545 63.545 0 0 1 8.517 3.826c1.24.705 2.444 1.363 3.496 2.077 1.053.715 2.059 1.354 2.943 1.993.883.639 1.645 1.241 2.331 1.777.686.535 1.25 1.005 1.701 1.41l1.062.94c.123.11.252.213.386.31a45.74 45.74 0 0 0-5.358-4.578 53.187 53.187 0 0 0-2.933-2.03 89.5 89.5 0 0 0-3.506-2.115 58.222 58.222 0 0 0-17.578-6.308c-1.429-.235-2.773-.479-4.051-.601-1.279-.123-2.463-.235-3.554-.292a47.548 47.548 0 0 0-7.04.066ZM81.36 214.96a2.31 2.31 0 0 0 .414-.216l1.147-.667c.498-.301 1.109-.649 1.88-1.016.77-.366 1.541-.836 2.481-1.24s1.965-.94 3.102-1.316c1.138-.376 2.35-.856 3.638-1.288a60.774 60.774 0 0 1 8.638-1.927 59.472 59.472 0 0 1 8.827-.489c1.363.066 2.651.104 3.854.254 1.203.15 2.322.263 3.346.432 1.025.17 1.927.358 2.726.508.799.15 1.486.329 2.04.489l1.288.319c.151.047.305.081.461.104a41.616 41.616 0 0 0-6.486-1.626c-1.016-.179-2.134-.367-3.347-.47a103.48 103.48 0 0 0-3.873-.273 52.018 52.018 0 0 0-17.596 2.378c-1.297.442-2.538.837-3.657 1.316-1.118.48-2.162.94-3.093 1.354a42.056 42.056 0 0 0-5.79 3.374Z" fill="#263238"/><path d="M86.709 225.526c.119-.087.226-.188.32-.301l.855-.893c.366-.395.817-.865 1.372-1.391.555-.527 1.166-1.147 1.88-1.758s1.514-1.316 2.416-1.993c.902-.677 1.88-1.391 2.914-2.115a57.13 57.13 0 0 1 7.191-4.023 55.961 55.961 0 0 1 7.745-2.82c1.232-.31 2.397-.639 3.507-.827 1.109-.188 2.143-.405 3.092-.536.95-.132 1.815-.216 2.576-.292a31.81 31.81 0 0 1 1.946-.141l1.269-.056c.144.014.288.014.432 0-2.08-.053-4.161.06-6.223.338-.94.123-2.002.264-3.111.499a95.023 95.023 0 0 0-3.525.808 49.83 49.83 0 0 0-15.04 6.89c-1.034.743-2.04 1.42-2.914 2.143-.874.724-1.692 1.392-2.407 2.04a39.533 39.533 0 0 0-4.295 4.428Z" fill="#263238"/><path d="M101.082 77.466h-.734c-.72.014-1.436.09-2.143.226a17.446 17.446 0 0 0-7.642 3.497 22.159 22.159 0 0 0-4.183 4.634 23.102 23.102 0 0 0-3.158 6.824 26.119 26.119 0 0 0-.818 4.165 39.878 39.878 0 0 0-.188 4.549v10.011c0 28.294-.075 69.222-.132 119.803-.056 50.582-.085 110.798-.132 177.66v44.81c-.066 2.195 0 4.393.198 6.58a24.083 24.083 0 0 0 1.598 6.42c.41 1.035.884 2.042 1.42 3.018.56.967 1.189 1.893 1.88 2.773a20.53 20.53 0 0 0 4.925 4.521 16.932 16.932 0 0 0 6.28 2.416c2.236.254 4.489.336 6.739.244h20.257l55.46-.075h42.723a17.288 17.288 0 0 0 7.097-1.438 18.807 18.807 0 0 0 5.931-4.202 23.678 23.678 0 0 0 6.176-12.953c.3-2.388.404-4.796.31-7.201V99.491a25.95 25.95 0 0 0-1.88-9.635 21.538 21.538 0 0 0-5.424-7.906 17.429 17.429 0 0 0-8.272-4.352 14.551 14.551 0 0 0-2.303-.3c-.77-.067-1.541-.067-2.303-.057h-28.453a4.964 4.964 0 0 0-2.04.62 6.577 6.577 0 0 0-2.754 3.093 8.973 8.973 0 0 0-.78 4.004v3.995a9.404 9.404 0 0 1-.564 3.76 6.585 6.585 0 0 1-2.209 3.008 4.98 4.98 0 0 1-1.655.827 6.33 6.33 0 0 1-1.88.179l-27.993.056H136.35a5.395 5.395 0 0 1-4.371-2.688 8.385 8.385 0 0 1-1.231-4.87v-4.859a8.268 8.268 0 0 0-1.297-4.343 5.894 5.894 0 0 0-3.337-2.538 7.755 7.755 0 0 0-2.012-.16H100.988h23.218a7.376 7.376 0 0 1 1.974.16 5.774 5.774 0 0 1 3.243 2.482 8.058 8.058 0 0 1 1.259 4.267v4.85a8.717 8.717 0 0 0 1.25 4.973 5.647 5.647 0 0 0 4.541 2.82h46.078a6.677 6.677 0 0 0 1.88-.188 5.11 5.11 0 0 0 1.739-.864 6.868 6.868 0 0 0 2.313-3.13 9.674 9.674 0 0 0 .592-3.902v-3.872a8.86 8.86 0 0 1 .752-3.883 6.42 6.42 0 0 1 2.632-2.951 4.945 4.945 0 0 1 1.88-.583h28.407c.77 0 1.532 0 2.284.066.76.03 1.515.13 2.256.3a17.041 17.041 0 0 1 8.103 4.268 21.357 21.357 0 0 1 5.329 7.783 25.635 25.635 0 0 1 1.88 9.504v63.318c0 29.742 0 61.514-.065 94.94-.066 33.427 0 68.545-.066 104.942V453.683a45.11 45.11 0 0 1-.301 7.134 23.283 23.283 0 0 1-6.025 12.643 18.497 18.497 0 0 1-5.781 4.089 16.696 16.696 0 0 1-6.9 1.401h-14.335l-28.388.047-55.46.075h-20.332a43.521 43.521 0 0 1-6.655-.244 16.435 16.435 0 0 1-6.11-2.341 20.135 20.135 0 0 1-4.813-4.418 26.443 26.443 0 0 1-1.88-2.707 27.41 27.41 0 0 1-1.391-2.961 23.97 23.97 0 0 1-1.57-6.308 55.455 55.455 0 0 1-.197-6.504V101.361a37.433 37.433 0 0 1 .178-4.53c.152-1.402.42-2.788.8-4.146a23.351 23.351 0 0 1 3.12-6.796 21.96 21.96 0 0 1 4.173-4.587 17.39 17.39 0 0 1 7.586-3.516c.706-.15 1.423-.239 2.144-.263l.752-.057Z" fill="#263238"/><path d="M106.608 468.949s.001.065.113.178c.113.178.242.344.386.498a6.194 6.194 0 0 0 1.88 1.439c1.88.94 5.085 1.306 8.685.235 1.796-.508 3.695-1.251 5.781-1.824a16.688 16.688 0 0 1 3.272-.602 13.996 13.996 0 0 1 3.515.217c2.388.404 4.85 1.287 7.567 1.447a23.142 23.142 0 0 0 8.159-1.504c1.354-.423 2.679-.846 4.005-1.156a25.391 25.391 0 0 1 3.985-.573c2.53-.106 5.063.15 7.52.761 4.7 1.166 8.836 2.867 12.371 3.995 2.776.939 5.6 1.73 8.46 2.369 1.015.216 1.814.348 2.35.442.273.057.549.097.827.122a4.914 4.914 0 0 0-.808-.216l-2.332-.536a98.726 98.726 0 0 1-8.394-2.51c-3.506-1.213-7.586-2.905-12.37-4.098a24.265 24.265 0 0 0-11.76-.235c-1.353.319-2.688.752-4.032 1.175a23.11 23.11 0 0 1-7.99 1.485c-2.632-.141-5.086-1.006-7.52-1.41a14.303 14.303 0 0 0-3.619-.207c-1.137.106-2.26.32-3.356.639-2.115.611-3.995 1.363-5.772 1.88-3.515 1.1-6.655.809-8.46-.066a7.203 7.203 0 0 1-2.463-1.945Z" fill="#263238"/><path d="M89.576 115.378c-.292-2.143 2.735-3.901 5-4.089a12.849 12.849 0 0 0 3.244-.282c2.218-.771 3.111-3.647 5.282-4.559 1.617-.686 3.488-.075 5.058.714 1.569.79 3.13 1.786 4.888 1.88 1.532.104 3.186-.47 4.53.282.997.555 1.514 1.702 2.435 2.379a5.743 5.743 0 0 0 3.187.864 9.158 9.158 0 0 1 3.28.536 2.598 2.598 0 0 1 1.645 2.642l-38.55-.367Z" fill="#E0E0E0"/><path d="M185.381 125.661c-.301-2.143 2.726-3.901 5-4.089 1.086.044 2.172-.05 3.234-.282 2.228-.771 3.111-3.647 5.283-4.559 1.626-.686 3.497-.075 5.066.715 1.57.789 3.131 1.786 4.888 1.88 1.523.103 3.187-.47 4.522.282.996.554 1.523 1.701 2.434 2.378a5.769 5.769 0 0 0 3.187.865 9.193 9.193 0 0 1 3.29.535 2.612 2.612 0 0 1 1.645 2.642l-38.549-.367ZM159.296 188.095c-.254-1.88 2.378-3.394 4.352-3.553.946.038 1.894-.044 2.82-.245 1.936-.677 2.707-3.177 4.597-3.976 1.41-.592 3.036-.066 4.408.63 1.373.695 2.717 1.551 4.249 1.654 1.325.085 2.773-.413 3.938.235.865.489 1.316 1.485 2.115 2.078.835.509 1.796.77 2.773.752a7.65 7.65 0 0 1 2.82.46 2.277 2.277 0 0 1 1.439 2.294l-33.511-.329Z" fill="#EBEBEB"/><path d="M160.076 156.644c-6.843 0-12.39-5.547-12.39-12.39 0-6.842 5.547-12.389 12.39-12.389 6.842 0 12.389 5.547 12.389 12.389 0 6.843-5.547 12.39-12.389 12.39ZM161.843 171.965a48.73 48.73 0 0 0 .131-5.113 48.749 48.749 0 0 0-.131-5.114 49.022 49.022 0 0 0-.132 5.114 49.003 49.003 0 0 0 .132 5.113ZM168.987 158.852c-.066 0 1.1 2.171 2.594 4.775 1.495 2.604 2.773 4.7 2.82 4.634a54.01 54.01 0 0 0-2.603-4.766c-1.486-2.594-2.755-4.671-2.811-4.643ZM176.31 154.293a26.463 26.463 0 0 0 2.895 2.463 29.109 29.109 0 0 0 3.055 2.265 27.851 27.851 0 0 0-2.895-2.463 26.996 26.996 0 0 0-3.055-2.265ZM149.482 166.927a7.69 7.69 0 0 0 .319-1.259c.179-.78.433-1.88.752-3.036.32-1.157.64-2.228.875-2.999.154-.405.27-.824.347-1.25a6.027 6.027 0 0 0-.526 1.194c-.282.752-.63 1.804-.94 2.989a36.686 36.686 0 0 0-.677 3.064 5.402 5.402 0 0 0-.15 1.297ZM136.905 158.007a40.2 40.2 0 0 0 3.666-3.027 44.609 44.609 0 0 0 3.496-3.224 41.765 41.765 0 0 0-3.666 3.027 44.609 44.609 0 0 0-3.496 3.224ZM132.092 145.748a10.463 10.463 0 0 0 1.494-.216 77.15 77.15 0 0 1 3.601-.507c1.41-.16 2.688-.264 3.619-.32a8.253 8.253 0 0 0 1.504-.132 7.98 7.98 0 0 0-1.514-.047c-.94 0-2.218.076-3.638.235a36.65 36.65 0 0 0-3.6.593c-.5.086-.991.218-1.466.394ZM132.083 133.698c0 .066 2.66.78 5.987 1.588 3.328.809 6.035 1.41 6.054 1.345.019-.066-2.66-.781-5.988-1.598-3.327-.818-6.044-1.41-6.053-1.335ZM146.079 119.654c-.056 0 1.231 2.087 2.867 4.569 1.636 2.481 3.027 4.474 3.083 4.437a52.645 52.645 0 0 0-2.82-4.578 53.161 53.161 0 0 0-3.13-4.428ZM159.982 116.721a11.23 11.23 0 0 0 0 1.701v8.197a12.38 12.38 0 0 0 0 1.701c.11-.557.167-1.124.169-1.692a67.6 67.6 0 0 0 .122-4.107c0-1.608 0-3.055-.112-4.108a10.792 10.792 0 0 0-.179-1.692ZM170.5 129.825a52.66 52.66 0 0 0 2.924-4.521c1.541-2.529 2.754-4.615 2.688-4.7-.066-.085-1.363 1.983-2.914 4.521-1.551 2.538-2.754 4.663-2.698 4.7ZM176.789 135.174a7.074 7.074 0 0 0 1.316-.217c.808-.169 1.88-.432 3.121-.789a37.279 37.279 0 0 0 3.045-1.025 6.42 6.42 0 0 0 1.222-.536c-.436.08-.864.199-1.278.358-.78.253-1.88.601-3.065.94-1.184.338-2.293.648-3.083.864a6.904 6.904 0 0 0-1.278.405ZM179.534 144.686c1.306.258 2.628.43 3.957.517 1.319.164 2.647.249 3.976.253a30.143 30.143 0 0 0-3.948-.517 33.183 33.183 0 0 0-3.985-.253Z" fill="#E0E0E0"/><path d="M136.764 298.207s.63-.226 1.805-.48a14.556 14.556 0 0 1 5.029-.197 13.585 13.585 0 0 1 6.777 2.923 14.101 14.101 0 0 1 4.775 7.595v.085l.132.545.216-.517a15.04 15.04 0 0 1 5.725-6.918 14.709 14.709 0 0 1 6.993-2.331 15.354 15.354 0 0 1 4.992.46c1.156.301 1.767.574 1.776.536a2.068 2.068 0 0 0-.432-.207 9.929 9.929 0 0 0-1.307-.47 14.986 14.986 0 0 0-12.22 1.73 15.272 15.272 0 0 0-5.837 7.059h.348v-.084a14.241 14.241 0 0 0-4.926-7.774 13.963 13.963 0 0 0-12.051-2.604 10.8 10.8 0 0 0-1.325.423 1.869 1.869 0 0 0-.47.226ZM88.504 133.932s.357-.094.996-.225a8.141 8.141 0 0 1 2.755-.085 7.442 7.442 0 0 1 3.684 1.608 7.674 7.674 0 0 1 2.595 4.136l.131.545.217-.517a8.195 8.195 0 0 1 3.111-3.76 7.989 7.989 0 0 1 3.807-1.288 8.63 8.63 0 0 1 2.736.226c.639.159.94.291.987.263.047-.028-.076-.057-.235-.132a6.295 6.295 0 0 0-.715-.272 7.872 7.872 0 0 0-2.82-.339 8.024 8.024 0 0 0-3.976 1.26 8.382 8.382 0 0 0-3.262 3.92h.348v-.057a7.905 7.905 0 0 0-2.745-4.314 7.515 7.515 0 0 0-3.863-1.598 7.329 7.329 0 0 0-2.82.197c-.25.064-.495.146-.734.244-.122.141-.206.179-.197.188ZM168.244 248.021s.348.395.94 1.1a24.21 24.21 0 0 1 2.36 3.177 23.267 23.267 0 0 1 3.496 12.399v.16h.358a20.553 20.553 0 0 1 2.265-6.712 21.326 21.326 0 0 1 6.448-7.2 13.87 13.87 0 0 0 1.185-.827c-.119.043-.232.1-.339.169-.206.122-.535.272-.94.536a19.088 19.088 0 0 0-3.102 2.472 20.798 20.798 0 0 0-3.562 4.7 20.32 20.32 0 0 0-2.331 6.824h.357v-.16a22.747 22.747 0 0 0-3.647-12.539 20.9 20.9 0 0 0-2.473-3.149c-.319-.348-.601-.583-.78-.752a1.312 1.312 0 0 0-.235-.198Z" fill="#263238"/><path d="M227.916 213.805s.084 37.891-.179 46.257-22.607 55.263-22.607 55.263l-12.154-2.905 14.1-50.375 1.654-26.808 19.186-21.432Z" fill="#FFBE9D"/><path d="m193.202 311.432-7.859 11.731-2.153 12.22s3.093 1.598 4.419-3.3c0 0 .319 2.576 1.456 2.82a1.546 1.546 0 0 0 1.721-.639s.479 2.04 2.152 1.608c1.673-.433 1.88-1.128 1.974-1.41.094-.282 1.034.441 2.219 0a1.744 1.744 0 0 0 1.194-1.542s1.814.508 2.425.056a5.086 5.086 0 0 0 1.137-1.692s1.326-3.036 1.015-3.562c-.31-.527-1.306-.602-1.306-.602l.648-2.293s2.153-3.084 2.473-4.475c.319-1.391.658-7.576.658-7.576l-12.173-1.344Z" fill="#FFBE9D"/><path d="M183.2 335.412s.075.057.244.104c.24.071.485.122.733.15.407.043.817.014 1.213-.085a2.019 2.019 0 0 0 1.307-1.034c.601-1.109 1.165-2.547 1.88-4.089a9.75 9.75 0 0 1 3.346-4.258c1.57-.94 3.44-1.419 4.775-2.538a8.448 8.448 0 0 0 2.604-3.628 7.97 7.97 0 0 0 .489-2.961 6.065 6.065 0 0 0-.085-.818c0-.179-.066-.273-.084-.273a9.909 9.909 0 0 1-.649 3.93 8.172 8.172 0 0 1-2.557 3.393c-1.25 1.034-3.074 1.438-4.756 2.482a9.92 9.92 0 0 0-3.488 4.483c-.705 1.58-1.231 3.008-1.776 4.127a1.747 1.747 0 0 1-1.062.893 3.15 3.15 0 0 1-1.128.15c-.658.019-1.006-.065-1.006-.028Z" fill="#EB996E"/><path d="M190.485 334.473a7.08 7.08 0 0 0 1.307-1.514c.366-.498.789-1.109 1.222-1.804.216-.348.432-.715.648-1.11a1.927 1.927 0 0 0 .339-1.475 1.395 1.395 0 0 0-1.288-.893 2.173 2.173 0 0 0-1.335.413 4.802 4.802 0 0 0-1.4 1.739c-.555 1.1-1.044 1.655-1.016 1.702.029.047.677-.461 1.307-1.523.335-.608.8-1.135 1.363-1.542a1.672 1.672 0 0 1 1.053-.31.942.942 0 0 1 .846.555c.051.393-.054.791-.292 1.109l-.611 1.1c-.404.705-.789 1.325-1.118 1.88a9.947 9.947 0 0 0-1.025 1.673Z" fill="#EB996E"/><path d="M194.734 334.574a28.364 28.364 0 0 0 2.312-5.057 1.506 1.506 0 0 0-.141-1.269 1.479 1.479 0 0 0-1.034-.611 1.988 1.988 0 0 0-1.711.771c-.38.419-.626.943-.705 1.504.085 0 .32-.573.94-1.269a1.684 1.684 0 0 1 1.392-.555 1.005 1.005 0 0 1 .695.423 1.04 1.04 0 0 1 .076.884 34.935 34.935 0 0 0-1.824 5.179Z" fill="#EB996E"/><path d="M196.934 329.199c.084 0 .253-.573.827-1.259a1.66 1.66 0 0 1 1.297-.602.882.882 0 0 1 .827 1.137 31.934 31.934 0 0 0-1.729 4.935 25.051 25.051 0 0 0 2.209-4.812 1.294 1.294 0 0 0-.254-1.213 1.451 1.451 0 0 0-1.034-.498 1.961 1.961 0 0 0-1.589.836 2.398 2.398 0 0 0-.554 1.476Z" fill="#EB996E"/><path d="M201.831 327.516c.056 0 0-.216-.226-.348a.946.946 0 0 0-.94.132 1.377 1.377 0 0 0-.479.78v.386c0 .018.357-.461.742-.781a.942.942 0 0 1 .564-.188c.17 0 .282.066.339.019Z" fill="#EB996E"/><path d="m331.917 402.423-1.697.893-40.862-77.633 1.697-.893 40.862 77.633ZM372.638 473.554a5.941 5.941 0 1 1-10.342 5.852 5.941 5.941 0 0 1 10.342-5.852Z" fill="#263238"/><path d="M376.239 471.523a5.939 5.939 0 0 1-.49 6.584 5.945 5.945 0 0 1-6.27 2.066 5.938 5.938 0 0 1-4.308-5.003 5.942 5.942 0 0 1 11.068-3.647Z" fill="#455A64"/><path d="m376.534 466.315-18.907 9.952a6.59 6.59 0 0 1-8.9-2.762l-46.961-89.22a6.589 6.589 0 0 1 2.762-8.9l18.907-9.952a6.589 6.589 0 0 1 8.9 2.762l46.961 89.22a6.59 6.59 0 0 1-2.762 8.9Z" fill="#FF725E"/><path d="m348.918 437.665-.857.452a3.309 3.309 0 0 1-4.469-1.387L328 407.121a3.31 3.31 0 0 1 1.386-4.47l.857-.451a3.309 3.309 0 0 1 4.469 1.386l15.592 29.61a3.309 3.309 0 0 1-1.386 4.469Z" fill="#263238"/><path d="M367.158 471.468c.122-.066-11.712-22.786-26.433-50.76-14.72-27.975-26.743-50.572-26.865-50.507-.122.066 11.713 22.777 26.433 50.76 14.72 27.984 26.743 50.563 26.865 50.507Z" fill="#263238"/><path d="m317.277 368.671-6.405 3.371a1.146 1.146 0 0 1-1.549-.481l-.162-.307a1.147 1.147 0 0 1 .48-1.549l6.405-3.372a1.147 1.147 0 0 1 1.549.481l.162.308c.295.56.08 1.254-.48 1.549ZM257.263 167.199a2.302 2.302 0 0 1-2.507-.546 2.32 2.32 0 0 1-.483-.761 5.231 5.231 0 0 1 .113-3.581c.46-1.135.775-2.322.94-3.535a5.213 5.213 0 0 0-3.487-5.123 4.857 4.857 0 0 0 1.662-3.434 4.867 4.867 0 0 0-1.324-3.578 19.552 19.552 0 0 0-3.121-2.002 10.823 10.823 0 0 1-1.645-1.344 6.84 6.84 0 0 0 2.82.094 4.598 4.598 0 0 0 3.328-2.914c.242-.734.276-1.52.098-2.271a4.175 4.175 0 0 0-1.104-1.988 3.76 3.76 0 0 0-4.277-.629c-1.344.705-2.077 2.162-2.735 3.534l-.602 1.269c-1.88-2.5-3.666-5.085-6.58-5.969-2.641-.79-5.48.094-8.234-.103-2.002-.141-3.929-.865-5.932-1.091-2.002-.225-4.267.207-5.451 1.88-.687.94-.94 2.19-1.608 3.14-1.447 1.955-4.568 2.228-5.753 4.352-.94 1.73-.225 3.91-.639 5.847-.451 2.105-2.19 3.647-3.609 5.264-1.42 1.617-2.661 3.835-1.88 5.837.695 1.758 2.754 2.707 3.421 4.484.489 1.288.132 2.726.113 4.108-.019 1.382.526 3.017 1.88 3.337l15.322 4.042c5.283 2.143 10.725 4.333 16.422 4.324 5.696-.01 11.778-2.745 14.024-7.981a3.288 3.288 0 0 1-2.199-.987 5.492 5.492 0 0 0 3.027-3.675Z" fill="#263238"/><path d="M244.704 172.003a70.996 70.996 0 0 0 3.084-11.844 24.771 24.771 0 0 0-.94-12.098c-.217-.583-2.059-4.474-2.67-4.418-.442.047.686 3.676.47 4.061a20.991 20.991 0 0 0-2.369 12.22 55.026 55.026 0 0 0 2.454 12.041" fill="#263238"/><path d="M231.14 205.965c6.336-.131 13.527-13.978 13.527-13.978l.413-35.579c.329-10.246-5.358-18.978-15.604-19.025l-.94.056a18.307 18.307 0 0 0-12.145 5.509 18.304 18.304 0 0 0-5.188 12.285c-.245 8.883-.395 18.697-.085 23.444.649 9.814 10.556 10.81 10.556 10.81s.057 2.284.085 5.17c.066 6.486 6.852 11.534 9.4 11.28l-.019.028Z" fill="#FFBE9D"/><path d="M221.693 189.486c4.537-.25 8.906-1.8 12.587-4.465 0 0-2.736 7.314-12.587 6.956v-2.491Z" fill="#EB996E"/><path d="M213.806 161.944a1.401 1.401 0 0 0 1.429 1.345 1.329 1.329 0 0 0 .972-.381 1.348 1.348 0 0 0 .4-.964 1.409 1.409 0 0 0-1.428-1.344 1.326 1.326 0 0 0-.972.381 1.335 1.335 0 0 0-.401.963ZM213.534 159.2c.188.179 1.203-.667 2.716-.743 1.514-.075 2.651.611 2.82.423.17-.188-.122-.404-.62-.733a3.904 3.904 0 0 0-2.265-.564 3.704 3.704 0 0 0-2.144.818c-.46.385-.592.724-.507.799ZM227.652 162.386a1.401 1.401 0 0 0 1.429 1.344 1.335 1.335 0 0 0 1.373-1.334 1.404 1.404 0 0 0-1.429-1.345 1.336 1.336 0 0 0-1.373 1.335ZM228.32 159.021c.188.169 1.213-.667 2.717-.752 1.504-.084 2.66.621 2.82.433.159-.188-.123-.414-.621-.734a3.898 3.898 0 0 0-2.265-.573 3.703 3.703 0 0 0-2.143.827c-.423.339-.564.724-.508.799ZM223.564 170.903a10.186 10.186 0 0 0-2.482-.31c-.385 0-.752-.076-.837-.329-.051-.397.017-.8.198-1.157.31-.94.639-1.955.987-2.998 1.353-4.268 2.322-7.765 2.143-7.812-.179-.047-1.41 3.356-2.773 7.624-.32 1.043-.63 2.049-.94 3.008a2.246 2.246 0 0 0-.122 1.523.944.944 0 0 0 .667.526c.216.049.437.068.658.056.836.061 1.676.017 2.501-.131ZM228.057 171.721c-.244 0-.16 1.635-1.504 2.876-1.344 1.241-3.093 1.147-3.093 1.382 0 .235.405.291 1.147.273a4.076 4.076 0 0 0 2.585-1.053 3.558 3.558 0 0 0 1.156-2.407c.029-.695-.178-1.071-.291-1.071ZM228.104 152.919c.169.404 1.673.123 3.45.245 1.776.122 3.243.526 3.459.141.094-.179-.179-.555-.771-.94a6.027 6.027 0 0 0-5.264-.292c-.658.282-.949.621-.874.846ZM213.891 154.151c.282.329 1.306-.084 2.557-.169 1.25-.084 2.312.104 2.538-.263.103-.179-.085-.517-.564-.818a3.709 3.709 0 0 0-4.108.348c-.423.376-.555.743-.423.902Z" fill="#263238"/><path d="M244.695 163.731c.159-.085 6.636-2.36 6.786 4.361.151 6.721-6.636 5.49-6.655 5.292-.019-.197-.131-9.653-.131-9.653Z" fill="#FFBE9D"/><path d="M246.828 170.781s.123.085.32.169c.28.115.594.115.874 0a2.9 2.9 0 0 0 1.288-2.632 3.966 3.966 0 0 0-.367-1.673 1.37 1.37 0 0 0-.94-.874.592.592 0 0 0-.686.338c-.084.188 0 .32-.075.329-.075.01-.141-.103-.094-.385a.732.732 0 0 1 .254-.433.871.871 0 0 1 .639-.178 1.628 1.628 0 0 1 1.25 1.015 3.97 3.97 0 0 1 .451 1.88c0 1.363-.686 2.642-1.654 2.942a1.233 1.233 0 0 1-1.072-.15c-.178-.169-.216-.348-.188-.348Z" fill="#EB996E"/><path d="M215.423 144.038c-1.09-.583 2.134-4.155 4.785-5.405 4.023-1.88 10.18-3.093 13.921-2.087 4.512 1.222 8.263 3.403 10.575 7.464a26.424 26.424 0 0 1 3.14 13.47 8.015 8.015 0 0 1-.893 4.117c-.94 1.504-2.707 2.463-2.604 4.512a2.825 2.825 0 0 1-.677 2.059c-1.212 1.325-2.735.122-3.44-1.109-1.513-2.614-1.72-5.753-1.88-8.771a19.48 19.48 0 0 1 .348-6.401c.31-1.128.827-2.2 1.081-3.337a4.08 4.08 0 0 0-.517-3.356 4.396 4.396 0 0 0-.555-.545 7.032 7.032 0 0 0-6.984-1.231c-3.76 1.391-10.208 3.468-11.919 2.209a10.333 10.333 0 0 1-3.046-3.018l-1.335 1.429Z" fill="#263238"/><path d="M233.772 135.642a14.747 14.747 0 0 0-11.355.771 7.69 7.69 0 0 0-4.004 4.512c-.527 2.002.347 4.446 2.274 5.198l.132.085c2.886.94 4.747.517 7.595-.508 2.397-.865 4.522-2.378 6.919-3.233a13.732 13.732 0 0 1 7.999-.339 22.263 22.263 0 0 0-9.56-6.486Z" fill="#263238"/><path d="M246.565 142.289c-.056.056-.601-.593-1.692-1.345a9.76 9.76 0 0 0-2.039-1.099 6.369 6.369 0 0 0-2.736-.452 9.16 9.16 0 0 0-4.7 1.88c-1.043.828-1.523 1.523-1.588 1.476-.066-.047.065-.207.291-.517.315-.44.681-.841 1.09-1.194a8.7 8.7 0 0 1 4.86-2.143 6.37 6.37 0 0 1 2.924.527 8.89 8.89 0 0 1 2.077 1.212c.618.435 1.135 1 1.513 1.655ZM247.233 144.676a5.743 5.743 0 0 1-.508 1.88 14.026 14.026 0 0 1-6.279 7.078 5.768 5.768 0 0 1-1.88.733 20.827 20.827 0 0 0 5.264-4.023 21.21 21.21 0 0 0 3.403-5.668ZM249.94 145.768c.042.252.042.509 0 .761a12.333 12.333 0 0 1-.291 2.068 14.103 14.103 0 0 1-8.742 10.03c-.654.247-1.326.439-2.012.573a2.3 2.3 0 0 1-.761.075c0-.075 1.062-.263 2.651-.94a14.775 14.775 0 0 0 8.554-9.804c.517-1.682.554-2.773.601-2.763ZM226.064 135.061c0 .065-.696.235-1.777.667a14.543 14.543 0 0 0-6.899 5.64 18.319 18.319 0 0 1-1.006 1.617 5.195 5.195 0 0 1 .733-1.786 12.466 12.466 0 0 1 2.989-3.563 12.662 12.662 0 0 1 4.071-2.256 4.908 4.908 0 0 1 1.889-.319ZM252.083 135.869a7.718 7.718 0 0 1-5.104 6.073 18.717 18.717 0 0 0 3.055-2.614 19.373 19.373 0 0 0 2.049-3.459ZM290.041 298.291s11.975 4.7 20.022 1.73c8.046-2.971 10.199-8.799 10.199-8.799a123.593 123.593 0 0 0-6.947-48.936l-5.49-15.369s-16.459-24.938-27.316-30.531-21.065-2.679-20.097-1.683c.968.996 15.67 91.349 15.67 91.349l13.959 12.239Z" fill="#455A64"/><path d="M289.571 270.881c.474-.093.955-.156 1.438-.188l4.239-.47 15.378-1.588h.273v.263c.451 3.309.94 6.928 1.466 10.763.257 1.918.521 3.892.79 5.922.389 2.078.503 4.199.338 6.307a6.044 6.044 0 0 1-2.171 4.118 7.28 7.28 0 0 1-4.333 1.278 37.477 37.477 0 0 1-4.277-.188 10.922 10.922 0 0 1-4.024-1.072 7.149 7.149 0 0 1-2.82-2.82 19.758 19.758 0 0 1-1.466-3.402c-.78-2.238-1.372-4.353-1.88-6.289-1.025-3.873-1.748-7.031-2.256-9.212l-.564-2.529a5.504 5.504 0 0 1-.15-.883s.113.329.282.865c.169.535.395 1.457.677 2.481.582 2.162 1.381 5.302 2.462 9.156.546 1.88 1.166 4.023 1.955 6.232.38 1.137.868 2.236 1.458 3.281a6.437 6.437 0 0 0 2.603 2.556 10.5 10.5 0 0 0 3.807.997 41.04 41.04 0 0 0 4.193.169 6.79 6.79 0 0 0 3.957-1.156 5.365 5.365 0 0 0 1.88-3.694 23.11 23.11 0 0 0-.329-6.129c-.263-2.021-.517-4.005-.771-5.922-.498-3.845-.94-7.464-1.4-10.773l.31.245-15.219 1.278-4.314.329-1.166.075a1.865 1.865 0 0 1-.366 0ZM286.243 200.541c.131.207-3.591 1.034-7.99 2.35a39.406 39.406 0 0 0-5.499 2.031c-1.363.639-2.021 1.287-2.087 1.231-.066-.056.508-.874 1.88-1.645a27.38 27.38 0 0 1 5.537-2.247 58.59 58.59 0 0 1 5.771-1.419 9.246 9.246 0 0 1 2.388-.301Z" fill="#263238"/><path d="M299.91 255.616a15.232 15.232 0 0 1-.357-2.247c-.075-.724-.226-1.607-.414-2.623-.188-1.015-.385-2.18-.686-3.449-.536-2.557-1.41-5.537-2.444-8.827s-2.453-6.815-4.014-10.472a187.57 187.57 0 0 0-9.155-18.217 229.148 229.148 0 0 0-3.121-5.339 15.157 15.157 0 0 1-1.1-1.993c.486.595.929 1.223 1.326 1.88a130.328 130.328 0 0 1 3.299 5.245 156.618 156.618 0 0 1 9.4 18.189 124.184 124.184 0 0 1 3.986 10.547 82.363 82.363 0 0 1 2.322 8.921c.282 1.278.46 2.453.601 3.487.141 1.034.263 1.88.301 2.651.038.771.084 1.222.113 1.683.007.189-.012.379-.057.564Z" fill="#263238"/><path d="m307.161 269.212-11.895 1.114-.669-7.15 11.895-1.114.669 7.15Z" fill="#EBEBEB"/><path d="M306.772 260.55c-.291-1.259-5.377-2.331-5.377-2.331l-.197-2.049-2.895.273.188 2.049s-3.845 2.162-4.287 2.895c-.441.733.564 3.299.564 3.299l12.286-1.146a15.79 15.79 0 0 0-.282-2.99Z" fill="#263238"/><path d="M307.054 267.092c0 .179-2.651.573-5.959.884-3.309.31-6.007.413-6.026.235-.019-.179 2.651-.583 5.96-.94 3.309-.358 6.006-.367 6.025-.179Z" fill="#E0E0E0"/><path d="M306.613 260.523c0 .169-2.736.846-6.232 1.194-3.497.347-6.345.235-6.345.056s2.82-.367 6.279-.714c3.459-.348 6.27-.724 6.298-.536ZM301.414 258.199c.151.104-.329.865-1.353 1.006-1.025.141-1.683-.489-1.57-.62.113-.132.733.066 1.485 0 .752-.066 1.307-.555 1.438-.386Z" fill="#455A64"/><path d="M308.126 226.898c0 .188-3.262.761-7.247 1.739-3.986.977-7.182 1.955-7.248 1.776-.066-.178 3.055-1.447 7.088-2.416 4.032-.968 7.388-1.278 7.407-1.099Z" fill="#263238"/><path d="M316.68 251.752a43.215 43.215 0 0 1-3.092-3.478 111.238 111.238 0 0 0-7.774-8.065 112.378 112.378 0 0 0-8.564-7.219c-2.284-1.739-3.76-2.754-3.684-2.82.395.146.768.345 1.109.592.686.404 1.664 1.053 2.82 1.88a82.398 82.398 0 0 1 8.742 7.116 80.812 80.812 0 0 1 7.68 8.244 35.293 35.293 0 0 1 2.068 2.716c.276.313.51.66.695 1.034Z" fill="#263238"/><path d="M316.549 251.517c.075.159-3.121 1.786-7.314 3.158-4.192 1.372-7.726 1.965-7.764 1.795-.038-.169 3.412-1.052 7.52-2.425 4.108-1.372 7.482-2.698 7.558-2.528ZM308.512 226.852c.123.389.193.794.206 1.203.116 1.102.173 2.21.17 3.318a42.135 42.135 0 0 1-5.584 20.962 29.404 29.404 0 0 1-1.795 2.82 4.25 4.25 0 0 1-.771.94c-.094-.056.865-1.495 2.162-3.948a48.228 48.228 0 0 0 5.518-20.755c.103-2.801-.019-4.531.094-4.54Z" fill="#263238"/><path d="m205.441 376.143-14.505 74.128 15.595 3.657s16.92-44.039 19.063-51.024c2.143-6.984 4.606-25.784 4.606-25.784l-24.759-.977Z" fill="#FFBE9D"/><path d="m190.494 449.707-3.581 16.525s-17.682.724-18.64 3.713l31.471 9.278 7.285-25.38-16.535-4.136Z" fill="#FF725E"/><path opacity=".6" d="M197.093 467.36c.282.169.491.437.587.751.095.315.07.653-.07.951a1.285 1.285 0 0 1-1.692.535 1.42 1.42 0 0 1-.498-1.776 1.334 1.334 0 0 1 1.814-.357" fill="#fff"/><path d="m199.744 479.222.668-2.576-30.701-7.896a2.248 2.248 0 0 0-1.664 1.372l31.697 9.1ZM186.434 465.941c0 .15.724.423 1.363 1.118.639.696.874 1.448 1.034 1.42.16-.028.16-.94-.63-1.805s-1.758-.884-1.767-.733ZM182.749 466.466c-.075.141.536.574.94 1.363.404.79.338 1.533.489 1.561.15.028.479-.818 0-1.796-.48-.977-1.382-1.278-1.429-1.128ZM179.844 469.972c.132.075.545-.648.357-1.598-.188-.949-.817-1.476-.94-1.363-.122.113.235.677.367 1.467.132.789.066 1.438.216 1.494ZM187.674 462.264c0 .15.79.122 1.655.404.865.282 1.476.733 1.588.621.113-.113-.404-.828-1.419-1.147-1.015-.32-1.871-.019-1.824.122ZM188.455 458.938a3.06 3.06 0 0 0 1.598.404c.6.045 1.203.013 1.795-.094.35-.058.695-.139 1.034-.244.203-.056.396-.141.574-.254a.688.688 0 0 0 .282-.808.831.831 0 0 0-.583-.527 1.887 1.887 0 0 0-.621-.075 5.687 5.687 0 0 0-1.081.094 5.76 5.76 0 0 0-1.71.583c-.94.498-1.307 1.015-1.269 1.053.037.037.545-.32 1.438-.696a6.78 6.78 0 0 1 1.626-.432 5.62 5.62 0 0 1 .987-.057c.357 0 .639.075.686.245.047.169 0 .084-.075.169a1.486 1.486 0 0 1-.423.178 7.656 7.656 0 0 1-.94.273 9.076 9.076 0 0 1-1.683.197 11.44 11.44 0 0 0-1.635-.009Z" fill="#263238"/><path d="M188.596 459.219c.056 0 .507-.442.817-1.439a5.395 5.395 0 0 0 .226-1.795 5.54 5.54 0 0 0-.16-1.072 1.362 1.362 0 0 0-.808-1.062.799.799 0 0 0-.78.273c-.126.168-.23.351-.311.545a3.256 3.256 0 0 0-.272 1.072 3.75 3.75 0 0 0 .254 1.823c.413.94 1.015 1.326 1.043 1.279-.264-.439-.5-.894-.705-1.363a3.762 3.762 0 0 1-.122-1.627 3.35 3.35 0 0 1 .263-.94c.132-.329.329-.564.451-.498.122.066.357.357.423.658.082.308.138.623.169.94a5.808 5.808 0 0 1-.094 1.664c-.15.949-.47 1.495-.394 1.542Z" fill="#263238"/><path d="m259.049 382.12 28.66 82.72 14.232-1.635s-2.764-49.369-6.401-58.327c-3.638-8.959-10.434-25.192-10.434-25.192l-26.057 2.434Z" fill="#FFBE9D"/><path d="m285.2 459.36 3.76 16.478s-15.699 8.16-15.294 11.28l32.43-4.953-4.164-26.048-16.732 3.243Z" fill="#FF725E"/><path opacity=".6" d="M298.669 472.52a1.325 1.325 0 0 1 1.194 1.325 1.285 1.285 0 0 1-1.306 1.203 1.416 1.416 0 0 1-1.26-1.419 1.337 1.337 0 0 1 1.523-1.109" fill="#fff"/><path d="m306.105 482.146-.489-2.613-31.142 5.875a2.288 2.288 0 0 0-.94 1.955l32.571-5.217ZM288.414 475.763c0 .16.837.085 1.711.442.874.357 1.41.94 1.542.846.131-.094-.273-.94-1.335-1.363-1.062-.423-1.974-.056-1.918.075ZM285.303 477.812c0 .159.733.3 1.391.855.658.555.94 1.241 1.109 1.203.169-.037.085-.94-.752-1.626-.836-.686-1.767-.583-1.748-.432ZM284.165 482.221c.141 0 .216-.818-.357-1.607-.573-.79-1.363-.94-1.41-.837-.047.103.498.517.94 1.166.442.648.667 1.297.827 1.278ZM287.972 471.919c.094.132.781-.225 1.674-.338.893-.113 1.654 0 1.711-.113.056-.113-.724-.583-1.777-.442-1.053.141-1.702.78-1.608.893ZM287.277 468.582a3.126 3.126 0 0 0 1.607-.32 6.948 6.948 0 0 0 1.589-.846c.296-.2.576-.423.836-.667.164-.133.303-.292.414-.47a.716.716 0 0 0-.085-.856.948.948 0 0 0-.761-.225 2.278 2.278 0 0 0-.592.197 6.369 6.369 0 0 0-.94.536 6.005 6.005 0 0 0-1.307 1.269 2.758 2.758 0 0 0-.695 1.485c.084 0 .347-.517 1.005-1.241a6.36 6.36 0 0 1 1.279-1.081c.281-.175.573-.332.874-.47.32-.15.611-.206.733-.075.122.132.047.075 0 .188-.086.13-.191.247-.31.348-.24.232-.494.449-.761.649-.451.341-.933.64-1.439.893-.497.196-.98.425-1.447.686Z" fill="#263238"/><path d="M287.54 468.761c.066 0 .263-.602.132-1.636a5.494 5.494 0 0 0-.564-1.72 5.372 5.372 0 0 0-.593-.94 1.355 1.355 0 0 0-1.184-.621.777.777 0 0 0-.592.583 2.058 2.058 0 0 0-.047.621c.01.372.079.74.207 1.09a3.755 3.755 0 0 0 1.005 1.532c.79.715 1.486.771 1.486.715 0-.057-.574-.282-1.204-.997a3.566 3.566 0 0 1-.799-1.419 3.035 3.035 0 0 1-.15-.94c0-.357.056-.658.188-.649a.942.942 0 0 1 .667.423c.217.247.409.515.574.799.278.486.487 1.008.62 1.551.207.987.151 1.608.254 1.608ZM215.855 300.341l42.216-1.636s1.043 25.653.94 32.402c-.104 6.749-13.348 26.555-13.348 26.555l-12.465 29.478-33.981-10.124 6.543-46.135s8.563-24.759 9.889-29.751c.098-.274.152-.563.159-.855" fill="#263238"/><path d="m237.899 342.923 21.15 45.214 32.966-8.761-13.442-41.275s-1.194-20.962-1.937-25.794c-.742-4.831-.883-5.715-.883-5.715l-19.308-10.537-30.494 6.58s7.53 30.766 11.948 40.288Z" fill="#263238"/><path d="M233.264 333.006a30.38 30.38 0 0 1 2.05 3.854 439.165 439.165 0 0 1 4.53 9.503c1.711 3.723 3.281 7.107 4.362 9.569a30.663 30.663 0 0 1 1.645 4.052 30.502 30.502 0 0 1-2.049-3.854 399.64 399.64 0 0 1-4.531-9.504c-1.711-3.731-3.281-7.115-4.371-9.578a27.905 27.905 0 0 1-1.636-4.042ZM281.317 346.607c.066.16-3.412 1.721-7.849 3.253-4.436 1.532-8.131 2.462-8.178 2.303-.047-.16 3.554-1.373 7.972-2.905 4.418-1.532 7.99-2.811 8.055-2.651Z" fill="#455A64"/><path d="M282.906 353.338a14.149 14.149 0 0 1-2.989 1.692 51.154 51.154 0 0 1-7.746 2.943 42.08 42.08 0 0 1-2.284.611l-1.1.253a2.153 2.153 0 0 1-1.222 0 1.689 1.689 0 0 1-.884-.799 5.826 5.826 0 0 1-.404-.94 15.256 15.256 0 0 1-.517-1.673 8.954 8.954 0 0 1-.376-3.431c.104 0 .198 1.307.809 3.309.163.542.355 1.075.573 1.598.226.555.498 1.203.987 1.363a5.15 5.15 0 0 0 1.983-.31 74.19 74.19 0 0 0 10.002-3.365 26.795 26.795 0 0 1 3.168-1.251ZM288.396 371.075c-.233.293-.509.55-.818.761a21.258 21.258 0 0 1-2.51 1.73 12.084 12.084 0 0 1-4.268 1.569 8.018 8.018 0 0 1-5.452-1.193 11.575 11.575 0 0 1-3.76-4.118 19.335 19.335 0 0 1-1.664-4.22 32.067 32.067 0 0 1-.658-2.952 4.229 4.229 0 0 1-.131-1.109c.103 0 .47 1.513 1.222 3.939a21.043 21.043 0 0 0 1.739 4.051 11.27 11.27 0 0 0 3.6 3.863 7.518 7.518 0 0 0 5.038 1.157 12.213 12.213 0 0 0 4.127-1.382c2.218-1.232 3.469-2.172 3.535-2.096Z" fill="#455A64"/><path d="M230.576 325.654a10.96 10.96 0 0 1-.865-2.773 57.697 57.697 0 0 1-1.579-13.921c-.049-.971.027-1.944.226-2.896.168.953.244 1.919.225 2.886.085 1.786.245 4.24.546 6.937.3 2.698.705 5.133 1.015 6.881.227.948.371 1.913.432 2.886Z" fill="#263238"/><path d="M273.224 309.731c.13.802.025 1.624-.301 2.369a7.632 7.632 0 0 1-9.541 4.803 4.258 4.258 0 0 1-2.096-1.166c.057-.094.827.414 2.209.734a7.712 7.712 0 0 0 9.005-4.531c.564-1.307.611-2.228.724-2.209ZM219.86 306.083a9.401 9.401 0 0 1-.479 3.017 22.124 22.124 0 0 1-3.093 6.703 22.644 22.644 0 0 1-5.085 5.348 9.89 9.89 0 0 1-2.632 1.551c-.141-.169 4.014-2.51 7.191-7.257 3.177-4.747 3.854-9.437 4.098-9.362ZM232.907 307.137s.169-.084.47 0c.437.089.826.337 1.091.696a2.016 2.016 0 0 1 .347 1.927 2.224 2.224 0 0 1-1.955 1.4 2.087 2.087 0 0 1-1.88-1.447 1.888 1.888 0 0 1 .395-1.88c.799-.865 1.617-.686 1.57-.63-.047.056-.677.141-1.213.94a1.505 1.505 0 0 0-.207 1.438 1.553 1.553 0 0 0 1.363 1.006 1.698 1.698 0 0 0 1.42-.94 1.655 1.655 0 0 0-.169-1.457c-.527-.931-1.26-.94-1.232-1.053Z" fill="#455A64"/><path d="M221.994 196.546s-12.22 7.84-13.743 12.719c-1.523 4.878-5.076 30.296-5.076 30.296l17.785 5.884s1.438-49.594 1.034-48.899Z" fill="#FF725E"/><path d="M221.994 196.546s-5.706 20.943-6.073 28.924c-.366 7.981 1.119 39.941 1.119 39.941s2.359 13.432 1.447 15.98c-.911 2.547-5.809 15.613-5.64 22.87h16.92s15.764-1.335 30.861-1.814c8.46-.273 16.694 5.085 16.694 5.085a56.733 56.733 0 0 0 0-24.327c-2.905-13.611-2.171-28.811-2.171-28.811.131 6.129-1.824-17.343-4.635-50.365-.742-8.705-2.481-17.249-11.007-17.795h-14.344c-8.489 8.122-17.635 13.621-23.171 10.312Z" fill="#FF725E"/><path d="M218.986 198.596c-4.804-2.143-7.21 1.457-7.567 2.237-.33.8-.511 1.654-.536 2.519-.602 7.868 2.444 27.129 4.785 34.658l.827-37.525 2.491-1.889Z" fill="#455A64"/><path opacity=".3" d="M244.958 216.445c2.895 7.849 5.894 15.877 11.28 22.26 2.594 3.064 5.715 5.705 7.877 9.089 1.88 3.027 3.008 6.496 4.465 9.776 1.457 3.281 3.422 6.524 6.514 8.348l-.216-19.045-10.096-23.5-19.824-6.928Z" fill="#000"/><path d="M218.788 275.956a3.688 3.688 0 0 0 0-.536c-.047-.404-.103-.94-.169-1.522a277.116 277.116 0 0 1-.649-5.64c-.517-4.7-1.09-11.28-1.438-18.556a309.689 309.689 0 0 1-.329-18.621c0-2.379.066-4.306.104-5.64v-1.542c.02-.178.02-.358 0-.536-.05.174-.076.355-.076.536 0 .404-.065.94-.122 1.532-.094 1.326-.178 3.262-.254 5.64-.15 4.775-.159 11.374.188 18.65.348 7.275.94 13.846 1.589 18.574.301 2.369.574 4.287.79 5.64.113.611.197 1.109.263 1.514.01.173.045.344.103.507ZM256.52 271.811c-.397.11-.781.261-1.147.451l-3.074 1.344a131.087 131.087 0 0 1-10.34 3.967 141.736 141.736 0 0 1-10.612 3.092l-3.262.781a5.6 5.6 0 0 0-1.184.338 6.14 6.14 0 0 0 1.222-.15c.789-.123 1.88-.339 3.299-.64a99.944 99.944 0 0 0 10.697-2.951 103.016 103.016 0 0 0 10.293-4.117 65.915 65.915 0 0 0 3.018-1.495 6.176 6.176 0 0 0 1.09-.62Z" fill="#263238"/><path d="M262.705 184.137a14.29 14.29 0 0 0-8.629-1.222c-2.82.47-6.476 1.758-8.761 5.132-4.211 6.214-6.58 13.264-2.82 23.632 4.635 12.812 21.62 29.798 21.62 29.798L250.25 214.17a24.77 24.77 0 0 1-1.955-17.766c1.25-4.569 3.882-8.789 9.259-9.212 3.713-.94 7.445.46 10.998 3.675-.404-2.077-2.124-4.907-5.847-6.73Z" fill="#455A64"/><path opacity=".7" d="M236.78 238.949a1.167 1.167 0 0 0 .752.94c1.357.545 2.816.792 4.277.724.555.056-.677.987-1.457 1.222a2.823 2.823 0 0 1-2.707-.207c-.517-.329-.62-.715-1.41-.724-.79-.009-.16 1.213 1.034 1.203a7.28 7.28 0 0 1 1.654.132c.217.056.254.141.085.291-.428.455-.975.78-1.579.94-2.557.386-3.224-2.491-3.76-3.967-.075-.385-.151-.77-.216-1.156-.715-3.76-1.41-7.2-1.946-9.663a24.325 24.325 0 0 0-1.006-3.967c.045 1.367.215 2.726.508 4.061a365.393 365.393 0 0 0 1.739 9.701c.235 1.344.507 2.622.808 3.835v.169a3.533 3.533 0 0 1-2.388 2.331 2.005 2.005 0 0 1-.263.094c-1.541.235-1.946-.075-2.575-.742-.113-.122 0-.254.103-.245a1.88 1.88 0 0 0 1.936-.648c.687-.799.94-2.134.358-2.078-1.345.132-1.786 2.106-3.488 2.67a2.093 2.093 0 0 1-2.171-.442 1.568 1.568 0 0 1-.395-.47c-.244-.489.169-.188 1.288-.46a2.942 2.942 0 0 0 1.983-1.373c.94-1.4 1.72-1.494 1.438-1.711-.432-.329-1.72.828-2.989 1.006a3.486 3.486 0 0 1-2.923-.677 2.375 2.375 0 0 1-.545-1.137 3.261 3.261 0 0 1 .178-2.265.14.14 0 1 1 .282 0 3.17 3.17 0 0 0 1.185 1.72c1.005.733 3.609.611 4.23-.639.188-.395-.188-.602-.621-.668-1.382-.225-2.34.536-4.784-.714a3.459 3.459 0 0 1-1.824-2.059 3.212 3.212 0 0 1-.197-1.071c0-.207.272-.207.47-.16a5.572 5.572 0 0 1 1.936 1.175 13.164 13.164 0 0 0 2.491 1.438c.94.348 2.115-.273 1.701-.639-.996-.874-2.03-.423-3.374-1.025-1.344-.601-2.952-1.946-3.018-3.581 0-.629.041-1.257.123-1.88 0-.263.159-.31.253-.226a7.57 7.57 0 0 0 1.956 1.88c.5.43.942.923 1.316 1.467 1.457 1.88 3.675 1.551 3.29.752-.752-1.58-5.321-1.551-5.509-5.415 0-.423.066-2.218.47-1.814.049.049.093.103.132.16.268.491.687.882 1.194 1.118 1.786 1.053 1.729 1.617 2.726 3.102a1.752 1.752 0 0 0 1.541.696c.433 0 .254-.573 0-.94-1.034-1.495-4.38-2.247-4.465-5.339 0-.611.329-1.937.668-1.448a5.17 5.17 0 0 0 1.814 2.378 3.88 3.88 0 0 1 1.391 1.288c.132.207.376.611.564.489.188-.122.085-.31 0-.705a7.925 7.925 0 0 0-1.504-1.777 4.414 4.414 0 0 1-1.429-2.03c-.272-.94.414-1.777.583-1.288.169.489.592 2.679 1.88 3.018a.181.181 0 0 0 .115.002.183.183 0 0 0 .092-.068c.244-.31.122-.583-.122-.94a4.75 4.75 0 0 1-.94-3.271c0-.235 0-.405.404-.329 1.513.291 2.575-.32 2.876 1.334.329 1.824-.583 2.661-.188 3.366.066.122.151.141.282.084.173-.084.321-.21.433-.366a5.777 5.777 0 0 0 .714-3.168c0-.762 0-.639-.132-.884 0-.066-.056-.122 0-.188.198-.207 1.222.508 1.392 1.72.07.854-.01 1.713-.235 2.538a11.847 11.847 0 0 1-.875 2.303c-.169.386-.188 1.081.226.94 1.297-.31 1.739-2.669 2.134-3.882.331-.79.614-1.6.846-2.425v-.179c.197-.526.752.828.94 1.382a4.452 4.452 0 0 1-.057 2.021c-.658 3.422-2.425 3.986-2.885 5.64-.047.179 0 .329.159.367a1.815 1.815 0 0 0 1.363-.451c2.209-1.504 2.82-3.817 2.82-6.486 0-.828 2.322 1.156 1.88 3.036-.441 1.88-1.344 2.688-3.092 4.587a4.892 4.892 0 0 0-.94 1.109c-.113.216-.122.357.113.339 1.673-.132 2.209-2.2 3.036-3.262.94-1.203 1.269-1.532 1.372-2.106.132-.771.997.31 1.241 1.015.173.475.215.986.122 1.482a2.81 2.81 0 0 1-.648 1.338c-2.36 2.98-3.826 2.82-4.259 3.76-.056.113 0 .16.085.17.808.075 1.278-.339 2.294-.593.235-.056.46-.141.686-.216 1.767-.648 2.604-4.051 3.224-3.403.198.29.353.607.461.94.441 1.232-.696 2.943-1.749 3.76a5.3 5.3 0 0 1-1.739.715 8.165 8.165 0 0 0-2.199.818c-.348.159-.743.441-.442.676a2.38 2.38 0 0 0 1.88.461c.222-.036.438-.106.639-.207 1.034-.432 1.523-1.156 2.585-1.795.222-.12.455-.218.696-.292.05-.005.1-.005.15 0 .254 0 .291.047.301.292a4.487 4.487 0 0 1-.461 1.72 3.153 3.153 0 0 1-1.071 1.231c-.45.316-.969.516-1.514.583a6.214 6.214 0 0 1-.836.132c-1.307-.01-3.037-1.044-2.971 0Zm-6.439-2.125c-.131.076-.282.292-.103.452a1.035 1.035 0 0 0 1.09-.057c.489-.348-.254-.808-.94-.395h-.047Zm0-2.218a4.224 4.224 0 0 1-.423.16c-.329.141-.639.611-.254.94.63.545 2.379 0 1.768-.809-.226-.347-.668-.31-1.053-.291h-.038Zm-.761-1.767a.406.406 0 0 0-.17.368.412.412 0 0 0 .226.337 1.239 1.239 0 0 0 1.119.094c.855-.282-.16-1.382-1.138-.818l-.037.019Zm-.273-2.162a1.096 1.096 0 0 0 1.203.432c.47-.131.17-.789-.667-.827-.254-.009-.649.16-.498.395h-.038Zm3.713 1.09c1.88-.272 1.448-2.265-.216-.78a.592.592 0 0 0-.197.432c-.029.245.244.376.413.348Zm2.059 1.636a.545.545 0 0 0-.451-.94c-.64.066-1.88.883-1.495 1.429.385.545 1.466.028 1.946-.489Zm.197 2.237.169-.16a.473.473 0 0 0 .141-.291c.066-.348-.31-.451-.564-.404-.52.04-1.01.263-1.381.629a.324.324 0 0 0-.02.483c.045.042.1.07.161.081a1.877 1.877 0 0 0 1.494-.338Zm.677.94a.937.937 0 0 0-.583 0c-1.006.207-1.231.855-.865.996a1.881 1.881 0 0 0 1.401-.357c.367-.216.31-.526.047-.639Z" fill="#fff"/><path d="M250.448 246.714a9.074 9.074 0 0 1-2.679.94 7.25 7.25 0 0 1-3.271-.264 2.687 2.687 0 0 1-1.617-1.052.865.865 0 0 1 .084-.94.599.599 0 0 1 .865 0 1.8 1.8 0 0 1 .564.94c.075.41.075.83 0 1.24a3.855 3.855 0 0 1-1.335 2.256 3.756 3.756 0 0 1-2.66.818 3.366 3.366 0 0 1-2.547-1.363 1.876 1.876 0 0 1-.329-1.391 1.54 1.54 0 0 1 .94-1.072 1.042 1.042 0 0 1 1.231.461c.253.475.351 1.017.282 1.551-.338 2.171-2.303 4.399-4.7 4.446a3.753 3.753 0 0 1-2.98-1.579 3.107 3.107 0 0 1-.601-1.56 1.967 1.967 0 0 1 .442-1.495.669.669 0 0 1 .581-.287.67.67 0 0 1 .556.334c.268.466.407.995.404 1.532a5.514 5.514 0 0 1-.705 3.093 4.011 4.011 0 0 1-5.076 1.72 3.128 3.128 0 0 1-1.566-1.905 3.131 3.131 0 0 1 .307-2.447 1.88 1.88 0 0 1 1.833-.884c.303.096.563.296.734.564.172.267.245.587.206.903a3.769 3.769 0 0 1-.452 1.692 6.45 6.45 0 0 1-.846 1.25 7.526 7.526 0 0 1-2.237 1.711h.179a5.954 5.954 0 0 0 2.199-1.542 6.21 6.21 0 0 0 .94-1.269 3.826 3.826 0 0 0 .517-1.795 2.144 2.144 0 0 0-.225-1.053 1.437 1.437 0 0 0-.94-.724 2.197 2.197 0 0 0-2.2.996 3.492 3.492 0 0 0 .273 4.011c.301.371.676.676 1.1.896a4.417 4.417 0 0 0 5.64-1.88 5.936 5.936 0 0 0 .789-3.346c0-.626-.169-1.239-.489-1.777a1.207 1.207 0 0 0-.94-.536 1.267 1.267 0 0 0-.94.442 2.986 2.986 0 0 0 .123 3.666 4.223 4.223 0 0 0 3.374 1.777 5.058 5.058 0 0 0 3.488-1.579 5.87 5.87 0 0 0 1.701-3.309 2.935 2.935 0 0 0-.357-1.88 1.507 1.507 0 0 0-1.777-.649 2.003 2.003 0 0 0-1.212 1.41 2.31 2.31 0 0 0 .404 1.749 3.859 3.859 0 0 0 2.895 1.541 4.12 4.12 0 0 0 4.39-3.44 3.777 3.777 0 0 0 0-1.382 2.115 2.115 0 0 0-.705-1.166 1.16 1.16 0 0 0-.658-.272.838.838 0 0 0-.36.069.841.841 0 0 0-.298.213 1.17 1.17 0 0 0-.132 1.259 2.822 2.822 0 0 0 1.814 1.175c1.097.333 2.257.4 3.384.198a7.022 7.022 0 0 0 2.031-.696c.199-.085.388-.193.564-.319Z" fill="#fff"/><path d="M256.041 216.775c.272.621 20.943 40.148 20.943 40.148l5.433 57.537 12.389-1.645s4.014-51.794 1.279-59.699c-2.736-7.906-16.422-43.24-16.422-43.24s-11.929-25.174-19.909-22.636c-7.981 2.538-10.839 13.189-3.713 29.535Z" fill="#FFBE9D"/><path d="M254.405 187.587s-6.514 7.162-6.665 15.171c-.15 8.009 16.375 38.719 16.375 38.719l27.063-14.533s-21.667-50.233-36.773-39.357Z" fill="#FF725E"/><path d="m282.276 313.464-3.13 13.761 2.387 12.22s3.441.104 2.773-2.444c0 0 1.796 1.326 2.698.621a3.944 3.944 0 0 0 1.203-1.984s1.175 1.73 2.585.724 1.354-1.729 1.344-2.021c-.009-.291 1.119.047 2.078-.752a1.754 1.754 0 0 0 .564-1.88s1.88-.179 2.284-.818a5.169 5.169 0 0 0 .451-1.992s.151-3.309-.329-3.685c-.479-.376-1.438-.094-1.438-.094l-.207-2.369s.893-3.657.696-5.067c-.198-1.41-2.115-7.313-2.115-7.313l-11.844 3.093Z" fill="#FFBE9D"/><path d="M280.02 332.46c.122-.113 1.231.874 2.472 2.218 1.241 1.345 2.134 2.529 2.002 2.651-.131.122-1.24-.874-2.472-2.218-1.231-1.344-2.115-2.576-2.002-2.651ZM283.714 330.581c.16-.094 1.109 1.259 2.472 2.735s2.632 2.557 2.519 2.707c-.112.151-1.569-.733-2.989-2.274-1.419-1.542-2.152-3.168-2.002-3.168ZM287.54 329.96c.141-.104 1.147 1.006 2.453 2.293 1.307 1.288 2.416 2.285 2.303 2.435-.113.15-1.419-.649-2.754-1.983-1.335-1.335-2.162-2.642-2.002-2.745ZM290.097 327.205c.141-.113 1.146.997 2.444 2.284 1.297 1.288 2.425 2.294 2.312 2.444-.113.151-1.419-.658-2.754-1.983-1.335-1.325-2.143-2.651-2.002-2.745ZM295.276 328.907c-.178 0-.366-.94-.235-2.124.132-1.184.536-2.059.696-2.012.159.047.056.94-.066 2.087-.122 1.147-.216 2.04-.395 2.049Z" fill="#EB996E"/><path d="M249.141 211.68c.072.205.157.406.254.601.197.433.46.94.789 1.683l3.018 6.176 10.105 20.275.592 1.175.113.226.225-.122 19.139-10.34 5.743-3.234 1.542-.883c.181-.096.354-.206.517-.329a2.635 2.635 0 0 0-.564.244l-1.589.808-5.809 3.027-19.176 10.293.338.113c-.188-.376-.394-.78-.592-1.184l-10.236-20.21c-1.316-2.538-2.379-4.606-3.149-6.101l-.884-1.645a2.686 2.686 0 0 0-.376-.573ZM295.539 322.749l6.825-3.017a1.809 1.809 0 0 1 2.369.874 1.835 1.835 0 0 1 .047 1.421 1.826 1.826 0 0 1-.987 1.023l-8.799 3.826.545-4.127Z" fill="#263238"/><path d="M114.834 429.486c.153.223.323.433.507.63.348.404.884.987 1.589 1.702.866.874 1.79 1.69 2.763 2.444a15.048 15.048 0 0 0 4.287 2.368 8.298 8.298 0 0 0 5.903-.197c2.002-.884 3.666-2.51 5.64-3.76a7.694 7.694 0 0 1 3.271-1.325 6.818 6.818 0 0 1 3.572.658c2.313 1.071 4.249 2.998 6.533 4.577a9.723 9.723 0 0 0 3.76 1.749 5.66 5.66 0 0 0 2.068 0 5.245 5.245 0 0 0 1.88-.686c2.331-1.373 3.76-3.563 5.734-4.813a5.505 5.505 0 0 1 3.168-.94 7.605 7.605 0 0 1 3.046.874 26.058 26.058 0 0 1 4.7 3.497 12.71 12.71 0 0 0 4.192 2.528c1.2.375 2.483.395 3.694.057a4.188 4.188 0 0 0 1.984-1.241c.132-.151.249-.314.347-.489a.848.848 0 0 0 .094-.188s-.15.245-.517.611a4.141 4.141 0 0 1-1.964 1.119 6.437 6.437 0 0 1-3.553-.122 12.705 12.705 0 0 1-4.052-2.538 26.149 26.149 0 0 0-4.7-3.591 7.942 7.942 0 0 0-3.215-.94 5.967 5.967 0 0 0-3.431.94c-2.077 1.316-3.525 3.506-5.724 4.766a4.703 4.703 0 0 1-1.758.629 5.165 5.165 0 0 1-1.88 0 9.522 9.522 0 0 1-3.572-1.663c-2.237-1.551-4.174-3.497-6.58-4.625a7.236 7.236 0 0 0-3.835-.677 8.033 8.033 0 0 0-3.45 1.41c-2.012 1.335-3.638 2.952-5.555 3.76a7.849 7.849 0 0 1-5.64.244 15.169 15.169 0 0 1-4.23-2.256 31.931 31.931 0 0 1-2.82-2.359 68.52 68.52 0 0 1-1.645-1.636 6.027 6.027 0 0 0-.611-.517Z" fill="#E0E0E0"/><path d="M58.302 459.295a37.087 37.087 0 0 0 72.681-14.795c-4.089-20.069-23.81-33.69-43.738-28.943-19.562 4.653-33.032 23.66-28.943 43.738Z" fill="#FF725E"/><path d="M127.74 442.441a1.73 1.73 0 0 0-.066-.404c-.065-.31-.15-.677-.253-1.128a10.44 10.44 0 0 0-.574-1.758c-.122-.338-.263-.695-.404-1.071-.141-.376-.367-.752-.573-1.157a30.424 30.424 0 0 0-3.431-5.329 45.58 45.58 0 0 0-5.368-5.64 54.166 54.166 0 0 0-6.241-4.625 42.486 42.486 0 0 0-5.64-2.924l-1.185-.498-1.09-.366a15.222 15.222 0 0 0-1.758-.536l-1.128-.263a1.263 1.263 0 0 0-.404-.066c.122.062.252.109.385.141l1.1.348a16.56 16.56 0 0 1 1.73.592l1.062.404 1.175.517a47.278 47.278 0 0 1 5.527 2.98 55.89 55.89 0 0 1 6.166 4.615 47.907 47.907 0 0 1 5.33 5.546 32.059 32.059 0 0 1 3.469 5.217 32.702 32.702 0 0 1 2.171 5.405ZM129.235 448.439c.113 0 .141-.705.056-1.561-.084-.855-.244-1.532-.357-1.522-.113.009-.141.714-.066 1.569.075.856.245 1.533.367 1.514Z" fill="#fff"/><path d="M90.469 479.768a1.87 1.87 0 0 0-.235-.348l-.743-.94-.545-.667c-.188-.254-.376-.546-.592-.846a23.144 23.144 0 0 1-1.373-2.087c-.235-.404-.48-.818-.742-1.25-.264-.433-.46-.94-.715-1.41-.517-.94-.94-2.05-1.39-3.178a36.544 36.544 0 0 1-2.238-15.641c.132-1.213.226-2.378.451-3.441.104-.535.17-1.052.292-1.551l.357-1.41c.203-.807.448-1.604.733-2.387.122-.348.216-.677.329-.94l.338-.799.452-1.109c.057-.13.101-.266.131-.405a1.56 1.56 0 0 0-.207.367l-.526 1.081c-.113.244-.235.508-.376.79-.141.282-.226.62-.357.94a20.161 20.161 0 0 0-.8 2.387c-.13.451-.253.94-.394 1.41-.141.47-.207 1.025-.32 1.561a33.313 33.313 0 0 0-.488 3.478 38.339 38.339 0 0 0 .225 8.037 38.777 38.777 0 0 0 2.03 7.773c.49 1.138.94 2.238 1.448 3.196.254.489.48.94.743 1.41l.77 1.251c.444.713.924 1.404 1.439 2.068.216.3.413.582.62.827l.574.648.808.893c.09.108.19.206.3.292ZM60.925 442.385c.056.066 1.11-.78 3.008-1.786a23.657 23.657 0 0 1 3.46-1.504 26.78 26.78 0 0 1 4.483-1.09 27.076 27.076 0 0 1 4.615-.216 24.39 24.39 0 0 1 3.76.47c2.106.442 3.356.94 3.384.874a3.75 3.75 0 0 0-.855-.395 8.725 8.725 0 0 0-1.053-.376 14.042 14.042 0 0 0-1.41-.395 21.035 21.035 0 0 0-3.76-.564 25.206 25.206 0 0 0-4.7.188 24.68 24.68 0 0 0-4.559 1.138 21.71 21.71 0 0 0-3.478 1.607c-.48.254-.883.536-1.24.771a8.768 8.768 0 0 0-.94.658 3.629 3.629 0 0 0-.715.62ZM87.668 419.213a2.997 2.997 0 0 0-.385.601 16.327 16.327 0 0 0-.837 1.768 21.204 21.204 0 0 0-.94 12.652c.14.639.325 1.268.555 1.88.061.233.16.455.291.658.066 0-.254-.94-.555-2.585a23.68 23.68 0 0 1 .94-12.493c.536-1.541.997-2.444.931-2.481ZM119.807 448.898a6.86 6.86 0 0 0-.846-1.053 11.59 11.59 0 0 0-1.081-1.156c-.492-.5-1.01-.973-1.551-1.419l-.94-.781c-.329-.263-.705-.507-1.072-.78-.733-.554-1.589-1.034-2.472-1.57a30.77 30.77 0 0 0-12.728-3.891 28.232 28.232 0 0 0-2.923-.066h-1.326l-1.222.122a20.51 20.51 0 0 0-2.077.32c-.521.081-1.036.197-1.542.348-.438.1-.868.232-1.287.394 0 .104 1.88-.479 4.935-.761l1.212-.094h1.307c.963-.012 1.926.026 2.886.113 2.2.208 4.376.63 6.495 1.259a33.917 33.917 0 0 1 6.082 2.576c.874.517 1.729.94 2.463 1.523.366.263.742.489 1.071.752l.94.752c2.397 1.964 3.6 3.478 3.676 3.412ZM97.773 458.768c.047-.056-.94-.78-2.294-2.134a29.57 29.57 0 0 1-4.615-5.922 29.028 29.028 0 0 1-2.933-6.918c-.508-1.88-.677-3.055-.752-3.046a3.392 3.392 0 0 0 0 .846c.095.766.233 1.525.414 2.275a25.976 25.976 0 0 0 7.632 12.981 21.167 21.167 0 0 0 1.786 1.467c.233.184.489.335.762.451ZM79.095 430.391c-.075.103 1.654 1.381 3.375 3.374 1.72 1.993 2.773 3.864 2.886 3.807a12.366 12.366 0 0 0-2.567-4.089 12.076 12.076 0 0 0-3.694-3.092ZM77.45 444.97a26.571 26.571 0 0 1 3.121-2.886 25.603 25.603 0 0 1 3.76-1.965 7.826 7.826 0 0 0-4.014 1.626 7.893 7.893 0 0 0-2.867 3.225ZM98.722 425.465a2.344 2.344 0 0 0-.61.291c-.377.207-.94.536-1.552.94a27.472 27.472 0 0 0-4.53 4.023 27.158 27.158 0 0 0-3.516 4.926c-.367.686-.649 1.25-.809 1.645a2.16 2.16 0 0 0-.225.639c.066 0 .489-.827 1.297-2.134a33.593 33.593 0 0 1 3.572-4.794 34.367 34.367 0 0 1 4.39-4.06c.686-.457 1.348-.95 1.983-1.476Z" fill="#263238"/><path d="M86.728 437.082a2.378 2.378 0 1 1-.066 0" fill="#fff"/><path d="M23 488.5c0 .269 111.935.5 249.984.5 138.05 0 250.016-.231 250.016-.5s-111.92-.5-250.016-.5S23 488.212 23 488.5Z" fill="#263238"/><path d="M373.032 29.831c-.47-3.44 4.38-6.27 8.028-6.58 1.739-.141 3.543.122 5.198-.451 3.562-1.241 4.991-5.856 8.46-7.323 2.604-1.1 5.64-.122 8.121 1.147 2.482 1.269 5.02 2.867 7.84 3.046 2.463.16 5.123-.752 7.266.45 1.608.94 2.444 2.736 3.92 3.827a9.286 9.286 0 0 0 5.114 1.381c1.793-.042 3.578.251 5.264.865 1.635.743 2.979 2.472 2.641 4.23l-61.852-.592ZM11.047 21.841c-.696-5.066 6.458-9.24 11.835-9.672 2.566-.207 5.226.188 7.66-.668 5.265-1.88 7.37-8.629 12.503-10.8C46.889-.916 51.307.522 55.03 2.402c3.722 1.88 7.398 4.23 11.562 4.494 3.619.235 7.52-1.11 10.706.658 2.36 1.316 3.6 4.032 5.772 5.64 2.171 1.607 4.897 1.88 7.52 2.04 2.623.16 5.367.178 7.774 1.278 2.406 1.1 4.389 3.637 3.891 6.232l-91.208-.902Z" fill="#F5F5F5"/></svg>