<svg width="413" height="413" fill="none" xmlns="http://www.w3.org/2000/svg"><path d="M352.851 202.906s-6.716-.487-6.096 14.571c.619 15.058 2.156 23.07 2.156 23.07s-.199 3.304-2.784 2.684c-2.585-.619-7.434-3.907-9.846-1.478-2.412 2.428-1.611 6.377 1.693 10.928 3.304 4.551 10.177 14.785 10.796 15.694.62.908.826 2.618-.983 2.478-1.809-.141-14.199-4.353-15.834 1.652-1.636 6.005 9.648 17.148 10.853 18.395 1.206 1.247 1.281 2.024.826 2.775-.454.752-4.509-1.049-8.078-2.098-3.568-1.049-7.888-1.652-8.541 1.9-.652 3.552 4.312 13.877 22.93 24.78l8.954 4.469 8.483-5.411c17.429-12.67 21.344-23.458 20.336-26.911-1.008-3.452-5.245-2.428-8.689-1.032-3.445 1.396-7.261 3.593-7.831 2.899-.57-.694-.578-1.495.504-2.85 1.082-1.354 11.192-13.596 8.962-19.386-2.23-5.79-14.108-.388-15.917-.041-1.809.347-1.735-1.38-1.222-2.346.512-.966 6.335-11.853 9.168-16.71 2.833-4.857 3.304-8.789.595-11.044-2.709-2.255-7.145 1.545-9.648 2.478-2.503.934-3.039-2.387-3.039-2.387s.726-8.136-.166-23.169c-.892-15.033-7.681-13.827-7.681-13.827" fill="#EBEBEB"/><path d="M353.379 216.412v.314c0 .206.041.529.074.925.058.826.133 2.024.24 3.552.206 3.089.471 7.558.776 13.084.612 11.043 1.33 26.316 2.065 43.175.736 16.858 1.421 32.139 1.966 43.191.281 5.51.512 9.978.669 13.084l.174 3.56c0 .397 0 .702.041.925.006.105.006.21 0 .314v-.314c0-.206 0-.528-.074-.925-.058-.826-.141-2.024-.24-3.552-.206-3.089-.471-7.557-.776-13.083-.611-11.044-1.33-26.317-2.065-43.184-.735-16.867-1.421-32.131-1.974-43.183-.273-5.509-.504-9.978-.661-13.084-.074-1.528-.141-2.726-.174-3.56 0-.388 0-.702-.041-.925a3.288 3.288 0 0 1 0-.314Z" fill="#E0E0E0"/><path d="M342.897 246.57c.204.131.39.286.554.463.347.314.826.785 1.421 1.371 1.189 1.165 2.775 2.825 4.493 4.692l4.378 4.79 1.338 1.446c.174.166.33.352.463.553a2.703 2.703 0 0 1-.562-.454 56.267 56.267 0 0 1-1.413-1.371c-1.173-1.189-2.734-2.866-4.452-4.733l-4.419-4.758-1.338-1.437a3.085 3.085 0 0 1-.463-.562ZM356.436 259.596c-.067-.066 3.204-3.502 7.31-7.665 4.105-4.163 7.491-7.484 7.566-7.434.074.049-3.213 3.494-7.319 7.657-4.105 4.163-7.491 7.508-7.557 7.442ZM356.395 285.548c.191-.158.402-.292.627-.396l1.751-.991a207.807 207.807 0 0 0 5.716-3.304c2.197-1.322 4.13-2.635 5.576-3.577l1.652-1.115c.196-.152.409-.279.636-.38a2.932 2.932 0 0 1-.562.487c-.372.29-.917.711-1.611 1.206a85.746 85.746 0 0 1-5.525 3.676 93.794 93.794 0 0 1-5.782 3.255c-.76.388-1.372.693-1.809.892a3.339 3.339 0 0 1-.669.247ZM341.56 276.463c.217.07.426.167.619.289.388.206.942.52 1.652.9a350.34 350.34 0 0 1 5.286 3.09 301.111 301.111 0 0 1 5.246 3.18l1.569.991c.197.113.38.249.545.405a2.481 2.481 0 0 1-.619-.29c-.389-.206-.942-.512-1.652-.9a348.98 348.98 0 0 1-5.295-3.089 333.654 333.654 0 0 1-5.237-3.172 64.308 64.308 0 0 1-1.569-.999 3.133 3.133 0 0 1-.545-.405ZM338.66 299.367c.273.103.535.23.785.38l2.09 1.157c1.751.983 4.13 2.362 6.806 3.898a337.178 337.178 0 0 1 6.765 3.998l2.032 1.239c.255.144.496.313.718.504a5.268 5.268 0 0 1-.826-.388l-2.081-1.148c-1.751-.983-4.13-2.363-6.815-3.907a354.49 354.49 0 0 1-6.756-3.99l-2.041-1.272a3.813 3.813 0 0 1-.677-.471ZM357.427 310.146a5.3 5.3 0 0 1 .784-.528l2.173-1.322a276.844 276.844 0 0 0 7.12-4.469 261.377 261.377 0 0 0 6.963-4.699l2.098-1.454c.257-.197.534-.366.826-.504-.225.22-.465.424-.718.611-.471.372-1.165.901-2.032 1.545a129.398 129.398 0 0 1-6.914 4.791 176.518 176.518 0 0 1-7.186 4.386c-.934.537-1.702.958-2.23 1.23a5.726 5.726 0 0 1-.884.413ZM370.89 325.602h-24.78l8.087 61.214h8.607l8.086-61.214Z" fill="#E0E0E0"/><path d="M347.399 333.126s0 .082.133.214c.162.188.365.335.594.43a3.02 3.02 0 0 0 2.619-.322c.999-.554 1.875-1.652 3.213-2.115a7.084 7.084 0 0 1 4.559.091 19.598 19.598 0 0 1 4.238 2.057c1.11.69 2.263 1.308 3.452 1.85a9.813 9.813 0 0 0 2.544.735c.239.032.479.049.719.05h.256a12.512 12.512 0 0 1-3.403-1.025 32.77 32.77 0 0 1-3.37-1.908 19.009 19.009 0 0 0-4.32-2.122 7.271 7.271 0 0 0-4.807-.05 6.323 6.323 0 0 0-1.809 1.115c-.447.4-.922.767-1.421 1.099a2.917 2.917 0 0 1-2.412.421 2.49 2.49 0 0 1-.785-.52ZM348.3 344.443s.198-.256.586-.661a5.581 5.581 0 0 1 1.983-1.255 8.836 8.836 0 0 1 3.486-.562c1.448.111 2.887.31 4.311.595 1.453.279 2.94.341 4.411.181a12.297 12.297 0 0 0 3.478-.991 11.4 11.4 0 0 0 2.089-1.247 3.2 3.2 0 0 0 .661-.595 22.173 22.173 0 0 1-2.866 1.578 12.844 12.844 0 0 1-3.403.884 15.119 15.119 0 0 1-4.304-.215 33.442 33.442 0 0 0-4.369-.562 8.85 8.85 0 0 0-3.56.628 5.229 5.229 0 0 0-1.991 1.412 3.233 3.233 0 0 0-.372.554c-.115.132-.148.206-.14.256ZM368.083 350.43a1.994 1.994 0 0 0-.686-.347 7.056 7.056 0 0 0-2.048-.446 13.409 13.409 0 0 0-3.106.182c-1.157.182-2.396.504-3.692.776a15.31 15.31 0 0 1-3.693.422 8.125 8.125 0 0 1-2.932-.636 6.947 6.947 0 0 1-2.222-1.652c.1.238.243.457.421.644.463.528 1.024.96 1.652 1.272a8.086 8.086 0 0 0 3.032.743c1.275.034 2.55-.1 3.791-.396 1.313-.273 2.544-.603 3.676-.826.995-.194 2.009-.28 3.023-.256.946.059 1.88.234 2.784.52ZM350.488 358.922a4.126 4.126 0 0 1 2.412-.24c.86.216 1.692.532 2.478.942a9.668 9.668 0 0 0 9.202-.479 8.626 8.626 0 0 0 1.47-1.132c.306-.322.454-.504.438-.529-.656.513-1.343.984-2.057 1.413a10.141 10.141 0 0 1-5.782 1.222c-2.346-.132-4.13-1.536-5.782-1.718a3.65 3.65 0 0 0-1.867.157 1.336 1.336 0 0 0-.512.364ZM351.876 370.676a4.829 4.829 0 0 0 2.065-.413c1.239-.413 2.784-1.372 4.584-2.09a7.47 7.47 0 0 1 2.635-.545 4.827 4.827 0 0 1 2.115.479 4.59 4.59 0 0 1 1.528 1.321s0-.206-.231-.52a3.306 3.306 0 0 0-1.165-1.049 4.833 4.833 0 0 0-2.247-.603 7.42 7.42 0 0 0-2.775.545c-1.867.743-3.362 1.726-4.551 2.197-1.19.471-1.958.611-1.958.678ZM353.091 376.144a5.621 5.621 0 0 0 1.569.504c2.584.622 5.241.883 7.897.777a6.134 6.134 0 0 0 1.652-.19c0-.124-2.478 0-5.576-.323-3.097-.322-5.517-.892-5.542-.768Z" fill="#F5F5F5"/><path d="M381.331 28.299V94.13h-85.028l-3.065-65.37 88.093-.462Z" fill="#E0E0E0"/><path d="M293.238 28.687V94.13h85.029V28.687h-85.029Z" fill="#fff"/><path d="M378.589 94.453h-85.673v-66.08h85.673v66.08Zm-85.029-.644h84.384v-64.8H293.56v64.8Z" fill="#E0E0E0"/><path d="M369.057 35.41h-66.609v50.105h66.609V35.41Z" fill="#fff"/><path d="M369.057 35.41h-4.89l-13.662.108-48.057.074.157-.149V85.54l-.173-.173h66.609l-.141.14c0-15.14.058-27.654.075-36.385V35.402v13.637c0 8.748.041 21.286.074 36.468v.14H302.3h.016V35.229h.149l48.156.075h18.453l-.017.107Z" fill="#E0E0E0"/><path d="M293.23 28.53c.508.244.99.54 1.438.883a76.168 76.168 0 0 1 3.304 2.346c1.255.942 2.412 1.842 3.213 2.478.455.334.871.72 1.239 1.148a9.176 9.176 0 0 1-1.388-.958l-3.304-2.42-3.263-2.42a8.598 8.598 0 0 1-1.239-1.058ZM378.308 28.68a47.176 47.176 0 0 1-4.543 3.535 48.094 48.094 0 0 1-4.708 3.23 47.504 47.504 0 0 1 4.501-3.503 48.16 48.16 0 0 1 4.75-3.262ZM368.719 85.516a62.21 62.21 0 0 1 4.89 4.18 63.06 63.06 0 0 1 4.7 4.468 60.294 60.294 0 0 1-4.956-4.213 60.913 60.913 0 0 1-4.634-4.435ZM293.23 94.165a59.226 59.226 0 0 1 4.444-4.238 56.349 56.349 0 0 1 4.676-3.99 59.246 59.246 0 0 1-4.444 4.238 56.368 56.368 0 0 1-4.676 3.99Z" fill="#E0E0E0"/><path d="M351.818 60.01a8.032 8.032 0 0 1-6.401 6.224 8.037 8.037 0 1 1 6.401-6.225Z" fill="#F5F5F5"/><path d="M341.344 65.973c.169-.76.404-1.503.703-2.222a13.41 13.41 0 0 0 .735-5.41 7.527 7.527 0 0 0-2.354-4.741 13.705 13.705 0 0 0-1.908-1.23c.813.023 1.59.34 2.188.891a7.356 7.356 0 0 1 2.693 5.014 11.774 11.774 0 0 1-.941 5.625 6.563 6.563 0 0 1-1.116 2.073Z" fill="#E0E0E0"/><path d="M351.719 57.365c0 .182-2.164-.595-4.675.157-2.511.752-3.882 2.528-4.014 2.396-.132-.133.181-.554.826-1.206a7.135 7.135 0 0 1 3.023-1.793 7.053 7.053 0 0 1 3.51-.124c.876.198 1.363.496 1.33.57Z" fill="#E0E0E0"/><path d="M348.093 56.995c-.099 0-.058-.562-.347-1.355a3.602 3.602 0 0 0-2.127-2.258 3.607 3.607 0 0 0-3.093.226c-.743.38-1.09.826-1.173.76-.083-.066.165-.595.942-1.14a3.78 3.78 0 0 1 5.872 2.288c.207.884-.008 1.479-.074 1.479Z" fill="#E0E0E0"/><path d="M345.532 57.82c-.181 0-.049-1.139-.371-2.428-.322-1.288-.917-2.213-.768-2.329.148-.115 1.032.735 1.379 2.19.347 1.453-.091 2.568-.24 2.568Z" fill="#E0E0E0"/><path d="M345.458 55.284c0 .182-.702.223-1.363.57s-1.231.826-1.355.686c-.124-.14.223-.768 1.066-1.24.842-.47 1.685-.164 1.652-.016Z" fill="#E0E0E0"/><path d="M332.597 59.05a6.106 6.106 0 0 1-.111 9.438 6.107 6.107 0 0 1-6.758.584 6.103 6.103 0 0 1-1.73-9.278 6.104 6.104 0 0 1 8.599-.743Z" fill="#F5F5F5"/><path d="M332.878 68.194a10.084 10.084 0 0 1-1.239-1.264 10.113 10.113 0 0 0-3.361-2.42 5.684 5.684 0 0 0-4.015-.116c-.523.233-1.026.51-1.503.826-.041 0 .339-.66 1.379-1.148a5.575 5.575 0 0 1 4.32 0 8.956 8.956 0 0 1 3.428 2.635c.417.432.752.936.991 1.487Z" fill="#E0E0E0"/><path d="M330.789 58.175a9.758 9.758 0 0 0-1.561 3.188 9.521 9.521 0 0 0 .173 3.544c-.058 0-.306-.322-.52-.975a5.43 5.43 0 0 1 1.049-5.063c.47-.52.817-.735.859-.694Z" fill="#E0E0E0"/><path d="M329.219 60.455c-.041.066-.396-.157-1.024-.248a2.751 2.751 0 0 0-3.229 2.767c0 .637.165 1.025.09 1.058-.074.033-.338-.322-.421-1.041a2.936 2.936 0 0 1 .975-2.528 2.986 2.986 0 0 1 2.651-.586c.694.198.992.545.958.578Z" fill="#E0E0E0"/><path d="M328.872 62.479c-.091.107-.776-.372-1.751-.62-.975-.247-1.809-.181-1.834-.314a2.272 2.272 0 0 1 1.95-.148c1.098.28 1.726 1 1.635 1.082Z" fill="#E0E0E0"/><path d="M327.162 61.627c.124.075-.099.545-.107 1.115-.008.57.116 1.115 0 1.157-.116.041-.43-.43-.446-1.165-.017-.735.487-1.181.553-1.107Z" fill="#E0E0E0"/><path d="M332.878 56.994c-2.156-1.404-3.478-3.907-4.337-6.335a11.912 11.912 0 0 1-.099-7.583 9.904 9.904 0 0 1 5.187 5.543c.901 2.436.372 6.03-.751 8.375Z" fill="#EBEBEB"/><path d="M330.351 47.016a86.552 86.552 0 0 1 2.312 9.581l-2.312-9.581Z" fill="#fff"/><path d="M332.663 56.597a6.63 6.63 0 0 1-.388-1.396c-.231-1-.504-2.13-.826-3.386-.322-1.256-.586-2.387-.826-3.379a6.26 6.26 0 0 1-.289-1.42c.225.43.399.884.52 1.354.273.826.612 2.032.934 3.362.322 1.33.561 2.544.702 3.42.117.473.175.958.173 1.445Z" fill="#E0E0E0"/><path d="M338.313 67.898c2.52-.528 5.221.297 7.55 1.413a11.86 11.86 0 0 1 5.427 5.294 9.913 9.913 0 0 1-7.583-.256c-2.362-1.09-4.526-3.998-5.394-6.45Z" fill="#EBEBEB"/><path d="M347.11 73.151a87.205 87.205 0 0 1-8.409-5.137l8.409 5.137Z" fill="#fff"/><path d="M338.701 68.014c.447.188.871.426 1.264.71l2.957 1.834 2.982 1.8c.432.229.837.506 1.206.826a5.935 5.935 0 0 1-1.322-.586c-.826-.405-1.875-1.008-3.039-1.718a48.93 48.93 0 0 1-2.924-1.925 6.2 6.2 0 0 1-1.124-.941Z" fill="#E0E0E0"/><path d="M335.877 69.096a7.274 7.274 0 0 1-.405 4.567 7.125 7.125 0 0 1-2.825 3.544 5.857 5.857 0 0 1-.297-4.526 7.193 7.193 0 0 1 3.527-3.585Z" fill="#EBEBEB"/><path d="M333.258 74.637a52.15 52.15 0 0 1 2.569-5.303l-2.569 5.303Z" fill="#fff"/><path d="M335.827 69.334a18.053 18.053 0 0 1-1.206 2.684c-.379.91-.835 1.787-1.363 2.619.223-.97.579-1.903 1.057-2.775.378-.912.888-1.763 1.512-2.528ZM168.058 205.047H76.48V378.16h91.578V205.047Z" fill="#E0E0E0"/><path d="M140.875 205.047h-91.58V378.16h91.58V205.047Z" fill="#F5F5F5"/><path d="M134.134 240.68H55.532v-27.44h78.602v27.44Zm-77.644-.966h76.67v-25.507H56.499l-.009 25.507Z" fill="#E0E0E0"/><path d="M80.453 213.727h29.835v1.379a4.089 4.089 0 0 1-4.089 4.089H84.533a4.088 4.088 0 0 1-4.089-4.089v-1.379h.009Z" fill="#EBEBEB"/><path d="M134.134 275.537H55.532v-27.439h78.602v27.439Zm-77.644-.966h76.67v-25.507H56.499l-.009 25.507Z" fill="#E0E0E0"/><path d="M80.453 248.584h29.835v1.379a4.09 4.09 0 0 1-4.089 4.089H84.533a4.091 4.091 0 0 1-4.089-4.089v-1.379h.009Z" fill="#EBEBEB"/><path d="M134.134 310.395H55.532v-27.44h78.602v27.44Zm-77.644-.967h76.67v-25.506H56.499l-.009 25.506Z" fill="#E0E0E0"/><path d="M80.453 283.441h29.835v1.38a4.089 4.089 0 0 1-4.089 4.089H84.533a4.088 4.088 0 0 1-4.089-4.089v-1.38h.009Z" fill="#EBEBEB"/><path d="M134.134 345.269H55.532v-27.457h78.602v27.457Zm-77.644-.967h76.67v-25.523H56.499l-.009 25.523Z" fill="#E0E0E0"/><path d="M80.453 318.3h29.835v1.363a4.088 4.088 0 0 1-4.088 4.088H84.542a4.087 4.087 0 0 1-4.089-4.088v-1.38.017ZM144.707 198.57H45.24v8.624h99.467v-8.624Z" fill="#EBEBEB"/><path d="M174.616 198.57h-29.909v8.624h29.909v-8.624ZM54.111 378.16h-4.815v8.847h4.816v-8.847ZM83.848 378.16h-4.816v8.847h4.816v-8.847ZM138.165 378.16h-4.815v8.847h4.815v-8.847ZM165.324 378.16h-4.815v8.847h4.815v-8.847ZM118.432 175.699l9.26 24.318-5.757-.025-4.618-14.951 1.115-9.342Z" fill="#E0E0E0"/><path d="m86.787 153.223-3.18 46.603 32.875.702 3.701-47.305H86.787Z" fill="#EBEBEB"/><path d="m90.075 156.973-2.651 38.789 24.449 1.182 3.412-40.202-25.21.231Z" fill="#FAFAFA"/><path d="m95.444 162.457-1.982 27.266h13.48l2.379-27.266H95.444ZM116.689 23.252H48.106v113.525h68.583V23.252Z" fill="#E0E0E0"/><path d="M114.41 23.252H45.827v113.525h68.583V23.252Z" fill="#EBEBEB"/><path d="M111.494 25.557H48.751v108.916h62.743V25.557Z" fill="#FAFAFA"/><path d="M99.277 39.705H60.694v80.609h38.583V39.705Z" fill="#EBEBEB"/><path d="M60.694 91.793c-.09-7.533 6.683-14.868 14.141-15.934 3.552-.503 7.327.207 10.656-1.156 5.93-2.478 7.814-10.317 13.786-12.654l.272 58.266H60.727l-.033-28.522Z" fill="#E0E0E0"/><path d="M207.095 364.473v22.847H277.371v-22.847h-70.276Z" fill="#F5F5F5"/><path d="M204.146 358.08v6.393h75.679v-6.393h-75.679Z" fill="#E0E0E0"/><path d="M241.985 387.32h35.386v-22.847h2.453v-6.393h-39.309v5.799l1.47 23.441ZM231.173 368.156h-14.248v3.436h14.248v-3.436Z" fill="#E0E0E0"/><path d="M233.387 375.896h-18.296v7.261h18.296v-7.261Z" fill="#fff"/><path d="M217.907 335.258v22.855h70.276v-22.855h-70.276Z" fill="#F5F5F5"/><path d="M214.958 328.871v6.385h75.678v-6.385h-75.678Z" fill="#E0E0E0"/><path d="M252.798 358.112h35.386v-22.856h2.453v-6.385h-39.318v5.799l1.479 23.442ZM241.985 338.949h-14.249v3.436h14.249v-3.436Z" fill="#E0E0E0"/><path d="M244.199 346.689h-18.296v7.261h18.296v-7.261Z" fill="#fff"/><path d="M383.991 387.006c0 .124-80.667.215-180.151.215-99.483 0-180.175-.091-180.175-.215s80.651-.223 180.175-.223c99.525 0 180.151.099 180.151.223Z" fill="#263238"/><path d="M255.365 50.526h-20.65a5.128 5.128 0 0 0-5.014 5.237v3.709a5.107 5.107 0 0 1-3.055 4.797 5.109 5.109 0 0 1-1.95.431h-40.21a5.128 5.128 0 0 1-4.989-5.228v-3.759a5.114 5.114 0 0 0-1.418-3.655 5.116 5.116 0 0 0-3.587-1.581h-25.309a16.222 16.222 0 0 0-16.198 16.214l-.049 260.355a16.234 16.234 0 0 0 10.005 15.001 16.232 16.232 0 0 0 6.209 1.238l106.19.058a16.23 16.23 0 0 0 16.198-16.247l.05-260.356a16.222 16.222 0 0 0-16.223-16.214Z" fill="#fff"/><path d="M255.366 50.526h.553c.553.004 1.105.046 1.652.124 2.157.258 4.233.977 6.088 2.107a15.538 15.538 0 0 1 3.7 2.998 15.838 15.838 0 0 1 3.089 4.848 16.747 16.747 0 0 1 1.223 6.608v7.657c0 21.625 0 52.914.049 91.579.05 38.665 0 84.706 0 135.828V326.6a17.35 17.35 0 0 1-.619 4.956 16.457 16.457 0 0 1-2.073 4.576 17.592 17.592 0 0 1-3.387 3.75 16.396 16.396 0 0 1-9.367 3.643c-3.403.099-6.789 0-10.201.041h-95.741a17.097 17.097 0 0 1-10.573-2.915 16.635 16.635 0 0 1-6.435-8.888 17.98 17.98 0 0 1-.677-5.493V176.433c0-25.564 0-49.857.041-72.597V66.947c0-.652.058-1.321.099-1.974.078-.65.188-1.295.331-1.933a16.612 16.612 0 0 1 3.485-6.872 16.526 16.526 0 0 1 13.216-5.865h24.285a5.168 5.168 0 0 1 3.221.909 5.405 5.405 0 0 1 1.991 2.61 8.854 8.854 0 0 1 .33 3.205v1.619c-.013.515.004 1.031.05 1.544a5.11 5.11 0 0 0 1.198 2.685 4.822 4.822 0 0 0 2.478 1.553c.482.11.976.157 1.47.14h40.399a4.79 4.79 0 0 0 1.991-.702 5.138 5.138 0 0 0 2.272-3.304 9.317 9.317 0 0 0 .124-1.916v-1.933a11.17 11.17 0 0 1 .082-1.9 5.722 5.722 0 0 1 .611-1.734 5.088 5.088 0 0 1 2.611-2.288 8.083 8.083 0 0 1 3.229-.347h19.205-19.213a7.975 7.975 0 0 0-3.164.347 4.96 4.96 0 0 0-2.478 2.23 5.417 5.417 0 0 0-.586 1.693c-.082.619-.11 1.243-.083 1.867v1.941a9.245 9.245 0 0 1-.132 2.007 5.313 5.313 0 0 1-2.346 3.395 4.954 4.954 0 0 1-2.065.727c-.751.066-1.478 0-2.23 0H184.85a5.997 5.997 0 0 1-1.528-.149 5.089 5.089 0 0 1-2.627-1.652 5.45 5.45 0 0 1-1.28-2.858 12.918 12.918 0 0 1-.058-1.586v-1.37a8.362 8.362 0 0 0-.314-3.115 5.086 5.086 0 0 0-1.883-2.478 4.864 4.864 0 0 0-3.031-.826h-24.285a16.787 16.787 0 0 0-7.087 1.338 16.517 16.517 0 0 0-5.889 4.42 16.186 16.186 0 0 0-3.304 6.731c-.165.62-.215 1.264-.322 1.9-.108.636-.083 1.28-.091 1.933v259.248a17.464 17.464 0 0 0 .661 5.361 16.148 16.148 0 0 0 6.252 8.64 16.663 16.663 0 0 0 10.268 2.866h95.733c3.403 0 6.823.058 10.168-.041a15.971 15.971 0 0 0 9.127-3.535 17.33 17.33 0 0 0 3.304-3.651 15.948 15.948 0 0 0 2.016-4.452 17.04 17.04 0 0 0 .611-4.833v-24.367c0-51.121.05-97.154.074-135.827.025-38.673.066-69.954.091-91.579v-7.657a16.678 16.678 0 0 0-1.189-6.533 16.025 16.025 0 0 0-3.048-4.824 16.176 16.176 0 0 0-9.714-5.13 13.48 13.48 0 0 0-1.652-.157l-.487.058Z" fill="#263238"/><path d="M258.479 80.31c0 .067-2.684.15-5.988.174-3.304.025-5.997 0-5.997-.074s2.685-.149 5.997-.182 5.988.009 5.988.083ZM258.537 83.376c0 .066-2.684.148-5.988.173-3.304.025-5.997 0-5.997-.074 0-.075 2.684-.149 5.997-.174 3.312-.025 5.988.008 5.988.075ZM258.537 86.44c0 .074-2.684.149-5.988.182-3.304.033-5.997 0-5.997-.083 0-.082 2.684-.149 5.997-.173 3.312-.025 5.988.008 5.988.074ZM149.506 90.034h.942l2.56-.058-.074.074V87.126a.98.98 0 0 1 .826-.826h1.222a1.01 1.01 0 0 1 .826.991v2.71l-.115-.116h3.229l-.124.124v-5.047a1.054 1.054 0 0 0-.446-.768l-1.412-1.43-1.363-1.346-.661-.644a1.511 1.511 0 0 0-.669-.504.825.825 0 0 0-.735.14c-.198.166-.405.406-.603.596l-1.156 1.164c-.736.76-1.495 1.454-2.041 2.106-.163.38-.22.797-.165 1.206v4.559a2.098 2.098 0 0 1 0-.387v-1.157c0-.462 0-1.14-.041-1.842V84.863a1.312 1.312 0 0 1 .182-.677c.594-.736 1.313-1.38 2.04-2.156.372-.389.76-.777 1.156-1.181.207-.207.372-.405.62-.62a1.096 1.096 0 0 1 .933-.182c.307.107.576.299.777.554l.66.652 1.371 1.338 1.413 1.388c.133.118.255.248.363.388.1.165.157.353.166.545V90.091h-3.47v-2.767a.775.775 0 0 0-.652-.826h-1.173a.82.82 0 0 0-.694.628v2.957H149.853a1.048 1.048 0 0 1-.347-.05ZM191.986 126.321c0-1.743.917-2.784 2.189-2.784s2.189 1.041 2.189 2.784c0 1.743-.925 2.783-2.189 2.783s-2.189-1.073-2.189-2.783Zm3.8 0c0-1.462-.661-2.272-1.611-2.272s-1.652.826-1.652 2.272c0 1.445.653 2.271 1.652 2.271 1 0 1.586-.809 1.586-2.271h.025ZM201.825 127.618h-1.107v1.445h-.57v-1.445h-3.089v-.413l2.907-3.635h.62l-2.801 3.544h2.379v-1.272h.554v1.272h1.09l.017.504ZM202.369 125.33a.413.413 0 0 1 .577-.392.418.418 0 0 1 .266.392.439.439 0 0 1-.43.437.411.411 0 0 1-.298-.132.419.419 0 0 1-.115-.305Zm0 3.304a.413.413 0 0 1 .413-.422.438.438 0 0 1 .377.07.432.432 0 0 1 .126.535.438.438 0 0 1-.306.231.424.424 0 0 1-.197-.01.42.42 0 0 1-.413-.371v-.033ZM207.764 127.444c0 .934-.645 1.652-1.991 1.652a2.821 2.821 0 0 1-1.958-.702l.273-.446c.448.417 1.04.645 1.652.636.925 0 1.421-.454 1.421-1.123s-.438-1.14-1.834-1.14h-1.165l.281-2.751h2.999v.504h-2.478l-.19 1.743h.702c1.66.008 2.288.661 2.288 1.627ZM212.595 127.418a1.706 1.706 0 0 1-1.875 1.652c-1.453 0-2.246-1.008-2.246-2.734 0-1.867 1.016-2.834 2.478-2.834.452-.019.903.08 1.305.29l-.232.454a1.954 1.954 0 0 0-1.065-.256c-1.181 0-1.941.76-1.941 2.247v.446a1.746 1.746 0 0 1 1.652-.942 1.652 1.652 0 0 1 1.924 1.677Zm-.561 0c0-.719-.529-1.181-1.371-1.181a1.262 1.262 0 0 0-1.283.699 1.269 1.269 0 0 0-.13.498c0 .603.504 1.173 1.446 1.173a1.202 1.202 0 0 0 .93-.289 1.204 1.204 0 0 0 .408-.884v-.016Z" fill="#263238"/><path d="M202.204 291.305c10.237 0 18.536-8.298 18.536-18.535s-8.299-18.536-18.536-18.536c-10.236 0-18.535 8.299-18.535 18.536 0 10.237 8.299 18.535 18.535 18.535Z" fill="#FF725E"/><path d="m194.109 275.818 3.304-.776a.905.905 0 0 0 .694-.884v-.677s-.14-1.157.95-1.231c.785-.049 5.782 0 5.782 0s1.305 0 1.28 1.008v.975a.77.77 0 0 0 .554.735l3.585 1.09a.829.829 0 0 0 .941-.446l.455-1.107c.082-.201.122-.418.115-.636a3.1 3.1 0 0 0-.619-1.652c-.711-.909-4.064-3.064-10.449-2.751-6.088.29-7.434 2.858-7.765 3.47a2.596 2.596 0 0 0-.107 1.71c.058.148.165.388.264.636a.916.916 0 0 0 .413.449.901.901 0 0 0 .603.087Z" fill="#fff"/><path d="M168.248 187.775c7.572 0 13.711-6.139 13.711-13.712 0-7.573-6.139-13.711-13.711-13.711-7.573 0-13.712 6.138-13.712 13.711s6.139 13.712 13.712 13.712Z" fill="#455A64"/><path d="M168.248 177.144a2.48 2.48 0 0 1-2.478-2.478v-5.336c0-.658.261-1.288.725-1.753a2.481 2.481 0 0 1 3.505 0c.464.465.726 1.095.726 1.753v5.385a2.478 2.478 0 0 1-2.478 2.429Zm0-9.813a1.955 1.955 0 0 0-1.95 1.957v5.386a1.955 1.955 0 0 0 1.954 1.83 1.957 1.957 0 0 0 1.953-1.83v-5.344a1.945 1.945 0 0 0-.558-1.411 1.955 1.955 0 0 0-1.399-.588Z" fill="#fff"/><path d="M168.247 178.878a4.474 4.474 0 0 1-3.469-1.371c-1.578-1.743-1.322-4.477-1.314-4.593a.268.268 0 0 1 .29-.231.254.254 0 0 1 .221.181c.01.032.013.066.01.1 0 0-.24 2.627 1.181 4.196a3.966 3.966 0 0 0 3.081 1.198 4.136 4.136 0 0 0 3.131-1.198 6.429 6.429 0 0 0 1.42-4.213.266.266 0 0 1 .256-.264.274.274 0 0 1 .265.248 6.871 6.871 0 0 1-1.57 4.592 4.64 4.64 0 0 1-3.502 1.355Z" fill="#fff"/><path d="M168.247 182.669a.258.258 0 0 1-.256-.256v-3.792a.27.27 0 0 1 .149-.286.268.268 0 0 1 .314.07.27.27 0 0 1 .058.216v3.792a.266.266 0 0 1-.02.1.269.269 0 0 1-.058.084.269.269 0 0 1-.086.055.265.265 0 0 1-.101.017Z" fill="#fff"/><path d="M204.253 187.775c7.572 0 13.711-6.139 13.711-13.712 0-7.573-6.139-13.711-13.711-13.711-7.573 0-13.712 6.138-13.712 13.711s6.139 13.712 13.712 13.712Z" fill="#455A64"/><path d="M200.511 175.673a1.594 1.594 0 1 0 0-3.188 1.594 1.594 0 0 0 0 3.188ZM204.252 175.673a1.595 1.595 0 1 0 0-3.19 1.595 1.595 0 0 0 0 3.19ZM208.002 175.673a1.595 1.595 0 1 0 0-3.19 1.595 1.595 0 0 0 0 3.19ZM202.105 170.28a1.604 1.604 0 0 1-1.918 1.571 1.599 1.599 0 0 1-1.257-1.263 1.6 1.6 0 0 1 .689-1.644 1.598 1.598 0 0 1 2.02.206c.299.3.466.707.466 1.13ZM205.855 170.28a1.6 1.6 0 0 1-2.735 1.133 1.603 1.603 0 1 1 2.735-1.133ZM209.597 170.28a1.6 1.6 0 0 1-.99 1.467 1.595 1.595 0 1 1 .99-1.467ZM200.511 179.448a1.594 1.594 0 1 0 0-3.188 1.594 1.594 0 0 0 0 3.188ZM204.252 179.448a1.595 1.595 0 1 0 0-3.19 1.595 1.595 0 0 0 0 3.19ZM208.002 179.448a1.595 1.595 0 1 0 0-3.19 1.595 1.595 0 0 0 0 3.19Z" fill="#fff"/><path d="M240.266 187.775c7.573 0 13.712-6.139 13.712-13.712 0-7.573-6.139-13.711-13.712-13.711-7.572 0-13.711 6.138-13.711 13.711s6.139 13.712 13.711 13.712Z" fill="#455A64"/><path d="M233.823 172.269v3.247a.258.258 0 0 0 .248.256h1.792a.257.257 0 0 1 .157.049l2.792 2.181a.256.256 0 0 0 .263.033.252.252 0 0 0 .142-.223v-7.591a.238.238 0 0 0-.034-.133.244.244 0 0 0-.362-.073l-2.701 1.949a.268.268 0 0 1-.149.049h-1.9a.258.258 0 0 0-.248.256ZM244.413 179.548a.31.31 0 0 1-.288-.183.313.313 0 0 1 .048-.338 7.366 7.366 0 0 0 2.206-5.352 7.253 7.253 0 0 0-2.172-4.543.305.305 0 0 1-.122-.219.305.305 0 0 1 .076-.238.313.313 0 0 1 .352-.084c.04.016.076.039.107.07a7.774 7.774 0 0 1 2.387 4.956 8.02 8.02 0 0 1-2.363 5.782.285.285 0 0 1-.231.149Z" fill="#fff"/><path d="M242.678 178.011a.304.304 0 0 1-.223-.1.3.3 0 0 1-.092-.218.301.301 0 0 1 .092-.219 4.633 4.633 0 0 0 1.652-3.37 5.664 5.664 0 0 0-1.652-3.643.316.316 0 0 1 .43-.463 6.225 6.225 0 0 1 1.875 4.13 5.203 5.203 0 0 1-1.875 3.825.295.295 0 0 1-.207.058Z" fill="#fff"/><path d="M241.192 176.434a.326.326 0 0 1-.223-.091.318.318 0 0 1 0-.446c1.933-1.917.066-4.081 0-4.13a.317.317 0 0 1-.049-.348.31.31 0 0 1 .18-.161.299.299 0 0 1 .122-.017.307.307 0 0 1 .218.104s2.346 2.702 0 5.039a.323.323 0 0 1-.248.05Z" fill="#fff"/><path d="M181.606 219.584c.929-7.515-4.41-14.361-11.925-15.291-7.516-.929-14.362 4.41-15.291 11.925-.93 7.516 4.41 14.362 11.925 15.291 7.515.93 14.361-4.41 15.291-11.925Z" fill="#455A64"/><path d="M168.074 222.632a.403.403 0 0 1-.298-.118.402.402 0 0 1-.091-.135.399.399 0 0 1-.033-.16v-8.656a.421.421 0 0 1 .826 0v8.632a.413.413 0 0 1-.404.437Z" fill="#fff"/><path d="M172.187 218.311h-8.392a.424.424 0 0 1-.338-.413.424.424 0 0 1 .338-.413h8.392a.427.427 0 0 1 .35.087.397.397 0 0 1 .114.146.413.413 0 0 1 0 .36.414.414 0 0 1-.279.229.427.427 0 0 1-.185.004Z" fill="#fff"/><path d="M252.815 219.586c.929-7.515-4.41-14.361-11.925-15.291-7.516-.929-14.362 4.41-15.291 11.925-.93 7.516 4.409 14.362 11.925 15.291 7.515.929 14.361-4.41 15.291-11.925Z" fill="#455A64"/><path d="M240.134 218.065a2.678 2.678 0 0 0 1.586-2.478 2.496 2.496 0 0 0-2.498-2.499 2.496 2.496 0 0 0-2.499 2.499 2.69 2.69 0 0 0 1.594 2.478c-3.841.578-3.667 4.749-3.667 4.749l9.086.05s.206-4.23-3.602-4.799Z" fill="#EBEBEB"/><path d="M217.214 219.59c.93-7.516-4.409-14.361-11.925-15.291-7.515-.929-14.361 4.41-15.291 11.925-.929 7.516 4.41 14.361 11.925 15.291 7.516.929 14.362-4.41 15.291-11.925Z" fill="#455A64"/><path d="M203.617 214.777h-2.775c-.954 0-1.727.773-1.727 1.727v2.775c0 .953.773 1.726 1.727 1.726h2.775c.953 0 1.726-.773 1.726-1.726v-2.775c0-.954-.773-1.727-1.726-1.727ZM205.905 218.997v-2.114l1.578-1.652a.338.338 0 0 1 .586.231v4.799a.34.34 0 0 1-.203.311.341.341 0 0 1-.367-.063l-1.594-1.512Z" fill="#EBEBEB"/><path d="m345.119 360.26 9.673 17.263 11.564 11.449a2.03 2.03 0 0 1 .601 1.496 2.037 2.037 0 0 1-.684 1.461 2.016 2.016 0 0 1-1.8.454c-4.073-.958-18.998-4.551-19.667-5.856-.736-1.512-11.408-17.528-11.408-17.528l11.721-8.739Z" fill="#FF725E"/><path opacity=".6" d="m366.29 391.929-22.145-6.55.421.719a3.076 3.076 0 0 0 1.652 1.338c1.825.627 6.93 2.263 18.238 4.956a2.03 2.03 0 0 0 1.85-.488l-.016.025ZM344.393 377.82a1.225 1.225 0 0 1 1.107 1.206 1.18 1.18 0 0 1-1.19 1.107 1.307 1.307 0 0 1-1.164-1.288 1.22 1.22 0 0 1 1.362-1.008" fill="#fff"/><path d="M358.005 386.782a4.37 4.37 0 0 1 2.478-3.734c0-.049-.297-.058-.735.124a3.22 3.22 0 0 0-1.891 2.891c-.025.504.099.735.148.719ZM360.566 388.352c.124 0 .339-.826 1.074-1.652.735-.826 1.57-1.074 1.537-1.198a2.84 2.84 0 0 0-2.611 2.825v.025ZM354.016 385.196a21.36 21.36 0 0 1 1.495-2.618 20.837 20.837 0 0 1 2.172-2.082 5.548 5.548 0 0 0-3.667 4.7ZM350.638 380.199c.107.075.826-.875 2.015-1.652 1.19-.776 2.346-1.049 2.313-1.173a3.865 3.865 0 0 0-2.552.826 3.948 3.948 0 0 0-1.776 1.999ZM347.672 375.202a10.41 10.41 0 0 1 2.048-1.768 9.513 9.513 0 0 1 2.594-.759c0-.058-.306-.157-.826-.157a4.42 4.42 0 0 0-3.494 1.899c-.248.446-.372.76-.322.785ZM349.134 372.526a1.75 1.75 0 0 0-.364-.652 5.081 5.081 0 0 0-1.503-1.388 2.303 2.303 0 0 0-1.412-.446.824.824 0 0 0-.703.628c-.051.321.017.65.19.925a2.861 2.861 0 0 0 3.511 1.007 3.303 3.303 0 0 0 1.925-3.163 1.207 1.207 0 0 0-.438-.826.821.821 0 0 0-.942.066c-.362.338-.63.765-.776 1.239a5.809 5.809 0 0 0-.38 2.015c-.023.251.005.504.082.744a9.63 9.63 0 0 1 .587-2.643c.141-.409.382-.775.702-1.066a.44.44 0 0 1 .512-.041.823.823 0 0 1 .256.578 2.963 2.963 0 0 1-1.702 2.717 2.467 2.467 0 0 1-1.644.116 2.471 2.471 0 0 1-1.354-.942.938.938 0 0 1-.149-.644.443.443 0 0 1 .38-.347c.426-.005.844.119 1.198.355a7.922 7.922 0 0 1 2.024 1.768Z" fill="#263238"/><path d="M324.371 367.85 320.489 382s13.059 8.747 12.588 11.432l-27.704-6.608 5.212-22.303 13.786 3.329Z" fill="#FF725E"/><path opacity=".6" d="M312.163 378.746a1.173 1.173 0 0 0-1.091 1.107 1.125 1.125 0 0 0 1.091 1.09 1.221 1.221 0 0 0 1.148-1.173 1.157 1.157 0 0 0-1.256-1.007M305.331 386.799l.611-2.231 26.333 7.195s1.107.826.76 1.652l-27.704-6.616Z" fill="#fff"/><path d="M320.926 381.967c0 .132-.727 0-1.495.305-.768.306-1.264.76-1.371.678-.108-.083.272-.826 1.214-1.132.942-.306 1.71.033 1.652.149ZM323.544 383.867c0 .132-.636.223-1.239.686-.603.462-.875 1.041-1.008.999-.132-.041 0-.826.719-1.387.719-.562 1.561-.43 1.528-.298ZM324.362 387.741c-.132 0-.157-.727.372-1.379.529-.653 1.223-.826 1.256-.678.033.149-.455.43-.876.975-.421.545-.611 1.099-.752 1.082ZM321.463 378.645c-.083.108-.661-.231-1.437-.363-.777-.132-1.429 0-1.471-.165-.041-.165.645-.471 1.553-.306.909.165 1.446.744 1.355.834Z" fill="#263238"/><path opacity=".3" d="m323.594 370.659-.702 2.52-13.58-3.387.678-2.94 13.604 3.807Z" fill="#000"/><path d="M322.206 375.771a2.612 2.612 0 0 1-1.388-.339 6.24 6.24 0 0 1-1.346-.826 6.71 6.71 0 0 1-.694-.611 1.7 1.7 0 0 1-.338-.43.612.612 0 0 1 .107-.735.836.836 0 0 1 .316-.156.84.84 0 0 1 .353-.009c.177.04.347.107.504.198.29.143.566.312.826.504.415.322.777.706 1.074 1.14.504.752.603 1.313.545 1.33-.058.016-.281-.471-.826-1.124a5.582 5.582 0 0 0-1.809-1.429c-.273-.148-.521-.206-.628-.09-.107.115-.049.057 0 .157.064.118.147.224.248.313.202.209.414.408.636.595.379.312.785.588 1.214.826.415.206.818.434 1.206.686Z" fill="#263238"/><path d="M321.984 375.928a2.248 2.248 0 0 1-.05-1.429 4.814 4.814 0 0 1 .554-1.478c.161-.269.349-.521.561-.752a1.164 1.164 0 0 1 1.049-.487.659.659 0 0 1 .488.52c.028.181.028.365 0 .545-.025.321-.1.636-.223.934a3.22 3.22 0 0 1-.934 1.288c-.71.595-1.313.62-1.313.57 0-.049.504-.223 1.082-.826.337-.337.594-.747.752-1.197.096-.266.151-.544.165-.826 0-.306 0-.57-.141-.562a.947.947 0 0 0-.594.339 4.323 4.323 0 0 0-.529.669 5.1 5.1 0 0 0-.595 1.321c-.215.826-.198 1.363-.272 1.371Z" fill="#263238"/><path d="M328.525 210.027a133.38 133.38 0 0 1 6.914 33.519c1.321 18.23-9.838 132.557-9.838 132.557l-21.839-3.94s4.881-40.292 7.368-59.976c2.478-19.378-7.368-87.201-7.368-87.201l23.128-14.959" fill="#263238"/><path d="M277.991 215.18s-4.634 19.824 5.666 41.407c6.187 12.96 51.774 121.885 51.774 121.885l18.841-9.607-46.116-144.971-30.165-8.714Z" fill="#263238"/><path d="M337.124 314.944c-.124 0-5.93-17.462-12.984-39.086-7.055-21.625-12.663-39.194-12.547-39.227.115-.033 5.93 17.453 12.976 39.086 7.046 21.633 12.671 39.186 12.555 39.227ZM335.431 378.473c-.107.041-9.293-21.369-20.51-47.826-11.217-26.456-20.22-47.949-20.104-47.998.115-.05 9.3 21.36 20.517 47.825 11.217 26.465 20.213 47.949 20.097 47.999ZM310.403 233.411a18.352 18.352 0 0 1-1.652-.999 27.406 27.406 0 0 0-4.188-1.966l-2.403-.892a18 18 0 0 0-1.975-.645 9.094 9.094 0 0 0-1.891-.181 3.012 3.012 0 0 1 1.958-.124c.694.136 1.376.326 2.04.57.751.248 1.569.537 2.428.867a20.758 20.758 0 0 1 4.196 2.106 5.483 5.483 0 0 1 1.487 1.264ZM321.818 222.012a38.065 38.065 0 0 1-3.106 3.865 37.894 37.894 0 0 1-3.304 3.734 22.918 22.918 0 0 1 2.941-4.014 23.62 23.62 0 0 1 3.469-3.585ZM287.399 222.449a3.71 3.71 0 0 1-.083 1.999 6.6 6.6 0 0 1-2.825 3.882 8.192 8.192 0 0 1-4.699 1.016 7.233 7.233 0 0 1-1.975-.247 12.652 12.652 0 0 1 1.975-.067 8.604 8.604 0 0 0 4.468-1.073 6.79 6.79 0 0 0 2.759-3.593c.159-.632.286-1.272.38-1.917ZM329.822 218.964a6.659 6.659 0 0 1-4.337-3.725c.108-.066.826 1.008 2.032 2.024s2.363 1.627 2.305 1.701Z" fill="#455A64"/><path d="M316.607 123.535a5.122 5.122 0 0 1 4.13 2.685 19.343 19.343 0 0 1 1.032 3.205 4.13 4.13 0 0 0 1.916 2.643c.892.429 1.941.314 2.908.504a4.838 4.838 0 0 1 3.725 5.195c-.093.31-.093.64 0 .95.112.193.275.35.471.454 1.313.785 3.081.661 4.254 1.652a4.27 4.27 0 0 1 1.297 2.685 8.691 8.691 0 0 1-1.074 5.625 5.182 5.182 0 0 1-1.528 1.743 6.403 6.403 0 0 1-3.106.826c-3.659.256-7.55-.562-10.292-2.999-3.626-3.221-9.408-15.405-10.044-20.212l6.311-4.956Z" fill="#263238"/><path d="m289.613 136.57-12.985 6.22 9.218 38.995s-5.468 16.058-7.31 24.912l-1.825 8.888c18.618 12.679 37.797 11.044 53.549-5.171L322 191.639l6.906-27.051-18.23-29.835-4.502-.232-16.561 2.049Z" fill="#FF725E"/><path opacity=".3" d="M279.717 204.368c.38-.784 7.88-7.244 8.665-7.624 11.3-5.451 18.172-.313 30.793.694.331 0 0 .248.331.281 1.429.124 3.618-.652 5.038-.446l.785 2.478c-8.491 3.387-18.337.454-27.109 3.007-2.569.751-5.014 1.966-7.657 2.403a3.535 3.535 0 0 0-2.115.826c-.26.335-.487.695-.677 1.074a4.25 4.25 0 0 1-2.949 1.545 5.19 5.19 0 0 1-3.527-.496c-1.032-.702-2.106-2.643-1.578-3.742Z" fill="#000"/><path d="M278.313 201.188c-.661.19-.429 2.478 1.206 2.114a64.683 64.683 0 0 0 8.343-2.75l5.65-4.609 25.325 1.544-3.915-11.878s-26.226 2.478-29.926 3.99c-2.701 1.099-4.634 2.197-5.898 3.618" fill="#FFBE9D"/><path d="M279.089 193.217a7.75 7.75 0 0 0-.958 1.371c-.363.686.653 1.602.653 1.602s-2.247.702-1.462 1.652c.784.95 1.065.975 1.065.975s-1.834 1.388-1.445 2.09c.388.702 1.371.297 1.371.297" fill="#FFBE9D"/><path d="M278.114 201.304c-.074-.083.57-.769 1.652-1.19a2.88 2.88 0 0 1 1.983-.272c-.589.276-1.199.503-1.826.677a11.42 11.42 0 0 1-1.809.785ZM280.576 197.842c0 .124-.504.281-1.099.545s-1.057.537-1.14.446c-.082-.091.306-.553.967-.826.66-.272 1.255-.281 1.272-.165ZM280.369 195.984c0 .05-.107.067-.223.108a3.323 3.323 0 0 1-.529.149c-.421.066-.784-.001-.826-.083-.041-.083.298-.273.752-.355.194-.037.393-.037.587 0 .19.016.28.132.239.181Z" fill="#EB996E"/><path d="M310.7 134.729s11.044.289 15.323 8.706c2.139 4.204 7.723 18.585 9.68 24.647 1.322 4.13 5.716 24.731.735 26.771-6.376 2.627-17.577 3.031-17.569 3.031l-4.13-11.977a3.778 3.778 0 0 1 2.404-4.642l3.403.727 3.915-1.181-2.668-24.16-3.741-4.667-7.352-17.255Z" fill="#FF725E"/><path opacity=".3" d="M300.259 144.344c.513 1.891 0 4.625.215 6.319a89.922 89.922 0 0 1 .826 20.427c-.051.369-.032.745.058 1.106.134.315.315.608.537.868a8.973 8.973 0 0 1 1.355 6.509 26.637 26.637 0 0 1-2.049 6.476c0-1.818.108-4.543.281-6.352 0-.364.215-.124.231-.488.091-2.18-.248-4.212-1.759-5.782a4.8 4.8 0 0 1-.826-.983 3.3 3.3 0 0 1-.281-1.173 300.882 300.882 0 0 1-1.602-22.962c-.06-.435.037-.877.272-1.248.244-.229.523-.419.826-.561.587-.38.967-1.058 1.603-1.355" fill="#000"/><path d="M276.628 142.789s-7.872 3.18-6.203 16.52c.826 6.55 4.724 24.235 8.879 34.419 1.958 4.791 6.501 8.137 11.647 7.542 2.246-.264 4.468.124 5.98-.76 2.304-1.346 3.362-5.964 3.866-10.961.338-3.403.264-6.955.759-9.854.826-4.741-1.346-7.005-4.13-7.599l-10.903-2.338-.71 5.782-9.185-32.751Z" fill="#FF725E"/><path d="M290.157 182.967s.198.231.62.553a4.288 4.288 0 0 0 2.032.826 6.724 6.724 0 0 0 3.238-.413 10.33 10.33 0 0 0 3.518-1.966 6.126 6.126 0 0 0 1.867-3.469 6 6 0 0 0-.339-3.23 8.36 8.36 0 0 0-1.709-2.536c.257.125.487.299.677.513a5.897 5.897 0 0 1 1.313 1.908 6.088 6.088 0 0 1 .455 3.411 6.434 6.434 0 0 1-1.991 3.734 10.322 10.322 0 0 1-3.684 2.023 6.85 6.85 0 0 1-3.428.339 4.177 4.177 0 0 1-2.081-1.016c-.38-.38-.513-.669-.488-.677Z" fill="#263238"/><path d="M278.668 192.062s.223.586.719 1.594a14.06 14.06 0 0 0 2.758 3.816 13.302 13.302 0 0 0 6.005 3.436c2.771.738 5.705.573 8.376-.471 1.412-.545 1.941-2.089 2.478-3.386a22.526 22.526 0 0 0 1.099-3.99c.393-2.325.668-4.668.826-7.021.173-1.966.313-3.576.421-4.766.049-.52.099-.95.132-1.297.015-.15.04-.299.074-.446.024.151.024.304 0 .455 0 .346 0 .776-.057 1.296-.067 1.19-.166 2.809-.273 4.775a65.201 65.201 0 0 1-.71 7.07 22.425 22.425 0 0 1-1.099 4.081 15.108 15.108 0 0 1-.95 2.04 3.658 3.658 0 0 1-1.759 1.586 13.803 13.803 0 0 1-8.665.462 13.536 13.536 0 0 1-8.813-7.574 10.667 10.667 0 0 1-.463-1.223 1.492 1.492 0 0 1-.099-.437ZM282.897 184.081c-.053-.744-.033-1.49.058-2.23a205.1 205.1 0 0 1 .446-5.344c.107-1.041.19-2.024.314-2.941a4.7 4.7 0 0 1 .875-2.313 2.48 2.48 0 0 1 1.413-.892c.405-.074.619 0 .611 0-.008 0-.215 0-.57.141a2.477 2.477 0 0 0-1.206.916c-.826 1.058-.76 3.04-.999 5.113-.24 2.074-.405 3.965-.579 5.328a11.068 11.068 0 0 1-.363 2.222ZM279.131 143.996c.314.043.616.153.884.322a6.605 6.605 0 0 1 1.957 1.652 10.417 10.417 0 0 1 1.76 3.354c.454 1.363.76 2.891 1.115 4.477a536.842 536.842 0 0 1 1.718 8.169c.206 1.049.363 1.891.471 2.478.071.303.11.613.115.925a3.63 3.63 0 0 1-.281-.892 77.963 77.963 0 0 1-.611-2.478 461.05 461.05 0 0 1-1.842-8.144c-.355-1.586-.644-3.114-1.065-4.444a10.631 10.631 0 0 0-1.652-3.304 7.685 7.685 0 0 0-2.569-2.115ZM328.955 196.753c-.232.08-.474.127-.718.141l-2.049.281-7.31.9h-.149l-.049-.149a85.592 85.592 0 0 1-1.305-4.303c-.43-1.537-.868-3.147-1.429-4.774a56.322 56.322 0 0 0-.694-1.876l-.372-.9a3.578 3.578 0 0 1-.322-.966 7.596 7.596 0 0 1 0-1.941 2.244 2.244 0 0 1 1.066-1.586 3.309 3.309 0 0 1 1.726-.529c.565.025 1.123.14 1.652.339.464.173.942.306 1.429.396.447.054.899.054 1.346 0a11.402 11.402 0 0 0 2.305-.545 7.598 7.598 0 0 1 1.792-.347 4.93 4.93 0 0 1 1.157.074c.133.018.264.054.388.108a11.458 11.458 0 0 0-1.528 0 7.78 7.78 0 0 0-1.735.421c-.758.287-1.544.492-2.346.611a6.323 6.323 0 0 1-1.429 0 10.729 10.729 0 0 1-1.495-.388 4.82 4.82 0 0 0-1.52-.305 2.98 2.98 0 0 0-1.511.479 1.848 1.848 0 0 0-.876 1.313 7.464 7.464 0 0 0 0 1.817c.06.288.16.566.298.826.124.306.256.611.371.917.256.611.488 1.247.711 1.892.57 1.652 1.007 3.304 1.42 4.807.413 1.503.826 2.973 1.264 4.287l-.206-.124 7.326-.744 2.057-.173a4.2 4.2 0 0 1 .735.041ZM330.252 182.009c0-.049.338 0 .776.256.56.361 1.025.851 1.355 1.429.515.768.825 1.656.9 2.578-.132.057-.545-1.099-1.272-2.346a5.544 5.544 0 0 0-1.165-1.405c-.355-.305-.619-.454-.594-.512Z" fill="#263238"/><path d="M321.447 182.009a4.198 4.198 0 0 1-.083-1.124c.001-1.021.065-2.042.19-3.056.256-2.577 1.156-6.046 1.602-9.912a22.225 22.225 0 0 0-.826-9.854 17.681 17.681 0 0 0-1.916-3.651s.091.058.215.198c.19.206.366.424.528.653a11.518 11.518 0 0 1 1.462 2.693c1.008 2.412 1.438 6.079.992 10.011-.215 1.966-.587 3.808-.917 5.476-.331 1.669-.636 3.164-.826 4.436a33.917 33.917 0 0 0-.322 3.015 6.736 6.736 0 0 1-.099 1.115Z" fill="#263238"/><path opacity=".3" d="M322.711 158.716c.421 1.52.826 3.048 1.28 4.568.519 1.608.849 3.271.983 4.956a22.133 22.133 0 0 1-.38 4.229c-.248 1.603-.487 3.205-.752 4.807-.264 1.603.24 2.949-.718 4.329l-1.652.28c.231-7.103 3.031-16.288 1.33-23.194" fill="#000"/><path d="M316.127 143.822a24.985 24.985 0 0 1 1.602 4.039 42.501 42.501 0 0 1 1.429 4.13 14.673 14.673 0 0 1-1.842-3.94 19.414 19.414 0 0 1-1.189-4.229Z" fill="#263238"/><path opacity=".3" d="M287.093 168.446a4.789 4.789 0 0 0-2.8.9 9.215 9.215 0 0 0-3.75 5.154 10.808 10.808 0 0 0 .198 6.41c.215.645.644 1.371 1.313 1.355.826 0 1.132-1.008 1.256-1.793.338-2.18.669-4.361 1.007-6.541.089-.741.31-1.46.653-2.123a2.058 2.058 0 0 1 1.817-1.115l.24-2.33" fill="#000"/><path d="M285.482 159.153s-.826.182-2.148.603a33.921 33.921 0 0 0-4.956 2.057 63.055 63.055 0 0 0-4.7 2.627l-1.395.826a2.829 2.829 0 0 1-.529.289 2.42 2.42 0 0 1 .471-.372c.314-.231.776-.553 1.354-.925a47.296 47.296 0 0 1 4.684-2.709 28.691 28.691 0 0 1 5.022-1.999 13.116 13.116 0 0 1 1.602-.364 2.05 2.05 0 0 1 .595-.033ZM286.622 164.01c-.181.091-.372.16-.57.206-.371.124-.908.289-1.569.521a49.198 49.198 0 0 0-5.047 2.073 40.7 40.7 0 0 0-4.758 2.668c-.586.38-1.049.71-1.363.942a2.667 2.667 0 0 1-.503.338s.148-.165.446-.421c.297-.256.743-.611 1.313-1.016a33.11 33.11 0 0 1 4.749-2.742 38.158 38.158 0 0 1 5.105-2.016 20.15 20.15 0 0 1 1.603-.438 2.85 2.85 0 0 1 .594-.115ZM329.938 153.223a8.224 8.224 0 0 1-1.214.322c-.978.243-1.94.544-2.883.9-.94.368-1.859.79-2.75 1.264a9.417 9.417 0 0 1-1.115.578 4.211 4.211 0 0 1 1.024-.743 17.687 17.687 0 0 1 2.742-1.338c.953-.363 1.938-.64 2.941-.826a4.745 4.745 0 0 1 1.255-.157ZM332.539 159.236c-.461.048-.924.072-1.387.074a14.01 14.01 0 0 0-3.247.669c-1.47.56-2.91 1.2-4.311 1.916a5.786 5.786 0 0 1 1.164-.776 17.865 17.865 0 0 1 3.073-1.388 11.412 11.412 0 0 1 3.304-.603 7 7 0 0 1 1.024 0c.132.013.261.049.38.108Z" fill="#FAFAFA"/><path d="M313.558 95.75a8.153 8.153 0 0 1 4.089 7.69c-.19 1.165-.62 2.354-.306 3.494a8.457 8.457 0 0 0 1.652 2.552 8.05 8.05 0 0 1-4.109 12.497 8.054 8.054 0 0 1-5.043-.107" fill="#263238"/><path d="M316.408 110.626c5.848-15.967-11.432-22.451-20.345-19.188-8.375 3.064-11.704 7.599-12.679 13.43-.974 5.832-.437 12.035 2.222 17.346 1.314 2.602 3.511 5.188 6.427 5.303" fill="#263238"/><path d="m293.015 142.023-4.13-38.442a2.916 2.916 0 0 1 2.379-3.147l15.141-5.072c4.898-.9 8.648 4.956 9.342 9.912.76 5.485 1.478 12.208 1.14 16.371-.686 8.368-6.947 9.912-6.947 9.912s.487 7.294.909 14.125a1.655 1.655 0 0 1-1.346 1.692 1.649 1.649 0 0 1-.777-.04l-15.711-5.311Z" fill="#FFBE9D"/><path d="M314.293 110.799a1.054 1.054 0 0 1-.925 1.148.991.991 0 0 1-.756-.168 1.002 1.002 0 0 1-.408-.658 1.038 1.038 0 0 1 .916-1.148 1.001 1.001 0 0 1 .76.168 1.005 1.005 0 0 1 .413.658ZM303.481 111.617a1.063 1.063 0 0 1-.925 1.156 1.015 1.015 0 0 1-1.165-.826 1.066 1.066 0 0 1 .217-.783 1.056 1.056 0 0 1 .708-.398 1.012 1.012 0 0 1 1.031.475c.069.115.115.243.134.376ZM314.352 108.486c-.116.149-.983-.355-2.115-.231-1.132.124-1.908.826-2.048.669-.141-.157.041-.322.371-.628a2.895 2.895 0 0 1 1.652-.702 2.797 2.797 0 0 1 1.71.355c.347.256.487.463.43.537ZM303.547 109.576c-.124.149-.975-.388-2.115-.305-1.14.082-1.933.718-2.073.586-.14-.132.05-.314.405-.611a2.928 2.928 0 0 1 1.652-.636 2.77 2.77 0 0 1 1.652.413c.396.248.537.487.479.553ZM308.099 118.067a7.285 7.285 0 0 1 1.825-.471c.289-.057.562-.132.595-.338a1.48 1.48 0 0 0-.265-.826l-1.024-2.148c-1.437-3.073-2.478-5.6-2.379-5.658.099-.058 1.388 2.379 2.825 5.452l1 2.172c.206.339.288.739.231 1.132a.708.708 0 0 1-.446.462 2.709 2.709 0 0 1-.488.108 7.27 7.27 0 0 1-1.874.115Z" fill="#263238"/><path d="M309.932 131.515c-3.889.352-7.8-.38-11.299-2.115 0 0 3.238 5.543 11.456 4.13l-.157-2.015ZM307.842 120.86a2.058 2.058 0 0 0-1.9-.627 1.848 1.848 0 0 0-1.239.826 1.205 1.205 0 0 0 0 1.371 1.41 1.41 0 0 0 1.528.264 4.391 4.391 0 0 0 1.388-.983c.124-.101.227-.224.305-.363a.386.386 0 0 0 0-.422" fill="#EB996E"/><path d="M304.794 119.117c.19 0 .281 1.206 1.412 2.008 1.132.801 2.437.561 2.478.735.042.173-.272.264-.826.322a3.12 3.12 0 0 1-2.048-.545 2.673 2.673 0 0 1-1.099-1.652c-.09-.554.025-.876.083-.868ZM303.696 107.883c-.083.323-1.239.256-2.561.521-1.321.264-2.387.71-2.585.446-.091-.124.083-.438.496-.768a4.546 4.546 0 0 1 1.873-.818 4.574 4.574 0 0 1 2.042.082c.512.157.776.389.735.537ZM313.881 105.588c-.182.272-.992.066-1.942.124-.949.058-1.726.305-1.932.049-.091-.124 0-.396.347-.669a2.668 2.668 0 0 1 1.536-.545 2.7 2.7 0 0 1 1.578.405c.346.239.479.504.413.636Z" fill="#263238"/><path d="M291.116 114.309c-.124-.049-4.576-1.652-4.254 3.304.323 4.956 5.237 3.602 5.237 3.461 0-.14-.983-6.765-.983-6.765Z" fill="#FFBE9D"/><path d="M290.463 119.322s-.083.066-.223.141c-.2.099-.43.12-.644.058a2.14 2.14 0 0 1-1.115-1.851c-.04-.425.014-.853.157-1.255a.977.977 0 0 1 .218-.427.978.978 0 0 1 .393-.275.43.43 0 0 1 .52.198c.074.14.05.24.074.248.025.008.108-.091.05-.298a.56.56 0 0 0-.449-.391.634.634 0 0 0-.253.003 1.214 1.214 0 0 0-.826.826c-.18.442-.251.921-.207 1.396a2.238 2.238 0 0 0 1.396 2.057.894.894 0 0 0 .826-.182c.083-.132.1-.239.083-.248Z" fill="#EB996E"/><path d="M307.851 92.742c2.866 1.214 4.427 6.765 3.502 9.73-.925 2.966-3.882 4.618-6.864 5.51-2.9.943-5.99 1.145-8.987.586-.058 2.032-1.107 4.18-3.015 4.857-2.528.901-5.303-1.264-6.079-3.832-.777-2.569-.116-5.32.545-7.922" fill="#263238"/><path d="M287.374 112.336s.132.14.405.338c.272.199.677.471 1.206.768.62.376 1.294.654 1.999.826a4.178 4.178 0 0 0 2.626-.239 4.136 4.136 0 0 0 1.859-1.875 5.488 5.488 0 0 0 .553-2.073c.045-.478.045-.96 0-1.438a1.657 1.657 0 0 0-.107-.52c-.058 0 .058.752-.066 1.941a5.558 5.558 0 0 1-.595 1.974 3.879 3.879 0 0 1-1.743 1.727 3.972 3.972 0 0 1-2.478.239 7.354 7.354 0 0 1-1.949-.702c-1.057-.57-1.685-.966-1.71-.966Z" fill="#263238"/><path d="M285.945 100.26s.058-.273.24-.752a5.165 5.165 0 0 1 1.181-1.76 7.588 7.588 0 0 1 2.66-1.651 20.865 20.865 0 0 1 3.791-.925 31.374 31.374 0 0 0 6.872-1.876 34.21 34.21 0 0 0 1.975-.875l.52-.273a.834.834 0 0 0 .182-.107l-.19.074-.537.24c-.471.215-1.14.504-1.991.826a35.018 35.018 0 0 1-6.864 1.817c-1.301.184-2.579.5-3.816.942a7.57 7.57 0 0 0-2.693 1.743 5.04 5.04 0 0 0-1.156 1.833c-.06.188-.11.378-.149.57l-.025.174Z" fill="#455A64"/><path d="M284.97 119.158s-.091-.049-.231-.165a4.284 4.284 0 0 1-.578-.611 6.256 6.256 0 0 1-1.239-2.867 7.775 7.775 0 0 1 .784-4.691c.435-.876.991-1.685 1.652-2.404a4.855 4.855 0 0 1 2.759-1.652l-.173.273a5.985 5.985 0 0 1 1.759-6.286 7.88 7.88 0 0 1 4.13-1.603c1.413-.206 2.751-.322 3.998-.62a12.518 12.518 0 0 0 6.013-2.956 8.325 8.325 0 0 0 2.338-3.858c.123-.544.211-1.096.264-1.652.031.147.045.297.041.446a6.035 6.035 0 0 1-.14 1.264 8.211 8.211 0 0 1-2.288 4.04 12.617 12.617 0 0 1-6.137 3.13c-1.272.314-2.643.438-4.023.644a7.506 7.506 0 0 0-3.898 1.512 5.57 5.57 0 0 0-1.652 5.782l.082.239h-.248a4.567 4.567 0 0 0-2.535 1.512 10.187 10.187 0 0 0-1.652 2.296 7.567 7.567 0 0 0-.826 4.494 6.5 6.5 0 0 0 1.09 2.825c.388.636.71.883.71.908Z" fill="#455A64"/><path d="M309.841 131.466s.917 12.481 1.602 18.85c.24 2.164.529 4.419 1.784 6.203a7.03 7.03 0 0 0 9.499 1.512 7.434 7.434 0 0 0 1.834-9.565c-.652-1.074-1.652-2.297-1.065-3.42.259-.407.58-.772.95-1.082 1.709-1.834 1.181-4.816.074-7.071a2.474 2.474 0 0 0-1.173-1.346c-.62-.248-1.338 0-1.991-.174-1.404-.396-1.495-2.288-1.809-3.717-.471-2.081-2.114-4.303-4.237-4.617 0 0-2.065 3.411-5.468 4.427Z" fill="#263238"/><path d="M324.436 143.195c.38-.937.616-1.925.703-2.933a6.85 6.85 0 0 0-.595-3.155 7.036 7.036 0 0 0-2.553-2.949c-.586-.38-1.263-.619-1.842-1.065a2.252 2.252 0 0 1-.693-.826 2.65 2.65 0 0 1-.215-1.008 7.93 7.93 0 0 0-.132-1.726 2.885 2.885 0 0 0-.826-1.214c-.678-.636-1.314-1.107-1.652-1.529a1.646 1.646 0 0 1-.43-.71s.182.231.554.595c.371.363 1.007.785 1.734 1.421.422.354.744.812.934 1.329.135.594.196 1.201.181 1.809a1.954 1.954 0 0 0 .768 1.545c.504.388 1.182.628 1.818 1.041a7.134 7.134 0 0 1 2.684 3.155 6.867 6.867 0 0 1 .537 3.304 6.544 6.544 0 0 1-.578 2.197 2.282 2.282 0 0 1-.397.719ZM319.373 159.177c0-.041.388-.281 1.008-.826a7.611 7.611 0 0 0 1.867-2.998 6.904 6.904 0 0 0-.24-5.105c-.826-1.817-2.478-3.304-4.047-5.097a12.046 12.046 0 0 1-1.925-2.874 5.99 5.99 0 0 1-.553-3.197c.115-1.04.421-1.957.57-2.833.15-.802.15-1.626 0-2.428a7.197 7.197 0 0 0-1.487-3.197c-.545-.652-.933-.933-.909-.966.025-.033.116.049.298.19.264.201.51.425.735.669a6.925 6.925 0 0 1 1.726 5.782c-.14.9-.429 1.825-.528 2.808a5.714 5.714 0 0 0 .545 2.982 12.074 12.074 0 0 0 1.866 2.767c1.52 1.726 3.23 3.304 4.081 5.204a7.136 7.136 0 0 1 .165 5.377 7.332 7.332 0 0 1-2.04 3.023 5.569 5.569 0 0 1-.826.579 1.132 1.132 0 0 1-.306.14Z" fill="#455A64"/><path d="m286.366 172.006 3.172-30.33 9.086 3.717.735 30.917s-2.973 4.361-7.863 2.478a7.982 7.982 0 0 1-5.13-6.782Z" fill="#FFBE9D"/><path d="m288.943 115.061 16.793 15.198-3.238 11.126-1.239.347-14.654-15.43 1.099-10.895 1.239-.346Z" fill="#263238"/><path d="m287.705 115.408 16.792 15.199-3.238 11.126-15.892-15.083 2.338-11.242Z" fill="#455A64"/><path d="M298.954 146.375a6.606 6.606 0 0 0 1.768-4.13c0-2.296-.562-7.814-.562-7.814s3.048-6.179 2.982-7.005c-.066-.826-.198-.826-1.264-.495-1.065.33-4.435 5.939-4.435 5.939l-1.016-4.221s2.8-4.378 3.023-4.956c.223-.578.595-1.115-.091-1.181-.685-.066-5.898 4.848-5.898 4.848l.347 4.609s-.107.372-.826-.289c-.718-.66-.47-6.153-.47-6.153s1.8-3.23 1.767-3.701c-.033-.471.331-.974 0-1.784-.33-.809-1.354.107-1.354.107l-3.478 4.428-1.156-4.452s.066-.942-1.165-.967l.273 14.373 2.948 11.018 8.607 1.826Z" fill="#FFBE9D"/><path d="M299.318 176.309v-.545c0-.355-.041-.908-.066-1.586-.041-1.412-.107-3.444-.182-6.03-.132-5.236-.322-12.703-.553-21.748v-.091l.074-.058a5.944 5.944 0 0 0 1.652-2.304 6.86 6.86 0 0 0 .38-2.982c-.074-2.107-.306-4.295-.57-6.542V134.315c.57-1.181 1.14-2.387 1.702-3.634.281-.619.553-1.247.826-1.891.124-.314.247-.645.347-.967l.066-.239v-.199a1.606 1.606 0 0 0-.083-.429c0-.108-.438 0-.735.091a1.029 1.029 0 0 0-.405.198 2.834 2.834 0 0 0-.371.347 16.442 16.442 0 0 0-1.314 1.652 54.02 54.02 0 0 0-2.395 3.684l-.273.446-.124-.512c-.322-1.33-.669-2.767-1.024-4.221v-.083l.05-.082 1.42-2.255c.537-.884 1.132-1.801 1.578-2.668.091-.248.215-.504.281-.711.066-.206 0-.157 0-.148a.307.307 0 0 0-.207 0c-.087.028-.17.067-.247.115-.1.058-.207.141-.306.207a9.287 9.287 0 0 0-.611.454c-1.595 1.272-3.09 2.643-4.552 3.998l.066-.174c.116 1.559.232 3.098.347 4.618a.374.374 0 0 1-.413.248.847.847 0 0 1-.297-.099 2.201 2.201 0 0 1-.413-.298 1.65 1.65 0 0 1-.429-.941 14.063 14.063 0 0 1-.182-1.842c-.041-1.215 0-2.404 0-3.585v-.042a31.03 31.03 0 0 0 1.701-3.403c.018-.056.032-.114.042-.173v-.256c0-.075.066-.331.091-.471a1.674 1.674 0 0 0 0-.826c-.091-.297-.182-.421-.413-.388a1.59 1.59 0 0 0-.694.38l-3.486 4.419-.223.289-.091-.355c-.396-1.537-.776-3.023-1.148-4.444v-.058a.747.747 0 0 0-.306-.603 1.285 1.285 0 0 0-.694-.19l.166-.165c.091 5.848.157 10.697.214 14.372.645 2.652 1.14 4.7 1.487 6.113.157.677.281 1.206.364 1.577.082.372.107.545.107.545s-.058-.173-.157-.528l-.421-1.57c-.372-1.404-.9-3.444-1.586-6.087-.091-3.676-.198-8.525-.33-14.364v-.223h.173c.31-.006.615.08.876.247a1.083 1.083 0 0 1 .454.901v-.058l1.165 4.444-.314-.066 3.469-4.436c.251-.231.559-.394.892-.471a.661.661 0 0 1 .586.174c.13.135.218.304.256.487a2.01 2.01 0 0 1 0 1.016c0 .157-.066.306-.082.446a.797.797 0 0 0 0 .207 1.103 1.103 0 0 1-.066.289 30.444 30.444 0 0 1-1.718 3.485v-.09a41.86 41.86 0 0 0 0 3.543c.012.596.07 1.189.173 1.776.028.261.131.508.298.71.102.091.212.171.33.24a.582.582 0 0 0 .14.049.14.14 0 0 0 0 .05h-.107v.083c-.116-1.52-.234-3.059-.355-4.618v-.148l.074-.075c1.462-1.363 2.949-2.734 4.568-4.031l.636-.47a3.23 3.23 0 0 1 .339-.215c.138-.095.296-.157.462-.182a.701.701 0 0 1 .512.165c.07.079.116.176.134.279a.569.569 0 0 1-.035.308c-.09.289-.198.504-.289.743-.495.991-1.057 1.834-1.61 2.742l-1.429 2.264v-.174l1.016 4.221-.397-.058a62.667 62.667 0 0 1 2.412-3.708 18.14 18.14 0 0 1 1.363-1.727c.128-.139.266-.269.413-.388a1.5 1.5 0 0 1 .545-.264c.174-.05.347-.099.545-.141.112-.017.227-.017.339 0a.535.535 0 0 1 .355.265c.072.19.114.391.124.594.008.108.008.215 0 .322l-.074.273c-.108.347-.232.677-.364.999a35.87 35.87 0 0 1-.826 1.909 99.246 99.246 0 0 1-1.718 3.634v-.116c.256 2.255.479 4.444.554 6.608a7.199 7.199 0 0 1-.422 3.139 6.262 6.262 0 0 1-1.809 2.478l.075-.149c.165 9.086.305 16.52.396 21.749.041 2.594.066 4.626.083 6.038v1.586c0 .38.198.487.198.487Z" fill="#EB996E"/><path d="M290.042 132.316a17.471 17.471 0 0 1-.479-3.931 17.76 17.76 0 0 1 0-3.965c.296 1.293.454 2.614.471 3.94.143 1.315.146 2.641.008 3.956Z" fill="#EB996E"/><path d="M95.725 301.49a45.02 45.02 0 0 1 42.952-11.779 78.29 78.29 0 0 1-43.447 13.571M110.295 249.914c-1.792-12.654 3.122-26.886 12.597-36.088.314 12.539-4.956 26.655-12.597 36.088ZM102.713 273.81a67.608 67.608 0 0 1 31.033-29.654 42.636 42.636 0 0 1-31.148 29.794M101.144 278.427c7.648.215 15.38-.058 22.772-2.015 7.393-1.958 14.464-5.708 19.387-11.564a76.055 76.055 0 0 0-42.044 12.836M105.025 263.237c-3.882-14.538-10.275-24.599-21.707-32.743a30.25 30.25 0 0 0 21.707 32.743ZM76.182 288.273a21.524 21.524 0 0 1 13.076-19.931c-.636 7.508-6.534 16.189-13.076 19.931ZM72.53 276.048a32.064 32.064 0 0 0-21.005-27.349c2.635 12.142 9.665 22.302 21.006 27.349ZM78.032 297.806c-2.692-3.857-7.095-6.253-11.646-7.434-4.551-1.181-9.301-1.289-14.042-1.388a32.747 32.747 0 0 0 25.3 10.515M83.492 328.789a35.89 35.89 0 0 0-43.778 20.757c15.917-3.023 31.627-10.085 43.82-20.757M100.962 318.01c-2.643 7.822-2.14 17.263 3.742 24.003a28.714 28.714 0 0 0-3.742-24.003ZM111.287 313.682a29.408 29.408 0 0 0 16.239 23.855 1.81 1.81 0 0 0 1.438.239c.718-.289.776-1.272.693-2.04-1.156-10.011-8.574-19.7-18.37-22.054ZM118.027 312.666a24.138 24.138 0 0 0 17.575 7.73 24.13 24.13 0 0 0 17.654-7.548c-11.2-1.231-24.119-2.049-35.229-.182Z" fill="#FF725E"/><path d="M119.704 223.152a1.523 1.523 0 0 1-.1.331c-.082.231-.198.545-.338.95-.322.826-.777 2.065-1.355 3.626s-1.297 3.502-2.098 5.782c-.413 1.123-.826 2.321-1.297 3.593l-1.404 4.047c-1.982 5.667-4.188 12.473-6.558 20.056-2.371 7.582-4.791 15.966-7.203 24.78-2.412 8.813-4.493 17.346-6.286 25.069-1.792 7.723-3.246 14.744-4.328 20.65-.281 1.47-.545 2.882-.826 4.212-.281 1.33-.446 2.586-.645 3.767-.404 2.346-.751 4.369-.982 6.038-.232 1.668-.455 2.924-.587 3.824-.074.422-.124.744-.165.991-.015.115-.04.229-.074.339a2.752 2.752 0 0 1 0-.347c0-.239.066-.57.115-.999.124-.901.29-2.189.512-3.833.223-1.644.529-3.7.909-6.054.19-1.182.396-2.437.611-3.775.215-1.338.496-2.743.768-4.221 1.041-5.914 2.52-12.927 4.238-20.65 1.718-7.723 3.882-16.231 6.26-25.086 2.38-8.854 4.882-17.23 7.237-24.821a499.186 499.186 0 0 1 6.657-20.031l1.421-4.039 1.33-3.585a309.448 309.448 0 0 1 3.601-9.325c.157-.397.289-.702.38-.933l.207-.356Z" fill="#263238"/><path d="m58.208 255.184.19.181.537.562a62.977 62.977 0 0 1 1.99 2.23 79.44 79.44 0 0 1 6.609 8.789 58.955 58.955 0 0 1 6.88 14.719c1.842 5.873 2.99 12.547 4.13 19.519 2.28 13.959 5.072 26.432 7.096 35.518l2.42 10.738c.28 1.247.495 2.221.644 2.915.066.314.124.57.165.76a.92.92 0 0 1 0 .265 1.347 1.347 0 0 1-.082-.248c-.05-.198-.116-.446-.199-.752l-.718-2.899c-.612-2.552-1.487-6.187-2.56-10.68-2.099-9.029-4.957-21.534-7.22-35.518-1.14-6.972-2.272-13.621-4.13-19.469a59.795 59.795 0 0 0-6.773-14.703 83.196 83.196 0 0 0-6.468-8.838c-.826-1-1.479-1.768-1.925-2.28l-.503-.595a1.39 1.39 0 0 1-.083-.214ZM121.372 312.227a1.22 1.22 0 0 1-.397.075l-1.164.132-.826.082-.992.149c-.71.099-1.519.207-2.403.405l-1.388.272-1.495.38c-1.033.232-2.106.612-3.246.959a46.98 46.98 0 0 0-7.087 3.122 40.253 40.253 0 0 0-6.36 4.419 30.246 30.246 0 0 0-2.478 2.337 27.63 27.63 0 0 0-1.933 2.231c-.51.63-.986 1.287-1.43 1.966-.357.499-.682 1.02-.974 1.561l-.595.999c-.062.122-.14.236-.231.339.032-.134.085-.263.157-.38l.52-1.041c.292-.571.62-1.123.983-1.652.426-.699.889-1.375 1.388-2.024a26.026 26.026 0 0 1 1.916-2.279 30.441 30.441 0 0 1 2.478-2.396 37.859 37.859 0 0 1 6.41-4.493 45.02 45.02 0 0 1 7.17-3.122c1.156-.339 2.238-.711 3.304-.934l1.503-.355 1.404-.248c.892-.182 1.718-.264 2.429-.347l.999-.115.826-.042 1.165-.049c.117.006.233.022.347.049ZM124.561 255.449c-.245.29-.522.55-.826.777l-2.313 1.999c-1.958 1.652-4.684 3.964-7.707 6.475a718.043 718.043 0 0 1-7.789 6.377l-2.395 1.892a7.033 7.033 0 0 1-.909.652c.242-.294.52-.558.826-.785l2.305-1.998c1.957-1.652 4.675-3.957 7.706-6.468a950.97 950.97 0 0 1 7.781-6.377l2.396-1.891c.29-.242.599-.461.925-.653ZM127.319 270.259c0 .116-5.848 1.949-13.133 4.13-7.286 2.181-13.216 3.808-13.216 3.692 0-.115 5.84-1.949 13.133-4.13 7.294-2.18 13.183-3.799 13.216-3.692ZM105.612 264.37a5.603 5.603 0 0 1-.612-.826l-1.544-2.363a148.119 148.119 0 0 0-5.394-7.59 143.957 143.957 0 0 0-5.898-7.195c-.743-.826-1.362-1.561-1.866-2.123a4.191 4.191 0 0 1-.645-.826c.277.211.534.446.768.702.48.463 1.149 1.157 1.966 2.032 1.652 1.751 3.8 4.246 6.022 7.145a93.569 93.569 0 0 1 5.295 7.69c.627 1.016 1.123 1.851 1.437 2.437a4.7 4.7 0 0 1 .471.917ZM85.194 272.58c-.411.783-.872 1.539-1.38 2.263a124.108 124.108 0 0 0-3.304 5.468c-1.23 2.165-2.28 4.18-3.015 5.642a18.01 18.01 0 0 1-1.247 2.321c.25-.854.576-1.683.975-2.478a61.312 61.312 0 0 1 2.915-5.716c1.264-2.18 2.478-4.089 3.42-5.427a13.481 13.481 0 0 1 1.636-2.073Z" fill="#263238"/><path d="M78.205 298.185c0 .057-1.148-.496-2.99-1.322a94.26 94.26 0 0 0-7.294-2.916 94.538 94.538 0 0 0-7.524-2.271c-1.95-.504-3.164-.768-3.156-.826.295-.002.588.028.876.091.562.082 1.363.239 2.354.454 2.573.56 5.108 1.28 7.59 2.156a64.028 64.028 0 0 1 7.286 3.048c.909.454 1.652.826 2.115 1.115.27.118.52.277.743.471ZM83.707 328.838a1.296 1.296 0 0 1-.364.124l-1.057.264-3.907.909c-4.316.899-8.58 2.023-12.778 3.37a56.795 56.795 0 0 0-11.911 5.592 52.78 52.78 0 0 0-3.304 2.288c-.377.317-.774.61-1.19.875.076-.104.165-.199.265-.28.181-.166.446-.422.826-.727a33.584 33.584 0 0 1 3.221-2.404 52.055 52.055 0 0 1 11.944-5.782c4.21-1.352 8.5-2.442 12.844-3.263l3.94-.768a9.335 9.335 0 0 1 1.47-.198ZM103.588 336.388c-.115 0-.826-4.13-1.561-9.21-.735-5.079-1.255-9.251-1.14-9.276.116-.024.826 4.13 1.561 9.219.735 5.088 1.264 9.251 1.14 9.267ZM124.297 328.872a23.057 23.057 0 0 1-1.867-2.214 336.244 336.244 0 0 0-4.419-5.402c-1.751-2.098-3.379-3.94-4.56-5.286a18.873 18.873 0 0 1-1.858-2.222c.218.146.418.318.594.512.356.347.868.826 1.487 1.503a110.746 110.746 0 0 1 4.667 5.221c1.76 2.098 3.304 4.047 4.328 5.484.529.727.95 1.314 1.231 1.735.166.202.299.427.397.669Z" fill="#263238"/><path d="M69.508 348.076v10.226h2.552l9.094 28.704h20.171l8.806-28.415 3.411-.289v-10.226H69.508Z" fill="#455A64"/><path d="M111.84 358.592c0 .115-8.905.206-19.89.206-10.986 0-19.89-.091-19.89-.206 0-.116 8.904-.215 19.89-.215 10.985 0 19.89.107 19.89.215ZM126.378 292.783a8.854 8.854 0 0 1-1.289.347l-3.544.826a156.105 156.105 0 0 0-11.522 3.354 146.24 146.24 0 0 0-11.21 4.295l-3.303 1.462a6.993 6.993 0 0 1-1.247.496 8.663 8.663 0 0 1 1.173-.653c.76-.396 1.883-.942 3.304-1.586a115.803 115.803 0 0 1 22.682-7.632 77.331 77.331 0 0 1 3.576-.727 7.053 7.053 0 0 1 1.38-.182Z" fill="#263238"/><path d="M105.142 374.525c0 .116-6.245.215-13.952.215-7.706 0-13.95-.099-13.95-.215 0-.115 6.244-.214 13.95-.214 7.707 0 13.952.099 13.952.214ZM105.926 372.154c0 .116-6.608.215-14.785.215-8.178 0-14.785-.099-14.785-.215 0-.115 6.608-.215 14.785-.215s14.785.1 14.785.215Z" fill="#FAFAFA"/><path d="m327.922 116.044 5.088-8.954a23.951 23.951 0 0 1 5.97-31.753 23.954 23.954 0 1 1-.188 38.146l-10.87 2.561Z" fill="#fff"/><path d="m327.922 116.045 10.82-2.66-.066.173a.122.122 0 0 1 0-.156.138.138 0 0 1 .071-.019c.024 0 .048.006.07.019a23.79 23.79 0 0 0 11.448 4.716c1.246.167 2.503.225 3.758.173.645 0 1.306-.057 1.966-.115l1.999-.314a23.957 23.957 0 0 0 14.761-9.524 23.55 23.55 0 0 0 3.973-9.135c.679-3.478.58-7.064-.289-10.499A23.253 23.253 0 0 0 371.378 79a23.912 23.912 0 0 0-9.086-6.501 24.172 24.172 0 0 0-10.59-1.652 23.368 23.368 0 0 0-9.738 2.891 24.131 24.131 0 0 0-11.259 13.819 25.668 25.668 0 0 0-1.057 7.707 23.888 23.888 0 0 0 3.469 11.803.095.095 0 0 1 .016.054.092.092 0 0 1-.016.053l-5.195 8.872c.355-.636 1.85-3.346 4.997-9.012v.107a23.957 23.957 0 0 1-3.601-11.902c-.051-2.643.3-5.277 1.041-7.814a24.57 24.57 0 0 1 4.088-7.79 24.286 24.286 0 0 1 7.31-6.244 23.699 23.699 0 0 1 9.912-2.932 24.52 24.52 0 0 1 10.738 1.652 24.063 24.063 0 0 1 9.26 6.608 23.68 23.68 0 0 1 5.154 9.912c.879 3.499.975 7.148.281 10.688a23.813 23.813 0 0 1-4.064 9.284 24.211 24.211 0 0 1-15.017 9.632l-2.032.305c-.669.058-1.338.075-1.99.108a21.27 21.27 0 0 1-3.8-.19 23.953 23.953 0 0 1-11.523-4.874l.157-.148a.11.11 0 0 1 .027.074.113.113 0 0 1-.027.074h-.041l-10.87 2.462Z" fill="#263238"/><path d="M347.011 94.056a2.072 2.072 0 1 1-4.144-.002 2.072 2.072 0 0 1 4.144.002ZM355.296 94.056a2.074 2.074 0 1 1-4.147-.002 2.074 2.074 0 0 1 4.147.002ZM363.564 93.016c.206.355.302.762.277 1.172a2.075 2.075 0 0 1-4.124.145 2.065 2.065 0 0 1 1.014-2.069 2.073 2.073 0 0 1 2.833.752Z" fill="#263238"/><path d="m174.646 117.598.928-11.296h1.648l2.608 6.112.544 1.52h.032a26.41 26.41 0 0 1 .56-1.52l2.608-6.112h1.648l.912 11.296h-1.568l-.544-7.12-.032-1.664h-.032a29.512 29.512 0 0 1-.608 1.664l-2.256 5.088h-1.408l-2.24-5.088-.608-1.696h-.032c.021.672.011 1.237-.032 1.696l-.544 7.12h-1.584Zm13.401-2.208c0-.598.166-1.099.496-1.504a2.675 2.675 0 0 1 1.312-.864 8.773 8.773 0 0 1 1.536-.368c.47-.064.966-.096 1.488-.096h.416v-.16c0-1.184-.592-1.776-1.776-1.776-.778 0-1.536.261-2.272.784l-.624-1.136c.331-.278.779-.507 1.344-.688a5.463 5.463 0 0 1 1.68-.272c1.024 0 1.814.272 2.368.816.555.544.832 1.328.832 2.352v5.12h-1.456v-.816l.048-.64h-.032c-.245.48-.608.874-1.088 1.184a2.79 2.79 0 0 1-1.568.464c-.736 0-1.37-.219-1.904-.656-.533-.438-.8-1.019-.8-1.744Zm1.552-.128c0 .352.134.656.4.912.267.256.64.384 1.12.384.64 0 1.163-.267 1.568-.8a2.864 2.864 0 0 0 .608-1.776v-.304h-.4c-2.197 0-3.296.528-3.296 1.584Zm7.862 5.536v-11.296h1.44v.72l-.048.608h.032a2.72 2.72 0 0 1 1.104-1.12c.48-.267 1.019-.4 1.616-.4 1.088 0 1.952.389 2.592 1.168.64.778.96 1.802.96 3.072 0 1.28-.341 2.309-1.024 3.088-.683.768-1.563 1.152-2.64 1.152-1.077 0-1.915-.459-2.512-1.376h-.032c.043.192.064.426.064.704v3.68h-1.552Zm1.504-7.216c0 .768.203 1.44.608 2.016.416.565.976.848 1.68.848.661 0 1.216-.256 1.664-.768.448-.523.672-1.227.672-2.112 0-.875-.213-1.574-.64-2.096-.416-.534-.965-.8-1.648-.8-.661 0-1.216.245-1.664.736-.448.49-.672 1.216-.672 2.176Zm8.425 4.016v-8.096h1.488v4.832c0 .565-.016.928-.048 1.088h.032c.054-.128.294-.491.72-1.088l3.488-4.832h1.504v8.096h-1.504v-4.832c0-.15.006-.358.016-.624.022-.278.032-.427.032-.448h-.032c-.01.021-.245.378-.704 1.072l-3.504 4.832h-1.488Zm9.883 0v-8.096h1.552v3.296h4.096v-3.296h1.552v8.096h-1.552v-3.472h-4.096v3.472h-1.552Zm9.242-2.208c0-.598.165-1.099.496-1.504.33-.406.768-.694 1.312-.864a8.731 8.731 0 0 1 1.536-.368 11.01 11.01 0 0 1 1.488-.096h.416v-.16c0-1.184-.592-1.776-1.776-1.776-.779 0-1.536.261-2.272.784l-.624-1.136c.33-.278.778-.507 1.344-.688a5.454 5.454 0 0 1 1.68-.272c1.024 0 1.813.272 2.368.816.554.544.832 1.328.832 2.352v5.12h-1.456v-.816l.048-.64h-.032c-.246.48-.608.874-1.088 1.184-.47.309-.992.464-1.568.464-.736 0-1.371-.219-1.904-.656-.534-.438-.8-1.019-.8-1.744Zm1.552-.128c0 .352.133.656.4.912.266.256.64.384 1.12.384.64 0 1.162-.267 1.568-.8a2.87 2.87 0 0 0 .608-1.776v-.304h-.4c-2.198 0-3.296.528-3.296 1.584Z" fill="#455A64"/></svg>