<svg width="56" height="16" fill="none" xmlns="http://www.w3.org/2000/svg"><path fill-rule="evenodd" clip-rule="evenodd" d="M14.918.676v.006c-.007 0-2.16-.006-2.734 1.89-.527 1.739-2.01 6.54-2.051 6.672h-.41S8.205 4.336 7.672 2.566C7.098.669 4.938.676 4.938.676H.016v14.427h4.922V6.535h.41l2.87 8.568h3.419l2.87-8.562h.411v8.562h4.922V.676h-4.922ZM32.896.676s-1.443.12-2.12 1.512L27.29 9.244h-.41V.676h-4.922v14.427h4.649s1.51-.126 2.187-1.512l3.418-7.056h.41v8.568h4.922V.676h-4.648ZM39.732 7.229v7.874h4.922v-4.598h5.332c2.325 0 4.293-1.368 5.025-3.276H39.732Z" fill="#4DB45E"/><path fill-rule="evenodd" clip-rule="evenodd" d="M49.986.676H39.042c.547 2.747 2.782 4.952 5.674 5.67a8.495 8.495 0 0 0 2.057.252h8.436c.075-.328.11-.662.11-1.008 0-2.716-2.386-4.914-5.333-4.914Z" fill="url(#a)"/><defs><linearGradient id="a" x1="39.043" y1="3.637" x2="55.318" y2="3.637" gradientUnits="userSpaceOnUse"><stop offset=".3" stop-color="#04A0D9"/><stop offset="1" stop-color="#0792CF"/></linearGradient></defs></svg>