<svg width="35" height="28" fill="none" xmlns="http://www.w3.org/2000/svg"><g clip-path="url(#a)"><path d="M6.21 27.006V25.27c0-.666-.412-1.1-1.089-1.1-.355 0-.735.116-1 .49-.206-.32-.498-.49-.942-.49a1.014 1.014 0 0 0-.853.406v-.35h-.559v2.778h.56v-1.59c0-.488.294-.722.706-.722s.647.26.647.723v1.59h.56v-1.59c0-.49.294-.723.706-.723s.647.26.647.723v1.59h.617Zm9.183-2.749h-1.03v-.838h-.558v.838h-.588v.49h.588v1.304c0 .636.235 1.013.942 1.013.267-.006.53-.075.764-.203l-.177-.489a.98.98 0 0 1-.53.145c-.295 0-.442-.174-.442-.463v-1.33h1.03v-.463l.001-.004Zm5.24-.087a.892.892 0 0 0-.766.406v-.35h-.56v2.778h.56v-1.56c0-.463.235-.752.618-.752.13.005.258.024.383.058l.177-.522a2.025 2.025 0 0 0-.413-.058Zm-7.918.29c-.294-.203-.707-.29-1.148-.29-.706 0-1.148.319-1.148.869 0 .463.324.723.942.81l.294.029c.324.058.53.174.53.318 0 .203-.235.35-.677.35a1.57 1.57 0 0 1-.941-.29l-.295.434c.412.29.913.35 1.208.35.825 0 1.266-.376 1.266-.898 0-.488-.355-.723-.971-.81l-.295-.029c-.265-.028-.497-.115-.497-.289 0-.202.235-.349.56-.349.355 0 .706.145.883.231l.289-.436Zm8.536 1.157c0 .838.56 1.447 1.471 1.447.413 0 .707-.087 1.001-.319l-.294-.434a1.202 1.202 0 0 1-.736.261c-.497 0-.883-.376-.883-.925 0-.55.381-.923.883-.923.268.003.528.094.736.26l.294-.434c-.294-.23-.588-.318-1-.318-.884-.058-1.472.55-1.472 1.389v-.004Zm-3.944-1.447c-.825 0-1.384.579-1.384 1.447 0 .868.588 1.447 1.442 1.447.415.009.82-.124 1.148-.376l-.295-.405c-.236.18-.525.281-.824.29-.382 0-.795-.232-.853-.724h2.09v-.231c0-.868-.53-1.447-1.324-1.447Zm-.03.522c.413 0 .707.26.736.694h-1.53c.088-.405.355-.694.794-.694Zm-7.623.925v-1.389h-.56v.35c-.205-.26-.497-.405-.912-.405-.794 0-1.383.607-1.383 1.446 0 .84.588 1.447 1.383 1.447.412 0 .707-.145.913-.405v.35h.56v-1.394Zm-2.266 0c0-.521.324-.925.883-.925.53 0 .853.405.853.925 0 .55-.355.926-.853.926-.56.028-.883-.405-.883-.926ZM29.14 24.17a.892.892 0 0 0-.765.406v-.35h-.56v2.778h.559v-1.56c0-.463.235-.752.618-.752.13.005.258.024.382.058l.177-.522a2.025 2.025 0 0 0-.412-.058Zm-2.178 1.447v-1.389h-.56v.35c-.206-.26-.497-.405-.912-.405-.795 0-1.384.607-1.384 1.446 0 .84.589 1.447 1.384 1.447.412 0 .706-.145.912-.405v.35h.56v-1.394Zm-2.267 0c0-.521.324-.925.884-.925.53 0 .852.405.852.925 0 .55-.355.926-.852.926-.56.028-.884-.405-.884-.926Zm7.948 0V23.13h-.56v1.447c-.206-.26-.497-.405-.912-.405-.795 0-1.384.607-1.384 1.446 0 .84.589 1.447 1.384 1.447.412 0 .706-.145.913-.405v.349h.559v-1.39Zm-2.267 0c0-.521.325-.925.884-.925.53 0 .853.405.853.925 0 .55-.356.926-.853.926-.56.03-.884-.405-.884-.926Z" fill="#2B2B2B"/><path d="M22.282 3.166H12.068v16.376h10.214V3.166Z" fill="#FF5F00"/><path d="M13.097 11.353c0-1.575.363-3.13 1.061-4.548a10.478 10.478 0 0 1 2.971-3.64A10.697 10.697 0 0 0 11.712.997a10.757 10.757 0 0 0-5.762.988 10.536 10.536 0 0 0-4.352 3.842 10.285 10.285 0 0 0-1.614 5.526c0 1.954.56 3.87 1.614 5.526a10.536 10.536 0 0 0 4.352 3.842 10.757 10.757 0 0 0 5.762.988 10.697 10.697 0 0 0 5.417-2.168 10.478 10.478 0 0 1-2.97-3.64 10.297 10.297 0 0 1-1.062-4.548Z" fill="#EB001B"/><path d="M34.291 11.354a10.274 10.274 0 0 1-1.61 5.523 10.526 10.526 0 0 1-4.346 3.842 10.746 10.746 0 0 1-5.757.988 10.686 10.686 0 0 1-5.414-2.165 10.474 10.474 0 0 0 2.971-3.64 10.292 10.292 0 0 0 1.061-4.548c0-1.575-.362-3.13-1.06-4.548a10.474 10.474 0 0 0-2.972-3.64 10.686 10.686 0 0 1 5.414-2.165c1.975-.208 3.97.134 5.757.988a10.525 10.525 0 0 1 4.347 3.842 10.274 10.274 0 0 1 1.61 5.523Z" fill="#F79E1B"/></g><defs><clipPath id="a"><path fill="#fff" transform="translate(0 .938)" d="M0 0h34.29v26.126H0z"/></clipPath></defs></svg>