<svg width="40" height="26" viewBox="0 0 40 26" fill="none" xmlns="http://www.w3.org/2000/svg">
<g clip-path="url(#clip0_4919_8893)">
<path d="M38.4122 0.46875C37.0819 0.873872 35.7515 1.21147 34.4212 1.61659C33.0908 2.02171 31.7605 2.35931 30.4302 2.76444C29.632 2.967 28.9668 4.04732 28.9668 5.06013V7.89597V10.7318C28.9668 11.7446 29.632 12.8249 30.4302 13.0275C31.7605 13.4326 33.0908 13.7703 34.4212 14.1753C35.7515 14.5805 37.0819 14.9181 38.4122 15.3232C39.2104 15.5258 39.8091 14.3779 39.8756 12.7575V3.10204C39.8756 1.54908 39.2769 0.46875 38.6118 0.46875C38.5452 0.46875 38.4787 0.46875 38.4122 0.46875Z" fill="#033D41"/>
<path d="M10.6739 2.76499C9.34363 2.35987 8.01327 2.02226 6.68291 1.61714C5.35258 1.21202 4.02224 0.874421 2.69189 0.4693C1.89369 0.266739 1.22852 1.4821 1.22852 3.23763V7.96403V12.6905C1.22852 14.446 1.89369 15.6614 2.69189 15.3913C4.02224 14.9862 5.35258 14.6486 6.68291 14.2434C8.01327 13.8383 9.34363 13.5007 10.6739 13.0956C11.4722 12.893 12.1373 11.8127 12.1373 10.7999V7.89653V5.06068C12.1373 4.04787 11.4722 3.03507 10.6739 2.76499Z" fill="#8FC584"/>
<path d="M23.3782 2.76501C24.0434 2.35989 24.7085 2.02229 25.3737 1.61717C26.0389 1.21205 26.704 0.874446 27.3692 0.469326C27.7683 0.266766 28.1009 1.48213 28.1009 3.17013V7.89653V12.623C28.1009 14.3785 27.7683 15.5938 27.3692 15.3238C26.704 14.9187 26.0389 14.581 25.3737 14.1759C24.7085 13.7708 24.0434 13.4332 23.3782 13.0281C22.9791 12.8255 22.6465 11.7452 22.6465 10.7324V7.89653V5.0607C22.6465 4.0479 22.9791 3.03509 23.3782 2.76501Z" fill="#025842"/>
<path d="M17.7246 2.76501C17.0595 2.35989 16.3943 2.02229 15.7291 1.61717C15.064 1.21205 14.3988 0.874446 13.7336 0.469326C13.3345 0.266766 13.002 1.48213 13.002 3.17013V7.89653V12.623C13.002 14.3785 13.3345 15.5938 13.7336 15.3238C14.3988 14.9187 15.064 14.581 15.7291 14.1759C16.3943 13.7708 17.0595 13.4332 17.7246 13.0281C18.1237 12.8255 18.4564 11.7452 18.4564 10.7324V7.89653V5.0607C18.4564 4.0479 18.1237 3.03509 17.7246 2.76501Z" fill="#6BB86F"/>
<path d="M21.1174 2.76501C21.1839 2.35989 21.317 2.02229 21.3835 1.61717C21.5165 1.21205 21.583 0.874446 21.716 0.469326C21.7826 0.266766 21.8491 1.48213 21.8491 3.17013V7.89653V12.623C21.8491 14.3785 21.7826 15.5938 21.716 15.3238C21.6495 14.9187 21.5165 14.581 21.3835 14.1759C21.317 13.7708 21.1839 13.4332 21.1174 13.0281C21.0509 12.8255 20.9844 11.7452 20.9844 10.7324V7.89653V5.0607C20.9844 4.0479 21.0509 3.03509 21.1174 2.76501Z" fill="#2F7433"/>
<path d="M20.0521 2.76501C19.9191 2.35989 19.8526 2.02229 19.7195 1.61717C19.5865 1.21205 19.52 0.874446 19.3869 0.469326C19.3204 0.266766 19.2539 1.48213 19.2539 3.17013V7.89653V12.623C19.2539 14.3785 19.3204 15.5938 19.3869 15.3238C19.52 14.9187 19.5865 14.581 19.7195 14.1759C19.8526 13.7708 19.9191 13.4332 20.0521 13.0281C20.1186 12.8255 20.1851 11.7452 20.1851 10.7324V7.89653V5.0607C20.1186 4.0479 20.0521 3.03509 20.0521 2.76501Z" fill="#3C8340"/>
<path d="M9.942 25.5868V21.063H8.7447V24.8441C8.67814 24.8441 8.61164 24.9117 8.47863 24.9117C8.34556 24.9117 8.21255 24.9117 8.07949 24.9117C7.81342 24.9117 7.6139 24.8441 7.48084 24.7091C7.34783 24.574 7.28127 24.3715 7.28127 24.169V20.9955H6.08398V24.1014C6.08398 24.5065 6.15048 24.8441 6.28354 25.1142C6.41655 25.3843 6.68262 25.5868 6.9487 25.7219C7.21477 25.8569 7.6139 25.9245 8.01299 25.9245C8.27906 25.9245 8.47863 25.9245 8.7447 25.8569C9.01072 25.8569 9.21029 25.7894 9.40985 25.7219C9.60942 25.7219 9.80894 25.6544 9.942 25.5868ZM14.4652 25.8569V22.5484C14.4652 22.2108 14.3986 21.9408 14.2656 21.6707C14.1325 21.4006 13.8665 21.2656 13.6004 21.1305C13.2678 20.9955 12.9352 20.928 12.4697 20.928C12.0705 20.928 11.7379 20.9955 11.4054 20.9955C11.0728 21.063 10.8067 21.1305 10.5406 21.2656V25.7894H11.7379V22.0758C11.8045 22.0758 11.9375 22.0083 12.0705 22.0083C12.2036 22.0083 12.3366 21.9408 12.4697 21.9408C12.7357 21.9408 12.9352 22.0083 13.0683 22.1433C13.2013 22.2784 13.2678 22.4809 13.2678 22.6835V25.8569H14.4652ZM16.3941 19.6451C16.3941 19.51 16.3941 19.4425 16.3276 19.3075C16.2611 19.24 16.1946 19.1049 16.0616 19.1049C15.9285 19.0374 15.862 19.0374 15.729 19.0374C15.5959 19.0374 15.4629 19.0374 15.3964 19.1049C15.2633 19.1724 15.1968 19.24 15.1303 19.3075C15.0638 19.375 15.0638 19.51 15.0638 19.6451C15.0638 19.7801 15.0638 19.8477 15.1303 19.9827C15.1968 20.0502 15.2633 20.1852 15.3964 20.2528C15.5294 20.3203 15.5959 20.3203 15.729 20.3203C15.862 20.3203 15.9951 20.3203 16.0616 20.2528C16.1946 20.1852 16.2611 20.1177 16.3276 19.9827C16.3941 19.9151 16.3941 19.7801 16.3941 19.6451ZM16.3276 21.063H15.1303V25.8569H16.3276V21.063ZM19.3874 25.7894V24.7766C19.3209 24.7766 19.3209 24.8441 19.2544 24.8441C19.1879 24.8441 19.1214 24.8441 19.0549 24.8441C18.9218 24.8441 18.8553 24.8441 18.7888 24.7766C18.7222 24.7766 18.6557 24.7091 18.5892 24.6416C18.5227 24.574 18.5227 24.439 18.5227 24.304V21.9408H19.3874V21.063H18.5227V19.6451L17.3254 19.9827V21.063H16.7267V21.9408H17.3254V24.3715C17.3254 24.8441 17.4584 25.2493 17.658 25.5193C17.8575 25.7894 18.1901 25.9245 18.6557 25.9245C18.7222 25.9245 18.8553 25.9245 18.9218 25.9245C18.9883 25.9245 19.1214 25.9245 19.1879 25.8569C19.2544 25.8569 19.3209 25.7894 19.3874 25.7894ZM23.7111 23.1562C23.7111 22.8185 23.6445 22.5484 23.578 22.2784C23.5115 22.0083 23.3785 21.8057 23.1789 21.6032C22.9793 21.4006 22.7798 21.2656 22.5138 21.1305C22.2477 20.9955 21.9816 20.9955 21.649 20.9955C21.3164 20.9955 20.9838 21.063 20.7177 21.198C20.4517 21.3331 20.1856 21.4681 20.0526 21.7382C19.853 21.9408 19.72 22.2108 19.6535 22.5484C19.587 22.8861 19.5205 23.1562 19.5205 23.5612C19.5205 23.8989 19.587 24.2365 19.6535 24.574C19.7865 24.9117 19.9196 25.1142 20.1191 25.3843C20.3187 25.5868 20.5847 25.7894 20.8508 25.9245C21.1169 26.0595 21.516 26.127 21.8485 26.127C22.0481 26.127 22.3142 26.127 22.5138 26.0595C22.7133 26.0595 22.9128 25.992 23.1124 25.9245C23.3119 25.8569 23.445 25.7894 23.578 25.7219L23.2454 24.8441C23.1124 24.9117 22.9793 24.9792 22.8463 24.9792C22.7133 25.0467 22.5803 25.0467 22.3807 25.1142C22.2477 25.1142 22.0481 25.1818 21.9151 25.1818C21.7155 25.1818 21.4495 25.1142 21.3164 25.0467C21.1169 24.9792 20.9838 24.8441 20.8508 24.7091C20.7177 24.574 20.6512 24.3715 20.6512 24.1014L23.7111 23.6963C23.7111 23.6288 23.7111 23.5612 23.7111 23.4937C23.7111 23.2912 23.7111 23.2236 23.7111 23.1562ZM22.5803 22.9536L20.5847 23.2236C20.5847 22.9536 20.6512 22.6835 20.7177 22.4809C20.7843 22.2784 20.9173 22.1433 21.1169 22.0083C21.2499 21.8733 21.4495 21.8733 21.649 21.8733C21.8485 21.8733 21.9816 21.9408 22.1146 22.0083C22.2477 22.0758 22.3807 22.2108 22.4472 22.3459C22.5138 22.4809 22.5803 22.6835 22.5803 22.9536ZM25.4405 18.9023H24.2432V25.8569H25.4405V18.9023ZM27.3695 18.9023H26.1722V25.8569H27.3695V18.9023ZM32.0257 23.1562C32.0257 22.8185 31.9592 22.5484 31.8926 22.2784C31.8261 22.0083 31.6931 21.8057 31.4936 21.6032C31.294 21.4006 31.0945 21.2656 30.8284 21.1305C30.5623 20.9955 30.2963 20.9955 29.9637 20.9955C29.6311 20.9955 29.2985 21.063 29.0324 21.198C28.7663 21.3331 28.5003 21.4681 28.3672 21.7382C28.1677 21.9408 28.0347 22.2108 27.9682 22.5484C27.9016 22.751 27.8351 23.0886 27.8351 23.4937C27.8351 23.8313 27.9016 24.169 27.9682 24.5065C28.1012 24.8441 28.2342 25.0467 28.4337 25.3168C28.6333 25.5193 28.8994 25.7219 29.1655 25.8569C29.4315 25.992 29.8306 26.0595 30.1632 26.0595C30.3628 26.0595 30.6288 26.0595 30.8284 25.992C31.0279 25.992 31.2275 25.9245 31.427 25.8569C31.6266 25.7894 31.7596 25.7219 31.8926 25.6544L31.5601 24.7766C31.427 24.8441 31.294 24.9117 31.161 24.9117C31.0279 24.9792 30.8949 24.9792 30.6953 25.0467C30.5623 25.0467 30.3628 25.1142 30.2297 25.1142C30.0302 25.1142 29.7641 25.0467 29.6311 24.9792C29.4315 24.9117 29.2985 24.7766 29.1655 24.6416C29.0324 24.5065 28.9659 24.304 28.9659 24.0339L32.0257 23.6288C32.0257 23.5612 32.0257 23.4937 32.0257 23.4262C32.0257 23.2912 32.0257 23.2236 32.0257 23.1562ZM30.8949 22.9536L28.8994 23.2236C28.8994 22.9536 28.9659 22.6835 29.0324 22.4809C29.099 22.2784 29.232 22.1433 29.4315 22.0083C29.5645 21.8733 29.7641 21.8733 29.9637 21.8733C30.1632 21.8733 30.2963 21.9408 30.4293 22.0083C30.5623 22.0758 30.6953 22.2108 30.7619 22.3459C30.8284 22.4809 30.8949 22.6835 30.8949 22.9536ZM35.0189 20.9955C34.9524 20.9955 34.8194 20.9955 34.7529 20.9955C34.6199 20.9955 34.5534 20.9955 34.4203 20.9955C34.0212 20.9955 33.6886 21.063 33.3561 21.063C33.0234 21.1305 32.7574 21.198 32.4913 21.3331V25.8569H33.6886V22.0083C33.7551 22.0083 33.8882 21.9408 33.9547 21.9408C34.0877 21.9408 34.1542 21.9408 34.2873 21.9408C34.3538 21.9408 34.4868 21.9408 34.5534 21.9408C34.6199 21.9408 34.7529 21.9408 34.8194 22.0083L35.0189 20.9955Z" fill="#4A4A49"/>
</g>
<defs>
<clipPath id="clip0_4919_8893">
<rect width="39" height="26" fill="white" transform="translate(0.994141)"/>
</clipPath>
</defs>
</svg>
