<svg width="51" height="17" fill="none" xmlns="http://www.w3.org/2000/svg"><path d="m47.25 16.296-.474-2.367h-5.303l-.843 2.35-4.25.009A8822.89 8822.89 0 0 1 42.462 1.73c.346-.823.96-1.242 1.865-1.237.692.006 1.82.006 3.387.002L51 16.29l-3.75.006Zm-4.583-5.61h3.417l-1.276-5.934-2.141 5.934ZM15.27.491l4.273.005-6.605 15.802-4.326-.004A1996.723 1996.723 0 0 1 5.39 3.761c-.21-.833-.628-1.416-1.432-1.691C2.771 1.673 1.578 1.293.38.93V.497h6.827c1.181 0 1.87.57 2.092 1.74.224 1.172.785 4.156 1.688 8.951L15.27.491Zm10.145.005-3.379 15.798-4.066-.004L21.346.49l4.07.005Zm8.247-.293c1.217 0 2.75.379 3.632.726l-.713 3.276c-.797-.32-2.11-.75-3.212-.736-1.603.027-2.594.698-2.594 1.342 0 1.048 1.72 1.576 3.492 2.721 2.023 1.305 2.289 2.477 2.263 3.75-.027 2.643-2.263 5.25-6.979 5.25-2.151-.032-2.927-.213-4.682-.833l.742-3.42c1.787.747 2.544.985 4.071.985 1.398 0 2.599-.564 2.609-1.547.008-.698-.422-1.045-1.991-1.908-1.57-.865-3.771-2.062-3.742-4.465.036-3.077 2.957-5.14 7.106-5.14h-.002Z" fill="url(#a)"/><defs><linearGradient id="a" x1="6.466" y1=".203" x2="50.554" y2="20.614" gradientUnits="userSpaceOnUse"><stop offset=".243" stop-color="#1B1E65"/><stop offset="1" stop-color="#1F47A6"/></linearGradient></defs></svg>