<svg width="36" height="31" fill="none" xmlns="http://www.w3.org/2000/svg"><g clip-path="url(#a)"><path opacity=".1" fill-rule="evenodd" clip-rule="evenodd" d="M20.408 8.837c0-3.881 3.21-7.044 7.189-7.044 3.98 0 7.189 3.163 7.189 7.044 0 3.42-2.491 6.28-5.805 6.913v1.016c3.857-.645 6.805-3.943 6.805-7.93 0-4.45-3.675-8.043-8.19-8.043-4.513 0-8.188 3.592-8.188 8.044 0 3.913 2.84 7.162 6.593 7.89v-1.02c-3.207-.712-5.593-3.524-5.593-6.87Zm8.573 5.795c2.695-.593 4.719-2.956 4.719-5.795 0-3.289-2.715-5.939-6.044-5.939-3.328 0-6.043 2.65-6.043 5.939 0 2.722 1.86 5.006 4.388 5.713v-1.047c-1.976-.671-3.388-2.512-3.388-4.666 0-2.719 2.25-4.939 5.044-4.939 2.794 0 5.043 2.22 5.043 4.939 0 2.272-1.572 4.196-3.719 4.767v1.028Zm0-2.108c1.502-.57 2.573-2 2.573-3.687 0-2.19-1.807-3.95-4.017-3.95-2.209 0-4.016 1.76-4.016 3.95 0 1.652 1.027 3.058 2.48 3.65v-1.11a2.94 2.94 0 0 1-1.48-2.54c0-1.62 1.341-2.95 3.016-2.95s3.017 1.33 3.017 2.95c0 1.113-.633 2.09-1.573 2.591v1.096Z" fill="#ECBDA7"/><path d="M33.694 19.422H2.307c-1.109 0-2.008.882-2.008 1.97v5.065c0 1.088.9 1.97 2.008 1.97h31.387c1.11 0 2.009-.882 2.009-1.97v-5.064c0-1.089-.9-1.971-2.009-1.971Z" stroke="#FA4907" stroke-miterlimit="10"/><path d="M7.203 28.426H3.627v2.28h3.576v-2.28ZM32.135 28.426h-3.576v2.28h3.576v-2.28ZM27.49 8c.395 0 .774.154 1.054.428s.436.646.436 1.034v9.65H26v-9.65c0-.388.157-.76.436-1.034.28-.274.659-.428 1.054-.428Z" stroke="#FA4907" stroke-miterlimit="10"/><path d="M26.643 23.516h-1.192v1.17h1.192v-1.17ZM28.967 23.574h-1.192v1.17h1.192v-1.17ZM30.995 23.574h-1.192v1.17h1.192v-1.17Z" fill="#FA4907"/></g><defs><clipPath id="a"><path fill="#fff" d="M0 0h36v31H0z"/></clipPath></defs></svg>