<svg width="18" height="18" viewBox="0 0 18 18" fill="none" xmlns="http://www.w3.org/2000/svg">
<path d="M16.2831 6.96666L13.2831 3.96666C13.2132 3.89673 13.1301 3.84126 13.0388 3.80342C12.9474 3.76557 12.8495 3.74609 12.7506 3.74609C12.5509 3.74609 12.3593 3.82543 12.2181 3.96666C12.0769 4.10789 11.9975 4.29944 11.9975 4.49916C11.9975 4.69889 12.0769 4.89043 12.2181 5.03166L13.9431 6.74916H5.25059C5.05168 6.74916 4.86092 6.82818 4.72026 6.96883C4.57961 7.10948 4.50059 7.30025 4.50059 7.49916C4.50059 7.69807 4.57961 7.88884 4.72026 8.02949C4.86092 8.17014 5.05168 8.24916 5.25059 8.24916H15.7506C15.8987 8.24842 16.0432 8.20387 16.166 8.12112C16.2888 8.03837 16.3843 7.92113 16.4406 7.78416C16.498 7.64758 16.5137 7.49704 16.4857 7.35155C16.4577 7.20606 16.3872 7.07213 16.2831 6.96666ZM12.7506 9.74916H2.25059C2.10252 9.7499 1.95799 9.79445 1.8352 9.8772C1.71241 9.95995 1.61686 10.0772 1.56059 10.2142C1.50316 10.3507 1.48747 10.5013 1.5155 10.6468C1.54353 10.7923 1.61402 10.9262 1.71809 11.0317L4.71809 14.0317C4.78782 14.102 4.87077 14.1578 4.96216 14.1958C5.05356 14.2339 5.15158 14.2535 5.25059 14.2535C5.3496 14.2535 5.44763 14.2339 5.53903 14.1958C5.63042 14.1578 5.71337 14.102 5.78309 14.0317C5.85339 13.9619 5.90919 13.879 5.94726 13.7876C5.98534 13.6962 6.00494 13.5982 6.00494 13.4992C6.00494 13.4002 5.98534 13.3021 5.94726 13.2107C5.90919 13.1193 5.85339 13.0364 5.78309 12.9667L4.05809 11.2492H12.7506C12.9495 11.2492 13.1403 11.1701 13.2809 11.0295C13.4216 10.8888 13.5006 10.6981 13.5006 10.4992C13.5006 10.3002 13.4216 10.1095 13.2809 9.96883C13.1403 9.82818 12.9495 9.74916 12.7506 9.74916Z" fill="#AAAAAA"/>
</svg>
