<svg width="18" height="19" viewBox="0 0 18 19" fill="none" xmlns="http://www.w3.org/2000/svg">
<g clip-path="url(#clip0_1729_27488)">
<path d="M16.4996 5.74378V1.67383H12.4297" stroke="#DBDBDB" stroke-width="2" stroke-linecap="round" stroke-linejoin="round"/>
<path d="M11.7539 6.42211L16.5022 1.67383" stroke="#DBDBDB" stroke-width="2" stroke-linecap="round" stroke-linejoin="round"/>
<path d="M15.8227 12.4723V14.5072C15.8234 14.6961 15.7847 14.8831 15.709 15.0562C15.6334 15.2293 15.5224 15.3847 15.3832 15.5124C15.2439 15.6401 15.0796 15.7374 14.9006 15.7979C14.7217 15.8584 14.5321 15.8809 14.3439 15.8639C12.2566 15.6371 10.2516 14.9238 8.48995 13.7814C6.851 12.74 5.46146 11.3504 4.42 9.71147C3.27361 7.94185 2.56019 5.92708 2.33754 3.83038C2.32059 3.6428 2.34288 3.45375 2.403 3.27525C2.46311 3.09676 2.55974 2.93274 2.68672 2.79364C2.8137 2.65454 2.96825 2.5434 3.14053 2.4673C3.31282 2.3912 3.49906 2.35181 3.68741 2.35163H5.72238C6.05158 2.34839 6.37072 2.46496 6.62033 2.67962C6.86993 2.89428 7.03296 3.19238 7.07904 3.51835C7.16493 4.16959 7.32422 4.80902 7.55386 5.42445C7.64513 5.66723 7.66488 5.9311 7.61078 6.18477C7.55668 6.43844 7.43099 6.67128 7.24862 6.85571L6.38714 7.71719C7.35278 9.41541 8.75888 10.8215 10.4571 11.7871L11.3186 10.9257C11.503 10.7433 11.7358 10.6176 11.9895 10.5635C12.2432 10.5094 12.5071 10.5292 12.7498 10.6204C13.3653 10.8501 14.0047 11.0094 14.6559 11.0953C14.9854 11.1417 15.2864 11.3077 15.5015 11.5616C15.7166 11.8155 15.8309 12.1396 15.8227 12.4723Z" stroke="#DBDBDB" stroke-width="2" stroke-linecap="round" stroke-linejoin="round"/>
</g>
<defs>
<clipPath id="clip0_1729_27488">
<rect width="18" height="18" fill="white" transform="translate(0 0.173828)"/>
</clipPath>
</defs>
</svg>
