<svg width="415" height="161" viewBox="0 0 415 161" fill="none" xmlns="http://www.w3.org/2000/svg"><path d="M8.89794 67.6228C8.89794 67.6228 40.4149 150.658 135.996 114.233C200.386 89.6898 207.452 47.0333 264.879 23.0038C342.008 -9.2637 409.406 73.2542 409.406 73.2542M8.45227 73.5194C8.45227 73.5194 46.7045 148.95 135.822 106.571C197.177 77.3965 213.244 41.6157 269.849 25.1078C344.816 3.24413 406.719 80.0276 406.719 80.0276M8.00038 79.4168C8.00038 79.4168 52.9557 147.058 135.641 98.9102C193.919 64.9768 218.953 36.108 274.849 27.2394C347.562 15.7162 404.051 86.849 404.051 86.849M7.55385 85.3071C7.55385 85.3071 59.1294 144.974 135.473 91.2474C190.631 52.4345 224.595 30.4384 279.798 29.3718C350.191 27.9827 401.351 93.6748 401.351 93.6748M7.10023 91.1921C7.10023 91.1921 65.1643 142.712 135.322 83.5696C187.261 39.7577 230.319 24.6688 284.8 31.4776C352.859 40.0343 398.633 100.497 398.633 100.497M6.65629 97.101C6.65629 97.101 71.0529 140.401 135.126 75.9297C183.712 27.0296 236.045 18.6957 289.744 33.617C355.605 51.9103 395.938 107.309 395.938 107.309" stroke="white" stroke-opacity="0.5" stroke-width="1.34" stroke-miterlimit="10"/></svg>
