<svg width="335" height="500" fill="none" xmlns="http://www.w3.org/2000/svg"><path d="M117.28 119.93c.75-5.44-6.93-9.92-12.7-10.39-2.75-.22-5.61.2-8.22-.71-5.65-2-7.9-9.26-13.41-11.59-4.12-1.73-8.87-.19-12.86 1.82-3.99 2.01-8 4.54-12.41 4.83-3.88.25-8.1-1.19-11.49.71-2.53 1.41-3.86 4.32-6.19 6.05-2.33 1.73-5.26 2-8.09 2.19-2.83.19-5.76.18-8.34 1.36-2.58 1.18-4.71 3.91-4.18 6.69l97.89-.96Z" fill="#EBEBEB"/><path d="M231.87 47.382c5.65-6.58 20.33-2.44 30.38 2.94 0 0 6.92 3.27 9.5 5h.08l23.52-2.94a9.55 9.55 0 0 1 5.56 1l1.93 1a1.294 1.294 0 0 1 .697 1.19 1.29 1.29 0 0 1-.777 1.14l-17.31 7.41v.21l17.09 11.23.26.17a15.29 15.29 0 0 0 10.88 2.16l9.15-1.64a2.53 2.53 0 0 1 1.39.12 2.298 2.298 0 0 1 1.296 2.952 2.3 2.3 0 0 1-.686.958l-10.6 8.87a5.608 5.608 0 0 1-5.94.79l-5-2.29-25.12-12 2.88 14.31a.929.929 0 0 1-1 1.1h-1.18a4.71 4.71 0 0 1-3.91-2.36l-10.03-19.43-29.67-14.11c-3.95-1.78-5.33-5.21-3.39-7.78Z" fill="#E0E0E0"/><path d="M161.14 46.33c.52-3.72-4.73-6.78-8.68-7.1-1.88-.15-3.84.14-5.62-.48-3.86-1.35-5.41-6.34-9.17-7.93-2.82-1.19-6.07-.13-8.8 1.25-2.73 1.38-5.43 3.1-8.48 3.3-2.65.17-5.54-.82-7.86.48-1.73 1-2.64 3-4.23 4.14a10.15 10.15 0 0 1-5.53 1.5 15.42 15.42 0 0 0-5.71.93c-1.76.81-3.22 2.67-2.85 4.58l66.93-.67Z" fill="#EBEBEB"/><path d="M330.871 371.35c0 .16-.85.51-2 .79s-2.09.37-2.13.21c-.04-.16.85-.52 2-.79s2.09-.37 2.13-.21ZM329.13 360.19c-1.821.326-3.678.4-5.52.22a9.514 9.514 0 0 1 5.52-.22ZM331 350c-.11.12-1-.45-2-1.29-1-.84-1.7-1.62-1.59-1.75.11-.13 1 .45 2 1.29 1 .84 1.67 1.63 1.59 1.75ZM334.58 383.861c-.06.16-1.1-.12-2.35-.51s-2.27-.75-2.23-.92a4.43 4.43 0 0 1 2.41.34c1.28.4 2.23.94 2.17 1.09Z" fill="#E0E0E0"/><path d="M277.86 480.69c0 .14-57.084.26-127.494.26s-127.506-.12-127.506-.26 57.073-.26 127.506-.26c70.433 0 127.494.11 127.494.26ZM213.62 273.65h-4v92.37h4v-92.37ZM180.4 276.99h-4v92.37h4v-92.37Z" fill="#263238"/><path d="M214.62 281.921h-6v-8.92a.509.509 0 0 0-.48-.53h-26.25a.497.497 0 0 0-.354.163.515.515 0 0 0-.136.367v7.44h-6v-7.44a6.519 6.519 0 0 1 6.49-6.53h26.25a6.511 6.511 0 0 1 6.48 6.53v8.92Z" fill="#455A64"/><path d="M176.081 474.47a6.218 6.218 0 0 1-7.434 6.1 6.222 6.222 0 0 1-4.887-4.887 6.216 6.216 0 0 1 2.645-6.385 6.223 6.223 0 0 1 3.456-1.048 6.232 6.232 0 0 1 6.22 6.22ZM229.72 474.47a6.22 6.22 0 1 1-12.438.001 6.22 6.22 0 0 1 12.438-.001ZM239 427.691v-45.75a4.791 4.791 0 0 1 4.79 4.79v36.17a4.802 4.802 0 0 1-4.79 4.79Z" fill="#263238"/><path d="M227.201 343.701h-62.47c-7.716 0-13.97 6.255-13.97 13.97v99.79c0 7.716 6.254 13.97 13.97 13.97h62.47c7.715 0 13.97-6.254 13.97-13.97v-99.79c0-7.715-6.255-13.97-13.97-13.97Z" fill="#455A64"/><path d="M241.09 359.701c0 .14-20.24.26-45.21.26-24.97 0-45.23-.12-45.23-.26s20.25-.26 45.23-.26c24.98 0 45.21.12 45.21.26ZM241.09 373.192c0 .14-20.24.26-45.21.26-24.97 0-45.23-.12-45.23-.26s20.25-.26 45.23-.26c24.98 0 45.21.07 45.21.26ZM241.09 386.682c0 .14-20.24.26-45.21.26-24.97 0-45.23-.12-45.23-.26s20.25-.26 45.23-.26c24.98 0 45.21.11 45.21.26ZM241.09 400.17c0 .14-20.24.26-45.21.26-24.97 0-45.23-.12-45.23-.26s20.25-.26 45.23-.26c24.98 0 45.21.09 45.21.26ZM241.09 413.66c0 .14-20.24.26-45.21.26-24.97 0-45.23-.12-45.23-.26s20.25-.26 45.23-.26c24.98 0 45.21.11 45.21.26ZM241.09 427.151c0 .14-20.24.26-45.21.26-24.97 0-45.23-.12-45.23-.26s20.25-.27 45.23-.27c24.98 0 45.21.12 45.21.27ZM241.09 440.631c0 .15-20.24.26-45.21.26-24.97 0-45.23-.11-45.23-.26 0-.15 20.25-.26 45.23-.26 24.98 0 45.21.12 45.21.26ZM241.09 454.121c0 .15-20.24.26-45.21.26-24.97 0-45.23-.11-45.23-.26 0-.15 20.25-.26 45.23-.26 24.98 0 45.21.14 45.21.26Z" fill="#263238"/><path d="M206.07 379.092h-20.21v3.66h20.21v-3.66Z" fill="#fff"/><path d="M83.33 106.131a11.53 11.53 0 0 0-1.67 6.53c0 2.25 1.55 6.82 5.55 7-1.06 6.44 3.06 11.2 9.92 11.21 6.861.01 14.721-11.76 21.081-14.35l18.45-4.87c1.63-.38 2.29-2.35 2.26-4-.03-1.65-.46-3.39.13-5 .81-2.13 3.28-3.27 4.13-5.4 1-2.41-.53-5.08-2.24-7-1.71-1.92-3.81-3.8-4.35-6.34-.5-2.33.39-5-.77-7-1.43-2.56-5.19-2.89-6.93-5.25-.89-1.14-1.11-2.66-1.89-3.78-1.43-2-4.16-2.47-6.57-2.21-2.41.26-4.73 1.13-7.14 1.31-3.32.24-6.74-.83-9.92.13-3.51 1.06-5.65 4.17-7.93 7.19l-3 3.49c-.615.6-1.285 1.143-2 1.62a23.151 23.151 0 0 0-3.76 2.41 5.87 5.87 0 0 0 .41 8.45 6.28 6.28 0 0 0-4.21 6.17s-.33 3.06 1.61 4.42a4.221 4.221 0 0 0-1.16 5.27Z" fill="#263238"/><path d="M95.7 112.372a85.098 85.098 0 0 1-3.7-14.27 29.86 29.86 0 0 1 1.17-14.57c.26-.7 2.48-5.39 3.22-5.32.53.05-.84 4.43-.57 4.89 2.56 4.4 3.26 9.69 2.85 14.77a66.542 66.542 0 0 1-3 14.5" fill="#263238"/><path d="M107.86 155.322c-10.86-1.32-12.15-18.87-12.15-18.87l-.5-42.86c-.4-12.34 6.45-22.86 18.8-22.92l1.14.06A22.09 22.09 0 0 1 136 92.182c.28 10.7.46 22.52.09 28.23-.78 11.82-12.71 13-12.71 13a39.265 39.265 0 0 0-.11 6.22c.68 12.57-12.4 15.93-15.45 15.66l.04.03Z" fill="#FFBE9D"/><path d="M123.421 133.441a28.574 28.574 0 0 1-15.16-5.38s3.29 8.8 15.15 8.37l.01-2.99Z" fill="#EB996E"/><path d="M132.92 101.88a1.7 1.7 0 0 1-1.72 1.62 1.606 1.606 0 0 1-1.171-.46 1.618 1.618 0 0 1-.489-1.16 1.7 1.7 0 0 1 1.72-1.62 1.625 1.625 0 0 1 1.533.991c.084.199.127.413.127.629ZM133.241 97c-.22.21-1.45-.8-3.27-.9-1.82-.1-3.19.75-3.38.51-.19-.24.14-.49.75-.88a4.64 4.64 0 0 1 5.31.31c.53.41.7.82.59.96ZM115.83 101.88a1.7 1.7 0 0 1-1.72 1.62 1.606 1.606 0 0 1-1.171-.46 1.618 1.618 0 0 1-.489-1.16 1.7 1.7 0 0 1 1.72-1.62 1.625 1.625 0 0 1 1.533.991c.084.199.127.413.127.629ZM115.4 96.732c-.23.21-1.46-.8-3.27-.9-1.81-.1-3.2.75-3.39.52-.19-.23.14-.49.75-.89a4.67 4.67 0 0 1 2.72-.68 4.491 4.491 0 0 1 2.59 1c.53.45.7.86.6.95ZM121.17 111.05a12.143 12.143 0 0 1 3-.37c.47 0 .91-.09 1-.41a2.388 2.388 0 0 0-.24-1.39c-.38-1.15-.77-2.35-1.18-3.61-1.64-5.13-2.8-9.35-2.59-9.41.21-.06 1.7 4 3.34 9.18.39 1.27.77 2.47 1.12 3.63.263.574.316 1.221.15 1.83a1.178 1.178 0 0 1-.8.64 2.985 2.985 0 0 1-.8.07c-1.002.08-2.011.026-3-.16ZM115.75 112c.3 0 .2 2 1.81 3.47 1.61 1.47 3.73 1.38 3.73 1.66 0 .12-.49.36-1.38.33a4.897 4.897 0 0 1-3.12-1.27 4.31 4.31 0 0 1-1.39-2.9c-.03-.81.22-1.29.35-1.29ZM115.691 89.351c-.2.48-2 .15-4.15.3-2.15.15-3.91.63-4.17.17-.11-.22.21-.67.94-1.11a6.829 6.829 0 0 1 3.12-.91 6.912 6.912 0 0 1 3.21.55c.77.36 1.14.77 1.05 1ZM132.82 90.87c-.35.39-1.58-.1-3.08-.2s-2.8.13-3.07-.32c-.11-.22.11-.62.69-1a4.47 4.47 0 0 1 5 .42c.46.47.64.9.46 1.1Z" fill="#263238"/><path d="M95.71 102.402c-.2-.09-8-2.84-8.18 5.26-.18 8.1 8 6.61 8 6.38 0-.23.18-11.64.18-11.64Z" fill="#FFBE9D"/><path d="M93.14 110.921s-.14.09-.38.2a1.468 1.468 0 0 1-1.06 0c-.85-.34-1.54-1.71-1.55-3.17 0-.69.15-1.373.44-2a1.638 1.638 0 0 1 1.09-1.07.714.714 0 0 1 .82.41c.1.23 0 .39.09.4.09.01.18-.13.12-.46a.884.884 0 0 0-.31-.52 1.012 1.012 0 0 0-.77-.22 2.005 2.005 0 0 0-1.5 1.22 4.712 4.712 0 0 0-.54 2.25c0 1.63.82 3.18 2 3.54a1.55 1.55 0 0 0 1.3-.18c.23-.21.28-.39.25-.4Z" fill="#EB996E"/><path d="M131.001 78.69c1.33-.71-2.56-5-5.76-6.51-4.84-2.27-12.26-3.73-16.77-2.51-5.43 1.46-10 4.09-12.73 9a31.93 31.93 0 0 0-3.79 16.23 9.68 9.68 0 0 0 1.08 5c1.11 1.81 3.27 3 3.14 5.43a3.394 3.394 0 0 0 .81 2.49c1.46 1.59 3.3.14 4.15-1.34 1.82-3.15 2.07-6.94 2.27-10.57.285-2.575.147-5.18-.41-7.71-.38-1.36-1-2.64-1.31-4a4.882 4.882 0 0 1 .63-4c.201-.238.425-.456.67-.65a8.41 8.41 0 0 1 8.4-1.49c4.54 1.67 12.3 4.18 14.36 2.66 3-2.19 3.68-3.63 3.68-3.63l1.58 1.6Z" fill="#263238"/><path d="M108.871 68.572a17.788 17.788 0 0 1 13.68.93 9.235 9.235 0 0 1 4.81 5.44c.65 2.41-.41 5.35-2.73 6.26l-.16.1c-3.48 1.12-5.72.62-9.15-.61-2.89-1-5.44-2.87-8.34-3.89a16.392 16.392 0 0 0-9.63-.41 26.908 26.908 0 0 1 11.52-7.82Z" fill="#263238"/><path d="M93.46 76.582c.07.07.72-.71 2-1.62.79-.542 1.643-.986 2.54-1.32a7.53 7.53 0 0 1 3.29-.55 10.997 10.997 0 0 1 5.65 2.33c1.25 1 1.83 1.83 1.91 1.77.08-.06-.09-.25-.35-.62a8.603 8.603 0 0 0-1.31-1.44 10.477 10.477 0 0 0-5.86-2.58 7.689 7.689 0 0 0-3.52.63c-.897.373-1.738.867-2.5 1.47a5.999 5.999 0 0 0-1.85 1.93ZM118.15 67.83c.699.308 1.413.579 2.14.81a17.674 17.674 0 0 1 8.32 6.85c.76 1.18 1.12 2 1.2 2a6.238 6.238 0 0 0-.87-2.15 15.437 15.437 0 0 0-8.52-7 6.55 6.55 0 0 0-2.27-.51Z" fill="#455A64"/><path d="m89.28 438.232-19.6 15.77s10.81 24 7.47 27.27l-33.3-35.69 29.53-25.82 15.9 18.47Z" fill="#FF725E"/><path opacity=".6" d="M61.41 441.201a2 2 0 0 0-2.63.45 1.91 1.91 0 0 0 .42 2.6 2.114 2.114 0 0 0 2.78-.48 2 2 0 0 0-.74-2.66M43.85 445.581l3-2.61 31 35.59a3.38 3.38 0 0 1-.72 3.13l-33.28-36.11Z" fill="#fff"/><path d="M70.39 454.441c-.19.15-1-.68-2.4-1.07s-2.51-.2-2.58-.43c-.07-.23 1.2-.86 2.82-.36 1.62.5 2.36 1.75 2.16 1.86ZM72.14 459.691c-.14.19-1.13-.32-2.42-.27-1.29.05-2.25.57-2.4.38-.15-.19.78-1.18 2.38-1.21 1.6-.03 2.6.95 2.44 1.1ZM69.4 465.902c-.18-.13.51-1.16 1.9-1.55 1.39-.39 2.5.11 2.42.32-.08.21-1.06.14-2.2.48-1.14.34-1.94.91-2.12.75ZM74.45 450.351c-.22.06-.69-1-1.64-1.94s-2-1.47-1.89-1.7c.11-.23 1.38 0 2.48 1.12s1.27 2.48 1.05 2.52Z" fill="#263238"/><path opacity=".3" d="m85.4 441.351-3.49 2.82-16.74-17.22 4.24-3.73 15.99 18.13Z" fill="#000"/><path d="M78.35 447.091c-.07.07-.8-.55-1.59-1.85a11.512 11.512 0 0 1-1.08-2.45 10.607 10.607 0 0 1-.35-1.55 2.75 2.75 0 0 1 0-.93 1 1 0 0 1 .89-.92 1.31 1.31 0 0 1 1.09.44c.207.228.376.488.5.77.25.475.451.975.6 1.49a8.75 8.75 0 0 1 .36 2.67 3.999 3.999 0 0 1-.56 2.39c-.13 0 .07-.93 0-2.37a9.27 9.27 0 0 0-1.08-3.8c-.24-.48-.52-.81-.79-.76-.09 0-.12 0-.17.22a2.383 2.383 0 0 0 0 .68c.068.492.165.98.29 1.46.208.82.496 1.617.86 2.38.394.685.738 1.396 1.03 2.13Z" fill="#263238"/><path d="M77.89 447.081c-.08 0 .25-.95 1.36-2a8.148 8.148 0 0 1 2.24-1.5 7.999 7.999 0 0 1 1.53-.5 2 2 0 0 1 2 .37 1.128 1.128 0 0 1 .15 1.22 3.418 3.418 0 0 1-.51.78 5.677 5.677 0 0 1-1.25 1.07c-.777.5-1.667.799-2.59.87-1.58.1-2.45-.46-2.4-.53.777.027 1.555.01 2.33-.05a5.679 5.679 0 0 0 2.24-.92 5.23 5.23 0 0 0 1-1c.34-.4.53-.82.36-.93a1.362 1.362 0 0 0-1.16-.12 7.568 7.568 0 0 0-1.4.4 8.777 8.777 0 0 0-2.15 1.24c-1.13.9-1.64 1.68-1.75 1.6Z" fill="#263238"/><path d="m88.1 441.44 1.9 25.09s-24.9 8.53-25 13.2l48.81-.12-1.36-39.2-24.35 1.03Z" fill="#FF725E"/><path opacity=".6" d="M105.001 463.811a1.996 1.996 0 0 1 1.47 2.22 1.93 1.93 0 0 1-2.19 1.48 2.099 2.099 0 0 1-1.54-2.36 2 2 0 0 1 2.44-1.28M113.81 479.61l-.14-3.95-47.13 1.75a3.376 3.376 0 0 0-1.79 2.67l49.06-.47Z" fill="#fff"/><path d="M89.2 466.311c0 .24 1.21.3 2.42 1S93.48 469 93.7 468.9c.22-.1-.2-1.459-1.67-2.309-1.47-.85-2.89-.5-2.83-.28ZM84.17 468.632c0 .23 1 .6 1.85 1.57.85.97 1.13 2 1.36 2 .23 0 .34-1.37-.74-2.56s-2.47-1.24-2.47-1.01ZM81.51 474.872c.22 0 .5-1.16-.16-2.44s-1.8-1.76-1.89-1.56c-.09.2.62.88 1.15 1.94.53 1.06.66 2.04.9 2.06ZM89.4 460.551c.11.21 1.19-.16 2.54-.12 1.35.04 2.42.42 2.53.21.11-.21-.93-1-2.52-1-1.59 0-2.67.72-2.55.91Z" fill="#263238"/><path opacity=".3" d="m89.2 455.812.33 4.47 23.6-.41-.17-4.78-23.76.72Z" fill="#000"/><path d="M89.11 455.481a4.538 4.538 0 0 0 2.44-.11c.877-.191 1.727-.49 2.53-.89a11.52 11.52 0 0 0 1.37-.8c.27-.162.512-.365.72-.6a1 1 0 0 0 0-1.27 1.312 1.312 0 0 0-1.06-.51c-.31.013-.616.071-.91.17a8.393 8.393 0 0 0-1.5.58 8.642 8.642 0 0 0-2.19 1.57c-1.09 1.09-1.44 2-1.36 2 .08 0 .63-.7 1.75-1.61a10.007 10.007 0 0 1 2.13-1.31 9.366 9.366 0 0 1 1.38-.49c.51-.16 1-.18 1.1.05v.27a2.165 2.165 0 0 1-.51.47c-.403.29-.823.553-1.26.79-.743.407-1.523.742-2.33 1-.781.176-1.55.407-2.3.69Z" fill="#263238"/><path d="M89.44 455.811c.43-.72.622-1.556.55-2.39a8.062 8.062 0 0 0-.44-2.66 9.042 9.042 0 0 0-.68-1.46 2.004 2.004 0 0 0-1.61-1.17 1.148 1.148 0 0 0-1 .72 3.518 3.518 0 0 0-.22.91 5.65 5.65 0 0 0 .06 1.65 5.723 5.723 0 0 0 1.15 2.48c1 1.22 2 1.47 2 1.39 0-.08-.77-.55-1.55-1.74a5.656 5.656 0 0 1-.86-2.26 4.82 4.82 0 0 1 0-1.42c0-.52.23-.94.43-.9.2.04.67.36.88.77.261.411.482.846.66 1.3.305.775.496 1.59.57 2.42.14 1.42-.08 2.33.06 2.36Z" fill="#263238"/><path d="M69.94 260.842s5.29 75.12 7.35 92.35c1.31 10.95 7.63 103 7.63 103l31.85-1-5.13-145.83v-44.69l-41.7-3.83Z" fill="#263238"/><path d="m65.67 421.601 21.08 21.4s63.83-62.2 66.42-66.86c2.59-4.66 1.82-62.2 1.82-62.2l-1.86-51.56-45.58 2.32 4.5 51.29 6.07 47.19-52.45 58.42Z" fill="#263238"/><path d="m123.58 406.741-.65.68-2 2-7.43 7.4-26.6 26.31-.16.16-.15-.16-21.1-21.35-.17-.17.16-.18 17-19 35.52-39.43v.18c-1.91-16.1-3.5-29.53-4.61-39-.54-4.7-1-8.39-1.26-10.93-.13-1.25-.24-2.21-.31-2.89 0-.31 0-.55-.07-.74a.7.7 0 0 1 0-.25c.005.083.005.167 0 .25l.11.74c.09.67.22 1.63.38 2.87.32 2.54.79 6.23 1.38 10.91l4.79 38.94v.1l-.07.08-35.46 39.55-17 19v-.34c7.56 7.67 14.66 14.9 21.05 21.39h-.31l26.78-26.22 7.52-7.31 2-1.92c.41-.47.66-.67.66-.67ZM128.111 367.642a24.202 24.202 0 0 1-4.65-2 24.639 24.639 0 0 1-4.41-2.47 24.962 24.962 0 0 1 4.64 2 25.017 25.017 0 0 1 4.42 2.47ZM115.531 306.901a12.01 12.01 0 0 1-1.92.19l-5.13.27h-.22v-.23c0-2.65 0-5.89-.09-9.39-.08-4.54-.26-8.64-.39-11.62l-.15-3.52a5.652 5.652 0 0 1 0-1.3c.102.423.166.855.19 1.29.09.82.21 2 .32 3.51.23 3 .46 7.09.55 11.63.07 3.51 0 6.75 0 9.41l-.22-.22 5.14-.09c.64-.033 1.283-.01 1.92.07ZM113.31 283.002s.17-.09.5-.05c.474.068.913.289 1.25.63a2.424 2.424 0 0 1 .75 1.95 2.453 2.453 0 0 1-3.008 1.958 2.458 2.458 0 0 1-1.152-.658 2.46 2.46 0 0 1-.49-2c.079-.472.311-.904.66-1.23.25-.22.44-.26.45-.24a2.867 2.867 0 0 0-.75 1.52 2.17 2.17 0 0 0 .49 1.66 2.006 2.006 0 0 0 1.956.468 2.003 2.003 0 0 0 1.374-1.468 2.156 2.156 0 0 0-.55-1.64 3 3 0 0 0-1.48-.9Z" fill="#455A64"/><path d="M95 137.352s8.28 9.05 30 1.83l13.71 20 14.09 114.15-46.19 7.45-36-5.71 11.48-115.84L95 137.352Z" fill="#E0E0E0"/><path d="M97 138.541c1.76 3.86 6 12.94 6 12.94s-10.72 71.16-11.85 82.41c-1.24 12.39 6.43 56.27 6.43 56.27L60 284.281l10.58-116-5.13-22.39a119.59 119.59 0 0 1 18.26-5.69l7.89-1.12 2.18-3.61 1.45-2.18 1.77 5.25Z" fill="#FF725E"/><path opacity=".3" d="M98.94 225.32c-4.6-.1-18 3.76-22.56 4.26-4.73.51-7.9 1.12-11.76 3.89l-.62 6.07c2.68 1.31 5.69 1.63 8.63 2.13a10.438 10.438 0 0 0 8.45-1.86c1.25-1.05 2.16-2.49 3.56-3.33 1.4-.84 2.66-2 4.13-1.75 11.12 2.16 13.94-7.4 10.17-9.41Z" fill="#000"/><path d="M92.46 139.82c.155.319.273.654.35 1 .19.68.45 1.66.76 2.88a501.8 501.8 0 0 1 2.32 9.56c.32 1.36.63 2.68.91 3.91h-.48a15.262 15.262 0 0 1 1.44-3.75 7.931 7.931 0 0 1 1.92-2.55c.344-.253.764-.38 1.19-.36.314.02.614.135.86.33.41.35.36.69.35.67-.01-.02-.07-.28-.45-.53a1.48 1.48 0 0 0-1.77.15 8.132 8.132 0 0 0-1.72 2.49 15.869 15.869 0 0 0-1.34 3.66l-.24 1-.24-1c-.29-1.22-.61-2.54-.93-3.91-.88-3.73-1.65-7.12-2.18-9.58-.26-1.23-.47-2.23-.6-2.92a4.186 4.186 0 0 1-.15-1.05Z" fill="#263238"/><path d="m69.56 235.811 9.53 2.77a53.723 53.723 0 0 1 3.64 15.52c.56 8.3-3.08 68.47-3.08 68.47l-30.54-1.32-.93-2.79a11.11 11.11 0 0 1-.54-4.4c.76-9.88 2.12-44.2 9.54-64.17 3.54-9.52 12.38-14.08 12.38-14.08Z" fill="#455A64"/><path d="M80.24 140.361s2.89 5.47 2.55 17.52c-.34 12.05-17.05 95.88-17.05 95.88l10.65.94s10.83-69.64 11.39-76.64c.56-7 4.48-32.55 0-38.13 0 0-4.44-1.93-7.54.43ZM61.88 242.121s-11.21 13.95-14.88 40.28l4.94 1.07 9.94-41.35Z" fill="#455A64"/><path d="M68.37 248.141c.008.174-.009.35-.05.52-.06.39-.13.87-.22 1.45-.2 1.26-.49 3.07-.8 5.33-.66 4.5-1.26 10.78-2.55 17.63-.34 1.71-.67 3.37-1.07 5a11.79 11.79 0 0 1-1.94 4.39 4.891 4.891 0 0 1-3.85 2 21.659 21.659 0 0 1-3.73-.44c-2.26-.39-4-.92-5.28-1.14l-1.44-.28a1.665 1.665 0 0 1-.49-.13c.17-.025.341-.025.51 0l1.46.19c1.27.16 3.06.64 5.3 1 1.208.226 2.432.35 3.66.37a4.441 4.441 0 0 0 3.48-1.83 11.4 11.4 0 0 0 1.83-4.21c.38-1.58.72-3.25 1-4.95 1.28-6.82 2-13.09 2.69-17.59.36-2.25.71-4.06 1-5.31.13-.57.23-1 .32-1.43a1.88 1.88 0 0 1 .17-.57Z" fill="#263238"/><path d="M79.31 239.141c.011.552-.019 1.103-.09 1.65-.11 1.15-.26 2.65-.43 4.47-.1 1-.21 2-.32 3.08a29.194 29.194 0 0 1-.5 3.56 5.787 5.787 0 0 1-2.16 3.39 5.036 5.036 0 0 1-4.2.9 4.808 4.808 0 0 1-3.32-2.75 8.238 8.238 0 0 1-.36-4c.25-2.51.6-4.74 1-6.61s.71-3.36 1-4.39c.123-.538.286-1.067.49-1.58-.054.55-.15 1.095-.29 1.63-.21 1-.51 2.54-.81 4.4-.3 1.86-.62 4.1-.84 6.59a7.849 7.849 0 0 0 .35 3.75 4.33 4.33 0 0 0 3 2.44 4.518 4.518 0 0 0 3.78-.81 5.22 5.22 0 0 0 2-3.09c.197-1.148.327-2.306.39-3.47.14-1.1.26-2.13.38-3.08.24-1.81.44-3.31.6-4.45a9.364 9.364 0 0 1 .33-1.63ZM79.73 322.641c-.401-.34-.779-.707-1.13-1.1-.7-.72-1.71-1.76-3-3s-2.85-2.72-4.64-4.28c-.9-.78-1.85-1.58-2.86-2.4a8.863 8.863 0 0 0-3.36-1.86 3.38 3.38 0 0 0-1.87.08 5.336 5.336 0 0 0-1.61 1l-2.82 2.43-4.81 4.12-3.28 2.73c-.389.363-.803.697-1.24 1a8.154 8.154 0 0 1 1.11-1.11l3.16-2.86 4.74-4.2 2.82-2.47a6.092 6.092 0 0 1 1.76-1.06 3.839 3.839 0 0 1 2.15-.1 9.263 9.263 0 0 1 3.57 2c1 .82 2 1.64 2.85 2.43 1.79 1.59 3.33 3.09 4.59 4.38 1.26 1.29 2.23 2.38 2.89 3.15.36.344.688.719.98 1.12ZM71.12 256.66c.14 0-1.39 11.84-3.42 26.41-2.03 14.57-3.79 26.35-3.93 26.33-.14-.02 1.38-11.84 3.41-26.41 2.03-14.57 3.82-26.35 3.94-26.33Z" fill="#263238"/><path d="M75.71 250.921a5.82 5.82 0 0 1-.18-.66 2.833 2.833 0 0 0-1-1.4 2.602 2.602 0 0 0-2.43-.32 2.543 2.543 0 0 0-1.653 2.38 2.542 2.542 0 0 0 1.653 2.38 2.607 2.607 0 0 0 2.43-.33 2.778 2.778 0 0 0 1-1.4 5.26 5.26 0 0 1 .18-.65s.09.25 0 .7a2.818 2.818 0 0 1-1 1.65 3 3 0 0 1-2.81.48 2.998 2.998 0 0 1 0-5.66 2.908 2.908 0 0 1 2.81.48c.52.412.876.998 1 1.65.09.45.03.7 0 .7Z" fill="#263238"/><path d="m207.27 253.691 15.51 11.92-1.46 12.19-.31 1.86-5.21 3.23h-9.06s-1.45-3.75 1.88-3.44c0 0-1.64-2.5 3-3.12 4.64-.62 5.54-2.18 5.54-2.18l-.41-2.19-1.67-2.08-1.57-1.59-8.73-9.76 2.49-4.84Z" fill="#FFBE9D"/><path d="M178.4 239.42c0 .11 18 18.61 18 18.61l10.89-4.34-13.08-26.91-10.91-3.88-4.88 8.69-.02 7.83Z" fill="#FFBE9D"/><path d="M195.86 257.231a46.632 46.632 0 0 0 5.37 7 32.976 32.976 0 0 0 6.45 4.37s3.64 9.58 6 9.16c2.36-.42 3.23-1.67 1.87-4.27-1.36-2.6-4.47-12.18-4.47-12.18l-5.76-11.45-9.46 7.37Z" fill="#FFBE9D"/><path d="M150.05 146.5s6.63 2 10.45 10.92c3.82 8.92 19.11 40.88 19.11 40.88l16.25 29.2s-7.33 0-12.74 4.14-4.78 9.56-4.78 9.56-4.72-1-5.39-3.82a12.669 12.669 0 0 1 0-5.42l-5.76-7.33-3.5-7-11-18.54-7.45-29.56 4.81-23.03Z" fill="#FF725E"/><path d="M159.22 294.522s-5.91-61.06-5.63-61.79c.28-.73-.64-35.74 0-36.28.64-.54-3.54-49.95-3.54-49.95l-21.77-6.72h.29l-5-5.27s-6.08 20.18-6 20.51c1.76 6.95 8.07 110.3 8.07 110.3 0 .74 2.48 29.16 2.48 29.16l31.1.04Z" fill="#FF725E"/><path d="M152.621 199.641a4.052 4.052 0 0 1-.74.57l-2.19 1.55h-.12l-11.57-5.59-.12-.06v-.11c-.28-3.76-.6-8-.94-12.5-.3-4.22-.59-8.23-.84-11.82v-.21h.2a29.577 29.577 0 0 1 12.36.08 27.94 27.94 0 0 1 3.4 1 4.64 4.64 0 0 1 1.15.51s-.42-.13-1.2-.36a33.924 33.924 0 0 0-3.41-.84 30.366 30.366 0 0 0-12.19.1l.18-.25c.27 3.6.57 7.6.89 11.82.32 4.49.62 8.75.89 12.5l-.13-.19 11.46 5.79h-.13l2.26-1.44a4.69 4.69 0 0 1 .79-.55Z" fill="#263238"/><path d="M153 164c.101.487.154.983.16 1.48.07 1 .14 2.34.2 4 .12 3.42.15 8.15.12 13.37-.03 5.22 0 9.95 0 13.37v4.05c.03.497.014.996-.05 1.49a7.915 7.915 0 0 1-.16-1.48c-.07-1-.13-2.34-.19-4.05-.13-3.43-.16-8.16-.13-13.38.03-5.22.06-9.94 0-13.36v-4.05A8.768 8.768 0 0 1 153 164ZM186.921 218.471c0 .1-1.1.38-2.77 1.15a20.99 20.99 0 0 0-5.85 4.09 20.678 20.678 0 0 0-4.09 5.84c-.78 1.67-1.07 2.79-1.16 2.77a2.53 2.53 0 0 1 .13-.81c.173-.721.404-1.427.69-2.11a18.696 18.696 0 0 1 10.13-10.11 13.72 13.72 0 0 1 2.1-.69 3 3 0 0 1 .82-.13ZM181.94 217.281a47.12 47.12 0 0 0-5.48 3.47 49.727 49.727 0 0 0-4.6 4.57 5.8 5.8 0 0 1 1-1.65 18.89 18.89 0 0 1 3.26-3.33 19.544 19.544 0 0 1 4-2.45 5.59 5.59 0 0 1 1.82-.61ZM128.57 139.82c.026.455.002.911-.07 1.36-.07.87-.2 2.12-.38 3.67-.35 3.1-.89 7.38-1.63 12.08-.26 1.7-.54 3.33-.81 4.84l-.13.72-.34-.65a48.492 48.492 0 0 0-2.47-4.25c-.4-.62-.8-1.19-1.18-1.72a6.139 6.139 0 0 0-1.14-1.33 1.771 1.771 0 0 0-1.24-.47 1.531 1.531 0 0 0-.91.43c-.199.215-.31.497-.31.79 0 0-.23-.37.19-.91a1.678 1.678 0 0 1 1-.55 2.002 2.002 0 0 1 1.47.46 6.54 6.54 0 0 1 1.24 1.36c.4.52.82 1.09 1.24 1.71a42.215 42.215 0 0 1 2.55 4.25l-.46.07c.25-1.51.51-3.14.79-4.83.73-4.7 1.33-9 1.78-12 .22-1.46.4-2.69.54-3.65.04-.468.131-.931.27-1.38Z" fill="#263238"/><path opacity=".3" d="m125.271 161.41-1 4.4-3.13-8.76a6.03 6.03 0 0 0-.79-1.65 1.997 1.997 0 0 0-1.54-.87 1.334 1.334 0 0 1 1.12-.604 1.335 1.335 0 0 1 1.12.604c1.21 1.36 4.22 6.88 4.22 6.88ZM153.431 200.002c2.73-9.77 2.16-22-.46-31.82l.46 31.82Z" fill="#000"/><path d="M153 177.361c-.8-.024-1.596-.118-2.38-.28-1.46-.2-3.48-.44-5.72-.57a68.16 68.16 0 0 0-5.76-.07c-.795.073-1.595.073-2.39 0a9.116 9.116 0 0 1 2.37-.38 41.55 41.55 0 0 1 11.56.65c.799.11 1.58.329 2.32.65ZM154.001 248.791a4.122 4.122 0 0 1-1-.46c-.62-.31-1.501-.81-2.57-1.44a94.21 94.21 0 0 1-15.63-11.58 53.93 53.93 0 0 1-2.13-2.05c-.48-.5-.75-.78-.72-.81.313.183.602.405.86.66l2.19 1.89c1.89 1.61 4.54 3.79 7.58 6.05s5.91 4.16 8 5.5l2.48 1.58c.34.179.656.401.94.66Z" fill="#263238"/><path d="M66.27 145.561s-4.68.86-9.12 10.19c-4.44 9.33-15.86 40.32-16.6 42.39l23.34 15.52 13.17-39.06-10.79-29.04Z" fill="#FF725E"/><path d="m78.45 229.72.2-13.24-15.07-5.11 2.84-9.37-23.22-11s-10.39 27.21-10.33 32.2c0 1.84 4.16 11.22 12.81 12.06 5.63.55 18.36 1.29 26.93 1.6a5.712 5.712 0 0 0 5.84-7.14Z" fill="#FF725E"/><path d="M74.19 181.112c.14 0-1.9 6.93-4.55 15.38-2.65 8.45-4.91 15.27-5 15.23-.09-.04 1.9-6.93 4.55-15.39s4.86-15.27 5-15.22Z" fill="#263238"/><path d="M70.91 213.852a3.649 3.649 0 0 1-1-.22c-.62-.18-1.51-.45-2.62-.8-1.11-.35-2.37-.86-3.83-1.24a26.135 26.135 0 0 0-4.82-.89 21.774 21.774 0 0 0-8.79 1c-2.16.75-3.37 1.52-3.42 1.43.247-.229.523-.424.82-.58a17.031 17.031 0 0 1 2.48-1.2 20.383 20.383 0 0 1 9-1.13 30.135 30.135 0 0 1 8.73 2.31c1.08.39 2 .71 2.56.95.312.084.611.209.89.37Z" fill="#263238"/><path d="M56 203.131a4.928 4.928 0 0 1 1.78.54c1.37.634 2.62 1.504 3.69 2.57a12.701 12.701 0 0 1 2.55 3.7 4.47 4.47 0 0 1 .54 1.78 20.995 20.995 0 0 0-3.46-5.11 21.27 21.27 0 0 0-5.1-3.48ZM74 168.12c-.1 0 .08-1.25 0-3.26a23.802 23.802 0 0 0-5.41-14.4c-1.28-1.55-2.24-2.37-2.17-2.44.07-.07.27.16.71.52a14.937 14.937 0 0 1 1.74 1.68c.79.892 1.503 1.848 2.13 2.86a24.69 24.69 0 0 1 2 3.92 23.124 23.124 0 0 1 1.12 4.25c.196 1.18.283 2.375.26 3.57a16.486 16.486 0 0 1-.19 2.41 3.278 3.278 0 0 1-.19.89Z" fill="#263238"/><path opacity=".3" d="M54.73 208.282a15.818 15.818 0 0 0-9.57 3.64 1.085 1.085 0 0 0-.48.73.792.792 0 0 0 .81.72 2.533 2.533 0 0 0 1.15-.38 22.865 22.865 0 0 1 17.54-1.38l.32-.29a15.79 15.79 0 0 0-9.77-3.04Z" fill="#000"/><path d="M78.65 232.401s0 .12-.05.36c-.055.344-.152.68-.29 1a5.424 5.424 0 0 1-2.067 2.467 5.424 5.424 0 0 1-3.102.863h-3c-2.11-.05-4.42-.14-6.84-.28-4.85-.27-9.22-.62-12.39-.91-1.58-.15-2.86-.28-3.75-.38-.46-.026-.916-.1-1.36-.22a7.23 7.23 0 0 1 1.38 0l3.76.21 12.39.76c2.42.14 4.72.24 6.82.32l3 .08c.84.055 1.68-.107 2.44-.47a5.24 5.24 0 0 0 2.56-2.51c.15-.302.273-.617.37-.94.06-.24.11-.36.13-.35ZM81.79 231.621l13 .48c1.3.05 2.51-1.14 3.07-3l10.181-35.71c.65-2.46-.72-4.45-2.94-4.59l-17.2-1.08c-2.77 0-4.25 1.19-4.74 3.27l-6.7 28.26c-1.46 6 1.26 12.22 5.33 12.37Z" fill="#263238"/><path d="m70.65 214.772 3.46-7.33 5.69-1.901-1.74 7c2.23 1.08 5.58 1.641 7.51.571 1.93-1.07 9.48-8.571 10.9-7.851 1.42.72 2.7 2.441 1.4 4.091-1.3 1.65-8.38 6.759-6.92 8.269 1.46 1.51 9.62-5.109 12-4.619 2.38.49 3.86 1.89 2.52 2.91-1.34 1.02-4.62 4.31-5.2 5.75.14 1.8 1 4.35.21 4.8a28.68 28.68 0 0 1-6 2.079 62.512 62.512 0 0 0-6.27 2.341 14.005 14.005 0 0 1-9.85.22l-1.63-.57a6.3 6.3 0 0 1-4.21-6l.06-5.4-1.93-4.36Z" fill="#FFBE9D"/><path d="M79.39 213.081c.23-.56.414-1.139.55-1.73l1.28-4.76c.54-2 1.16-4.43 1.84-7.07.34-1.34.69-2.74 1.06-4.18.37-1.44.57-3.08 1.56-4.15.99-1.07 2.68-1.12 4.11-1.06l4.3.33 7.291.52 4.92.3c.602.053 1.207.053 1.81 0a10.715 10.715 0 0 0-1.79-.26l-4.9-.49-7.29-.65-4.31-.36a9.804 9.804 0 0 0-2.34.1 4.003 4.003 0 0 0-2.23 1.13 5.236 5.236 0 0 0-1.13 2.25c-.21.76-.38 1.5-.56 2.22-.36 1.45-.7 2.86-1 4.2-.64 2.64-1.22 5.05-1.71 7.1s-.82 3.57-1.11 4.81a10.921 10.921 0 0 0-.35 1.75Z" fill="#455A64"/><path d="M95 195.811a1.277 1.277 0 0 0 .793 1.184 1.287 1.287 0 0 0 1.396-.282 1.28 1.28 0 1 0-2.189-.902Z" fill="#fff"/></svg>