<svg width="255" height="256" viewBox="0 0 255 256" fill="none" xmlns="http://www.w3.org/2000/svg">
<g clip-path="url(#clip0_1308_66194)">
<path d="M40.6411 20.2599C40.6409 24.2591 39.4589 28.1688 37.2438 31.4964C35.0288 34.824 31.8799 37.4206 28.1938 38.9592C24.5077 40.4977 20.4494 40.9094 16.5301 40.1422C12.6109 39.375 9.00599 37.4634 6.16968 34.6482C3.33338 31.8329 1.39253 28.24 0.591663 24.3221C-0.209203 20.4041 0.165741 16.3365 1.66926 12.6316C3.17277 8.92665 5.7376 5.75024 9.04059 3.50252C12.3436 1.2548 16.237 0.0363315 20.2303 0.000624507C22.9021 -0.0232664 25.5522 0.48312 28.0275 1.49054C30.5028 2.49797 32.7544 3.98647 34.6521 5.87011C36.5498 7.75374 38.0561 9.99519 39.0841 12.465C40.112 14.9349 40.6412 17.5842 40.6411 20.2599Z" fill="#F04E37"/>
<path d="M94.1509 20.2593C94.1509 24.2662 92.9644 28.1832 90.7415 31.5148C88.5185 34.8464 85.359 37.4431 81.6624 38.9765C77.9658 40.5099 73.8982 40.9111 69.9739 40.1294C66.0497 39.3476 62.445 37.4181 59.6157 34.5848C56.7865 31.7515 54.8597 28.1416 54.0792 24.2117C53.2986 20.2818 53.6992 16.2083 55.2304 12.5064C56.7616 8.80451 59.3545 5.64043 62.6813 3.41431C66.0082 1.18819 69.9195 0 73.9207 0C79.286 0 84.4317 2.13446 88.2256 5.93382C92.0195 9.73318 94.1509 14.8862 94.1509 20.2593Z" fill="#F04E37"/>
<path d="M147.799 20.2593C147.799 24.2662 146.613 28.1832 144.39 31.5148C142.167 34.8464 139.007 37.4431 135.311 38.9765C131.614 40.5099 127.547 40.9111 123.622 40.1294C119.698 39.3476 116.093 37.4181 113.264 34.5848C110.435 31.7515 108.508 28.1416 107.728 24.2117C106.947 20.2818 107.348 16.2083 108.879 12.5064C110.41 8.80451 113.003 5.64043 116.33 3.41431C119.657 1.18819 123.568 0 127.569 0C132.934 0 138.08 2.13446 141.874 5.93382C145.668 9.73318 147.799 14.8862 147.799 20.2593Z" fill="#F04E37"/>
<path d="M201.398 20.7119C201.398 24.7188 200.211 28.6357 197.989 31.9674C195.766 35.299 192.606 37.8957 188.91 39.4291C185.213 40.9624 181.145 41.3636 177.221 40.5819C173.297 39.8002 169.692 37.8707 166.863 35.0374C164.034 32.2041 162.107 28.5942 161.326 24.6643C160.546 20.7344 160.946 16.6609 162.477 12.959C164.009 9.25708 166.602 6.09301 169.928 3.86689C173.255 1.64076 177.167 0.452576 181.168 0.452576C186.533 0.452576 191.679 2.58703 195.473 6.38639C199.267 10.1858 201.398 15.3388 201.398 20.7119Z" fill="#F04E37"/>
<path d="M254.999 20.7119C254.999 24.7208 253.812 28.6395 251.587 31.9721C249.362 35.3047 246.2 37.9014 242.501 39.4334C238.801 40.9654 234.731 41.364 230.806 40.5786C226.88 39.7932 223.276 37.8592 220.448 35.0214C217.621 32.1835 215.698 28.5694 214.922 24.6365C214.147 20.7036 214.554 16.6288 216.092 12.9277C217.63 9.22654 220.23 6.06561 223.563 3.84493C226.896 1.62426 230.811 0.443678 234.814 0.452626C237.471 0.452626 240.102 0.976649 242.556 1.99477C245.011 3.0129 247.241 4.50519 249.119 6.38644C250.998 8.26769 252.488 10.5011 253.505 12.959C254.521 15.417 255.045 18.0515 255.045 20.7119" fill="#F04E37"/>
<path d="M40.6411 74.0284C40.6411 78.0353 39.4546 81.9522 37.2317 85.2838C35.0088 88.6155 31.8492 91.2121 28.1526 92.7455C24.4561 94.2789 20.3884 94.6801 16.4642 93.8984C12.5399 93.1167 8.93521 91.1872 6.10596 88.3539C3.27672 85.5205 1.34998 81.9107 0.569391 77.9808C-0.211196 74.0508 0.189429 69.9774 1.72061 66.2755C3.25178 62.5735 5.84474 59.4095 9.17158 57.1834C12.4984 54.9572 16.4097 53.769 20.4109 53.769C25.7763 53.769 30.9219 55.9035 34.7158 59.7029C38.5097 63.5022 40.6411 68.6553 40.6411 74.0284Z" fill="#0081C8"/>
<path d="M94.1509 74.0284C94.1509 78.0353 92.9644 81.9522 90.7415 85.2838C88.5185 88.6155 85.359 91.2121 81.6624 92.7455C77.9658 94.2789 73.8982 94.6801 69.9739 93.8984C66.0497 93.1167 62.445 91.1872 59.6157 88.3539C56.7865 85.5205 54.8597 81.9107 54.0792 77.9808C53.2986 74.0508 53.6992 69.9774 55.2304 66.2755C56.7616 62.5735 59.3545 59.4095 62.6813 57.1834C66.0082 54.9572 69.9195 53.769 73.9207 53.769C79.286 53.769 84.4317 55.9035 88.2256 59.7029C92.0195 63.5022 94.1509 68.6553 94.1509 74.0284Z" fill="#0081C8"/>
<path d="M147.799 74.0284C147.799 78.0353 146.613 81.9522 144.39 85.2838C142.167 88.6155 139.007 91.2121 135.311 92.7455C131.614 94.2789 127.547 94.6801 123.622 93.8984C119.698 93.1167 116.093 91.1872 113.264 88.3539C110.435 85.5205 108.508 81.9107 107.728 77.9808C106.947 74.0508 107.348 69.9774 108.879 66.2755C110.41 62.5735 113.003 59.4095 116.33 57.1834C119.657 54.9572 123.568 53.769 127.569 53.769C132.934 53.769 138.08 55.9035 141.874 59.7029C145.668 63.5022 147.799 68.6553 147.799 74.0284Z" fill="#F04E37"/>
<path d="M201.398 74.4349C201.416 78.4456 200.244 82.3714 198.032 85.7149C195.82 89.0584 192.667 91.6692 188.972 93.2165C185.277 94.7637 181.207 95.1778 177.276 94.4064C173.346 93.6349 169.733 91.7126 166.895 88.8829C164.057 86.0532 162.121 82.4435 161.333 78.5112C160.545 74.5788 160.94 70.5007 162.469 66.7935C163.997 63.0863 166.59 59.9169 169.919 57.6867C173.248 55.4566 177.163 54.2661 181.168 54.2661C186.533 54.2661 191.679 56.4005 195.472 60.1999C199.266 63.9992 201.398 69.1523 201.398 74.5254" fill="#0081C8"/>
<path d="M254.999 74.435C255.017 78.4476 253.845 82.3752 251.631 85.7197C249.417 89.0642 246.261 91.6749 242.563 93.2208C238.866 94.7668 234.793 95.1782 230.861 94.4031C226.93 93.628 223.317 91.7011 220.48 88.8669C217.644 86.0327 215.712 82.4188 214.929 78.4834C214.146 74.5481 214.548 70.4685 216.083 66.7621C217.619 63.0558 220.219 59.8895 223.553 57.6648C226.888 55.4401 230.807 54.2572 234.814 54.2661C237.471 54.2661 240.102 54.7901 242.556 55.8083C245.01 56.8264 247.241 58.3187 249.119 60.1999C250.998 62.0812 252.488 64.3145 253.505 66.7725C254.521 69.2305 255.044 71.8649 255.044 74.5254" fill="#0081C8"/>
<path d="M40.6411 127.797C40.6411 131.804 39.4546 135.721 37.2317 139.053C35.0088 142.385 31.8492 144.981 28.1526 146.515C24.4561 148.048 20.3884 148.449 16.4642 147.667C12.5399 146.886 8.93521 144.956 6.10596 142.123C3.27672 139.29 1.34998 135.68 0.569391 131.75C-0.211196 127.82 0.189429 123.746 1.72061 120.044C3.25178 116.343 5.84474 113.179 9.17158 110.952C12.4984 108.726 16.4097 107.538 20.4109 107.538C25.7763 107.538 30.9219 109.673 34.7158 113.472C38.5097 117.271 40.6411 122.424 40.6411 127.797Z" fill="#0081C8"/>
<path d="M94.1509 127.797C94.1509 131.804 92.9644 135.721 90.7415 139.053C88.5185 142.385 85.359 144.981 81.6624 146.515C77.9658 148.048 73.8982 148.449 69.9739 147.667C66.0497 146.886 62.445 144.956 59.6157 142.123C56.7865 139.29 54.8597 135.68 54.0792 131.75C53.2986 127.82 53.6992 123.746 55.2304 120.044C56.7616 116.343 59.3545 113.179 62.6813 110.952C66.0082 108.726 69.9195 107.538 73.9207 107.538C79.286 107.538 84.4317 109.673 88.2256 113.472C92.0195 117.271 94.1509 122.424 94.1509 127.797Z" fill="#0081C8"/>
<path d="M147.799 127.797C147.799 131.804 146.613 135.721 144.39 139.053C142.167 142.385 139.007 144.981 135.311 146.515C131.614 148.048 127.547 148.449 123.622 147.667C119.698 146.886 116.093 144.956 113.264 142.123C110.435 139.29 108.508 135.68 107.728 131.75C106.947 127.82 107.348 123.746 108.879 120.044C110.41 116.343 113.003 113.179 116.33 110.952C119.657 108.726 123.568 107.538 127.569 107.538C132.934 107.538 138.08 109.673 141.874 113.472C145.668 117.271 147.799 122.424 147.799 127.797Z" fill="#F04E37"/>
<path d="M201.398 128.204C201.398 132.211 200.211 136.128 197.989 139.459C195.766 142.791 192.606 145.388 188.91 146.921C185.213 148.454 181.145 148.856 177.221 148.074C173.297 147.292 169.692 145.363 166.863 142.529C164.034 139.696 162.107 136.086 161.326 132.156C160.546 128.226 160.946 124.153 162.477 120.451C164.009 116.749 166.602 113.585 169.928 111.359C173.255 109.133 177.167 107.945 181.168 107.945C186.533 107.945 191.679 110.079 195.473 113.878C199.267 117.678 201.398 122.831 201.398 128.204Z" fill="#0081C8"/>
<path d="M254.999 128.205C255.008 132.216 253.828 136.139 251.609 139.477C249.389 142.816 246.23 145.42 242.532 146.958C238.833 148.497 234.762 148.902 230.834 148.122C226.905 147.342 223.296 145.412 220.464 142.575C217.632 139.739 215.705 136.125 214.926 132.191C214.146 128.257 214.551 124.18 216.088 120.476C217.624 116.772 220.224 113.609 223.558 111.386C226.892 109.163 230.809 107.982 234.814 107.991C237.471 107.991 240.102 108.515 242.556 109.533C245.011 110.551 247.241 112.043 249.119 113.925C250.998 115.806 252.488 118.039 253.505 120.497C254.521 122.955 255.045 125.59 255.045 128.25" fill="#0081C8"/>
<path d="M40.6411 181.52C40.6411 185.527 39.4546 189.444 37.2317 192.776C35.0088 196.108 31.8492 198.704 28.1526 200.238C24.4561 201.771 20.3884 202.172 16.4642 201.39C12.5399 200.609 8.93521 198.679 6.10596 195.846C3.27672 193.013 1.34998 189.403 0.569391 185.473C-0.211196 181.543 0.189429 177.469 1.72061 173.768C3.25178 170.066 5.84474 166.902 9.17158 164.675C12.4984 162.449 16.4097 161.261 20.4109 161.261C23.0675 161.261 25.6982 161.785 28.1526 162.803C30.6071 163.821 32.8372 165.314 34.7158 167.195C36.5943 169.076 38.0845 171.31 39.1012 173.768C40.1178 176.225 40.6411 178.86 40.6411 181.52Z" fill="#0081C8"/>
<path d="M94.1509 181.52C94.1509 185.527 92.9644 189.444 90.7415 192.776C88.5185 196.108 85.359 198.704 81.6624 200.238C77.9658 201.771 73.8982 202.172 69.9739 201.39C66.0497 200.609 62.445 198.679 59.6157 195.846C56.7865 193.013 54.8597 189.403 54.0792 185.473C53.2986 181.543 53.6992 177.469 55.2304 173.768C56.7616 170.066 59.3545 166.902 62.6813 164.675C66.0082 162.449 69.9195 161.261 73.9207 161.261C76.5773 161.261 79.208 161.785 81.6624 162.803C84.1169 163.821 86.347 165.314 88.2256 167.195C90.1041 169.076 91.5943 171.31 92.6109 173.768C93.6276 176.225 94.1509 178.86 94.1509 181.52Z" fill="#0081C8"/>
<path d="M147.799 181.52C147.799 185.527 146.613 189.444 144.39 192.776C142.167 196.108 139.007 198.704 135.311 200.238C131.614 201.771 127.547 202.172 123.622 201.39C119.698 200.609 116.093 198.679 113.264 195.846C110.435 193.013 108.508 189.403 107.728 185.473C106.947 181.543 107.348 177.469 108.879 173.768C110.41 170.066 113.003 166.902 116.33 164.675C119.657 162.449 123.568 161.261 127.569 161.261C130.226 161.261 132.856 161.785 135.311 162.803C137.765 163.821 139.995 165.314 141.874 167.195C143.753 169.076 145.243 171.31 146.259 173.768C147.276 176.225 147.799 178.86 147.799 181.52Z" fill="#F04E37"/>
<path d="M201.398 181.973C201.398 185.98 200.211 189.897 197.989 193.228C195.766 196.56 192.606 199.157 188.91 200.69C185.213 202.224 181.145 202.625 177.221 201.843C173.297 201.061 169.692 199.132 166.863 196.298C164.034 193.465 162.107 189.855 161.326 185.925C160.546 181.995 160.946 177.922 162.477 174.22C164.009 170.518 166.602 167.354 169.928 165.128C173.255 162.902 177.167 161.714 181.168 161.714C186.533 161.714 191.679 163.848 195.473 167.648C199.267 171.447 201.398 176.6 201.398 181.973Z" fill="#0081C8"/>
<path d="M254.999 181.973C254.999 185.982 253.812 189.901 251.587 193.233C249.362 196.566 246.2 199.162 242.501 200.695C238.801 202.227 234.731 202.625 230.806 201.84C226.88 201.054 223.276 199.12 220.448 196.282C217.621 193.445 215.698 189.831 214.922 185.898C214.147 181.965 214.554 177.89 216.092 174.189C217.63 170.488 220.23 167.327 223.563 165.106C226.896 162.885 230.811 161.705 234.814 161.714C237.471 161.714 240.102 162.238 242.556 163.256C245.011 164.274 247.241 165.766 249.119 167.648C250.998 169.529 252.488 171.762 253.505 174.22C254.521 176.678 255.045 179.313 255.045 181.973" fill="#0081C8"/>
<path d="M40.6411 235.153C40.6411 239.16 39.4546 243.077 37.2317 246.408C35.0088 249.74 31.8492 252.337 28.1526 253.87C24.4561 255.403 20.3884 255.805 16.4642 255.023C12.5399 254.241 8.93521 252.312 6.10596 249.478C3.27672 246.645 1.34998 243.035 0.569391 239.105C-0.211196 235.175 0.189429 231.102 1.72061 227.4C3.25178 223.698 5.84474 220.534 9.17158 218.308C12.4984 216.082 16.4097 214.894 20.4109 214.894C25.7763 214.894 30.9219 217.028 34.7158 220.827C38.5097 224.627 40.6411 229.78 40.6411 235.153Z" fill="#0081C8"/>
<path d="M94.1509 235.153C94.1509 239.16 92.9644 243.077 90.7415 246.408C88.5185 249.74 85.359 252.337 81.6624 253.87C77.9658 255.403 73.8982 255.805 69.9739 255.023C66.0497 254.241 62.445 252.312 59.6157 249.478C56.7865 246.645 54.8597 243.035 54.0792 239.105C53.2986 235.175 53.6992 231.102 55.2304 227.4C56.7616 223.698 59.3545 220.534 62.6813 218.308C66.0082 216.082 69.9195 214.894 73.9207 214.894C79.286 214.894 84.4317 217.028 88.2256 220.827C92.0195 224.627 94.1509 229.78 94.1509 235.153Z" fill="#0081C8"/>
<path d="M147.799 235.153C147.799 239.16 146.613 243.077 144.39 246.408C142.167 249.74 139.007 252.337 135.311 253.87C131.614 255.403 127.547 255.805 123.622 255.023C119.698 254.241 116.093 252.312 113.264 249.478C110.435 246.645 108.508 243.035 107.728 239.105C106.947 235.175 107.348 231.102 108.879 227.4C110.41 223.698 113.003 220.534 116.33 218.308C119.657 216.082 123.568 214.894 127.569 214.894C132.934 214.894 138.08 217.028 141.874 220.827C145.668 224.627 147.799 229.78 147.799 235.153Z" fill="#F04E37"/>
<path d="M201.398 235.742C201.398 239.749 200.211 243.666 197.989 246.997C195.766 250.329 192.606 252.926 188.91 254.459C185.213 255.993 181.145 256.394 177.221 255.612C173.297 254.83 169.692 252.901 166.863 250.067C164.034 247.234 162.107 243.624 161.326 239.694C160.546 235.764 160.946 231.691 162.477 227.989C164.009 224.287 166.602 221.123 169.928 218.897C173.255 216.671 177.167 215.483 181.168 215.483C186.533 215.483 191.679 217.617 195.473 221.416C199.267 225.216 201.398 230.369 201.398 235.742Z" fill="#0081C8"/>
<path d="M254.999 235.742C254.999 239.751 253.812 243.67 251.587 247.002C249.362 250.335 246.2 252.931 242.501 254.464C238.801 255.996 234.731 256.394 230.806 255.609C226.88 254.823 223.276 252.889 220.448 250.051C217.621 247.214 215.698 243.6 214.922 239.667C214.147 235.734 214.554 231.659 216.092 227.958C217.63 224.257 220.23 221.096 223.563 218.875C226.896 216.654 230.811 215.474 234.814 215.483C237.471 215.483 240.102 216.007 242.556 217.025C245.011 218.043 247.241 219.535 249.119 221.417C250.998 223.298 252.488 225.531 253.505 227.989C254.521 230.447 255.045 233.082 255.045 235.742" fill="#0081C8"/>
</g>
<defs>
<clipPath id="clip0_1308_66194">
<rect width="255" height="256" fill="white"/>
</clipPath>
</defs>
</svg>
