<svg width="660" height="461" viewBox="0 0 660 461" fill="none" xmlns="http://www.w3.org/2000/svg"><path d="M641.178 137.976C641.178 137.976 546.259 28.8722 420.295 138.48C335.421 212.336 348.582 281.496 274.096 350.633C174.063 443.474 24.4693 355.41 24.4693 355.41" stroke="white" stroke-opacity="0.15" stroke-width="1.34" stroke-miterlimit="10"/><path d="M638.549 128.713C638.549 128.713 537.584 35.0305 424.866 150.089C347.26 229.301 342.745 293.048 265.301 350.222C162.737 425.944 24.7827 343.542 24.7827 343.542" stroke="white" stroke-opacity="0.15" stroke-width="1.34" stroke-miterlimit="10"/><path d="M635.928 119.445C635.928 119.445 529.065 41.4629 429.435 161.699C359.226 246.441 337.091 304.686 256.439 349.776C151.556 408.405 25.0638 331.573 25.0638 331.573" stroke="white" stroke-opacity="0.15" stroke-width="1.34" stroke-miterlimit="10"/><path d="M633.306 110.193C633.306 110.193 520.785 48.1208 434.003 173.302C371.31 263.754 331.61 316.491 247.667 349.322C140.61 391.173 25.3405 319.658 25.3405 319.658" stroke="white" stroke-opacity="0.15" stroke-width="1.34" stroke-miterlimit="10"/><path d="M630.684 100.925C630.684 100.925 512.798 54.9634 438.54 184.939C383.612 281.176 326.145 328.572 238.854 348.883C129.757 374.27 25.6715 307.697 25.6715 307.697" stroke="white" stroke-opacity="0.15" stroke-width="1.34" stroke-miterlimit="10"/><path d="M628.057 91.6618C628.057 91.6618 505.087 61.8362 443.143 196.521C396.177 298.67 320.674 340.914 230.056 348.464C118.878 357.661 25.975 295.765 25.975 295.765" stroke="white" stroke-opacity="0.15" stroke-width="1.34" stroke-miterlimit="10"/></svg>
