<svg width="39" height="33" viewBox="0 0 39 33" fill="none" xmlns="http://www.w3.org/2000/svg"><path opacity="0.1" fill-rule="evenodd" clip-rule="evenodd" d="M22.0664 9.40556C22.0664 5.26361 25.5544 1.875 29.8959 1.875C34.2374 1.875 37.7253 5.26361 37.7253 9.40556C37.7253 13.0579 35.0132 16.1245 31.3953 16.7984V17.8134C35.5458 17.1264 38.7253 13.6368 38.7253 9.40556C38.7253 4.6772 34.7549 0.875 29.8959 0.875C25.0369 0.875 21.0664 4.6772 21.0664 9.40556C21.0664 13.5585 24.1292 16.9969 28.1668 17.7724V16.7522C24.6644 15.9938 22.0664 12.9802 22.0664 9.40556ZM31.3953 15.5412C34.2873 14.9108 36.4654 12.4153 36.4654 9.40556C36.4654 5.91492 33.5357 3.11609 29.9604 3.11609C26.3852 3.11609 23.4555 5.91492 23.4555 9.40556C23.4555 12.2895 25.4554 14.7013 28.1668 15.4525V14.4084C25.9994 13.6917 24.4555 11.7123 24.4555 9.40556C24.4555 6.50133 26.9028 4.11609 29.9604 4.11609C33.0181 4.11609 35.4654 6.50133 35.4654 9.40556C35.4654 11.8377 33.7491 13.9058 31.3953 14.514V15.5412ZM31.3953 13.2946C32.9954 12.6905 34.1409 11.1865 34.1409 9.40555C34.1409 7.08386 32.1941 5.23266 29.8313 5.23266C27.4686 5.23266 25.5217 7.08386 25.5217 9.40555C25.5217 11.149 26.6195 12.6271 28.1668 13.2552V12.1492C27.1786 11.5965 26.5217 10.5678 26.5217 9.40555C26.5217 7.67028 27.9861 6.23266 29.8313 6.23266C31.6765 6.23266 33.1409 7.67028 33.1409 9.40555C33.1409 10.6067 32.4393 11.6653 31.3953 12.2031V13.2946Z" fill="#ECBDA7"/><path d="M36.5006 20.6738H2.49826C1.29649 20.6738 0.322266 21.6131 0.322266 22.7717V28.1628C0.322266 29.3214 1.29649 30.2607 2.49826 30.2607H36.5006C37.7023 30.2607 38.6766 29.3214 38.6766 28.1628V22.7717C38.6766 21.6131 37.7023 20.6738 36.5006 20.6738Z" stroke="white" stroke-miterlimit="10"/><path d="M7.80191 30.2598H3.92773V32.6876H7.80191V30.2598Z" stroke="white" stroke-miterlimit="10"/><path d="M34.8136 30.2598H30.9395V32.6876H34.8136V30.2598Z" stroke="white" stroke-miterlimit="10"/><path d="M29.7803 8.51562C30.2084 8.51562 30.619 8.67959 30.9217 8.97146C31.2244 9.26332 31.3945 9.65918 31.3945 10.0719V20.3436H28.166V10.0719C28.166 9.65918 28.3361 9.26332 28.6388 8.97146C28.9415 8.67959 29.3521 8.51562 29.7803 8.51562V8.51562Z" stroke="white" stroke-miterlimit="10"/><path d="M28.8617 25.0312H27.5703V26.2763H28.8617V25.0312Z" fill="white"/><path d="M31.3793 25.0938H30.0879V26.3388H31.3793V25.0938Z" fill="white"/><path d="M33.5765 25.0938H32.2852V26.3388H33.5765V25.0938Z" fill="white"/></svg>
