<svg width="123" height="113" viewBox="0 0 123 113" fill="none" xmlns="http://www.w3.org/2000/svg"><path d="M105.238 29.043C103.786 29.043 102.42 29.6087 101.393 30.6355L78.3772 53.6516C76.2571 55.7717 76.2571 59.2213 78.3772 61.3414C79.4042 62.3681 80.7697 62.9339 82.2219 62.9339C83.6742 62.9339 85.0397 62.3684 86.0667 61.3414L101.523 45.8848C102.227 45.1809 102.227 44.0402 101.523 43.3366C100.82 42.6332 99.6787 42.6332 98.9753 43.3366L83.5187 58.7932C83.1723 59.1396 82.7118 59.3303 82.2222 59.3303C81.7323 59.3303 81.2718 59.1396 80.9254 58.7932C80.5789 58.447 80.3882 57.9865 80.3882 57.4969C80.3882 57.007 80.5789 56.5465 80.9254 56.2003L103.941 33.1839C104.288 32.8377 104.748 32.647 105.238 32.647C105.728 32.647 106.188 32.8377 106.535 33.1839C106.881 33.5304 107.072 33.9909 107.072 34.4807C107.072 34.9706 106.881 35.4309 106.535 35.777L104.91 37.4023C104.206 38.1061 104.206 39.2468 104.91 39.9504C105.613 40.6539 106.754 40.6539 107.458 39.9504L109.083 38.3252C110.11 37.2985 110.676 35.933 110.676 34.4805C110.676 33.028 110.11 31.6628 109.083 30.6355C108.056 29.6085 106.691 29.043 105.238 29.043Z" fill="#FA4907"/><path d="M120.202 27.5873L112.129 19.5144C108.403 15.7881 102.339 15.7886 98.6132 19.5144L85.3295 32.7981L80.9582 19.3441C80.5471 18.0785 79.6676 17.0491 78.4823 16.4452C77.2967 15.8412 75.9471 15.7348 74.6817 16.1461L65.5789 19.1039C65.3404 19.1815 65.0788 19.1289 64.8964 18.9657C63.3284 17.568 61.6138 16.3217 59.8005 15.2618C59.5901 15.1388 59.4594 14.9067 59.4594 14.6561V5.08654C59.4594 2.33991 57.2249 0.105469 54.4785 0.105469H33.2769C30.5303 0.105469 28.2961 2.34015 28.2961 5.08654V14.6604C28.2961 14.9113 28.1657 15.1433 27.9552 15.2661C26.1443 16.325 24.4319 17.5704 22.8658 18.9669C22.6832 19.1296 22.4218 19.1824 22.1828 19.1053L13.0742 16.1458C10.4621 15.2971 7.64655 16.7315 6.79779 19.3439L0.246299 39.5074C-0.164746 40.7727 -0.058802 42.1224 0.545393 43.308C1.14959 44.4933 2.179 45.3726 3.44433 45.7838L12.5445 48.7409C12.7835 48.8185 12.964 49.0145 13.0154 49.2524C13.46 51.3076 14.1142 53.3244 14.9598 55.247C15.0586 55.4714 15.0283 55.7373 14.8808 55.9403L9.2583 63.6788C8.47633 64.7551 8.16018 66.0716 8.36846 67.3857C8.57651 68.7 9.284 69.8541 10.3603 70.6361L19.1383 77.0141C19.458 77.2467 19.8287 77.3586 20.1958 77.3586C20.7529 77.3584 21.3023 77.1011 21.655 76.6156C22.24 75.8105 22.0615 74.6838 21.2564 74.0989L12.478 67.7208C12.1803 67.5046 11.9847 67.1853 11.9271 66.8221C11.8697 66.4586 11.9571 66.0947 12.1733 65.7968L17.7958 58.0578C18.6934 56.8222 18.8707 55.1893 18.258 53.7962C17.5095 52.0944 16.9305 50.3092 16.537 48.4901C16.2153 47.0033 15.1119 45.786 13.6575 45.3135L4.55735 42.3564C4.20732 42.2425 3.92264 41.9996 3.75568 41.6715C3.58871 41.3438 3.5594 40.9705 3.67304 40.6204L10.2248 20.4569C10.4597 19.7342 11.2383 19.3381 11.9605 19.5723L21.0695 22.532C22.5213 23.0034 24.1287 22.668 25.2641 21.6561C26.6522 20.4182 28.1697 19.3148 29.7743 18.3764C31.0852 17.6098 31.8996 16.1857 31.8996 14.6597V5.08654C31.8996 4.32691 32.5175 3.70902 33.2769 3.70902H54.4785C55.2382 3.70902 55.8558 4.32691 55.8558 5.08654V14.6556C55.8558 16.1821 56.6707 17.6062 57.9822 18.3728C59.5893 19.3119 61.1088 20.4165 62.4984 21.6554C63.6335 22.6673 65.2404 23.0032 66.6927 22.5308L75.7952 19.573C76.1453 19.4592 76.5183 19.4887 76.846 19.6559C77.174 19.8229 77.4171 20.1078 77.5309 20.4576L82.4697 35.6579L67.7245 50.4031C66.4272 51.7004 65.8283 53.5562 66.1226 55.3669L66.4435 57.3431C66.5985 58.2966 66.2833 59.2734 65.6003 59.9564L63.8833 61.6733L63.5247 61.3147C61.6744 59.4646 58.6632 59.4644 56.8127 61.3149L54.4548 63.6726C52.6045 65.5229 52.6042 68.534 54.4548 70.3848L58.0482 73.9783L54.4954 77.5311L50.5821 72.145C49.6844 70.9097 48.1855 70.2375 46.6735 70.3882C44.8114 70.5743 42.9433 70.5741 41.0822 70.3874C39.5702 70.237 38.0709 70.9085 37.1726 72.1443L31.5539 79.8777C31.3377 80.1754 31.0185 80.3712 30.655 80.4286C30.2917 80.487 29.9278 80.3988 29.6297 80.1826L28.114 79.0816C27.3087 78.4964 26.1823 78.6754 25.5973 79.4802C25.0123 80.2854 25.191 81.4119 25.9961 81.9969L27.5115 83.0979C28.3718 83.723 29.3853 84.0504 30.4289 84.0504C30.6908 84.0504 30.9548 84.0298 31.2186 83.988C32.5327 83.7799 33.687 83.0727 34.4692 81.9962L40.0876 74.2627C40.2354 74.0597 40.4778 73.9485 40.7221 73.9732C42.8215 74.1834 44.932 74.1841 47.0326 73.9739C47.277 73.9475 47.5194 74.0604 47.6666 74.2632L51.9152 80.111L42.2594 89.7669C41.9106 90.1157 41.5002 90.3821 41.0392 90.5587L33.103 93.6003C31.398 94.2538 30.0763 95.6176 29.4769 97.3422L27.0308 104.38C26.546 105.775 26.9075 107.351 27.9518 108.396L31.3197 111.764C32.0563 112.5 33.0571 112.897 34.0728 112.897C34.4973 112.897 34.9245 112.828 35.3358 112.685L42.3732 110.239C44.0979 109.64 45.4617 108.318 46.1154 106.613L49.1568 98.6765C49.3334 98.2157 49.6 97.8052 49.9489 97.4564L65.7375 81.6678L69.3312 85.2615C70.2566 86.1868 71.4719 86.6491 72.6873 86.6491C73.9026 86.6491 75.1182 86.1864 76.0434 85.2615L78.4013 82.9035C80.2519 81.053 80.2519 78.0419 78.4013 76.1913L78.0429 75.8329L79.7596 74.1162C80.4426 73.4329 81.4192 73.1172 82.3731 73.2729L84.3491 73.5936C86.1602 73.8882 88.0156 73.2893 89.3129 71.9922L120.202 41.1035C122.007 39.2982 123.001 36.8982 123.001 34.3454C123.001 31.7927 122.007 29.3927 120.202 27.5873ZM47.4019 94.9079C46.6932 95.6166 46.1519 96.4507 45.793 97.3867L42.7516 105.323C42.479 106.034 41.9106 106.585 41.1913 106.835L34.1538 109.281C34.0548 109.316 33.9431 109.289 33.8686 109.215L30.5008 105.848C30.4265 105.773 30.4008 105.662 30.4354 105.563L32.8815 98.5252C33.1313 97.8064 33.6824 97.2377 34.3935 96.9651L42.3295 93.9237C43.2657 93.565 44.0998 93.0237 44.8083 92.315L60.5969 76.5265L63.1902 79.1198L47.4019 94.9079ZM75.8538 80.3551L73.4957 82.713C73.0503 83.1587 72.3252 83.1587 71.8799 82.713L67.0148 77.848C67.0139 77.847 67.0131 77.8461 67.0122 77.8451C67.0112 77.8441 67.0102 77.8434 67.0093 77.8425L61.8725 72.7057C61.8718 72.705 61.8713 72.7043 61.8706 72.7036C61.8699 72.7028 61.8692 72.7024 61.8685 72.7016L57.0029 67.8361C56.5573 67.3905 56.5573 66.6655 57.0027 66.2198L59.3606 63.8621C59.8063 63.4162 60.5313 63.4167 60.9767 63.8621L62.6091 65.4945C62.6091 65.4945 62.6091 65.4945 62.6094 65.4948C62.6094 65.4948 62.6094 65.4948 62.6094 65.495L75.8534 78.7388C76.2995 79.1849 76.2995 79.9097 75.8538 80.3551ZM117.654 38.5549L86.7652 69.4436C86.2847 69.924 85.5981 70.1453 84.9274 70.0365L82.9516 69.7157C80.8582 69.3753 78.7124 70.0674 77.2121 71.5675L75.4952 73.2845L66.4318 64.2213L68.1485 62.5046C69.6485 61.0048 70.3409 58.859 70.0005 56.7648L69.6795 54.7886C69.5705 54.1184 69.7922 53.4315 70.2724 52.9513L101.161 22.0626C103.483 19.7412 107.26 19.7412 109.581 22.0626L117.654 30.1358C118.778 31.2603 119.398 32.7553 119.398 34.3454C119.398 35.9353 118.778 37.4306 117.654 38.5549Z" fill="#FA4907"/><path d="M43.8817 53.0837C49.6935 53.0837 54.4216 48.3554 54.4216 42.5438C54.4216 36.7322 49.6933 32.0039 43.8817 32.0039C38.0699 32.0039 33.3418 36.7322 33.3418 42.5438C33.3418 48.3554 38.0699 53.0837 43.8817 53.0837ZM43.8817 35.6072C47.7065 35.6072 50.8183 38.719 50.8183 42.5438C50.8183 46.3686 47.7065 49.4804 43.8817 49.4804C40.0569 49.4804 36.9451 46.3686 36.9451 42.5438C36.9451 38.719 40.0569 35.6072 43.8817 35.6072Z" fill="#FA4907"/><path d="M43.8831 58.7974C52.8456 58.7974 60.1373 51.5057 60.1373 42.5432C60.1373 33.5807 52.8456 26.2891 43.8831 26.2891C34.9206 26.2891 27.6289 33.581 27.6289 42.5432C27.6289 51.5055 34.9203 58.7974 43.8831 58.7974ZM43.8831 29.8926C50.8588 29.8926 56.5337 35.5677 56.5337 42.5432C56.5337 49.5188 50.8586 55.1939 43.8831 55.1939C36.9076 55.1939 31.2325 49.5188 31.2325 42.5432C31.2325 35.5677 36.9073 29.8926 43.8831 29.8926Z" fill="#FA4907"/></svg>
