<svg width="60" height="60" viewBox="0 0 60 60" fill="none" xmlns="http://www.w3.org/2000/svg">
<path fill-rule="evenodd" clip-rule="evenodd" d="M0 30C0 13.4315 13.4315 0 30 0C46.5685 0 60 13.4315 60 30C60 46.5685 46.5685 60 30 60C13.4315 60 0 46.5685 0 30Z" fill="white"/>
<path d="M37.1963 33.1393C36.8071 32.9393 34.8678 31.9893 34.5071 31.8607C34.1464 31.725 33.8821 31.6607 33.6214 32.0607C33.3571 32.4571 32.6071 33.3393 32.3714 33.6071C32.1428 33.8714 31.9107 33.9036 31.5214 33.7071C29.2072 32.55 27.6893 31.6429 26.1643 29.025C25.7608 28.3286 26.5679 28.3786 27.3215 26.875C27.45 26.6107 27.3857 26.3857 27.2858 26.1857C27.1858 25.9857 26.4 24.05 26.0715 23.2607C25.7536 22.4929 25.4251 22.6 25.1858 22.5857C24.9572 22.5714 24.6965 22.5714 24.4322 22.5714C24.1679 22.5714 23.7429 22.6714 23.3822 23.0607C23.0215 23.4571 22.0037 24.4107 22.0037 26.3464C22.0037 28.2821 23.4144 30.1571 23.6072 30.4214C23.8072 30.6857 26.3822 34.6571 30.3357 36.3679C32.8357 37.4464 33.8142 37.5393 35.0642 37.3536C35.8249 37.2393 37.3928 36.4036 37.7178 35.4786C38.0428 34.5571 38.0428 33.7679 37.9463 33.6036C37.8499 33.4286 37.5856 33.3286 37.1963 33.1393Z" fill="#007BC3"/>
<path d="M44.757 23.8C43.9498 21.8821 42.7927 20.1607 41.3177 18.6821C39.8427 17.2071 38.1213 16.0464 36.1999 15.2429C34.2357 14.4179 32.15 14 30 14H29.9286C27.7643 14.0107 25.6679 14.4393 23.6965 15.2821C21.793 16.0964 20.0858 17.2536 18.6251 18.7286C17.1644 20.2036 16.018 21.9179 15.2252 23.8286C14.4038 25.8071 13.9895 27.9107 14.0002 30.075C14.0109 32.5536 14.6038 35.0143 15.7145 37.2143V42.6429C15.7145 43.55 16.4502 44.2857 17.3573 44.2857H22.7894C24.9894 45.3964 27.45 45.9893 29.9286 46H30.0036C32.1428 46 34.2178 45.5857 36.1714 44.775C38.082 43.9786 39.7999 42.8357 41.2713 41.375C42.7463 39.9143 43.907 38.2071 44.7177 36.3036C45.5605 34.3321 45.9891 32.2357 45.9998 30.0714C46.0105 27.8964 45.5891 25.7857 44.757 23.8ZM39.3606 39.4429C36.8571 41.9214 33.5357 43.2857 30 43.2857H29.9393C27.7857 43.275 25.6465 42.7393 23.7572 41.7321L23.4572 41.5714H18.4287V36.5429L18.268 36.2429C17.2609 34.3536 16.7252 32.2143 16.7145 30.0607C16.7002 26.5 18.0609 23.1571 20.5573 20.6393C23.0501 18.1214 26.3822 16.7286 29.9429 16.7143H30.0036C31.7893 16.7143 33.5214 17.0607 35.1535 17.7464C36.7463 18.4143 38.1749 19.375 39.4035 20.6036C40.6284 21.8286 41.5927 23.2607 42.2606 24.8536C42.9534 26.5036 43.2998 28.2536 43.2927 30.0607C43.2713 33.6179 41.8749 36.95 39.3606 39.4429Z" fill="#007BC3"/>
</svg>
