<svg width="16" height="16" viewBox="0 0 16 16" xmlns="http://www.w3.org/2000/svg"><path d="M4.71947 7.99982C4.53181 7.83105 4.28729 7.73949 4.03494 7.74349C3.78259 7.74748 3.54109 7.84675 3.35888 8.02137C3.17666 8.19599 3.06721 8.43306 3.05249 8.68501C3.03776 8.93695 3.11884 9.18515 3.27947 9.37982L5.49947 11.7098C5.59242 11.8073 5.7041 11.885 5.82783 11.9383C5.95155 11.9916 6.08476 12.0193 6.21947 12.0198C6.35346 12.0206 6.48624 11.9944 6.60992 11.9429C6.73361 11.8914 6.84568 11.8155 6.93947 11.7198L13.7195 4.71982C13.8114 4.62526 13.8838 4.51353 13.9325 4.391C13.9813 4.26847 14.0054 4.13753 14.0036 4.00567C14.0017 3.87382 13.9739 3.74361 13.9217 3.6225C13.8695 3.50139 13.794 3.39174 13.6995 3.29982C13.6049 3.20789 13.4932 3.13549 13.3707 3.08674C13.2481 3.038 13.1172 3.01387 12.9853 3.01572C12.8535 3.01758 12.7233 3.04539 12.6022 3.09757C12.481 3.14974 12.3714 3.22526 12.2795 3.31982L6.22947 9.57982L4.71947 7.99982Z"/></svg>
