<svg width="80" height="80" viewBox="0 0 80 80" xmlns="http://www.w3.org/2000/svg"><path d="M62.4541 49.4633H17.546C13.989 49.4662 10.5524 48.1754 7.8767 45.8318C5.201 43.4881 3.46886 40.2514 3.00316 36.725C2.53745 33.1987 3.36997 29.6233 5.34553 26.6653C7.32108 23.7074 10.3048 21.5688 13.7406 20.6482C13.7406 20.5865 13.7406 20.5238 13.7406 20.4601C13.7371 16.4082 15.079 12.4699 17.5557 9.26318C20.0324 6.05644 23.5038 3.76278 27.4249 2.74216C31.3461 1.72155 35.4952 2.03174 39.221 3.62406C42.9468 5.21638 46.0385 8.0007 48.0109 11.5401C48.7993 11.3488 49.6072 11.2502 50.4185 11.246C53.0064 11.2648 55.513 12.153 57.5352 13.7681C59.5575 15.3831 60.9781 17.6311 61.5687 20.1509H62.4541C66.3412 20.1509 70.0691 21.695 72.8176 24.4436C75.5662 27.1922 77.1104 30.92 77.1104 34.8071C77.1104 38.6942 75.5662 42.422 72.8176 45.1706C70.0691 47.9192 66.3412 49.4633 62.4541 49.4633ZM32.0412 4.32384C27.7619 4.32871 23.6593 6.03079 20.6335 9.05667C17.6076 12.0826 15.9055 16.1851 15.9006 20.4644C15.9006 20.6957 15.9168 20.9228 15.932 21.1487L15.9504 21.4363C15.9654 21.6961 15.8862 21.9526 15.7274 22.1588C15.5685 22.3649 15.3406 22.5068 15.0855 22.5584C12.0474 23.1696 9.34487 24.8881 7.50271 27.3801C5.66055 29.872 4.81024 32.9597 5.1169 36.0435C5.42356 39.1272 6.86531 41.9869 9.16217 44.0673C11.459 46.1477 14.4471 47.3003 17.546 47.3011H62.4541C65.7678 47.3011 68.9457 45.9848 71.2888 43.6417C73.6319 41.2986 74.9482 38.1207 74.9482 34.8071C74.9482 31.4935 73.6319 28.3155 71.2888 25.9725C68.9457 23.6294 65.7678 22.313 62.4541 22.313H60.6736C60.4141 22.3129 60.1633 22.2195 59.967 22.0498C59.7707 21.8801 59.642 21.6454 59.6044 21.3887C59.2746 19.1822 58.1676 17.1661 56.4828 15.7037C54.7979 14.2412 52.6462 13.4287 50.4152 13.4125C49.5145 13.4255 48.6205 13.5712 47.7622 13.8449C47.5191 13.9179 47.258 13.9029 47.0248 13.8027C46.7915 13.7025 46.601 13.5234 46.4866 13.2968C45.1606 10.5985 43.1035 8.32681 40.5496 6.74042C37.9957 5.15403 35.0477 4.31672 32.0412 4.32384Z"/><path d="M65.7937 67.5201H58.2175C56.5204 67.5181 54.8935 66.8431 53.6935 65.6431C52.4935 64.4431 51.8184 62.8161 51.8164 61.119V48.3828C51.8164 48.0961 51.9303 47.8211 52.133 47.6184C52.3358 47.4157 52.6108 47.3018 52.8975 47.3018C53.1842 47.3018 53.4592 47.4157 53.6619 47.6184C53.8647 47.8211 53.9786 48.0961 53.9786 48.3828V61.119C53.9797 62.2429 54.4267 63.3204 55.2214 64.1152C56.0161 64.9099 57.0936 65.3568 58.2175 65.358H65.7937C66.0804 65.358 66.3554 65.4719 66.5581 65.6746C66.7609 65.8773 66.8748 66.1523 66.8748 66.439C66.8748 66.7258 66.7609 67.0007 66.5581 67.2035C66.3554 67.4062 66.0804 67.5201 65.7937 67.5201Z"/><path d="M70.3074 72.0339C69.2009 72.0337 68.1194 71.7054 67.1995 71.0905C66.2796 70.4757 65.5627 69.6018 65.1394 68.5795C64.7161 67.5572 64.6055 66.4324 64.8215 65.3472C65.0375 64.262 65.5704 63.2653 66.3529 62.483C67.1353 61.7007 68.1322 61.1679 69.2174 60.9521C70.3026 60.7364 71.4275 60.8472 72.4497 61.2707C73.4719 61.6942 74.3456 62.4112 74.9603 63.3312C75.575 64.2512 75.9031 65.3329 75.9031 66.4393C75.9011 67.9227 75.3108 69.3447 74.2619 70.3935C73.2129 71.4422 71.7907 72.0322 70.3074 72.0339ZM70.3074 63.0069C69.6286 63.0071 68.965 63.2086 68.4007 63.5859C67.8364 63.9632 67.3966 64.4993 67.137 65.1265C66.8774 65.7537 66.8096 66.4439 66.9421 67.1096C67.0747 67.7754 67.4017 68.3869 67.8818 68.8668C68.3618 69.3467 68.9734 69.6735 69.6392 69.8059C70.305 69.9382 70.9951 69.8702 71.6223 69.6104C72.2494 69.3505 72.7854 68.9106 73.1625 68.3462C73.5396 67.7817 73.7409 67.1181 73.7409 66.4393C73.7398 65.5291 73.3776 64.6566 72.7339 64.0131C72.0902 63.3696 71.2176 63.0077 70.3074 63.0069Z"/><path d="M40 77.8378C38.8932 77.8378 37.8113 77.5096 36.8911 76.8947C35.9708 76.2798 35.2536 75.4058 34.8301 74.3833C34.4066 73.3607 34.2959 72.2356 34.5119 71.1501C34.7279 70.0646 35.2609 69.0676 36.0436 68.285C36.8263 67.5025 37.8234 66.9697 38.909 66.7539C39.9945 66.5381 41.1196 66.6491 42.1421 67.0727C43.1645 67.4964 44.0384 68.2138 44.6531 69.1342C45.2679 70.0545 45.5959 71.1365 45.5956 72.2432C45.5936 73.7266 45.0034 75.1486 43.9544 76.1974C42.9054 77.2462 41.4833 77.8361 40 77.8378ZM40 68.8097C39.3209 68.8097 38.6571 69.0111 38.0924 69.3884C37.5278 69.7657 37.0877 70.3019 36.8278 70.9293C36.5679 71.5567 36.5 72.2471 36.6324 72.9131C36.7649 73.5791 37.0919 74.1909 37.5721 74.6711C38.0523 75.1513 38.6641 75.4783 39.3301 75.6108C39.9962 75.7433 40.6865 75.6753 41.3139 75.4154C41.9413 75.1555 42.4776 74.7154 42.8548 74.1508C43.2321 73.5862 43.4335 72.9223 43.4335 72.2432C43.4323 71.333 43.0702 70.4603 42.4266 69.8166C41.7829 69.173 40.9102 68.8109 40 68.8097Z"/><path d="M21.7823 67.5201H14.2061C13.9194 67.5201 13.6444 67.4062 13.4416 67.2035C13.2389 67.0007 13.125 66.7258 13.125 66.439C13.125 66.1523 13.2389 65.8773 13.4416 65.6746C13.6444 65.4719 13.9194 65.358 14.2061 65.358H21.7823C22.9062 65.3568 23.9837 64.9099 24.7784 64.1152C25.5731 63.3204 26.0201 62.2429 26.0212 61.119V48.3828C26.0212 48.0961 26.1351 47.8211 26.3379 47.6184C26.5406 47.4157 26.8156 47.3018 27.1023 47.3018C27.389 47.3018 27.664 47.4157 27.8667 47.6184C28.0695 47.8211 28.1834 48.0961 28.1834 48.3828V61.119C28.1814 62.8161 27.5063 64.4431 26.3063 65.6431C25.1063 66.8431 23.4794 67.5181 21.7823 67.5201Z"/><path d="M9.69215 72.0339C8.58569 72.0337 7.50414 71.7054 6.58425 71.0905C5.66437 70.4757 4.94746 69.6018 4.52419 68.5795C4.10091 67.5572 3.99027 66.4324 4.20627 65.3472C4.42226 64.262 4.95518 63.2653 5.73764 62.483C6.5201 61.7007 7.51696 61.1679 8.60218 60.9521C9.68739 60.7364 10.8122 60.8472 11.8344 61.2707C12.8567 61.6942 13.7303 62.4112 14.345 63.3312C14.9597 64.2512 15.2878 65.3329 15.2878 66.4393C15.2861 67.9228 14.696 69.3449 13.6469 70.3938C12.5979 71.4426 11.1756 72.0325 9.69215 72.0339ZM9.69215 63.0069C9.01332 63.0071 8.3498 63.2086 7.78549 63.5859C7.22117 63.9632 6.78139 64.4993 6.52177 65.1265C6.26214 65.7537 6.19432 66.4439 6.32688 67.1096C6.45945 67.7754 6.78644 68.3869 7.26652 68.8668C7.74659 69.3467 8.3582 69.6735 9.02399 69.8059C9.68979 69.9382 10.3799 69.8702 11.007 69.6104C11.6341 69.3505 12.1702 68.9106 12.5473 68.3462C12.9244 67.7817 13.1257 67.1181 13.1257 66.4393C13.1245 65.5291 12.7624 64.6566 12.1187 64.0131C11.475 63.3696 10.6023 63.0077 9.69215 63.0069Z"/><path d="M40 68.8094C39.7133 68.8094 39.4383 68.6955 39.2356 68.4928C39.0328 68.29 38.9189 68.0151 38.9189 67.7283V48.377C38.9189 48.0903 39.0328 47.8153 39.2356 47.6125C39.4383 47.4098 39.7133 47.2959 40 47.2959C40.2868 47.2959 40.5617 47.4098 40.7645 47.6125C40.9672 47.8153 41.0811 48.0903 41.0811 48.377V67.7283C41.0811 68.0151 40.9672 68.29 40.7645 68.4928C40.5617 68.6955 40.2868 68.8094 40 68.8094Z"/></svg>
