<svg width="40" height="40" viewBox="0 0 40 40" xmlns="http://www.w3.org/2000/svg">
<path d="M34.4462 38.9189H5.55324C5.40988 38.9189 5.27239 38.8619 5.17102 38.7606C5.06965 38.6592 5.0127 38.5217 5.0127 38.3783V1.6216C5.0127 1.47823 5.06965 1.34075 5.17102 1.23938C5.27239 1.138 5.40988 1.08105 5.55324 1.08105H26.6884C26.8317 1.08109 26.9692 1.13806 27.0705 1.23943L34.8278 8.99619C34.9292 9.09754 34.9862 9.235 34.9862 9.37835V38.3783C34.9862 38.5216 34.9293 38.659 34.8281 38.7604C34.7268 38.8617 34.5895 38.9187 34.4462 38.9189ZM6.09378 37.8378H33.9057V9.60214L26.4651 2.16214H6.09378V37.8378Z"/>
<path d="M34.4463 9.91878H26.689C26.5456 9.91878 26.4081 9.86183 26.3068 9.76046C26.2054 9.65909 26.1484 9.5216 26.1484 9.37824V1.62148C26.1485 1.51459 26.1802 1.4101 26.2396 1.32123C26.299 1.23236 26.3834 1.1631 26.4821 1.12219C26.5809 1.08129 26.6896 1.07059 26.7944 1.09143C26.8992 1.11228 26.9955 1.16375 27.0711 1.23932L34.8284 8.99608C34.904 9.07167 34.9555 9.16798 34.9763 9.27281C34.9972 9.37765 34.9865 9.48632 34.9456 9.58508C34.9047 9.68383 34.8354 9.76825 34.7465 9.82764C34.6577 9.88704 34.5532 9.91875 34.4463 9.91878ZM27.2295 8.8377H33.1414L27.2295 2.92634V8.8377Z"/>
<path d="M15.5466 19.1221C14.2589 19.1225 13 18.7411 11.9291 18.0259C10.8582 17.3108 10.0234 16.2942 9.53032 15.1046C9.03725 13.915 8.90805 12.6059 9.15905 11.3429C9.41005 10.0798 10.03 8.91963 10.9404 8.00895C11.8509 7.09828 13.0109 6.47807 14.2739 6.22675C15.5369 5.97544 16.846 6.10431 18.0357 6.59708C19.2254 7.08984 20.2423 7.92437 20.9577 8.99509C21.673 10.0658 22.0548 11.3247 22.0547 12.6124C22.0527 14.338 21.3665 15.9923 20.1464 17.2127C18.9264 18.433 17.2722 19.1197 15.5466 19.1221ZM15.5466 7.18319C14.4727 7.18276 13.4228 7.50081 12.5297 8.09712C11.6366 8.69343 10.9404 9.5412 10.5292 10.5332C10.1179 11.5252 10.0101 12.6169 10.2193 13.6702C10.4286 14.7235 10.9455 15.6911 11.7047 16.4506C12.4639 17.2101 13.4313 17.7274 14.4845 17.9371C15.5377 18.1467 16.6294 18.0394 17.6216 17.6285C18.6138 17.2176 19.4618 16.5218 20.0585 15.6289C20.6552 14.736 20.9736 13.6863 20.9736 12.6124C20.9722 11.1733 20.4 9.7935 19.3827 8.7757C18.3653 7.7579 16.9857 7.18519 15.5466 7.18319Z"/>
<path d="M20.8866 15.5572C20.8181 15.5572 20.7502 15.5441 20.6866 15.5188L15.3455 13.3918C15.2134 13.338 15.1079 13.2341 15.052 13.1029C14.9961 12.9716 14.9944 12.8236 15.0472 12.6911C15.0999 12.5586 15.203 12.4523 15.3338 12.3954C15.4646 12.3385 15.6126 12.3357 15.7455 12.3874L21.0866 14.5145C21.2033 14.561 21.3002 14.6467 21.3606 14.7569C21.421 14.8672 21.4411 14.995 21.4174 15.1184C21.3937 15.2419 21.3278 15.3532 21.2309 15.4333C21.134 15.5133 21.0122 15.5571 20.8866 15.5572Z"/>
<path d="M15.5464 13.4302C15.4527 13.4304 15.3606 13.406 15.2794 13.3594C15.1964 13.3122 15.1273 13.2439 15.0793 13.1614C15.0312 13.0789 15.0059 12.9851 15.0059 12.8897V6.6421C15.0059 6.49874 15.0628 6.36125 15.1642 6.25988C15.2656 6.15851 15.403 6.10156 15.5464 6.10156C15.6898 6.10156 15.8272 6.15851 15.9286 6.25988C16.03 6.36125 16.0869 6.49874 16.0869 6.6421V11.9394L20.5194 9.3021C20.6426 9.22877 20.7899 9.2074 20.9289 9.24267C21.0679 9.27795 21.1871 9.36699 21.2605 9.49021C21.3338 9.61343 21.3552 9.76073 21.3199 9.89971C21.2846 10.0387 21.1956 10.158 21.0724 10.2313L15.8232 13.3551C15.7393 13.4044 15.6437 13.4304 15.5464 13.4302Z"/>
<path d="M17.9854 18.599C17.8828 18.599 17.7823 18.5699 17.6957 18.5149C17.6091 18.46 17.5399 18.3815 17.4962 18.2887L15.0567 13.1223C14.9991 12.9932 14.9943 12.8467 15.0434 12.7141C15.0925 12.5815 15.1916 12.4735 15.3194 12.4131C15.4473 12.3527 15.5937 12.3448 15.7272 12.3911C15.8608 12.4374 15.9709 12.5341 16.034 12.6606L18.474 17.8277C18.5129 17.9099 18.5303 18.0005 18.5248 18.0913C18.5193 18.182 18.491 18.2699 18.4425 18.3468C18.394 18.4237 18.3268 18.4872 18.2473 18.5312C18.1678 18.5753 18.0785 18.5986 17.9875 18.599H17.9854Z"/>
<path d="M15.2495 34.6137H12.1333C11.99 34.6137 11.8525 34.5567 11.7511 34.4553C11.6497 34.354 11.5928 34.2165 11.5928 34.0731V25.1353C11.5928 24.9919 11.6497 24.8544 11.7511 24.753C11.8525 24.6517 11.99 24.5947 12.1333 24.5947H15.2495C15.3929 24.5947 15.5304 24.6517 15.6318 24.753C15.7331 24.8544 15.7901 24.9919 15.7901 25.1353V34.0731C15.7901 34.2165 15.7331 34.354 15.6318 34.4553C15.5304 34.5567 15.3929 34.6137 15.2495 34.6137ZM12.6739 33.5326H14.709V25.6758H12.6739V33.5326Z"/>
<path d="M21.5587 34.6135H18.4419C18.2985 34.6135 18.1611 34.5566 18.0597 34.4552C17.9583 34.3538 17.9014 34.2164 17.9014 34.073V21.9595C17.9014 21.8161 17.9583 21.6786 18.0597 21.5773C18.1611 21.4759 18.2985 21.4189 18.4419 21.4189H21.5587C21.702 21.4189 21.8395 21.4759 21.9409 21.5773C22.0423 21.6786 22.0992 21.8161 22.0992 21.9595V34.073C22.0992 34.2164 22.0423 34.3538 21.9409 34.4552C21.8395 34.5566 21.702 34.6135 21.5587 34.6135ZM18.9824 33.5325H21.0181V22.5H18.9824V33.5325Z"/>
<path d="M27.8667 34.6139H24.7505C24.6071 34.6139 24.4697 34.557 24.3683 34.4556C24.2669 34.3542 24.21 34.2167 24.21 34.0734V24.3247C24.21 24.1814 24.2669 24.0439 24.3683 23.9425C24.4697 23.8411 24.6071 23.7842 24.7505 23.7842H27.8667C28.0101 23.7842 28.1476 23.8411 28.2489 23.9425C28.3503 24.0439 28.4073 24.1814 28.4073 24.3247V34.0734C28.4073 34.2167 28.3503 34.3542 28.2489 34.4556C28.1476 34.557 28.0101 34.6139 27.8667 34.6139ZM25.291 33.5328H27.3262V24.8653H25.291V33.5328Z"/>
<path d="M29.6278 34.6133H10.3716C10.2282 34.6133 10.0907 34.5564 9.98938 34.455C9.888 34.3536 9.83105 34.2161 9.83105 34.0728C9.83105 33.9294 9.888 33.7919 9.98938 33.6905C10.0907 33.5892 10.2282 33.5322 10.3716 33.5322H29.6278C29.7712 33.5322 29.9087 33.5892 30.01 33.6905C30.1114 33.7919 30.1684 33.9294 30.1684 34.0728C30.1684 34.2161 30.1114 34.3536 30.01 34.455C29.9087 34.5564 29.7712 34.6133 29.6278 34.6133Z"/>
</svg>
