<svg width="31" height="40" viewBox="0 0 31 40" fill="none" xmlns="http://www.w3.org/2000/svg">
<path d="M30.1115 7.98379L30.0709 7.94326V7.90274L22.3708 0.202634L22.3303 0.162107C22.3303 0.162107 22.2898 0.162107 22.2898 0.121581C22.2898 0.121581 22.2492 0.121581 22.2492 0.0810537C22.1277 0 22.0061 0 21.844 0H2.75583C1.98582 0 1.29686 0.324215 0.810537 0.810537C0.324215 1.29686 0 2.02634 0 2.75583V37.2442C0 37.9737 0.283688 38.6626 0.77001 39.1489L0.810537 39.1895C1.29686 39.6758 2.02634 40 2.75583 40H27.4367C28.2067 40 28.8956 39.6758 29.382 39.1895C29.8683 38.7031 30.1925 37.9737 30.1925 37.2442V8.38906C30.1925 8.22695 30.152 8.10537 30.1115 7.98379ZM22.614 2.91793L27.1935 7.49747H23.8298C23.5056 7.49747 23.1814 7.37589 22.9787 7.13273C22.7761 6.93009 22.614 6.60588 22.614 6.28166V2.91793ZM28.4499 37.2442C28.4499 37.5279 28.3283 37.771 28.1256 37.9737C27.923 38.1763 27.6798 38.2979 27.3962 38.2979H2.75583C2.47214 38.2979 2.22898 38.1763 2.02634 37.9737L1.98582 37.9331C1.82371 37.7305 1.70213 37.4873 1.70213 37.2442V2.7153C1.70213 2.43161 1.82371 2.18845 2.02634 1.98582C2.22898 1.78318 2.47214 1.6616 2.75583 1.6616H20.9119V6.24113C20.9119 7.05167 21.2361 7.78116 21.8034 8.34853C22.3303 8.87538 23.1003 9.1996 23.9108 9.1996H28.4499V37.2442Z" fill="#A6A6A6"/>
<path d="M13.6344 17.3463C13.2251 17.1259 12.7214 17 12.1547 17C11.7454 17 11.3676 17.063 11.0213 17.1889C10.675 17.3148 10.3917 17.5037 10.1713 17.7556C9.9509 18.0074 9.762 18.3223 9.63607 18.6686C9.51014 19.0464 9.44717 19.4242 9.44717 19.8649C9.44717 20.2742 9.51014 20.6835 9.63607 21.0298C9.762 21.3761 9.91941 21.6909 10.1713 21.9428C10.3917 22.1947 10.675 22.3835 11.0213 22.541C11.3676 22.6669 11.7454 22.7613 12.1862 22.7613C12.6269 22.7613 13.0047 22.6984 13.351 22.5724C13.6973 22.4465 13.9807 22.2261 14.2011 21.9743C14.4214 21.7224 14.6103 21.4076 14.7363 21.0613C14.8622 20.715 14.9252 20.3372 14.9252 19.8964C14.9252 19.3297 14.8307 18.826 14.6103 18.3852C14.3585 17.913 14.0437 17.5667 13.6344 17.3463ZM13.5399 20.9668C13.3825 21.2817 13.1936 21.502 12.9732 21.628C12.7214 21.7854 12.4695 21.8483 12.1862 21.8483C11.9658 21.8483 11.7454 21.8169 11.5565 21.7224C11.3676 21.628 11.2102 21.502 11.0528 21.3446C10.8954 21.1872 10.8009 20.9668 10.7065 20.715C10.6435 20.4631 10.5806 20.1798 10.5806 19.8649C10.5806 19.5501 10.612 19.2668 10.7065 19.0149C10.8009 18.763 10.8954 18.5427 11.0213 18.3852C11.1472 18.2278 11.3361 18.1019 11.525 18.0074C11.7139 17.913 11.9343 17.8815 12.1547 17.8815C12.4695 17.8815 12.7529 17.9445 13.0047 18.1019C13.2566 18.2593 13.4455 18.4797 13.5714 18.763C13.6973 19.0464 13.7603 19.4242 13.7603 19.8334C13.7603 20.2742 13.6659 20.652 13.5399 20.9668Z" fill="#A6A6A6"/>
<path d="M17.2233 17.1889C16.9085 17.3148 16.6251 17.5037 16.3733 17.7556C16.1214 18.0074 15.9325 18.3223 15.8066 18.6686C15.6806 19.0149 15.6177 19.4242 15.6177 19.8649C15.6177 20.1483 15.6492 20.4001 15.6806 20.652C15.7436 20.9039 15.8066 21.1242 15.901 21.3446C15.9955 21.565 16.1214 21.7539 16.2788 21.9428C16.4362 22.1317 16.6251 22.2891 16.814 22.415C17.0029 22.541 17.2233 22.6039 17.4752 22.6669C17.727 22.7299 17.9789 22.7613 18.2622 22.7613C18.64 22.7613 18.9863 22.6984 19.2697 22.5724C19.553 22.4465 19.8049 22.2891 19.9938 22.1002C20.1827 21.9113 20.3086 21.6909 20.4031 21.502C20.4975 21.2817 20.529 21.0928 20.529 20.9353C20.529 20.8094 20.466 20.6835 20.3716 20.589C20.2771 20.4946 20.1512 20.4631 20.0253 20.4631C19.8678 20.4631 19.7419 20.4946 19.679 20.589C19.616 20.6835 19.553 20.8094 19.4901 20.9353C19.3641 21.2502 19.2067 21.4705 18.9863 21.628C18.766 21.7854 18.4826 21.8798 18.1678 21.8798C17.8844 21.8798 17.6011 21.8169 17.3807 21.6594C17.1603 21.502 16.9714 21.3131 16.877 21.0298C16.7511 20.7464 16.6881 20.4001 16.6881 19.9594C16.6881 19.3297 16.814 18.826 17.0974 18.4797C17.3807 18.1334 17.727 17.9445 18.1993 17.9445C18.4826 17.9445 18.7345 18.0074 18.9234 18.1334C19.1123 18.2593 19.3012 18.4797 19.4271 18.763C19.5215 18.9204 19.5845 19.0464 19.679 19.1093C19.7419 19.1723 19.8679 19.2038 19.9938 19.2038C20.1197 19.2038 20.2456 19.1408 20.3086 19.0464C20.4031 18.9519 20.4345 18.826 20.4345 18.7001C20.4345 18.4797 20.3401 18.2278 20.1512 17.9445C19.9623 17.6926 19.7104 17.4722 19.3326 17.2833C18.9863 17.0944 18.5771 17 18.1363 17C17.9159 17 17.5696 17.063 17.2233 17.1889Z" fill="#A6A6A6"/>
<path d="M7.87237 17.5977C7.65199 17.4088 7.40013 17.2829 7.11679 17.1884C6.83344 17.1255 6.51862 17.094 6.14082 17.094H4.69262C4.44076 17.094 4.28334 17.157 4.15741 17.2514C4.06297 17.3459 4 17.5348 4 17.7866V21.8479C4 22.0368 4 22.1627 4.06297 22.2886C4.09445 22.4146 4.15741 22.4775 4.25186 22.5405C4.34631 22.6035 4.50372 22.635 4.7241 22.635H6.17231C6.42417 22.635 6.64455 22.6035 6.86493 22.572C7.05382 22.5405 7.24272 22.4775 7.43162 22.4146C7.62051 22.3201 7.77793 22.2257 7.90386 22.0997C8.09275 21.9109 8.25017 21.722 8.3761 21.5016C8.50203 21.2812 8.59648 21.0293 8.65944 20.746C8.72241 20.4626 8.75389 20.1793 8.75389 19.833C8.72241 18.857 8.43906 18.1014 7.87237 17.5977ZM7.02234 21.4701C6.92789 21.5331 6.83344 21.596 6.739 21.6275C6.61307 21.659 6.51862 21.6905 6.42417 21.6905C6.32972 21.6905 6.17231 21.6905 5.98341 21.6905H5.13338V17.9755H5.88896C6.23527 17.9755 6.51862 18.007 6.77048 18.1014C7.02234 18.1644 7.21124 18.3533 7.36865 18.6366C7.52606 18.92 7.62051 19.3293 7.62051 19.8645C7.58903 20.6201 7.40013 21.1553 7.02234 21.4701Z" fill="#A6A6A6"/>
<path d="M21.1512 22.3428C21.1512 22.575 21.3626 22.7641 21.6283 22.7641C21.8155 22.7641 21.9725 22.6669 22.1235 22.4616L23.5124 20.5654H23.5788L25.004 22.4724C25.1429 22.6615 25.3241 22.7641 25.5294 22.7641C25.7891 22.7641 26.0004 22.5696 26.0004 22.3319C26.0004 22.2239 25.9521 22.0943 25.8796 22.0078L24.1405 19.8794L25.8736 17.7239C25.9461 17.6321 25.9823 17.5348 25.9823 17.4322C25.9823 17.1837 25.7891 17.0054 25.5173 17.0054C25.312 17.0054 25.161 17.0972 25.01 17.2971L23.5788 19.1933H23.5124L22.0812 17.2917C21.9363 17.0972 21.7672 17 21.5679 17C21.3022 17 21.0908 17.1891 21.0908 17.4214C21.0908 17.5294 21.1391 17.6699 21.2056 17.7509L22.9508 19.8794L21.2659 22.024C21.1935 22.1105 21.1512 22.2347 21.1512 22.3428Z" fill="#A5A5A5"/>
</svg>
