<svg width="40" height="40" viewBox="0 0 40 40" xmlns="http://www.w3.org/2000/svg">
<g clip-path="url(#clip0_1308_65991)">
<path d="M8.9844 11.9531H25.1801C25.5037 11.9531 25.766 11.6908 25.766 11.3672C25.766 11.0436 25.5037 10.7812 25.1801 10.7812H8.9844C8.66081 10.7812 8.39846 11.0436 8.39846 11.3672C8.39846 11.6908 8.66081 11.9531 8.9844 11.9531ZM31.0157 17.8125H8.9844C8.66081 17.8125 8.39846 18.0748 8.39846 18.3984C8.39846 18.722 8.66081 18.9844 8.9844 18.9844H31.0157C31.3392 18.9844 31.6016 18.722 31.6016 18.3984C31.6016 18.0748 31.3392 17.8125 31.0157 17.8125ZM31.0157 14.2969H8.9844C8.66081 14.2969 8.39846 14.5592 8.39846 14.8828C8.39846 15.2064 8.66081 15.4688 8.9844 15.4688H31.0157C31.3392 15.4688 31.6016 15.2064 31.6016 14.8828C31.6016 14.5592 31.3392 14.2969 31.0157 14.2969ZM31.0157 10.7812H27.9145C27.5909 10.7812 27.3285 11.0436 27.3285 11.3672C27.3285 11.6908 27.5909 11.9531 27.9145 11.9531H31.0157C31.3392 11.9531 31.6016 11.6908 31.6016 11.3672C31.6016 11.0436 31.3392 10.7812 31.0157 10.7812ZM40 4.96094V3.47656C39.9984 2.8518 39.4466 2.35672 38.8172 2.42188C38.6982 1.06672 37.5575 0 36.1719 0C34.7863 0 33.6457 1.06664 33.5266 2.42188C32.9046 2.37789 32.3442 2.8325 32.3438 3.47656V4.96094C32.3397 5.57484 32.8938 6.08094 33.5157 6.01562V6.66758H14.7185C14.4368 6.66758 14.172 6.77727 13.9728 6.97648L13.3525 7.59672L12.7323 6.97648C12.5331 6.77727 12.2682 6.66758 11.9865 6.66758H6.4844V6.01562C7.09729 6.04867 7.65979 5.60547 7.65628 4.96094V3.47656C7.65292 2.86266 7.10651 2.34844 6.47346 2.42188C6.3544 1.06672 5.21378 0 3.82815 0C2.44253 0 1.30198 1.06672 1.18284 2.42188C0.560416 2.37695 0.000337884 2.8332 2.53844e-05 3.47656V4.96094C-0.00380274 5.57484 0.550025 6.08094 1.1719 6.01562V20.7038C1.1719 21.0274 1.43424 21.2897 1.75784 21.2897C2.08143 21.2897 2.34378 21.0274 2.34378 20.7038V6.01562H5.31253V33.9844H2.34378V23.438C2.34378 23.1144 2.08143 22.8521 1.75784 22.8521C1.43424 22.8521 1.1719 23.1144 1.1719 23.438V33.9844C0.553228 33.9445 0.000259759 34.3998 2.53844e-05 35.0391V36.5234C-0.00434962 37.1391 0.557447 37.6498 1.18284 37.5781C1.30198 38.9334 2.44253 40 3.82815 40C5.21378 40 6.35432 38.9334 6.47346 37.5781C7.0926 37.6216 7.65917 37.1681 7.65628 36.5234V35.0391C7.65346 34.4304 7.11315 33.9147 6.4844 33.9844V33.3324H27.3624C27.6442 33.3324 27.9091 33.2227 28.1082 33.0235L28.7284 32.4033L29.3485 33.0234C29.5476 33.2227 29.8125 33.3325 30.0944 33.3325H33.5157V33.9844C32.8974 33.9453 32.3441 34.3991 32.3438 35.0391V36.5234C32.3392 37.1391 32.9012 37.6498 33.5266 37.5781C33.6457 38.9334 34.7863 40 36.1719 40C37.5575 40 38.6981 38.9334 38.8172 37.5781C39.436 37.6216 40.003 37.1681 40 36.5234V35.0391C39.9992 34.3988 39.4496 33.938 38.8282 33.9844V6.01562C39.444 6.05719 40.0028 5.59922 40 4.96094ZM36.1719 1.17188C36.9104 1.17188 37.523 1.71461 37.6359 2.42188H34.7078C34.8209 1.71469 35.4334 1.17188 36.1719 1.17188ZM3.82815 1.17188C4.56667 1.17188 5.17924 1.71461 5.29213 2.42188H2.36417C2.47713 1.71469 3.08963 1.17188 3.82815 1.17188ZM3.82815 38.8281C3.08963 38.8281 2.47706 38.2854 2.36409 37.5781H5.29221C5.17924 38.2854 4.56674 38.8281 3.82815 38.8281ZM6.4844 36.4062H1.1719V35.1562H6.4844V36.4062ZM1.1719 4.84375V3.59375H6.4844V4.84375H1.1719ZM30.143 32.1606L29.4741 31.4917C29.0628 31.0806 28.3938 31.0805 27.9826 31.4917L27.3138 32.1606H6.4844V7.83945H11.9379L12.6067 8.50828C13.018 8.91953 13.6871 8.91953 14.0983 8.50828L14.7671 7.83945H33.5157V32.1606H30.143ZM36.1719 38.8281C35.4334 38.8281 34.8208 38.2854 34.7079 37.5781H37.636C37.523 38.2854 36.9105 38.8281 36.1719 38.8281ZM38.8282 36.4062H33.5157V35.1562H38.8282V36.4062ZM34.6875 33.9844V6.01562H37.6563V33.9844H34.6875ZM33.5157 4.84375V3.59375H38.8282V4.84375H33.5157ZM31.0157 24.8438H8.9844C8.66081 24.8438 8.39846 25.106 8.39846 25.4297C8.39846 25.7534 8.66081 26.0156 8.9844 26.0156H31.0157C31.3392 26.0156 31.6016 25.7534 31.6016 25.4297C31.6016 25.106 31.3392 24.8438 31.0157 24.8438ZM23.9844 28.3594H8.9844C8.66081 28.3594 8.39846 28.6216 8.39846 28.9453C8.39846 29.269 8.66081 29.5312 8.9844 29.5312H23.9844C24.308 29.5312 24.5703 29.269 24.5703 28.9453C24.5703 28.6216 24.308 28.3594 23.9844 28.3594ZM31.0157 21.3281H8.9844C8.66081 21.3281 8.39846 21.5904 8.39846 21.9141C8.39846 22.2377 8.66081 22.5 8.9844 22.5H31.0157C31.3392 22.5 31.6016 22.2377 31.6016 21.9141C31.6016 21.5904 31.3392 21.3281 31.0157 21.3281Z"/>
</g>
<defs>
<clipPath id="clip0_1308_65991">
<rect width="40" height="40" fill="white"/>
</clipPath>
</defs>
</svg>
