<svg width="80" height="81" viewBox="0 0 80 81" xmlns="http://www.w3.org/2000/svg">
<g clip-path="url(#clip0_1308_66067)">
<path d="M59.4945 0.144531H20.5061C17.371 0.144531 14.8203 2.69506 14.8203 5.83018V74.4587C14.8203 77.5938 17.371 80.1445 20.5061 80.1445H59.4945C62.6296 80.1445 65.1801 77.594 65.1801 74.4587V5.83018C65.1801 2.69506 62.6296 0.144531 59.4945 0.144531ZM62.3023 74.4587C62.3023 76.007 61.0428 77.2667 59.4945 77.2667H20.5061C18.9579 77.2667 17.6981 76.0072 17.6981 74.4587V5.83018C17.6981 4.2819 18.9577 3.02237 20.5061 3.02237H59.4945C61.0426 3.02237 62.3023 4.2819 62.3023 5.83018V74.4587Z"/>
<path d="M55.2522 33.9531H24.7485C23.9536 33.9531 23.3096 34.5974 23.3096 35.392V43.7374C23.3096 44.5321 23.9536 45.1763 24.7485 45.1763H55.252C56.0469 45.1763 56.691 44.5321 56.691 43.7374V35.392C56.6911 34.5974 56.0469 33.9531 55.2522 33.9531ZM39.9786 36.831H48.2242L46.7158 42.2985H38.4702L39.9786 36.831ZM35.4851 42.2985H32.6637L34.1721 36.831H36.9933L35.4851 42.2985ZM26.1874 36.831H31.1868L29.6784 42.2985H26.1872V36.831H26.1874ZM53.8133 42.2985H49.7011L51.2094 36.831H53.8135V42.2985H53.8133Z"/>
<path d="M40.0004 30.4942C46.6647 30.4942 52.0867 25.0721 52.0867 18.4076C52.0867 11.7431 46.6647 6.32129 40.0004 6.32129C33.3361 6.32129 27.9141 11.7431 27.9141 18.4076C27.9141 25.0721 33.3361 30.4942 40.0004 30.4942ZM40.0004 9.19913C45.078 9.19913 49.2089 13.33 49.2089 18.4076C49.2089 23.4853 45.078 27.6163 40.0004 27.6163C34.9227 27.6163 30.7919 23.4853 30.7919 18.4076C30.7919 13.33 34.9229 9.19913 40.0004 9.19913Z"/>
<path d="M40.0007 25.4594C43.8883 25.4594 47.051 22.2967 47.051 18.4089C47.051 14.5211 43.8883 11.3584 40.0007 11.3584C36.1129 11.3584 32.9502 14.5211 32.9502 18.4089C32.9502 22.2967 36.1131 25.4594 40.0007 25.4594ZM40.0007 14.2364C42.3014 14.2364 44.1732 16.1082 44.1732 18.4091C44.1732 20.71 42.3014 22.5818 40.0007 22.5818C37.7 22.5818 35.828 20.71 35.828 18.4091C35.828 16.1082 37.7 14.2364 40.0007 14.2364Z"/>
<path d="M39.8636 50.0268C39.3026 49.6485 38.526 49.7285 38.0484 50.2053C37.6559 50.597 37.5243 51.1983 37.7156 51.718C37.9255 52.2888 38.4905 52.6775 39.1008 52.6619C39.7078 52.6464 40.2488 52.2383 40.4347 51.662C40.627 51.0655 40.3958 50.3689 39.8636 50.0268C39.7867 49.975 39.9442 50.0786 39.8636 50.0268Z"/>
<path d="M40.3943 55.8541C40.1647 55.3112 39.6221 54.9518 39.0298 54.9662C38.4251 54.9808 37.8929 55.3828 37.7001 55.9529C37.5098 56.516 37.7055 57.1687 38.1746 57.5342C38.6644 57.9158 39.3453 57.9398 39.8631 57.6C40.434 57.2253 40.6449 56.4817 40.3943 55.8541C40.3579 55.7676 40.4289 55.9405 40.3943 55.8541Z"/>
<path d="M40.3948 61.0338C40.1796 60.5137 39.6644 60.1595 39.101 60.1459C38.4845 60.1311 37.9214 60.5216 37.7119 61.0992C37.5034 61.6744 37.6979 62.3427 38.181 62.7174C38.685 63.1082 39.3933 63.1185 39.911 62.7475C40.4487 62.3622 40.6377 61.642 40.3948 61.0338C40.3584 60.9456 40.4294 61.1202 40.3948 61.0338Z"/>
<path d="M39.862 65.567C39.319 65.201 38.5671 65.262 38.0871 65.7061C37.6811 66.0818 37.525 66.6763 37.6946 67.2024C37.8882 67.8031 38.4672 68.2158 39.0992 68.2004C39.7064 68.1857 40.247 67.7795 40.4331 67.2024C40.6254 66.6057 40.3942 65.9091 39.862 65.567C39.785 65.5152 39.9425 65.6188 39.862 65.567Z"/>
<path d="M34.4941 50.6739C33.9935 49.4904 32.2515 49.5213 31.8114 50.7394C31.3661 51.972 32.744 53.1161 33.8756 52.4749C34.4949 52.1238 34.7729 51.333 34.4941 50.6739Z"/>
<path d="M34.4948 55.8529C34.4223 55.6778 34.3158 55.5207 34.184 55.3848C33.6226 54.8382 32.7083 54.8271 32.1484 55.3848C31.6381 55.8934 31.5934 56.7274 32.036 57.2932C32.4483 57.8202 33.1988 57.9881 33.7978 57.6955C34.4672 57.3686 34.7868 56.543 34.4948 55.8529C34.4584 55.7647 34.5315 55.9393 34.4948 55.8529Z"/>
<path d="M34.4946 61.0336C34.4221 60.8585 34.3156 60.7013 34.1838 60.5655C33.6222 60.0189 32.7082 60.0078 32.1482 60.5655C31.6517 61.0599 31.5937 61.8617 32.0018 62.4288C32.4179 63.007 33.2264 63.1859 33.8503 62.8491C34.4863 62.5055 34.7778 61.703 34.4946 61.0336C34.4581 60.9454 34.5312 61.12 34.4946 61.0336Z"/>
<path d="M34.4946 66.2115C34.0069 65.0596 32.3212 65.0494 31.8374 66.2115C31.602 66.7771 31.7608 67.453 32.2263 67.852C32.685 68.2453 33.3505 68.3112 33.8758 68.0134C34.4994 67.6604 34.7684 66.8736 34.4946 66.2115C34.4581 66.1253 34.5312 66.2999 34.4946 66.2115Z"/>
<path d="M28.5952 50.6734C28.2 49.7391 26.9737 49.5016 26.2488 50.2053C25.483 50.9942 25.8456 52.3456 26.9171 52.619C28.0331 52.9039 29.0474 51.7422 28.5952 50.6734Z"/>
<path d="M28.5954 55.8539C28.1994 54.9179 26.9746 54.6813 26.249 55.3858C25.4821 56.1759 25.8468 57.524 26.9172 57.7988C28.033 58.0852 29.0474 56.9226 28.5954 55.8539Z"/>
<path d="M28.5952 61.0331C28.206 60.0926 26.9704 59.8645 26.2489 60.565C25.4609 61.3767 25.872 62.764 26.9858 62.9939C28.0847 63.2205 29.0346 62.0714 28.5952 61.0331C28.5588 60.9449 28.6319 61.1194 28.5952 61.0331Z"/>
<path d="M28.5952 66.214C28.1082 65.0378 26.3844 65.0616 25.9253 66.2468C25.7083 66.8067 25.8704 67.4615 26.3271 67.8527C26.7854 68.2456 27.4515 68.3118 27.9766 68.014C28.5959 67.6631 28.8741 66.8734 28.5952 66.214C28.5587 66.1258 28.6318 66.3004 28.5952 66.214Z"/>
<path d="M51.7984 58.418C49.1007 58.418 46.9062 60.6126 46.9062 63.3101C46.9062 66.0076 49.1007 68.2022 51.7984 68.2022C54.496 68.2022 56.6905 66.0076 56.6905 63.3101C56.6905 60.6126 54.4959 58.418 51.7984 58.418ZM51.7984 65.3244C50.6877 65.3244 49.7841 64.4207 49.7841 63.3101C49.7841 62.1994 50.6877 61.2958 51.7984 61.2958C52.909 61.2958 53.8127 62.1994 53.8127 63.3101C53.8127 64.4207 52.909 65.3244 51.7984 65.3244Z"/>
</g>
<defs>
<clipPath id="clip0_1308_66067">
<rect width="80" height="80" fill="white" transform="translate(0 0.144531)"/>
</clipPath>
</defs>
</svg>
