<svg width="40" height="40" viewBox="0 0 40 40" xmlns="http://www.w3.org/2000/svg">
<path d="M39.1912 7.0575L32.9425 0.80875C32.8294 0.695 32.6731 0.625 32.5 0.625H16.25C15.9044 0.625 15.625 0.905 15.625 1.25V22.4944L10.31 19.4575C10.1181 19.3475 9.88125 19.3475 9.69 19.4575L0.94 24.4575C0.745 24.5688 0.625 24.7756 0.625 25V33.75C0.625 33.9744 0.745 34.1813 0.94 34.2925L9.69 39.2925C9.78562 39.3475 9.89312 39.375 10 39.375C10.1069 39.375 10.2144 39.3475 10.31 39.2925L19.06 34.2925C19.255 34.1813 19.375 33.9744 19.375 33.75V31.875H31.875V36.875C31.875 38.2537 32.9963 39.375 34.375 39.375C35.7537 39.375 36.875 38.2537 36.875 36.875V31.875H38.75C39.0956 31.875 39.375 31.595 39.375 31.25V7.5C39.375 7.32688 39.305 7.17062 39.1912 7.0575ZM33.125 2.75875L37.2412 6.875H33.125V2.75875ZM10 20.72L17.49 25L15.5469 26.1106L8.05687 21.8306L10 20.72ZM13.435 27.5825L5.7125 23.17L6.79688 22.5506L15 27.2375V29.6138L13.75 30.2388V28.125C13.75 27.9006 13.63 27.6938 13.435 27.5825ZM4.45312 23.8894L11.9438 28.1694L10 29.28L2.51 25L4.45312 23.8894ZM1.875 26.0769L9.375 30.3625V37.6731L1.875 33.3875V26.0769ZM10.625 37.6731V30.3625L12.5 29.2913V31.25C12.5 31.4669 12.6125 31.6675 12.7969 31.7819C12.8969 31.8438 13.0106 31.875 13.125 31.875C13.2206 31.875 13.3162 31.8531 13.4044 31.8094L15.9044 30.5594C16.1163 30.4531 16.25 30.2369 16.25 30V27.1488L18.125 26.0775V33.3875L10.625 37.6731ZM33.75 21.5844V34.375H33.125V21.1675L33.75 21.5844ZM35 21.5844L35.625 21.1675V34.375H35V21.5844ZM34.375 20.4988L33.2594 19.755L34.375 16.78L35.4906 19.755L34.375 20.4988ZM34.375 38.125C33.6856 38.125 33.125 37.5644 33.125 36.875V35.625H35.625V36.875C35.625 37.5644 35.0644 38.125 34.375 38.125ZM38.125 30.625H36.875V20C36.875 19.925 36.8619 19.8506 36.8356 19.7806L34.9606 14.7806C34.8688 14.5369 34.6356 14.375 34.375 14.375C34.1144 14.375 33.8812 14.5369 33.7894 14.7806L31.9144 19.7806C31.8881 19.8506 31.875 19.925 31.875 20V30.625H19.375V25C19.375 24.7756 19.255 24.5688 19.06 24.4575L16.875 23.2087V1.875H31.875V7.5C31.875 7.845 32.1544 8.125 32.5 8.125H38.125V30.625Z"/>
<path d="M18.125 9.375H19.375V10.625H18.125V9.375Z"/>
<path d="M20.625 9.375H36.875V10.625H20.625V9.375Z"/>
<path d="M35.625 11.875H36.875V13.125H35.625V11.875Z"/>
<path d="M18.125 11.875H34.375V13.125H18.125V11.875Z"/>
<path d="M18.125 14.375H30.625V15.625H18.125V14.375Z"/>
<path d="M18.125 16.875H30.625V18.125H18.125V16.875Z"/>
</svg>
