<svg width="30" height="40" viewBox="0 0 30 40" xmlns="http://www.w3.org/2000/svg"><path d="M29.7559 8.5775L21.4225 0.244141C21.2663 0.0878906 21.0547 0 20.8333 0H3.33328C1.49492 0 0 1.49492 0 3.33336V36.6667C0 38.5051 1.49492 40 3.33336 40H26.6667C28.5051 40 30 38.5051 30 36.6666V9.16664C30 8.94531 29.9121 8.73375 29.7559 8.5775ZM21.6666 2.84508L27.1549 8.33336H23.3333C22.4145 8.33336 21.6666 7.58547 21.6666 6.66672V2.84508ZM28.3334 36.6666C28.3334 37.5854 27.5855 38.3333 26.6667 38.3333H3.33336C2.41461 38.3333 1.66672 37.5854 1.66672 36.6666V3.33336C1.66672 2.41461 2.41461 1.66672 3.33336 1.66672H20V6.66672C20 8.50508 21.4949 10 23.3334 10H28.3334V36.6666Z"/><path d="M19.2488 24.4624C18.4773 23.8553 17.7441 23.2312 17.2559 22.7429C16.6211 22.1081 16.0555 21.4929 15.564 20.9069C16.3306 18.538 16.6667 17.3165 16.6667 16.6654C16.6667 13.8993 15.6673 13.332 14.1667 13.332C13.0266 13.332 11.6667 13.9245 11.6667 16.7452C11.6667 17.9887 12.3479 19.4983 13.698 21.2528C13.3676 22.2611 12.9794 23.4241 12.5432 24.7351C12.3332 25.3641 12.1054 25.9468 11.8645 26.4855C11.6684 26.5726 11.4779 26.6613 11.294 26.7533C10.6316 27.0845 10.0025 27.3823 9.41898 27.6591C6.75781 28.9188 5 29.7522 5 31.3976C5 32.5923 6.29805 33.332 7.5 33.332C9.04945 33.332 11.3891 31.2625 13.0981 27.7762C14.8722 27.0763 17.0777 26.5579 18.8184 26.2332C20.2132 27.3058 21.7537 28.332 22.5 28.332C24.5662 28.332 25 27.1373 25 26.1355C25 24.1653 22.749 24.1653 21.6666 24.1653C21.3305 24.1654 20.4289 24.2647 19.2488 24.4624ZM7.5 31.6654C7.02391 31.6654 6.70164 31.4408 6.66664 31.3976C6.66664 30.8068 8.42852 29.9719 10.1327 29.1646C10.2409 29.1133 10.3508 29.062 10.4623 29.0091C9.21063 30.824 7.97281 31.6654 7.5 31.6654ZM13.3334 16.7452C13.3334 14.9987 13.8754 14.9987 14.1667 14.9987C14.7559 14.9987 15.0001 14.9987 15.0001 16.6654C15.0001 17.017 14.7657 17.8959 14.3368 19.268C13.6824 18.2605 13.3334 17.397 13.3334 16.7452ZM13.9722 25.7019C14.0243 25.557 14.0748 25.4105 14.1236 25.2624C14.4328 24.3347 14.7112 23.5013 14.9594 22.751C15.3052 23.1319 15.678 23.5217 16.0776 23.9212C16.2338 24.0775 16.6212 24.4291 17.1372 24.8693C16.11 25.0931 15.0171 25.3706 13.9722 25.7019ZM23.3334 26.1356C23.3334 26.51 23.3334 26.6654 22.5602 26.6703C22.3332 26.6215 21.8083 26.3123 21.1605 25.8712C21.3956 25.8451 21.569 25.8321 21.6666 25.8321C22.898 25.8321 23.2471 25.9525 23.3334 26.1356Z"/></svg>
