<svg width="58" height="58" viewBox="0 0 58 58" fill="none" xmlns="http://www.w3.org/2000/svg">
<path d="M46.753 38.3091V32.2712L44.2049 33.2626L44.1975 33.2458L44.1367 33.1355C43.1603 31.6153 41.5812 30.5576 39.8031 30.2352L33.6718 29.1196V28.6356C35.9647 27.3041 37.6438 25.0327 38.167 22.3473C39.8657 21.996 41.1468 20.4888 41.1468 18.6874V9.45861C41.1468 6.85079 39.4387 4.57654 36.9608 3.83652L36.4936 3.36933C34.3203 1.19599 31.4312 0 28.358 0C22.0146 0 16.8532 5.16052 16.8532 11.5049V18.6874C16.8532 20.4888 18.1342 21.996 19.8329 22.3473C20.357 25.0327 22.0352 27.3051 24.3281 28.6356V29.1196L18.1977 30.2343C16.4215 30.5567 14.8433 31.6125 13.866 33.1318L13.8099 33.2682L11.247 32.2712V38.3091C9.70151 38.3091 8.44385 39.5668 8.44385 41.1122V44.8497C8.44385 46.3951 9.70151 47.6528 11.247 47.6528V51.095L29 58L46.753 51.095V47.6528C48.2984 47.6528 49.5561 46.3951 49.5561 44.8497V41.1122C49.5561 39.5668 48.2984 38.3091 46.753 38.3091ZM35.4228 31.3378L39.4686 32.0731C40.6599 32.2899 41.7148 32.9776 42.4184 33.9568L33.3784 37.4719L35.4228 31.3378ZM26.2763 29.4924C27.1387 29.7559 28.0525 29.8998 29 29.8998C29.9474 29.8998 30.8612 29.7559 31.7236 29.4924L29 31.5349L26.2763 29.4924ZM27.5779 32.8038L25.6708 34.7099L24.4337 30.9995L25.0289 30.8921L27.5779 32.8038ZM32.971 30.893L33.5662 31.0005L32.3291 34.7109L30.4221 32.8047L32.971 30.893ZM38.3436 20.2964V17.0784C38.8996 17.4026 39.278 17.9987 39.278 18.6874C39.278 19.376 38.8996 19.9721 38.3436 20.2964ZM19.6563 20.2964C19.1003 19.9721 18.7219 19.376 18.7219 18.6874C18.7219 17.9987 19.1003 17.4026 19.6563 17.0784V20.2964ZM19.6563 14.0155V15.0826C19.3236 15.1695 19.0116 15.3003 18.7219 15.4694V11.5049C18.7219 6.19206 23.0443 1.86874 28.358 1.86874C30.9313 1.86874 33.3523 2.87131 35.1724 4.69146L35.9965 5.51651L36.2479 5.57818C38.0325 6.02387 39.278 7.61978 39.278 9.45861V15.4694C38.9884 15.3003 38.6763 15.1685 38.3436 15.0826V14.0155H35.3808C32.8486 14.0155 30.4286 12.8065 28.9103 10.7817L28.1674 9.78938L26.3108 11.6469C24.7822 13.1746 22.7509 14.0155 20.5906 14.0155H19.6563ZM21.525 20.5561V15.8413C23.832 15.6273 25.9726 14.6266 27.632 12.9681L27.9955 12.6046C29.8689 14.6724 32.5674 15.8843 35.3808 15.8843H36.4749V20.5561C36.4749 24.6776 33.1215 28.0311 29 28.0311C24.8785 28.0311 21.525 24.6776 21.525 20.5561ZM18.5313 32.0731L22.5771 31.3378L24.6215 37.4719L15.5796 33.9559C16.2832 32.9757 17.34 32.2899 18.5313 32.0731ZM10.3126 44.8497V41.1122C10.3126 40.5964 10.7321 40.1778 11.247 40.1778C12.7924 40.1778 14.0501 41.4355 14.0501 42.981C14.0501 44.5264 12.7924 45.7841 11.247 45.7841C10.7321 45.7841 10.3126 45.3655 10.3126 44.8497ZM28.0656 55.6304L13.1157 49.8177V47.2566C14.763 46.5334 15.9188 44.8917 15.9188 42.981C15.9188 41.0702 14.763 39.4285 13.1157 38.7053V35.0033L28.0656 40.817V55.6304ZM25.2915 37.7335L29 34.0241L32.7085 37.7326L29 39.1753L25.2915 37.7335ZM44.8842 49.8168L29.9343 55.6295V40.817L44.8842 35.0033V38.7053C43.2369 39.4285 42.0811 41.0702 42.0811 42.981C42.0811 44.8917 43.2369 46.5334 44.8842 47.2566V49.8168ZM47.6873 44.8497C47.6873 45.3655 47.2678 45.7841 46.753 45.7841C45.2075 45.7841 43.9499 44.5264 43.9499 42.981C43.9499 41.4355 45.2075 40.1778 46.753 40.1778C47.2678 40.1778 47.6873 40.5964 47.6873 41.1122V44.8497Z" fill="#007BC3"/>
</svg>
