<svg width="58" height="58" viewBox="0 0 58 58" fill="none" xmlns="http://www.w3.org/2000/svg">
<g clip-path="url(#clip0_1308_65186)">
<path d="M57.0135 11.4L46.7955 8.09288C46.265 7.9062 45.6628 8.34403 45.6769 8.90647V21.8421H41.0341C39.9338 21.8421 39.0386 22.7372 39.0386 23.8375V27.2555C39.0386 27.6794 39.1725 28.0722 39.3989 28.3957C39.1725 28.7192 39.0386 29.112 39.0386 29.5359V32.9539C39.0386 33.3778 39.1725 33.7706 39.3989 34.0941C39.1725 34.4176 39.0386 34.8104 39.0386 35.2343V38.6522C39.0386 39.0761 39.1725 39.4688 39.3989 39.7924C39.1725 40.1159 39.0386 40.5087 39.0386 40.9325V44.3505C39.0386 44.7744 39.1725 45.1671 39.3989 45.4906C39.1725 45.8142 39.0386 46.2069 39.0386 46.6308V50.0489C39.0386 50.1459 39.0479 50.2405 39.0614 50.3339H22.4732C22.3161 50.3339 22.1882 50.2061 22.1882 50.0489V46.6308C22.1882 46.4736 22.3161 46.3458 22.4732 46.3458H33.4693C33.6265 46.3458 33.7543 46.4736 33.7543 46.6308V46.9773C33.7543 47.4497 34.1371 47.8325 34.6095 47.8325C35.0818 47.8325 35.4646 47.4497 35.4646 46.9773V46.6308C35.4646 46.2069 35.3307 45.8142 35.1044 45.4906C35.3307 45.1671 35.4646 44.7744 35.4646 44.3505V40.9325C35.4646 40.5087 35.3307 40.1159 35.1044 39.7924C35.3307 39.4688 35.4646 39.0761 35.4646 38.6522V35.2343C35.4646 34.134 34.5695 33.2388 33.4692 33.2388H31.4897C31.3231 32.6971 30.9815 32.2141 30.5131 31.8748L31.708 27.1796C32.0517 25.8284 31.48 24.4379 30.2853 23.7197C30.2805 23.7167 30.2757 23.714 30.2709 23.7112L27.1362 21.9088C27.1963 21.766 27.252 21.6214 27.2976 21.4728L27.9422 19.3741L29.3287 20.1333C30.6061 20.8324 32.1808 20.5666 33.1588 19.4869L37.7767 14.3862C38.2262 13.8998 38.3584 13.1553 38.1078 12.5455C38.0055 12.288 37.8439 12.0561 37.6287 11.8683C37.6287 11.8683 37.6287 11.8682 37.6286 11.8682L36.4256 10.8185C35.7842 10.2587 34.836 10.2502 34.1822 10.7548C34.0359 10.4428 33.7091 10.2373 33.3442 10.2647C32.8733 10.3002 32.5202 10.7107 32.5558 11.1817L32.648 12.4061L30.4114 14.8765L27.5619 13.3163C27.5349 13.3016 27.5072 13.2884 27.4801 13.2743C28.4304 12.799 28.9758 11.7185 28.7313 10.6401L28.3937 9.15116C28.2832 8.18634 27.7812 7.29697 27.0104 6.70372C26.2134 6.0903 25.2257 5.84187 24.2295 6.00341C22.464 6.29013 21.1654 7.85431 21.2086 9.64166C21.2331 10.653 21.6742 11.59 22.4138 12.2485C21.9484 12.1947 21.4779 12.2039 21.0128 12.2778L15.6113 13.1409C14.1761 13.3704 13.0955 14.5405 12.9804 15.9884L12.269 23.2405C12.2221 23.7184 12.3667 24.184 12.6759 24.5513C12.9852 24.9185 13.4193 25.1405 13.898 25.1756L15.6264 25.298C16.4936 25.298 17.2248 24.6753 17.364 23.8177C17.4485 23.8446 17.5363 23.8588 17.6242 23.8588C17.8146 23.8588 18.005 23.7954 18.1613 23.6689L15.6403 28.3945L9.49184 28.7291C8.35291 28.7911 7.40689 29.5775 7.13797 30.6859L6.68711 32.5443C6.35361 33.9191 7.20072 35.3088 8.57562 35.6424C8.77805 35.6914 8.98048 35.7149 9.18009 35.7149C10.3363 35.7148 11.3891 34.9263 11.6735 33.754L11.6748 33.7489L17.2468 33.4457C18.3062 33.3438 19.0529 33.0069 20.1191 31.4569C20.8298 30.4202 22.938 27.0607 23.129 26.756C23.3063 26.5 23.6596 26.3961 23.9478 26.5146L26.3406 27.4645L25.0723 32.448C25.0063 32.7078 24.9826 32.975 24.9991 33.2391H22.4726C21.3723 33.2391 20.4772 34.1342 20.4772 35.2345V38.6524C20.4772 39.0763 20.6111 39.4691 20.8374 39.7926C20.6111 40.1161 20.4772 40.5089 20.4772 40.9328V44.3507C20.4772 44.7746 20.6111 45.1673 20.8374 45.4909C20.6111 45.8144 20.4772 46.2072 20.4772 46.6311V50.0491C20.4772 50.1462 20.4865 50.2408 20.4999 50.3341H16.7664C16.7799 50.2408 16.7892 50.1461 16.7892 50.0491V46.6311C16.7892 46.2072 16.6553 45.8144 16.429 45.4909C16.6553 45.1673 16.7892 44.7746 16.7892 44.3507V40.9328C16.7892 39.8325 15.894 38.9373 14.7937 38.9373H3.79843C2.69813 38.9373 1.80298 39.8325 1.80298 40.9328V44.3507C1.80298 44.7746 1.93688 45.1673 2.16322 45.4909C1.93688 45.8144 1.80298 46.2072 1.80298 46.6311V50.0491C1.80298 50.1462 1.81227 50.2408 1.82575 50.3341H0.85516C0.382891 50.3343 0 50.7172 0 51.1895C0 51.6618 0.382891 52.0446 0.85516 52.0446H54.9734C55.4457 52.0446 55.8285 51.6619 55.8285 51.1895C55.8285 50.7171 55.4457 50.3343 54.9734 50.3343H54.0028C54.0162 50.241 54.0255 50.1463 54.0255 50.0493V46.6313C54.0255 46.2074 53.8916 45.8146 53.6653 45.4911C53.8916 45.1676 54.0255 44.7748 54.0255 44.3509V40.933C54.0255 40.5091 53.8916 40.1164 53.6653 39.7928C53.8916 39.4693 54.0255 39.0765 54.0255 38.6527V35.2347C54.0255 34.8108 53.8916 34.4181 53.6653 34.0946C53.8916 33.771 54.0255 33.3783 54.0255 32.9544V29.5363C54.0255 29.1124 53.8916 28.7197 53.6653 28.3962C53.8916 28.0726 54.0255 27.6799 54.0255 27.256V23.838C54.0255 22.7377 53.1304 21.8425 52.0301 21.8425H47.3872V17.228L57.0135 14.1124C57.6035 13.9214 58 13.3765 58 12.7564C58 12.1363 57.6035 11.591 57.0135 11.4ZM22.4732 44.6358C22.3161 44.6358 22.1882 44.508 22.1882 44.3508V40.9329C22.1882 40.7757 22.3161 40.6479 22.4732 40.6479H33.4693C33.6265 40.6479 33.7543 40.7757 33.7543 40.9329V44.3508C33.7543 44.508 33.6265 44.6358 33.4693 44.6358H22.4732ZM35.2605 12.0935C35.2752 12.0927 35.2899 12.0975 35.3013 12.1075L36.5044 13.1572C36.5291 13.1704 36.5264 13.2294 36.5091 13.2385L35.3136 14.5589L34.0246 13.4342L35.2215 12.1121C35.2319 12.1005 35.246 12.0943 35.2605 12.0935ZM24.5039 7.69164C25.0292 7.60634 25.5489 7.73684 25.9676 8.05913C26.3868 8.38175 26.585 8.85878 26.6979 9.37545C26.8093 9.88488 27.0636 11.0184 27.0636 11.0184C27.179 11.5105 26.7194 11.8832 26.2517 11.818C25.8324 11.8067 25.4585 12.099 25.3804 12.5148L25.1457 13.7644L23.9289 13.5358L24.207 12.0544C24.2722 11.7073 24.1172 11.3559 23.8172 11.1698C23.2702 10.8307 22.9344 10.244 22.9187 9.60032C22.896 8.66258 23.5775 7.84208 24.5039 7.69164ZM14.6852 16.1285C14.7357 15.4684 15.2276 14.9343 15.8815 14.8298L21.2821 13.9669C21.6027 13.9159 21.9271 13.9121 22.2474 13.9521C22.2926 14.1516 22.3745 14.3432 22.4935 14.5171C22.7411 14.8792 23.1148 15.123 23.5457 15.204C23.7751 15.2381 24.9925 15.5008 25.2008 15.4862C25.763 15.4862 26.2803 15.1945 26.5786 14.7334L30.182 16.7007C30.5287 16.8908 30.9609 16.818 31.2265 16.5245L32.8764 14.7023L34.1654 15.827L31.8912 18.3391C31.4464 18.8299 30.7307 18.9509 30.15 18.6333L27.9656 17.4371C27.7087 17.2968 27.4061 17.2794 27.1353 17.3899C26.8643 17.5001 26.6598 17.7238 26.5742 18.003L25.6627 20.9707C25.614 21.1294 25.5504 21.2822 25.4758 21.4294L20.3077 21.949L20.2508 21.4252C20.0961 20.0011 20.2036 18.5767 20.5706 17.1919C20.655 16.8734 20.5736 16.5373 20.3528 16.2932C20.1322 16.0492 19.8065 15.9346 19.4817 15.9865L17.1269 16.3629C16.6929 16.4319 16.3591 16.7855 16.315 17.2227L16.03 20.0507L14.3113 19.9421L14.6835 16.1468C14.6843 16.1408 14.6848 16.1347 14.6852 16.1285ZM15.618 23.5875L14.024 23.47C13.9897 23.475 13.9598 23.4145 13.9736 23.3868L14.148 21.6459L15.8585 21.7538L15.6788 23.5363C15.6757 23.5672 15.6481 23.589 15.618 23.5875ZM18.2292 22.3989L17.5801 21.75L17.9595 17.9618L18.6757 17.8475C18.4557 19.0878 18.4134 20.3491 18.5505 21.6102L18.6706 22.715L18.4761 23.0795C18.4977 22.8361 18.4156 22.5852 18.2292 22.3989ZM26.7304 32.8699L28.1345 27.3523C28.2685 26.8263 27.9892 26.2785 27.4845 26.0782L24.5795 24.925C24.2085 24.7777 23.8028 24.7249 23.4064 24.7725C22.7189 24.8551 22.1005 25.2304 21.7098 25.8019C21.7033 25.8113 19.4181 29.4553 18.709 30.4898C17.9189 31.6424 17.6007 31.6904 17.1336 31.7389L11.117 32.0663C10.6361 32.0924 10.2367 32.4244 10.123 32.8925L10.0119 33.3506C9.90078 33.8089 9.43735 34.0913 8.97924 33.9801C8.52102 33.869 8.23861 33.4058 8.34973 32.9476L8.80048 31.0892C8.89009 30.7197 9.20546 30.4575 9.58507 30.4369L16.0865 30.083C16.4625 30.0625 16.8062 29.8435 16.9832 29.5113L20.0887 23.6899L25.8031 23.1153L29.4103 25.1896C29.9488 25.517 30.206 26.1465 30.0503 26.7582L28.7431 31.8952C28.624 32.3621 28.8216 32.8427 29.2346 33.091L29.4446 33.2173C29.4557 33.224 29.4656 33.2321 29.4763 33.2393H26.7198C26.6971 33.1175 26.6995 32.9914 26.7304 32.8699ZM22.1882 35.2345C22.1882 35.0773 22.3161 34.9495 22.4732 34.9495H33.4693C33.6265 34.9495 33.7543 35.0773 33.7543 35.2345V38.6524C33.7543 38.8097 33.6265 38.9374 33.4693 38.9374H22.4732C22.3161 38.9374 22.1882 38.8097 22.1882 38.6524V35.2345ZM52.3152 35.2345V38.6524C52.3152 38.8097 52.1874 38.9374 52.0302 38.9374H41.0341C40.8769 38.9374 40.7491 38.8097 40.7491 38.6524V35.2345C40.7491 35.0773 40.8769 34.9495 41.0341 34.9495H52.0302C52.1874 34.9495 52.3152 35.0773 52.3152 35.2345ZM52.3152 40.9329V44.3508C52.3152 44.508 52.1874 44.6358 52.0302 44.6358H41.0341C40.8769 44.6358 40.7491 44.508 40.7491 44.3508V40.9329C40.7491 40.7757 40.8769 40.6479 41.0341 40.6479H52.0302C52.1874 40.6479 52.3152 40.7757 52.3152 40.9329ZM3.79843 50.3343C3.64131 50.3343 3.51342 50.2065 3.51342 50.0493V46.6313C3.51342 46.474 3.64131 46.3463 3.79843 46.3463H8.03866C8.51093 46.3463 8.89382 45.9635 8.89382 45.4911C8.89382 45.0187 8.51093 44.6359 8.03866 44.6359H3.79843C3.64131 44.6359 3.51342 44.5082 3.51342 44.3509V40.933C3.51342 40.7758 3.64131 40.648 3.79843 40.648H14.7945C14.9517 40.648 15.0795 40.7758 15.0795 40.933V44.3509C15.0795 44.5082 14.9517 44.6359 14.7945 44.6359H12.1648C11.6926 44.6359 11.3097 45.0187 11.3097 45.4911C11.3097 45.9635 11.6926 46.3463 12.1648 46.3463H14.7945C14.9517 46.3463 15.0795 46.474 15.0795 46.6313V50.0493C15.0795 50.2065 14.9517 50.3343 14.7945 50.3343H3.79843ZM41.0341 50.3343C40.8769 50.3343 40.7491 50.2065 40.7491 50.0493V46.6313C40.7491 46.474 40.8769 46.3463 41.0341 46.3463H52.0302C52.1874 46.3463 52.3152 46.474 52.3152 46.6313V50.0493C52.3152 50.2065 52.1874 50.3343 52.0302 50.3343H41.0341ZM52.3152 23.8376V27.2557C52.3152 27.4129 52.1874 27.5407 52.0302 27.5407H46.8778C46.4054 27.5407 46.0227 27.9234 46.0227 28.3958C46.0227 28.8682 46.4054 29.251 46.8778 29.251H52.0302C52.1874 29.251 52.3152 29.3788 52.3152 29.536V32.954C52.3152 33.1113 52.1874 33.2391 52.0302 33.2391H41.0341C40.8769 33.2391 40.7491 33.1113 40.7491 32.954V29.536C40.7491 29.3788 40.8769 29.251 41.0341 29.251H42.7872C43.2596 29.251 43.6424 28.8682 43.6424 28.3958C43.6424 27.9234 43.2596 27.5407 42.7872 27.5407H41.0341C40.8769 27.5407 40.7491 27.4129 40.7491 27.2557V23.8376C40.7491 23.6804 40.8769 23.5526 41.0341 23.5526H52.0302C52.1874 23.5525 52.3152 23.6804 52.3152 23.8376ZM47.3872 15.4299V10.0822L55.6488 12.7561L47.3872 15.4299Z" fill="#007BC3"/>
</g>
<defs>
<clipPath id="clip0_1308_65186">
<rect width="58" height="58" fill="white"/>
</clipPath>
</defs>
</svg>
