<svg width="18" height="18" viewBox="0 0 18 18" fill="none" xmlns="http://www.w3.org/2000/svg">
<path d="M14.25 9.75H3.75C2.92157 9.75 2.25 10.4216 2.25 11.25V14.25C2.25 15.0784 2.92157 15.75 3.75 15.75H14.25C15.0784 15.75 15.75 15.0784 15.75 14.25V11.25C15.75 10.4216 15.0784 9.75 14.25 9.75Z" stroke="#DBDBDB" stroke-width="1.5" stroke-linecap="round" stroke-linejoin="round"/>
<path d="M12.75 12.7483V12.7558M9.75 12.7483V12.7558M11.25 9.74833V8.24833M9.88008 5.64075C10.304 5.42319 10.7736 5.30971 11.25 5.30971C11.7264 5.30971 12.196 5.42319 12.6199 5.64075M6.375 4.87333C6.9305 4.0991 7.66242 3.46831 8.51016 3.03318C9.35791 2.59805 10.2971 2.37109 11.25 2.37109C12.2029 2.37109 13.1421 2.59805 13.9898 3.03318C14.8376 3.46831 15.5695 4.0991 16.125 4.87333" stroke="#DBDBDB" stroke-width="1.5" stroke-linecap="round" stroke-linejoin="round"/>
</svg>
