<svg xmlns="http://www.w3.org/2000/svg" width="334" height="1148" fill="none">
  <g stroke="#fff" stroke-miterlimit="10" stroke-opacity=".4" stroke-width="1.3" clip-path="url(#a)">
    <path d="M172 22S-56 111 47 375c70 177 187 195 255 354 91 212-135 400-135 400"/>
    <path d="M156 21S-51 129 68 374c82 169 182 212 229 368 62 207-148 380-148 380"/>
    <path d="M140 20S-45 146 90 373c95 160 175 229 201 383 33 201-161 359-161 359"/>
    <path d="M124 19s-163 144-13 354c108 151 170 244 174 397 6 195-174 338-174 338"/>
    <path d="M107 18s-140 161 25 354c122 142 165 261 147 412a529 529 0 0 1-187 316"/>
    <path d="M91 17s-118 179 62 354a409 409 0 0 1 121 427c-49 182-201 295-201 295"/>
  </g>
  <defs>
    <clipPath id="a">
      <path fill="#fff" d="M0 0h334v1148H0z"/>
    </clipPath>
  </defs>
</svg>
