<svg width="20" height="20" viewBox="0 0 20 20" xmlns="http://www.w3.org/2000/svg"><path d="M6.81602 3.33406L2.49935 3.33406C2.27833 3.33406 2.06637 3.42185 1.91009 3.57813C1.75381 3.73441 1.66601 3.94638 1.66602 4.16739C1.66602 4.3884 1.75381 4.60037 1.91009 4.75665C2.06637 4.91293 2.27833 5.00072 2.49935 5.00072L6.81602 5.00072C6.99119 5.48335 7.31071 5.90034 7.73115 6.19502C8.1516 6.4897 8.65258 6.64779 9.16602 6.64779C9.67945 6.64779 10.1804 6.4897 10.6009 6.19502C11.0213 5.90034 11.3408 5.48335 11.516 5.00072L17.4993 5.00072C17.7204 5.00072 17.9323 4.91293 18.0886 4.75665C18.2449 4.60036 18.3327 4.3884 18.3327 4.16739C18.3327 3.94638 18.2449 3.73441 18.0886 3.57813C17.9323 3.42185 17.7204 3.33406 17.4993 3.33406L11.516 3.33406C11.3408 2.85143 11.0213 2.43444 10.6009 2.13976C10.1804 1.84508 9.67945 1.68699 9.16602 1.68699C8.65258 1.68699 8.1516 1.84508 7.73115 2.13976C7.31071 2.43444 6.99119 2.85143 6.81602 3.33406ZM9.99935 4.16739C9.99935 4.33221 9.95047 4.49332 9.85891 4.63037C9.76734 4.76741 9.63719 4.87422 9.48492 4.93729C9.33265 5.00036 9.16509 5.01686 9.00344 4.98471C8.84179 4.95256 8.6933 4.87319 8.57676 4.75665C8.46022 4.6401 8.38085 4.49162 8.34869 4.32997C8.31654 4.16831 8.33304 4.00076 8.39612 3.84849C8.45919 3.69622 8.566 3.56607 8.70304 3.4745C8.84008 3.38293 9.0012 3.33406 9.16602 3.33406C9.38703 3.33406 9.59899 3.42185 9.75527 3.57813C9.91155 3.73441 9.99935 3.94638 9.99935 4.16739ZM11.816 9.16739L2.49935 9.16739C2.27833 9.16739 2.06637 9.25519 1.91009 9.41147C1.75381 9.56775 1.66602 9.77971 1.66602 10.0007C1.66602 10.2217 1.75381 10.4337 1.91009 10.59C2.06637 10.7463 2.27833 10.8341 2.49935 10.8341L11.816 10.8341C11.9912 11.3167 12.3107 11.7337 12.7312 12.0284C13.1516 12.323 13.6526 12.4811 14.166 12.4811C14.6794 12.4811 15.1804 12.323 15.6009 12.0284C16.0213 11.7337 16.3408 11.3167 16.516 10.8341L17.4993 10.8341C17.7204 10.8341 17.9323 10.7463 18.0886 10.59C18.2449 10.4337 18.3327 10.2217 18.3327 10.0007C18.3327 9.77971 18.2449 9.56775 18.0886 9.41147C17.9323 9.25519 17.7204 9.16739 17.4993 9.16739L16.516 9.16739C16.3408 8.68476 16.0213 8.26777 15.6009 7.97309C15.1804 7.67841 14.6794 7.52033 14.166 7.52033C13.6526 7.52033 13.1516 7.67841 12.7312 7.97309C12.3107 8.26777 11.9912 8.68476 11.816 9.16739ZM14.9993 10.0007C14.9993 10.1655 14.9505 10.3267 14.8589 10.4637C14.7673 10.6007 14.6372 10.7075 14.4849 10.7706C14.3326 10.8337 14.1651 10.8502 14.0034 10.818C13.8418 10.7859 13.6933 10.7065 13.5768 10.59C13.4602 10.4734 13.3808 10.3249 13.3487 10.1633C13.3165 10.0016 13.333 9.83409 13.3961 9.68182C13.4592 9.52955 13.566 9.3994 13.703 9.30783C13.8401 9.21626 14.0012 9.16739 14.166 9.16739C14.387 9.16739 14.599 9.25519 14.7553 9.41147C14.9116 9.56775 14.9993 9.77971 14.9993 10.0007ZM5.14935 15.0007L2.49935 15.0007C2.27834 15.0007 2.06637 15.0885 1.91009 15.2448C1.75381 15.4011 1.66602 15.613 1.66602 15.8341C1.66602 16.0551 1.75381 16.267 1.91009 16.4233C2.06637 16.5796 2.27834 16.6674 2.49935 16.6674L5.14935 16.6674C5.32452 17.15 5.64404 17.567 6.06449 17.8617C6.48493 18.1564 6.98592 18.3145 7.49935 18.3145C8.01278 18.3145 8.51376 18.1564 8.93421 17.8617C9.35466 17.567 9.67418 17.15 9.84935 16.6674L17.4993 16.6674C17.7204 16.6674 17.9323 16.5796 18.0886 16.4233C18.2449 16.267 18.3327 16.0551 18.3327 15.8341C18.3327 15.613 18.2449 15.4011 18.0886 15.2448C17.9323 15.0885 17.7204 15.0007 17.4993 15.0007L9.84935 15.0007C9.67418 14.5181 9.35466 14.1011 8.93421 13.8064C8.51376 13.5117 8.01278 13.3537 7.49935 13.3537C6.98592 13.3537 6.48493 13.5117 6.06449 13.8064C5.64404 14.1011 5.32452 14.5181 5.14935 15.0007ZM8.33268 15.8341C8.33268 15.9989 8.28381 16.16 8.19224 16.297C8.10067 16.4341 7.97052 16.5409 7.81825 16.604C7.66598 16.667 7.49842 16.6835 7.33677 16.6514C7.17512 16.6192 7.02664 16.5399 6.91009 16.4233C6.79355 16.3068 6.71418 16.1583 6.68203 15.9966C6.64987 15.835 6.66638 15.6674 6.72945 15.5152C6.79252 15.3629 6.89933 15.2327 7.03637 15.1412C7.17341 15.0496 7.33453 15.0007 7.49935 15.0007C7.72036 15.0007 7.93232 15.0885 8.0886 15.2448C8.24488 15.4011 8.33268 15.613 8.33268 15.8341Z"/></svg>
