<svg width="58" height="58" viewBox="0 0 58 58" fill="none" xmlns="http://www.w3.org/2000/svg">
<path d="M56.1875 17.2188C56.4279 17.2188 56.6584 17.1233 56.8283 16.9533C56.9983 16.7834 57.0938 16.5529 57.0938 16.3125V13.5938C57.0938 13.3534 56.9983 13.1229 56.8283 12.9529C56.6584 12.783 56.4279 12.6875 56.1875 12.6875H40.7812V11.7812H46.2188C46.4591 11.7812 46.6896 11.6858 46.8596 11.5158C47.0295 11.3459 47.125 11.1154 47.125 10.875V2.71875C47.125 2.4784 47.0295 2.24789 46.8596 2.07793C46.6896 1.90798 46.4591 1.8125 46.2188 1.8125H11.7812C11.5409 1.8125 11.3104 1.90798 11.1404 2.07793C10.9705 2.24789 10.875 2.4784 10.875 2.71875V10.875C10.875 11.1154 10.9705 11.3459 11.1404 11.5158C11.3104 11.6858 11.5409 11.7812 11.7812 11.7812H17.2188V12.6875H1.8125C1.57215 12.6875 1.34164 12.783 1.17168 12.9529C1.00173 13.1229 0.90625 13.3534 0.90625 13.5938V16.3125C0.90625 16.5529 1.00173 16.7834 1.17168 16.9533C1.34164 17.1233 1.57215 17.2188 1.8125 17.2188H2.71875V51.6562H1.8125C1.57215 51.6562 1.34164 51.7517 1.17168 51.9217C1.00173 52.0916 0.90625 52.3221 0.90625 52.5625V55.2812C0.90625 55.5216 1.00173 55.7521 1.17168 55.9221C1.34164 56.092 1.57215 56.1875 1.8125 56.1875H56.1875C56.4279 56.1875 56.6584 56.092 56.8283 55.9221C56.9983 55.7521 57.0938 55.5216 57.0938 55.2812V52.5625C57.0938 52.3221 56.9983 52.0916 56.8283 51.9217C56.6584 51.7517 56.4279 51.6562 56.1875 51.6562H55.2812V17.2188H56.1875ZM12.6875 9.96875V3.625H45.3125V9.96875H12.6875ZM38.9688 11.7812V12.6875H29.9062V11.7812H38.9688ZM28.0938 11.7812V12.6875H19.0312V11.7812H28.0938ZM55.2812 54.375H2.71875V53.4688H55.2812V54.375ZM49.8438 19.9375H33.5312C33.2909 19.9375 33.0604 20.033 32.8904 20.2029C32.7205 20.3729 32.625 20.6034 32.625 20.8438V51.6562H4.53125V17.2188H53.4688V51.6562H50.75V20.8438C50.75 20.6034 50.6545 20.3729 50.4846 20.2029C50.3146 20.033 50.0841 19.9375 49.8438 19.9375ZM34.4375 24.4688V21.75H48.9375V24.4688H34.4375ZM48.9375 26.2812V51.6562H34.4375V26.2812H48.9375ZM2.71875 15.4062V14.5H55.2812V15.4062H2.71875Z" fill="#007BC3"/>
<path d="M46.2188 35.3438C45.9784 35.3438 45.7479 35.4392 45.5779 35.6092C45.408 35.7791 45.3125 36.0096 45.3125 36.25V41.6875C45.3125 41.9279 45.408 42.1584 45.5779 42.3283C45.7479 42.4983 45.9784 42.5938 46.2188 42.5938C46.4591 42.5938 46.6896 42.4983 46.8596 42.3283C47.0295 42.1584 47.125 41.9279 47.125 41.6875V36.25C47.125 36.0096 47.0295 35.7791 46.8596 35.6092C46.6896 35.4392 46.4591 35.3438 46.2188 35.3438Z" fill="#007BC3"/>
<path d="M8.15625 43.5H29C29.2404 43.5 29.4709 43.4045 29.6408 43.2346C29.8108 43.0646 29.9062 42.8341 29.9062 42.5938V20.8438C29.9062 20.6034 29.8108 20.3729 29.6408 20.2029C29.4709 20.033 29.2404 19.9375 29 19.9375H8.15625C7.9159 19.9375 7.68539 20.033 7.51543 20.2029C7.34548 20.3729 7.25 20.6034 7.25 20.8438V42.5938C7.25 42.8341 7.34548 43.0646 7.51543 43.2346C7.68539 43.4045 7.9159 43.5 8.15625 43.5ZM28.0938 41.6875H9.0625V26.2812H28.0938V41.6875ZM9.0625 21.75H28.0938V24.4688H9.0625V21.75Z" fill="#007BC3"/>
</svg>
