<svg width="80" height="81" viewBox="0 0 80 81" xmlns="http://www.w3.org/2000/svg">
<g clip-path="url(#clip0_1308_66096)">
<path d="M57.4522 0.144531H22.2806C18.8137 0.148865 16.0041 3.1312 16 6.8112V73.4779C16.0041 77.1579 18.8137 80.1402 22.2806 80.1445H57.4522C60.9191 80.1402 63.7287 77.1579 63.7328 73.4779V6.8112C63.7287 3.1312 60.9191 0.148865 57.4522 0.144531ZM61.2206 73.4779C61.2206 75.687 59.5334 77.4779 57.4522 77.4779H22.2806C20.1994 77.4779 18.5123 75.687 18.5123 73.4779V66.8112H61.2206V73.4779ZM61.2206 64.1445H18.5123V10.8112H61.2206V64.1445ZM61.2206 8.14453H18.5123V6.8112C18.5123 4.60203 20.1994 2.8112 22.2806 2.8112H57.4522C59.5334 2.8112 61.2206 4.60203 61.2206 6.8112V8.14453Z"/>
<path d="M40.7998 68.1445C38.5906 68.1445 36.7998 69.9354 36.7998 72.1445C36.7998 74.3537 38.5906 76.1445 40.7998 76.1445C43.009 76.1445 44.7998 74.3537 44.7998 72.1445C44.7998 69.9354 43.009 68.1445 40.7998 68.1445ZM40.7998 73.4779C40.0635 73.4779 39.4665 72.8809 39.4665 72.1445C39.4665 71.4082 40.0635 70.8112 40.7998 70.8112C41.5361 70.8112 42.1331 71.4082 42.1331 72.1445C42.1331 72.8809 41.5361 73.4779 40.7998 73.4779Z"/>
<path d="M40.7998 4.14453H38.1331C37.3968 4.14453 36.7998 4.74153 36.7998 5.47786C36.7998 6.2142 37.3968 6.8112 38.1331 6.8112H40.7998C41.5361 6.8112 42.1331 6.2142 42.1331 5.47786C42.1331 4.74153 41.5361 4.14453 40.7998 4.14453Z"/>
</g>
<defs>
<clipPath id="clip0_1308_66096">
<rect width="80" height="80" fill="white" transform="translate(0 0.144531)"/>
</clipPath>
</defs>
</svg>
