<svg width="28" height="29" viewBox="0 0 28 29" fill="none" xmlns="http://www.w3.org/2000/svg">
<path fill-rule="evenodd" clip-rule="evenodd" d="M2.99609 12.8836C2.99609 6.62734 4.16484 2.77734 14.0648 2.77734C23.9648 2.77734 25.1336 6.62734 25.1336 12.8836C25.1336 19.1398 23.9648 22.9898 14.0648 22.9898L12.2773 22.9211L8.63359 27.2523C8.35859 27.5273 8.08359 27.3211 8.08359 27.0461V22.3023C7.67109 22.3023 5.95234 21.4773 5.47109 20.9961C3.95859 19.4148 2.99609 18.2461 2.99609 12.8836ZM0.933594 12.8836C0.933594 4.22109 4.71484 0.714844 14.0648 0.714844C23.4148 0.714844 27.1961 4.22109 27.1961 12.8836C27.1961 21.5461 23.4148 25.0523 14.0648 25.0523C13.3773 25.0523 12.8273 25.0523 11.8648 24.9148L9.25234 27.8711C8.77109 28.4211 7.32734 28.6273 7.32734 26.9773V24.0898C6.91484 24.0898 5.95234 23.6773 4.64609 22.8523C3.33984 21.9586 0.933594 19.8273 0.933594 12.8836ZM16.2648 15.7711C16.7232 15.1753 17.2732 15.0836 17.9148 15.4961L20.3898 17.3523C20.7565 17.8107 20.5961 18.4523 19.9086 19.2773C19.2211 20.1023 18.5794 20.4461 17.9836 20.3086C15.5544 19.7586 13.2169 18.3836 10.9711 16.1836C8.72526 13.9836 7.32734 11.6003 6.77734 9.03359C6.77734 8.11693 7.35026 7.33776 8.49609 6.69609C9.09193 6.28359 9.59609 6.39818 10.0086 7.03984L11.7273 9.44609C12.0023 9.99609 11.8419 10.5003 11.2461 10.9586C8.56484 11.9898 14.7523 18.6586 16.2648 15.7711Z" fill="white"/>
</svg>
