<svg xmlns="http://www.w3.org/2000/svg" width="26" height="16" fill="none"><path fill="#fff" d="M13.9.78h-3.45c-1.03 0-1.6.42-1.62.67-.02.22.5.4.82.59.3.19.59.8.59 1.2V6.8c0 .34-.08.57-.35.8a.68.68 0 0 1-.46.13c-.13 0-.32-.03-.44-.2C7.64 5.8 7.63 5.58 5.74 2.06c-.09-.17-.18-.35-.37-.48-.18-.14-.46-.23-.9-.23L1 1.36c-.95 0-.86.58-.73.85 1.13 2.36 2.28 4.62 3.6 6.9 1.55 2.7 2.97 4.3 5.36 5.46.55.27 1.55.55 2.7.55h2.45c.31 0 .84-.25.84-.59V12.7c0-.53.52-.72.8-.85.34-.15.7.09.88.28 1.37 1.46 1.2 1.3 2.46 2.61.28.3.5.46 1.03.46h4.46c.23 0 .58-.36.66-.5.1-.18.34-.83-.04-1.25-1.26-1.43-2.55-2.74-3.79-4.04a.57.57 0 0 1-.16-.37c0-.15.08-.3.16-.42a87.66 87.66 0 0 0 3.78-5.57c.4-.66.35-1.13.28-1.29-.09-.18-.35-.44-.66-.44-1.66-.01-2.38-.04-4.15-.03-.53 0-1-.04-1.3.6-.77 1.7-2.05 4.31-3.15 5.4-.2.2-.48.35-.71.35-.24 0-.5-.16-.53-.55-.03-1.86 0-3.45-.01-5.27 0-.56-.24-.7-.42-.82a1.71 1.71 0 0 0-.92-.22Z"/></svg>
