<svg width="18" height="18" viewBox="0 0 18 18" xmlns="http://www.w3.org/2000/svg"><path d="M6.825 7.245H7.59C7.79289 7.245 7.98747 7.1644 8.13094 7.02094C8.2744 6.87747 8.355 6.68289 8.355 6.48C8.355 6.27711 8.2744 6.08253 8.13094 5.93906C7.98747 5.7956 7.79289 5.715 7.59 5.715H6.825C6.62211 5.715 6.42753 5.7956 6.28406 5.93906C6.1406 6.08253 6.06 6.27711 6.06 6.48C6.06 6.68289 6.1406 6.87747 6.28406 7.02094C6.42753 7.1644 6.62211 7.245 6.825 7.245ZM6.825 8.775C6.62211 8.775 6.42753 8.8556 6.28406 8.99906C6.1406 9.14253 6.06 9.33711 6.06 9.54C6.06 9.74289 6.1406 9.93747 6.28406 10.0809C6.42753 10.2244 6.62211 10.305 6.825 10.305H11.415C11.6179 10.305 11.8125 10.2244 11.9559 10.0809C12.0994 9.93747 12.18 9.74289 12.18 9.54C12.18 9.33711 12.0994 9.14253 11.9559 8.99906C11.8125 8.8556 11.6179 8.775 11.415 8.775H6.825ZM15.24 6.4341C15.232 6.36382 15.2166 6.29459 15.1941 6.22755V6.1587C15.1573 6.08004 15.1083 6.00774 15.0487 5.9445L10.4587 1.3545C10.3955 1.295 10.3232 1.24593 10.2445 1.20915C10.2217 1.20591 10.1985 1.20591 10.1757 1.20915C10.098 1.16458 10.0122 1.13597 9.92325 1.125H5.295C4.68633 1.125 4.10259 1.36679 3.67219 1.79719C3.24179 2.22759 3 2.81133 3 3.42V14.13C3 14.7387 3.24179 15.3224 3.67219 15.7528C4.10259 16.1832 4.68633 16.425 5.295 16.425H12.945C13.5537 16.425 14.1374 16.1832 14.5678 15.7528C14.9982 15.3224 15.24 14.7387 15.24 14.13V6.48C15.24 6.48 15.24 6.48 15.24 6.4341ZM10.65 3.73365L12.6313 5.715H11.415C11.2121 5.715 11.0175 5.6344 10.8741 5.49094C10.7306 5.34747 10.65 5.15289 10.65 4.95V3.73365ZM13.71 14.13C13.71 14.3329 13.6294 14.5275 13.4859 14.6709C13.3425 14.8144 13.1479 14.895 12.945 14.895H5.295C5.09211 14.895 4.89753 14.8144 4.75406 14.6709C4.6106 14.5275 4.53 14.3329 4.53 14.13V3.42C4.53 3.21711 4.6106 3.02253 4.75406 2.87906C4.89753 2.7356 5.09211 2.655 5.295 2.655H9.12V4.95C9.12 5.55867 9.36179 6.14241 9.79219 6.57281C10.2226 7.00321 10.8063 7.245 11.415 7.245H13.71V14.13ZM11.415 11.835H6.825C6.62211 11.835 6.42753 11.9156 6.28406 12.0591C6.1406 12.2025 6.06 12.3971 6.06 12.6C6.06 12.8029 6.1406 12.9975 6.28406 13.1409C6.42753 13.2844 6.62211 13.365 6.825 13.365H11.415C11.6179 13.365 11.8125 13.2844 11.9559 13.1409C12.0994 12.9975 12.18 12.8029 12.18 12.6C12.18 12.3971 12.0994 12.2025 11.9559 12.0591C11.8125 11.9156 11.6179 11.835 11.415 11.835Z"/></svg>
