<svg xmlns="http://www.w3.org/2000/svg" width="16" height="16" fill="none"><path fill="#000" stroke="#DBDBDB" d="m11.8 12.15-.15-.15H2.75A1.75 1.75 0 0 1 1 10.25v-7.5A1.75 1.75 0 0 1 2.75 1h10.5A1.75 1.75 0 0 1 15 2.75v12c0 .1-.07.2-.15.23h-.02c-.07.03-.18.02-.26-.05l-2.77-2.78Zm1.85 1.15.85.85V2.75a1.25 1.25 0 0 0-1.25-1.25H2.75A1.25 1.25 0 0 0 1.5 2.75v7.5a1.25 1.25 0 0 0 1.25 1.25h9c.07 0 .13.03.18.07l1.72 1.73Zm-9.4-5.55h4.5a.25.25 0 0 1 0 .5h-4.5a.25.25 0 0 1 0-.5Zm0-3h7.5a.25.25 0 0 1 0 .5h-7.5a.25.25 0 0 1 0-.5Z"/></svg>
