<svg xmlns="http://www.w3.org/2000/svg" width="17" height="17" fill="none"><path stroke="#DBDBDB" stroke-linecap="round" stroke-linejoin="round" stroke-width="2" d="M15.5 5.57V1.5h-4.07M10.75 6.25 15.5 1.5M14.82 12.3v2.04a1.36 1.36 0 0 1-1.48 1.35c-2.08-.22-4.09-.94-5.85-2.08a13.23 13.23 0 0 1-4.07-4.07 13.42 13.42 0 0 1-2.08-5.88 1.36 1.36 0 0 1 1.35-1.48h2.03a1.36 1.36 0 0 1 1.36 1.17c.08.65.24 1.29.47 1.9a1.36 1.36 0 0 1-.3 1.43l-.86.87c.96 1.7 2.37 3.1 4.07 4.07l.86-.87a1.36 1.36 0 0 1 1.43-.3 8.7 8.7 0 0 0 1.9.47 1.36 1.36 0 0 1 1.17 1.38Z"/></svg>
