<svg width="16" height="16" xmlns="http://www.w3.org/2000/svg"><path d="M16 9.113a7.974 7.974 0 0 0-2.307-5.614.394.394 0 0 0-.079-.08A7.973 7.973 0 0 0 8 1.114 7.974 7.974 0 0 0 2.386 3.42a.403.403 0 0 0-.08.079A7.974 7.974 0 0 0 0 9.113c0 2.137.832 4.145 2.343 5.656v.001h.001a.392.392 0 0 0 .557 0l.018-.02 1.213-1.212a.393.393 0 1 0-.557-.557l-.946.947A7.152 7.152 0 0 1 .798 9.506h1.338a.393.393 0 1 0 0-.786H.798A7.184 7.184 0 0 1 2.632 4.3l.943.944a.392.392 0 0 0 .557 0 .393.393 0 0 0 0-.557l-.944-.944a7.184 7.184 0 0 1 4.419-1.833v1.338a.393.393 0 1 0 .786 0V1.91a7.184 7.184 0 0 1 4.419 1.834l-.944.943a.394.394 0 0 0 .557.557l.943-.944a7.184 7.184 0 0 1 1.834 4.419h-1.338a.393.393 0 1 0 0 .786h1.338a7.153 7.153 0 0 1-1.831 4.422l-.946-.947a.394.394 0 0 0-.557.557L13.1 14.77a.392.392 0 0 0 .557 0A7.948 7.948 0 0 0 16 9.113Z"/><path d="M9.807 4.598a.393.393 0 0 0-.512.22L8.158 7.654a1.459 1.459 0 0 0-1.464.79c-.263.517-.196 1.134.18 1.65a.642.642 0 0 0 .14.14c.305.222.645.34.985.34.554 0 1.054-.307 1.306-.8.262-.517.195-1.134-.18-1.65a.64.64 0 0 0-.14-.14 1.936 1.936 0 0 0-.088-.06l1.128-2.815a.393.393 0 0 0-.218-.512ZM8.603 9.417a.675.675 0 0 1-.604.37.876.876 0 0 1-.503-.174c-.189-.27-.226-.565-.101-.81a.675.675 0 0 1 .604-.37c.082 0 .164.014.245.041l.008.004a1.045 1.045 0 0 1 .25.13c.189.27.226.564.101.809Z"/><rect x="5" y="14" width="6" height="1" rx=".5"/></svg>
