<svg width="16" height="16" xmlns="http://www.w3.org/2000/svg"><path d="M15.873 5.55A11.062 11.062 0 0 0 8 2.29c-2.974 0-5.77 1.157-7.873 3.26a.432.432 0 0 0 .61.612A10.203 10.203 0 0 1 8 3.153c2.743 0 5.322 1.069 7.262 3.009a.43.43 0 0 0 .611 0 .432.432 0 0 0 0-.612Z"/><path d="M8 4.691A8.675 8.675 0 0 0 1.827 7.25a.432.432 0 0 0 .611.611 7.816 7.816 0 0 1 5.564-2.304c2.101 0 4.077.818 5.563 2.304a.432.432 0 0 0 .611-.611 8.675 8.675 0 0 0-6.174-2.558Z"/><path d="M8 7.043a6.337 6.337 0 0 0-4.51 1.868.432.432 0 0 0 .611.611A5.478 5.478 0 0 1 8 7.907c1.473 0 2.857.574 3.899 1.615a.43.43 0 0 0 .61 0 .432.432 0 0 0 0-.61A6.336 6.336 0 0 0 8 7.042Z"/><path d="M8 9.422a3.973 3.973 0 0 0-2.829 1.171.432.432 0 1 0 .612.612A3.115 3.115 0 0 1 8 10.286c.837 0 1.624.327 2.217.919a.43.43 0 0 0 .61 0 .432.432 0 0 0 0-.611A3.973 3.973 0 0 0 8 9.421ZM8 11.981a.864.864 0 1 0 0 1.729.864.864 0 0 0 0-1.729Z"/></svg>
