<svg width="18" height="18" viewBox="0 0 18 18" xmlns="http://www.w3.org/2000/svg"><path d="M12.75 15.75H5.25V14.25H6.75V13.5H2.25C1.42157 13.5 0.75 12.8284 0.75 12V3.75C0.75 2.92157 1.42157 2.25 2.25 2.25H15.75C16.5784 2.25 17.25 2.92157 17.25 3.75V12C17.25 12.8284 16.5784 13.5 15.75 13.5H11.25V14.25H12.75V15.75ZM2.25 3.75V12H15.75V3.75H2.25Z"/><g clip-path="url(#clip0_1410_30369)"><path d="M9.1125 7.9575C9.31259 7.7843 9.47308 7.57008 9.58308 7.32938C9.69307 7.08869 9.75 6.82714 9.75 6.5625C9.75 6.06522 9.55246 5.58831 9.20083 5.23667C8.84919 4.88504 8.37228 4.6875 7.875 4.6875C7.37772 4.6875 6.90081 4.88504 6.54917 5.23667C6.19754 5.58831 6 6.06522 6 6.5625C6 6.82714 6.05693 7.08869 6.16692 7.32938C6.27692 7.57008 6.43741 7.7843 6.6375 7.9575C6.11255 8.19521 5.66717 8.57907 5.35462 9.0632C5.04206 9.54734 4.87555 10.1112 4.875 10.6875C4.875 10.787 4.91451 10.8823 4.98483 10.9527C5.05516 11.023 5.15054 11.0625 5.25 11.0625C5.34946 11.0625 5.44484 11.023 5.51517 10.9527C5.58549 10.8823 5.625 10.787 5.625 10.6875C5.625 10.0908 5.86205 9.51847 6.28401 9.09651C6.70597 8.67455 7.27826 8.4375 7.875 8.4375C8.47174 8.4375 9.04403 8.67455 9.46599 9.09651C9.88795 9.51847 10.125 10.0908 10.125 10.6875C10.125 10.787 10.1645 10.8823 10.2348 10.9527C10.3052 11.023 10.4005 11.0625 10.5 11.0625C10.5995 11.0625 10.6948 11.023 10.7652 10.9527C10.8355 10.8823 10.875 10.787 10.875 10.6875C10.8744 10.1112 10.7079 9.54734 10.3954 9.0632C10.0828 8.57907 9.63745 8.19521 9.1125 7.9575ZM7.875 7.6875C7.6525 7.6875 7.43499 7.62152 7.24998 7.4979C7.06498 7.37429 6.92078 7.19859 6.83564 6.99302C6.75049 6.78745 6.72821 6.56125 6.77162 6.34302C6.81503 6.12479 6.92217 5.92434 7.0795 5.76701C7.23684 5.60967 7.43729 5.50253 7.65552 5.45912C7.87375 5.41571 8.09995 5.43799 8.30552 5.52314C8.51109 5.60828 8.68679 5.75248 8.8104 5.93748C8.93402 6.12249 9 6.34 9 6.5625C9 6.86087 8.88147 7.14702 8.6705 7.358C8.45952 7.56897 8.17337 7.6875 7.875 7.6875ZM11.5275 7.8075C11.7675 7.53725 11.9243 7.2034 11.9789 6.84613C12.0336 6.48886 11.9838 6.1234 11.8357 5.79375C11.6875 5.4641 11.4472 5.1843 11.1437 4.98803C10.8402 4.79177 10.4864 4.6874 10.125 4.6875C10.0255 4.6875 9.93016 4.72701 9.85984 4.79734C9.78951 4.86766 9.75 4.96304 9.75 5.0625C9.75 5.16196 9.78951 5.25734 9.85984 5.32767C9.93016 5.39799 10.0255 5.4375 10.125 5.4375C10.4234 5.4375 10.7095 5.55603 10.9205 5.76701C11.1315 5.97798 11.25 6.26413 11.25 6.5625C11.2495 6.75947 11.1972 6.95284 11.0985 7.12328C10.9998 7.29373 10.8581 7.43527 10.6875 7.53375C10.6319 7.56582 10.5855 7.61162 10.5526 7.66678C10.5198 7.72193 10.5017 7.78459 10.5 7.84875C10.4984 7.91241 10.5131 7.97542 10.5426 8.03185C10.5721 8.08827 10.6156 8.13625 10.6688 8.17125L10.815 8.26875L10.8637 8.295C11.3158 8.50939 11.6971 8.8485 11.9629 9.27237C12.2286 9.69624 12.3677 10.1872 12.3638 10.6875C12.3638 10.787 12.4033 10.8823 12.4736 10.9527C12.5439 11.023 12.6393 11.0625 12.7388 11.0625C12.8382 11.0625 12.9336 11.023 13.0039 10.9527C13.0742 10.8823 13.1138 10.787 13.1138 10.6875C13.1168 10.112 12.9727 9.54535 12.6951 9.04127C12.4174 8.5372 12.0155 8.11249 11.5275 7.8075Z"/></g><defs><clipPath id="clip0_1410_30369"><rect width="9" height="9" transform="translate(4.5 3.375)"/></clipPath></defs></svg>
