<svg xmlns="http://www.w3.org/2000/svg" width="17" height="17" fill="none">
  <path stroke="#DBDBDB" stroke-linecap="round" stroke-linejoin="round" stroke-width="2" d="M10.08 4.22a3.41 3.41 0 0 1 2.7 2.7m-2.7-5.42a6.14 6.14 0 0 1 5.42 5.4m-.68 5.44v2.04a1.36 1.36 0 0 1-1.49 1.36c-2.1-.22-4.12-.94-5.89-2.09a13.29 13.29 0 0 1-4.09-4.08 13.46 13.46 0 0 1-2.1-5.9 1.36 1.36 0 0 1 1.36-1.49h2.05a1.37 1.37 0 0 1 1.36 1.17c.1.66.25 1.3.48 1.92a1.36 1.36 0 0 1-.3 1.43l-.87.87a10.9 10.9 0 0 0 4.1 4.08l.86-.86a1.37 1.37 0 0 1 1.44-.3c.62.22 1.26.38 1.91.47a1.37 1.37 0 0 1 1.18 1.38Z"/>
</svg>
