<svg width="40" height="41" viewBox="0 0 40 41" xmlns="http://www.w3.org/2000/svg">
<g clip-path="url(#clip0_1308_65994)">
<path d="M6.37505 3.24479C6.37503 3.88528 6.18961 4.51144 5.84215 5.04437C5.49469 5.57731 5.00074 5.99318 4.42254 6.23959C3.84433 6.48599 3.20773 6.55192 2.59294 6.42905C1.97815 6.30619 1.41268 6.00003 0.967774 5.54915C0.522864 5.09827 0.218417 4.52284 0.0927907 3.89536C-0.0328354 3.26788 0.0259795 2.61642 0.261825 2.02305C0.497671 1.42969 0.899996 0.920966 1.41811 0.56098C1.93623 0.200994 2.54696 0.00584803 3.17335 0.000129344C3.59246 -0.00369693 4.00816 0.077404 4.39645 0.238749C4.78474 0.400095 5.13792 0.638488 5.4356 0.940164C5.73328 1.24184 5.96957 1.60082 6.13081 1.99638C6.29206 2.39194 6.37507 2.81624 6.37505 3.24479Z"/>
<path d="M14.7686 3.24466C14.7686 3.88639 14.5825 4.51371 14.2338 5.04729C13.8851 5.58087 13.3895 5.99675 12.8096 6.24233C12.2298 6.48791 11.5917 6.55216 10.9762 6.42697C10.3606 6.30177 9.79514 5.99275 9.35133 5.53898C8.90753 5.0852 8.6053 4.50706 8.48285 3.87766C8.36041 3.24826 8.42325 2.59586 8.66343 2.00298C8.90362 1.4101 9.31036 0.903351 9.83222 0.546823C10.3541 0.190296 10.9676 0 11.5952 0C12.4369 0 13.244 0.341847 13.8392 0.950338C14.4343 1.55883 14.7686 2.38412 14.7686 3.24466Z"/>
<path d="M23.1836 3.24466C23.1836 3.88639 22.9975 4.51371 22.6488 5.04729C22.3001 5.58087 21.8045 5.99675 21.2247 6.24233C20.6448 6.48791 20.0068 6.55216 19.3912 6.42697C18.7756 6.30177 18.2102 5.99275 17.7664 5.53898C17.3226 5.0852 17.0203 4.50706 16.8979 3.87766C16.7754 3.24826 16.8383 2.59586 17.0785 2.00298C17.3187 1.4101 17.7254 0.903351 18.2473 0.546823C18.7691 0.190296 19.3826 0 20.0103 0C20.8519 0 21.6591 0.341847 22.2542 0.950338C22.8493 1.55883 23.1836 2.38412 23.1836 3.24466Z"/>
<path d="M31.5918 3.31692C31.5918 3.95865 31.4057 4.58598 31.057 5.11956C30.7083 5.65314 30.2127 6.06901 29.6329 6.31459C29.053 6.56017 28.415 6.62443 27.7994 6.49923C27.1838 6.37404 26.6184 6.06501 26.1746 5.61124C25.7308 5.15747 25.4285 4.57932 25.3061 3.94992C25.1836 3.32052 25.2465 2.66813 25.4867 2.07525C25.7269 1.48236 26.1336 0.975616 26.6555 0.619089C27.1773 0.262561 27.7909 0.0722656 28.4185 0.0722656C29.2601 0.0722656 30.0673 0.414112 30.6624 1.0226C31.2575 1.63109 31.5918 2.45639 31.5918 3.31692Z"/>
<path d="M40.0001 3.31693C40 3.95897 39.8138 4.58658 39.4647 5.12031C39.1157 5.65405 38.6197 6.06992 38.0394 6.31529C37.4592 6.56065 36.8207 6.62449 36.205 6.4987C35.5892 6.37292 35.0238 6.06317 34.5803 5.60868C34.1368 5.15418 33.8351 4.57536 33.7134 3.94548C33.5918 3.3156 33.6556 2.66298 33.8969 2.07023C34.1382 1.47747 34.546 0.971228 35.0688 0.615573C35.5916 0.259918 36.2058 0.0708406 36.8338 0.0722737C37.2505 0.0722737 37.6632 0.156199 38.0482 0.319258C38.4332 0.482318 38.783 0.721317 39.0777 1.02261C39.3724 1.32391 39.6061 1.68159 39.7656 2.07525C39.9251 2.46891 40.0071 2.89084 40.0071 3.31693"/>
<path d="M6.37505 11.856C6.37505 12.4977 6.18894 13.125 5.84025 13.6586C5.49155 14.1922 4.99594 14.6081 4.41608 14.8537C3.83623 15.0992 3.19817 15.1635 2.5826 15.0383C1.96702 14.9131 1.40158 14.6041 0.957779 14.1503C0.513976 13.6965 0.211742 13.1184 0.0892971 12.489C-0.0331479 11.8596 0.0296953 11.2072 0.26988 10.6143C0.510064 10.0214 0.916803 9.51468 1.43866 9.15815C1.96052 8.80162 2.57406 8.61133 3.20169 8.61133C4.04332 8.61133 4.85048 8.95317 5.4456 9.56167C6.04072 10.1702 6.37505 10.9954 6.37505 11.856Z" fill="#F5F5F5"/>
<path d="M14.7686 11.856C14.7686 12.4977 14.5825 13.125 14.2338 13.6586C13.8851 14.1922 13.3895 14.6081 12.8096 14.8537C12.2298 15.0992 11.5917 15.1635 10.9762 15.0383C10.3606 14.9131 9.79514 14.6041 9.35133 14.1503C8.90753 13.6965 8.6053 13.1184 8.48285 12.489C8.36041 11.8596 8.42325 11.2072 8.66343 10.6143C8.90362 10.0214 9.31036 9.51468 9.83222 9.15815C10.3541 8.80162 10.9676 8.61133 11.5952 8.61133C12.4369 8.61133 13.244 8.95317 13.8392 9.56167C14.4343 10.1702 14.7686 10.9954 14.7686 11.856Z" fill="#F5F5F5"/>
<path d="M23.1836 11.856C23.1836 12.4977 22.9975 13.125 22.6488 13.6586C22.3001 14.1922 21.8045 14.6081 21.2247 14.8537C20.6448 15.0992 20.0068 15.1635 19.3912 15.0383C18.7756 14.9131 18.2102 14.6041 17.7664 14.1503C17.3226 13.6965 17.0203 13.1184 16.8979 12.489C16.7754 11.8596 16.8383 11.2072 17.0785 10.6143C17.3187 10.0214 17.7254 9.51468 18.2473 9.15815C18.7691 8.80162 19.3826 8.61133 20.0103 8.61133C20.8519 8.61133 21.6591 8.95317 22.2542 9.56167C22.8493 10.1702 23.1836 10.9954 23.1836 11.856Z"/>
<path d="M31.5918 11.9216C31.5946 12.5639 31.4109 13.1927 31.0639 13.7281C30.7169 14.2636 30.2223 14.6818 29.6427 14.9296C29.0631 15.1774 28.4246 15.2437 27.8081 15.1201C27.1916 14.9966 26.6248 14.6887 26.1796 14.2355C25.7344 13.7823 25.4307 13.2042 25.3071 12.5744C25.1835 11.9446 25.2456 11.2915 25.4853 10.6978C25.7251 10.104 26.1318 9.59642 26.654 9.23925C27.1761 8.88208 27.7902 8.69141 28.4185 8.69141C29.2601 8.69141 30.0672 9.03325 30.6624 9.64174C31.2575 10.2502 31.5918 11.0755 31.5918 11.9361" fill="#F5F5F5"/>
<path d="M40 11.9216C40.0028 12.5642 39.8189 13.1933 39.4716 13.7289C39.1243 14.2645 38.6293 14.6827 38.0493 14.9303C37.4692 15.1778 36.8304 15.2437 36.2137 15.1196C35.597 14.9955 35.0302 14.6869 34.5853 14.2329C34.1404 13.779 33.8373 13.2002 33.7145 12.57C33.5917 11.9397 33.6547 11.2863 33.8955 10.6927C34.1364 10.0991 34.5442 9.59203 35.0673 9.23573C35.5904 8.87943 36.2052 8.68999 36.8337 8.69141C37.2505 8.69141 37.6631 8.77534 38.0481 8.9384C38.4331 9.10146 38.783 9.34046 39.0777 9.64175C39.3723 9.94305 39.6061 10.3007 39.7656 10.6944C39.925 11.0881 40.0071 11.51 40.0071 11.9361" fill="#F5F5F5"/>
<path d="M6.37505 20.4673C6.37505 21.109 6.18894 21.7364 5.84025 22.2699C5.49155 22.8035 4.99594 23.2194 4.41608 23.465C3.83623 23.7106 3.19817 23.7748 2.5826 23.6496C1.96702 23.5244 1.40158 23.2154 0.957779 22.7616C0.513976 22.3079 0.211742 21.7297 0.0892971 21.1003C-0.0331479 20.4709 0.0296953 19.8185 0.26988 19.2256C0.510064 18.6328 0.916803 18.126 1.43866 17.7695C1.96052 17.413 2.57406 17.2227 3.20169 17.2227C4.04332 17.2227 4.85048 17.5645 5.4456 18.173C6.04072 18.7815 6.37505 19.6068 6.37505 20.4673Z" fill="#F5F5F5"/>
<path d="M14.7686 20.4673C14.7686 21.109 14.5825 21.7364 14.2338 22.2699C13.8851 22.8035 13.3895 23.2194 12.8096 23.465C12.2298 23.7106 11.5917 23.7748 10.9762 23.6496C10.3606 23.5244 9.79514 23.2154 9.35133 22.7616C8.90753 22.3079 8.6053 21.7297 8.48285 21.1003C8.36041 20.4709 8.42325 19.8185 8.66343 19.2256C8.90362 18.6328 9.31036 18.126 9.83222 17.7695C10.3541 17.413 10.9676 17.2227 11.5952 17.2227C12.4369 17.2227 13.244 17.5645 13.8392 18.173C14.4343 18.7815 14.7686 19.6068 14.7686 20.4673Z" fill="#F5F5F5"/>
<path d="M23.1836 20.4673C23.1836 21.109 22.9975 21.7364 22.6488 22.2699C22.3001 22.8035 21.8045 23.2194 21.2247 23.465C20.6448 23.7106 20.0068 23.7748 19.3912 23.6496C18.7756 23.5244 18.2102 23.2154 17.7664 22.7616C17.3226 22.3079 17.0203 21.7297 16.8979 21.1003C16.7754 20.4709 16.8383 19.8185 17.0785 19.2256C17.3187 18.6328 17.7254 18.126 18.2473 17.7695C18.7691 17.413 19.3826 17.2227 20.0103 17.2227C20.8519 17.2227 21.6591 17.5645 22.2542 18.173C22.8493 18.7815 23.1836 19.6068 23.1836 20.4673Z"/>
<path d="M31.5918 20.5327C31.5918 21.1745 31.4057 21.8018 31.057 22.3354C30.7083 22.869 30.2127 23.2848 29.6329 23.5304C29.053 23.776 28.415 23.8403 27.7994 23.7151C27.1838 23.5899 26.6184 23.2808 26.1746 22.8271C25.7308 22.3733 25.4285 21.7951 25.3061 21.1657C25.1836 20.5363 25.2465 19.8839 25.4867 19.2911C25.7269 18.6982 26.1336 18.1914 26.6555 17.8349C27.1773 17.4784 27.7909 17.2881 28.4185 17.2881C29.2601 17.2881 30.0673 17.6299 30.6624 18.2384C31.2575 18.8469 31.5918 19.6722 31.5918 20.5327Z" fill="#F5F5F5"/>
<path d="M40 20.5323C40.0014 21.1747 39.8163 21.803 39.4682 22.3377C39.12 22.8724 38.6245 23.2894 38.0443 23.5359C37.4642 23.7823 36.8256 23.8472 36.2093 23.7222C35.5931 23.5973 35.027 23.2881 34.5828 22.8339C34.1386 22.3797 33.8362 21.8009 33.714 21.1708C33.5917 20.5407 33.6552 19.8877 33.8962 19.2946C34.1373 18.7014 34.5451 18.1947 35.0681 17.8387C35.591 17.4828 36.2055 17.2935 36.8338 17.2949C37.2505 17.2949 37.6631 17.3789 38.0482 17.5419C38.4332 17.705 38.783 17.944 39.0777 18.2453C39.3723 18.5466 39.6061 18.9043 39.7656 19.2979C39.925 19.6916 40.0071 20.1135 40.0071 20.5396" fill="#F5F5F5"/>
<path d="M6.37505 29.0718C6.37505 29.7135 6.18894 30.3409 5.84025 30.8744C5.49155 31.408 4.99594 31.8239 4.41608 32.0695C3.83623 32.3151 3.19817 32.3793 2.5826 32.2541C1.96702 32.1289 1.40158 31.8199 0.957779 31.3661C0.513976 30.9123 0.211742 30.3342 0.0892971 29.7048C-0.0331479 29.0754 0.0296953 28.423 0.26988 27.8301C0.510064 27.2372 0.916803 26.7305 1.43866 26.374C1.96052 26.0174 2.57406 25.8271 3.20169 25.8271C3.61842 25.8271 4.03107 25.9111 4.41608 26.0741C4.80109 26.2372 5.15092 26.4762 5.4456 26.7775C5.74027 27.0788 5.97402 27.4365 6.1335 27.8301C6.29297 28.2238 6.37505 28.6457 6.37505 29.0718Z" fill="#F5F5F5"/>
<path d="M14.7686 29.0718C14.7686 29.7135 14.5825 30.3409 14.2338 30.8744C13.8851 31.408 13.3895 31.8239 12.8096 32.0695C12.2298 32.3151 11.5917 32.3793 10.9762 32.2541C10.3606 32.1289 9.79514 31.8199 9.35133 31.3661C8.90753 30.9123 8.6053 30.3342 8.48285 29.7048C8.36041 29.0754 8.42325 28.423 8.66343 27.8301C8.90362 27.2372 9.31036 26.7305 9.83222 26.374C10.3541 26.0174 10.9676 25.8271 11.5952 25.8271C12.012 25.8271 12.4246 25.9111 12.8096 26.0741C13.1946 26.2372 13.5445 26.4762 13.8392 26.7775C14.1338 27.0788 14.3676 27.4365 14.5271 27.8301C14.6865 28.2238 14.7686 28.6457 14.7686 29.0718Z" fill="#F5F5F5"/>
<path d="M23.1836 29.0718C23.1836 29.7135 22.9975 30.3409 22.6488 30.8744C22.3001 31.408 21.8045 31.8239 21.2247 32.0695C20.6448 32.3151 20.0068 32.3793 19.3912 32.2541C18.7756 32.1289 18.2102 31.8199 17.7664 31.3661C17.3226 30.9123 17.0203 30.3342 16.8979 29.7048C16.7754 29.0754 16.8383 28.423 17.0785 27.8301C17.3187 27.2372 17.7254 26.7305 18.2473 26.374C18.7691 26.0174 19.3826 25.8271 20.0103 25.8271C20.427 25.8271 20.8397 25.9111 21.2247 26.0741C21.6097 26.2372 21.9595 26.4762 22.2542 26.7775C22.5489 27.0788 22.7826 27.4365 22.9421 27.8301C23.1016 28.2238 23.1836 28.6457 23.1836 29.0718Z"/>
<path d="M31.5918 29.1441C31.5918 29.7858 31.4057 30.4131 31.057 30.9467C30.7083 31.4803 30.2127 31.8962 29.6329 32.1417C29.053 32.3873 28.415 32.4516 27.7994 32.3264C27.1838 32.2012 26.6184 31.8922 26.1746 31.4384C25.7308 30.9846 25.4285 30.4065 25.3061 29.7771C25.1836 29.1477 25.2465 28.4953 25.4867 27.9024C25.7269 27.3095 26.1336 26.8028 26.6555 26.4462C27.1773 26.0897 27.7909 25.8994 28.4185 25.8994C29.2601 25.8994 30.0673 26.2413 30.6624 26.8498C31.2575 27.4582 31.5918 28.2835 31.5918 29.1441Z" fill="#F5F5F5"/>
<path d="M40.0001 29.1441C40 29.7861 39.8138 30.4137 39.4647 30.9475C39.1157 31.4812 38.6197 31.8971 38.0394 32.1424C37.4592 32.3878 36.8207 32.4516 36.205 32.3259C35.5892 32.2001 35.0238 31.8903 34.5803 31.4358C34.1368 30.9813 33.8351 30.4025 33.7134 29.7726C33.5918 29.1428 33.6556 28.4901 33.8969 27.8974C34.1382 27.3046 34.546 26.7984 35.0688 26.4427C35.5916 26.0871 36.2058 25.898 36.8338 25.8994C37.2505 25.8994 37.6632 25.9833 38.0482 26.1464C38.4332 26.3095 38.783 26.5485 39.0777 26.8498C39.3724 27.1511 39.6061 27.5087 39.7656 27.9024C39.9251 28.2961 40.0071 28.718 40.0071 29.1441" fill="#F5F5F5"/>
<path d="M6.37505 37.6616C6.37505 38.3034 6.18894 38.9307 5.84025 39.4643C5.49155 39.9979 4.99594 40.4137 4.41608 40.6593C3.83623 40.9049 3.19817 40.9692 2.5826 40.844C1.96702 40.7188 1.40158 40.4097 0.957779 39.956C0.513976 39.5022 0.211742 38.9241 0.0892971 38.2947C-0.0331479 37.6652 0.0296953 37.0129 0.26988 36.42C0.510064 35.8271 0.916803 35.3203 1.43866 34.9638C1.96052 34.6073 2.57406 34.417 3.20169 34.417C4.04332 34.417 4.85048 34.7588 5.4456 35.3673C6.04072 35.9758 6.37505 36.8011 6.37505 37.6616Z" fill="#F5F5F5"/>
<path d="M14.7686 37.6616C14.7686 38.3034 14.5825 38.9307 14.2338 39.4643C13.8851 39.9979 13.3895 40.4137 12.8096 40.6593C12.2298 40.9049 11.5917 40.9692 10.9762 40.844C10.3606 40.7188 9.79514 40.4097 9.35133 39.956C8.90753 39.5022 8.6053 38.9241 8.48285 38.2947C8.36041 37.6652 8.42325 37.0129 8.66343 36.42C8.90362 35.8271 9.31036 35.3203 9.83222 34.9638C10.3541 34.6073 10.9676 34.417 11.5952 34.417C12.4369 34.417 13.244 34.7588 13.8392 35.3673C14.4343 35.9758 14.7686 36.8011 14.7686 37.6616Z" fill="#F5F5F5"/>
<path d="M23.1836 37.6616C23.1836 38.3034 22.9975 38.9307 22.6488 39.4643C22.3001 39.9979 21.8045 40.4137 21.2247 40.6593C20.6448 40.9049 20.0068 40.9692 19.3912 40.844C18.7756 40.7188 18.2102 40.4097 17.7664 39.956C17.3226 39.5022 17.0203 38.9241 16.8979 38.2947C16.7754 37.6652 16.8383 37.0129 17.0785 36.42C17.3187 35.8271 17.7254 35.3203 18.2473 34.9638C18.7691 34.6073 19.3826 34.417 20.0103 34.417C20.8519 34.417 21.6591 34.7588 22.2542 35.3673C22.8493 35.9758 23.1836 36.8011 23.1836 37.6616Z"/>
<path d="M31.5918 37.7554C31.5918 38.3971 31.4057 39.0244 31.057 39.558C30.7083 40.0916 30.2127 40.5075 29.6329 40.7531C29.053 40.9986 28.415 41.0629 27.7994 40.9377C27.1838 40.8125 26.6184 40.5035 26.1746 40.0497C25.7308 39.5959 25.4285 39.0178 25.3061 38.3884C25.1836 37.759 25.2465 37.1066 25.4867 36.5137C25.7269 35.9208 26.1336 35.4141 26.6555 35.0576C27.1773 34.701 27.7909 34.5107 28.4185 34.5107C29.2601 34.5107 30.0673 34.8526 30.6624 35.4611C31.2575 36.0696 31.5918 36.8949 31.5918 37.7554Z" fill="#F5F5F5"/>
<path d="M40.0001 37.7554C40 38.3974 39.8138 39.0251 39.4647 39.5588C39.1157 40.0925 38.6197 40.5084 38.0394 40.7538C37.4592 40.9991 36.8207 41.063 36.205 40.9372C35.5892 40.8114 35.0238 40.5016 34.5803 40.0471C34.1368 39.5926 33.8351 39.0138 33.7134 38.384C33.5918 37.7541 33.6556 37.1015 33.8969 36.5087C34.1382 35.9159 34.546 35.4097 35.0688 35.054C35.5916 34.6984 36.2058 34.5093 36.8338 34.5108C37.2505 34.5108 37.6632 34.5947 38.0482 34.7577C38.4332 34.9208 38.783 35.1598 39.0777 35.4611C39.3724 35.7624 39.6061 36.1201 39.7656 36.5137C39.9251 36.9074 40.0071 37.3293 40.0071 37.7554" fill="#F5F5F5"/>
</g>
<defs>
<clipPath id="clip0_1308_65994">
<rect width="40" height="41" fill="white"/>
</clipPath>
</defs>
</svg>
