<svg width="87" height="86" viewBox="0 0 87 86"  xmlns="http://www.w3.org/2000/svg">
<g clip-path="url(#clip0_1308_65973)">
<path d="M43.4998 17.3303C48.3771 17.3303 52.1998 13.4212 52.1998 8.59998C52.3316 3.90905 48.3769 0 43.4998 0C38.6227 0 34.7998 3.90905 34.7998 8.7303C34.7996 13.4212 38.7543 17.3303 43.4998 17.3303ZM43.4998 2.60609C46.927 2.60609 49.5634 5.3425 49.5634 8.7303C49.5634 12.1181 46.7952 14.8545 43.4998 14.8545C40.2044 14.8545 37.4362 12.1181 37.4362 8.7303C37.436 5.3425 40.2042 2.60609 43.4998 2.60609Z"/>
<path d="M77.6414 69.3213H69.864C64.723 69.3213 60.5049 73.491 60.5049 78.5728V84.6971C60.5049 85.4789 61.0322 86 61.823 86H85.682C86.473 86 87.0001 85.4788 87.0001 84.6971V78.7032C87.0005 73.491 82.7823 69.3213 77.6414 69.3213ZM63.0096 83.3939V78.703C63.0096 75.0546 66.0415 72.0575 69.7324 72.0575H77.5097C81.2006 72.0575 84.2324 75.0546 84.2324 78.703V83.3939H63.0096Z"/>
<path d="M17.2681 69.0605H9.35913C4.21816 69.0605 0 73.2302 0 78.3121V84.306C0 85.0879 0.527314 85.609 1.31811 85.609H25.309C26.0999 85.609 26.6271 85.0877 26.6271 84.306V78.3121C26.6273 73.2302 22.4091 69.0605 17.2681 69.0605ZM2.6364 83.1332V78.4422C2.6364 74.6635 5.66828 71.6665 9.35913 71.6665H17.1365C20.8273 71.6665 23.8592 74.6635 23.8592 78.3119V83.1332H2.6364Z"/>
<path d="M64.9865 60.3307C64.9865 65.1519 68.941 69.061 73.6865 69.061C78.432 69.061 82.3865 65.1519 82.3865 60.3307C82.3865 55.5094 78.432 51.6004 73.6865 51.6004C70.5228 51.6004 67.7548 53.2943 66.3047 55.6397L56.6819 51.47C56.2864 45.0852 51.1454 40.0033 44.8182 39.352L44.95 34.2701H55.6272C56.4182 34.2701 56.9454 33.7488 56.9454 32.9671V26.9732C56.9454 21.8914 52.7272 17.7217 47.5862 17.7217H39.5454C34.4044 17.7217 30.1863 21.8914 30.1863 26.9732V32.9671C30.1863 33.749 30.7136 34.2701 31.5044 34.2701H42.1816V39.352C35.7225 40.0035 30.7134 45.2155 30.3179 51.6004L20.9588 55.77C19.5089 53.1639 16.6088 51.3397 13.3133 51.3397C8.43596 51.3397 4.61328 55.2488 4.61328 60.07C4.61328 64.8913 8.56779 68.8003 13.3133 68.8003C18.1906 68.8003 22.0132 64.8913 22.0132 60.07C22.0132 59.4185 21.8814 58.7671 21.7496 58.2458L30.3177 54.4671C31.2405 60.7216 36.7768 65.5428 43.3677 65.5428H43.4995C50.0904 65.5428 55.6269 60.5913 56.5495 54.3368L65.2495 58.1155C65.1184 58.7669 64.9865 59.5488 64.9865 60.3307ZM73.6865 54.3366C77.1137 54.3366 79.7501 57.073 79.7501 60.4608C79.7501 63.8486 76.9819 66.585 73.6865 66.585C70.3912 66.585 67.6229 63.8486 67.6229 60.4608C67.6229 56.9427 70.3912 54.3366 73.6865 54.3366ZM13.3138 66.0639C9.8866 66.0639 7.2502 63.3275 7.2502 59.9397C7.2502 56.5519 10.0184 53.8155 13.3138 53.8155C16.6092 53.8155 19.3774 56.5519 19.3774 59.9397C19.5092 63.3275 16.7412 66.0639 13.3138 66.0639ZM32.9547 31.664V26.9731H32.8228C32.8228 23.3246 35.8547 20.3276 39.5456 20.3276H47.4547C51.1456 20.3276 54.1775 23.3246 54.1775 26.9731V31.664H43.6321H32.9547ZM43.5002 62.9367C37.5685 62.9367 32.823 58.2458 32.823 52.5126C32.823 46.7793 37.5685 41.958 43.3684 41.958C49.1683 41.958 53.9138 46.649 53.9138 52.3822C54.1775 58.1155 49.432 62.9367 43.5002 62.9367Z"/>
<path d="M47.7176 52.7731C46.9266 51.9912 45.8721 51.4701 44.422 51.2095V47.6914C45.3448 47.8217 46.2674 48.2126 47.1902 48.7337L48.3765 47.0398C47.1902 46.2579 45.7401 45.7368 44.422 45.6065V44.6943H43.2357V45.6065C42.0494 45.6065 40.9948 45.9975 40.2038 46.7792C39.4129 47.4307 39.0176 48.3428 39.0176 49.5156C39.0176 50.5581 39.413 51.4701 40.072 51.9914C40.731 52.5126 41.7856 53.0339 43.2357 53.2943V56.9427C42.0494 56.8124 40.9948 56.1609 39.9402 55.2488L38.4902 56.9427C39.9402 58.1154 41.3903 58.767 43.2357 59.0276V60.4609H44.422V59.1579C45.7401 59.1579 46.7948 58.767 47.5857 57.9852C48.3767 57.3337 48.772 56.4217 48.772 55.2488C48.772 54.2065 48.3765 53.2943 47.7176 52.7731ZM43.1039 50.8185C42.4448 50.5579 41.9176 50.2973 41.654 50.167C41.3903 49.9063 41.2585 49.6457 41.2585 49.1246C41.2585 48.7337 41.3903 48.3428 41.7858 48.0823C42.0494 47.8217 42.5768 47.6914 43.1039 47.5611V50.8185ZM45.7403 56.2913C45.3448 56.552 44.9493 56.8126 44.2904 56.8126V53.4248C45.0813 53.6854 45.6085 53.9461 45.8721 54.2067C46.1358 54.4673 46.2676 54.8582 46.2676 55.249C46.2674 55.6398 46.1356 56.0307 45.7403 56.2913Z"/>
</g>
<defs>
<clipPath id="clip0_1308_65973">
<rect width="87" height="86" fill="white"/>
</clipPath>
</defs>
</svg>
