<svg width="86" height="86" viewBox="0 0 86 86" xmlns="http://www.w3.org/2000/svg">
<path d="M68.145 15.9668C61.2257 9.04744 51.8412 5.16017 42.0558 5.16016C32.2705 5.16014 22.886 9.04737 15.9667 15.9667C9.0474 22.886 5.16017 32.2707 5.16016 42.0561C5.16014 51.8416 9.04733 61.2262 15.9666 68.1456C22.6984 74.8783 31.7724 78.7477 41.2912 78.9448C50.8099 79.1419 60.0363 75.6514 67.0411 69.2032L78.2301 80.3923C78.5169 80.6791 78.9057 80.8401 79.3112 80.8401C79.7167 80.8401 80.1056 80.6791 80.3923 80.3923C80.6791 80.1056 80.8401 79.7167 80.8401 79.3112C80.8401 78.9057 80.6791 78.5168 80.3923 78.2301L69.2024 67.0419C75.6502 60.0371 79.1405 50.8108 78.9435 41.2922C78.7464 31.7736 74.8772 22.6997 68.145 15.9678V15.9668ZM8.2179 42.0563C8.2173 36.505 9.58249 31.0387 12.1931 26.1396C14.8037 21.2404 18.5795 17.0587 23.1877 13.9633C27.7958 10.8678 33.0947 8.95369 38.6173 8.38959C44.1398 7.82548 49.7163 8.62874 54.8551 10.7286C59.9939 12.8284 64.5372 16.1603 68.0844 20.4304C71.6316 24.7006 74.0738 29.7779 75.1956 35.2148C76.3173 40.6516 76.0843 46.2809 74.517 51.6063C72.9497 56.9318 70.0963 61.7899 66.2083 65.7523C66.0249 65.8699 65.8691 66.0257 65.7515 66.2091C65.3537 66.5997 64.9482 66.9792 64.5347 67.3475V66.4848C64.5397 65.8655 64.4729 65.2476 64.3356 64.6437C64.3101 64.5365 64.283 64.4299 64.2544 64.3237C63.8732 62.9691 63.1605 61.7308 62.1805 60.7209C61.2005 59.711 59.9842 58.9613 58.6417 58.5396L49.484 55.5703V51.7863C51.1377 50.7618 52.5615 49.406 53.6654 47.8042C54.7694 46.2024 55.5297 44.3893 55.8985 42.4792L56.3887 40.7934C57.4835 40.3812 58.3894 39.5823 58.9352 38.5476C59.481 37.5129 59.6289 36.3141 59.3509 35.1778C59.2099 34.5856 58.9318 34.0348 58.539 33.5698C58.1461 33.1047 57.6496 32.7384 57.0893 32.5004V26.5601C57.1035 24.5772 56.7251 22.6111 55.9761 20.775C55.2271 18.939 54.1222 17.2693 52.725 15.8622C51.3279 14.455 49.6662 13.3382 47.8355 12.5761C46.0049 11.814 44.0416 11.4216 42.0586 11.4216C40.0757 11.4216 38.1124 11.814 36.2817 12.5761C34.4511 13.3382 32.7894 14.455 31.3922 15.8622C29.9951 17.2693 28.8902 18.939 28.1412 20.775C27.3921 22.6111 27.0138 24.5772 27.0279 26.5601V32.4979C26.4663 32.7355 25.9685 33.1019 25.5746 33.5676C25.1808 34.0332 24.902 34.5849 24.7608 35.1782C24.4829 36.3145 24.6308 37.5133 25.1766 38.5479C25.7224 39.5826 26.6282 40.3815 27.723 40.7936L28.213 42.4794C28.5819 44.3895 29.3422 46.2026 30.4462 47.8044C31.5503 49.4062 32.974 50.762 34.6278 51.7865V55.5705L25.4698 58.5398C24.1274 58.9615 22.9113 59.7111 21.9314 60.7209C20.9515 61.7307 20.2387 62.9689 19.8576 64.3234C19.8283 64.4296 19.8011 64.5365 19.776 64.644C19.6388 65.248 19.572 65.8657 19.577 66.485V67.3477C19.0837 66.9081 18.601 66.4535 18.129 65.9837C14.977 62.8488 12.478 59.1199 10.7768 55.0128C9.07554 50.9056 8.2058 46.5018 8.2179 42.0563ZM46.8084 55.7243C45.314 56.396 43.6942 56.7432 42.0558 56.7432C40.4174 56.7432 38.7975 56.396 37.3031 55.7243V53.0805C40.3757 54.1826 43.7358 54.1826 46.8084 53.0805V55.7243ZM27.3591 35.8144C27.403 35.623 27.4927 35.4452 27.6206 35.2962C27.7485 35.1472 27.9107 35.0316 28.0932 34.9592C28.5637 35.1525 29.0739 35.2298 29.5806 35.1846C30.0873 35.1393 30.5756 34.9729 31.0045 34.6994C31.4334 34.4258 31.7902 34.0531 32.0449 33.6127C32.2995 33.1723 32.4445 32.6772 32.4677 32.169L32.6349 28.4977C33.4102 28.4977 34.4814 28.4739 35.7473 28.3882C43.883 35.2682 55.3124 34.9122 55.8035 34.8931C55.8077 34.8931 55.8118 34.8931 55.816 34.8919C56.0433 34.9416 56.2519 35.0546 56.4176 35.2179C56.5834 35.3813 56.6994 35.5882 56.7524 35.8148C56.8209 36.0946 56.8312 36.3854 56.7829 36.6694C56.7345 36.9534 56.6284 37.2244 56.4712 37.4657C56.314 37.7071 56.109 37.9136 55.8688 38.0727C55.6287 38.2317 55.3584 38.3397 55.0748 38.3902C54.8075 38.437 54.5607 38.564 54.3673 38.7543C54.1738 38.9446 54.0428 39.1893 53.9916 39.4558L53.3119 41.7939C53.2998 41.8355 53.2897 41.8776 53.2819 41.9202C52.7898 44.5377 51.3986 46.901 49.3487 48.6014C47.2989 50.3018 44.7193 51.2325 42.056 51.2325C39.3927 51.2325 36.8131 50.3018 34.7632 48.6014C32.7134 46.901 31.3221 44.5377 30.8301 41.9202C30.8221 41.8776 30.812 41.8355 30.7999 41.7939L30.1203 39.4558C30.0691 39.1893 29.9381 38.9446 29.7447 38.7543C29.5512 38.564 29.3044 38.437 29.0371 38.3902C28.5496 38.3051 28.1079 38.0506 27.7899 37.6714C27.4719 37.2923 27.2981 36.813 27.2991 36.3182C27.2989 36.1485 27.319 35.9793 27.3591 35.8144ZM43.1116 27.2798C44.2541 28.4442 47.0131 30.7937 51.5565 31.9679C48.328 31.5666 43.7293 30.5432 39.6732 27.9584C40.8771 27.775 42.0232 27.5488 43.1116 27.2798ZM54.414 29.807C50.3564 29.2589 47.6333 27.6135 46.1059 26.3877C48.1895 25.6773 50.1493 24.6456 51.9143 23.3299C52.1959 23.114 52.3801 22.7951 52.4265 22.4433C52.4729 22.0915 52.3777 21.7357 52.1618 21.4542C51.9459 21.1726 51.6269 20.9884 51.2752 20.9419C50.9234 20.8955 50.5676 20.9908 50.2861 21.2067C43.5827 26.3476 31.5459 25.8052 31.4259 25.7996C31.2498 25.7906 31.0737 25.8165 30.9077 25.8758C30.7416 25.9351 30.5889 26.0266 30.4584 26.1451C30.3278 26.2636 30.222 26.4067 30.1469 26.5662C30.0719 26.7258 30.0291 26.8986 30.0211 27.0747L29.7941 32.0469C29.7913 32.1438 29.7594 32.2377 29.7025 32.3163V26.5601C29.6897 24.9294 29.9998 23.3123 30.6149 21.802C31.2301 20.2917 32.1381 18.9182 33.2867 17.7605C34.4353 16.6029 35.8016 15.6841 37.307 15.057C38.8123 14.43 40.4269 14.1072 42.0577 14.1072C43.6884 14.1072 45.303 14.43 46.8084 15.057C48.3138 15.6841 49.6801 16.6029 50.8287 17.7605C51.9772 18.9182 52.8853 20.2917 53.5004 21.802C54.1156 23.3123 54.4257 24.9294 54.4128 26.5601L54.414 29.807ZM22.2523 69.5007V66.4848C22.2477 66.0703 22.291 65.6567 22.3813 65.2522C22.3983 65.1786 22.4169 65.1053 22.4371 65.0322C22.7016 64.1055 23.1928 63.2593 23.8663 62.5701C24.5399 61.8809 25.3745 61.3703 26.2949 61.0846L35.8365 57.9911C37.7754 58.9299 39.9016 59.4175 42.0558 59.4175C44.2099 59.4175 46.3362 58.9299 48.275 57.9911L57.8165 61.0846C58.7369 61.3703 59.5716 61.8808 60.2451 62.57C60.9187 63.2593 61.4099 64.1055 61.6744 65.0322C61.6944 65.1051 61.713 65.1783 61.7302 65.252C61.8205 65.6566 61.8638 66.0703 61.8592 66.4848V69.5007C56.0927 73.6576 49.1644 75.8946 42.0558 75.8946C34.9472 75.8946 28.0188 73.6576 22.2523 69.5007Z"/>
</svg>
