<svg width="40" height="40" viewBox="0 0 40 40" xmlns="http://www.w3.org/2000/svg">
    <path d="M20.9743 9.53129C18.9493 9.54066 17.6581 9.54308 15.8377 9.54308C14.3151 9.54308 13.4601 10.1544 13.4329 10.5191C13.408 10.8525 14.1851 11.1222 14.6576 11.392C15.1137 11.6724 15.5256 12.5628 15.5256 13.1642V18.41C15.5256 18.9085 15.4114 19.2558 15.0054 19.5807C14.812 19.7355 14.5821 19.7767 14.3336 19.7753C14.1325 19.7742 13.859 19.7369 13.6707 19.4952C11.6652 16.92 11.6586 16.602 8.84914 11.4126C8.71288 11.1609 8.57827 10.8939 8.29921 10.6931C8.02016 10.4923 7.60664 10.3599 6.94371 10.3599C4.68553 10.3599 3.29191 10.3923 1.80708 10.3923C0.401616 10.3923 0.536804 11.2473 0.725056 11.6367C2.41006 15.122 4.12091 18.4498 6.08761 21.8276C8.39078 25.7833 10.4963 28.1594 14.0393 29.866C14.8616 30.2621 16.3445 30.671 18.0582 30.671H21.6997C22.1675 30.671 22.9452 30.3048 22.9452 29.8129V27.103C22.9452 26.328 23.7241 26.0462 24.1491 25.8557C24.6497 25.6312 25.1747 25.9851 25.4392 26.2655C27.4749 28.4244 27.2436 28.1895 29.0984 30.1225C29.5176 30.5593 29.8341 30.789 30.6263 30.789C35.9762 30.789 35.9806 30.7991 37.2582 30.789C37.609 30.7862 38.13 30.2641 38.2451 30.0606C38.3971 29.792 38.7425 28.8331 38.1886 28.2117C36.3085 26.1028 34.3922 24.1718 32.5555 22.2552C32.4155 22.1091 32.3097 21.9113 32.3058 21.7097C32.3017 21.4893 32.4256 21.2752 32.5555 21.0964C34.6155 18.2601 36.317 15.8585 38.1678 12.8752C38.7694 11.9055 38.6916 11.2186 38.581 10.9821C38.4529 10.7081 38.0586 10.3299 37.606 10.3275C35.1344 10.3137 34.0654 10.2794 31.4289 10.2832C30.6415 10.2844 29.944 10.2244 29.5116 11.1649C28.3529 13.6851 26.4624 17.5308 24.8209 19.1295C24.5178 19.4246 24.113 19.6438 23.7597 19.6456C23.4063 19.6473 23.0307 19.4085 22.9779 18.8376C22.9374 16.0947 22.9711 13.7546 22.9571 11.0676C22.9528 10.2463 22.6036 10.0349 22.3388 9.8527C21.9794 9.60549 21.4116 9.52922 20.9743 9.53129Z"/>
</svg>
