<svg width="24" height="24" fill="none" xmlns="http://www.w3.org/2000/svg"><path d="M12 0C6.486 0 2 4.486 2 10a9.929 9.929 0 0 0 2.955 7.095l6.69 6.757a.498.498 0 0 0 .71 0l6.687-6.754A9.933 9.933 0 0 0 22 10c0-5.514-4.486-10-10-10Zm0 14c-2.206 0-4-1.794-4-4s1.794-4 4-4 4 1.794 4 4-1.794 4-4 4Z" fill="url(#a)"/><defs><linearGradient id="a" x1="3.229" y1="-2.872" x2="28.05" y2=".604" gradientUnits="userSpaceOnUse"><stop stop-color="#FA7007"/><stop offset=".318" stop-color="#FA4907"/></linearGradient></defs></svg>