<svg width="321" height="347" viewBox="0 0 321 347" fill="none" xmlns="http://www.w3.org/2000/svg"><g clip-path="url(#clip0_1410_4304)"><path d="M539.58 -37.5199C554.494 -41.8371 578.183 -41.8371 592.432 -37.5199L674.204 -12.9784C688.926 -8.55832 715.135 -4.87067 732.389 -4.80643L850.551 -4.36956C867.089 -4.36956 882.873 2.3119 885.726 10.4581L897.135 43.0174C900.243 51.8575 915.49 63.4472 931.044 68.7153L1017.83 97.7668C1034.01 103.189 1037.67 112.71 1025.71 118.993L956.83 155.137C943.579 162.102 934.433 176.981 936.748 188.378L946.111 234.197C948.669 246.738 933.986 258.225 913.29 259.484L764.123 268.555C742.187 269.84 709.43 277.896 691.216 286.544L581.56 338.042C560.903 347.743 527.199 349.748 507.181 342.36L396.515 301.5C377.329 294.433 341.514 289.448 316.598 290.373L137.13 297.093C110.819 298.095 93.3723 286.647 98.4886 272.024L116.971 218.817C121.512 205.698 111.765 189.457 95.5084 182.57L8.70979 145.693C-6.7799 139.115 -0.358905 127.705 22.5111 120.394L140.762 82.6693C161.228 76.142 181.872 62.5864 186.937 52.6156L205.446 16.0731C210.063 6.97607 230.209 -0.630515 250.213 -0.861796L386.871 -2.84053C405.929 -3.11036 435.003 -7.26058 451.362 -12.0018L539.58 -37.5199ZM537.022 -37.0959C551.655 -41.3232 574.845 -41.3489 588.799 -37.1473L668.883 -13.2739C683.298 -8.98234 708.982 -5.37178 725.828 -5.28184L841.406 -4.67794C857.586 -4.58799 873.05 1.91358 875.864 9.89279L887.146 41.7454C890.215 50.3927 905.142 61.764 920.402 66.9036L1005.18 95.6596C1020.99 101.005 1024.56 110.397 1012.85 116.578L945.561 152.195C932.617 159.056 923.663 173.704 925.889 184.857L934.843 229.828C937.311 242.125 922.922 253.432 902.661 254.717L756.705 263.955C735.242 265.317 703.175 273.168 685.281 281.545L577.94 331.811C557.705 341.28 524.705 343.246 505.109 336.051L396.848 296.322C378.096 289.435 343.024 284.539 318.644 285.4L143.154 291.696C117.368 292.608 100.292 281.417 105.229 267.052L123.239 214.949C127.69 202.1 118.123 186.18 102.287 179.396L17.4971 143.059C2.36554 136.635 8.64584 125.354 31.017 118.184L146.633 81.0632C166.613 74.6387 186.848 61.34 191.811 51.5106L210.025 15.7134C214.553 6.79619 234.327 -0.643364 253.859 -0.990286L387.561 -3.14891C406.21 -3.44444 434.657 -7.53041 450.684 -12.1432L537.022 -37.0959ZM534.464 -36.6718C548.764 -40.7964 571.481 -40.8349 585.141 -36.8003L663.549 -13.6722C677.619 -9.50914 702.791 -5.96283 719.266 -5.86004L832.26 -5.0891C848.082 -4.96061 863.227 1.42532 866.015 9.22464L877.169 40.3705C880.2 48.8251 894.807 59.978 909.645 65.0534L992.427 93.4753C1007.87 98.7433 1011.34 107.995 999.948 114.034L934.241 149.163C921.591 155.921 912.83 170.312 914.978 181.285L923.574 225.46C925.953 237.512 911.857 248.588 892.044 249.937L749.299 259.381C728.309 260.769 696.92 268.478 679.397 276.624L574.307 325.656C554.507 334.894 522.21 336.822 503.024 329.819L397.065 291.144C378.697 284.449 344.418 279.58 320.589 280.415L149.14 286.274C123.942 287.122 107.238 276.098 112.047 262.066L129.558 211.082C133.881 198.503 124.569 182.904 109.092 176.223L26.2844 140.425C11.4982 134.001 17.6634 123.015 39.5101 116.012L152.504 79.5598C172.036 73.2638 191.823 60.1965 196.697 50.6111L214.604 15.3921C219.055 6.642 238.369 -0.66906 257.504 -1.02883L388.252 -3.41874C406.479 -3.75281 434.299 -7.77454 450.006 -12.2974L534.464 -36.6718ZM531.906 -36.2607C545.937 -40.2953 568.155 -40.3595 581.521 -36.4406L658.266 -13.9806C672.081 -9.93316 696.639 -6.48964 712.743 -6.3483L823.153 -5.42318C838.617 -5.26899 853.429 1.0013 856.192 8.62074L867.217 39.0728C870.21 47.3347 884.498 58.2691 898.977 63.2674L979.777 91.3423C994.844 96.4819 998.247 105.656 987.119 111.657L922.998 146.207C910.655 152.85 902.072 166.997 904.145 177.713L912.292 221.117C914.595 232.925 900.781 243.859 881.402 245.196L741.867 254.768C721.402 256.182 690.704 263.763 673.5 271.677L570.79 319.488C551.425 328.483 519.819 330.372 501.054 323.562L397.449 285.94C379.542 279.425 345.966 274.697 322.686 275.404L155.126 280.839C130.504 281.623 114.196 270.791 118.839 257.068L135.863 207.201C140.072 194.892 130.965 179.602 115.833 173.036L35.0717 137.791C20.6564 131.534 26.6681 120.677 48.016 113.751L158.375 77.928C177.446 71.7348 196.748 58.9244 201.57 49.5447L219.208 14.9938C223.57 6.42357 242.475 -0.784702 261.175 -1.15732L388.968 -3.72711C406.786 -4.08688 434.005 -8.04436 449.354 -12.4644L531.906 -36.2607ZM529.348 -35.8367C543.085 -39.7813 564.817 -39.8712 577.889 -36.0679L652.92 -14.3018C666.427 -10.4471 690.448 -7.0293 706.168 -6.84941L813.995 -5.75725C829.101 -5.56451 843.593 0.590139 846.317 8.02969L857.202 37.7622C860.17 45.8313 874.137 56.5474 888.258 61.4814L966.986 89.248C981.683 94.3875 984.995 103.382 974.136 109.254L911.602 143.278C899.565 149.818 891.136 163.708 893.144 174.205L900.96 216.735C903.172 228.299 889.64 239.054 870.722 240.403L734.449 250.181C714.405 251.62 684.385 259.021 667.617 266.756L567.221 313.347C548.278 322.11 517.337 323.96 499.033 317.343L397.692 280.787C380.13 274.453 347.385 269.814 324.656 270.508L161.087 275.519C137.053 276.226 121.09 265.6 125.618 252.186L142.144 203.437C146.224 191.397 137.334 176.454 122.587 170.029L43.859 135.337C29.7891 129.183 35.6856 118.518 56.5219 111.721L164.233 76.3604C182.857 70.2829 201.749 57.7295 206.443 48.5296L223.839 14.6469C228.124 6.25653 246.594 -0.836097 264.872 -1.24726L389.71 -4.03549C407.119 -4.42096 433.711 -8.31419 448.714 -12.6186L529.348 -35.8367ZM526.79 -35.4255C540.169 -39.2802 561.414 -39.3701 574.205 -35.6953L647.561 -14.6359C660.812 -10.8583 684.309 -7.59465 699.658 -7.37622L804.901 -6.09132C819.648 -5.87289 833.821 0.166125 836.519 7.43864L847.276 36.4644C850.206 44.3408 863.905 54.8513 877.616 59.6953L954.361 87.1407C968.687 92.1904 971.923 101.03 961.332 106.838L900.346 140.31C888.617 146.734 880.405 160.367 882.298 170.646L889.729 212.354C891.853 223.674 878.614 234.197 860.144 235.623L727.03 245.53C707.46 246.995 678.131 254.254 661.733 261.758L563.653 307.205C545.144 315.737 514.945 317.484 497.012 311.06L397.973 275.558C380.808 269.403 348.844 264.855 326.664 265.42L167.073 270.007C143.627 270.65 128.023 260.216 132.423 247.11L148.462 199.479C152.428 187.722 143.743 173.062 129.366 166.714L52.6207 132.51C38.9089 126.459 44.6776 115.987 64.9894 109.318L170.117 74.78C188.28 68.8053 206.737 56.5088 211.329 47.5145L228.367 14.2486C232.562 6.02525 250.623 -0.938889 268.466 -1.37575L390.35 -4.36956C407.349 -4.78073 433.327 -8.60972 447.985 -12.8113L526.79 -35.4255ZM524.231 -35.0015C537.304 -38.7405 558.063 -38.8562 570.56 -35.3227L642.188 -14.97C655.094 -11.308 678.003 -8.10861 692.968 -7.87733L795.64 -6.45109C810.03 -6.20696 823.882 -0.270742 826.543 6.80903L837.159 35.0767C840.05 42.7861 853.378 53.0653 866.783 57.8322L941.532 84.9435C955.487 89.9289 958.633 98.6277 948.324 104.345L888.962 137.303C877.54 143.638 869.507 157.001 871.323 167.061L878.371 207.947C880.405 219.022 867.46 229.404 849.425 230.805L719.522 240.956C700.425 242.446 671.786 249.552 655.759 256.85L559.995 300.986C541.908 309.274 512.413 311.047 494.902 304.841L398.165 270.393C381.396 264.431 350.199 259.972 328.583 260.46L172.97 264.623C150.112 265.189 134.866 254.961 139.138 242.163L154.768 195.637C158.606 184.15 150.138 169.798 136.132 163.515L61.3952 129.889C48.0416 123.94 53.7207 113.661 73.4826 107.108L175.95 73.1868C193.652 67.3276 211.675 55.2753 216.177 46.4738L232.933 13.9145C237.052 5.87106 254.677 -0.990285 272.099 -1.50424L391.053 -4.69079C407.681 -5.12765 432.994 -8.8924 447.333 -12.9912L524.231 -35.0015ZM521.673 -34.6803C534.464 -38.3165 554.712 -38.5349 566.914 -35.0529L636.983 -15.4068C649.581 -11.8734 671.927 -8.76391 686.521 -8.49408L786.597 -6.91365C800.667 -6.63098 814.161 -0.823244 816.783 6.0895L827.272 33.7148C830.124 41.2314 843.094 51.2793 856.141 55.9948L928.882 82.7721C942.466 87.6804 945.51 96.2506 935.495 101.866L877.706 134.284C866.591 140.515 858.737 153.557 860.477 163.464L867.141 203.527C869.085 214.358 856.422 224.547 838.847 225.987L712.141 236.266C693.505 237.782 665.557 244.733 649.901 251.826L556.4 294.767C538.749 302.823 509.957 304.558 492.855 298.519L398.421 265.112C382.048 259.33 351.619 254.961 330.553 255.372L178.905 259.098C156.623 259.599 141.811 249.577 145.879 237.075L160.933 191.667C164.656 180.45 156.393 166.419 142.77 160.303L70.1569 127.165C57.1615 121.332 62.6487 111.233 81.9629 104.808L181.731 71.5164C198.986 65.7601 216.561 53.9647 220.974 45.3688L237.487 13.4776C241.528 5.61408 258.732 -1.13162 275.718 -1.61988L391.693 -5.02486C407.86 -5.50027 432.623 -9.18792 446.591 -13.1839L521.673 -34.6803ZM519.115 -34.2819C531.573 -37.8282 551.361 -37.9953 563.269 -34.6931L631.559 -15.7409C643.864 -12.3359 665.647 -9.31641 679.87 -9.00804L777.375 -7.26058C791.035 -6.9522 804.235 -1.24726 806.794 5.48559L817.154 32.4684C819.968 39.7795 832.657 49.6218 845.358 54.3116L916.091 80.7676C929.304 85.5988 932.284 94.0278 922.487 99.5528L866.284 131.444C855.463 137.573 847.814 150.422 849.451 160.046L855.731 199.286C857.586 209.874 845.217 219.845 828.078 221.335L704.774 231.704C686.611 233.246 659.354 240.043 644.069 246.918L552.934 288.6C535.705 296.425 507.629 298.121 490.937 292.261L398.843 259.921C382.867 254.319 353.218 250.04 332.701 250.374L185.031 253.676C163.287 254.1 148.833 244.271 152.837 232.09L167.406 187.787C171 176.852 162.954 163.129 149.703 157.116L78.9314 124.531C66.2941 118.801 71.6535 108.894 90.4432 102.598L187.653 69.9488C204.448 64.3081 221.575 52.7698 225.898 44.3537L242.066 13.1179C246.031 5.4085 262.812 -1.19587 279.364 -1.72268L392.383 -5.32038C408.142 -5.82149 432.265 -9.4449 445.9 -13.3381L519.115 -34.2819ZM516.557 -33.8836C528.708 -37.3271 548.009 -37.5199 559.624 -34.3462L626.238 -16.0878C638.236 -12.8113 659.494 -9.85607 673.321 -9.53484L768.255 -7.59465C781.557 -7.24773 794.463 -1.67128 797.021 4.89454L807.254 31.1064C810.042 38.2247 822.398 47.8101 834.742 52.4228L903.467 78.4934C916.258 83.2475 919.212 91.5479 909.721 96.9702L855.105 128.322C844.59 134.348 837.121 146.927 838.681 156.345L844.565 194.764C846.343 205.043 834.255 214.936 817.563 216.414L697.33 227.092C679.64 228.659 653.073 235.315 638.159 241.971L549.34 282.419C532.545 290 505.16 291.658 488.89 286.004L399.073 254.73C383.507 249.32 354.612 245.119 334.646 245.388L190.954 248.267C169.836 248.626 155.702 239.003 159.565 227.104L173.635 183.919C177.114 173.254 169.273 159.853 156.393 153.955L87.7443 121.833C75.4651 116.205 80.6838 106.491 98.9747 100.311L193.512 68.3427C209.858 62.8176 226.538 51.5234 230.771 43.3129L246.645 12.7324C250.482 5.21576 266.893 -1.29866 282.996 -1.85117L393.061 -5.70585C408.41 -6.23266 431.907 -9.79182 445.21 -13.5823L516.557 -33.8836ZM513.999 -33.4725C525.856 -36.826 544.697 -37.0445 555.978 -33.9864L620.943 -16.4604C632.646 -13.3124 653.316 -10.4343 666.785 -10.036L759.122 -7.96727C772.066 -7.5818 784.704 -2.12099 787.172 4.26494L797.264 29.6673C800.002 36.5929 812.051 46.0112 824.036 50.5083L890.753 76.3091C903.224 80.9861 906.038 89.158 896.828 94.4775L843.797 125.315C833.565 131.238 826.3 143.561 827.783 152.76L833.283 190.356C834.972 200.456 823.179 210.092 806.921 211.596L689.847 222.453C672.631 224.046 646.742 230.548 632.212 236.998L545.707 276.226C529.335 283.576 502.653 285.22 486.805 279.734L399.291 249.513C384.121 244.283 356.006 240.172 336.615 240.365L196.876 242.832C176.346 243.127 162.583 233.696 166.306 222.119L179.902 180C183.266 169.618 175.63 156.512 163.121 150.73L96.4933 119.237C84.5594 113.725 89.6629 104.191 107.442 98.1394L199.383 66.7494C215.269 61.34 231.513 50.2899 235.645 42.2722L251.224 12.3598C255.061 5.01018 270.973 -1.37575 286.655 -1.95396L393.765 -5.94998C408.692 -6.50249 431.587 -10.0103 444.544 -13.6594L513.999 -33.4725ZM511.441 -33.0741C522.952 -36.3249 541.307 -36.5691 552.371 -33.6395L615.622 -16.7945C630.261 -13.3223 645.195 -11.2487 660.223 -10.6013L749.977 -8.36559C762.563 -7.95442 774.829 -2.60925 777.323 3.59679L787.275 28.3824C789.986 35.1153 801.716 44.3151 813.342 48.7352L878.051 74.2018C890.151 78.8146 892.889 86.8323 883.948 92.0747L832.503 122.373C822.603 128.193 815.504 140.258 816.898 149.227L822.015 186.001C823.613 195.856 812.102 205.274 796.305 206.829L682.467 217.866C665.724 219.485 640.526 225.832 626.353 232.064L542.177 270.058C526.24 277.164 500.249 278.757 484.823 273.476L399.61 244.309C384.837 239.26 357.503 235.238 338.636 235.315L202.887 237.345C182.934 237.563 169.542 228.351 173.136 217.057L186.195 176.145C189.431 166.033 182.013 153.249 169.887 147.569L105.268 116.591C93.756 111.181 98.6549 101.84 115.923 95.9166L205.228 65.169C220.667 59.8495 236.463 49.0693 240.467 41.2314L255.816 11.9872C259.538 4.81745 275.002 -1.45285 290.351 -2.0696L394.443 -6.30975C408.973 -6.90081 431.229 -10.3315 443.854 -13.9035L511.441 -33.0741ZM508.882 -32.663C520.164 -35.8624 538.007 -36.1065 548.726 -33.2926L610.288 -17.1543C624.516 -13.8251 639.017 -11.8122 653.611 -11.141L740.78 -8.73821C753.008 -8.28849 764.955 -3.05896 767.411 2.9672L777.298 27.0975C779.971 33.6377 791.368 42.6191 802.649 46.9749L865.324 72.1074C877.054 76.6431 879.701 84.5324 871.042 89.672L821.158 119.43C811.565 125.148 804.645 136.956 805.949 145.706L810.682 181.683C812.191 191.294 800.974 200.558 785.625 202.113L674.971 213.33C658.701 214.975 634.181 221.168 620.393 227.194L538.532 263.968C523.029 270.842 497.742 272.384 482.725 267.309L399.841 239.105C385.464 234.248 358.91 230.304 340.581 230.355L208.835 231.948C189.47 232.103 176.449 223.07 179.902 212.097L192.514 172.265C195.622 162.423 188.421 149.959 176.666 144.396L114.042 113.944C102.825 108.637 107.647 99.4886 124.416 93.6937L211.048 63.5757C226.026 58.4361 241.388 47.8358 245.34 40.2163L260.369 11.6788C264.002 4.68896 279.108 -1.4657 293.92 -2.10814L395.121 -6.50249C409.191 -7.11924 430.935 -10.4857 443.163 -13.9549L508.882 -32.663ZM506.324 -32.2647C517.248 -35.3227 534.605 -35.6054 545.042 -32.9199L604.916 -17.5012C618.761 -14.3108 632.861 -12.3587 647.049 -11.6678L731.635 -9.09798C743.505 -8.62257 755.131 -3.50868 757.562 2.35045L767.257 25.7484C770.007 32.0958 781.033 40.8588 791.943 45.0861L852.636 69.9488C863.994 74.4074 866.565 82.1553 858.174 87.205L809.902 116.436C800.616 122.051 793.875 133.59 795.103 142.134L799.452 177.263C800.871 186.63 789.948 195.714 775.034 197.282L667.591 208.666C651.794 210.337 627.939 216.376 614.547 222.183L534.976 257.736C519.895 264.379 495.324 265.883 480.704 261L400.122 233.94C386.142 229.263 360.342 225.421 342.563 225.383L214.77 226.552C195.993 226.629 183.33 217.802 186.63 207.137L198.782 168.436C201.775 158.876 194.778 146.709 183.433 141.261L122.791 111.31C111.932 106.17 116.626 97.1758 132.883 91.4708L216.919 61.9825C231.449 56.8429 246.338 46.5637 250.175 39.1756L264.872 11.2548C268.428 4.43198 283.111 -1.59419 297.488 -2.27518L395.735 -6.87511C411.481 -7.84029 427.103 -10.2837 442.396 -14.1733L506.324 -32.2647ZM503.766 -31.8663C514.382 -34.8216 531.241 -35.13 541.397 -32.573L599.633 -17.8738C613.092 -14.822 626.785 -12.9306 640.564 -12.2203L722.566 -9.48345C734.078 -8.96949 745.385 -3.97124 747.777 1.708L757.331 24.3993C759.89 30.5539 770.698 39.0985 781.263 43.3129L839.947 67.7902C850.922 72.1845 853.416 79.7911 845.294 84.7508L798.607 113.443C789.654 118.955 783.067 130.236 784.218 138.562L788.17 172.869C789.449 181.992 778.871 190.858 764.405 192.489L660.172 204.053C644.823 205.749 621.71 211.647 608.664 217.236L531.394 251.569C516.749 257.993 492.868 259.445 478.683 254.743L400.352 228.749C386.768 224.252 361.749 220.5 344.533 220.384L220.705 221.13C202.504 221.13 190.212 212.508 193.409 202.152L205.087 164.581C207.953 155.292 201.186 143.445 190.173 138.1L131.617 108.701C121.116 103.562 125.682 94.8501 141.415 89.2865L222.815 60.3892C236.885 55.4166 251.352 45.3816 255.125 38.1476L269.528 10.8822C273.007 4.23924 287.268 -1.68413 301.21 -2.39082L396.515 -7.18348C411.798 -8.17279 426.959 -10.5685 441.807 -14.3404L503.766 -31.8663ZM501.208 -31.4552C511.517 -34.3205 527.902 -34.6546 537.751 -32.2133L594.248 -18.1822C607.295 -15.2742 620.556 -13.4435 633.9 -12.7085L713.318 -9.81752C724.472 -9.27786 735.459 -4.39526 737.813 1.11694L747.239 23.1015C749.798 29.0763 760.248 37.4024 770.455 41.5398L827.22 65.6444C837.837 69.9617 840.229 77.4269 832.337 82.3481L787.288 110.487C778.603 115.897 772.246 126.921 773.307 135.029L776.876 168.513C778.155 177.379 767.769 186.103 753.75 187.787L652.702 199.531C637.84 201.252 615.392 206.996 602.716 212.38L527.826 245.401C513.602 251.569 490.425 253.008 476.662 248.498L400.672 223.558C387.497 219.241 363.233 215.579 346.58 215.399L226.729 215.72C209.116 215.72 197.195 207.227 200.252 197.179L211.38 160.727C214.13 151.732 207.543 140.168 196.927 134.952L140.391 106.08C130.248 101.095 134.674 92.5244 149.908 87.0893L228.686 58.8216C242.296 53.9519 256.327 44.1738 260.011 37.1326L274.081 10.5352C277.471 4.11075 291.323 -1.73553 304.779 -2.46792L397.116 -7.46616C411.933 -8.47945 426.629 -10.8274 441.027 -14.4817L501.208 -31.4552ZM498.65 -31.0568C508.652 -33.8194 524.538 -34.1791 534.106 -31.8535L588.927 -18.5163C601.562 -15.7518 614.391 -13.9819 627.3 -13.2225L704.262 -10.1644C715.058 -9.58624 725.725 -4.81927 728.053 0.500196L737.352 21.7781C739.91 27.5601 750.015 35.6678 759.851 39.7666L814.519 63.5372C824.752 67.7773 827.08 75.1012 819.52 79.8811L776.032 107.519C767.654 112.826 761.476 123.58 762.448 131.47L765.633 164.132C766.784 172.753 756.679 181.285 743.159 182.943L645.335 194.866C630.945 196.614 609.188 202.203 596.883 207.368L524.283 239.234C510.494 245.157 488.008 246.558 474.654 242.253L400.966 218.367C388.175 214.243 364.704 210.658 348.6 210.401L232.728 210.298C215.691 210.17 204.141 201.933 207.057 192.194L217.712 156.808C220.334 148.07 213.977 136.84 203.719 131.727L149.191 103.395C139.406 98.512 143.704 90.1345 158.426 84.8279L234.57 57.2412C247.732 52.4871 261.316 42.9532 264.897 36.1047L278.711 10.1626C282.024 3.86662 295.442 -1.82547 308.527 -2.58356L397.909 -7.78738C412.263 -8.82421 426.498 -11.1244 440.451 -14.6616L498.65 -31.0568ZM496.092 -30.6457C505.787 -33.3183 521.187 -33.6909 530.46 -31.4937L583.594 -18.8632C595.849 -16.2293 608.281 -14.5114 620.789 -13.7236L695.053 -10.4985C705.49 -9.89461 715.838 -5.24329 718.076 -0.0908579L727.247 20.4675C729.806 26.0568 739.552 33.946 748.992 37.9421L801.805 61.4043C811.68 65.5673 813.905 72.7756 806.627 77.4398L764.686 104.538C756.615 109.678 750.616 120.24 751.512 127.91L754.313 159.75C755.374 168.128 745.615 176.454 732.479 178.15L637.827 190.241C623.91 192.014 602.831 197.449 590.91 202.409L520.56 233.041C507.194 238.733 485.424 240.095 472.48 235.97L401.094 213.138C388.713 209.193 366.009 205.698 350.455 205.428L238.548 204.889C222.099 204.696 210.92 196.665 213.696 187.221L223.852 152.94C226.41 144.473 220.206 133.564 210.319 128.527L157.876 100.722C148.45 95.9423 152.607 87.7575 166.83 82.5665L240.339 55.5837C253.04 50.9324 266.189 41.6554 269.681 35.0253L283.201 9.75145C286.424 3.63534 299.433 -1.94111 312.083 -2.72489L398.51 -8.13431C412.401 -9.19445 426.176 -11.447 439.684 -14.8672L496.092 -30.6457ZM493.533 -30.2345C502.922 -32.8043 517.836 -33.2026 526.79 -31.1339L578.234 -19.2101C590.094 -16.7253 602.113 -15.0766 614.202 -14.2761L685.831 -10.8968C695.91 -10.2672 705.938 -5.75725 708.189 -0.746155L717.219 19.1312C719.829 24.5277 729.32 32.2371 738.452 36.0918L789.104 59.2199C798.595 63.3188 800.743 70.3728 793.734 74.9599L753.379 101.621C745.615 106.761 739.808 116.963 740.588 124.416L743.006 155.433C743.978 163.566 734.513 171.738 721.824 173.421L630.421 185.692C616.978 187.491 596.589 192.785 585.039 197.526L517.068 226.937C504.137 232.398 483.07 233.709 470.548 229.79L401.478 208.011C389.493 204.246 367.557 200.854 352.553 200.443L244.624 199.479C228.763 199.209 217.942 191.384 220.59 182.249L230.234 149.034C232.626 140.849 226.691 130.249 217.175 125.354L166.689 98.088C157.621 93.4239 161.637 85.419 175.349 80.3565L246.261 54.0804C258.515 49.5447 271.203 40.5247 274.618 34.0617L287.793 9.40452C290.939 3.46831 303.526 -1.9925 315.741 -2.81484L399.214 -8.41698C412.641 -9.5001 425.956 -11.7049 439.019 -15.0085L493.533 -30.2345ZM490.975 -29.8233C500.057 -32.3032 514.485 -32.7144 523.17 -30.7742L573.028 -19.5699C584.489 -17.2267 596.089 -15.6386 607.755 -14.8158L676.826 -11.2695C686.547 -10.6013 696.242 -6.12987 698.468 -1.37575L707.422 17.7949C709.852 22.9345 719.023 30.4511 727.785 34.3058L776.39 57.1513C785.522 61.173 787.582 68.0986 780.841 72.57L742.072 98.602C734.615 103.587 728.987 113.571 729.716 120.818L731.737 151.013C732.632 158.902 723.449 166.881 711.208 168.603L622.951 181.054C609.981 182.878 590.283 188.018 579.104 192.541L513.449 220.719C500.952 225.935 480.576 227.22 468.463 223.481L401.695 202.769C390.107 199.196 368.951 195.881 354.497 195.393L250.546 194.006C235.261 193.671 224.811 186.039 227.331 177.212L236.514 145.167C238.778 137.252 233.061 126.96 223.915 122.18L175.489 95.4412C166.779 90.8798 170.667 83.0676 183.867 78.1336L252.119 52.4357C263.912 48.0028 276.166 39.2398 279.479 32.9824L292.41 9.0319C295.48 3.26272 307.644 -2.08245 319.425 -2.93048L400.007 -8.73821C412.949 -9.84022 425.781 -11.9887 438.379 -15.1627L490.975 -29.8233ZM488.417 -29.4122C497.192 -31.7892 511.134 -32.239 519.524 -30.4144L567.605 -19.8911C578.69 -17.6821 589.898 -16.1503 601.168 -15.304L667.681 -11.5907C677.043 -10.8968 686.419 -6.57958 688.619 -1.96681L697.394 16.4972C699.785 21.5082 708.624 28.7551 717.053 32.5327L763.688 55.044C772.45 58.9887 774.433 65.7729 767.961 70.1672L730.778 95.6724C723.615 100.555 718.179 110.282 718.818 117.31L720.468 146.593C721.274 154.302 712.372 162.012 700.578 163.785L615.596 176.415C601.166 178.767 586.993 182.502 573.271 187.568L509.931 214.551C497.857 219.536 478.184 220.783 466.442 217.236L401.977 197.578C390.797 194.185 370.396 190.96 356.492 190.408L256.519 188.596C241.823 188.185 231.743 180.758 234.123 172.239L242.808 141.299C244.956 133.654 239.444 123.683 230.669 119.006L184.213 92.8071C175.86 88.3485 179.608 80.7291 192.309 75.9107L257.926 50.8553C269.272 46.538 281.078 38.0063 284.301 31.9544L296.938 8.65929C299.931 3.06999 311.661 -2.15954 323.019 -3.03327L400.582 -9.04658C413.092 -10.1759 425.494 -12.2852 437.676 -15.3554L488.417 -29.4122ZM485.859 -29.001C494.326 -31.2881 507.782 -31.7507 515.879 -30.0418L562.271 -20.2123C572.936 -18.1561 583.705 -16.6933 594.53 -15.8308L658.484 -11.9761C667.437 -11.2438 676.557 -7.05499 678.706 -2.60926L687.34 15.148C689.694 19.9664 698.225 26.9947 706.283 30.6952L750.974 52.7955C759.352 56.6501 761.207 63.3188 755.067 67.6232L719.483 92.6272C712.627 97.407 707.383 106.877 707.972 113.687L709.251 142.237C709.967 149.638 701.359 157.245 690.064 159.018L608.293 171.867C594.4 174.233 580.748 177.854 567.503 182.686L506.478 208.383C494.838 213.138 475.869 214.345 464.588 210.953L402.424 192.348C391.642 189.136 372.008 186.001 358.667 185.371L262.659 183.135C248.589 182.66 238.83 175.426 241.081 167.215L249.28 137.393C251.301 130.031 246.005 120.368 237.614 115.807L193.179 90.1088C185.172 85.7659 188.805 78.3263 200.982 73.6365L263.976 49.2234C274.861 45.0218 286.232 36.7471 289.353 30.888L301.697 8.26097C304.6 2.85156 315.92 -2.26233 326.843 -3.17461L401.452 -9.38065C413.485 -10.5348 425.414 -12.5964 437.139 -15.5482L485.859 -29.001ZM483.301 -28.5898C491.461 -30.7742 504.431 -31.2624 512.234 -29.682L557.001 -20.5592C565.072 -18.9403 579.066 -17.0515 588.032 -16.3576L649.428 -12.3231C658.062 -11.5521 666.811 -7.47901 668.934 -3.21316L677.44 13.8374C679.755 18.463 687.967 25.273 695.667 28.9092L738.286 50.7525C746.293 54.6072 748.109 61.0316 742.2 65.2718L708.189 89.6848C701.64 94.3618 696.575 103.575 697.048 110.153L697.918 137.881C698.545 145.038 690.243 152.465 679.32 154.264L600.746 167.241C587.4 169.619 574.277 173.122 561.517 177.713L502.807 202.216C491.589 206.726 473.388 207.895 462.464 204.786L402.603 187.234C392.217 184.215 373.364 181.157 360.56 180.45L268.53 177.777C254.997 177.225 245.647 170.196 247.77 162.359L255.445 133.641C257.351 126.548 252.26 117.194 244.24 112.749L201.826 87.4876C194.151 83.2475 197.669 76.0007 209.347 71.4393L269.707 47.6559C280.144 43.5571 291.067 35.5393 294.099 29.8729L306.148 7.9012C308.975 2.65882 319.872 -2.37797 330.361 -3.26455L401.989 -9.68903C413.558 -10.8628 425.027 -12.8724 436.307 -15.7023L483.301 -28.5898ZM480.743 -28.1787C489.87 -30.3173 499.317 -30.7053 508.588 -29.3222L551.617 -20.9062C559.381 -19.4157 572.824 -17.604 581.406 -16.8844L640.27 -12.7342C648.545 -11.9376 656.975 -7.98012 659.072 -3.8813L667.45 12.4626C669.727 16.8955 677.683 23.487 684.974 27.059L725.585 48.581C733.259 52.3072 734.96 58.6803 729.32 62.7919L696.869 86.7039C690.627 91.2781 685.741 100.221 686.125 106.594L686.611 133.5C687.148 140.413 679.115 147.634 668.704 149.471L593.34 162.628C580.524 165.017 567.912 168.407 555.62 172.766L499.225 196.036C488.443 200.314 470.868 201.445 460.431 198.477L402.872 181.979C389.651 178.605 376.16 176.404 362.555 175.4L274.478 172.291C261.533 171.674 252.554 164.838 254.537 157.245L261.751 129.645C263.529 122.835 258.655 113.789 251.006 109.459L210.613 84.9179C203.322 80.7805 206.686 73.7264 217.853 69.2935L275.578 46.1654C285.554 42.1822 296.043 34.4214 298.972 28.9349L310.727 7.63137C313.464 2.56888 323.953 -2.31373 334.006 -3.2774L402.706 -9.89461C413.81 -11.0924 424.818 -13.0543 435.655 -15.7666L480.743 -28.1787ZM478.184 -27.7675C486.955 -29.8127 496.026 -30.2178 504.943 -28.9625L546.283 -21.2531C553.74 -19.8911 566.62 -18.1565 574.845 -17.3984L631.035 -13.0298C638.952 -12.2074 647.062 -8.35274 649.121 -4.44665L657.448 11.152C659.699 15.3921 667.258 21.7652 674.255 25.2858L712.858 46.4866C720.123 50.1357 721.811 56.3803 716.414 60.3892L685.588 83.7358C679.653 88.2072 674.946 96.8931 675.253 103.009L675.342 129.093C675.803 135.761 668.051 142.815 658.049 144.666L585.896 158.003C573.614 160.401 561.518 163.673 549.698 167.794L495.618 189.842C485.258 193.877 468.399 194.982 458.371 192.207L403.128 176.788C390.459 173.6 377.553 171.452 364.538 170.363L280.451 166.843C268.095 166.149 259.474 159.519 261.265 152.234L267.993 125.752C269.655 119.212 264.987 110.487 257.76 106.26L219.388 82.1939C212.455 78.1593 215.678 71.298 226.346 66.9807L281.397 44.5079C290.927 40.6532 300.955 33.1237 303.807 27.8042L315.319 7.15596C317.979 2.2605 328.033 -2.49361 337.664 -3.48298L403.409 -10.2929C414.044 -11.5146 424.589 -13.4288 434.977 -16.0236L478.184 -27.7675ZM475.626 -27.3563C484.038 -29.3205 492.733 -29.7556 501.297 -28.6412L540.949 -21.6257C548.112 -20.3408 560.429 -18.7347 568.283 -17.9638L621.889 -13.4281C629.449 -12.5672 637.238 -8.841 639.259 -5.10195L647.369 9.84139C649.581 13.9017 656.821 20.0563 663.46 23.4741L700.054 44.3408C707.051 47.9 708.611 54.0033 703.495 57.935L674.268 80.7676C668.627 85.1363 664.125 93.6166 664.342 99.5014L664.061 124.75C664.432 131.174 656.975 138.035 647.433 139.911L578.49 153.429C566.748 155.84 555.17 158.999 543.827 162.885L492.062 183.701C482.137 187.555 465.969 188.558 456.363 185.975L403.422 171.597C391.299 168.622 378.973 166.552 366.546 165.404L286.437 161.459C274.657 160.701 266.407 154.264 268.121 147.325L274.363 121.949C275.897 115.678 271.446 107.262 264.552 103.151L228.162 79.5984C221.588 75.6795 224.683 68.998 234.826 64.8092L287.268 42.966C296.337 39.2013 305.93 31.9416 308.693 26.8534L319.86 6.87328C322.418 2.15771 332.075 -2.49361 341.271 -3.50868L404.062 -10.5242C414.232 -11.7695 424.317 -13.6361 434.261 -16.1135L475.626 -27.3563ZM473.068 -26.9452C481.127 -28.7993 489.445 -29.2341 497.652 -28.2301L535.615 -21.9212C542.471 -20.8162 554.239 -19.2487 561.708 -18.4392L612.731 -13.7493C619.932 -12.8627 627.402 -9.23932 629.359 -5.68016L637.341 8.55649C639.515 12.4112 646.435 18.3602 652.69 21.701L687.225 42.2593C693.748 45.7671 695.245 51.729 690.423 55.558L662.973 77.7995C657.64 82.0654 653.316 90.2245 653.457 95.9551L652.779 120.368C653.061 126.548 645.885 133.217 636.765 135.132L571.033 148.816C559.831 151.241 548.772 154.287 537.905 157.938L488.455 177.52C478.952 181.092 463.488 182.107 454.304 179.717L403.665 166.393C392.092 163.624 380.35 161.624 368.516 160.405L292.385 156.037C281.193 155.202 273.314 148.97 274.887 142.301L280.63 118.042C282.05 112.055 277.803 103.909 271.28 99.9511L236.937 76.9515C230.72 73.0968 233.675 66.6723 243.332 62.5864L293.216 41.3342C301.824 37.6851 310.983 30.6696 313.682 25.7869L324.554 6.51351C327.112 1.97783 336.27 -2.55786 345.019 -3.61147L404.855 -10.8326C414.534 -12.1165 424.134 -13.9482 433.608 -16.3191L473.068 -26.9452ZM470.51 -26.534C478.216 -28.2763 486.158 -28.7106 494.007 -27.8189L530.294 -22.2039C536.843 -21.2145 548.061 -19.7369 555.147 -18.9017L603.726 -14.1605C610.569 -13.2353 617.72 -9.74043 619.677 -6.3483L627.517 7.18166C629.653 10.8565 636.266 16.5742 642.188 19.8507L674.767 40.0621C680.919 43.4928 682.326 49.3262 677.785 53.0524L651.692 74.8957C646.665 79.0587 642.521 86.9608 642.585 92.473L641.523 116.089C641.715 122.026 634.834 128.514 626.174 130.442L563.653 144.306C554.456 146.349 540.258 150.268 532.059 153.082L484.925 171.443C475.856 174.771 461.096 175.76 452.321 173.55L403.998 161.279C392.971 158.711 381.808 156.776 370.562 155.484L298.409 150.679C287.793 149.779 280.285 143.74 281.781 137.38L287.038 114.252C288.317 108.534 284.301 100.748 278.149 96.8545L245.724 74.3175C239.866 70.6041 242.692 64.3081 251.825 60.3635L299.023 39.8052C307.184 36.2588 315.894 29.526 318.465 24.8104L329.043 6.15374C331.461 1.78509 340.261 -2.6221 348.588 -3.70141L405.469 -11.1795C414.708 -12.471 423.874 -14.2422 432.93 -16.4861L470.51 -26.534ZM467.952 -26.1228C475.304 -27.7889 482.874 -28.2575 490.374 -27.5105L524.909 -22.6022C531.164 -21.7414 541.819 -20.3408 548.534 -19.4799L594.389 -14.456C600.874 -13.5052 607.704 -10.113 609.636 -6.91365L617.31 5.9353C619.408 9.41737 625.701 14.9296 631.265 18.129L661.835 38.0192C667.617 41.3727 668.934 47.0134 664.675 50.7011L640.359 71.8633C635.639 75.9236 631.687 83.5687 631.649 88.8496L630.203 111.644C630.306 117.336 623.718 123.645 615.494 125.598L556.183 139.642C547.459 141.71 533.94 145.475 526.112 148.083L481.344 165.224C472.697 168.32 458.64 169.258 450.288 167.254L404.241 156.037C396.246 154.122 382.023 151.591 372.532 150.435L304.357 145.205C294.329 144.241 287.179 138.395 288.496 132.356L293.267 110.32C294.444 104.872 290.62 97.3942 284.851 93.6166L254.537 71.6834C249.037 68.0857 251.723 61.9696 260.344 58.1535L304.92 38.1733C312.594 34.7427 320.883 28.2411 323.364 23.744L333.597 5.75542C335.938 1.56666 344.303 -2.72489 352.195 -3.84275L406.146 -11.4493C413.667 -12.5158 425.422 -14.8415 432.227 -16.5889L467.952 -26.1228ZM465.394 -25.7117C472.39 -27.2861 479.586 -27.7714 486.729 -27.1508L519.755 -23.0134C525.702 -22.281 535.794 -20.9576 542.139 -20.071L585.41 -14.9314C591.537 -13.942 598.047 -10.6784 599.94 -7.64605L607.564 4.54762C609.636 7.83695 615.596 13.1179 620.802 16.253L649.364 35.8091C654.775 39.0856 656.015 44.6492 652.025 48.1955L629.065 68.8952C624.652 72.8527 620.879 80.2408 620.764 85.3033L618.935 107.275C618.935 112.723 612.654 118.839 604.865 120.818L548.726 135.029C540.476 137.123 527.647 140.747 520.189 143.136L477.724 159.056C469.512 161.922 456.159 162.821 448.215 161.009L404.496 150.846C396.899 149.111 383.455 146.67 374.515 145.449L310.305 139.796C300.865 138.755 294.086 133.114 295.263 127.371L299.548 106.453C300.597 101.313 296.989 94.1177 291.592 90.4558L263.273 69.0494C258.157 65.5545 260.715 59.6311 268.798 55.9434L310.74 36.5929C317.992 33.265 325.807 27.0204 328.199 22.716L338.202 5.3828C340.453 1.37392 348.434 -2.81484 355.866 -3.94555L406.837 -11.7706C413.936 -12.8627 425.077 -15.1241 431.549 -16.7945L465.394 -25.7117ZM462.835 -25.3005C469.51 -26.8191 476.371 -27.3472 483.198 -26.8681L514.434 -23.3603C520.087 -22.7564 529.616 -21.5229 535.59 -20.5978L576.277 -15.2526C582.046 -14.2376 588.237 -11.0767 590.091 -8.22425L597.536 3.18563C599.569 6.28223 605.21 11.3576 610.071 14.4156L636.624 33.6891C641.664 36.9013 642.815 42.3236 639.106 45.7671L617.796 65.9399C613.69 69.7946 610.122 76.913 609.904 81.7699L607.64 102.906C607.564 108.046 601.565 114.046 594.223 116.051L541.32 130.442C533.543 132.562 521.405 136.031 514.318 138.151L474.142 152.837C466.366 155.407 453.677 156.332 446.182 154.701L404.765 145.603C397.564 144.049 384.888 141.749 376.497 140.464L316.265 134.374C307.401 133.268 300.993 127.833 302.042 122.385L305.879 102.585C306.813 97.6897 303.41 90.8412 298.384 87.2821L272.06 66.4153C267.264 63.0232 269.694 57.3054 277.292 53.7334L316.598 35.0125C323.39 31.8003 330.77 25.7998 333.072 21.6881L342.768 4.98448C344.942 1.1298 352.476 -2.91763 359.498 -4.08688L407.515 -12.1046C414.205 -13.2225 424.719 -15.4325 430.858 -16.9872L462.835 -25.3005ZM460.277 -24.8765C466.573 -26.2627 473.029 -26.7772 479.463 -26.4055L509.074 -23.6558C514.421 -23.1804 523.4 -22.024 528.99 -21.0861L567.106 -15.5739C572.517 -14.5202 578.388 -11.4879 580.204 -8.80245L587.52 1.91358C589.516 4.81745 594.837 9.62296 599.339 12.6553L623.885 31.5561C628.553 34.6913 629.615 39.9722 626.174 43.3258L606.464 62.9718C602.626 66.7237 599.25 73.5851 598.968 78.2235L596.41 98.5506C596.244 103.51 590.526 109.254 583.619 111.284L533.927 125.855L508.447 133.281L470.587 146.734C463.232 149.124 451.272 149.959 444.174 148.52L405.059 140.477C398.254 139.102 386.359 136.841 378.518 135.479L322.239 128.964C313.963 127.782 307.926 122.54 308.834 117.4L312.095 98.7176C312.901 94.1049 309.716 87.5519 305.061 84.1084L280.758 63.7685C276.32 60.4791 278.609 54.9541 285.708 51.4977L322.456 33.4321C328.851 30.3355 335.733 24.5791 337.933 20.6731L347.347 4.66326C349.445 1.00131 356.556 -2.94333 363.144 -4.15113L408.206 -12.3745C414.486 -13.5309 424.386 -15.6638 430.168 -17.1157L460.277 -24.8765ZM457.719 -24.4525C463.653 -25.7427 469.726 -26.2737 475.793 -26.0329L503.651 -23.9385C508.691 -23.5916 517.12 -22.5123 522.338 -21.5358L557.871 -15.8565C562.924 -14.7772 568.475 -11.8477 570.266 -9.35496L577.454 0.654382C580.684 4.56042 584.418 8.01716 588.556 10.9335L611.094 29.5003C615.392 32.5583 616.376 37.7108 613.204 40.9616L595.156 60.0166C591.652 63.6657 588.441 70.2957 588.07 74.6901L585.077 94.1948C584.834 98.8975 579.398 104.474 572.952 106.517L526.47 121.28C519.639 123.452 508.87 126.613 502.525 128.373L466.98 140.605C460.06 142.751 448.804 143.548 442.114 142.314L405.302 135.324C398.907 134.142 387.766 131.971 380.488 130.519L328.199 123.58C320.525 122.295 314.833 117.297 315.6 112.466L318.414 94.8886C319.105 90.5457 316.125 84.314 311.852 80.9861L289.609 61.1601C285.529 57.9864 287.691 52.6413 294.278 49.3134L328.314 31.8645C334.198 28.8707 340.696 23.3842 342.806 19.658L351.926 4.31634C353.934 0.83427 360.637 -3.00757 366.789 -4.22822L408.896 -12.6571C414.767 -13.8392 424.041 -15.9079 429.49 -17.2442L457.719 -24.4525ZM455.161 -24.0285C460.737 -25.2259 466.433 -25.7735 472.134 -25.6603L498.445 -24.2983C504.303 -23.941 510.131 -23.1985 515.892 -22.0754L548.841 -16.2291C553.535 -15.1113 558.767 -12.3102 560.519 -9.98456L567.567 -0.681911C570.665 2.95475 574.153 6.23812 577.966 9.109L598.431 27.3545C602.358 30.3483 603.266 35.3466 600.375 38.5203L583.747 57.0999C580.549 60.6462 577.518 66.9936 577.07 71.2337L573.693 89.9161C573.361 94.3747 568.219 99.7712 562.182 101.84L519.051 116.693C512.656 118.891 502.615 121.91 496.642 123.439L463.385 134.438C455.782 136.438 447.873 136.987 440.068 136.057L405.532 130.12C399.534 129.118 389.173 127.037 382.432 125.508L334.121 118.145C327.01 116.86 321.701 111.991 322.341 107.455L324.656 90.9954C325.232 86.9223 322.456 81.0118 318.555 77.7867L298.333 58.5132C294.61 55.4423 296.631 50.2899 302.72 47.0905L334.134 30.2712C339.557 27.3931 345.646 22.1507 347.641 18.6301L356.505 3.96942C358.437 0.654384 364.704 -3.05897 370.434 -4.31817L409.587 -12.9398C415.049 -14.1476 423.657 -16.1521 428.773 -17.3856L455.161 -24.0285ZM452.603 -23.5916C457.832 -24.6919 463.159 -25.2516 468.502 -25.262L492.996 -24.5681C498.45 -24.3528 503.877 -23.6693 509.215 -22.5251L539.708 -16.5889C544.032 -15.4325 548.956 -12.7342 550.683 -10.6013L557.603 -2.00535C560.567 1.36111 563.805 4.47283 567.285 7.2973L585.819 25.2216C589.375 28.1383 590.194 33.0081 587.572 36.079L572.555 54.0804C569.424 58.0155 567.275 62.6456 566.288 67.5846L562.527 85.4447C562.105 89.6591 557.257 94.863 551.693 97.0087L511.632 112.119C504.791 114.628 497.824 116.772 490.758 118.544L459.842 128.322C452.735 130.082 445.38 130.603 438.098 129.864L405.903 124.994C400.301 124.171 390.708 122.18 384.53 120.587L340.197 112.8C333.674 111.412 328.685 106.774 329.235 102.521L331.064 87.1664C331.512 83.3117 328.954 77.761 325.424 74.6515L307.171 55.9306C303.807 52.9625 305.7 48.0028 311.264 44.919L340.043 28.7422C345.019 25.9668 350.621 21.0328 352.553 17.6536L361.084 3.63534C362.939 0.500199 368.759 -3.09751 374.08 -4.38241L410.278 -13.2096C415.33 -14.4945 423.363 -16.3833 428.185 -17.514L452.603 -23.5916ZM450.045 -23.1419C454.922 -24.1497 459.878 -24.7258 464.856 -24.8637H487.662C492.754 -24.8046 497.824 -24.1841 502.781 -23.0134L530.563 -16.8459C534.528 -15.6638 539.133 -13.094 540.795 -11.1153L547.575 -3.226C550.4 -0.124772 553.389 2.82188 556.528 5.60123L573.028 23.1272C576.213 25.9668 576.955 30.7081 574.602 33.6762L561.248 51.2022C558.419 55.053 556.423 59.4561 555.39 64.1282L551.284 81.166C550.772 85.1363 546.168 90.1602 541.051 92.2803L504.188 107.558C497.903 110.066 491.438 112.093 484.848 113.622L456.248 122.18C449.621 123.703 442.801 124.197 436.026 123.645L406.134 119.79C399.492 118.84 392.923 117.432 386.474 115.575L346.119 107.352C340.171 105.9 335.605 101.454 335.976 97.5484L337.255 83.3117C337.588 79.7911 335.234 74.4973 332.139 71.5035L315.933 53.3223C312.927 50.4698 314.654 45.69 319.77 42.7347L345.914 27.1875C350.43 24.5277 355.597 19.7865 357.426 16.6642L365.663 3.31412C367.429 0.346011 372.865 -3.11036 377.725 -4.39526L410.981 -13.3895C415.624 -14.6744 423.043 -16.5247 427.456 -17.5526L450.045 -23.1419ZM447.486 -22.3324C452.014 -23.2475 456.6 -23.8401 461.211 -24.1056L482.329 -24.8123C487.032 -24.9217 491.728 -24.3769 496.283 -23.1933L521.481 -16.8587C524.975 -15.7144 528.202 -13.8746 530.972 -11.4493L537.623 -4.26677C539.44 -2.31373 543.175 1.45102 545.886 4.07221L560.391 21.3284C563.205 24.0909 563.857 28.6908 561.785 31.6075L550.005 48.6324C547.478 52.395 545.629 56.5746 544.543 60.9802L539.964 77.2085C539.363 80.9347 535.091 85.7659 530.422 87.9117L496.769 103.33C491.04 105.845 485.07 107.765 478.952 109.061L452.667 116.385C446.529 117.668 440.25 118.13 433.992 117.76L406.402 114.997C400.317 114.247 394.319 112.9 388.495 110.976L352.105 102.328C346.746 100.799 342.538 96.559 342.781 92.9613L343.638 79.8425C343.842 76.5917 341.706 71.6192 338.931 68.7282L324.733 51.0865C322.085 48.3369 323.71 43.7498 328.263 40.923L351.747 26.0054C355.815 23.4356 360.534 18.9641 362.287 16.0346L370.23 3.33981C371.918 0.55159 376.932 -2.81484 381.358 -4.16398L411.646 -13.3895C415.867 -14.6744 422.672 -16.499 426.752 -17.4113L447.486 -22.3324ZM444.928 -21.5229C449.107 -22.3469 453.325 -22.9559 457.566 -23.3475L477.097 -24.8123C481.326 -25.0243 485.56 -24.516 489.619 -23.3089L512.234 -16.8202C515.451 -15.5985 518.439 -13.8391 521.072 -11.6164L527.595 -5.19189C529.373 -3.43159 532.788 0.11473 535.142 2.67167L547.639 19.5937C550.082 22.292 550.657 26.7506 548.918 29.5388L538.685 45.9984C536.468 49.6684 534.768 53.6293 533.633 57.768L528.708 73.1868C528.017 76.6688 524.04 81.3201 519.755 83.4659L489.312 99.1031C484.149 101.623 478.673 103.438 473.03 104.5L449.098 110.616C443.451 111.656 437.709 112.086 431.971 111.901L406.696 110.192C401.148 109.637 395.698 108.34 390.49 106.337L358.079 97.2657C353.295 95.6724 349.457 91.625 349.573 88.2714L349.931 76.2577C350.02 73.2895 348.089 68.6125 345.684 65.85L333.52 48.7223C331.231 46.0755 332.714 41.6811 336.756 38.97L357.631 24.8233C361.341 22.2811 364.572 19.0964 367.173 15.4178L374.847 3.39121C376.459 0.82142 381.038 -2.46792 385.08 -3.84275L412.414 -13.2739C416.251 -14.5588 422.404 -16.3448 426.151 -17.1286L444.928 -21.5229ZM442.37 -20.7134C445.606 -21.3559 450.799 -22.1911 453.882 -22.5894L471.635 -24.7095C475.444 -25.0756 479.287 -24.638 482.917 -23.4246L502.947 -16.7688C505.856 -15.4794 508.586 -13.8166 511.07 -11.822L517.465 -6.03993C519.944 -3.73858 522.269 -1.27474 524.423 1.33538L534.912 17.9362C535.94 19.2961 536.58 20.912 536.763 22.61C536.945 24.308 536.664 26.0238 535.948 27.573L527.288 43.4928C525.385 47.064 523.83 50.812 522.645 54.6843L517.337 69.255C516.57 72.4929 512.873 76.9643 509.087 79.1487L481.855 94.9657C477.263 97.4827 472.274 99.1906 467.108 100.015L445.453 104.885C440.298 105.688 435.09 106.092 429.873 106.093L406.85 105.438C401.845 105.097 396.938 103.87 392.358 101.814L363.911 92.3189C359.716 90.6485 356.237 86.8066 356.237 83.8128L356.109 72.9169C355.729 69.3897 354.402 66.0324 352.271 63.2031L342.128 46.6023C340.197 44.0325 341.553 39.8566 345.083 37.2739L363.336 23.6283C366.635 21.1493 369.523 18.1614 371.893 14.7754L379.247 3.40406C380.769 0.962761 384.939 -2.17239 388.508 -3.57293L412.874 -13.2096C416.904 -14.7487 421.037 -15.9982 425.243 -16.9487L442.37 -20.7134ZM439.812 -20.1224L450.275 -22.0369L466.34 -24.8508C469.733 -25.3489 473.197 -24.9549 476.394 -23.7072L493.84 -16.8844C496.485 -15.5628 499.013 -14.0198 501.4 -12.2717L507.654 -7.19633C509.961 -5.15194 512.014 -2.83521 513.768 -0.296441L522.249 15.9703C523.103 17.3516 523.625 18.9137 523.774 20.5329C523.922 22.152 523.694 23.7837 523.106 25.2987L516.032 40.7174C514.664 43.6341 512.745 48.4268 511.786 51.3307L506.094 65.0791C505.237 68.0729 501.835 72.3516 498.496 74.5744L474.539 90.5457C470.51 93.0428 465.988 94.6299 461.288 95.197L441.948 98.8333C438.021 99.3344 431.715 99.8612 427.878 99.964L407.208 100.375C402.738 100.241 398.359 99.067 394.417 96.9445L369.948 87.0251C366.341 85.2905 363.233 81.6542 363.067 78.9559L362.453 69.165C361.998 65.9645 360.868 62.8982 359.14 60.1708L351.018 44.1096C349.445 41.6811 350.66 37.6851 353.691 35.2052L369.309 22.1892C372.184 19.772 374.727 16.9806 376.868 13.8888L383.929 3.18563C386.13 0.312773 388.986 -1.98737 392.256 -3.52153L413.68 -13.3638C417.216 -14.9218 420.897 -16.1268 424.668 -16.9615L439.812 -20.1224ZM437.254 -19.8654C439.876 -20.3151 444.097 -21.1503 446.629 -21.8313L461.006 -25.3519C463.971 -25.993 467.062 -25.655 469.819 -24.3882L484.695 -17.3984C486.869 -16.1135 489.811 -14.0577 491.385 -12.9655L497.511 -8.59687C499.698 -6.81364 501.534 -4.63455 502.922 -2.17239L509.394 13.7732C510.75 16.5757 510.992 19.7918 510.072 22.7674L504.585 37.6208C503.523 40.4348 501.783 44.9704 500.747 47.643L494.838 60.5048C493.289 64.0532 490.906 67.1706 487.893 69.589L467.082 85.7916C463.658 88.3006 459.614 89.8162 455.391 90.1731L438.367 92.6272C434.875 92.8842 429.234 93.3725 425.87 93.6808L407.502 95.1456C403.594 95.1827 399.765 94.0365 396.515 91.8563L376.05 81.5C373.031 79.7012 370.294 76.2577 369.987 73.8677L368.874 65.1947C368.334 62.2982 367.373 59.4971 366.022 56.8814L359.856 41.3599C358.577 39.0342 359.729 35.2052 362.236 32.8796L375.218 20.4932C377.663 18.153 379.866 15.57 381.793 12.7838L388.572 2.68452C390.57 0.0545954 393.087 -2.13257 395.965 -3.73996L414.422 -13.775C417.462 -15.349 420.697 -16.5112 424.041 -17.2314L437.254 -19.8654ZM434.696 -19.6213C437.567 -20.1062 440.398 -20.8106 443.163 -21.7285L455.864 -25.9558C457.114 -26.3429 458.429 -26.473 459.73 -26.3383C461.031 -26.2037 462.292 -25.807 463.437 -25.172L475.729 -18.028C477.545 -16.6532 480.231 -14.7772 481.715 -13.8649L487.714 -10.1644C489.796 -8.64569 491.431 -6.59031 492.446 -4.21537L496.91 11.3961C497.896 14.1981 498.069 17.2236 497.409 20.1206L493.572 34.4471C492.629 37.6646 491.484 40.8189 490.144 43.8911L483.672 55.9948C482.102 59.2445 479.966 62.186 477.366 64.6807L459.663 81.0632C456.846 83.5507 453.256 84.9769 449.507 85.0977L434.798 86.2798C431.131 86.3638 427.474 86.6857 423.849 87.2435L407.796 89.8133C406.12 89.9485 404.434 89.7502 402.834 89.2299C401.234 88.7096 399.751 87.8774 398.472 86.7809L381.959 75.9236C379.516 74.0476 377.15 70.784 376.715 68.7282L375.116 61.173C374.486 58.5832 373.687 56.0379 372.724 53.5535L368.631 38.5588C367.761 36.3359 368.72 32.6997 370.729 30.4897L381.089 18.7457C383.092 16.4676 384.954 14.069 386.666 11.5631L393.138 2.18341C394.917 -0.220106 397.077 -2.31258 399.534 -4.00979L415.049 -14.289C417.61 -15.8637 420.43 -16.9687 423.376 -17.5526L434.696 -19.6213ZM432.137 -19.3771C434.615 -19.7596 437.034 -20.4547 439.339 -21.4458L450.352 -26.367C451.378 -26.8342 452.507 -27.0242 453.629 -26.9183C454.751 -26.8124 455.825 -26.4142 456.747 -25.7631L466.455 -18.452C468.049 -16.957 469.819 -15.6625 471.725 -14.5973L477.583 -11.6421C479.537 -10.3775 480.958 -8.43305 481.574 -6.18126L484.183 9.109C484.792 11.8724 484.9 14.7232 484.503 17.5251L482.213 31.312C481.602 34.3885 480.587 37.3698 479.195 40.1778L472.301 51.5106C470.709 54.4598 468.814 57.2332 466.647 59.7853L452.245 76.2577C450.121 78.6861 446.233 80.3436 443.624 79.9582H431.242C428.082 79.804 424.917 80.1026 421.841 80.8447L408.027 84.3653C406.625 84.6021 405.186 84.4657 403.853 83.9697C402.519 83.4738 401.339 82.6355 400.429 81.5386L387.881 70.3343C386.005 68.3738 384.505 66.0826 383.456 63.5757L381.371 57.1513C380.846 55.558 379.989 52.4485 379.439 50.2257L377.367 35.7577C376.994 33.0706 377.643 30.3411 379.183 28.1126L386.858 16.9983C388.137 15.1095 390.26 12.1414 391.45 10.381L397.794 1.64375C399.407 -0.534359 401.261 -2.52153 403.32 -4.27962L415.88 -14.713C417.876 -16.2861 420.211 -17.3686 422.698 -17.8738L432.137 -19.3771ZM429.771 -19.1587C431.926 -19.4652 434.001 -20.185 435.885 -21.2788L445.222 -26.9066C445.996 -27.4305 446.925 -27.674 447.855 -27.5969C448.785 -27.5199 449.661 -27.1268 450.339 -26.4826L457.463 -19.0045C458.689 -17.4549 460.251 -16.2068 462.03 -15.3554L467.76 -13.1069C468.667 -12.6043 469.439 -11.8881 470.009 -11.0196C470.579 -10.1512 470.931 -9.15668 471.034 -8.12146L471.482 6.83473C471.71 9.53106 471.757 12.2398 471.623 14.9424L470.894 28.2026C470.634 31.1158 469.762 33.9406 468.335 36.4901L461.096 46.9492C459.881 48.9665 457.63 52.4999 456.082 54.8256L444.903 71.5292C443.253 73.9834 440.055 75.4867 437.817 74.8957L427.737 73.6108C425.093 73.2158 422.393 73.4941 419.884 74.4203L408.372 79.0459C406.351 79.8811 403.716 78.6733 402.501 76.4118L393.957 64.745C392.678 62.7277 391.053 59.8881 390.35 58.4233L387.792 53.091C386.975 51.1076 386.466 49.0103 386.282 46.8721V32.9438C386.235 30.4503 386.76 27.9794 387.817 25.7227L392.934 15.238C393.995 13.1199 395.191 11.0727 396.515 9.109L402.399 1.0527C403.512 -0.514872 405.584 -3.05897 406.978 -4.61369L416.584 -15.2526C418.058 -16.8123 419.981 -17.8683 422.084 -18.2721L429.771 -19.1587ZM427.469 -18.9274C429.31 -19.1693 431.049 -19.9162 432.496 -21.0861L440.17 -27.4206C441.577 -28.6027 443.329 -28.5128 444.007 -27.1765L448.548 -19.5442C449.375 -17.9831 450.739 -16.7775 452.385 -16.1521L457.988 -14.6102C458.838 -14.236 459.546 -13.5966 460.007 -12.7866C460.468 -11.9767 460.657 -11.0392 460.546 -10.113L459.049 4.48338C458.907 7.08548 458.907 9.69344 459.049 12.2955L459.906 25.0289C459.971 27.7655 459.198 30.4561 457.693 32.7382L450.019 42.3878C448.372 44.7571 446.913 47.2532 445.657 49.853L437.676 66.7237C436.499 69.2036 433.979 70.5784 432.112 69.7432L424.348 67.2505C423.303 66.9332 422.205 66.8333 421.121 66.9571C420.037 67.0808 418.989 67.4255 418.042 67.9701L408.896 73.6493C407.272 74.6644 405.417 73.5465 404.739 71.208L400.148 59.1557C399.463 57.0861 398.526 55.1095 397.359 53.2709L394.289 49.0564C393.404 47.36 393.056 45.4322 393.292 43.5314L395.236 30.117C395.522 27.8269 395.949 25.5569 396.515 23.3199L398.971 13.4776C399.524 11.5183 400.387 9.66132 401.529 7.97829L407.119 0.577291C408.155 -0.810397 409.805 -3.2774 410.777 -4.81928L417.415 -15.6638C417.863 -16.4087 418.463 -17.0502 419.175 -17.5462C419.887 -18.0422 420.695 -18.3815 421.547 -18.542L427.469 -18.9274ZM404.842 11.6788C404.886 9.90498 405.451 8.18384 406.466 6.73194L411.762 -0.000915532C412.906 -1.57495 413.819 -3.30579 414.473 -5.1405L418.17 -16.1778C418.681 -17.7196 419.922 -18.9531 420.933 -18.9146L424.962 -18.7604C426.507 -18.9655 427.917 -19.7561 428.901 -20.9704L434.887 -27.9859C436 -29.2708 437.19 -29.2708 437.535 -27.9859L439.492 -20.1866C439.675 -19.4292 440.056 -18.7346 440.596 -18.1744C441.136 -17.6143 441.814 -17.2089 442.562 -17.0001L448.024 -16.1521C449.52 -15.9208 450.364 -14.1219 449.865 -12.1303L446.399 2.17056C445.864 4.63657 445.79 7.18122 446.182 9.67435L448.625 21.868C448.825 23.1153 448.769 24.3908 448.459 25.6153C448.148 26.8397 447.591 27.9871 446.821 28.9863L438.725 37.8136C437.037 39.9029 435.773 42.3036 435.003 44.8805L430.257 61.9182C429.554 64.488 427.699 65.6316 426.228 64.6037L420.818 60.8775C420.064 60.445 419.19 60.2737 418.33 60.3898C417.47 60.5059 416.672 60.903 416.059 61.5199L409.191 68.2142C407.912 69.422 406.876 68.3941 406.76 65.9785L406.146 53.4893C406.099 51.5239 405.411 49.6284 404.189 48.0927L400.634 44.9833C399.751 44.2123 399.521 42.0409 400.096 40.1521L404.074 27.3031C404.677 25.214 404.999 23.0534 405.034 20.8786L404.842 11.6788Z" stroke="white" stroke-opacity="0.15" stroke-width="0.37" stroke-miterlimit="10"/></g><defs><clipPath id="clip0_1410_4304"><rect width="321" height="347" fill="white"/></clipPath></defs></svg>
