<svg width="172" height="49" fill="none" xmlns="http://www.w3.org/2000/svg"><path d="M165.63 49H6.37C2.867 49 0 46.243 0 42.875V6.125C0 2.758 2.867 0 6.37 0h159.26c3.503 0 6.37 2.757 6.37 6.125v36.75c0 3.367-2.867 6.125-6.37 6.125Z" fill="#2B2B2B"/><path d="M87.875 26.133c-3.033 0-5.506 2.279-5.506 5.42 0 3.12 2.47 5.419 5.498 5.419s5.508-2.3 5.508-5.42c0-3.14-2.48-5.42-5.508-5.42h.008Zm0 8.705c-1.662 0-3.096-1.355-3.096-3.284 0-1.952 1.435-3.286 3.096-3.286s3.096 1.334 3.096 3.284c0 1.928-1.424 3.284-3.091 3.284l-.005.002Zm-12.011-8.706c-3.034 0-5.506 2.28-5.506 5.422 0 3.12 2.472 5.418 5.506 5.418 3.034 0 5.506-2.3 5.506-5.42 0-3.14-2.472-5.42-5.506-5.42Zm0 8.706c-1.662 0-3.096-1.355-3.096-3.284 0-1.952 1.435-3.286 3.096-3.286 1.662 0 3.096 1.334 3.096 3.284 0 1.928-1.435 3.284-3.096 3.284v.002Zm-14.288-7.043v2.3h5.568c-.166 1.293-.602 2.238-1.267 2.894-.812.801-2.078 1.684-4.302 1.684-3.43 0-6.11-2.731-6.11-6.118 0-3.386 2.68-6.12 6.11-6.12 1.85 0 3.2.72 4.198 1.637l1.646-1.626c-1.393-1.314-3.24-2.325-5.835-2.325-4.696 0-8.643 3.774-8.643 8.414 0 4.639 3.947 8.413 8.643 8.413 2.543 0 4.453-.824 5.94-2.367 1.541-1.522 2.016-3.656 2.016-5.38 0-.538-.042-1.031-.127-1.438h-7.83l-.007.032Zm58.434 1.786c-.457-1.21-1.849-3.448-4.696-3.448-2.826 0-5.174 2.196-5.174 5.42 0 3.038 2.327 5.419 5.445 5.419 2.514 0 3.968-1.52 4.569-2.402l-1.867-1.23c-.625.901-1.478 1.497-2.702 1.497-1.227 0-2.1-.555-2.659-1.642l7.334-3.003-.25-.615v.004Zm-7.48 1.807c-.063-2.094 1.641-3.161 2.867-3.161.95 0 1.763.472 2.026 1.149l-4.906 2.012h.013Zm-5.964 5.254h2.41v-15.93h-2.41v15.93Zm-3.946-9.3h-.085c-.54-.635-1.578-1.208-2.888-1.208-2.743 0-5.255 2.38-5.255 5.439 0 3.038 2.512 5.4 5.255 5.4 1.309 0 2.348-.576 2.888-1.233h.085v.782c0 2.072-1.123 3.18-2.93 3.18-1.476 0-2.39-1.046-2.765-1.93l-2.098.863c.602 1.436 2.202 3.203 4.862 3.203 2.826 0 5.215-1.648 5.215-5.651V26.46h-2.284v.883Zm-2.765 7.495c-1.662 0-3.054-1.376-3.054-3.264 0-1.91 1.393-3.304 3.054-3.304 1.642 0 2.931 1.395 2.931 3.305 0 1.887-1.288 3.263-2.93 3.263Zm31.446-14.124h-5.768v15.93h2.406v-6.036h3.361c2.659 0 5.286-1.908 5.286-4.946s-2.627-4.948-5.297-4.948h.012Zm.061 7.678h-3.422v-5.454h3.422a2.777 2.777 0 0 1 2.821 2.732c0 1.233-1.023 2.728-2.821 2.728v-.006Zm14.873-2.284c-1.743 0-3.548.762-4.295 2.44l2.137.886c.457-.876 1.306-1.168 2.199-1.168 1.245 0 2.51.74 2.531 2.054v.167c-.436-.24-1.369-.615-2.512-.615-2.3 0-4.645 1.251-4.645 3.586 0 2.138 1.889 3.503 4.004 3.503 1.617 0 2.511-.719 3.07-1.553h.083v1.23h2.323v-6.11c0-2.825-2.137-4.399-4.896-4.399l.001-.02Zm-.291 8.737c-.788 0-1.889-.386-1.889-1.345 0-1.23 1.372-1.7 2.554-1.7 1.057 0 1.555.23 2.198.532-.187 1.48-1.473 2.523-2.863 2.523v-.01Zm13.649-8.382-2.759 6.9h-.083l-2.87-6.907h-2.596l4.295 9.654-2.448 5.369h2.511l6.617-15.023h-2.681l.014.007Zm-21.676 10.185h2.406v-15.93h-2.406v15.93Z" fill="#fff"/><path d="M13.459 8.02c-.375.392-.597 1.001-.597 1.79v28.18c0 .79.222 1.4.591 1.792l.095.092 15.976-15.787v-.373L13.55 7.93l-.095.094.005-.004Z" fill="url(#a)"/><path d="m34.858 29.353-5.326-5.265v-.373l5.327-5.262.12.063 6.31 3.544c1.794 1.012 1.794 2.67 0 3.68l-6.31 3.535-.126.062.005.016Z" fill="url(#b)"/><path d="m34.98 29.284-5.448-5.382-16.074 15.88c.594.622 1.575.699 2.68.079L34.98 29.284Z" fill="url(#c)"/><path d="M34.98 18.518 16.137 7.942c-1.104-.62-2.086-.542-2.68.078L29.531 23.9l5.447-5.383h.002Z" fill="url(#d)"/><path opacity=".2" d="m34.859 29.166-18.72 10.509c-1.048.587-1.984.548-2.585.014l-.095.093.095.094v-.002c.601.535 1.537.576 2.585-.014L34.98 29.285l-.122-.118Z" fill="#2B2B2B"/><path opacity=".12" d="M13.459 39.597c-.375-.392-.597-1-.597-1.79v.188c0 .787.222 1.397.591 1.789l.095-.105-.095-.093.006.01ZM41.29 25.556l-6.432 3.61.12.118 6.31-3.543c.898-.505 1.352-1.171 1.352-1.839-.085.603-.539 1.195-1.351 1.654Z" fill="#2B2B2B"/><path opacity=".25" d="m16.139 8.128 25.152 14.12c.817.458 1.275 1.048 1.35 1.653 0-.667-.45-1.334-1.35-1.84L16.138 7.944C14.335 6.93 12.86 7.77 12.86 9.81v.187c0-2.04 1.473-2.88 3.276-1.869h.002Z" fill="#fff"/><path d="M54.314 16.603h-.95v-2.561h.756c.67-.57.998-1.545.984-2.926v-3.78h5.17v6.706h.866v2.561h-.95v-1.62h-5.867v1.62h-.009Zm1.783-5.487c.016 1.21-.23 2.186-.734 2.926h3.913V8.276h-3.179v2.84Zm12.792 2.876c-.76.773-1.707 1.16-2.839 1.16-1.129 0-2.076-.387-2.835-1.158-.76-.772-1.14-1.718-1.14-2.836 0-1.117.38-2.062 1.14-2.836.76-.771 1.705-1.157 2.836-1.157 1.125 0 2.068.388 2.833 1.164.763.775 1.144 1.72 1.144 2.83 0 1.117-.38 2.063-1.14 2.835v-.002Zm-4.939-.64c.572.574 1.273.86 2.1.86.83 0 1.53-.282 2.103-.855.573-.574.86-1.303.86-2.19 0-.886-.287-1.615-.86-2.189-.572-.573-1.273-.855-2.102-.855-.828 0-1.53.292-2.102.866-.572.573-.859 1.303-.859 2.197 0 .89.285 1.622.855 2.195l.005-.028Zm11.084 1.8c-1.14 0-2.093-.381-2.864-1.143-.772-.76-1.156-1.712-1.156-2.85 0-1.14.384-2.09 1.156-2.851.77-.761 1.726-1.144 2.864-1.144 1.166 0 2.115.417 2.843 1.251l-.693.667c-.525-.646-1.243-.97-2.15-.97-.844 0-1.555.282-2.135.845-.58.563-.87 1.303-.87 2.21 0 .918.289 1.648.87 2.21.58.564 1.291.845 2.135.845.929 0 1.72-.365 2.378-1.105l.696.688c-.348.428-.791.75-1.33 1.001a4.011 4.011 0 0 1-1.74.375l-.004-.03Zm7.091-.17h-.995V8.274H78.97v-.938h5.318v.938h-2.163v6.706l.001.002Zm8.989-7.646-2.929 6.45c-.4.91-1.002 1.365-1.804 1.365-.232 0-.486-.056-.76-.17l.264-.917c.169.094.338.135.517.135.232 0 .412-.041.538-.135.127-.094.243-.25.359-.49l.285-.615-2.607-5.651h1.172l1.91 4.39h.042l1.868-4.39h1.17l-.025.028Zm1.125 7.646V7.335h5.598v7.645h-.995V8.274h-3.608v6.706h-.995v.002Zm7.37 0V7.335h.994v3.277h3.863V7.335h.995v7.645h-.995v-3.45h-3.862v3.45h-.995v.002Zm13.961-.99c-.76.773-1.708 1.16-2.839 1.16-1.129 0-2.077-.387-2.836-1.158-.771-.772-1.14-1.718-1.14-2.836 0-1.117.369-2.062 1.14-2.836.759-.771 1.699-1.157 2.828-1.157 1.118 0 2.068.388 2.828 1.164.759.775 1.139 1.72 1.139 2.83 0 1.117-.38 2.063-1.139 2.835l.019-.002Zm-4.939-.64c.57.574 1.271.86 2.1.86.828 0 1.53-.282 2.102-.855.57-.574.855-1.303.855-2.19 0-.886-.285-1.615-.866-2.189-.58-.573-1.276-.855-2.11-.855-.834 0-1.53.292-2.1.866-.57.573-.865 1.303-.865 2.197 0 .89.285 1.622.855 2.195l.029-.028Zm10.144 1.63V7.335h2.796c.607 0 1.131.198 1.575.592.443.396.664.892.664 1.489 0 .365-.095.688-.287.97-.19.281-.443.49-.761.636v.041c.379.136.696.355.939.667.246.313.369.678.369 1.095 0 .626-.232 1.147-.696 1.562a2.406 2.406 0 0 1-1.651.62h-2.949l.001-.025Zm.992-4.368h1.804c.377 0 .678-.122.905-.37.226-.244.339-.513.339-.805 0-.292-.116-.559-.337-.8-.222-.243-.507-.364-.876-.364h-1.847v2.338h.012Zm0 3.428h2.001c.382 0 .691-.133.928-.396.239-.263.359-.553.359-.866 0-.313-.124-.598-.369-.859-.243-.258-.566-.39-.963-.39h-1.956v2.51Z" fill="#fff"/><defs><linearGradient id="a" x1="28.115" y1="9.513" x2="6.732" y2="31.156" gradientUnits="userSpaceOnUse"><stop stop-color="#00A0FF"/><stop offset=".007" stop-color="#00A1FF"/><stop offset=".26" stop-color="#00BEFF"/><stop offset=".512" stop-color="#00D2FF"/><stop offset=".76" stop-color="#00DFFF"/><stop offset="1" stop-color="#00E3FF"/></linearGradient><linearGradient id="b" x1="43.636" y1="23.903" x2="12.429" y2="23.903" gradientUnits="userSpaceOnUse"><stop stop-color="#FFE000"/><stop offset=".409" stop-color="#FFBD00"/><stop offset=".775" stop-color="orange"/><stop offset="1" stop-color="#FF9C00"/></linearGradient><linearGradient id="c" x1="32.019" y1="26.827" x2="3.022" y2="56.175" gradientUnits="userSpaceOnUse"><stop stop-color="#FF3A44"/><stop offset="1" stop-color="#C31162"/></linearGradient><linearGradient id="d" x1="9.411" y1="-1.361" x2="22.36" y2="11.745" gradientUnits="userSpaceOnUse"><stop stop-color="#32A071"/><stop offset=".069" stop-color="#2DA771"/><stop offset=".476" stop-color="#15CF74"/><stop offset=".801" stop-color="#06E775"/><stop offset="1" stop-color="#00F076"/></linearGradient></defs></svg>