<svg width="66" height="85" viewBox="0 0 66 85" fill="none" xmlns="http://www.w3.org/2000/svg"><path d="M32.9199 84.8367C32.9199 84.8367 66.4282 64.1843 65.8389 33.1356C65.8389 14.8353 51.1006 0 32.9199 0C14.7393 0 0.000947139 14.8353 0.000947139 33.1356C-0.176578 61.0384 32.9199 84.8367 32.9199 84.8367Z" fill="#FF546C"/><mask id="mask0" mask-type="alpha" maskUnits="userSpaceOnUse" x="0" y="0" width="66" height="85"><path d="M32.9199 84.8367C32.9199 84.8367 66.4282 64.1843 65.8389 33.1356C65.8389 14.8353 51.1006 0 32.9199 0C14.7393 0 0.000947139 14.8353 0.000947139 33.1356C-0.176578 61.0384 32.9199 84.8367 32.9199 84.8367Z" fill="white"/></mask><g mask="url(#mask0)"><path d="M18.048 6.96611C22.3955 6.96611 25.9199 3.41854 25.9199 -0.957619C25.9199 -5.33377 22.3955 -8.88135 18.048 -8.88135C13.7004 -8.88135 10.176 -5.33377 10.176 -0.957619C10.176 3.41854 13.7004 6.96611 18.048 6.96611Z" fill="#3A3A3A" fill-opacity="0.06"/><path d="M49.5357 6.96611C53.8833 6.96611 57.4077 3.41854 57.4077 -0.957619C57.4077 -5.33377 53.8833 -8.88135 49.5357 -8.88135C45.1882 -8.88135 41.6638 -5.33377 41.6638 -0.957619C41.6638 3.41854 45.1882 6.96611 49.5357 6.96611Z" fill="#3A3A3A" fill-opacity="0.06"/><path d="M0.872908 35.7796C5.22046 35.7796 8.74484 32.232 8.74484 27.8559C8.74484 23.4797 5.22046 19.9321 0.872908 19.9321C-3.47464 19.9321 -6.99902 23.4797 -6.99902 27.8559C-6.99902 32.232 -3.47464 35.7796 0.872908 35.7796Z" fill="#3A3A3A" fill-opacity="0.06"/><path d="M33.7938 38.6609C38.1414 38.6609 41.6657 35.1134 41.6657 30.7372C41.6657 26.3611 38.1414 22.8135 33.7938 22.8135C29.4463 22.8135 25.9219 26.3611 25.9219 30.7372C25.9219 35.1134 29.4463 38.6609 33.7938 38.6609Z" fill="#3A3A3A" fill-opacity="0.06"/><path d="M18.048 67.4747C22.3955 67.4747 25.9199 63.9271 25.9199 59.5509C25.9199 55.1748 22.3955 51.6272 18.048 51.6272C13.7004 51.6272 10.176 55.1748 10.176 59.5509C10.176 63.9271 13.7004 67.4747 18.048 67.4747Z" fill="#3A3A3A" fill-opacity="0.06"/><path d="M49.5357 67.4747C53.8833 67.4747 57.4077 63.9271 57.4077 59.5509C57.4077 55.1748 53.8833 51.6272 49.5357 51.6272C45.1882 51.6272 41.6638 55.1748 41.6638 59.5509C41.6638 63.9271 45.1882 67.4747 49.5357 67.4747Z" fill="#3A3A3A" fill-opacity="0.06"/><path d="M66.7108 38.6609C71.0583 38.6609 74.5827 35.1134 74.5827 30.7372C74.5827 26.3611 71.0583 22.8135 66.7108 22.8135C62.3633 22.8135 58.8389 26.3611 58.8389 30.7372C58.8389 35.1134 62.3633 38.6609 66.7108 38.6609Z" fill="#3A3A3A" fill-opacity="0.06"/><path d="M2.30552 17.0508C6.65307 17.0508 10.1775 13.5033 10.1775 9.1271C10.1775 4.75094 6.65307 1.20337 2.30552 1.20337C-2.04202 1.20337 -5.56641 4.75094 -5.56641 9.1271C-5.56641 13.5033 -2.04202 17.0508 2.30552 17.0508Z" fill="#3A3A3A" fill-opacity="0.06"/><path d="M33.7938 17.0508C38.1414 17.0508 41.6657 13.5033 41.6657 9.1271C41.6657 4.75094 38.1414 1.20337 33.7938 1.20337C29.4463 1.20337 25.9219 4.75094 25.9219 9.1271C25.9219 13.5033 29.4463 17.0508 33.7938 17.0508Z" fill="#3A3A3A" fill-opacity="0.06"/><path d="M18.048 48.7457C22.3955 48.7457 25.9199 45.1981 25.9199 40.8219C25.9199 36.4458 22.3955 32.8982 18.048 32.8982C13.7004 32.8982 10.176 36.4458 10.176 40.8219C10.176 45.1981 13.7004 48.7457 18.048 48.7457Z" fill="#3A3A3A" fill-opacity="0.06"/><path d="M2.30552 77.5594C6.65307 77.5594 10.1775 74.0118 10.1775 69.6356C10.1775 65.2595 6.65307 61.7119 2.30552 61.7119C-2.04202 61.7119 -5.56641 65.2595 -5.56641 69.6356C-5.56641 74.0118 -2.04202 77.5594 2.30552 77.5594Z" fill="#3A3A3A" fill-opacity="0.06"/><path d="M33.7938 77.5594C38.1414 77.5594 41.6657 74.0118 41.6657 69.6356C41.6657 65.2595 38.1414 61.7119 33.7938 61.7119C29.4463 61.7119 25.9219 65.2595 25.9219 69.6356C25.9219 74.0118 29.4463 77.5594 33.7938 77.5594Z" fill="#3A3A3A" fill-opacity="0.06"/><path d="M50.9657 48.7457C55.3132 48.7457 58.8376 45.1981 58.8376 40.8219C58.8376 36.4458 55.3132 32.8982 50.9657 32.8982C46.6181 32.8982 43.0938 36.4458 43.0938 40.8219C43.0938 45.1981 46.6181 48.7457 50.9657 48.7457Z" fill="#3A3A3A" fill-opacity="0.06"/><path d="M18.048 27.1355C22.3955 27.1355 25.9199 23.588 25.9199 19.2118C25.9199 14.8357 22.3955 11.2881 18.048 11.2881C13.7004 11.2881 10.176 14.8357 10.176 19.2118C10.176 23.588 13.7004 27.1355 18.048 27.1355Z" fill="#3A3A3A" fill-opacity="0.06"/><path d="M49.5357 27.1355C53.8833 27.1355 57.4077 23.588 57.4077 19.2118C57.4077 14.8357 53.8833 11.2881 49.5357 11.2881C45.1882 11.2881 41.6638 14.8357 41.6638 19.2118C41.6638 23.588 45.1882 27.1355 49.5357 27.1355Z" fill="#3A3A3A" fill-opacity="0.06"/><path d="M0.872908 55.9493C5.22046 55.9493 8.74484 52.4017 8.74484 48.0255C8.74484 43.6494 5.22046 40.1018 0.872908 40.1018C-3.47464 40.1018 -6.99902 43.6494 -6.99902 48.0255C-6.99902 52.4017 -3.47464 55.9493 0.872908 55.9493Z" fill="#3A3A3A" fill-opacity="0.06"/><path d="M33.7938 58.8306C38.1414 58.8306 41.6657 55.283 41.6657 50.9069C41.6657 46.5307 38.1414 42.9832 33.7938 42.9832C29.4463 42.9832 25.9219 46.5307 25.9219 50.9069C25.9219 55.283 29.4463 58.8306 33.7938 58.8306Z" fill="#3A3A3A" fill-opacity="0.06"/><path d="M18.048 87.6441C22.3955 87.6441 25.9199 84.0965 25.9199 79.7204C25.9199 75.3442 22.3955 71.7966 18.048 71.7966C13.7004 71.7966 10.176 75.3442 10.176 79.7204C10.176 84.0965 13.7004 87.6441 18.048 87.6441Z" fill="#3A3A3A" fill-opacity="0.06"/><path d="M49.5357 87.6441C53.8833 87.6441 57.4077 84.0965 57.4077 79.7204C57.4077 75.3442 53.8833 71.7966 49.5357 71.7966C45.1882 71.7966 41.6638 75.3442 41.6638 79.7204C41.6638 84.0965 45.1882 87.6441 49.5357 87.6441Z" fill="#3A3A3A" fill-opacity="0.06"/><path d="M66.7108 58.8306C71.0583 58.8306 74.5827 55.283 74.5827 50.9069C74.5827 46.5307 71.0583 42.9832 66.7108 42.9832C62.3633 42.9832 58.8389 46.5307 58.8389 50.9069C58.8389 55.283 62.3633 58.8306 66.7108 58.8306Z" fill="#3A3A3A" fill-opacity="0.06"/><path d="M33.6344 36.0169C36.401 36.0169 38.6438 33.7593 38.6438 30.9745C38.6438 28.1897 36.401 25.9321 33.6344 25.9321C30.8678 25.9321 28.625 28.1897 28.625 30.9745C28.625 33.7593 30.8678 36.0169 33.6344 36.0169Z" fill="white"/></g></svg>
