<svg width="529" height="184" fill="none" xmlns="http://www.w3.org/2000/svg"><g clip-path="url(#a)" stroke="#fff" stroke-opacity=".3" stroke-width="1.22" stroke-miterlimit="10"><path d="M-12.738 169.874s34.571 19.388 173.505-7.06c93.602-17.813 104.038-33.439 185.909-31.374 136.327 3.447 303.087 84.078 303.087 84.078"/><path d="M-11.836 162.308s40.914 20.035 168.545-4.707a679.684 679.684 0 0 0 75.512-19.091c32.367-10 56.694-16.623 103.224-18.224 128.812-4.436 279.757 54.769 295.074 56.055"/><path d="M-10.935 154.73s47.238 20.691 163.584-2.345a506.874 506.874 0 0 0 72.853-19.939c31.544-11.146 56.966-18.968 98.702-23.316 121.376-12.651 256.417 25.468 287.052 28.041"/><path d="M-10.043 147.164s53.616 21.347 158.59 0a403.103 403.103 0 0 0 70.193-20.788c30.74-12.249 57.237-21.497 94.179-28.417 113.976-21.339 233.069-3.84 279.039.044"/><path d="M-9.143 139.612s60.002 21.977 153.604 2.345a334.512 334.512 0 0 0 67.542-21.593c29.953-13.264 57.474-24.235 89.666-33.51 106.444-30.673 209.756-33.123 271.017-27.996"/><path d="M-8.242 132.018s104.196 35.591 213.517-17.778C338.794 49.103 455.403 11.43 553.414 19.654"/></g><defs><clipPath id="a"><path fill="#fff" d="M0 0h529v184H0z"/></clipPath></defs></svg>