<svg width="46" height="42" viewBox="0 0 46 42" fill="none" xmlns="http://www.w3.org/2000/svg"><path d="M30.5136 1.96585L30.5149 1.96547C36.5202 0.21337 41.6307 3.23186 43.3838 6.8295L43.8323 6.61092L43.3839 6.82988C45.8853 11.9524 44.8923 17.766 40.2205 24.1914L40.2196 24.1927C36.5369 29.2907 31.2451 34.382 23.5543 40.3545L23.5535 40.3551C23.3973 40.4769 23.2049 40.5431 23.0068 40.5431C22.8088 40.5431 22.6164 40.4769 22.4602 40.3551L22.4594 40.3545C14.7566 34.3696 9.47687 29.2358 5.79278 24.1909C1.10743 17.7657 0.114565 11.9522 2.61586 6.82988L2.61604 6.8295C4.36818 3.2337 9.4644 0.23979 15.4868 1.96602C18.3577 2.79545 20.8626 4.57394 22.5921 7.01097L22.9999 7.58551L23.4076 7.01097C25.1373 4.57377 27.6424 2.7952 30.5136 1.96585Z" stroke="white"/></svg>
