<svg width="16" height="16" viewBox="0 0 16 16" xmlns="http://www.w3.org/2000/svg">
    <path d="M14.0684 1.53296L1.53172 5.71162C1.46684 5.73313 1.41013 5.77407 1.36929 5.82889C1.32845 5.88371 1.30545 5.94976 1.30341 6.01809C1.30138 6.08643 1.3204 6.15373 1.3579 6.21089C1.3954 6.26804 1.44956 6.31229 1.51306 6.33762L7.33506 8.66629L10.2851 14.5663C10.3151 14.6264 10.3625 14.676 10.4212 14.7086C10.4799 14.7413 10.5471 14.7554 10.614 14.7492C10.6809 14.743 10.7443 14.7168 10.796 14.6739C10.8477 14.631 10.8853 14.5735 10.9037 14.509L14.4951 1.94029C14.5117 1.8819 14.5121 1.82008 14.4961 1.76149C14.4802 1.7029 14.4486 1.64978 14.4047 1.60786C14.3607 1.56593 14.3062 1.5368 14.2469 1.5236C14.1877 1.5104 14.1259 1.51363 14.0684 1.53296Z"/>
</svg>
