<svg width="40" height="40" fill="none" xmlns="http://www.w3.org/2000/svg"><circle cx="20" cy="20" r="20" fill="#40AA1A"/><path d="m31.55 21.625-.165-.26c-.265-.389-.528-.778-.926-1.037-.33-.228-.727-.39-1.09-.552 1.024-.486 1.725-1.167 2.056-2.042.231-.715-.192-1.297-.192-1.88v-.065c0-.65-.898-1.071-1.724-1.298-.497-.097-1.045-.097-1.54-.066l-1.085.227.368-.81c.33-1.038.233-2.043-.329-2.984l-.099-.16c-.496-.812-1.222-1.298-2.214-1.558-1.024-.26-1.895-.162-2.82.324-.927.488-1.801 1.234-1.801 2.205v.065l-.117.227-.174-.227-.352-.583c-.53-.81-1.2-1.297-2.027-1.525-.727-.162-1.325-.097-1.954.228-.693.42-1.093 1.07-1.259 1.978-.165.94 0 1.849.496 2.756l.23.325-.793-.26c-.992-.228-1.917-.098-2.842.389-.959.486-1.553 1.167-1.95 2.108-.364.908-.33 1.782.132 2.594.199.357.496.648.76.843.397.389.893.616 1.487.713l.23.065-.494.423c-.463.39-.727.875-.892 1.361a2.12 2.12 0 0 0 .231 1.72c.166.259.33.484.595.648.265.226.595.388.99.421a4.337 4.337 0 0 0 2.314-.098l-.596.974-.164.421c-.33 1.036-.232 1.944.264 2.885.231.358.496.682.76.973.397.357.891.584 1.487.747.99.259 1.982.225 2.941-.26.925-.487 1.519-1.266 1.817-2.238l.032-.193c.628.679 1.223 1.134 1.885 1.296.66.194 1.32.163 1.916-.228.561-.324.958-.875 1.156-1.557.165-.713.165-1.425 0-2.235.33.226.66.388 1.056.484 1.057.326 1.983.292 2.908-.194.892-.485 1.487-1.265 1.784-2.27.266-.972.2-1.912-.296-2.82Zm-4.79-5.415.395-.163a3.32 3.32 0 0 1 1.752-.258c.56.064.959.322 1.156.713l.132.42-.066.325c-.23.584-.727 1.038-1.553 1.395-.33.16-.693.227-1.09.29l-4.064.488-.067-.227-.066-.098.133-.163 3.337-2.722Zm-5.619-4.086c.165-.649.629-1.135 1.223-1.46.595-.324 1.256-.39 1.883-.162.695.162 1.19.519 1.488 1.07.165.325.263.714.263 1.136l-.098.712a4.532 4.532 0 0 1-.495.974L22.43 17.96c-.297-.226-.627-.389-.959-.55l-.33-3.665-.033-1.297.032-.324Zm-5.648.097c.032-.584.262-.973.66-1.2.198-.162.495-.162.76-.032.595.163 1.09.583 1.486 1.394.165.325.33.649.397 1.038l.66 3.827-.494.162-2.942-3.146-.165-.324c-.264-.584-.429-1.135-.362-1.72Zm-4.858 6.874c-.264-.486-.264-.972-.066-1.458.231-.617.66-1.103 1.287-1.363.596-.324 1.19-.42 1.851-.26l.892.357 2.908 2.076c-.264.325-.43.648-.53.973l-4.757.584-.33-.065c-.595-.098-.991-.356-1.255-.844Zm9.354 9.567-.117.325a2.391 2.391 0 0 1-1.264 1.328 2.464 2.464 0 0 1-1.839.229c-.662-.163-1.168-.552-1.432-1.072-.165-.323-.301-.713-.301-1.102l.16-.745c.067-.325.232-.65.496-.909l2.774-3.244c.33.163.744.325 1.109.359.065 1.101.414 2.27.414 3.534v1.297Zm-1.26-6.484c-.43-.39-.66-.943-.66-1.526 0-.584.23-1.07.66-1.524a2.288 2.288 0 0 1 1.554-.584c.595 0 1.156.228 1.52.584.461.454.661.94.661 1.524 0 .583-.2 1.136-.66 1.526-.43.42-.926.646-1.521.646-.628 0-1.157-.225-1.554-.646Zm6.114 5.673c-.066.585-.264 1.007-.662 1.17-.23.16-.495.16-.76.129-.627-.163-1.123-.649-1.485-1.428l-.398-1.07-.495-2.821.56-.196.431-.225 1.388 1.392.86 1.039.164.323c.297.552.463 1.072.397 1.687Zm5.683-3.794c-.166.65-.562 1.136-1.124 1.394-.594.325-1.19.39-1.85.163-.397-.096-.66-.26-.892-.519l-3.47-2.82.232-.487.1-.39 3.733-.325 1.321-.031.331.031c.495.163.959.455 1.221.94.33.359.497.845.497 1.398l-.1.646Z" fill="#fff"/></svg>