<svg width="50" height="50" viewBox="0 0 50 50" fill="none" xmlns="http://www.w3.org/2000/svg"><path d="M49.1663 29.1666H46.6104L44.9997 5.77667C44.9695 5.33875 44.6054 4.99939 44.1663 5H39.1663C38.7271 4.99939 38.363 5.33875 38.3328 5.77667L36.7221 29.1666H35V24.1666C35 23.7067 34.6268 23.3331 34.1669 23.3331C33.9771 23.3328 33.7933 23.3975 33.6456 23.5159L26.6666 29.0991V24.1666C26.6666 23.7067 26.2936 23.3331 25.8334 23.3331C25.6439 23.3328 25.4602 23.3975 25.3125 23.5159L18.3334 29.0991V24.1666C18.3334 23.7067 17.9605 23.3331 17.5003 23.3331C17.3108 23.3328 17.1268 23.3975 16.9794 23.5159L10.0003 29.0991V24.1666C10 23.7067 9.62677 23.3334 9.16687 23.3334C9.0152 23.3334 8.86719 23.3746 8.73749 23.4525L0.404053 28.4525C0.153503 28.6032 0 28.8739 0 29.1666V49.1666C0 49.6268 0.37323 49.9997 0.833435 49.9997H49.1663C49.6265 49.9997 49.9997 49.6268 49.9997 49.1666V30C49.9997 29.5395 49.6265 29.1666 49.1663 29.1666ZM39.9445 6.66657H43.3881L44.9402 29.1666H38.3923L39.9445 6.66657ZM28.3328 48.3331V38.3331H33.3328V48.3331H28.3328ZM48.3331 48.3331H35V37.4997C35 37.0398 34.6265 36.6666 34.1663 36.6666H27.4997C27.0395 36.6666 26.6663 37.0398 26.6663 37.4997V48.3331H1.66656V29.6384L8.33313 25.6384V30.8331C8.33313 31.2936 8.70605 31.6666 9.16626 31.6672C9.35547 31.6672 9.53949 31.6025 9.6875 31.4841L16.6666 25.9009V30.8331C16.6666 31.2936 17.0392 31.6666 17.4997 31.6672C17.6889 31.6672 17.8726 31.6025 18.0206 31.4844L24.9997 25.9012V30.8334C24.9997 31.2936 25.3723 31.6672 25.8328 31.6672C26.022 31.6672 26.2057 31.6025 26.3538 31.4844L33.3328 25.9012V30C33.3328 30.4605 33.7061 30.8334 34.1663 30.8334H48.3325V48.3331H48.3331Z" fill="#007BC3"/><path d="M28.3268 1.66729C28.6298 1.82965 28.9036 2.04144 29.137 2.29382C29.6043 2.86358 30.2695 3.23468 30.9992 3.33386C31.7679 3.2359 32.4699 2.84863 32.9627 2.25048C33.1736 2.02923 33.4095 1.83361 33.6661 1.66729C33.8377 1.67492 34.2869 2.09546 34.5286 2.32129C34.9781 2.87762 35.6238 3.23987 36.3325 3.33386C37.1509 3.2301 37.8989 2.81964 38.426 2.18548C38.6301 1.99383 38.9393 1.703 38.9991 1.66729C39.4465 1.66729 39.549 1.81561 39.8243 2.21234C40.1859 2.89563 40.8927 3.32623 41.666 3.33386C42.1259 3.33386 42.4992 2.96063 42.4992 2.50073C42.4992 2.04022 42.1259 1.66729 41.666 1.66729C41.4991 1.66729 41.4667 1.6557 41.1961 1.26477C40.7535 0.469782 39.9085 -0.0163637 38.9991 0.000421035C38.325 0.0941101 37.7116 0.44079 37.2843 0.970576C37.0075 1.2315 36.5436 1.66729 36.3676 1.67126C36.1094 1.51501 35.8738 1.32458 35.6657 1.10577C35.1646 0.495417 34.4492 0.100214 33.6658 0.000421035C32.9435 0.0989929 32.2855 0.467035 31.8232 1.03039C31.5894 1.28125 31.3193 1.49578 31.0224 1.66729C30.7447 1.50799 30.492 1.30902 30.2726 1.07556C29.7855 0.484125 29.0922 0.100214 28.3323 0.000421035C27.8724 -0.00110485 27.4976 0.3706 27.4961 0.83111C27.4946 1.29101 27.8666 1.66577 28.3268 1.66729Z" fill="#007BC3"/><path d="M9.16687 38.333H5.83313C5.37292 38.333 5 38.7062 5 39.1661V44.1661C5 44.6266 5.37292 44.9996 5.83313 44.9996H9.16687C9.62677 44.9996 10 44.6266 10 44.1661V39.1661C10 38.7062 9.62677 38.333 9.16687 38.333ZM8.33313 43.333H6.66656V39.9999H8.33313V43.333Z" fill="#007BC3"/><path d="M15.8339 38.333H12.5004C12.0399 38.333 11.667 38.7062 11.667 39.1661V44.1661C11.667 44.6266 12.0399 44.9996 12.5004 44.9996H15.8339C16.2938 44.9996 16.667 44.6266 16.667 44.1661V39.1661C16.667 38.7062 16.2938 38.333 15.8339 38.333ZM15.0001 43.333H13.3336V39.9999H15.0001V43.333Z" fill="#007BC3"/><path d="M22.4999 38.333H19.1664C18.7059 38.333 18.333 38.7062 18.333 39.1661V44.1661C18.333 44.6266 18.7059 44.9996 19.1664 44.9996H22.4999C22.9598 44.9996 23.333 44.6266 23.333 44.1661V39.1661C23.333 38.7062 22.9598 38.333 22.4999 38.333ZM21.6661 43.333H19.9996V39.9999H21.6661V43.333Z" fill="#007BC3"/></svg>
