<svg width="50" height="50" viewBox="0 0 50 50" fill="none" xmlns="http://www.w3.org/2000/svg"><g clip-path="url(#clip0_1410_4926)"><path d="M24.9979 6.81641C22.4899 6.81641 20.4502 8.85611 20.4502 11.3641C20.4502 13.8722 22.4899 15.9118 24.9979 15.9118C27.506 15.9118 29.5456 13.8721 29.5456 11.3641C29.5456 8.85622 27.5059 6.81641 24.9979 6.81641ZM24.9979 13.6391C23.7439 13.6391 22.723 12.6182 22.723 11.3641C22.723 10.1101 23.7439 9.08921 24.9979 9.08921C26.2519 9.08921 27.2729 10.1101 27.2729 11.3641C27.2729 12.6182 26.2519 13.6391 24.9979 13.6391Z" fill="#007BC3"/><path d="M48.8637 20.4545C49.4918 20.4545 50.0001 19.9494 50.0001 19.3213V14.7764C50.0001 14.3758 49.7893 14.0041 49.4441 13.7999L27.215 0.598805C27.205 0.592094 27.195 0.586554 27.1851 0.581014C25.8034 -0.184647 24.2454 -0.207871 22.7838 0.596568L0.556002 13.7999C0.210831 14.004 0 14.3758 0 14.7764V19.3213C0 19.9494 0.508274 20.4545 1.1364 20.4545H4.54549V40.9101C2.03853 40.9101 0 42.9484 0 45.455V48.8638C0 49.4918 0.508274 50.0001 1.1364 50.0001H48.8637C49.4918 50.0001 50.0001 49.4919 50.0001 48.8638V45.455C50.0001 42.9484 47.9616 40.9101 45.4546 40.9101V20.4545H48.8637ZM47.7273 45.4546V47.7273H2.27269V45.4546C2.27269 44.2017 3.29254 43.1819 4.54539 43.1819H5.68179H44.3182H45.4546C46.7075 43.1818 47.7273 44.2016 47.7273 45.4546ZM6.81819 40.9091V20.4545H11.3637V40.9091H6.81819ZM13.6364 40.9091V20.4545H20.4546V40.9091H13.6364ZM22.7273 40.9091V20.4545H27.2727V40.9091H22.7273ZM29.5454 40.9091V20.4545H36.3636V40.9091H29.5454ZM38.6364 40.9091V20.4545H43.1819V40.9091H38.6364ZM2.27269 18.1818V15.4197L23.9114 2.56457C24.6194 2.17508 25.3717 2.17615 26.0709 2.5568L47.7273 15.4197V18.1818H2.27269Z" fill="#007BC3"/></g><defs><clipPath id="clip0_1410_4926"><rect width="50" height="50" fill="white"/></clipPath></defs></svg>
