<svg width="50" height="50" viewBox="0 0 50 50" fill="none" xmlns="http://www.w3.org/2000/svg"><path d="M13.2812 28.125H4.6875C3.85898 28.1241 3.06467 27.7945 2.47882 27.2087C1.89297 26.6228 1.56343 25.8285 1.5625 25V4.6875C1.56343 3.85898 1.89297 3.06467 2.47882 2.47882C3.06467 1.89297 3.85898 1.56343 4.6875 1.5625H25C25.8285 1.56343 26.6228 1.89297 27.2087 2.47882C27.7945 3.06467 28.1241 3.85898 28.125 4.6875V17.9688H26.5625V4.6875C26.562 4.27325 26.3972 3.87611 26.1043 3.58319C25.8114 3.29027 25.4142 3.12549 25 3.125H4.6875C4.27325 3.12549 3.87611 3.29027 3.58319 3.58319C3.29027 3.87611 3.12549 4.27325 3.125 4.6875V25C3.12549 25.4142 3.29027 25.8114 3.58319 26.1043C3.87611 26.3972 4.27325 26.562 4.6875 26.5625H13.2812V28.125Z" fill="#007BC3"/><path d="M11.7188 25H7.03125C6.82405 25 6.62534 24.9177 6.47882 24.7712C6.33231 24.6247 6.25 24.426 6.25 24.2188V5.46875C6.25 5.26155 6.33231 5.06284 6.47882 4.91632C6.62534 4.76981 6.82405 4.6875 7.03125 4.6875H16.4062C18.2711 4.6875 20.0595 5.42829 21.3781 6.74691C22.6967 8.06552 23.4375 9.85395 23.4375 11.7188C23.4375 13.5836 22.6967 15.372 21.3781 16.6906C20.0595 18.0092 18.2711 18.75 16.4062 18.75H12.5V24.2188C12.5 24.426 12.4177 24.6247 12.2712 24.7712C12.1247 24.9177 11.926 25 11.7188 25ZM7.8125 23.4375H10.9375V17.9688C10.9375 17.7615 11.0198 17.5628 11.1663 17.4163C11.3128 17.2698 11.5115 17.1875 11.7188 17.1875H16.4062C17.8567 17.1875 19.2477 16.6113 20.2732 15.5857C21.2988 14.5602 21.875 13.1692 21.875 11.7188C21.875 10.2683 21.2988 8.87735 20.2732 7.85176C19.2477 6.82617 17.8567 6.25 16.4062 6.25H7.8125V23.4375ZM16.4062 14.0625H11.7188C11.5115 14.0625 11.3128 13.9802 11.1663 13.8337C11.0198 13.6872 10.9375 13.4885 10.9375 13.2812V10.1562C10.9375 9.94905 11.0198 9.75034 11.1663 9.60382C11.3128 9.45731 11.5115 9.375 11.7188 9.375H16.4062C17.0279 9.375 17.624 9.62193 18.0635 10.0615C18.5031 10.501 18.75 11.0971 18.75 11.7188C18.75 12.3404 18.5031 12.9365 18.0635 13.376C17.624 13.8156 17.0279 14.0625 16.4062 14.0625ZM12.5 12.5H16.4062C16.6135 12.5 16.8122 12.4177 16.9587 12.2712C17.1052 12.1247 17.1875 11.926 17.1875 11.7188C17.1875 11.5115 17.1052 11.3128 16.9587 11.1663C16.8122 11.0198 16.6135 10.9375 16.4062 10.9375H12.5V12.5Z" fill="#007BC3"/><path d="M47.4274 32.2601C46.808 31.6375 45.9731 31.2768 45.0952 31.2525L41.9003 21.6679C41.6933 21.0454 41.2955 20.5039 40.7633 20.1204C40.2311 19.7368 39.5916 19.5307 38.9355 19.5313H20.4395C19.7834 19.5307 19.1439 19.7368 18.6117 20.1204C18.0795 20.5039 17.6817 21.0454 17.4747 21.6679L14.2798 31.2525C13.3841 31.2798 12.5341 31.6549 11.9102 32.2981C11.2863 32.9414 10.9374 33.8024 10.9375 34.6985V40.625C10.9384 41.4535 11.268 42.2478 11.8538 42.8337C12.4397 43.4195 13.234 43.7491 14.0625 43.75H19.5312V46.875H14.8438V45.3125H13.2812V46.875C13.2817 47.2892 13.4465 47.6864 13.7394 47.9793C14.0324 48.2722 14.4295 48.437 14.8438 48.4375H19.5312C19.9455 48.437 20.3426 48.2722 20.6356 47.9793C20.9285 47.6864 21.0933 47.2892 21.0938 46.875V43.75H38.2812V46.875C38.2817 47.2892 38.4465 47.6864 38.7394 47.9793C39.0324 48.2722 39.4295 48.437 39.8438 48.4375H44.5312C44.9455 48.437 45.3426 48.2722 45.6356 47.9793C45.9285 47.6864 46.0933 47.2892 46.0938 46.875V43.6511C46.7641 43.477 47.3578 43.0855 47.782 42.538C48.2061 41.9904 48.4366 41.3176 48.4375 40.625V34.6985C48.4387 34.2455 48.3501 33.7967 48.1767 33.3781C48.0033 32.9596 47.7487 32.5795 47.4274 32.2601ZM20.4395 21.0938H38.9355C39.2636 21.0935 39.5834 21.1966 39.8495 21.3884C40.1156 21.5802 40.3145 21.8509 40.4181 22.1622L40.5827 22.6563H18.7923L18.9569 22.1622C19.0605 21.8509 19.2594 21.5802 19.5255 21.3884C19.7916 21.1966 20.1114 21.0935 20.4395 21.0938ZM18.2715 24.2188H41.1035L43.4473 31.25H15.9277L18.2715 24.2188ZM44.5312 46.875H39.8438V43.75H44.5312L44.532 46.875H44.5312ZM46.875 40.625C46.8745 41.0393 46.7097 41.4364 46.4168 41.7293C46.1239 42.0222 45.7267 42.187 45.3125 42.1875H14.0625C13.6482 42.187 13.2511 42.0222 12.9582 41.7293C12.6653 41.4364 12.5005 41.0393 12.5 40.625V34.6985C12.5 34.1983 12.6987 33.7186 13.0524 33.3649C13.4061 33.0112 13.8858 32.8125 14.386 32.8125H44.989C45.4892 32.8125 45.9689 33.0112 46.3226 33.3649C46.6763 33.7186 46.875 34.1983 46.875 34.6985V40.625Z" fill="#007BC3"/><path d="M17.1875 34.375C16.5694 34.375 15.9652 34.5583 15.4513 34.9017C14.9374 35.245 14.5369 35.7331 14.3004 36.3041C14.0639 36.8751 14.002 37.5035 14.1225 38.1097C14.2431 38.7159 14.5408 39.2727 14.9778 39.7097C15.4148 40.1468 15.9717 40.4444 16.5778 40.565C17.184 40.6855 17.8124 40.6237 18.3834 40.3871C18.9544 40.1506 19.4425 39.7501 19.7858 39.2362C20.1292 38.7223 20.3125 38.1181 20.3125 37.5C20.3116 36.6715 19.982 35.8772 19.3962 35.2913C18.8103 34.7055 18.016 34.3759 17.1875 34.375ZM17.1875 39.0625C16.8785 39.0625 16.5764 38.9709 16.3194 38.7992C16.0625 38.6275 15.8622 38.3835 15.7439 38.098C15.6257 37.8124 15.5947 37.4983 15.655 37.1952C15.7153 36.8921 15.8641 36.6137 16.0826 36.3951C16.3012 36.1766 16.5796 36.0278 16.8827 35.9675C17.1858 35.9072 17.4999 35.9382 17.7854 36.0564C18.071 36.1747 18.315 36.375 18.4867 36.6319C18.6584 36.8889 18.75 37.191 18.75 37.5C18.7495 37.9143 18.5847 38.3114 18.2918 38.6043C17.9989 38.8972 17.6018 39.062 17.1875 39.0625Z" fill="#007BC3"/><path d="M42.1875 34.375C41.5694 34.375 40.9653 34.5583 40.4513 34.9017C39.9374 35.245 39.5369 35.7331 39.3004 36.3041C39.0639 36.8751 39.002 37.5035 39.1225 38.1097C39.2431 38.7159 39.5408 39.2727 39.9778 39.7097C40.4148 40.1468 40.9717 40.4444 41.5779 40.565C42.184 40.6855 42.8124 40.6237 43.3834 40.3871C43.9544 40.1506 44.4425 39.7501 44.7859 39.2362C45.1292 38.7223 45.3125 38.1181 45.3125 37.5C45.3116 36.6715 44.982 35.8772 44.3962 35.2913C43.8103 34.7055 43.016 34.3759 42.1875 34.375ZM42.1875 39.0625C41.8785 39.0625 41.5764 38.9709 41.3194 38.7992C41.0625 38.6275 40.8622 38.3835 40.7439 38.098C40.6257 37.8124 40.5947 37.4983 40.655 37.1952C40.7153 36.8921 40.8641 36.6137 41.0827 36.3951C41.3012 36.1766 41.5796 36.0278 41.8827 35.9675C42.1858 35.9072 42.4999 35.9382 42.7855 36.0564C43.071 36.1747 43.315 36.375 43.4867 36.6319C43.6584 36.8889 43.75 37.191 43.75 37.5C43.7495 37.9143 43.5847 38.3114 43.2918 38.6043C42.9989 38.8972 42.6018 39.062 42.1875 39.0625Z" fill="#007BC3"/><path d="M21.875 35.1562H37.5V36.7188H21.875V35.1562Z" fill="#007BC3"/><path d="M21.875 38.2812H37.5V39.8438H21.875V38.2812Z" fill="#007BC3"/></svg>
