<svg width="50" height="50" viewBox="0 0 50 50" fill="none" xmlns="http://www.w3.org/2000/svg"><path d="M49.9268 16.5554L49.8932 16.3677C49.8871 16.3387 49.884 16.3097 49.8779 16.2814L46.3715 7.81279V3.64648H3.57051V7.81289L0.12207 16.2808C0.114453 16.3144 0.109863 16.3479 0.103711 16.3807L0.0716797 16.5554C0.0244141 16.8583 0 17.1688 0 17.4854C0 19.7499 1.26348 21.7183 3.125 22.7245V46.3535H46.875V22.7245C48.7351 21.7182 50 19.7498 50 17.4854C50 17.1688 49.974 16.8583 49.9268 16.5554ZM47.5724 16.1465H39.9186L38.9984 9.96133H45.0531L47.5724 16.1465ZM5.65488 5.7293H44.2886V7.81289H5.65488V5.7293ZM38.1226 18.2293L38.2355 18.9854L37.619 19.8055C36.8806 20.7896 35.7514 21.3542 34.523 21.3542C33.2947 21.3542 32.1655 20.7896 31.427 19.8055L30.7983 18.9678L30.7617 18.2293H38.1226ZM30.6595 16.1465L30.3559 9.96133H36.8912L37.8129 16.1465H30.6595ZM28.6759 18.2292L28.7125 18.9846L28.0945 19.8055C27.3561 20.7896 26.2269 21.3542 25 21.3542C23.7701 21.3542 22.6425 20.7896 21.9024 19.8055L21.2707 18.9624L21.3073 18.2292H28.6759ZM21.4127 16.1465L21.7255 9.96133H28.2715L28.5736 16.1465H21.4127ZM12.1979 16.1465L13.1072 9.96133H19.641L19.3267 16.1465H12.1979ZM19.2199 18.2293L19.1817 18.993L18.5714 19.8055C17.8313 20.7896 16.7037 21.3542 15.4754 21.3542C14.2471 21.3542 13.1194 20.7896 12.3794 19.8055L11.7782 19.0052L11.8927 18.2293H19.2199ZM4.94541 9.96133H11.0017L10.0923 16.1465H2.42627L4.94541 9.96133ZM2.15449 18.2293H9.78691L9.62363 19.0388L9.04834 19.8056C8.3083 20.7897 7.18066 21.3543 5.95078 21.3543C4.07256 21.3543 2.50244 20.0085 2.15449 18.2293ZM40.625 44.2723H32.2906V36.9785H33.3328C33.9081 36.9785 34.375 36.5131 34.375 35.9379C34.375 35.3627 33.9081 34.8973 33.3328 34.8973H32.2906V27.6035H40.625V44.2723ZM44.7908 44.2723H44.7906H42.7078V25.5223H30.2078V44.2723H5.20781V23.3914C5.45039 23.4219 5.70068 23.438 5.95088 23.438C7.89795 23.438 9.62822 22.5026 10.7132 21.0568C11.7996 22.5026 13.5284 23.438 15.4755 23.438C17.4226 23.438 19.1514 22.5026 20.2378 21.0568C21.3227 22.5026 23.053 23.438 25.0001 23.438C26.9472 23.438 28.6744 22.5026 29.7608 21.0568C30.8473 22.5026 32.5761 23.438 34.5231 23.438C36.4702 23.438 38.199 22.5026 39.2854 21.0568C40.3719 22.5026 42.0991 23.438 44.0462 23.438C44.2995 23.438 44.5467 23.422 44.7908 23.3914V44.2723ZM44.046 21.3543C42.8192 21.3543 41.69 20.7897 40.9515 19.8056L40.3457 19.0015L40.2282 18.2294H47.8424C47.4945 20.0085 45.9259 21.3543 44.046 21.3543Z" fill="#007BC3"/><path d="M7.29004 25.5225V40.1037H28.1244V25.5225H7.29004ZM26.04 38.0225H9.37441V27.6037H26.04V38.0225Z" fill="#007BC3"/><path d="M23.9502 32.8125C23.6618 32.8125 23.4009 32.9285 23.2132 33.1177L21.1304 35.2021C20.9411 35.3897 20.8252 35.6507 20.8252 35.9375C20.8252 36.5128 21.2921 36.9781 21.8658 36.9781C22.1542 36.9781 22.4151 36.8621 22.6028 36.673L24.6856 34.5917C24.8749 34.4024 24.9908 34.1416 24.9908 33.8532C24.9908 33.2794 24.5255 32.8125 23.9502 32.8125Z" fill="#007BC3"/><path d="M23.9504 28.6475C23.662 28.6475 23.4011 28.7635 23.2134 28.9526L16.9634 35.2011C16.7757 35.3888 16.6582 35.6512 16.6582 35.9381C16.6582 36.5134 17.1251 36.9787 17.7004 36.9787C17.9873 36.9787 18.2481 36.8627 18.4358 36.6735L24.6858 30.4251C24.8751 30.2374 24.991 29.975 24.991 29.6881C24.991 29.1128 24.5257 28.6475 23.9504 28.6475Z" fill="#007BC3"/></svg>
