<svg width="50" height="50" viewBox="0 0 50 50" fill="none" xmlns="http://www.w3.org/2000/svg"><path d="M49.1667 7.91699H40V1.25033C40 0.790117 39.6269 0.416992 39.1667 0.416992H10.8333C10.3731 0.416992 10 0.790117 10 1.25033V12.917H0.833333C0.373125 12.917 0 13.2901 0 13.7503V47.917C0 48.3772 0.373125 48.7503 0.833333 48.7503C1.29354 48.7503 1.66667 48.3772 1.66667 47.917V14.5837H10V48.7503C10 49.2105 10.3731 49.5837 10.8333 49.5837H39.1667C39.6269 49.5837 40 49.2105 40 48.7503V9.58366H48.3333V47.917C48.3333 48.3772 48.7065 48.7503 49.1667 48.7503C49.6269 48.7503 50 48.3772 50 47.917V8.75033C50 8.29012 49.6269 7.91699 49.1667 7.91699ZM24.1667 47.917H20.8333V40.417H24.1667V47.917ZM29.1667 47.917H25.8333V40.417H29.1667V47.917ZM38.3333 47.917H30.8333V39.5837C30.8333 39.1235 30.4602 38.7503 30 38.7503H20C19.5398 38.7503 19.1667 39.1235 19.1667 39.5837V47.917H11.6667V2.08366H38.3333V47.917Z" fill="#007BC3"/><path d="M19.1663 3.75H14.1663C13.7061 3.75 13.333 4.12312 13.333 4.58333V9.58333C13.333 10.0435 13.7061 10.4167 14.1663 10.4167H19.1663C19.6265 10.4167 19.9997 10.0435 19.9997 9.58333V4.58333C19.9997 4.12312 19.6265 3.75 19.1663 3.75ZM18.333 8.75H14.9997V5.41667H18.333V8.75Z" fill="#007BC3"/><path d="M27.5003 3.75H22.5003C22.0401 3.75 21.667 4.12312 21.667 4.58333V9.58333C21.667 10.0435 22.0401 10.4167 22.5003 10.4167H27.5003C27.9605 10.4167 28.3337 10.0435 28.3337 9.58333V4.58333C28.3337 4.12312 27.9605 3.75 27.5003 3.75ZM26.667 8.75H23.3337V5.41667H26.667V8.75Z" fill="#007BC3"/><path d="M35.8333 3.75H30.8333C30.3731 3.75 30 4.12312 30 4.58333V9.58333C30 10.0435 30.3731 10.4167 30.8333 10.4167H35.8333C36.2935 10.4167 36.6667 10.0435 36.6667 9.58333V4.58333C36.6667 4.12312 36.2935 3.75 35.8333 3.75ZM35 8.75H31.6667V5.41667H35V8.75Z" fill="#007BC3"/><path d="M19.1663 12.083H14.1663C13.7061 12.083 13.333 12.4561 13.333 12.9163V17.9163C13.333 18.3765 13.7061 18.7497 14.1663 18.7497H19.1663C19.6265 18.7497 19.9997 18.3765 19.9997 17.9163V12.9163C19.9997 12.4561 19.6265 12.083 19.1663 12.083ZM18.333 17.083H14.9997V13.7497H18.333V17.083Z" fill="#007BC3"/><path d="M27.5003 12.083H22.5003C22.0401 12.083 21.667 12.4561 21.667 12.9163V17.9163C21.667 18.3765 22.0401 18.7497 22.5003 18.7497H27.5003C27.9605 18.7497 28.3337 18.3765 28.3337 17.9163V12.9163C28.3337 12.4561 27.9605 12.083 27.5003 12.083ZM26.667 17.083H23.3337V13.7497H26.667V17.083Z" fill="#007BC3"/><path d="M35.8333 12.083H30.8333C30.3731 12.083 30 12.4561 30 12.9163V17.9163C30 18.3765 30.3731 18.7497 30.8333 18.7497H35.8333C36.2935 18.7497 36.6667 18.3765 36.6667 17.9163V12.9163C36.6667 12.4561 36.2935 12.083 35.8333 12.083ZM35 17.083H31.6667V13.7497H35V17.083Z" fill="#007BC3"/><path d="M19.1663 20.417H14.1663C13.7061 20.417 13.333 20.7901 13.333 21.2503V26.2503C13.333 26.7105 13.7061 27.0837 14.1663 27.0837H19.1663C19.6265 27.0837 19.9997 26.7105 19.9997 26.2503V21.2503C19.9997 20.7901 19.6265 20.417 19.1663 20.417ZM18.333 25.417H14.9997V22.0837H18.333V25.417Z" fill="#007BC3"/><path d="M27.5003 20.417H22.5003C22.0401 20.417 21.667 20.7901 21.667 21.2503V26.2503C21.667 26.7105 22.0401 27.0837 22.5003 27.0837H27.5003C27.9605 27.0837 28.3337 26.7105 28.3337 26.2503V21.2503C28.3337 20.7901 27.9605 20.417 27.5003 20.417ZM26.667 25.417H23.3337V22.0837H26.667V25.417Z" fill="#007BC3"/><path d="M35.8333 20.417H30.8333C30.3731 20.417 30 20.7901 30 21.2503V26.2503C30 26.7105 30.3731 27.0837 30.8333 27.0837H35.8333C36.2935 27.0837 36.6667 26.7105 36.6667 26.2503V21.2503C36.6667 20.7901 36.2935 20.417 35.8333 20.417ZM35 25.417H31.6667V22.0837H35V25.417Z" fill="#007BC3"/><path d="M19.1663 28.75H14.1663C13.7061 28.75 13.333 29.1231 13.333 29.5833V34.5833C13.333 35.0435 13.7061 35.4167 14.1663 35.4167H19.1663C19.6265 35.4167 19.9997 35.0435 19.9997 34.5833V29.5833C19.9997 29.1231 19.6265 28.75 19.1663 28.75ZM18.333 33.75H14.9997V30.4167H18.333V33.75Z" fill="#007BC3"/><path d="M27.5003 28.75H22.5003C22.0401 28.75 21.667 29.1231 21.667 29.5833V34.5833C21.667 35.0435 22.0401 35.4167 22.5003 35.4167H27.5003C27.9605 35.4167 28.3337 35.0435 28.3337 34.5833V29.5833C28.3337 29.1231 27.9605 28.75 27.5003 28.75ZM26.667 33.75H23.3337V30.4167H26.667V33.75Z" fill="#007BC3"/><path d="M35.8333 28.75H30.8333C30.3731 28.75 30 29.1231 30 29.5833V34.5833C30 35.0435 30.3731 35.4167 30.8333 35.4167H35.8333C36.2935 35.4167 36.6667 35.0435 36.6667 34.5833V29.5833C36.6667 29.1231 36.2935 28.75 35.8333 28.75ZM35 33.75H31.6667V30.4167H35V33.75Z" fill="#007BC3"/><path d="M4.99967 16.25H4.16634C3.70613 16.25 3.33301 16.6231 3.33301 17.0833V17.9167C3.33301 18.3769 3.70613 18.75 4.16634 18.75H4.99967C5.45988 18.75 5.83301 18.3769 5.83301 17.9167V17.0833C5.83301 16.6231 5.45988 16.25 4.99967 16.25Z" fill="#007BC3"/><path d="M8.33366 16.25H7.50033C7.04012 16.25 6.66699 16.6231 6.66699 17.0833V17.9167C6.66699 18.3769 7.04012 18.75 7.50033 18.75H8.33366C8.79387 18.75 9.16699 18.3769 9.16699 17.9167V17.0833C9.16699 16.6231 8.79387 16.25 8.33366 16.25Z" fill="#007BC3"/><path d="M4.99967 19.583H4.16634C3.70613 19.583 3.33301 19.9561 3.33301 20.4163V21.2497C3.33301 21.7099 3.70613 22.083 4.16634 22.083H4.99967C5.45988 22.083 5.83301 21.7099 5.83301 21.2497V20.4163C5.83301 19.9561 5.45988 19.583 4.99967 19.583Z" fill="#007BC3"/><path d="M8.33366 19.583H7.50033C7.04012 19.583 6.66699 19.9561 6.66699 20.4163V21.2497C6.66699 21.7099 7.04012 22.083 7.50033 22.083H8.33366C8.79387 22.083 9.16699 21.7099 9.16699 21.2497V20.4163C9.16699 19.9561 8.79387 19.583 8.33366 19.583Z" fill="#007BC3"/><path d="M4.99967 22.917H4.16634C3.70613 22.917 3.33301 23.2901 3.33301 23.7503V24.5837C3.33301 25.0439 3.70613 25.417 4.16634 25.417H4.99967C5.45988 25.417 5.83301 25.0439 5.83301 24.5837V23.7503C5.83301 23.2901 5.45988 22.917 4.99967 22.917Z" fill="#007BC3"/><path d="M8.33366 22.917H7.50033C7.04012 22.917 6.66699 23.2901 6.66699 23.7503V24.5837C6.66699 25.0439 7.04012 25.417 7.50033 25.417H8.33366C8.79387 25.417 9.16699 25.0439 9.16699 24.5837V23.7503C9.16699 23.2901 8.79387 22.917 8.33366 22.917Z" fill="#007BC3"/><path d="M4.99967 26.25H4.16634C3.70613 26.25 3.33301 26.6231 3.33301 27.0833V27.9167C3.33301 28.3769 3.70613 28.75 4.16634 28.75H4.99967C5.45988 28.75 5.83301 28.3769 5.83301 27.9167V27.0833C5.83301 26.6231 5.45988 26.25 4.99967 26.25Z" fill="#007BC3"/><path d="M8.33366 26.25H7.50033C7.04012 26.25 6.66699 26.6231 6.66699 27.0833V27.9167C6.66699 28.3769 7.04012 28.75 7.50033 28.75H8.33366C8.79387 28.75 9.16699 28.3769 9.16699 27.9167V27.0833C9.16699 26.6231 8.79387 26.25 8.33366 26.25Z" fill="#007BC3"/><path d="M4.99967 29.583H4.16634C3.70613 29.583 3.33301 29.9561 3.33301 30.4163V31.2497C3.33301 31.7099 3.70613 32.083 4.16634 32.083H4.99967C5.45988 32.083 5.83301 31.7099 5.83301 31.2497V30.4163C5.83301 29.9561 5.45988 29.583 4.99967 29.583Z" fill="#007BC3"/><path d="M8.33366 29.583H7.50033C7.04012 29.583 6.66699 29.9561 6.66699 30.4163V31.2497C6.66699 31.7099 7.04012 32.083 7.50033 32.083H8.33366C8.79387 32.083 9.16699 31.7099 9.16699 31.2497V30.4163C9.16699 29.9561 8.79387 29.583 8.33366 29.583Z" fill="#007BC3"/><path d="M4.99967 32.917H4.16634C3.70613 32.917 3.33301 33.2901 3.33301 33.7503V34.5837C3.33301 35.0439 3.70613 35.417 4.16634 35.417H4.99967C5.45988 35.417 5.83301 35.0439 5.83301 34.5837V33.7503C5.83301 33.2901 5.45988 32.917 4.99967 32.917Z" fill="#007BC3"/><path d="M8.33366 32.917H7.50033C7.04012 32.917 6.66699 33.2901 6.66699 33.7503V34.5837C6.66699 35.0439 7.04012 35.417 7.50033 35.417H8.33366C8.79387 35.417 9.16699 35.0439 9.16699 34.5837V33.7503C9.16699 33.2901 8.79387 32.917 8.33366 32.917Z" fill="#007BC3"/><path d="M4.99967 36.25H4.16634C3.70613 36.25 3.33301 36.6231 3.33301 37.0833V37.9167C3.33301 38.3769 3.70613 38.75 4.16634 38.75H4.99967C5.45988 38.75 5.83301 38.3769 5.83301 37.9167V37.0833C5.83301 36.6231 5.45988 36.25 4.99967 36.25Z" fill="#007BC3"/><path d="M8.33366 36.25H7.50033C7.04012 36.25 6.66699 36.6231 6.66699 37.0833V37.9167C6.66699 38.3769 7.04012 38.75 7.50033 38.75H8.33366C8.79387 38.75 9.16699 38.3769 9.16699 37.9167V37.0833C9.16699 36.6231 8.79387 36.25 8.33366 36.25Z" fill="#007BC3"/><path d="M4.99967 39.583H4.16634C3.70613 39.583 3.33301 39.9561 3.33301 40.4163V41.2497C3.33301 41.7099 3.70613 42.083 4.16634 42.083H4.99967C5.45988 42.083 5.83301 41.7099 5.83301 41.2497V40.4163C5.83301 39.9561 5.45988 39.583 4.99967 39.583Z" fill="#007BC3"/><path d="M8.33366 39.583H7.50033C7.04012 39.583 6.66699 39.9561 6.66699 40.4163V41.2497C6.66699 41.7099 7.04012 42.083 7.50033 42.083H8.33366C8.79387 42.083 9.16699 41.7099 9.16699 41.2497V40.4163C9.16699 39.9561 8.79387 39.583 8.33366 39.583Z" fill="#007BC3"/><path d="M4.99967 42.917H4.16634C3.70613 42.917 3.33301 43.2901 3.33301 43.7503V44.5837C3.33301 45.0439 3.70613 45.417 4.16634 45.417H4.99967C5.45988 45.417 5.83301 45.0439 5.83301 44.5837V43.7503C5.83301 43.2901 5.45988 42.917 4.99967 42.917Z" fill="#007BC3"/><path d="M8.33366 42.917H7.50033C7.04012 42.917 6.66699 43.2901 6.66699 43.7503V44.5837C6.66699 45.0439 7.04012 45.417 7.50033 45.417H8.33366C8.79387 45.417 9.16699 45.0439 9.16699 44.5837V43.7503C9.16699 43.2901 8.79387 42.917 8.33366 42.917Z" fill="#007BC3"/><path d="M45.8337 11.25H42.5003C42.0401 11.25 41.667 11.6231 41.667 12.0833V15.4167C41.667 15.8769 42.0401 16.25 42.5003 16.25H45.8337C46.2939 16.25 46.667 15.8769 46.667 15.4167V12.0833C46.667 11.6231 46.2939 11.25 45.8337 11.25ZM45.0003 14.5833H43.3337V12.9167H45.0003V14.5833Z" fill="#007BC3"/><path d="M45.8337 17.917H42.5003C42.0401 17.917 41.667 18.2901 41.667 18.7503V22.0837C41.667 22.5439 42.0401 22.917 42.5003 22.917H45.8337C46.2939 22.917 46.667 22.5439 46.667 22.0837V18.7503C46.667 18.2901 46.2939 17.917 45.8337 17.917ZM45.0003 21.2503H43.3337V19.5837H45.0003V21.2503Z" fill="#007BC3"/><path d="M45.8337 24.583H42.5003C42.0401 24.583 41.667 24.9561 41.667 25.4163V28.7497C41.667 29.2099 42.0401 29.583 42.5003 29.583H45.8337C46.2939 29.583 46.667 29.2099 46.667 28.7497V25.4163C46.667 24.9561 46.2939 24.583 45.8337 24.583ZM45.0003 27.9163H43.3337V26.2497H45.0003V27.9163Z" fill="#007BC3"/><path d="M45.8337 31.25H42.5003C42.0401 31.25 41.667 31.6231 41.667 32.0833V35.4167C41.667 35.8769 42.0401 36.25 42.5003 36.25H45.8337C46.2939 36.25 46.667 35.8769 46.667 35.4167V32.0833C46.667 31.6231 46.2939 31.25 45.8337 31.25ZM45.0003 34.5833H43.3337V32.9167H45.0003V34.5833Z" fill="#007BC3"/><path d="M45.8337 37.917H42.5003C42.0401 37.917 41.667 38.2901 41.667 38.7503V42.0837C41.667 42.5439 42.0401 42.917 42.5003 42.917H45.8337C46.2939 42.917 46.667 42.5439 46.667 42.0837V38.7503C46.667 38.2901 46.2939 37.917 45.8337 37.917ZM45.0003 41.2503H43.3337V39.5837H45.0003V41.2503Z" fill="#007BC3"/></svg>
