<svg width="26" height="24" fill="none" xmlns="http://www.w3.org/2000/svg"><g clip-path="url(#a)" stroke="#FA4907" stroke-width="2" stroke-linecap="round" stroke-linejoin="round"><path d="M21.297 22c.566 0 1.024-.448 1.024-1s-.458-1-1.024-1c-.565 0-1.023.448-1.023 1s.458 1 1.023 1ZM10.04 22c.565 0 1.023-.448 1.023-1s-.458-1-1.023-1-1.023.448-1.023 1 .458 1 1.023 1ZM1.853 1h4.093L8.69 14.39c.094.46.35.874.724 1.168.374.295.842.451 1.323.442h9.947c.48.009.949-.147 1.323-.442.374-.294.63-.708.724-1.168L24.368 6H6.97"/></g><defs><clipPath id="a"><path fill="#fff" transform="translate(.83)" d="M0 0h24.562v24H0z"/></clipPath></defs></svg>