<svg width="25" height="25" fill="none" xmlns="http://www.w3.org/2000/svg"><path d="M16.666 20.314h2.083" stroke="#fff" stroke-width="1.5" stroke-linecap="round" stroke-linejoin="round"/><path clip-rule="evenodd" d="M19.791 22.915h-4.167a2.083 2.083 0 0 1-2.083-2.083V13.54c0-1.15.932-2.083 2.083-2.083h4.167c1.151 0 2.083.932 2.083 2.083v7.292a2.083 2.083 0 0 1-2.083 2.083ZM10.625 6.64H5a1.875 1.875 0 0 1-1.875-1.874v-.704c0-.517.42-.937.938-.937h7.5c.517 0 .937.42.937.938v.703c0 1.035-.84 1.875-1.875 1.875Z" stroke="#fff" stroke-width="1.5" stroke-linecap="round" stroke-linejoin="round"/><path d="M4.618 6.64a3.431 3.431 0 0 0 5.624 3.682 3.432 3.432 0 0 0 .766-3.681M9.375 21.875H4.91c-.985 0-1.785-.8-1.785-1.785v-4.465M16.666 3.125h3.423c.985 0 1.785.8 1.785 1.785v3.423" stroke="#fff" stroke-width="1.5" stroke-linecap="round" stroke-linejoin="round"/></svg>