<svg width="25" height="25" fill="none" xmlns="http://www.w3.org/2000/svg"><path d="M13.541 4.42a4.42 4.42 0 0 1 6.25 0M15.104 6.504a2.21 2.21 0 0 1 3.125 0M13.541 17.708h-6.25M16.63 17.745a.052.052 0 0 1 0-.074c.021-.02.053-.02.074 0 .021.021.021.053 0 .074a.052.052 0 0 1-.074 0M16.667 13.542V9.375" stroke="#fff" stroke-width="1.5" stroke-linecap="round" stroke-linejoin="round"/><path clip-rule="evenodd" d="M5.208 13.543h14.584c1.15 0 2.083.932 2.083 2.083v4.167a2.083 2.083 0 0 1-2.083 2.083H5.208a2.083 2.083 0 0 1-2.083-2.083v-4.167c0-1.15.932-2.083 2.083-2.083Z" stroke="#fff" stroke-width="1.5" stroke-linecap="round" stroke-linejoin="round"/></svg>