<svg width="25" height="25" fill="none" xmlns="http://www.w3.org/2000/svg"><path clip-rule="evenodd" d="m20.669 8.645-6.25-4.861a3.124 3.124 0 0 0-3.838 0l-6.25 4.861a3.123 3.123 0 0 0-1.206 2.467v7.638a3.125 3.125 0 0 0 3.125 3.125h12.5a3.125 3.125 0 0 0 3.125-3.125v-7.638c0-.965-.445-1.875-1.206-2.467Z" stroke="#fff" stroke-width="1.5"/><path d="M12.5 17.617c.174 0 .317.137.317.306a.313.313 0 0 1-.318.306.313.313 0 0 1-.317-.306c0-.169.142-.306.317-.306M17.578 12.062c-2.961-2.312-7.195-2.312-10.156 0M9.54 15.022a4.848 4.848 0 0 1 5.923 0" stroke="#fff" stroke-width="1.5" stroke-linecap="round" stroke-linejoin="round"/></svg>