<svg width="100" height="100" fill="none" xmlns="http://www.w3.org/2000/svg"><g clip-path="url(#a)" fill="#fff"><path d="M98.04 64.15v5.553c-.204 1.523-.345 3.055-.635 4.56-.158.829-.067 1.458.634 1.951v20.681c-.521.975-1.373 1.164-2.41 1.164-23.507-.018-47.014-.023-70.522-.015h-12.63c-.854 0-1.533-.227-2.076-.933a48.484 48.484 0 0 1-8.932-18.644C.943 76.212.172 73.943.105 71.662-.08 65.285.034 58.899.048 52.512c0-1.18.589-1.862 1.742-1.812.957.041 1.225-.4 1.521-1.16 4.025-10.373 10.76-18.492 20.206-24.358 1.181-.735 1.282-.989.88-2.437-.718.04-1.407.117-2.105.12-5.04.01-10.08.01-15.119 0a8.714 8.714 0 0 1-2.177-.223c-3.175-.84-5.269-3.796-4.91-6.843.412-3.474 2.981-5.834 6.46-5.985a1.34 1.34 0 0 0 .957-.536c3.42-5.819 11.07-5.83 14.43 0 .129.223.36.5.581.536.648.084 1.3.136 1.952.154.393-1.47.756-1.76 2.23-1.765h10.889c0-2.02.023-3.928 0-5.833-.017-.996.239-1.812 1.122-2.35h20.671c.885.538 1.14 1.352 1.122 2.345-.033 1.915 0 3.811 0 5.728.146.048.296.081.448.1 3.153 0 6.306.022 9.46-.011.373 0 .734-.314 1.115-.44 1.196-.4 2.366-.85 3.589-1.135.495-.117.837-.18 1.112-.67 1.534-2.765 3.926-4.244 7.07-4.261 3.194-.017 5.608 1.462 7.178 4.241a1.104 1.104 0 0 0 1.112.654 6.295 6.295 0 0 1 3.733 1.254c1.538 1.097 2.294 2.657 2.715 4.43v1.724c-.067.209-.136.417-.198.627-.905 3.093-3.11 4.867-6.346 4.97-2.392.074-4.785.021-7.177.021H73.54c0 1.295.038 2.724-.017 4.153-.024.637.206.972.732 1.28a45.94 45.94 0 0 1 9.06 6.998c7.178 7.101 11.793 15.606 13.77 25.513.433 2.181.64 4.405.954 6.61ZM73.584 28.506c-.134 2.19-.5 2.53-2.632 2.53H27.13c-.318 0-.639.012-.957 0a1.631 1.631 0 0 1-1.62-1.572c-.033-.304-.035-.608-.06-1.044-8.436 5.506-14.426 12.833-18.104 22.177h6.7V44.79c0-1.754.53-2.278 2.287-2.278H33.46c2.079 0 2.52.44 2.52 2.527v5.635H46.587c1.974 0 2.443.467 2.443 2.394v17.998c0 2.013-.457 2.47-2.48 2.47H3.865c.022.313.022.534.058.749a45.895 45.895 0 0 0 8.244 19.752 1.605 1.605 0 0 0 1.472.752 11741.9 11741.9 0 0 1 34.352-.017h1.057V77.493c0-1.83.495-2.33 2.323-2.332h9.664c.335 0 .67-.033 1.062-.055v-1.149c0-1.659-.017-3.32 0-4.979.02-1.278.589-1.96 1.725-1.962 6.474-.021 12.95-.021 19.425 0 1.015 0 1.584.562 1.71 1.575.035.413.044.828.027 1.242v5.333h8.943c3.668-18.484-5.368-37.54-20.34-46.66ZM57.182 3.32H40.929v24.404h3.2V26.65c0-1.659-.018-3.317 0-4.974.018-1.436.602-2.049 2.026-2.07 1.914-.027 3.828-.027 5.742 0 1.435.019 2.026.613 2.048 2.046.026 1.69 0 3.38 0 5.07 0 .335.03.668.045.991h3.192V3.32ZM32.675 45.825H16.437v24.388h3.182c0-2.06-.017-4.069 0-6.065.017-1.436.615-2.044 2.038-2.061 1.915-.022 3.828-.022 5.743 0 1.418.017 2.014.622 2.033 2.063.024 1.69 0 3.38 0 5.072 0 .333.034.668.05.987h3.17l.022-24.385Zm49 24.51H65.438v24.39h3.081a.932.932 0 0 0 .084-.24c0-1.946 0-3.89.03-5.836.022-1.436.618-2.044 2.04-2.06 1.913-.023 3.827-.023 5.741 0 1.42.016 2.013.622 2.034 2.065.024 1.69 0 3.38 0 5.072 0 .333.034.668.05.984h3.168l.007-24.374Zm1.629-54.007v-.022c2.804 0 5.61.05 8.414-.017a3.172 3.172 0 0 0 3.027-3.571 3.232 3.232 0 0 0-3.927-2.794c-1.815.37-2.244.13-2.823-1.594A4.848 4.848 0 0 0 83.5 4.936c-2.285-.067-4.096 1.264-4.847 3.56-.479 1.436-1.058 1.764-2.48 1.5a7.414 7.414 0 0 0-1.782-.052c-.646.038-.887.406-.859 1.086a40.038 40.038 0 0 1 0 4.017c-.047.802.321 1.106.993 1.197.443.056.89.082 1.335.076 2.472.01 4.958.008 7.444.008ZM14.693 19.58v.016h7.457c.446 0 .892-.023 1.335-.072.718-.081 1.132-.368 1.075-1.225-.08-1.197-.02-2.423-.02-3.634 0-1.25-.272-1.544-1.524-1.572a4.275 4.275 0 0 0-.942.124c-1.637.338-2.154.04-2.675-1.572-.69-2.114-2.483-3.445-4.649-3.447a4.855 4.855 0 0 0-4.675 3.423c-.57 1.694-1.007 1.946-2.74 1.57-1.688-.366-3.28.493-3.827 2.063a3.2 3.2 0 0 0 2.966 4.309c2.735.064 5.489.017 8.219.017ZM85.064 78.5v16.202h9.638V78.5h-9.638ZM3.35 70.21h9.682V54.006H3.35v16.205Zm34.19-42.473V11.521h-9.681v16.215l9.68.002ZM60.557 11.49v16.207h9.654V11.49h-9.654ZM45.724 70.223V54.001h-9.68v16.224l9.68-.002Zm16.327 8.303h-9.68v16.18h9.68v-16.18ZM47.47 22.934v4.787h3.131v-4.787h-3.131Zm24.49 71.78H75.1v-4.787h-3.14v4.788ZM22.99 65.403v4.811h3.11v-4.81h-3.11Z"/><path d="M47.35 42.57v3.134h-3.14V42.57h3.14ZM60.531 60.4v-3.11h3.156v3.11h-3.156ZM70.224 60.422h-3.132V57.27h3.132v3.152ZM76.743 60.427h-3.135V57.27h3.132l.003 3.157ZM31.019 85.04v3.151h-3.16V85.04h3.16ZM24.463 81.674H21.34V78.5h3.125v3.174ZM21.33 85.027h3.145v3.17H21.33v-3.17ZM37.541 85.059V88.2h-3.139V85.06h3.14ZM40.912 88.201V85.04h3.142v3.162h-3.142ZM57.17 57.27v3.138h-3.135v-3.139h3.134ZM47.372 36.047v3.112h-3.18v-3.112h3.18ZM47.312 9.733h-3.134V6.59h3.132l.002 3.143ZM50.722 6.563h3.13v3.154h-3.13V6.562ZM47.348 13.121v3.155h-3.139V13.12h3.139ZM53.876 16.277h-3.122v-3.16h3.125l-.003 3.16ZM29.392 52.242h-3.141V49.07h3.141v3.172ZM29.368 58.752h-3.143V55.61h3.143v3.143ZM19.689 49.07h3.14v3.162h-3.14V49.07ZM22.84 55.625v3.112h-3.151v-3.112h3.15ZM68.678 76.728V73.59h3.177v3.138h-3.177ZM78.404 73.61v3.126H75.23v-3.127h3.173ZM68.702 80.098h3.122v3.171h-3.122v-3.171ZM75.212 83.275v-3.138h3.175v3.138h-3.175ZM88.337 88.293h3.11v3.17h-3.11v-3.17ZM91.469 84.95h-3.132v-3.169h3.13l.002 3.17ZM9.773 66.964H6.629v-3.16h3.144v3.16ZM6.645 57.238h3.11v3.174h-3.11v-3.174ZM31.118 14.77h3.132v3.15h-3.132v-3.15ZM31.102 21.293h3.144v3.162h-3.144v-3.162ZM66.95 17.936h-3.143v-3.135h3.143v3.135ZM63.796 24.462v-3.146h3.163v3.146h-3.163ZM42.44 66.966h-3.123v-3.17h3.123v3.17ZM42.442 60.438h-3.11v-3.176h3.11v3.176ZM58.758 91.493h-3.11v-3.169h3.11v3.17ZM58.792 81.793v3.112h-3.175v-3.112h3.175Z"/></g><defs><clipPath id="a"><path fill="#fff" d="M0 0h100v100H0z"/></clipPath></defs></svg>