<svg width="100" height="100" fill="none" xmlns="http://www.w3.org/2000/svg"><path d="M0 31.897c.177-.26.376-.506.53-.78 3.543-6.332 7.12-12.648 10.614-19.012C12.336 9.934 14.008 9 16.435 9c21.752.036 43.507.036 65.266 0 2.472 0 4.14.978 5.345 3.178 3.246 5.944 6.502 11.885 9.955 17.704 1.23 2.071 1.25 4.012.661 6.137a13.756 13.756 0 0 1-5.007 7.428 1.716 1.716 0 0 0-.62 1.154c-.033 14.048-.04 28.097-.025 42.146 0 .19.022.379.041.692.534 0 1.035-.025 1.531 0 .865.051 1.438.599 1.478 1.374.041.775-.541 1.435-1.425 1.535-.287.021-.575.026-.863.015H5.37a5.125 5.125 0 0 1-1.143-.074c-.75-.173-1.169-.704-1.123-1.481 0-.35.134-.686.373-.938a1.31 1.31 0 0 1 .906-.41c.534-.056 1.078 0 1.694 0 .024-.347.062-.628.062-.906 0-13.951-.005-27.902-.016-41.853a1.61 1.61 0 0 0-.48-1.132c-3.02-2.296-4.86-5.293-5.472-9.08a2.253 2.253 0 0 0-.17-.44v-2.152Zm23.557 2h-2.844c-2.3 0-4.6.014-6.9-.017-.909 0-1.543-.631-1.503-1.428.043-.878.568-1.35 1.4-1.467.318-.03.638-.04.958-.027h68.807c.445-.013.89.03 1.325.125.322.064.607.252.796.525.19.273.268.61.22.942-.004.33-.13.649-.351.89a1.29 1.29 0 0 1-.847.418 7.305 7.305 0 0 1-.959.039h-9.08c.213 4.425 4.552 9.31 10.384 9.205 5.99-.107 9.967-5.286 10.027-9.205h-1.136c-1.12 0-2.238.014-3.355-.027-.824-.032-1.308-.543-1.348-1.364-.039-.778.38-1.303 1.145-1.455a6.927 6.927 0 0 1 1.236-.086h2.636c-.22-.43-.345-.687-.48-.936-3.114-5.54-6.229-11.07-9.296-16.626-.572-1.039-1.286-1.467-2.45-1.467-21.914.023-43.827.023-65.74 0-1.165 0-1.88.416-2.452 1.455-3.071 5.562-6.196 11.093-9.298 16.635-.151.272-.278.555-.48.942 1.222 0 2.305-.032 3.388 0 1.04.039 1.666.662 1.63 1.53-.034.83-.647 1.355-1.651 1.387-.575.017-1.15 0-1.725 0H3.088c.393 5.134 5.324 9.34 10.468 9.21 5.791-.132 9.836-5.061 10-9.198Zm-14.49 53.48h53.946V52.047c0-1.866.36-2.24 2.176-2.24h16.865c1.917 0 2.266.372 2.266 2.364v35.198h4.735V45.415c-7.013 1.77-12.373-.489-16.2-6.716-2.69 4.699-6.595 7.315-11.905 7.313-5.31-.003-9.176-2.678-11.888-7.348-2.715 4.722-6.61 7.35-11.92 7.347-5.31-.002-9.191-2.67-11.877-7.31-3.824 6.281-9.212 8.474-16.199 6.729v41.947Zm72.32-34.568H65.947v26.728h15.442V52.808Zm-54.473-18.87c.24 4.911 5.206 9.244 10.362 9.168 5.887-.086 9.965-5.103 10.097-9.169h-20.46Zm44.325 0H50.727c.338 4.909 4.854 8.99 10.082 9.15 5.149.167 9.857-3.926 10.442-9.15h-.013Zm10.144 48.654H65.956v4.775h15.436l-.01-4.775Z" fill="#fff"/><path d="M36.035 49.802H55.87c1.991 0 2.336.355 2.336 2.398v27.963c0 1.956-.395 2.367-2.29 2.367H16.052c-1.823 0-2.235-.428-2.238-2.32V52.05c0-1.824.41-2.247 2.19-2.249 6.679-.002 13.355-.002 20.03 0Zm19.247 2.993h-38.51v26.733H55.28l.002-26.733Z" fill="#fff"/></svg>