<svg width="100" height="100" fill="none" xmlns="http://www.w3.org/2000/svg"><g clip-path="url(#a)" fill="#fff"><path d="M2.298 98.037c-1.733-1.211-1.817-2.26-.29-3.79 3.99-3.99 7.985-7.983 11.986-11.981.242-.253.51-.48.799-.678a1.862 1.862 0 0 1 2.58 2.598c-.201.289-.43.557-.684.802-3.99 3.99-7.985 7.98-11.988 11.97-.452.393-.932.753-1.436 1.077l-.967.002ZM0 79.458c.299-.478.634-.934 1.003-1.362C5.02 74.05 9.05 70.013 13.09 65.99a4.97 4.97 0 0 1 .792-.675 1.886 1.886 0 0 1 2.293.206 1.866 1.866 0 0 1 .292 2.353c-.211.317-.457.61-.732.874L3.767 80.718c-1.522 1.522-2.57 1.436-3.782-.297L0 79.458ZM17.617 98.037c-1.733-1.211-1.816-2.26-.29-3.79 3.99-3.99 7.985-7.983 11.986-11.981.242-.253.51-.48.8-.678a1.862 1.862 0 0 1 2.58 2.598c-.223.31-.474.6-.752.864-3.97 3.974-7.945 7.943-11.925 11.908-.453.394-.932.755-1.436 1.082l-.962-.003ZM74.227 53.262c.687 1.963 1.498 3.715 1.915 5.559.986 4.452-.278 8.39-3.206 11.816-3.028 3.543-6.941 5.76-11.262 7.31a28.184 28.184 0 0 1-8.207 1.692c-.982.045-1.87-.091-2.351-1.08-.481-.989-.053-1.776.613-2.506 2.329-2.557 3.372-5.583 3.169-9.021-.079-1.336-.448-1.532-1.707-1.092-2.434.85-4.883 1.657-7.32 2.502-1.395.479-2.788.642-4.277.074l-.888 1.573c-2.437 4.333-6.377 6.608-11.01 7.79-2.895.74-5.86 1.197-8.807 1.72-1.566.272-2.633-.7-2.482-2.215.443-4.362 1.328-8.619 3.02-12.689 1.463-3.514 3.986-6.023 7.306-7.792.24-.132.479-.275.792-.45-.663-1.575-.364-3.088.154-4.592.828-2.408 1.649-4.819 2.484-7.225.328-.94.086-1.384-.917-1.467a11.79 11.79 0 0 0-8.49 2.485c-.352.275-.685.572-1.027.861-.69.584-1.448.814-2.295.386a1.848 1.848 0 0 1-1.032-1.992c.225-1.896.333-3.83.807-5.667 1.247-4.847 3.35-9.295 6.886-12.927 3.16-3.247 6.927-5.059 11.557-4.68 2.228.21 4.384.904 6.317 2.034.464.261.749.24 1.12-.194 8.2-9.762 18.747-15.855 30.77-19.63A87.748 87.748 0 0 1 95.24.02c2.098-.167 2.943.642 2.761 2.71-1.091 12.385-4.344 24.12-10.596 34.938a57.727 57.727 0 0 1-12.507 14.999c-.266.223-.522.46-.67.594ZM89.235 24.85c-.175-.194-.371-.429-.589-.647-4.869-4.874-9.759-9.731-14.599-14.627-.644-.654-1.14-.718-1.953-.386-6.987 2.766-13.479 6.37-19.03 11.51-6.661 6.163-11.77 13.467-15.71 21.616-.239.515-.215.82.202 1.233a4567.502 4567.502 0 0 1 16.92 16.921c.41.412.719.462 1.233.208a81.47 81.47 0 0 0 13.268-8.125c9.42-7.05 15.95-16.203 20.054-27.16l.204-.543ZM41.95 26.956c-3.466-2.394-8.593-1.996-11.99.98-3.476 3.045-5.505 6.942-6.805 11.29-.165.55-.264 1.12-.426 1.822 3.83-1.703 7.542-2.395 11.322-1.24l7.899-12.852Zm15.017 48.455c1.396-.426 2.6-.718 3.744-1.154 4.232-1.628 8.028-3.859 10.532-7.833 1.915-3.03 1.793-7.582-.186-10.33l-12.88 7.9c1.299 3.787.413 7.498-1.21 11.417Zm-34.514.13c3.435-.558 6.585-1.243 9.575-2.553 2.906-1.269 4.82-3.471 6.065-6.308a1.173 1.173 0 0 0-.172-1.041c-1.8-1.888-3.64-3.738-5.52-5.55a1.1 1.1 0 0 0-.957-.203 11.217 11.217 0 0 0-4.682 3.363c-2.827 3.527-3.394 7.853-4.299 12.282l-.01.01ZM77.602 7.31l13.117 13.105a85.974 85.974 0 0 0 3.318-16.44A86.823 86.823 0 0 0 77.61 7.31l-.01.002ZM51.08 62.778 35.25 46.944c-.75 2.43-1.554 4.867-2.217 7.342-.115.429.24 1.147.594 1.513a458.382 458.382 0 0 0 8.586 8.59c.383.374 1.144.718 1.601.591 2.449-.648 4.857-1.453 7.267-2.202Z"/><path d="M10.307 58.412c.144-.24.352-.79.718-1.178a397.55 397.55 0 0 1 5.012-5.02c.944-.924 2.105-.984 2.892-.206.788.778.766 1.915-.184 2.887a461.196 461.196 0 0 1-5.077 5.078c-.64.63-1.393.917-2.265.507-.73-.34-1.11-.93-1.096-2.068ZM39.13 87.992c-.562-.46-1.158-.78-1.514-1.274-.48-.656-.33-1.436.186-2.04.556-.655 1.197-1.247 1.793-1.857 1.216-1.221 2.423-2.454 3.663-3.649.68-.656 1.488-.861 2.357-.35.737.436 1.085 1.116.888 1.942a2.75 2.75 0 0 1-.687 1.219 201.515 201.515 0 0 1-5.01 5.008c-.409.39-.99.601-1.675 1ZM68.999 38.523a9.488 9.488 0 0 1-9.493-9.598c.052-5.307 4.387-9.607 9.596-9.513 5.32.095 9.593 4.414 9.512 9.616a9.543 9.543 0 0 1-9.615 9.495Zm.04-3.83a5.728 5.728 0 1 0-5.706-5.703 5.746 5.746 0 0 0 5.706 5.703ZM55.656 44.413c-1.599-.012-2.633-1.676-1.752-2.794a25.473 25.473 0 0 1 3.35-3.385c.664-.581 1.645-.383 2.272.225.628.608.865 1.621.302 2.265-1.065 1.219-2.26 2.325-3.437 3.438-.204.194-.584.203-.735.251ZM50.116 49.813a1.854 1.854 0 0 1-1.901-1.85 1.891 1.891 0 0 1 1.853-1.916 1.927 1.927 0 0 1 1.915 1.87 1.882 1.882 0 0 1-1.867 1.896Z"/></g><defs><clipPath id="a"><path fill="#fff" d="M0 0h100v100H0z"/></clipPath></defs></svg>