<svg width="40" height="40" fill="none" xmlns="http://www.w3.org/2000/svg"><rect width="40" height="40" rx="20" fill="#000"/><path d="M13.08 23.393c.143-1.186.63-1.85 1.547-2.53 1.311-.923 2.95-.401 2.95-.401v-3.094c.398-.01.796.013 1.19.07v3.982s-1.637-.522-2.95.4c-.915.681-1.403 1.346-1.546 2.532-.004.644.117 1.486.673 2.214a5.41 5.41 0 0 1-.42-.242c-1.226-.823-1.45-2.058-1.444-2.93Zm12.452-11.746c-.902-.989-1.243-1.987-1.366-2.688H25.3s-.227 1.839 1.423 3.647l.023.024a6.541 6.541 0 0 1-1.215-.983ZM31 14.45v3.902s-1.448-.057-2.52-.33c-1.497-.381-2.459-.966-2.459-.966s-.664-.417-.718-.446v8.056c0 .449-.123 1.57-.497 2.504-.49 1.222-1.244 2.024-1.383 2.188 0 0-.917 1.085-2.536 1.815-1.46.659-2.74.642-3.124.659 0 0-2.215.088-4.208-1.208a8.362 8.362 0 0 1-1.201-.965l.01.007c1.993 1.295 4.207 1.207 4.207 1.207.384-.016 1.665 0 3.124-.659 1.617-.73 2.537-1.814 2.537-1.814.137-.164.895-.967 1.382-2.19.373-.933.497-2.054.497-2.503v-8.055c.054.03.718.446.718.446s.962.586 2.46.967c1.072.272 2.52.329 2.52.329v-3.057c.495.11.917.141 1.191.113Z" fill="#FD355A"/><path d="M29.808 14.337v3.056s-1.448-.057-2.52-.33c-1.497-.38-2.46-.966-2.46-.966s-.664-.417-.717-.446v8.057c0 .449-.123 1.57-.498 2.503-.489 1.223-1.243 2.026-1.382 2.19 0 0-.918 1.084-2.537 1.814-1.459.66-2.74.643-3.123.66 0 0-2.215.087-4.208-1.208l-.01-.008a7.62 7.62 0 0 1-.594-.644c-.636-.776-1.026-1.693-1.124-1.954a.01.01 0 0 1 0-.004c-.157-.455-.489-1.547-.443-2.605.08-1.866.736-3.012.91-3.299a7.84 7.84 0 0 1 1.767-2.069 7.454 7.454 0 0 1 2.1-1.192 7.308 7.308 0 0 1 2.607-.524v3.094s-1.639-.52-2.95.4c-.917.68-1.403 1.345-1.546 2.531-.006.873.217 2.108 1.442 2.932.143.09.283.17.42.241.215.278.475.52.772.718 1.196.757 2.2.81 3.481.318.855-.329 1.5-1.07 1.798-1.892.187-.513.185-1.029.185-1.563V8.96h2.984c.123.701.465 1.7 1.367 2.688.362.373.77.704 1.214.983.131.136.803.808 1.665 1.22.445.213.915.377 1.4.487Z" fill="#fff"/><path d="M9.45 26.111v.003l.073.2c-.008-.023-.036-.094-.074-.203Z" fill="#33F3ED"/><path d="M14.97 17.893a7.454 7.454 0 0 0-2.1 1.191 7.837 7.837 0 0 0-1.767 2.074c-.173.286-.83 1.433-.91 3.299-.045 1.058.286 2.15.444 2.605a.01.01 0 0 0 0 .003c.1.26.488 1.177 1.124 1.955.185.225.383.44.593.644a8.157 8.157 0 0 1-1.784-1.604c-.631-.768-1.02-1.676-1.121-1.944V26.107c-.159-.454-.49-1.547-.445-2.606.08-1.867.737-3.012.91-3.3a7.83 7.83 0 0 1 1.767-2.073 7.443 7.443 0 0 1 2.1-1.192c.477-.19.974-.33 1.482-.417a7.674 7.674 0 0 1 2.316-.033v.882a7.306 7.306 0 0 0-2.609.525Z" fill="#33F3ED"/><path d="M24.165 8.96H21.18v15.188c0 .534 0 1.049-.185 1.563-.301.821-.942 1.562-1.797 1.891-1.283.494-2.285.44-3.482-.318a3.217 3.217 0 0 1-.773-.715c1.02.52 1.932.512 3.062.077.854-.329 1.496-1.07 1.796-1.892.188-.513.186-1.029.186-1.562V8h4.12s-.046.378.058.96Zm5.643 4.532v.845a6.68 6.68 0 0 1-1.398-.487c-.862-.412-1.533-1.084-1.665-1.22.153.096.311.183.474.262 1.048.501 2.08.65 2.589.6Z" fill="#33F3ED"/></svg>