<svg width="40" height="40" fill="none" xmlns="http://www.w3.org/2000/svg"><path fill-rule="evenodd" clip-rule="evenodd" d="M20 40c11.046 0 20-8.954 20-20S31.046 0 20 0 0 8.954 0 20s8.954 20 20 20Z" fill="#F1F1F1"/><path fill-rule="evenodd" clip-rule="evenodd" d="m10.276 9.334-1.565 4.174v16.694h5.736v3.132h3.132l3.129-3.132h4.694l6.26-6.258V9.334H10.277Zm2.086 2.085h17.215v11.479l-3.652 3.652h-5.738l-3.127 3.128V26.55h-4.698V11.42Z" fill="#6441A5"/><path fill-rule="evenodd" clip-rule="evenodd" d="M18.1 21.855h2.086v-6.26H18.1v6.26Zm5.738-.001h2.087v-6.26h-2.087v6.26Z" fill="#6441A5"/></svg>