<svg width="18" height="18" viewBox="0 0 18 18" fill="none" xmlns="http://www.w3.org/2000/svg">
<path d="M14.2222 2.25H3.33333C2.71449 2.25 2.121 2.49583 1.68342 2.93342C1.24583 3.371 1 3.96449 1 4.58333V10.8056C1 11.4244 1.24583 12.0179 1.68342 12.4555C2.121 12.8931 2.71449 13.1389 3.33333 13.1389H8V14.6944H4.88889C4.68261 14.6944 4.48478 14.7764 4.33892 14.9222C4.19306 15.0681 4.11111 15.2659 4.11111 15.4722C4.11111 15.6785 4.19306 15.8763 4.33892 16.0222C4.48478 16.1681 4.68261 16.25 4.88889 16.25H12.6667C12.8729 16.25 13.0708 16.1681 13.2166 16.0222C13.3625 15.8763 13.4444 15.6785 13.4444 15.4722C13.4444 15.2659 13.3625 15.0681 13.2166 14.9222C13.0708 14.7764 12.8729 14.6944 12.6667 14.6944H9.55556V13.1389H14.2222C14.8411 13.1389 15.4346 12.8931 15.8721 12.4555C16.3097 12.0179 16.5556 11.4244 16.5556 10.8056V4.58333C16.5556 3.96449 16.3097 3.371 15.8721 2.93342C15.4346 2.49583 14.8411 2.25 14.2222 2.25ZM15 10.8056C15 11.0118 14.9181 11.2097 14.7722 11.3555C14.6263 11.5014 14.4285 11.5833 14.2222 11.5833H3.33333C3.12705 11.5833 2.92922 11.5014 2.78336 11.3555C2.6375 11.2097 2.55556 11.0118 2.55556 10.8056V4.58333C2.55556 4.37705 2.6375 4.17922 2.78336 4.03336C2.92922 3.8875 3.12705 3.80556 3.33333 3.80556H14.2222C14.4285 3.80556 14.6263 3.8875 14.7722 4.03336C14.9181 4.17922 15 4.37705 15 4.58333V10.8056Z" fill="#AAAAAA"/>
</svg>
