<svg width="38" height="38" fill="none" xmlns="http://www.w3.org/2000/svg"><g clip-path="url(#a)" fill="#555759"><path d="M27.619 3.549A12.136 12.136 0 0 0 18.92 0a12.155 12.155 0 0 0-8.456 3.5 12.142 12.142 0 0 0-3.672 8.38 12.138 12.138 0 0 0 3.407 8.81c1.8 1.872 2.793 4.363 2.793 7.013V32.8a2.23 2.23 0 0 0 1.702 2.164v.68A2.36 2.36 0 0 0 17.052 38h3.896a2.36 2.36 0 0 0 2.357-2.356v-.676a2.23 2.23 0 0 0 1.72-2.168v-5.097c0-2.615 1.019-5.134 2.869-7.094a12.17 12.17 0 0 0 3.335-8.389c0-3.28-1.282-6.36-3.61-8.671ZM21.82 35.644c0 .48-.39.872-.872.872h-3.896a.873.873 0 0 1-.872-.872v-.617h5.64v.617Zm1.72-2.844c0 .41-.333.742-.742.742H15.22a.743.743 0 0 1-.742-.742V28.58h9.063V32.8Zm-5.697-5.705v-9.388h2.312v9.388h-2.312Zm8.972-7.505c-1.969 2.084-3.113 4.729-3.259 7.505H21.64v-9.388h.667a2.154 2.154 0 0 0 2.152-2.152v-.115a2.154 2.154 0 0 0-2.152-2.151 2.154 2.154 0 0 0-2.151 2.151v.783h-2.312v-.783a2.154 2.154 0 0 0-2.152-2.151h-.146a2.154 2.154 0 0 0-2.152 2.151v.115c0 1.187.966 2.152 2.152 2.152h.813v9.388h-1.896c-.142-2.808-1.263-5.428-3.192-7.434a10.664 10.664 0 0 1-2.993-7.74C8.432 6.207 13.21 1.525 18.93 1.485a10.659 10.659 0 0 1 7.642 3.117 10.662 10.662 0 0 1 3.172 7.618c0 2.753-1.04 5.37-2.93 7.37Zm-5.176-3.367v-.783a.668.668 0 0 1 1.335 0v.115c0 .368-.3.668-.668.668h-.667Zm-5.28-.783v.783h-.814a.668.668 0 0 1-.667-.668v-.115c0-.367.3-.667.667-.667h.146c.368 0 .667.3.667.667Z"/><path d="M26.964 9.008a8.591 8.591 0 0 0-3.135-3.896 8.56 8.56 0 0 0-4.908-1.494.742.742 0 0 0 .005 1.485H18.983a7.083 7.083 0 0 1 6.605 4.46.742.742 0 1 0 1.376-.555ZM27.366 11.694a.747.747 0 0 0-.524-.217.744.744 0 0 0-.525 1.267.743.743 0 0 0 1.267-.525.747.747 0 0 0-.218-.525ZM34.47 3.698a.742.742 0 0 0-1.05 0L32.036 5.08a.742.742 0 0 0 1.05 1.05l1.382-1.383c.29-.29.29-.76 0-1.05ZM34.47 19.694l-1.384-1.383a.742.742 0 0 0-1.05 1.05l1.383 1.383a.74.74 0 0 0 1.05 0c.29-.29.29-.76 0-1.05ZM37.258 11.477h-1.955a.742.742 0 1 0 0 1.484h1.955a.742.742 0 0 0 0-1.484ZM5.963 5.08 4.581 3.699a.742.742 0 0 0-1.05 1.05L4.914 6.13a.74.74 0 0 0 1.05 0c.289-.29.289-.76 0-1.05ZM5.963 18.311a.742.742 0 0 0-1.05 0l-1.382 1.383a.742.742 0 0 0 1.05 1.05l1.382-1.383c.29-.29.29-.76 0-1.05ZM2.698 11.477H.742a.742.742 0 1 0 0 1.484h1.956a.742.742 0 0 0 0-1.484Z"/></g><defs><clipPath id="a"><path fill="#fff" d="M0 0h38v38H0z"/></clipPath></defs></svg>