<svg width="38" height="38" fill="none" xmlns="http://www.w3.org/2000/svg"><path d="M26.125.594h-14.25a2.972 2.972 0 0 0-2.969 2.969v30.875a2.972 2.972 0 0 0 2.969 2.968h14.25a2.971 2.971 0 0 0 2.969-2.968V3.561A2.972 2.972 0 0 0 26.125.595Zm-3.1 1.187-.355 1.782h-7.34l-.356-1.782h8.052Zm4.881 32.657a1.783 1.783 0 0 1-1.781 1.78h-14.25a1.783 1.783 0 0 1-1.781-1.78V3.561a1.783 1.783 0 0 1 1.781-1.78h1.888l.498 2.49a.593.593 0 0 0 .583.478h8.312a.594.594 0 0 0 .582-.477l.499-2.492h1.888a1.783 1.783 0 0 1 1.781 1.782v30.875Z" fill="#555759"/><path d="M15.438 33.844h-3.563a.593.593 0 1 0 0 1.187h3.563a.593.593 0 1 0 0-1.187ZM17.813 33.844h-.594a.594.594 0 1 0 0 1.187h.593a.593.593 0 1 0 0-1.187Z" fill="#555759"/></svg>