<svg width="38" height="38" fill="none" xmlns="http://www.w3.org/2000/svg"><path d="M34.405 31.837H14.891a.514.514 0 0 1-.513-.514V6.674a.514.514 0 0 1 .513-.513h19.514a2.57 2.57 0 0 1 2.567 2.567V29.27a2.57 2.57 0 0 1-2.567 2.568Zm-19-1.027h19a1.54 1.54 0 0 0 1.54-1.541V8.729a1.54 1.54 0 0 0-1.54-1.541h-19V30.81ZM5.649 31.837H3.595a2.57 2.57 0 0 1-2.568-2.568V8.729A2.57 2.57 0 0 1 3.595 6.16h2.054a.513.513 0 1 1 0 1.027H3.595a1.54 1.54 0 0 0-1.54 1.54V29.27a1.54 1.54 0 0 0 1.54 1.54h2.054a.513.513 0 1 1 0 1.028Z" fill="#555759"/><path d="M13.864 33.893H6.675a1.54 1.54 0 0 1-1.54-1.54V5.65a1.54 1.54 0 0 1 1.54-1.54h7.19a1.54 1.54 0 0 1 1.54 1.54v26.702a1.54 1.54 0 0 1-1.54 1.54ZM6.675 5.136a.514.514 0 0 0-.513.514v26.702a.513.513 0 0 0 .513.514h7.19a.513.513 0 0 0 .513-.514V5.65a.514.514 0 0 0-.514-.514H6.675ZM32.602 14.327H18.75a1.12 1.12 0 0 1-1.12-1.119v-3.137a1.12 1.12 0 0 1 1.12-1.118h13.852a1.12 1.12 0 0 1 1.12 1.118v3.136a1.12 1.12 0 0 1-1.12 1.12ZM18.75 9.98a.092.092 0 0 0-.092.091v3.136a.092.092 0 0 0 .092.092h13.852a.092.092 0 0 0 .092-.092v-3.136a.092.092 0 0 0-.092-.091H18.75ZM32.01 19.974H30.81a1.54 1.54 0 0 1-1.54-1.54v-.686a1.54 1.54 0 0 1 1.54-1.541h1.199a1.54 1.54 0 0 1 1.54 1.54v.686a1.54 1.54 0 0 1-1.54 1.54Zm-1.199-2.74a.514.514 0 0 0-.514.514v.685a.513.513 0 0 0 .514.514h1.199a.513.513 0 0 0 .513-.514v-.685a.513.513 0 0 0-.513-.514H30.81ZM26.275 19.974h-1.198a1.54 1.54 0 0 1-1.54-1.54v-.686a1.54 1.54 0 0 1 1.54-1.541h1.198a1.54 1.54 0 0 1 1.54 1.54v.686a1.54 1.54 0 0 1-1.54 1.54Zm-1.198-2.739a.513.513 0 0 0-.514.514v.684a.513.513 0 0 0 .514.514h1.198a.513.513 0 0 0 .514-.514v-.685a.513.513 0 0 0-.514-.514l-1.198.001ZM20.54 19.974H19.34a1.54 1.54 0 0 1-1.54-1.54v-.686a1.54 1.54 0 0 1 1.54-1.541h1.199a1.54 1.54 0 0 1 1.54 1.54v.686a1.54 1.54 0 0 1-1.54 1.54Zm-1.199-2.739a.513.513 0 0 0-.513.514v.684a.513.513 0 0 0 .513.514h1.199a.513.513 0 0 0 .513-.514v-.685a.513.513 0 0 0-.513-.514l-1.199.001ZM32.01 24.511H30.81a1.54 1.54 0 0 1-1.54-1.54v-.684a1.54 1.54 0 0 1 1.54-1.54h1.199a1.54 1.54 0 0 1 1.54 1.54v.685a1.54 1.54 0 0 1-1.54 1.54Zm-1.199-2.738a.514.514 0 0 0-.514.514v.685a.513.513 0 0 0 .514.513h1.199a.513.513 0 0 0 .513-.513v-.685a.513.513 0 0 0-.513-.514H30.81ZM26.275 24.511h-1.198a1.54 1.54 0 0 1-1.54-1.54v-.684a1.54 1.54 0 0 1 1.54-1.54h1.198a1.54 1.54 0 0 1 1.54 1.54v.685a1.54 1.54 0 0 1-1.54 1.54Zm-1.198-2.738a.513.513 0 0 0-.514.514v.685a.513.513 0 0 0 .514.513h1.198a.513.513 0 0 0 .514-.513v-.685a.513.513 0 0 0-.514-.514h-1.198ZM20.54 24.511H19.34a1.54 1.54 0 0 1-1.54-1.54v-.684a1.54 1.54 0 0 1 1.54-1.54h1.199a1.54 1.54 0 0 1 1.54 1.54v.685a1.54 1.54 0 0 1-1.54 1.54Zm-1.199-2.738a.513.513 0 0 0-.513.514v.685a.513.513 0 0 0 .513.513h1.199a.513.513 0 0 0 .513-.513v-.685a.513.513 0 0 0-.513-.514H19.34ZM32.01 29.047H30.81a1.54 1.54 0 0 1-1.54-1.541v-.684a1.54 1.54 0 0 1 1.54-1.541h1.199a1.54 1.54 0 0 1 1.54 1.54v.685a1.54 1.54 0 0 1-1.54 1.54Zm-1.199-2.739a.514.514 0 0 0-.514.514v.684a.513.513 0 0 0 .514.514h1.199a.513.513 0 0 0 .513-.514v-.684a.513.513 0 0 0-.513-.514H30.81ZM26.275 29.047h-1.198a1.54 1.54 0 0 1-1.54-1.541v-.684a1.54 1.54 0 0 1 1.54-1.541h1.198a1.54 1.54 0 0 1 1.54 1.54v.685a1.54 1.54 0 0 1-1.54 1.54Zm-1.198-2.739a.513.513 0 0 0-.514.514v.684a.513.513 0 0 0 .514.514h1.198a.513.513 0 0 0 .514-.514v-.684a.513.513 0 0 0-.514-.514h-1.198ZM20.54 29.047H19.34a1.54 1.54 0 0 1-1.54-1.541v-.684a1.54 1.54 0 0 1 1.54-1.541h1.199a1.54 1.54 0 0 1 1.54 1.54v.685a1.54 1.54 0 0 1-1.54 1.54Zm-1.199-2.739a.513.513 0 0 0-.513.514v.684a.513.513 0 0 0 .513.514h1.199a.513.513 0 0 0 .513-.514v-.684a.513.513 0 0 0-.513-.514H19.34Z" fill="#555759"/></svg>