<svg width="48" height="48" viewBox="0 0 48 48" fill="none" xmlns="http://www.w3.org/2000/svg">
<path fill-rule="evenodd" clip-rule="evenodd" d="M40 40V11.556C40 9.592 38.408 8 36.444 8H11.556C9.592 8 8 9.592 8 11.556V32.89C8 34.854 9.592 36.446 11.556 36.446H33.334L40 40Z" stroke="#323232" stroke-width="2" stroke-linecap="round" stroke-linejoin="round"/>
<path d="M23.996 29.5817C23.804 29.5817 23.648 29.7377 23.65 29.9297C23.65 30.1217 23.806 30.2777 23.998 30.2777C24.19 30.2777 24.346 30.1217 24.346 29.9297C24.348 29.7377 24.192 29.5817 23.996 29.5817" stroke="#323232" stroke-width="2" stroke-linecap="round" stroke-linejoin="round"/>
<path d="M23.9985 24.1527V23.6727C23.9985 22.0987 24.9705 21.2467 25.9465 20.5927C26.8985 19.9527 27.8525 19.1167 27.8525 17.5747C27.8525 15.4467 26.1285 13.7227 24.0005 13.7227C21.8725 13.7227 20.1465 15.4427 20.1465 17.5707" stroke="#323232" stroke-width="2" stroke-linecap="round" stroke-linejoin="round"/>
</svg>
