<svg width="34" height="34" fill="none" xmlns="http://www.w3.org/2000/svg"><path d="M21.528 17.562h8.012a2.266 2.266 0 1 0 0-1.133h-8.012v-5.665h2.833a1.7 1.7 0 0 0 1.7-1.7V3.966c0-.313.253-.567.566-.567h2.913a2.266 2.266 0 1 0 0-1.133h-2.913a1.7 1.7 0 0 0-1.7 1.7v5.098a.567.567 0 0 1-.566.567h-2.833V4.532C21.528 1.948 16.901 0 10.764 0S0 1.948 0 4.532V29.46c0 2.584 4.627 4.533 10.764 4.533s10.764-1.949 10.764-4.533v-2.832h2.833c.313 0 .566.253.566.566v3.4c0 .938.761 1.699 1.7 1.699h2.913a2.266 2.266 0 1 0 0-1.133h-2.913a.567.567 0 0 1-.567-.567v-3.399a1.7 1.7 0 0 0-1.7-1.7h-2.832v-7.93Zm10.198-1.7a1.133 1.133 0 1 1 0 2.267 1.133 1.133 0 0 1 0-2.266Zm0-14.162a1.133 1.133 0 1 1 0 2.266 1.133 1.133 0 0 1 0-2.266Zm0 28.892a1.133 1.133 0 1 1 0 2.266 1.133 1.133 0 0 1 0-2.266ZM10.764 1.133c5.676 0 9.63 1.791 9.63 3.4 0 1.607-3.954 3.398-9.63 3.398s-9.63-1.79-9.63-3.399c-.001-1.608 3.954-3.399 9.63-3.399Zm-9.63 5.48c1.731 1.48 5.3 2.451 9.63 2.451 4.33 0 7.899-.972 9.63-2.45v6.416c0 1.608-3.954 3.4-9.63 3.4s-9.63-1.792-9.63-3.4V6.614Zm9.63 26.245c-5.676 0-9.63-1.79-9.63-3.399v-6.416c1.731 1.479 5.3 2.45 9.63 2.45 4.33 0 7.899-.971 9.63-2.45v6.416c0 1.608-3.954 3.4-9.63 3.4Zm0-8.497c-5.676 0-9.63-1.792-9.63-3.4v-5.85c1.731 1.48 5.3 2.451 9.63 2.451 4.33 0 7.899-.972 9.63-2.45v5.85c0 1.607-3.954 3.399-9.63 3.399Z" fill="#555759"/></svg>