<svg width="38" height="38" fill="none" xmlns="http://www.w3.org/2000/svg"><path d="M31.508 9.658v14.607a.633.633 0 0 1-1.266 0V9.658c0-1.047-.853-1.9-1.9-1.9H9.658c-1.047 0-1.9.853-1.9 1.9v18.684c0 1.047.853 1.9 1.9 1.9h18.684c1.047 0 1.9-.853 1.9-1.9a.633.633 0 1 1 1.266 0 3.17 3.17 0 0 1-3.166 3.166H9.658a3.17 3.17 0 0 1-3.166-3.166V9.658a3.17 3.17 0 0 1 3.166-3.166h18.684a3.17 3.17 0 0 1 3.166 3.166ZM19 4.592c.35 0 .633-.284.633-.634V.633a.633.633 0 1 0-1.266 0v3.325c0 .35.283.634.633.634Zm-6.333 0c.35 0 .633-.284.633-.634V.633a.633.633 0 0 0-1.267 0v3.325c0 .35.284.634.634.634Zm12.666 0c.35 0 .634-.284.634-.634V.633a.633.633 0 0 0-1.267 0v3.325c0 .35.284.634.633.634ZM19 33.408a.633.633 0 0 0-.633.634v3.325a.633.633 0 0 0 1.266 0v-3.325a.633.633 0 0 0-.633-.634Zm6.333 0a.633.633 0 0 0-.633.634v3.325a.633.633 0 0 0 1.267 0v-3.325a.633.633 0 0 0-.634-.634Zm-12.666 0a.633.633 0 0 0-.634.634v3.325a.633.633 0 0 0 1.267 0v-3.325a.633.633 0 0 0-.633-.634Zm24.7-15.041h-3.325a.633.633 0 1 0 0 1.266h3.325a.633.633 0 0 0 0-1.266ZM34.042 13.3h3.325a.633.633 0 0 0 0-1.267h-3.325a.633.633 0 0 0 0 1.267Zm3.325 11.4h-3.325a.633.633 0 0 0 0 1.267h3.325a.633.633 0 0 0 0-1.267ZM3.958 18.367H.633a.633.633 0 1 0 0 1.266h3.325a.633.633 0 1 0 0-1.266Zm0 6.333H.633a.633.633 0 0 0 0 1.267h3.325a.633.633 0 0 0 0-1.267Zm0-12.667H.633a.633.633 0 0 0 0 1.267h3.325a.633.633 0 0 0 0-1.267Zm15.882 9.254a1.187 1.187 0 1 1-1.678 1.68 1.187 1.187 0 0 1 1.678-1.68Zm2.071-1.175a.633.633 0 0 0 0-.896 4.114 4.114 0 0 0-5.822 0 .633.633 0 1 0 .896.896 2.848 2.848 0 0 1 4.03 0 .634.634 0 0 0 .896 0Zm2.351-2.351a.633.633 0 0 0 0-.896 7.438 7.438 0 0 0-10.524 0 .633.633 0 1 0 .896.896 6.172 6.172 0 0 1 8.732 0 .633.633 0 0 0 .896 0Z" fill="#555759"/></svg>