<svg width="250" height="51" viewBox="0 0 250 51" fill="none" xmlns="http://www.w3.org/2000/svg">
<g clip-path="url(#clip0_1308_65913)">
<path d="M249.373 0.84792C247.215 0.84792 245.065 0.84792 242.907 0.779862C242.467 0.779862 242.264 0.856427 242.093 1.20522C240.244 4.60813 238.143 8.22371 236.303 11.6521C236.287 11.68 236.264 11.7031 236.237 11.7195C236.21 11.7358 236.179 11.7448 236.148 11.7457C236.117 11.7441 236.087 11.7348 236.06 11.7185C236.033 11.7022 236.01 11.6795 235.993 11.6521C234.145 8.24924 232.052 4.62514 230.204 1.20522C230.017 0.856427 229.813 0.771355 229.389 0.779862C227.232 0.779862 225.082 0.864934 222.932 0.84792C222.468 0.84792 222.297 1.01807 222.297 1.51999C222.297 9.91382 222.297 18.3162 222.297 26.727C222.297 27.263 222.468 27.4161 222.956 27.4076C224.667 27.4076 226.368 27.4076 228.078 27.4076C228.714 27.4076 228.893 27.2034 228.893 26.5569C228.893 21.4525 228.893 16.3481 228.893 11.2438C228.893 10.9886 228.893 10.5207 228.99 10.4781C229.088 10.4356 229.178 10.5802 229.218 10.6568C230.725 13.4982 232.24 16.3311 233.73 19.164C233.868 19.4193 233.958 19.5724 234.251 19.5724H238.184C238.469 19.5724 238.567 19.4193 238.705 19.164C240.195 16.3141 241.71 13.4812 243.216 10.6568C243.257 10.5717 243.322 10.4271 243.444 10.4781C243.567 10.5292 243.542 10.9886 243.542 11.2438C243.542 16.3481 243.542 21.4525 243.542 26.5569C243.542 27.1864 243.681 27.4076 244.316 27.4076C246.018 27.365 247.728 27.4076 249.438 27.4076C249.926 27.4076 250.097 27.2545 250.097 26.727C250.097 18.3332 250.097 9.93084 250.097 1.51999C250.097 1.01807 249.926 0.84792 249.47 0.84792" fill="#F04E37"/>
<path d="M66.9681 1.62164C66.9681 1.01762 66.7808 0.881509 66.2352 0.890016C62.7744 0.890016 59.3218 0.890016 55.8528 0.890016C52.3839 0.890016 48.9312 0.890016 45.4704 0.890016C44.9248 0.890016 44.7294 1.02613 44.7375 1.62164C44.7783 3.14444 44.7375 4.67575 44.7375 6.19855C44.7375 6.81107 44.9411 6.95569 45.4786 6.93868C47.5225 6.93868 49.5501 6.93868 51.6184 6.93868C52.2617 6.93868 52.4327 7.14285 52.4327 7.7894C52.4327 14.0593 52.4327 20.3206 52.4327 26.5904C52.4327 27.2795 52.6119 27.4412 53.247 27.4412C54.1265 27.4412 55.0141 27.4412 55.8935 27.4412C56.773 27.4412 57.6606 27.4412 58.54 27.4412C59.1833 27.4412 59.3543 27.271 59.3543 26.5904C59.3543 20.3206 59.3543 14.0593 59.3543 7.7894C59.3543 7.15136 59.5009 6.93868 60.1686 6.93868C62.2126 6.98121 64.2402 6.93868 66.3085 6.93868C66.846 6.93868 67.0658 6.81107 67.0495 6.19855C67.0495 4.67575 67.0088 3.14444 67.0495 1.62164" fill="#0081C8"/>
<path d="M90.6813 1.62164C90.6813 1.01762 90.494 0.881509 89.9566 0.890016C86.4876 0.890016 83.035 0.890016 79.5742 0.890016C76.1134 0.890016 72.6526 0.890016 69.1918 0.890016C68.6462 0.890016 68.4426 1.02613 68.4589 1.62164C68.4996 3.14444 68.4589 4.67575 68.4589 6.19855C68.4589 6.81107 68.6625 6.95569 69.1999 6.93868C71.2438 6.93868 73.2715 6.93868 75.3317 6.93868C75.9831 6.93868 76.146 7.14285 76.146 7.7894C76.146 14.0593 76.146 20.3206 76.146 26.5904C76.146 27.2795 76.3251 27.4412 76.9603 27.4412C77.8479 27.4412 78.7273 27.4412 79.6068 27.4412C80.4862 27.4412 81.3738 27.4412 82.2533 27.4412C82.8966 27.4412 83.0676 27.271 83.0676 26.5904C83.0676 20.3206 83.0676 14.0593 83.0676 7.7894C83.0676 7.15136 83.2141 6.93868 83.8819 6.93868C85.9258 6.98121 87.9534 6.93868 90.0217 6.93868C90.5592 6.93868 90.779 6.81107 90.7627 6.19855C90.7247 4.67858 90.7247 3.15295 90.7627 1.62164" fill="#0081C8"/>
<path d="M22.2224 1.62134C22.2224 1.01732 22.0351 0.881208 21.4895 0.889715C18.0287 0.889715 14.5761 0.889715 11.1071 0.889715C7.63819 0.889715 4.19367 0.906729 0.732875 0.881208C0.18729 0.8727 0 1.01732 0 1.62134C0.0434296 3.14697 0.0434296 4.67261 0 6.19825C0 6.81077 0.203576 6.95539 0.741018 6.93838C2.78493 6.93838 4.81255 6.93838 6.87274 6.93838C7.51604 6.93838 7.68705 7.14255 7.68705 7.7891C7.68705 14.059 7.68705 20.3203 7.68705 26.5901C7.68705 27.2792 7.86619 27.4409 8.50135 27.4409C9.38894 27.4409 10.2684 27.4409 11.1478 27.4409C12.0273 27.4409 12.9149 27.4409 13.8025 27.4409C14.4458 27.4409 14.6168 27.2707 14.6168 26.5901C14.6168 20.3203 14.6168 14.059 14.6168 7.7891C14.6168 7.15106 14.7552 6.93838 15.4311 6.93838C17.475 6.98091 19.5026 6.93838 21.5628 6.93838C22.1084 6.93838 22.3201 6.81077 22.3038 6.19825C22.2658 4.67828 22.2658 3.15265 22.3038 1.62134" fill="#0081C8"/>
<path d="M166.476 14.1781C166.476 10.0181 166.476 5.87503 166.476 1.71498C166.476 1.04291 166.68 0.864258 167.291 0.864258C169.017 0.864258 170.751 0.864258 172.478 0.864258C173.121 0.864258 173.292 1.06843 173.292 1.71498C173.292 4.48835 173.292 7.25321 173.292 10.0181C173.292 10.6646 173.455 10.8688 174.106 10.8688C175.47 10.897 176.834 10.7888 178.178 10.5455C178.897 10.3647 179.557 9.98855 180.092 9.45519C180.627 8.92182 181.017 8.25021 181.223 7.50843C181.756 5.874 182.124 4.18616 182.323 2.47213C182.526 0.906794 182.51 0.906794 183.951 0.906794C185.393 0.906794 187.095 0.906794 188.666 0.906794C189.204 0.906794 189.318 1.06843 189.204 1.60439C188.845 3.23778 188.634 4.90521 188.21 6.53009C187.453 9.42256 186.581 12.2555 184.301 14.3227C183.959 14.6375 184.098 14.9012 184.236 15.1735C186.136 18.7919 188.036 22.4046 189.936 26.0117C190.669 27.4069 190.686 27.3984 189.122 27.3984H183.463C183.297 27.4384 183.122 27.4138 182.973 27.3293C182.823 27.2447 182.707 27.1059 182.648 26.939C181.166 23.8083 179.635 20.6947 178.137 17.581C178.074 17.3745 177.943 17.198 177.767 17.0828C177.591 16.9676 177.382 16.9211 177.176 16.9515C176.061 17.0195 174.929 17.0195 173.813 16.994C173.3 16.994 173.162 17.1727 173.162 17.6916C173.162 20.6692 173.162 23.6467 173.162 26.6242C173.162 27.2368 173.007 27.475 172.413 27.4239C170.659 27.3842 168.908 27.3842 167.16 27.4239C166.582 27.4239 166.387 27.2793 166.387 26.6498C166.387 22.4897 166.387 18.3467 166.387 14.1951" fill="#F04E37"/>
<path d="M143.317 14.1872C143.317 10.0356 143.317 5.8841 143.317 1.73256C143.317 1.0775 143.497 0.881836 144.132 0.881836C149.745 0.881836 155.356 0.881836 160.963 0.881836C161.55 0.881836 161.778 1.00094 161.778 1.69003C161.721 3.05119 161.713 4.41235 161.778 5.765C161.778 6.47961 161.533 6.56468 160.963 6.56468C157.617 6.56468 154.27 6.56468 150.931 6.56468C150.231 6.56468 150.044 6.76886 150.117 7.46645C150.174 8.49583 150.117 9.53372 150.117 10.5631C150.117 11.0905 150.272 11.2522 150.768 11.2437C153.749 11.2437 156.737 11.2437 159.726 11.2437C160.54 11.2437 160.581 11.2437 160.581 12.154C160.581 13.4215 160.581 14.7061 160.581 15.9567C160.581 16.5692 160.426 16.8074 159.823 16.7649C156.867 16.7649 153.895 16.7649 150.939 16.7649C150.231 16.7649 150.06 16.9946 150.125 17.6837C150.174 18.8066 150.125 19.9381 150.125 21.0866C150.125 21.6566 150.304 21.8012 150.825 21.7927C154.343 21.7927 157.869 21.7927 161.411 21.7927C162.014 21.7927 162.185 21.9713 162.16 22.5839C162.12 23.9876 162.16 25.3998 162.16 26.8375C162.16 27.3394 162.071 27.5351 161.533 27.5351C155.719 27.5351 149.905 27.5351 144.091 27.5351C143.497 27.5351 143.391 27.3054 143.391 26.7609C143.391 22.6094 143.391 18.4578 143.391 14.3063" fill="#0081C8"/>
<path d="M94.2641 14.1357C94.2641 10.0097 94.2641 5.88369 94.2641 1.74916C94.2641 1.12813 94.3863 0.898438 95.0784 0.898438C100.713 0.926795 106.348 0.926795 111.983 0.898438C112.562 0.898438 112.798 1.05157 112.741 1.68111C112.692 3.05928 112.7 4.44596 112.741 5.83265C112.741 6.43666 112.57 6.58129 112.016 6.58129C108.628 6.58129 105.241 6.58129 101.845 6.58129C101.235 6.58129 101.031 6.74292 101.031 7.43201C101.084 8.44077 101.084 9.45184 101.031 10.4606C101.031 11.1667 101.243 11.3113 101.845 11.3113C104.761 11.3113 107.676 11.3113 110.599 11.3113C111.462 11.3113 111.479 11.3113 111.487 12.162C111.487 13.4722 111.487 14.7908 111.487 16.1009C111.487 16.6369 111.316 16.7815 110.819 16.7815C107.79 16.7815 104.761 16.7815 101.723 16.7815C101.169 16.7815 100.974 16.9346 100.99 17.5301C100.99 18.6531 101.039 19.7846 100.99 20.933C100.99 21.5966 101.129 21.7838 101.805 21.7838C105.265 21.7838 108.718 21.7838 112.179 21.7838C112.887 21.7838 113.05 21.9964 112.993 22.694C112.936 24.0977 112.993 25.5099 112.993 26.9477C112.993 27.3645 112.895 27.5262 112.464 27.5262C106.579 27.5262 100.697 27.5262 94.8178 27.5262C94.2397 27.5262 94.2315 27.2114 94.2397 26.7775C94.2397 22.6033 94.2397 18.4291 94.2397 14.2548" fill="#0081C8"/>
<path d="M210.246 16.5774C209.35 20.3376 206.875 22.3879 203.023 21.6818C202.058 21.5119 201.159 21.0597 200.429 20.3776C199.7 19.6955 199.171 18.8115 198.903 17.828C198.541 16.7598 198.356 15.6348 198.357 14.5017C198.357 11.5582 198.984 9.21015 201.044 7.55974C203.854 5.31383 208.805 6.13052 210.002 10.5883C210.585 12.5166 210.663 14.5726 210.23 16.5434L210.246 16.5774ZM217.021 10.3246C216.565 7.9097 215.431 5.69137 213.764 3.95267C211.207 1.34094 208.064 0.354095 204.554 0.320066C202.423 0.250497 200.308 0.732712 198.398 1.72376C196.626 2.62306 195.086 3.95285 193.907 5.60174C192.729 7.25062 191.945 9.1706 191.623 11.2009C191.264 13.1853 191.264 15.2225 191.623 17.207C191.974 19.593 192.955 21.8292 194.457 23.664C195.531 24.923 196.833 25.9471 198.288 26.6772C199.743 27.4074 201.322 27.8289 202.934 27.9176C206.42 28.3641 209.934 27.3484 212.705 25.0932C215.175 23.0262 216.8 20.0545 217.249 16.7816C217.584 14.6502 217.515 12.4707 217.046 10.3671" fill="#F04E37"/>
<path d="M35.5686 15.8292C33.94 15.8292 32.3847 15.8292 30.7886 15.8292C30.3571 15.8292 30.2593 15.7697 30.4222 15.2847C31.3994 12.4688 32.3277 9.62742 33.3456 6.58182L35.0882 11.9669C35.422 12.9963 35.7396 14.0342 36.0898 15.0551C36.3096 15.7101 36.2526 15.8207 35.5686 15.8207V15.8292ZM46.863 26.8801C46.0487 24.6683 45.2344 22.4479 44.469 20.236C43.3371 17.1393 42.1808 14.0512 41.0408 10.9546C39.9007 7.85791 38.6956 4.59963 37.5555 1.35836C37.5224 1.2129 37.4374 1.08612 37.3178 1.00391C37.1983 0.921703 37.0532 0.890254 36.9122 0.915985H30.1861C29.8522 0.915985 29.5835 0.915985 29.4369 1.34986C28.6226 3.44264 27.8083 5.52692 27.0591 7.61971C25.6667 11.3544 24.2905 15.0976 22.8899 18.8323C21.8801 21.5291 20.8215 24.2089 19.7792 26.8972C19.6489 27.2545 19.7304 27.4161 20.1212 27.4076H25.911C26.0303 27.4284 26.1528 27.4015 26.2539 27.3321C26.3551 27.2627 26.4274 27.156 26.4565 27.0333C26.994 25.3318 27.564 23.6984 28.0852 22.031C28.1248 21.812 28.2451 21.618 28.4202 21.4908C28.5954 21.3635 28.8113 21.3131 29.0216 21.3504C31.8065 21.3504 34.5833 21.3504 37.3764 21.3504C37.5865 21.3184 37.8004 21.3734 37.9723 21.5037C38.1442 21.634 38.2605 21.8293 38.2965 22.048C38.8014 23.7069 39.3633 25.3488 39.8844 27.0077C39.974 27.28 40.0799 27.3991 40.3486 27.3991H46.5455C46.9038 27.3991 46.9526 27.263 46.8305 26.9227" fill="#0081C8"/>
<path d="M121.331 6.53922C121.331 16.9011 120.037 21.7927 116.763 21.7417C116.674 21.7322 116.584 21.7423 116.499 21.7712C116.414 21.8002 116.335 21.8474 116.269 21.9099C116.202 21.9724 116.148 22.0487 116.112 22.134C116.075 22.2193 116.055 22.3117 116.055 22.4053V26.9056C116.056 27.0076 116.076 27.1084 116.115 27.202C116.154 27.2956 116.21 27.3801 116.281 27.4507C116.351 27.5212 116.435 27.5763 116.526 27.6127C116.617 27.6491 116.714 27.6662 116.812 27.6627C122.944 27.4075 127.325 23.7919 127.626 7.73874C127.63 7.54011 127.708 7.35096 127.843 7.21127C127.979 7.07157 128.161 6.99226 128.351 6.99011H131.917C132.11 6.99011 132.294 7.06988 132.43 7.21187C132.566 7.35386 132.642 7.54644 132.642 7.74725V26.5653C132.642 26.7669 132.718 26.9604 132.854 27.1037C132.99 27.2471 133.174 27.3287 133.367 27.331H138.432C138.625 27.3287 138.809 27.2471 138.945 27.1037C139.08 26.9604 139.157 26.7669 139.157 26.5653V1.8262C139.158 1.72606 139.14 1.62669 139.104 1.53384C139.068 1.44099 139.015 1.35652 138.947 1.28531C138.88 1.2141 138.799 1.15757 138.711 1.11898C138.623 1.0804 138.528 1.06054 138.432 1.06055H122.846C122.646 1.06054 122.449 1.10175 122.264 1.1818C122.08 1.26186 121.913 1.37917 121.772 1.52701C121.631 1.67485 121.52 1.85029 121.444 2.04325C121.369 2.23621 121.33 2.44289 121.331 2.6514V6.53922Z" fill="#0081C8"/>
</g>
<path d="M186.823 50.6088V39.3194H194.165V41.6878H189.586V43.4404H191.513C192.607 43.4404 193.492 43.7773 194.165 44.4509C194.85 45.1246 195.192 45.9878 195.192 47.0404C195.192 48.093 194.85 48.9509 194.165 49.6141C193.492 50.2773 192.607 50.6088 191.513 50.6088H186.823ZM189.586 48.2404H190.992C191.434 48.2404 191.776 48.1351 192.018 47.9246C192.26 47.7036 192.381 47.4088 192.381 47.0404C192.381 46.672 192.255 46.3773 192.002 46.1562C191.76 45.9246 191.407 45.8088 190.944 45.8088H189.586V48.2404Z" fill="#0081C8"/>
<path d="M197.052 50.6088V39.3194H199.815V44.593L199.689 46.5194H199.72C200.057 45.7299 200.373 45.0878 200.668 44.593L203.794 39.3194H206.589V50.6088H203.826V45.3509L203.952 43.4246H203.92C203.583 44.2141 203.268 44.8562 202.973 45.3509L199.831 50.6088H197.052Z" fill="#0081C8"/>
<path d="M208.245 49.0773L209.682 47.2615C210.45 48.0088 211.25 48.3825 212.082 48.3825C213.071 48.3825 213.566 47.9615 213.566 47.1194C213.566 46.3825 213.124 46.0141 212.24 46.0141H210.882V43.8194H211.987C212.387 43.8194 212.703 43.7088 212.935 43.4878C213.177 43.2667 213.298 42.9983 213.298 42.6825C213.298 42.3246 213.177 42.0404 212.935 41.8299C212.703 41.6088 212.382 41.4983 211.971 41.4983C211.192 41.4983 210.414 41.8088 209.635 42.4299L208.577 40.4562C209.64 39.572 210.945 39.1299 212.492 39.1299C213.082 39.1299 213.64 39.2404 214.166 39.4615C214.703 39.672 215.161 40.0299 215.54 40.5351C215.919 41.0299 216.108 41.6246 216.108 42.3194C216.108 43.3825 215.619 44.2036 214.64 44.7825V44.8141C215.187 45.0036 215.619 45.3194 215.935 45.7615C216.25 46.193 216.408 46.7141 216.408 47.3246C216.408 48.3878 216.019 49.2351 215.24 49.8667C214.461 50.4878 213.508 50.7983 212.382 50.7983C210.74 50.7983 209.361 50.2246 208.245 49.0773Z" fill="#0081C8"/>
<path d="M218.419 50.6088V39.3194H221.182V43.8351H225.287V39.3194H228.05V50.6088H225.287V46.1878H221.182V50.6088H218.419Z" fill="#0081C8"/>
<path d="M230.652 50.6088V39.3194H237.726V41.6878H233.415V43.7404H236.857V46.1088H233.415V48.2404H237.947V50.6088H230.652Z" fill="#0081C8"/>
<path d="M239.201 44.9404C239.201 43.2773 239.754 41.893 240.859 40.7878C241.975 39.6825 243.396 39.1299 245.122 39.1299C245.912 39.1299 246.68 39.2667 247.428 39.5404C248.175 39.8036 248.817 40.1983 249.354 40.7246L248.075 42.8088C247.696 42.472 247.249 42.1983 246.733 41.9878C246.228 41.7667 245.733 41.6562 245.249 41.6562C244.196 41.6562 243.401 41.972 242.864 42.6036C242.328 43.2246 242.059 43.9825 242.059 44.8773C242.059 45.793 242.333 46.5878 242.88 47.2615C243.438 47.9351 244.228 48.272 245.249 48.272C246.322 48.272 247.322 47.8088 248.249 46.8825L249.67 48.9036C248.449 50.1667 246.933 50.7983 245.122 50.7983C243.333 50.7983 241.896 50.2509 240.812 49.1562C239.738 48.0509 239.201 46.6457 239.201 44.9404Z" fill="#0081C8"/>
<defs>
<clipPath id="clip0_1308_65913">
<rect width="250" height="27.6316" fill="white" transform="translate(0 0.345703)"/>
</clipPath>
</defs>
</svg>
