<svg width="364" height="30" viewBox="0 0 364 30" fill="none" xmlns="http://www.w3.org/2000/svg"><g clip-path="url(#clip0_2636:8350)"><path fill-rule="evenodd" clip-rule="evenodd" d="M227.847 4.57026C229.625 6.34695 230.833 8.61375 231.319 11.0814L231.345 11.1249C231.846 13.2744 231.92 15.5015 231.562 17.6795C231.083 21.0239 229.352 24.0605 226.719 26.1727C223.765 28.4772 220.02 29.5151 216.303 29.0588C214.585 28.9682 212.902 28.5374 211.351 27.7913C209.8 27.0453 208.413 25.9988 207.268 24.7123C205.667 22.8374 204.621 20.5523 204.247 18.1142C203.865 16.0863 203.865 14.0046 204.247 11.9768C204.591 9.9022 205.426 7.94028 206.683 6.25536C207.939 4.57045 209.58 3.21161 211.469 2.29266C213.505 1.27996 215.759 0.787207 218.031 0.858296C221.771 0.893068 225.122 1.90147 227.847 4.57026ZM216.399 22.6868C220.504 23.4083 223.143 21.3132 224.098 17.4709L224.08 17.4361C224.542 15.4223 224.459 13.3213 223.837 11.3509C222.561 6.79571 217.284 5.96116 214.29 8.25615C212.094 9.94262 211.425 12.3419 211.425 15.3497C211.424 16.5077 211.621 17.6573 212.007 18.7488C212.293 19.7537 212.857 20.6571 213.634 21.354C214.411 22.051 215.37 22.5131 216.399 22.6868Z" fill="white"/><path d="M265.803 1.39733C263.503 1.39733 261.211 1.39733 258.911 1.32778C258.443 1.32778 258.226 1.40602 258.043 1.76244C257.135 3.36465 256.17 5.01299 255.202 6.66751L255.2 6.67089C254.067 8.60604 252.929 10.5496 251.872 12.4376C251.855 12.4661 251.831 12.4897 251.802 12.5064C251.773 12.5231 251.741 12.5323 251.707 12.5332C251.674 12.5316 251.642 12.522 251.613 12.5054C251.585 12.4888 251.56 12.4655 251.542 12.4376C250.595 10.7658 249.588 9.04181 248.578 7.31384L248.577 7.31244C247.487 5.44675 246.394 3.57649 245.371 1.76244C245.172 1.40602 244.955 1.31909 244.503 1.32778C243.457 1.32778 242.412 1.34578 241.368 1.36376C240.118 1.38529 238.869 1.4068 237.62 1.39733C237.126 1.39733 236.943 1.57119 236.943 2.08409V27.8418C236.943 28.3895 237.126 28.546 237.646 28.5373H243.106C243.783 28.5373 243.974 28.3287 243.974 27.668V12.0203C243.974 11.7595 243.974 11.2814 244.078 11.238C244.182 11.1945 244.278 11.3423 244.321 11.4205C244.87 12.4128 245.419 13.404 245.969 14.3946L245.977 14.4087C247.032 16.312 248.086 18.2128 249.129 20.1136C249.277 20.3744 249.372 20.5309 249.685 20.5309H253.877C254.181 20.5309 254.285 20.3744 254.433 20.1136C255.868 17.4825 257.324 14.8656 258.776 12.2565L258.777 12.2552L259.241 11.4205L259.244 11.4137C259.288 11.3261 259.357 11.1871 259.484 11.238C259.597 11.2831 259.592 11.6408 259.589 11.9052C259.589 11.9464 259.588 11.9852 259.588 12.0203V27.668C259.588 28.3113 259.736 28.5373 260.413 28.5373C261.622 28.5083 262.835 28.518 264.049 28.5276C264.656 28.5325 265.264 28.5373 265.872 28.5373C266.393 28.5373 266.575 28.3808 266.575 27.8418V2.08409C266.575 1.57119 266.393 1.39733 265.907 1.39733H265.803Z" fill="white"/><path d="M177.445 15.0194V2.28398C177.445 1.59722 177.662 1.41467 178.313 1.41467H183.842C184.528 1.41467 184.71 1.6233 184.71 2.28398V10.7685C184.71 11.4292 184.883 11.6378 185.578 11.6378C187.032 11.6666 188.485 11.556 189.918 11.3075C190.684 11.1227 191.388 10.7383 191.958 10.1933C192.528 9.64828 192.944 8.96199 193.164 8.204C193.731 6.53386 194.124 4.80915 194.335 3.05767L194.343 3.00463C194.448 2.22411 194.501 1.83751 194.722 1.64604C194.939 1.45813 195.319 1.45813 196.071 1.45813H201.097C201.67 1.45813 201.791 1.6233 201.67 2.17097C201.513 2.85597 201.383 3.54683 201.252 4.23813C201.065 5.23127 200.877 6.22534 200.611 7.20429C199.804 10.16 198.875 13.0548 196.445 15.1672C196.083 15.4861 196.225 15.7538 196.371 16.0294L196.375 16.0365C198.4 19.734 200.426 23.4257 202.451 27.1116L202.481 27.1668C202.85 27.8401 203.037 28.1805 202.936 28.3526C202.833 28.5286 202.429 28.5286 201.613 28.5285H195.551C195.374 28.5694 195.188 28.5443 195.028 28.4579C194.868 28.3715 194.746 28.2297 194.683 28.0591C193.677 26.0228 192.65 23.9934 191.625 21.9667L191.624 21.964C191.039 20.8077 190.454 19.6522 189.874 18.4967C189.807 18.2856 189.667 18.1053 189.479 17.9876C189.292 17.8698 189.069 17.8223 188.85 17.8534C187.661 17.9229 186.454 17.9229 185.265 17.8968C184.719 17.8968 184.571 18.0794 184.571 18.6097V27.7375C184.571 28.3634 184.406 28.6068 183.772 28.5546C181.903 28.5141 180.037 28.5141 178.174 28.5546C177.558 28.5546 177.35 28.4068 177.35 27.7635V15.0368L177.445 15.0194Z" fill="white"/><path d="M22.9053 1.43874C23.4868 1.43004 23.6865 1.56913 23.6865 2.18635H23.7733C23.7328 3.75111 23.7328 5.31008 23.7733 6.86325C23.7906 7.48916 23.565 7.61955 22.9834 7.61955C22.2495 7.61955 21.5195 7.62441 20.7914 7.62925C19.341 7.6389 17.8982 7.64849 16.4477 7.61955C15.7273 7.61955 15.5798 7.83688 15.5798 8.48887V27.7007C15.5798 28.3961 15.3975 28.57 14.7118 28.57H9.06144C8.38444 28.57 8.19349 28.4048 8.19349 27.7007V8.48887C8.19349 7.82819 8.01122 7.61955 7.32553 7.61955H0.789838C0.216988 7.63694 0 7.48916 0 6.86325C0.0462909 5.30428 0.0462909 3.74531 0 2.18635C0 1.56913 0.199629 1.42135 0.781159 1.43004C3.41491 1.44866 6.0398 1.44513 8.67165 1.44158C9.72587 1.44016 10.7814 1.43874 11.8389 1.43874H22.9053Z" fill="white"/><path d="M71.3805 2.1864C71.3805 1.56918 71.1809 1.43009 70.5994 1.43879H48.4666C47.885 1.43879 47.6767 1.57788 47.6854 2.1864C47.7143 3.2239 47.7047 4.26526 47.695 5.30534L47.695 5.30691C47.6902 5.82624 47.6854 6.34525 47.6854 6.8633C47.6854 7.48921 47.9024 7.63699 48.4752 7.6196H55.0196C55.7053 7.6196 55.8876 7.82824 55.8876 8.48892V27.7007C55.8876 28.4049 56.0785 28.5701 56.7555 28.5701H62.3972C63.0829 28.5701 63.2652 28.3962 63.2652 27.7007V8.48892C63.2652 7.83693 63.4214 7.6196 64.1331 7.6196C65.5829 7.64853 67.025 7.63896 68.4774 7.62931C69.2074 7.62447 69.94 7.6196 70.6775 7.6196C71.2503 7.6196 71.4847 7.48921 71.4673 6.8633C71.4673 6.34653 71.4625 5.82881 71.4577 5.31076V5.30594C71.448 4.26567 71.4384 3.2241 71.4673 2.1864H71.3805Z" fill="white"/><path d="M96.6554 2.1864C96.6554 1.56918 96.4557 1.43009 95.8829 1.43879H73.75C73.1685 1.43879 72.9515 1.57788 72.9689 2.1864C72.9978 3.2241 72.9882 4.26567 72.9785 5.30595V5.31078C72.9737 5.82882 72.9689 6.34654 72.9689 6.8633C72.9689 7.48921 73.1859 7.63699 73.7587 7.6196H80.2944C80.9888 7.6196 81.1624 7.82824 81.1624 8.48892V27.7007C81.1624 28.4049 81.3533 28.5701 82.0303 28.5701H87.672C88.3577 28.5701 88.54 28.3962 88.54 27.7007V8.48892C88.54 7.83693 88.6962 7.6196 89.4079 7.6196C90.8577 7.64853 92.2998 7.63896 93.7522 7.62931C94.4821 7.62447 95.215 7.6196 95.9523 7.6196C96.5252 7.6196 96.7595 7.48921 96.7422 6.8633C96.7016 5.31013 96.7016 3.75116 96.7422 2.1864H96.6554Z" fill="white"/><path d="M152.76 15.0262V2.29943C152.76 1.63006 152.951 1.43012 153.628 1.43012H171.568C172.193 1.43012 172.436 1.55182 172.436 2.25597C172.376 3.64687 172.367 5.03777 172.436 6.41998C172.436 7.1502 172.176 7.23713 171.568 7.23713H160.875C160.129 7.23713 159.929 7.44577 160.007 8.1586C160.048 8.86017 160.034 9.5656 160.021 10.2697V10.2726C160.014 10.6233 160.007 10.9736 160.007 11.3229C160.007 11.8619 160.172 12.027 160.702 12.0184H170.249C171.117 12.0184 171.161 12.0184 171.161 12.9485V16.8343C171.161 17.4603 170.996 17.7037 170.353 17.6602H160.884C160.129 17.6602 159.947 17.8949 160.016 18.5991C160.051 19.3625 160.039 20.1297 160.028 20.9034C160.022 21.2926 160.016 21.6835 160.016 22.0763C160.016 22.6587 160.207 22.8065 160.762 22.7978H172.046C172.688 22.7978 172.87 22.9804 172.844 23.6063C172.816 24.5603 172.825 25.5182 172.835 26.485C172.84 26.9718 172.844 27.4609 172.844 27.9529C172.844 28.4658 172.749 28.6657 172.176 28.6657H153.584C152.951 28.6657 152.838 28.431 152.838 27.8746V15.1479L152.76 15.0262Z" fill="white"/><path d="M100.474 2.31677V14.974L100.448 15.0957V27.892C100.44 28.3353 100.448 28.657 101.065 28.657H119.873C120.333 28.657 120.437 28.4918 120.437 28.0658C120.437 27.5738 120.43 27.0848 120.424 26.598C120.41 25.6313 120.397 24.6732 120.437 23.7193C120.498 23.0064 120.324 22.7891 119.569 22.7891H108.512C107.791 22.7891 107.644 22.5978 107.644 21.9198C107.678 21.1362 107.667 20.3604 107.655 19.5897L107.655 19.5882C107.649 19.2052 107.644 18.8234 107.644 18.4425C107.626 17.834 107.835 17.6775 108.425 17.6775H118.12C118.649 17.6775 118.832 17.5298 118.832 16.9821V12.9572C118.823 12.0879 118.806 12.0879 117.886 12.0879H108.555C107.913 12.0879 107.687 11.9401 107.687 11.2185C107.744 10.1877 107.744 9.15458 107.687 8.12378C107.687 7.41964 107.904 7.25447 108.555 7.25447H119.396C119.986 7.25447 120.168 7.10669 120.168 6.48948C120.125 5.0725 120.116 3.65552 120.168 2.24723C120.229 1.60394 119.977 1.44746 119.361 1.44746C113.355 1.47644 107.349 1.47644 101.342 1.44746C100.605 1.44746 100.474 1.68217 100.474 2.31677Z" fill="white"/><path fill-rule="evenodd" clip-rule="evenodd" d="M49.9508 27.9962C49.0828 25.736 48.2149 23.4671 47.399 21.2069C46.6914 19.3511 45.9748 17.4982 45.2581 15.6448L45.2577 15.6438L45.257 15.6419C44.752 14.3362 44.247 13.0302 43.7449 11.7227L43.4262 10.8932C42.3068 7.97926 41.1394 4.94069 40.03 1.91685C39.9947 1.76821 39.9041 1.63867 39.7767 1.55466C39.6493 1.47065 39.4946 1.43852 39.3444 1.46481H32.1751C31.8192 1.46481 31.5328 1.46481 31.3765 1.90816L31.2564 2.20408C30.4287 4.2432 29.6038 6.27515 28.8421 8.315C28.2285 9.89275 27.6179 11.472 27.0071 13.0515C26.1406 15.2925 25.2739 17.534 24.3982 19.7725C23.6029 21.8088 22.7792 23.8355 21.9551 25.8633C21.664 26.5796 21.3726 27.2966 21.0826 28.0136C20.9437 28.3787 21.0305 28.5439 21.4471 28.5352H27.6183C27.7455 28.5565 27.8761 28.529 27.9839 28.4581C28.0917 28.3872 28.1688 28.2781 28.1998 28.1527C28.4738 27.3212 28.7557 26.5056 29.0361 25.6944C29.3419 24.8096 29.6459 23.9301 29.9357 23.0412C29.978 22.8174 30.1063 22.6192 30.2929 22.4891C30.4796 22.3591 30.7097 22.3076 30.9339 22.3457H39.8391C40.0631 22.313 40.291 22.3692 40.4743 22.5023C40.6575 22.6355 40.7815 22.8351 40.8199 23.0586C41.1292 24.0329 41.4586 25.0015 41.7882 25.9709C42.032 26.6879 42.2763 27.406 42.5124 28.1266C42.6079 28.4048 42.7207 28.5265 43.0071 28.5265H49.6123C49.9942 28.5265 50.0462 28.3874 49.916 28.0397L49.9508 27.9962ZM37.9122 16.7039H32.8173C32.3573 16.7039 32.2532 16.643 32.4268 16.1475C33.182 14.0611 33.9098 11.9609 34.6666 9.77747C34.9534 8.94969 35.2445 8.10995 35.5427 7.25444L37.4001 12.7572C37.5188 13.1078 37.6355 13.4594 37.7521 13.811C37.9855 14.5142 38.2189 15.2173 38.4677 15.9128C38.7021 16.5822 38.6413 16.6952 37.9122 16.6952V16.7039Z" fill="white"/><path d="M124.456 22.7457C127.945 22.7978 129.325 17.7993 129.325 7.21106V3.2383C129.324 3.02523 129.365 2.81404 129.446 2.61686C129.526 2.41968 129.645 2.24041 129.795 2.08934C129.945 1.93827 130.123 1.81839 130.32 1.73659C130.516 1.65479 130.727 1.61268 130.94 1.61269H147.552C147.654 1.61268 147.756 1.63298 147.85 1.6724C147.944 1.71182 148.03 1.76959 148.101 1.84236C148.173 1.91513 148.23 2.00145 148.268 2.09632C148.307 2.19119 148.326 2.29274 148.325 2.39507V27.6747C148.325 27.8807 148.244 28.0784 148.099 28.2249C147.954 28.3713 147.758 28.4548 147.552 28.4571H142.154C141.948 28.4548 141.751 28.3713 141.607 28.2249C141.462 28.0784 141.381 27.8807 141.381 27.6747V8.44549C141.381 8.24029 141.3 8.0435 141.155 7.89841C141.01 7.75331 140.813 7.6718 140.609 7.6718H136.807C136.604 7.674 136.41 7.75504 136.266 7.89779C136.122 8.04054 136.039 8.23382 136.034 8.43679C135.713 24.8407 131.044 28.5353 124.508 28.7961C124.404 28.7996 124.3 28.7822 124.203 28.745C124.106 28.7078 124.017 28.6515 123.942 28.5794C123.867 28.5073 123.807 28.4209 123.765 28.3253C123.724 28.2296 123.702 28.1267 123.701 28.0224V23.4238C123.702 23.3281 123.722 23.2337 123.761 23.1466C123.801 23.0594 123.858 22.9814 123.929 22.9176C124 22.8537 124.083 22.8055 124.174 22.7759C124.265 22.7463 124.361 22.736 124.456 22.7457Z" fill="white"/><path d="M275.295 28.4925V12.2722H285.603V15.6751H279.174V18.1932H281.879C283.416 18.1932 284.657 18.6771 285.603 19.6451C286.564 20.613 287.044 21.8531 287.044 23.3655C287.044 24.8779 286.564 26.1105 285.603 27.0633C284.657 28.0161 283.416 28.4925 281.879 28.4925H275.295ZM279.174 25.0896H281.147C281.768 25.0896 282.248 24.9384 282.588 24.6359C282.928 24.3183 283.098 23.8949 283.098 23.3655C283.098 22.8362 282.921 22.4127 282.566 22.0951C282.226 21.7624 281.731 21.596 281.081 21.596H279.174V25.0896Z" fill="white"/><path d="M289.656 28.4925V12.2722H293.535V19.8492L293.358 22.6169H293.402C293.875 21.4826 294.318 20.5601 294.732 19.8492L299.122 12.2722H303.045V28.4925H299.166V20.9382L299.343 18.1705H299.299C298.826 19.3048 298.383 20.2273 297.969 20.9382L293.557 28.4925H289.656Z" fill="white"/><path d="M305.371 26.292L307.388 23.6831C308.467 24.7569 309.59 25.2938 310.758 25.2938C312.147 25.2938 312.842 24.6888 312.842 23.4789C312.842 22.4203 312.221 21.891 310.979 21.891H309.073V18.7376H310.625C311.186 18.7376 311.63 18.5788 311.955 18.2612C312.295 17.9436 312.465 17.558 312.465 17.1043C312.465 16.5901 312.295 16.1817 311.955 15.8792C311.63 15.5616 311.179 15.4029 310.603 15.4029C309.509 15.4029 308.415 15.849 307.322 16.7413L305.836 13.9056C307.329 12.6352 309.162 12 311.334 12C312.162 12 312.945 12.1588 313.684 12.4764C314.438 12.7789 315.081 13.2931 315.613 14.019C316.145 14.7298 316.411 15.5843 316.411 16.5825C316.411 18.11 315.723 19.2897 314.349 20.1215V20.1668C315.117 20.4391 315.723 20.8928 316.167 21.528C316.61 22.1481 316.832 22.8967 316.832 23.7739C316.832 25.3014 316.285 26.5188 315.191 27.4263C314.098 28.3186 312.76 28.7647 311.179 28.7647C308.873 28.7647 306.937 27.9405 305.371 26.292Z" fill="white"/><path d="M319.655 28.4925V12.2722H323.534V18.7603H329.298V12.2722H333.177V28.4925H329.298V22.1405H323.534V28.4925H319.655Z" fill="white"/><path d="M336.83 28.4925V12.2722H346.761V15.6751H340.709V18.6242H345.542V22.0271H340.709V25.0896H347.071V28.4925H336.83Z" fill="white"/><path d="M348.833 20.3483C348.833 17.9588 349.609 15.97 351.16 14.382C352.727 12.794 354.722 12 357.146 12C358.254 12 359.333 12.1966 360.382 12.5898C361.432 12.9679 362.333 13.5351 363.087 14.2913L361.291 17.2858C360.759 16.8018 360.131 16.4086 359.407 16.1061C358.698 15.7885 358.003 15.6297 357.323 15.6297C355.845 15.6297 354.729 16.0834 353.976 16.9908C353.222 17.8831 352.845 18.9721 352.845 20.2576C352.845 21.5734 353.229 22.7152 353.998 23.6831C354.781 24.651 355.89 25.135 357.323 25.135C358.831 25.135 360.235 24.4696 361.535 23.1387L363.53 26.0424C361.816 27.8573 359.688 28.7647 357.146 28.7647C354.633 28.7647 352.616 27.9783 351.094 26.4054C349.586 24.8174 348.833 22.7984 348.833 20.3483Z" fill="white"/></g><defs><clipPath id="clip0_2636:8350"><rect width="363.529" height="30" fill="white"/></clipPath></defs></svg>
