<svg width="193" height="68" fill="none" xmlns="http://www.w3.org/2000/svg"><g clip-path="url(#a)" fill="#E45620"><path d="M39.524 49.608a8.041 8.041 0 0 0 1.166-2.68c.407-2.18.617-4.393.63-6.611v-1.521c0-.08.073.824.093 2.123a40.72 40.72 0 0 1-.187 4.69c-.235 2.324-1.099 3.523-1.722 4.019l.02-.02Zm-1.266.02a9.103 9.103 0 0 0 1.172-3.001c.603-2.526.67-8.843.67-9.15a50.073 50.073 0 0 1-.093 7.643c-.235 2.619-1.153 4.019-1.729 4.508h-.02Zm-1.574 0a6.572 6.572 0 0 0 1.434-3.088c.542-2.412.85-9.459.897-10.638 0 0 .1 3.905-.147 7.201-.389 5.219-1.46 6.03-2.184 6.525Zm-.469-1.728c-.054-.08-2.834-8.575-4.636-15.06 1.655 4.583 2.84 8.314 4.837 14.49a3.468 3.468 0 0 1-.194.57h-.007Zm-1.809-.335c-.67-1.688-.971-2.814-2.157-6.511-1.386-4.321-2.72-9.848-2.72-9.848s2.077 6.39 3.437 10.759c1.018 3.268 2.157 6.43 2.552 6.792-.06.06-.388.556-1.112-1.192Zm-1.004 1.112c-2.412-4.395-5.507-17.692-5.936-19.119 0 0 5.038 17.35 6.465 19.293.308.422.516.563.777.455 0 0-.67.617-1.34-.67l.034.04Zm-9.412.857a1.64 1.64 0 0 1-1.059-.382c2.01-1.741 4.334-5.258 6.217-8.54.174.67.348 1.252.509 1.828-2.606 4.69-4.502 7.088-5.64 7.088l-.027.006Zm-1.548-1.105a4.46 4.46 0 0 1-.147-1.702 88.941 88.941 0 0 0 5.841-9.612c.228.823.442 1.6.67 2.297-2.297 4.127-4.655 7.43-6.364 9.017Zm-1.674.965h-.054a.63.63 0 0 1-.462-.302c.492-.463.95-.96 1.373-1.487.017.44.11.872.275 1.28a2.11 2.11 0 0 1-1.14.509h.008Zm-1.079-3.089a52.367 52.367 0 0 0 3.088-4.287 20.84 20.84 0 0 0-1.078 3.98c-.553.769-1.16 1.499-1.816 2.183a7.611 7.611 0 0 1-.2-1.896l.006.02Zm-.864-1.065a23.069 23.069 0 0 1-2.117 2.392 8.836 8.836 0 0 1-.214-1.615 55.535 55.535 0 0 0 3.121-4.689 20.928 20.928 0 0 0-.783 3.879l-.007.033Zm-.898 4.154h-.08a.904.904 0 0 1-.67-.49 16.966 16.966 0 0 0 1.628-1.607c.042.488.134.97.274 1.44l.04.107a2.143 2.143 0 0 1-1.212.543l.02.007Zm-4.93-5.768a19.172 19.172 0 0 1 1.34-5.962c1.072-2.954 5.875-16.225 8.44-14.269.344.259.631.585.844.958-.576.972-1.34 2.124-2.532 4.442-.295.576-.757 1.48-1.119 2.21-1.554 3.109-4.347 8.501-6.96 12.661l-.013-.04Zm2.586 1.38a22.401 22.401 0 0 1-2.09 2.505 9.093 9.093 0 0 1-.282-1.762c.972-1.373 1.97-3 2.988-4.783a20.237 20.237 0 0 0-.61 4.02l-.006.02Zm-1.14 3.912a.623.623 0 0 1-.368-.174 17.611 17.611 0 0 0 1.601-1.709c.058.422.147.839.268 1.247a2.365 2.365 0 0 1-1.5.67v-.034Zm-2.123-11.16a46.346 46.346 0 0 1-2.894 5.888c.45-8.796 7.771-22.26 11.911-28.095 2.539-3.59 4.857-5.453 6.873-5.828 2.914-.536 3.825 2.13 4.22 2.96a2.083 2.083 0 0 0-.991-.448 4.795 4.795 0 0 0-1.822.127c-2.117.55-4.348 2.472-6.7 5.741a28.127 28.127 0 0 0-2.511 3.872c-2.284 1.809-5.292 8.79-7.248 13.72-.262.67-.737 1.835-.838 2.063Zm-1.139 11.187h-.087a.75.75 0 0 1-.388-.154c.476-.457.923-.942 1.34-1.454.058.286.13.565.214.837.034.114.074.221.114.322-.339.26-.746.417-1.172.449h-.02Zm-1.259-1.5a8.847 8.847 0 0 1-.268-1.1c.757-1.085 1.527-2.358 2.311-3.75-.129.938-.18 1.886-.154 2.833-.548.79-1.152 1.54-1.809 2.244l-.08-.228Zm-2.01 1.547h-.087a.67.67 0 0 1-.254-.08c.37-.364.719-.75 1.045-1.153v.087a6.1 6.1 0 0 0 .308.757c-.3.226-.658.36-1.032.389h.02Zm-1.36-1.856c-2.665-9.244 7.195-27.927 12.159-34.995 2.68-3.764 5.178-5.794 7.295-6.216 3.135-.623 4.401 2.532 4.656 2.92a3.724 3.724 0 0 0-3.008-.375c-2.298.617-4.823 2.62-7.442 6.324C16.567 19.945 7.31 35.627 8.154 45.381a9.302 9.302 0 0 1-1.5 2.063 1.518 1.518 0 0 1-.121-.301l.02-.007Zm-4.039.234c-4.166-7.134 7.932-31.075 12.842-37.935 2.452-3.416 4.743-5.6 6.752-6.525a5.982 5.982 0 0 1 2.345-.549c1.896 0 2.954.991 3.972 2.519-.321-.174-4.555-2.84-11.1 6.243 0 0-15.85 23.794-12.252 36.408.092.286.206.563.342.83-.188.255-1.842.919-2.954-.997l.053.007ZM33.83 16.476c-.107-.046-.294-.268-1.293-.187-2.136.174-4.414 1.936-6.806 5.259l-.824 1.178a3.423 3.423 0 0 0-2.76-1.373c.63-.958 1.3-1.976 1.81-2.646 2.357-3.31 4.608-4.937 6.504-5.144 2.318-.255 3.048 2.056 3.35 2.913h.02Zm-6.484 17.792c.16.543.315 1.08.462 1.602-1.22 2.23-3.182 5.807-5.138 8.708a36.722 36.722 0 0 1 2.338-6.176 110.552 110.552 0 0 0 2.338-4.154v.02Zm-10.718 9.225a30.945 30.945 0 0 1 1.949-6.887c1.226-2.887 5.36-10.37 5.828-11.073.315.724.67 1.581.978 2.519-.415.67-.844 1.494-1.34 2.358l-.033.06-.563 1.146a125.687 125.687 0 0 1-6.82 11.877Zm5.8-7.067c.771-1.407 1.521-2.834 2.245-4.234.241-.462 1.058-2.01 1.293-2.439.281.858.563 1.749.83 2.68-.2.368-.421.764-.67 1.192a91.855 91.855 0 0 1-6.162 10.096 35.315 35.315 0 0 1 2.465-7.275v-.02ZM34.3 17.949c.67 2.177.596 1.87.67 2.23a.315.315 0 0 0-.12-.04h-.114c-2.13-.14-4.59 1.541-7.269 5.306a218.685 218.685 0 0 0-1.755-1.875 20.035 20.035 0 0 1 1.755-2.54c2.15-2.612 3.497-3.543 5.567-3.657.04 0 1.105-.04 1.3.576h-.034Zm-5.613 7.456c2.264-3.115 4.354-4.569 6.21-4.34a.314.314 0 0 1 .26.16c.114.288.67 2.458.67 2.68h-.348c-1.661 0-3.316 1.165-5.104 3.59l-.422.603-1.816-1.943.55-.75Zm1.782 3.202c.149-.273.314-.537.495-.79 1.621-2.184 3.108-3.283 4.508-3.283 0 0 .476 0 .51.12a50.485 50.485 0 0 1 1.627 9.861v.342s-.04 1.052-.046 1.125l-7.094-7.375Zm5.814 8.039c.476.817 1.313 2.826 1.233 3.563-.536-1.507-.784-2.559-1.24-3.604l.007.04Zm.81 8.594c-.048.241-.098.465-.147.67a190.215 190.215 0 0 1-2.11-6.658 150.609 150.609 0 0 1-1.34-4.87c1.749 5.09 2.981 9.11 3.604 10.858h-.006Zm.215-2.157c-.469-1.393-.878-2.68-1.34-4.133-.435-1.34-.67-2.291-.991-3.396a204.106 204.106 0 0 1 2.358 6.625c.017.303.017.607 0 .91l-.027-.006Zm5.332-3.269c.164 2.02.148 4.052-.047 6.07-.2 2.076-1.018 3.154-1.554 3.617a6.98 6.98 0 0 0 1.065-2.439c.516-2.01.556-7 .536-7.241v-.007Zm1.233.958a24.98 24.98 0 0 1-.074 5.4c-.214 1.888-1.011 2.92-1.587 3.349a6.941 6.941 0 0 0 1.078-2.258c.556-1.828.563-6.283.55-6.504l.033.013Zm1.132.891a20.767 20.767 0 0 1 0 4.87 4.207 4.207 0 0 1-1.46 2.988 6.424 6.424 0 0 0 .998-2.01c.515-1.608.495-5.634.482-5.828l-.02-.02Zm1.326 2.345c.322-11.502-8.708-28.263-12.774-35.196C30.213 3.54 28.41 1.055 25.048.66a6.37 6.37 0 0 0-1.755.04 8.474 8.474 0 0 0-3.101 1.26c-2.017 1.218-4.114 3.349-6.33 6.457C9.46 14.56-3.195 38.99.757 47.732c1.253 2.82 3.664 2.961 5.64 2.104.368.29.818.46 1.287.482.714.01 1.41-.227 1.97-.67.359.358.833.576 1.339.616a3.31 3.31 0 0 0 2.01-.67c.335.38.802.62 1.306.67a3.417 3.417 0 0 0 2.164-.743 1.722 1.722 0 0 0 1.28.817 2.747 2.747 0 0 0 1.788-.67 1.5 1.5 0 0 0 1.085.616h.14a2.975 2.975 0 0 0 1.649-.67c.426.395.986.615 1.567.617 1.661.08 3.885-3.129 5.962-6.82.43 1.53.944 3.036 1.54 4.509.67 1.614 1.528 2.197 2.5 2.371 3.094.213 6.199.244 9.297.094a2.23 2.23 0 0 0 1.575-.75c.75-.898 1.607-2.419 1.473-5.66M182.035 24.978c3.551 0 6.646-2.21 6.954-5.05h-3.859a1.304 1.304 0 0 0-.603.328 3.937 3.937 0 0 1-4.823 0c-.194-.134-.395-.342-.603-.342h-4.16c.61 3.35 3.859 5.058 7.088 5.044M98.475 35.117c0-2.104-1.032-4.02-3.892-4.167-2.68 0-4.22 1.695-4.549 4.167h8.44Zm6.377 3.845H90.047c.422 3.068 2.157 4.441 5.487 4.441a11.751 11.751 0 0 0 6.565-2.197 6.895 6.895 0 0 1 2.532 4.622 15.776 15.776 0 0 1-9.847 3.068c-6.894 0-11.864-4.166-11.864-11.441 0-6.867 4.97-11.67 11.63-11.67 6.283 0 10.55 3.892 10.55 9.975a18.46 18.46 0 0 1-.235 3.202M134.112 25.645a14.209 14.209 0 0 0-7.369 2.056c-1.688-1.28-4.127-2.056-7.268-2.056-1.842 0-3.675.257-5.446.763a22.467 22.467 0 0 0-2.338-.127c-1.162 0-2.323.092-3.47.275v21.556c1.147.183 2.308.274 3.47.275 1.182 0 2.362-.092 3.53-.275V32.705a7.04 7.04 0 0 1 3.611-.918c2.626 0 4.019 1.42 4.019 4.12v12.205c1.147.184 2.308.276 3.47.275 1.178 0 2.353-.092 3.517-.275V34.433a13.64 13.64 0 0 0-.094-1.34 6.116 6.116 0 0 1 3.751-1.232c2.626 0 3.939 1.42 3.939 4.12v12.131c2.331.367 4.704.367 7.034 0V34.433c0-5.077-3.349-8.788-10.316-8.788M158.052 44.087a12.327 12.327 0 0 0 3.35-.502v-3.986a13.915 13.915 0 0 0-3.845-.502c-2.204 0-3.564.73-3.564 2.33 0 1.602 1.34 2.68 4.019 2.68l.04-.02Zm10.277-8.769v11.389a30.537 30.537 0 0 1-11.214 2.143c-6.378 0-10.049-2.378-10.049-7.14 0-4.576 4.02-6.914 9.707-6.867a17.78 17.78 0 0 1 4.689.67v-.871c0-1.876-1.34-3.202-4.595-3.202a10.657 10.657 0 0 0-6.029 1.876 5.973 5.973 0 0 1-3.001-4.348 15.52 15.52 0 0 1 9.586-3.182c6.471 0 10.926 2.747 10.926 9.52M62.474 18.707a.964.964 0 0 0-.958.79s-2.31 14.068-3.295 20.097c-.248 1.514-.865 2.68-2.425 3.055l-.329.067a.844.844 0 0 0-.623.348 1.755 1.755 0 0 0-.368.784 9.217 9.217 0 0 0 0 4.388c.241 1.011.469 1.145 1.159 1.031.809-.138 1.61-.321 2.398-.55 4.173-1.453 6.458-4.514 7.328-8.607.637-2.981 2.54-15.233 2.54-15.233h4.809v23.238a22.87 22.87 0 0 0 3.517.322 22.255 22.255 0 0 0 3.49-.322V18.707H62.474ZM189.483 26.328a22.64 22.64 0 0 0-3.47.275v15.655a8.285 8.285 0 0 1-3.517.67c-3.349 0-4.267-1.42-4.267-4.395v-11.93a22.196 22.196 0 0 0-3.47-.275c-1.178 0-2.353.092-3.517.275V40.06c0 4.528 2.177 7.717 7.489 8.588 1.377.22 2.779.233 4.16.04 1.186-.148 2.506-.422 3.122-.516 1.164.182 2.339.274 3.517.275 1.162 0 2.322-.093 3.47-.275v-21.57a22.762 22.762 0 0 0-3.517-.275ZM61 63.423c0-1.159.385-2.123 1.155-2.893.777-.77 1.767-1.155 2.97-1.155.55 0 1.085.095 1.606.286.52.183.968.458 1.342.825l-.891 1.452a3.23 3.23 0 0 0-.935-.572 2.569 2.569 0 0 0-1.034-.231c-.733 0-1.287.22-1.661.66-.374.433-.561.96-.561 1.584 0 .638.19 1.192.572 1.661.389.47.939.704 1.65.704.748 0 1.445-.323 2.09-.968l.99 1.408c-.85.88-1.907 1.32-3.168 1.32-1.247 0-2.248-.381-3.003-1.144-.748-.77-1.122-1.749-1.122-2.937ZM69.49 67.372v-7.865h4.928v1.65h-3.003v1.43h2.398v1.65h-2.398v1.485h3.157v1.65H69.49ZM76.048 67.372v-7.865h3.267c.763 0 1.38.253 1.848.759.477.506.715 1.155.715 1.947 0 .8-.238 1.456-.715 1.969-.469.506-1.085.759-1.848.759h-1.342v2.431h-1.925Zm1.925-4.081h.946c.323 0 .569-.099.737-.297.176-.198.264-.458.264-.781s-.084-.58-.253-.77c-.168-.19-.407-.286-.715-.286h-.979v2.134ZM83.143 67.372v-7.865h2.893c.807 0 1.452.18 1.936.539.492.352.737.858.737 1.518 0 .337-.08.66-.242.968-.16.3-.385.535-.67.704v.022c.417.125.725.356.923.693.206.33.308.69.308 1.078 0 .8-.282 1.39-.847 1.771-.564.381-1.28.572-2.145.572h-2.893Zm1.925-4.818h.99c.228 0 .4-.07.517-.209a.775.775 0 0 0 .176-.517.655.655 0 0 0-.187-.484c-.117-.125-.297-.187-.539-.187h-.957v1.397Zm0 3.168h1.155c.264 0 .47-.077.616-.231a.85.85 0 0 0 .22-.594.796.796 0 0 0-.209-.572c-.139-.154-.344-.231-.616-.231h-1.166v1.628ZM90.486 67.372v-7.865h1.924v3.674l-.087 1.342h.022c.234-.55.454-.997.66-1.342l2.178-3.674h1.946v7.865h-1.925v-3.663l.089-1.342h-.023c-.234.55-.454.997-.66 1.342l-2.189 3.663h-1.936ZM98.58 63.423c0-1.159.386-2.123 1.156-2.893.777-.77 1.767-1.155 2.969-1.155.55 0 1.086.095 1.606.286a3.59 3.59 0 0 1 1.342.825l-.891 1.452a3.221 3.221 0 0 0-.935-.572 2.566 2.566 0 0 0-1.034-.231c-.733 0-1.287.22-1.661.66-.374.433-.561.96-.561 1.584 0 .638.191 1.192.572 1.661.389.47.939.704 1.65.704.748 0 1.445-.323 2.09-.968l.99 1.408c-.85.88-1.906 1.32-3.168 1.32-1.246 0-2.247-.381-3.002-1.144-.749-.77-1.123-1.749-1.123-2.937ZM113.671 67.372v-7.865h1.925v7.865h-1.925Zm-6.6 0v-7.865h1.925v2.431h1.232c.763 0 1.379.257 1.848.77.477.506.715 1.159.715 1.958 0 .792-.238 1.441-.715 1.947-.469.506-1.085.759-1.848.759h-3.157Zm1.925-1.65h.869c.308 0 .546-.095.715-.286.169-.19.253-.447.253-.77s-.088-.583-.264-.781c-.169-.198-.414-.297-.737-.297h-.836v2.134ZM122.48 65.733h2.431v-4.576h-1.573v.363c0 .726-.07 1.47-.209 2.233-.132.763-.348 1.423-.649 1.98Zm-2.783 0h.814c.667-1.159 1.001-2.614 1.001-4.367v-1.859h5.324v6.226h.88v3.179h-1.705v-1.54h-4.543v1.54h-1.771v-3.179ZM128.502 65.711c.337-.044.612-.165.825-.363.22-.198.4-.565.539-1.1.139-.535.209-1.254.209-2.156v-2.585h5.28v7.865h-1.925v-6.215h-1.529v.957c0 1.885-.282 3.249-.847 4.092-.565.836-1.415 1.254-2.552 1.254v-1.749ZM136.486 67.372l1.507-2.53.297-.473v-.022c-.843-.47-1.265-1.247-1.265-2.332 0-.58.132-1.067.396-1.463a2.16 2.16 0 0 1 1.056-.858c.323-.125.833-.187 1.529-.187h2.739v7.865h-1.925v-2.651h-.704l-1.485 2.651h-2.145Zm3.498-4.246h.836v-1.969h-.649c-.432 0-.74.073-.924.22-.176.147-.264.392-.264.737 0 .675.334 1.012 1.001 1.012ZM146.83 67.372l2.112-4.081v-.022l-1.947-3.762h2.068l1.452 3.036h.748v-3.036h1.925v3.036h.748l1.452-3.036h2.068l-1.947 3.762v.022l2.112 4.081h-2.156l-1.529-3.19h-.748v3.19h-1.925v-3.19h-.748l-1.529 3.19h-2.156ZM158.734 67.372v-7.865h1.925v3.674l-.088 1.342h.022c.235-.55.455-.997.66-1.342l2.178-3.674h1.947v7.865h-1.925v-3.663l.088-1.342h-.022c-.235.55-.455.997-.66 1.342l-2.189 3.663h-1.936ZM166.587 66.305l1.001-1.265c.535.52 1.093.781 1.672.781.689 0 1.034-.293 1.034-.88 0-.513-.308-.77-.924-.77h-.946v-1.529h.77c.279 0 .499-.077.66-.231a.73.73 0 0 0 .253-.561.746.746 0 0 0-.253-.594c-.161-.154-.385-.231-.671-.231-.543 0-1.085.216-1.628.649l-.737-1.375c.741-.616 1.65-.924 2.728-.924.411 0 .799.077 1.166.231.374.147.693.396.957.748.264.345.396.759.396 1.243 0 .74-.341 1.313-1.023 1.716v.022a1.8 1.8 0 0 1 .902.66c.22.3.33.664.33 1.089 0 .74-.271 1.331-.814 1.771-.543.433-1.206.649-1.991.649-1.144 0-2.105-.4-2.882-1.199ZM173.73 67.372v-7.865h1.925v3.146h2.86v-3.146h1.925v7.865h-1.925v-3.08h-2.86v3.08h-1.925ZM182.307 67.372v-7.865h1.925v3.674l-.088 1.342h.022c.235-.55.455-.997.66-1.342l2.178-3.674h1.947v7.865h-1.925v-3.663l.088-1.342h-.022c-.235.55-.455.997-.66 1.342l-2.189 3.663h-1.936Z"/></g><defs><clipPath id="a"><path fill="#fff" transform="translate(0 .621)" d="M0 0h193v66.975H0z"/></clipPath></defs></svg>