<svg width="98" height="98" viewBox="0 0 98 98" fill="none" xmlns="http://www.w3.org/2000/svg"><g clip-path="url(#clip0_1729:12579)"><path d="M83.7083 89.8346H10.2083C4.57742 89.8346 0 85.2531 0 79.6263V22.4596C0 21.3326 0.914667 20.418 2.04167 20.418C3.16867 20.418 4.08333 21.3326 4.08333 22.4596V79.6263C4.08333 83.0032 6.83142 85.7513 10.2083 85.7513H83.7083C84.8313 85.7513 85.75 84.8366 85.75 83.7096V71.4596C85.75 70.3326 86.6647 69.418 87.7917 69.418C88.9187 69.418 89.8333 70.3326 89.8333 71.4596V83.7096C89.8333 87.0866 87.0853 89.8346 83.7083 89.8346Z" fill="#007BC3"/><path d="M87.7917 49C86.6647 49 85.75 48.0853 85.75 46.9583V34.7083C85.75 33.5813 84.8313 32.6667 83.7083 32.6667H10.2083C7.45208 32.6667 4.88775 31.5928 2.98492 29.6409C1.07392 27.7789 0 25.2146 0 22.4583C0 16.8315 4.57742 12.25 10.2083 12.25H45.1208C46.2478 12.25 47.1625 13.1647 47.1625 14.2917C47.1625 15.4187 46.2478 16.3333 45.1208 16.3333H10.2083C6.83142 16.3333 4.08333 19.0814 4.08333 22.4583C4.08333 24.1039 4.72033 25.627 5.87183 26.754C7.03967 27.9463 8.56683 28.5833 10.2083 28.5833H83.7083C87.0853 28.5833 89.8333 31.3314 89.8333 34.7083V46.9583C89.8333 48.0853 88.9187 49 87.7917 49Z" fill="#007BC3"/><path d="M75.5409 32.6667C74.4139 32.6667 73.4992 31.752 73.4992 30.625V18.375C73.4992 17.248 72.5804 16.3333 71.4575 16.3333H63.985C62.858 16.3333 61.9434 15.4187 61.9434 14.2917C61.9434 13.1647 62.858 12.25 63.985 12.25H71.4575C74.8344 12.25 77.5825 14.9981 77.5825 18.375V30.625C77.5825 31.752 76.6679 32.6667 75.5409 32.6667Z" fill="#007BC3"/><path d="M73.4995 32.6678C72.7972 32.6678 72.1153 32.3044 71.7356 31.6552L58.4851 8.93958L19.424 32.3779C18.4685 32.9577 17.2067 32.6474 16.6228 31.6756C16.043 30.7119 16.3574 29.4542 17.3251 28.8744L58.1585 4.37441C58.624 4.09266 59.1875 4.01916 59.7142 4.14574C60.245 4.28049 60.6942 4.62349 60.9719 5.09308L75.2635 29.5931C75.8352 30.569 75.5045 31.8185 74.5286 32.3861C74.206 32.578 73.8507 32.6678 73.4995 32.6678Z" fill="#007BC3"/><path d="M95.9583 73.5013H75.5417C67.6608 73.5013 61.25 67.0905 61.25 59.2096C61.25 51.3288 67.6608 44.918 75.5417 44.918H95.9583C97.0853 44.918 98 45.8326 98 46.9596V71.4596C98 72.5866 97.0853 73.5013 95.9583 73.5013ZM75.5417 49.0013C69.9108 49.0013 65.3333 53.5828 65.3333 59.2096C65.3333 64.8365 69.9108 69.418 75.5417 69.418H93.9167V49.0013H75.5417Z" fill="#007BC3"/><path d="M75.541 65.332C72.1641 65.332 69.416 62.5839 69.416 59.207C69.416 55.8301 72.1641 53.082 75.541 53.082C78.9179 53.082 81.666 55.8301 81.666 59.207C81.666 62.5839 78.9179 65.332 75.541 65.332ZM75.541 57.1654C74.4181 57.1654 73.4993 58.08 73.4993 59.207C73.4993 60.334 74.4181 61.2487 75.541 61.2487C76.6639 61.2487 77.5827 60.334 77.5827 59.207C77.5827 58.08 76.6639 57.1654 75.541 57.1654Z" fill="#007BC3"/></g><defs><clipPath id="clip0_1729:12579"><rect width="98" height="98" fill="white"/>
</clipPath></defs></svg>
