<svg width="116" height="40" viewBox="0 0 116 40" fill="none" xmlns="http://www.w3.org/2000/svg"><g clip-path="url(#clip0)"><path fill-rule="evenodd" clip-rule="evenodd" d="M20.0283 4.89303C22.454 9.03145 27.8391 19.0322 27.6538 25.9013C27.732 27.8321 27.221 28.7385 26.7738 29.2739C26.6552 29.4079 26.511 29.5166 26.3495 29.5936C26.1881 29.6706 26.0128 29.7143 25.8341 29.722C23.9847 29.8116 22.1315 29.7929 20.2842 29.666C19.7045 29.562 19.1927 29.2139 18.7928 28.2497C18.4367 27.3699 18.1297 26.471 17.8732 25.5572C16.6336 27.7616 15.3061 29.678 14.3145 29.63C13.9675 29.629 13.6336 29.4977 13.3789 29.2619C13.0995 29.4925 12.7562 29.6321 12.3953 29.662H12.3113C12.1832 29.6507 12.0591 29.612 11.9474 29.5485C11.8356 29.485 11.7388 29.3982 11.6635 29.2939C11.367 29.5508 10.9882 29.6927 10.5959 29.694C10.4398 29.6765 10.2898 29.6233 10.1574 29.5387C10.025 29.4541 9.91378 29.3402 9.83223 29.2059C9.46554 29.498 9.00945 29.6549 8.54073 29.65C8.2397 29.6198 7.9612 29.4769 7.76103 29.2499C7.41579 29.5112 6.99434 29.6517 6.56148 29.65C6.25971 29.6261 5.97626 29.4957 5.76179 29.2819C5.42765 29.5467 5.01243 29.688 4.58624 29.682C4.30653 29.6686 4.03805 29.5679 3.81853 29.3939C2.63898 29.906 1.19953 29.822 0.451817 28.1377C-1.90728 22.9166 5.64583 8.32572 8.27283 4.65698C9.59632 2.80061 10.8478 1.52836 12.0514 0.80021C12.6124 0.428817 13.2417 0.173112 13.9027 0.0480591C14.2491 -0.00827763 14.6016 -0.0163559 14.9503 0.0240543C16.9575 0.260102 18.0331 1.7444 20.0283 4.89303ZM23.591 29.2579C23.9187 28.7715 24.1545 28.2291 24.2867 27.6576C24.5294 26.3552 24.6552 25.0336 24.6626 23.7088V22.8006C24.6626 22.7526 24.7066 23.2927 24.7185 24.0689C24.7351 25.0038 24.6977 25.9388 24.6066 26.8694C24.4666 28.2577 23.9508 28.9738 23.579 29.2699L23.591 29.2579ZM22.8353 29.2699C23.1732 28.7188 23.4101 28.1119 23.535 27.4775C23.8949 25.9692 23.9348 22.1965 23.9348 22.0125C24.0325 23.5333 24.0138 25.0594 23.8789 26.5774C23.7389 28.1417 23.1911 28.9778 22.8473 29.2699H22.8353ZM21.8956 29.2699C22.3378 28.741 22.633 28.1049 22.7513 27.4255C23.0752 25.9852 23.2591 21.7764 23.2871 21.0723C23.2871 21.0723 23.3471 23.4047 23.1991 25.3731C22.9672 28.4897 22.3275 28.9738 21.8956 29.2699ZM21.6157 28.2377C21.5837 28.1897 19.9244 23.1167 18.8488 19.2439C19.7396 21.7122 20.4027 23.7672 21.3986 26.8533L21.3996 26.8565C21.5075 27.1909 21.6193 27.5373 21.7357 27.8976C21.707 28.0141 21.6682 28.1279 21.6197 28.2377H21.6157ZM19.7329 25.6758L19.7327 25.6751C19.6014 25.2583 19.4454 24.763 19.2486 24.1489C18.421 21.5684 17.6253 18.2677 17.6253 18.2677C17.6253 18.2677 18.8648 22.0845 19.6765 24.693C20.2842 26.6454 20.964 28.5338 21.1999 28.7498C21.1981 28.7516 21.196 28.7539 21.1935 28.7567C21.1442 28.8115 20.9469 29.0309 20.5361 28.0377C20.2476 27.31 20.0735 26.7573 19.7329 25.6758ZM19.9364 28.7018C18.7613 26.5593 17.3144 20.8733 16.6834 18.3935L16.6832 18.3929C16.5548 17.8882 16.4601 17.5163 16.4085 17.3344C16.6365 18.1172 19.4355 27.6931 20.2523 28.8058C20.4362 29.0579 20.5601 29.1419 20.7161 29.0779C20.7161 29.0779 20.3162 29.4459 19.9164 28.6778L19.9364 28.7018ZM14.3185 29.2139C14.0877 29.2147 13.8639 29.134 13.6868 28.9858C14.8863 27.9456 16.2738 25.8452 17.3973 23.8848C17.4684 24.1583 17.5395 24.4074 17.608 24.6476L17.6081 24.648C17.6397 24.759 17.6709 24.8683 17.7012 24.977C16.1458 27.7776 15.0143 29.2099 14.3345 29.2099L14.3185 29.2139ZM13.3949 28.5538C13.3004 28.2239 13.2706 27.8788 13.3069 27.5376C14.589 25.6994 15.7536 23.7818 16.7936 21.7964L16.7985 21.8143C16.9326 22.2997 17.0591 22.7576 17.1934 23.1687C15.8219 25.6332 14.4145 27.6056 13.3949 28.5538ZM12.3913 29.1299H12.3633C12.3066 29.1228 12.2524 29.1029 12.2046 29.0717C12.1568 29.0405 12.1167 28.9988 12.0874 28.9498C12.381 28.6733 12.6548 28.3765 12.9071 28.0617C12.917 28.324 12.9725 28.5825 13.071 28.8258C12.8802 28.9934 12.6433 29.0994 12.3913 29.1299ZM11.7515 27.2855C12.4086 26.4636 13.0238 25.609 13.5948 24.725C13.3022 25.4939 13.0866 26.29 12.951 27.1015C12.6209 27.5611 12.2588 27.997 11.8675 28.4057C11.7802 28.0348 11.7399 27.6545 11.7475 27.2735L11.7515 27.2855ZM11.2357 26.6494C10.848 27.1541 10.4258 27.6313 9.97218 28.0777C9.89998 27.7609 9.85715 27.4381 9.84423 27.1135C10.5123 26.2121 11.1342 25.2774 11.7075 24.3129C11.4788 25.0686 11.3222 25.8442 11.2397 26.6294L11.2357 26.6494ZM10.6999 29.1299H10.6519C10.5668 29.1166 10.4861 29.0832 10.4166 29.0324C10.347 28.9816 10.2906 28.9149 10.2521 28.8378C10.5972 28.54 10.9218 28.2192 11.2237 27.8776C11.2487 28.1692 11.3036 28.4575 11.3876 28.7378L11.4116 28.8018C11.2108 28.9838 10.9574 29.0973 10.6879 29.1259L10.6999 29.1299ZM7.75703 25.6852C7.83162 24.4631 8.10162 23.261 8.55672 22.1245L8.56347 22.1059C9.21637 20.3052 12.0687 12.4386 13.5948 13.6028C13.7999 13.7572 13.9713 13.9519 14.0986 14.1749C14.0248 14.2994 13.9458 14.4289 13.8603 14.5692C13.5473 15.0825 13.1461 15.7403 12.5872 16.8274C12.4112 17.1715 12.1354 17.7116 11.9194 18.1477C10.9918 20.0041 9.32443 23.2247 7.76502 25.7092L7.75703 25.6852ZM9.30044 26.5094C8.92149 27.0378 8.50454 27.5379 8.05291 28.0057C7.96259 27.6613 7.90634 27.3088 7.88498 26.9534C8.46476 26.1333 9.06053 25.1611 9.6683 24.0969C9.46682 24.8828 9.34492 25.687 9.30444 26.4974L9.30044 26.5094ZM8.6207 28.8458C8.53781 28.8368 8.46036 28.8002 8.40078 28.7418C8.74157 28.4233 9.06082 28.0825 9.35642 27.7216C9.39071 27.9734 9.44418 28.2221 9.51635 28.4657C9.2752 28.7019 8.95745 28.8439 8.6207 28.8658V28.8458ZM7.35318 22.1805C6.86114 23.3921 6.28391 24.5672 5.62584 25.6972C5.89374 20.4441 10.2641 12.4025 12.7351 8.91783C14.2505 6.7734 15.634 5.66118 16.8376 5.43714C18.4357 5.14305 19.0245 6.4635 19.2926 7.06463C19.3163 7.11773 19.3374 7.16522 19.3566 7.20549C19.1866 7.06526 18.9823 6.97275 18.7648 6.93744C18.4008 6.89284 18.0316 6.91864 17.6772 7.01345C16.4137 7.34152 15.0822 8.48975 13.6788 10.4421C13.1165 11.1706 12.615 11.944 12.1793 12.7546C10.8159 13.8348 9.02054 18.0037 7.85299 20.9482C7.69705 21.3483 7.41316 22.0445 7.35318 22.1805ZM6.62146 28.8618C6.53701 28.8537 6.45658 28.8218 6.38955 28.7698C6.6737 28.4971 6.94078 28.2072 7.18924 27.9016C7.2239 28.0723 7.26655 28.239 7.31719 28.4017C7.33719 28.4697 7.36118 28.5338 7.38517 28.5938C7.18305 28.7495 6.93982 28.8427 6.68544 28.8618H6.62146ZM5.92173 27.9656C5.85449 27.7506 5.80107 27.5314 5.76179 27.3095C6.21362 26.6614 6.67344 25.9012 7.14126 25.0691C7.06421 25.6297 7.03345 26.1957 7.0493 26.7614C6.72208 27.2335 6.36128 27.6814 5.96971 28.1017L5.92173 27.9656ZM4.71019 28.8898H4.67021C4.61685 28.8842 4.56518 28.8679 4.51826 28.8418C4.73926 28.6246 4.94752 28.3949 5.14203 28.1537V28.2057C5.19317 28.3603 5.25462 28.5114 5.32595 28.6578C5.14718 28.7926 4.93343 28.8731 4.71019 28.8898ZM3.9105 27.7816C2.3191 22.2605 8.20486 11.1023 11.1677 6.88143C12.7671 4.63298 14.2585 3.42073 15.5221 3.16868C17.1958 2.83589 17.9771 4.30828 18.2321 4.7889C18.2622 4.84563 18.285 4.88854 18.301 4.91303C18.0342 4.75185 17.7364 4.64861 17.4271 4.61001C17.1179 4.57141 16.8039 4.59832 16.5057 4.68899C15.1342 5.05706 13.6268 6.2533 12.0634 8.46574C9.88821 11.5424 4.36232 20.9082 4.86613 26.7334C4.62554 27.1833 4.32415 27.598 3.97047 27.9656C3.94013 27.9084 3.916 27.848 3.8985 27.7856L3.9105 27.7816ZM1.49942 27.9216C-0.987633 23.6608 6.23361 9.36192 9.16449 5.2651C10.6279 3.22469 11.9954 1.92043 13.195 1.36832C13.6344 1.16518 14.1105 1.05356 14.5944 1.04026C15.726 1.04026 16.3577 1.63238 16.9655 2.54456C16.9614 2.54232 16.9562 2.5394 16.9499 2.53587L16.9494 2.53561C16.6615 2.37377 14.1605 0.967784 10.34 6.2733C10.34 6.2733 0.879654 20.4841 3.02683 28.0177C3.08168 28.1881 3.14986 28.354 3.23076 28.5138C3.1188 28.6658 2.13118 29.0619 1.46743 27.9176L1.49942 27.9216ZM20.163 9.42062L20.1776 9.46244C20.1728 9.45969 20.1676 9.45658 20.1619 9.45317C20.0882 9.40895 19.9342 9.31653 19.4206 9.35792C18.1451 9.46194 16.7856 10.5142 15.3581 12.4985L14.8663 13.2027C14.675 12.9466 14.4262 12.739 14.1401 12.5966C13.854 12.4541 13.5385 12.3808 13.2189 12.3825C13.5948 11.8104 13.9946 11.2023 14.2985 10.8022C15.706 8.82582 17.0495 7.85362 18.181 7.7296C19.5222 7.58221 19.9728 8.8749 20.163 9.42062ZM16.3218 20.0961C16.4177 20.4201 16.5097 20.7402 16.5976 21.0523C15.8699 22.3845 14.6984 24.521 13.5308 26.2533C13.8843 24.9843 14.3514 23.7497 14.9263 22.5646C15.578 21.4603 16.0818 20.5362 16.3218 20.0841V20.0961ZM9.9242 25.6052C10.1518 24.1938 10.5422 22.8136 11.0878 21.4923C11.8195 19.768 14.2865 15.2991 14.5664 14.879C14.7544 15.3111 14.9663 15.8232 15.1502 16.3833C14.9974 16.63 14.8415 16.9115 14.6751 17.2122L14.6749 17.2126C14.5714 17.3995 14.4639 17.5938 14.3505 17.7916L14.3305 17.8276L13.9946 18.5118C12.7677 20.9485 11.4089 23.3165 9.9242 25.6052ZM13.3869 21.3843C13.8467 20.5442 14.2945 19.692 14.7264 18.8558C14.8703 18.5798 15.3581 17.6556 15.4981 17.3995C15.666 17.9116 15.8339 18.4437 15.9939 18.9998C15.8739 19.2199 15.742 19.4559 15.594 19.712C14.4986 21.7987 13.2698 23.8126 11.9154 25.7412C12.2466 24.2437 12.74 22.7868 13.3869 21.3963V21.3843ZM20.759 11.274C20.821 11.4717 20.8381 11.5263 20.8511 11.582C20.856 11.6033 20.8603 11.6247 20.8663 11.6543L20.872 11.6824C20.8499 11.6696 20.8254 11.6614 20.8 11.6584H20.7321C19.4606 11.5744 17.9931 12.5786 16.3937 14.827C16.1458 14.559 15.778 14.1629 15.3461 13.7068C15.6558 13.1752 16.0061 12.6682 16.3937 12.1905C17.6772 10.6302 18.4809 10.0741 19.7165 10.0061L19.7208 10.006C19.7818 10.0049 20.38 9.99418 20.4922 10.3501H20.4722C20.6186 10.8263 20.7055 11.1034 20.759 11.274ZM17.1215 14.803C18.4729 12.9426 19.7205 12.0745 20.828 12.2105C20.8601 12.2119 20.8912 12.2214 20.9185 12.2382C20.9458 12.255 20.9683 12.2785 20.984 12.3065C21.0519 12.4785 21.3838 13.7748 21.3838 13.9068H21.1759C20.1843 13.9068 19.1967 14.603 18.1291 16.0513L17.8772 16.4113L16.7936 15.2511L17.1215 14.803ZM18.185 16.7154C18.2743 16.5523 18.3731 16.3947 18.4809 16.2433C19.4486 14.939 20.3362 14.2829 21.1719 14.2829C21.1719 14.2829 21.4558 14.2829 21.4758 14.3549C21.9935 16.281 22.319 18.2537 22.4474 20.2441V20.4481C22.4474 20.4481 22.4234 21.0763 22.4194 21.1203L18.185 16.7154ZM22.0666 22.6636C21.9391 22.2608 21.8276 21.9086 21.681 21.5606C21.9682 22.0735 22.438 23.2175 22.3914 23.6448C22.2614 23.2788 22.1597 22.9577 22.0666 22.6636ZM22.1395 26.6494C22.1102 26.7934 22.0809 26.9268 22.0516 27.0495C21.6997 26.0093 21.2199 24.521 20.792 23.0727C20.5521 22.2725 20.1643 20.8442 19.9924 20.1641C20.5847 21.89 21.0779 23.4096 21.4616 24.592C21.7539 25.4928 21.9827 26.1979 22.1435 26.6494H22.1395ZM21.4785 22.9263L21.4783 22.9258L21.4678 22.8926C21.2917 22.3505 21.1707 21.915 21.0513 21.4851C20.9944 21.2805 20.9379 21.0771 20.876 20.8642C21.5518 22.6806 21.7797 23.3447 22.2835 24.821C22.2938 25.0022 22.2938 25.1839 22.2835 25.3651L22.2675 25.3611C21.9912 24.5398 21.75 23.7805 21.4785 22.9263ZM25.4503 23.4087C25.5478 24.6154 25.5384 25.8284 25.4223 27.0335C25.3023 28.2737 24.8145 28.9178 24.4946 29.1939C24.7979 28.7537 25.0138 28.2593 25.1304 27.7376C25.4383 26.5374 25.4623 23.5568 25.4503 23.4127V23.4087ZM26.186 23.9808C26.2878 25.0542 26.2731 26.1354 26.142 27.2055C26.0141 28.3337 25.5382 28.9498 25.1944 29.2059C25.4888 28.7992 25.7069 28.3424 25.8381 27.8576C26.17 26.7654 26.174 24.1049 26.166 23.9728L26.186 23.9808ZM26.5858 28.0057C26.8601 27.1504 26.8805 25.1492 26.8761 24.6401C26.9755 25.5647 26.9707 26.4977 26.8617 27.4215C26.8452 27.7626 26.7595 28.0968 26.6096 28.4036C26.4597 28.7103 26.2489 28.9833 25.9901 29.2059C26.2575 28.8439 26.4592 28.4376 26.5858 28.0057Z" fill="#E45620"/><path d="M108.655 14.547C110.774 14.547 112.621 13.2267 112.805 11.5304H110.502C110.366 11.5623 110.242 11.63 110.142 11.7264C109.73 12.0456 109.224 12.2189 108.702 12.2189C108.181 12.2189 107.675 12.0456 107.263 11.7264C107.235 11.7069 107.206 11.6848 107.178 11.6626C107.088 11.5934 106.997 11.5224 106.903 11.5224H104.42C104.784 13.5228 106.723 14.543 108.651 14.535L108.655 14.547Z" fill="#E45620"/><path fill-rule="evenodd" clip-rule="evenodd" d="M53.7475 22.9006H62.5921C62.6943 22.2684 62.7411 21.6285 62.732 20.9882C62.732 17.3555 60.185 15.031 56.4344 15.031C52.46 15.031 49.4931 17.8996 49.4931 22.0004C49.4931 26.3453 52.46 28.8338 56.5744 28.8338C58.6835 28.8992 60.7534 28.2539 62.4522 27.0014C62.3337 25.9173 61.7901 24.9244 60.9407 24.2409C59.7959 25.0621 58.4305 25.5194 57.0222 25.5531C55.035 25.5531 53.9994 24.733 53.7475 22.9006ZM56.4544 18.1157C58.1618 18.2037 58.7776 19.3479 58.7776 20.6041H53.7395C53.9354 19.1279 54.8551 18.1157 56.4544 18.1157Z" fill="#E45620"/><path d="M80.0494 14.947C78.4986 14.9464 76.9774 15.3712 75.6511 16.1753C74.6435 15.4111 73.188 14.947 71.3128 14.947C70.2132 14.9472 69.1191 15.1007 68.062 15.4031C67.5985 15.3535 67.1327 15.3281 66.6665 15.3271C65.9729 15.3272 65.2803 15.3821 64.5953 15.4911V28.3657C65.2804 28.4746 65.9729 28.5294 66.6665 28.5297C67.3721 28.5299 68.0766 28.475 68.7737 28.3657V19.1639C69.4299 18.7909 70.1743 18.6015 70.9289 18.6158C72.4963 18.6158 73.328 19.4639 73.328 21.0763V28.3657C74.0129 28.4757 74.7055 28.5305 75.3992 28.5297C76.1021 28.5295 76.8039 28.4746 77.4984 28.3657V20.1961C77.493 19.9286 77.4743 19.6616 77.4424 19.3959C78.0869 18.9096 78.8744 18.6507 79.6815 18.6598C81.249 18.6598 82.0327 19.5079 82.0327 21.1203V28.3657C83.4236 28.5844 84.8401 28.5844 86.231 28.3657V20.1961C86.231 17.1635 84.2318 14.947 80.0734 14.947H80.0494Z" fill="#E45620"/><path fill-rule="evenodd" clip-rule="evenodd" d="M100.474 27.5256V20.7242L100.486 20.7162C100.486 16.6714 97.8266 15.031 93.9641 15.031C91.8984 15.0085 89.8845 15.6774 88.2423 16.9314C88.3217 17.4728 88.5246 17.9885 88.8352 18.4388C89.1458 18.889 89.5559 19.2617 90.0336 19.528C91.0925 18.7994 92.3471 18.4089 93.6322 18.4077C95.5755 18.4077 96.3752 19.1999 96.3752 20.3201V20.8402C95.4642 20.5826 94.5229 20.448 93.5762 20.4401C90.1815 20.4121 87.7825 21.8084 87.7825 24.541C87.7825 27.3855 89.9736 28.8058 93.7802 28.8058C96.0719 28.8039 98.3428 28.3696 100.474 27.5256ZM96.3392 25.6612C95.6898 25.8528 95.017 25.9537 94.34 25.9612L94.316 25.9732C92.7166 25.9732 91.9169 25.3291 91.9169 24.3729C91.9169 23.4167 92.7286 22.9806 94.0441 22.9806C94.8194 22.973 95.5919 23.074 96.3392 23.2807V25.6612Z" fill="#E45620"/><path d="M37.2897 10.8022C37.1541 10.8009 37.0224 10.8475 36.9178 10.9339C36.8132 11.0203 36.7424 11.1408 36.718 11.2743C36.718 11.2743 35.3385 19.676 34.7507 23.2767C34.6028 24.1809 34.2349 24.877 33.3033 25.101L33.1073 25.1411C33.0339 25.1464 32.9626 25.1679 32.8984 25.2038C32.8341 25.2398 32.7785 25.2893 32.7355 25.3491C32.6243 25.4843 32.5486 25.6452 32.5156 25.8172C32.3048 26.678 32.3048 27.5769 32.5156 28.4377C32.6595 29.0418 32.7955 29.1219 33.2073 29.0538C33.6902 28.9715 34.1681 28.8619 34.6388 28.7258C37.1298 27.8576 38.4933 26.0292 39.0131 23.5847C39.3929 21.8044 40.5285 14.4869 40.5285 14.4869H43.3994V28.3657C44.0932 28.4838 44.795 28.548 45.4986 28.5577C46.197 28.5486 46.8935 28.4844 47.5818 28.3657V10.8022H37.2897Z" fill="#E45620"/><path d="M111.03 15.5192C111.715 15.4114 112.407 15.3566 113.101 15.3551C113.804 15.3554 114.506 15.4103 115.2 15.5192V28.4017C114.515 28.5106 113.822 28.5654 113.129 28.5658C112.426 28.5655 111.724 28.5106 111.03 28.4017C110.904 28.4208 110.73 28.4524 110.527 28.4893C110.134 28.5607 109.633 28.6518 109.166 28.7098C108.342 28.825 107.505 28.8169 106.683 28.6858C103.512 28.1657 102.213 26.2613 102.213 23.5568V15.5192C102.907 15.4103 103.609 15.3554 104.312 15.3551C105.006 15.3554 105.698 15.4103 106.383 15.5192V22.6446C106.383 24.4209 106.931 25.2691 108.93 25.2691C109.651 25.2904 110.367 25.1538 111.03 24.869V15.5192Z" fill="#E45620"/><path d="M68.3059 37.2275V34.723C68.3059 34.5869 68.3499 34.5549 68.4778 34.5589H69.5934C69.7334 34.5589 69.7614 34.5989 69.7614 34.727V36.3953C69.7614 36.5233 69.7973 36.5713 69.9333 36.5633C70.2267 36.5682 70.5198 36.5454 70.809 36.4953C70.9619 36.4603 71.103 36.3857 71.2181 36.279C71.3332 36.1723 71.4182 36.0372 71.4647 35.8872C71.5783 35.5589 71.6574 35.2197 71.7006 34.875L71.7022 34.8636C71.7446 34.5629 71.7446 34.5629 72.0605 34.5589C72.2736 34.5563 72.5027 34.5572 72.7324 34.558C72.8474 34.5585 72.9626 34.5589 73.0761 34.5589C73.192 34.5589 73.216 34.5909 73.192 34.699C73.1625 34.8267 73.1371 34.9557 73.1118 35.0847C73.072 35.287 73.0323 35.4893 72.9761 35.6872C72.8628 36.2823 72.5697 36.8283 72.1364 37.2515C72.0605 37.3155 72.0925 37.3675 72.1364 37.4235L73.348 39.6079C73.4276 39.7473 73.4676 39.8173 73.4472 39.8525C73.4267 39.888 73.3448 39.888 73.18 39.888H71.9805C71.9462 39.8943 71.9108 39.8885 71.8802 39.8718C71.8496 39.855 71.8258 39.8283 71.8126 39.796C71.5994 39.3747 71.3826 38.9569 71.1659 38.5392C71.0574 38.3301 70.949 38.1211 70.8409 37.9116C70.8272 37.869 70.7987 37.8327 70.7606 37.8092C70.7225 37.7857 70.6772 37.7767 70.633 37.7836H69.9093C69.7973 37.7836 69.7694 37.8196 69.7694 37.9236V39.72C69.7694 39.844 69.7374 39.884 69.6054 39.88H68.4738C68.3499 39.88 68.3099 39.852 68.3099 39.724V37.2195L68.3059 37.2275Z" fill="#E45620"/><path d="M63.3198 34.727V37.2315L63.3078 37.2275V39.732C63.3038 39.844 63.3278 39.888 63.4557 39.888H67.2063C67.3423 39.888 67.3423 39.848 67.3423 39.748V38.8998C67.3463 38.7758 67.3103 38.7398 67.1823 38.7398H64.9072C64.7952 38.7398 64.7552 38.7118 64.7552 38.5958V37.9156C64.7513 37.7756 64.7872 37.7316 64.9392 37.7316H66.8505C66.9824 37.7316 67.0144 37.6916 67.0144 37.5676V36.8034C67.0144 36.7114 67.0144 36.6654 66.9914 36.6424C66.9684 36.6194 66.9224 36.6194 66.8305 36.6194H64.9032C64.7952 36.6194 64.7633 36.5874 64.7633 36.4833V35.8632C64.7553 35.7232 64.7952 35.6792 64.9472 35.6792H67.1064C67.2303 35.6792 67.2823 35.6632 67.2823 35.5192V34.719C67.2903 34.583 67.2343 34.559 67.1104 34.559H63.4917C63.3598 34.559 63.3198 34.595 63.3198 34.727Z" fill="#E45620"/><path d="M52.7798 37.2075V34.719C52.7798 34.595 52.8078 34.547 52.9478 34.547H56.5824C56.7063 34.547 56.7503 34.575 56.7463 34.703V35.5351C56.7463 35.6552 56.7063 35.6872 56.5904 35.6872H54.4032C54.2713 35.6872 54.2233 35.7192 54.2313 35.8552C54.2433 36.0577 54.2433 36.2608 54.2313 36.4633C54.2313 36.6074 54.2753 36.6354 54.4112 36.6314H56.2945C56.4824 36.6314 56.4864 36.6314 56.4864 36.8114V37.6116C56.4864 37.7196 56.4504 37.7476 56.3425 37.7476H54.3792C54.2593 37.7476 54.2193 37.7796 54.2233 37.8996V38.5758C54.2233 38.7078 54.2553 38.7558 54.3992 38.7518H56.6304C56.7823 38.7518 56.8183 38.7958 56.8103 38.9358V39.784C56.8103 39.868 56.7903 39.9 56.6983 39.9H52.8998C52.7758 39.9 52.7758 39.836 52.7758 39.748V37.2315L52.7798 37.2075Z" fill="#E45620"/><path d="M37.1218 34.563H34.8907V34.567H32.6435C32.5396 34.567 32.5036 34.591 32.5036 34.699V35.6472C32.5036 35.7552 32.5436 35.7832 32.6475 35.7832H33.935C34.0323 35.7832 34.0803 35.7832 34.104 35.8072C34.1269 35.8305 34.1269 35.8765 34.1269 35.9673V39.728C34.1269 39.852 34.1509 39.896 34.2909 39.896H35.4504C35.5904 39.9 35.6304 39.864 35.6304 39.724V35.9472C35.6304 35.8192 35.6584 35.7792 35.7983 35.7792H37.1178C37.2338 35.7832 37.2777 35.7512 37.2777 35.6312V34.711C37.2817 34.591 37.2378 34.563 37.1218 34.563Z" fill="#E45620"/><path d="M44.515 34.563H46.7461C46.8621 34.563 46.9061 34.591 46.9021 34.711V35.6152C46.9021 35.7512 46.8581 35.7832 46.7262 35.7792H45.4226C45.2827 35.7792 45.2547 35.8192 45.2547 35.9472V39.724C45.2547 39.86 45.2187 39.9 45.0788 39.896H43.9352C43.7993 39.896 43.7553 39.868 43.7553 39.728V35.9673C43.7553 35.8765 43.7553 35.8305 43.7323 35.8072C43.7087 35.7832 43.6607 35.7832 43.5634 35.7832H42.2599C42.1559 35.7832 42.1159 35.7552 42.1159 35.6472V34.699C42.1159 34.587 42.1559 34.567 42.2599 34.567H44.507L44.515 34.563Z" fill="#E45620"/><path d="M51.8322 34.563H49.617L49.597 34.567H47.3499C47.234 34.563 47.202 34.591 47.202 34.707V35.6112C47.198 35.7392 47.23 35.7832 47.3699 35.7832H48.6574C48.8093 35.7792 48.8413 35.8272 48.8413 35.9673V39.756C48.8413 39.864 48.8693 39.9 48.9853 39.9H50.1848C50.3208 39.904 50.3528 39.86 50.3528 39.732V35.9392C50.3528 35.8112 50.3887 35.7792 50.5167 35.7792H51.8642C51.9641 35.7832 52.0001 35.7512 52.0001 35.6512V34.731C52.0001 34.603 51.9721 34.563 51.8322 34.563Z" fill="#E45620"/><path fill-rule="evenodd" clip-rule="evenodd" d="M79.1698 36.4593C79.0698 35.9721 78.8261 35.5261 78.47 35.1791C78.2014 34.9314 77.8865 34.7392 77.5434 34.6135C77.2003 34.4879 76.8358 34.4313 76.4708 34.4469C76.0135 34.4322 75.5595 34.5283 75.1473 34.727C74.7694 34.9038 74.4398 35.1692 74.1864 35.5007C73.933 35.8323 73.7633 36.2202 73.6919 36.6314C73.6153 37.0278 73.6153 37.4352 73.6919 37.8316C73.7675 38.3126 73.9783 38.7622 74.2996 39.1279C74.7715 39.6406 75.427 39.9456 76.1229 39.976C76.8685 40.0658 77.6198 39.8621 78.2181 39.4079C78.7464 38.9969 79.0958 38.3979 79.1937 37.7356C79.2659 37.3076 79.2509 36.8694 79.1498 36.4473L79.1698 36.4593ZM77.7183 37.7116C77.6913 37.8852 77.6285 38.0513 77.5338 38.1993C77.439 38.3473 77.3145 38.4739 77.1682 38.571C77.0218 38.6681 76.8568 38.7336 76.6837 38.7634C76.5107 38.7932 76.3333 38.7865 76.1629 38.7438C75.9574 38.7115 75.7652 38.6219 75.6082 38.4854C75.4512 38.3488 75.3358 38.1708 75.2752 37.9716C75.198 37.7574 75.1588 37.5313 75.1593 37.3035C75.1305 37.0407 75.1686 36.775 75.2699 36.5308C75.3713 36.2867 75.5327 36.0722 75.7391 35.9072C75.8972 35.7879 76.0815 35.7081 76.2767 35.6744C76.4719 35.6408 76.6723 35.6542 76.8612 35.7137C77.0501 35.7732 77.2221 35.877 77.3629 36.0164C77.5036 36.1559 77.609 36.3269 77.6703 36.5154C77.7956 36.9035 77.8122 37.3186 77.7183 37.7156V37.7116Z" fill="#E45620"/><path fill-rule="evenodd" clip-rule="evenodd" d="M42.3953 39.3015C42.458 39.4653 42.5206 39.6289 42.5837 39.792L42.5797 39.796C42.6077 39.864 42.5957 39.892 42.5198 39.892H41.1883C41.1283 39.892 41.0883 39.868 41.0883 39.812C41.0364 39.6524 40.9808 39.4937 40.9251 39.3347C40.8649 39.1627 40.8045 38.9903 40.7484 38.8158C40.7397 38.7711 40.714 38.7316 40.6767 38.7055C40.6394 38.6794 40.5935 38.6687 40.5485 38.6758H38.7532C38.7089 38.6696 38.664 38.68 38.627 38.7052C38.59 38.7303 38.5638 38.7683 38.5533 38.8118L38.4783 39.0214C38.3836 39.2863 38.2892 39.5501 38.1974 39.816C38.1908 39.8415 38.1747 39.8636 38.1524 39.8777C38.1301 39.8918 38.1034 39.8969 38.0775 39.892H36.8339C36.762 39.892 36.734 39.86 36.762 39.788L36.8862 39.4886C37.0686 39.0493 37.2505 38.6111 37.4297 38.1677C37.6043 37.7322 37.7775 37.2953 37.9509 36.8579L37.9514 36.8566L37.9526 36.8537C38.0765 36.5411 38.2006 36.2281 38.3254 35.9152C38.4093 35.7051 38.4953 35.495 38.5813 35.2849C38.6673 35.0749 38.7532 34.865 38.8372 34.655C38.8691 34.5669 38.9251 34.5669 38.9971 34.5669H40.4445C40.4747 34.5609 40.506 34.5666 40.5321 34.583C40.5581 34.5994 40.5769 34.6251 40.5845 34.655C40.8284 35.3031 41.0883 35.9712 41.3322 36.5914C41.434 36.8501 41.5364 37.1088 41.639 37.3678L41.6392 37.3684C41.7824 37.73 41.9259 38.0922 42.0679 38.4557C42.1792 38.7366 42.2874 39.0194 42.3953 39.3015ZM39.1251 37.5635H40.1567C40.3046 37.5635 40.3166 37.5395 40.2686 37.4075C40.2284 37.2911 40.1905 37.1825 40.153 37.0752C40.1196 36.9798 40.0866 36.8853 40.0527 36.7874L39.6768 35.7072C39.549 36.0505 39.4325 36.38 39.3182 36.7034C39.2286 36.9566 39.1404 37.206 39.0491 37.4555C39.0091 37.5635 39.0331 37.5635 39.1251 37.5635Z" fill="#E45620"/><path d="M86.279 34.691C86.279 34.591 86.243 34.563 86.1431 34.563H84.7516C84.7142 34.5605 84.6769 34.5695 84.6447 34.5888C84.6126 34.6081 84.5871 34.6368 84.5717 34.671L83.3721 36.7234L83.3481 36.7594C83.3531 36.7048 83.3531 36.6499 83.3481 36.5954C83.3342 36.621 83.3215 36.5841 83.3095 36.5489C83.3008 36.5237 83.2925 36.4993 83.2842 36.4993C83.276 36.4993 83.2679 36.5219 83.2592 36.5459C83.2466 36.5809 83.2328 36.6191 83.2162 36.5954V36.6754C83.0163 36.3273 82.8163 35.9902 82.6164 35.6532C82.4165 35.3161 82.2166 34.979 82.0167 34.631C82.0001 34.5989 81.9736 34.573 81.9412 34.5572C81.9088 34.5413 81.8722 34.5363 81.8367 34.543H80.4453C80.3453 34.543 80.3093 34.575 80.3093 34.675V39.74C80.3093 39.848 80.3453 39.88 80.4533 39.876H81.5528C81.6888 39.876 81.7208 39.836 81.7208 39.708V36.6234C81.7208 36.6159 81.7204 36.6082 81.7198 36.6004C81.7193 36.5948 81.7188 36.5892 81.7183 36.5835C81.7145 36.5427 81.7107 36.5014 81.7408 36.4713C81.7515 36.4716 81.7619 36.4753 81.7705 36.4817C81.7791 36.4882 81.7854 36.4971 81.7887 36.5073C81.9502 36.7925 82.1116 37.0767 82.2731 37.3609L82.2746 37.3635C82.4365 37.6486 82.5984 37.9336 82.7604 38.2197C82.7884 38.2717 82.8083 38.3037 82.8723 38.3037H83.724C83.784 38.3037 83.812 38.2717 83.84 38.2197C84.0385 37.8646 84.2401 37.5111 84.4419 37.1572C84.5653 36.9409 84.6887 36.7244 84.8116 36.5073C84.8116 36.5073 84.8116 36.4753 84.8596 36.4713C84.8952 36.4684 84.8889 36.5249 84.8834 36.5755C84.8814 36.5931 84.8796 36.61 84.8796 36.6234V39.704C84.8796 39.832 84.9116 39.876 85.0475 39.872H86.1471C86.255 39.872 86.291 39.844 86.291 39.736V34.675L86.279 34.691Z" fill="#E45620"/><path d="M57.618 38.7518C58.3217 38.7598 58.5976 37.7756 58.5976 35.6952L58.6016 34.915C58.6021 34.8725 58.611 34.8305 58.6278 34.7913C58.6445 34.7522 58.6688 34.7168 58.6993 34.6871C58.7297 34.6573 58.7657 34.6339 58.8052 34.6181C58.8447 34.6023 58.8869 34.5945 58.9295 34.595H62.2802C62.3209 34.595 62.3599 34.6109 62.3891 34.6393C62.4182 34.6677 62.4351 34.7063 62.4361 34.747V39.724C62.4351 39.7647 62.4182 39.8034 62.3891 39.8318C62.3599 39.8602 62.3209 39.8761 62.2802 39.876H61.1966C61.1559 39.8761 61.1169 39.8602 61.0877 39.8318C61.0586 39.8034 61.0417 39.7647 61.0407 39.724V35.9432C61.0396 35.9026 61.0227 35.8639 60.9936 35.8355C60.9645 35.8071 60.9254 35.7912 60.8847 35.7912H60.113C60.073 35.7912 60.0345 35.8065 60.0055 35.8341C59.9765 35.8616 59.9591 35.8993 59.9571 35.9393C59.8891 39.1639 58.9455 39.888 57.63 39.9401C57.6092 39.9411 57.5883 39.938 57.5688 39.9309C57.5492 39.9238 57.5312 39.9128 57.5159 39.8987C57.5006 39.8845 57.4884 39.8674 57.4798 39.8484C57.4712 39.8294 57.4665 39.8089 57.466 39.788V38.8838C57.4665 38.8649 57.4708 38.8462 57.4789 38.8291C57.4869 38.8119 57.4985 38.7966 57.5128 38.7842C57.5271 38.7718 57.5439 38.7625 57.562 38.7569C57.5801 38.7513 57.5992 38.7496 57.618 38.7518Z" fill="#E45620"/></g><defs></defs></svg>
