<svg width="115" height="40" viewBox="0 0 115 40" fill="none" xmlns="http://www.w3.org/2000/svg">
    <g clip-path="url(#clip0)">
        <path d="M24.0498 28.7118C24.3716 28.2344 24.6031 27.7021 24.733 27.1413C24.9713 25.8631 25.0948 24.5662 25.1021 23.2661C25.1021 22.7714 25.1021 22.422 25.1021 22.3748C25.1021 22.3277 25.1452 22.8578 25.157 23.6194C25.1732 24.5369 25.1365 25.4546 25.0471 26.3678C24.9097 27.7302 24.4032 28.433 24.0381 28.7235L24.0498 28.7118ZM23.3078 28.7235C23.6396 28.1827 23.8722 27.5871 23.9949 26.9646C24.3482 25.4844 24.3875 21.782 24.3875 21.6014C24.4833 23.0939 24.465 24.5915 24.3325 26.0812C24.1951 27.6163 23.6572 28.4369 23.3196 28.7235H23.3078ZM22.3851 28.7235C22.8193 28.2045 23.1091 27.5802 23.2253 26.9136C23.5433 25.5001 23.724 21.3697 23.7514 20.6787C23.7514 20.6787 23.8103 22.9677 23.6651 24.8994C23.4373 27.9579 22.8091 28.433 22.3851 28.7235ZM22.1103 27.7106C22.0789 27.6635 20.4495 22.685 19.3933 18.8844C20.3631 21.57 21.0581 23.7569 22.2281 27.3768C22.1999 27.4912 22.1618 27.6028 22.1142 27.7106H22.1103ZM21.0502 27.5143C20.6576 26.5249 20.4809 25.8652 19.786 23.698C18.9732 21.1656 18.1919 17.9264 18.1919 17.9264C18.1919 17.9264 19.409 21.672 20.2061 24.2319C20.8028 26.1479 21.4703 28.0011 21.702 28.2131C21.6666 28.2485 21.4742 28.539 21.0502 27.5143ZM20.4613 28.166C19.0478 25.5904 17.2339 17.7969 16.9826 16.9606C16.9826 16.9606 19.9352 27.1295 20.7714 28.2681C20.952 28.5154 21.0738 28.5979 21.2269 28.5351C21.2269 28.5351 20.8343 28.8963 20.4416 28.1425L20.4613 28.166ZM14.9449 28.6686C14.7182 28.6694 14.4985 28.5901 14.3246 28.4448C15.5024 27.424 16.8648 25.3627 17.9681 23.4388C18.0702 23.8315 18.1723 24.173 18.2665 24.5107C16.7392 27.2591 15.6281 28.6646 14.9606 28.6646L14.9449 28.6686ZM14.038 28.0207C13.9452 27.697 13.9159 27.3584 13.9516 27.0235C15.2105 25.2196 16.3541 23.3378 17.3753 21.3894C17.5087 21.8723 17.6344 22.3277 17.7679 22.736C16.4212 25.1546 15.0392 27.0902 14.038 28.0207ZM13.0564 28.5861H13.025C12.9694 28.5792 12.9161 28.5597 12.8692 28.529C12.8222 28.4984 12.7829 28.4575 12.7541 28.4094C13.0424 28.138 13.3113 27.8468 13.559 27.5378C13.5688 27.7952 13.6232 28.049 13.7199 28.2877C13.5326 28.4522 13.3 28.5562 13.0525 28.5861H13.0564ZM12.4243 26.7761C13.0695 25.9695 13.6736 25.1309 14.2343 24.2633C13.947 25.0179 13.7353 25.7992 13.6022 26.5955C13.278 27.0466 12.9224 27.4743 12.5381 27.8755C12.4525 27.5115 12.4129 27.1382 12.4204 26.7644L12.4243 26.7761ZM11.9178 26.1519C11.5371 26.6472 11.1226 27.1155 10.6771 27.5535C10.6062 27.2427 10.5642 26.9259 10.5515 26.6073C11.2075 25.7227 11.8181 24.8054 12.3811 23.8589C12.1565 24.6005 12.0027 25.3617 11.9217 26.1322L11.9178 26.1519ZM11.3917 28.5861H11.3446C11.261 28.5731 11.1818 28.5403 11.1135 28.4905C11.0452 28.4406 10.9898 28.3751 10.952 28.2995C11.2908 28.0073 11.6096 27.6924 11.906 27.3572C11.9306 27.6434 11.9845 27.9262 12.067 28.2014L12.0906 28.2642C11.8933 28.4428 11.6445 28.5541 11.3799 28.5822L11.3917 28.5861ZM8.50199 25.2056C8.57524 24.0064 8.84035 22.8266 9.28724 21.7113C9.91543 19.9798 12.7305 12.202 14.2343 13.3485C14.4356 13.5 14.604 13.6911 14.729 13.9099C14.3913 14.4792 13.9437 15.1545 13.2449 16.513C13.0721 16.8506 12.8012 17.3807 12.5892 17.8086C11.6783 19.6304 10.0411 22.791 8.50984 25.2292L8.50199 25.2056ZM10.0175 26.0144C9.64541 26.533 9.236 27.0238 8.79253 27.4829C8.70384 27.1449 8.64861 26.799 8.62763 26.4503C9.19693 25.6454 9.78194 24.6913 10.3787 23.6469C10.1809 24.4182 10.0612 25.2074 10.0214 26.0027L10.0175 26.0144ZM9.35005 28.3074C9.26867 28.2985 9.19261 28.2626 9.13411 28.2053C9.46875 27.8927 9.78223 27.5583 10.0725 27.2041C10.1062 27.4512 10.1587 27.6953 10.2295 27.9344C9.99273 28.1662 9.68072 28.3055 9.35005 28.327V28.3074ZM8.10544 21.7663C7.62229 22.9553 7.05549 24.1085 6.40931 25.2174C6.67237 20.0623 10.9637 12.1706 13.3901 8.75084C14.8782 6.64639 16.2366 5.5549 17.4184 5.33503C19.1263 5.02093 19.6603 6.58357 19.892 7.07042C19.725 6.9328 19.5245 6.84202 19.3109 6.80736C18.9534 6.76359 18.5909 6.78892 18.2429 6.88196C17.0023 7.20391 15.6948 8.33074 14.3167 10.2467C13.7646 10.9616 13.2722 11.7206 12.8444 12.5161C11.5056 13.5762 9.74268 17.6673 8.59622 20.557C8.4431 20.9496 8.16434 21.6328 8.10544 21.7663ZM7.43799 28.3231H7.38694C7.30402 28.3151 7.22504 28.2838 7.15922 28.2328C7.43824 27.9652 7.70049 27.6806 7.94447 27.3808C7.9785 27.5483 8.02037 27.7119 8.07011 27.8715C8.08974 27.9383 8.1133 28.0011 8.13685 28.06C7.93839 28.2128 7.69955 28.3043 7.44976 28.3231H7.43799ZM6.69986 27.4436C6.63383 27.2325 6.58137 27.0175 6.54281 26.7997C6.98647 26.1636 7.43799 25.4177 7.89735 24.601C7.82169 25.1512 7.79148 25.7067 7.80705 26.2618C7.48574 26.7251 7.13147 27.1647 6.74697 27.5771L6.69986 27.4436ZM5.52199 28.3505H5.47095C5.41856 28.345 5.36782 28.329 5.32175 28.3034C5.53875 28.0903 5.74326 27.8648 5.93424 27.6281V27.6792C5.98446 27.8309 6.0448 27.9791 6.11485 28.1228C5.9393 28.2551 5.72942 28.3342 5.51021 28.3505H5.52199ZM4.72497 27.263C3.16233 21.8448 8.94173 10.8946 11.8511 6.7524C13.4215 4.54586 14.886 3.35621 16.1267 3.10886C17.9642 2.74372 18.7062 4.59297 18.8554 4.82069C18.5934 4.66252 18.3011 4.5612 17.9974 4.52332C17.6937 4.48544 17.3854 4.51185 17.0926 4.60083C15.7459 4.96204 14.2657 6.13598 12.7305 8.30718C10.5947 11.3264 5.16863 20.5177 5.66333 26.2343C5.42709 26.6759 5.13115 27.0828 4.78386 27.4436C4.75406 27.3874 4.73037 27.3282 4.71319 27.2669L4.72497 27.263ZM2.35745 27.4004C-0.0846564 23.219 7.0061 9.18666 9.88402 5.1662C11.321 3.16383 12.6638 1.88388 13.8417 1.34206C14.2732 1.14271 14.7407 1.03317 15.2158 1.02011C16.327 1.02011 16.9473 1.60119 17.5441 2.49637C17.3556 2.39429 14.8743 0.831653 11.0383 6.15561C11.0383 6.15561 1.74889 20.1016 3.85727 27.4946C3.91112 27.6619 3.97808 27.8247 4.05751 27.9815C3.94757 28.1307 2.9778 28.5194 2.32604 27.3965L2.35745 27.4004ZM20.7125 9.29266C20.6497 9.26518 20.5398 9.13561 19.9548 9.18273C18.7023 9.28481 17.3674 10.3174 15.9657 12.2648L15.4828 12.9558C15.2949 12.7045 15.0507 12.5008 14.7697 12.361C14.4888 12.2212 14.179 12.1493 13.8652 12.151C14.2343 11.5895 14.6269 10.9927 14.9253 10.6001C16.3073 8.66054 17.6265 7.70647 18.7377 7.58476C20.0961 7.43556 20.5241 8.79011 20.7008 9.29266H20.7125ZM16.912 19.7207C17.0062 20.0387 17.0965 20.3528 17.1829 20.6591C16.4683 21.9665 15.3179 24.0631 14.1715 25.7632C14.5186 24.5178 14.9772 23.3062 15.5417 22.1432C16.1817 21.0596 16.6764 20.1526 16.912 19.7089V19.7207ZM10.63 25.1271C10.8534 23.7421 11.2369 22.3876 11.7725 21.091C12.491 19.3988 14.9135 15.0132 15.1883 14.6009C15.3729 15.0249 15.581 15.5275 15.7616 16.0772C15.5182 16.4698 15.2669 16.9527 14.9763 17.4592L14.9567 17.4945L14.6269 18.1659C13.4221 20.5573 12.0879 22.8811 10.63 25.1271ZM14.0301 20.985C14.4816 20.1604 14.9214 19.3242 15.3454 18.5036C15.4867 18.2327 15.9657 17.3257 16.1032 17.0744C16.2681 17.577 16.433 18.0992 16.59 18.6449C16.4722 18.8609 16.3427 19.0925 16.1974 19.3438C15.1217 21.3916 13.9152 23.368 12.5853 25.2606C12.9104 23.791 13.3949 22.3613 14.0301 20.9967V20.985ZM20.9874 10.1564C21.38 11.4325 21.3368 11.2518 21.38 11.4639C21.3583 11.4513 21.3342 11.4433 21.3093 11.4403H21.2426C19.994 11.3579 18.5531 12.3433 16.9826 14.5499C16.7392 14.2868 16.378 13.8981 15.954 13.4505C16.2581 12.9288 16.602 12.4313 16.9826 11.9625C18.2429 10.4313 19.0321 9.88552 20.2453 9.81878C20.2689 9.81878 20.8931 9.79522 21.007 10.1564H20.9874ZM17.6972 14.5263C19.0243 12.7006 20.2492 11.8486 21.3368 11.9821C21.3683 11.9835 21.3988 11.9928 21.4256 12.0093C21.4524 12.0258 21.4746 12.0489 21.4899 12.0764C21.5567 12.2452 21.8826 13.5173 21.8826 13.6468H21.6784C20.7047 13.6468 19.7349 14.33 18.6866 15.7513L18.4393 16.1047L17.3753 14.9661L17.6972 14.5263ZM18.7416 16.4031C18.8292 16.243 18.9262 16.0883 19.0321 15.9398C19.9823 14.6598 20.8539 14.0159 21.6745 14.0159C21.6745 14.0159 21.9532 14.0159 21.9729 14.0866C22.4812 15.9768 22.8008 17.9127 22.9269 19.866C22.9269 19.9445 22.9269 20.0073 22.9269 20.0662C22.9269 20.0662 22.9034 20.6826 22.8994 20.7258L18.7416 16.4031ZM22.1495 21.1145C22.4283 21.5935 22.9191 22.7714 22.872 23.2033C22.5579 22.3199 22.4126 21.7035 22.1456 21.091L22.1495 21.1145ZM22.6246 26.1519C22.5958 26.2932 22.567 26.4241 22.5382 26.5445C22.1927 25.5237 21.7216 24.0631 21.3015 22.6418C21.0659 21.8566 20.6851 20.4549 20.5162 19.7875C21.541 22.7714 22.2634 25.1271 22.6285 26.1519H22.6246ZM22.7502 24.8876C22.4754 24.071 22.2359 23.3171 21.965 22.4651C21.7098 21.6799 21.5724 21.1224 21.3839 20.4745C22.0475 22.2571 22.2713 22.9088 22.766 24.3576C22.7761 24.5354 22.7761 24.7137 22.766 24.8915L22.7502 24.8876ZM25.8755 22.9716C25.9713 24.1558 25.9621 25.3462 25.848 26.5288C25.7303 27.7459 25.2513 28.378 24.9372 28.6489C25.235 28.217 25.4469 27.7318 25.5614 27.2198C25.8637 26.0419 25.8873 23.1169 25.8755 22.9755V22.9716ZM26.5979 23.5331C26.6979 24.5864 26.6835 25.6474 26.5548 26.6976C26.4291 27.8048 25.9619 28.4094 25.6242 28.6607C25.9134 28.2616 26.1276 27.8133 26.2564 27.3376C26.5822 26.2657 26.5862 23.6548 26.5783 23.5252L26.5979 23.5331ZM27.2615 24.0553C27.3734 25.0034 27.3734 25.9615 27.2615 26.9096C27.2453 27.2444 27.1611 27.5723 27.0139 27.8733C26.8667 28.1744 26.6597 28.4423 26.4056 28.6607C26.6682 28.3055 26.8662 27.9068 26.9906 27.4829C27.2929 26.5406 27.2811 24.1809 27.2733 24.067L27.2615 24.0553ZM28.0389 25.4294C28.2273 18.6881 22.9348 8.86471 20.5516 4.80106C18.5924 1.71113 17.5362 0.254498 15.5653 0.0228508C15.2229 -0.0168062 14.8768 -0.00887851 14.5366 0.0464081C13.8876 0.16913 13.2696 0.420068 12.7188 0.784538C11.537 1.49911 10.3081 2.74765 9.00847 4.56942C6.42895 8.16976 -0.987687 22.4887 1.32878 27.6124C2.06299 29.2654 3.47643 29.3478 4.63466 28.8453C4.85022 29.016 5.11385 29.1148 5.3885 29.1279C5.80699 29.1339 6.21471 28.9952 6.54281 28.7353C6.7534 28.9451 7.03173 29.0731 7.32805 29.0965C7.75309 29.0983 8.16692 28.9603 8.50592 28.7039C8.70248 28.9266 8.97595 29.0669 9.27153 29.0965C9.73178 29.1013 10.1796 28.9474 10.5397 28.6607C10.6198 28.7926 10.729 28.9043 10.859 28.9873C10.989 29.0704 11.1363 29.1225 11.2896 29.1397C11.6748 29.1385 12.0467 28.9992 12.3379 28.7471C12.4118 28.8494 12.5069 28.9346 12.6166 28.997C12.7264 29.0593 12.8482 29.0973 12.974 29.1083H13.0564C13.4109 29.079 13.7479 28.942 14.0223 28.7157C14.2724 28.947 14.6003 29.076 14.941 29.0769C15.9147 29.124 17.2182 27.2434 18.4353 25.08C18.6872 25.9768 18.9887 26.859 19.3384 27.7224C19.731 28.6686 20.2335 29.0102 20.8028 29.1122C22.6168 29.2368 24.4364 29.2551 26.2524 29.1672C26.4279 29.1596 26.6 29.1168 26.7585 29.0412C26.917 28.9657 27.0587 28.859 27.1751 28.7275C27.6148 28.2014 28.1174 27.3101 28.0389 25.4098" fill="#E45620"/>
        <path d="M107.576 14.2768C109.657 14.2768 111.471 12.9812 111.651 11.3164C110.893 11.3164 110.14 11.3164 109.39 11.3164C109.257 11.3477 109.135 11.4142 109.036 11.5088C108.632 11.8221 108.135 11.9921 107.623 11.9921C107.111 11.9921 106.614 11.8221 106.21 11.5088C106.096 11.4303 105.978 11.3086 105.856 11.3086C105.047 11.3086 104.239 11.3086 103.418 11.3086C103.775 13.2717 105.679 14.2729 107.572 14.265" fill="#E45620"/>
        <path d="M58.6011 20.2212C58.6011 18.9883 57.9964 17.8654 56.3199 17.7791C54.7494 17.7791 53.8464 18.7724 53.654 20.2212H58.6011ZM62.3388 22.4748H53.6619C53.9092 24.273 54.9261 25.0779 56.8775 25.0779C58.2603 25.0448 59.601 24.5961 60.7252 23.7901C61.5592 24.4609 62.0929 25.4352 62.2093 26.4992C60.5412 27.7284 58.5087 28.3616 56.4377 28.2974C52.3976 28.2974 49.4844 25.8553 49.4844 21.5914C49.4844 17.5671 52.3976 14.752 56.3003 14.752C59.9831 14.752 62.4841 17.0331 62.4841 20.5981C62.493 21.2265 62.447 21.8544 62.3467 22.4748" fill="#E45620"/>
        <path d="M79.4873 14.668C77.9646 14.6673 76.4708 15.0842 75.1685 15.8733C74.1791 15.1234 72.7499 14.668 70.9086 14.668C69.8289 14.6681 68.7546 14.8188 67.7165 15.1156C67.2614 15.0669 66.804 15.042 66.3463 15.041C65.6652 15.0411 64.9851 15.0949 64.3125 15.2019V27.8365C64.9852 27.9434 65.6652 27.9972 66.3463 27.9975C67.0391 27.9976 67.7309 27.9438 68.4154 27.8365V18.8062C69.0597 18.4401 69.7907 18.2543 70.5316 18.2683C72.0707 18.2683 72.8874 19.1007 72.8874 20.6829V27.8365C73.5599 27.9444 74.24 27.9983 74.9211 27.9975C75.6114 27.9972 76.3005 27.9434 76.9824 27.8365V19.8192C76.9771 19.5567 76.9588 19.2946 76.9274 19.0339C77.5603 18.5566 78.3335 18.3026 79.1261 18.3115C80.6652 18.3115 81.4347 19.1439 81.4347 20.7261V27.8365C82.8005 28.0511 84.1915 28.0511 85.5573 27.8365V19.8192C85.5573 16.8431 83.5942 14.668 79.5109 14.668" fill="#E45620"/>
        <path d="M93.5171 25.477C94.1819 25.4696 94.8425 25.3705 95.4802 25.1825V22.8464C94.7464 22.6436 93.9879 22.5445 93.2266 22.5519C91.9349 22.5519 91.1378 22.9799 91.1378 23.9183C91.1378 24.8566 91.9231 25.4888 93.4936 25.4888L93.5171 25.477ZM99.54 20.3376V27.0121C97.4476 27.8404 95.2178 28.2667 92.9675 28.2685C89.2297 28.2685 87.0781 26.8747 87.0781 24.0832C87.0781 21.4016 89.4339 20.0313 92.7672 20.0588C93.6968 20.0665 94.6211 20.1986 95.5156 20.4514V19.941C95.5156 18.8417 94.7303 18.0643 92.8222 18.0643C91.5603 18.0654 90.3284 18.4487 89.2886 19.1636C88.8195 18.9024 88.4169 18.5366 88.1119 18.0948C87.8068 17.6529 87.6076 17.1467 87.5296 16.6155C89.1421 15.3848 91.1197 14.7284 93.1481 14.7505C96.9408 14.7505 99.5517 16.3603 99.5517 20.3297" fill="#E45620"/>
        <path d="M37.4994 10.6016C37.3662 10.6003 37.2369 10.6461 37.1342 10.7309C37.0315 10.8156 36.962 10.9339 36.938 11.0649C36.938 11.0649 35.5834 19.3099 35.0063 22.8435C34.861 23.7309 34.4998 24.414 33.585 24.6339L33.3926 24.6732C33.3205 24.6785 33.2505 24.6995 33.1874 24.7347C33.1243 24.77 33.0697 24.8187 33.0274 24.8773C32.9182 25.01 32.844 25.1679 32.8115 25.3367C32.6045 26.1814 32.6045 27.0636 32.8115 27.9084C32.9528 28.5012 33.0863 28.5798 33.4907 28.513C33.9649 28.4322 34.4342 28.3247 34.8963 28.1911C37.3424 27.3391 38.6812 25.5448 39.1916 23.1459C39.5646 21.3987 40.6796 14.2176 40.6796 14.2176H43.4987V27.8377C44.1799 27.9536 44.869 28.0166 45.5599 28.0262C46.2457 28.0172 46.9297 27.9542 47.6055 27.8377V10.6016H37.4994Z" fill="#E45620"/>
        <path d="M111.941 15.0684C111.26 15.0698 110.58 15.1236 109.907 15.2293V24.4049C109.257 24.6844 108.554 24.8184 107.846 24.7975C105.883 24.7975 105.345 23.9652 105.345 22.2219V15.2293C104.672 15.1225 103.992 15.0687 103.311 15.0684C102.621 15.0686 101.932 15.1225 101.25 15.2293V23.1171C101.25 25.7712 102.526 27.6401 105.64 28.1505C106.447 28.2792 107.268 28.2871 108.078 28.1741C108.773 28.0877 109.546 27.9267 109.907 27.8718C110.589 27.9786 111.278 28.0325 111.969 28.0327C112.65 28.0324 113.33 27.9786 114.002 27.8718V15.2293C113.32 15.1225 112.631 15.0686 111.941 15.0684Z" fill="#E45620"/>
        <path d="M36.6367 36.8101C36.6367 36.131 36.8624 35.5658 37.3137 35.1145C37.7693 34.6632 38.3495 34.4375 39.0544 34.4375C39.3768 34.4375 39.6905 34.4934 39.9957 34.6051C40.3009 34.7126 40.563 34.8738 40.7822 35.0887L40.26 35.9397C40.1053 35.8022 39.9226 35.6904 39.712 35.6044C39.5057 35.5142 39.3037 35.469 39.106 35.469C38.6762 35.469 38.3517 35.598 38.1325 35.8559C37.9133 36.1095 37.8037 36.4189 37.8037 36.7843C37.8037 37.1582 37.9154 37.4827 38.1389 37.7578C38.3667 38.0329 38.6891 38.1704 39.106 38.1704C39.5444 38.1704 39.9527 37.9813 40.3309 37.6031L40.9112 38.4283C40.4126 38.9441 39.7937 39.202 39.0544 39.202C38.3237 39.202 37.737 38.9785 37.2943 38.5315C36.8559 38.0802 36.6367 37.5064 36.6367 36.8101Z" fill="#E45620"/>
        <path d="M41.6131 39.1246V34.5149H44.5014V35.4819H42.7413V36.3201H44.1468V37.2872H42.7413V38.1575H44.5917V39.1246H41.6131Z" fill="#E45620"/>
        <path d="M45.4567 39.1246V34.5149H47.3715C47.8185 34.5149 48.1795 34.6632 48.4546 34.9597C48.734 35.2563 48.8737 35.6367 48.8737 36.1009C48.8737 36.5694 48.734 36.954 48.4546 37.2549C48.1795 37.5515 47.8185 37.6998 47.3715 37.6998H46.5849V39.1246H45.4567ZM46.5849 36.7327H47.1394C47.3285 36.7327 47.4725 36.6747 47.5714 36.5586C47.6745 36.4426 47.7261 36.29 47.7261 36.1009C47.7261 35.9118 47.6767 35.7613 47.5778 35.6496C47.4789 35.5378 47.3393 35.4819 47.1587 35.4819H46.5849V36.7327Z" fill="#E45620"/>
        <path d="M49.6151 39.1246V34.5149H51.3107C51.7835 34.5149 52.1617 34.6202 52.4454 34.8308C52.7334 35.0371 52.8774 35.3337 52.8774 35.7205C52.8774 35.9182 52.8301 36.1073 52.7355 36.2878C52.641 36.4641 52.5099 36.6016 52.3423 36.7005V36.7134C52.5872 36.7864 52.7678 36.9218 52.8838 37.1195C53.0042 37.3129 53.0643 37.5235 53.0643 37.7513C53.0643 38.2198 52.8989 38.5658 52.5679 38.7893C52.2369 39.0128 51.8179 39.1246 51.3107 39.1246H49.6151ZM50.7434 36.3007H51.3236C51.4568 36.3007 51.5578 36.2599 51.6266 36.1782C51.6954 36.0966 51.7298 35.9956 51.7298 35.8752C51.7298 35.7592 51.6932 35.6646 51.6202 35.5915C51.5514 35.5185 51.4461 35.4819 51.3043 35.4819H50.7434V36.3007ZM50.7434 38.1575H51.4203C51.575 38.1575 51.6954 38.1124 51.7813 38.0221C51.8673 37.9276 51.9103 37.8115 51.9103 37.674C51.9103 37.5364 51.8695 37.4247 51.7878 37.3387C51.7061 37.2485 51.5858 37.2033 51.4268 37.2033H50.7434V38.1575Z" fill="#E45620"/>
        <path d="M53.9183 39.1246V34.5149H55.0466V36.6682L54.995 37.4548H55.0079C55.1454 37.1324 55.2744 36.8702 55.3947 36.6682L56.6713 34.5149H57.8124V39.1246H56.6842V36.9777L56.7357 36.1911H56.7228C56.5853 36.5135 56.4564 36.7757 56.336 36.9777L55.053 39.1246H53.9183Z" fill="#E45620"/>
        <path d="M58.6628 36.8101C58.6628 36.131 58.8885 35.5658 59.3398 35.1145C59.7954 34.6632 60.3756 34.4375 61.0805 34.4375C61.4029 34.4375 61.7166 34.4934 62.0218 34.6051C62.327 34.7126 62.5892 34.8738 62.8084 35.0887L62.2861 35.9397C62.1314 35.8022 61.9487 35.6904 61.7381 35.6044C61.5318 35.5142 61.3298 35.469 61.1321 35.469C60.7023 35.469 60.3778 35.598 60.1586 35.8559C59.9394 36.1095 59.8298 36.4189 59.8298 36.7843C59.8298 37.1582 59.9415 37.4827 60.165 37.7578C60.3928 38.0329 60.7152 38.1704 61.1321 38.1704C61.5705 38.1704 61.9788 37.9813 62.3571 37.6031L62.9373 38.4283C62.4387 38.9441 61.8198 39.202 61.0805 39.202C60.3498 39.202 59.7631 38.9785 59.3204 38.5315C58.882 38.0802 58.6628 37.5064 58.6628 36.8101Z" fill="#E45620"/>
        <path d="M67.5075 39.1246V34.5149H68.6357V39.1246H67.5075ZM63.6392 39.1246V34.5149H64.7674V35.9397H65.4895C65.9365 35.9397 66.2976 36.0901 66.5726 36.391C66.852 36.6876 66.9917 37.0701 66.9917 37.5386C66.9917 38.0028 66.852 38.3832 66.5726 38.6797C66.2976 38.9763 65.9365 39.1246 65.4895 39.1246H63.6392ZM64.7674 38.1575H65.2768C65.4573 38.1575 65.597 38.1016 65.6958 37.9899C65.7947 37.8781 65.8441 37.7277 65.8441 37.5386C65.8441 37.3495 65.7925 37.1969 65.6894 37.0808C65.5905 36.9648 65.4465 36.9068 65.2574 36.9068H64.7674V38.1575Z" fill="#E45620"/>
        <path d="M72.6704 38.164H74.0952V35.4819H73.1733V35.6947C73.1733 36.1202 73.1324 36.5565 73.0508 37.0035C72.9734 37.4505 72.8466 37.8373 72.6704 38.164ZM71.0393 38.164H71.5163C71.9075 37.4849 72.103 36.6317 72.103 35.6044V34.5149H75.2235V38.164H75.7392V40.0272H74.7399V39.1246H72.0773V40.0272H71.0393V38.164Z" fill="#E45620"/>
        <path d="M76.2 38.1511C76.3977 38.1253 76.5589 38.0544 76.6835 37.9383C76.8124 37.8223 76.9178 37.6074 76.9994 37.2936C77.0811 36.9798 77.1219 36.5586 77.1219 36.03V34.5149H80.2165V39.1246H79.0883V35.4819H78.1921V36.0428C78.1921 37.1475 78.0267 37.9469 77.6957 38.4412C77.3648 38.9312 76.8662 39.1762 76.2 39.1762V38.1511Z" fill="#E45620"/>
        <path d="M80.8797 39.1246L81.763 37.6417L81.9371 37.3645V37.3516C81.4428 37.0765 81.1957 36.6209 81.1957 35.9848C81.1957 35.6453 81.273 35.3594 81.4277 35.1273C81.5825 34.891 81.7888 34.7233 82.0467 34.6245C82.2358 34.5514 82.5345 34.5149 82.9428 34.5149H84.5482V39.1246H83.4199V37.5708H83.0073L82.1369 39.1246H80.8797ZM82.9299 36.636H83.4199V35.4819H83.0395C82.786 35.4819 82.6054 35.5249 82.498 35.6109C82.3948 35.6968 82.3433 35.8408 82.3433 36.0428C82.3433 36.4383 82.5388 36.636 82.9299 36.636Z" fill="#E45620"/>
        <path d="M86.9423 39.1246L88.1801 36.7327V36.7198L87.039 34.5149H88.2511L89.1021 36.2943H89.5405V34.5149H90.6688V36.2943H91.1072L91.9582 34.5149H93.1702L92.0291 36.7198V36.7327L93.267 39.1246H92.0033L91.1072 37.2549H90.6688V39.1246H89.5405V37.2549H89.1021L88.2059 39.1246H86.9423Z" fill="#E45620"/>
        <path d="M93.9192 39.1246V34.5149H95.0474V36.6682L94.9958 37.4548H95.0087C95.1463 37.1324 95.2752 36.8702 95.3956 36.6682L96.6721 34.5149H97.8133V39.1246H96.685V36.9777L96.7366 36.1911H96.7237C96.5862 36.5135 96.4572 36.7757 96.3369 36.9777L95.0539 39.1246H93.9192Z" fill="#E45620"/>
        <path d="M98.5218 38.4992L99.1085 37.7578C99.4223 38.063 99.749 38.2155 100.089 38.2155C100.493 38.2155 100.695 38.0436 100.695 37.6998C100.695 37.3989 100.514 37.2485 100.153 37.2485H99.5985V36.3523H100.05C100.213 36.3523 100.342 36.3072 100.437 36.2169C100.536 36.1267 100.585 36.0171 100.585 35.8881C100.585 35.742 100.536 35.6259 100.437 35.54C100.342 35.4497 100.211 35.4046 100.043 35.4046C99.7253 35.4046 99.4073 35.5314 99.0892 35.785L98.6572 34.9791C99.0913 34.618 99.6243 34.4375 100.256 34.4375C100.497 34.4375 100.725 34.4826 100.94 34.5729C101.159 34.6589 101.346 34.805 101.5 35.0113C101.655 35.2133 101.733 35.4562 101.733 35.7398C101.733 36.1739 101.533 36.5092 101.133 36.7456V36.7585C101.356 36.8358 101.533 36.9648 101.662 37.1453C101.791 37.3215 101.855 37.5343 101.855 37.7836C101.855 38.2177 101.696 38.5637 101.378 38.8216C101.06 39.0752 100.671 39.202 100.211 39.202C99.5405 39.202 98.9774 38.9677 98.5218 38.4992Z" fill="#E45620"/>
        <path d="M102.708 39.1246V34.5149H103.836V36.3588H105.513V34.5149H106.641V39.1246H105.513V37.3194H103.836V39.1246H102.708Z" fill="#E45620"/>
        <path d="M107.735 39.1246V34.5149H108.864V36.6682L108.812 37.4548H108.825C108.963 37.1324 109.092 36.8702 109.212 36.6682L110.488 34.5149H111.63V39.1246H110.501V36.9777L110.553 36.1911H110.54C110.402 36.5135 110.274 36.7757 110.153 36.9777L108.87 39.1246H107.735Z" fill="#E45620"/>
    </g>
    <defs>
        <clipPath id="clip0">
            <rect width="113.118" height="39.2544" fill="white" transform="translate(0.882812)"/>
        </clipPath>
    </defs>
</svg>
